<?xml version="1.0" encoding="utf-8" standalone="no"?>
<!DOCTYPE svg PUBLIC "-//W3C//DTD SVG 1.1//EN"
  "http://www.w3.org/Graphics/SVG/1.1/DTD/svg11.dtd">
<svg xmlns:xlink="http://www.w3.org/1999/xlink" width="424.868213pt" height="343.941264pt" viewBox="0 0 424.868213 343.941264" xmlns="http://www.w3.org/2000/svg" version="1.1">
 <metadata>
  <rdf:RDF xmlns:dc="http://purl.org/dc/elements/1.1/" xmlns:cc="http://creativecommons.org/ns#" xmlns:rdf="http://www.w3.org/1999/02/22-rdf-syntax-ns#">
   <cc:Work>
    <dc:type rdf:resource="http://purl.org/dc/dcmitype/StillImage"/>
    <dc:date>2025-05-21T16:15:19.919191</dc:date>
    <dc:format>image/svg+xml</dc:format>
    <dc:creator>
     <cc:Agent>
      <dc:title>Matplotlib v3.9.2, https://matplotlib.org/</dc:title>
     </cc:Agent>
    </dc:creator>
   </cc:Work>
  </rdf:RDF>
 </metadata>
 <defs>
  <style type="text/css">*{stroke-linejoin: round; stroke-linecap: butt}</style>
 </defs>
 <g id="figure_1">
  <g id="patch_1">
   <path d="M 0 343.941264 
L 424.868213 343.941264 
L 424.868213 0 
L 0 0 
z
" style="fill: #ffffff"/>
  </g>
  <g id="axes_1">
   <g id="patch_2">
    <path d="M 60.548213 290.316004 
L 417.668213 290.316004 
L 417.668213 24.204004 
L 60.548213 24.204004 
z
" style="fill: #ffffff"/>
   </g>
   <g id="patch_3">
    <path clip-path="url(#pe78a671570)" style="fill: none; stroke: #ff0000; stroke-width: 2; stroke-linejoin: miter"/>
   </g>
   <g id="PathCollection_1">
    <defs>
     <path id="m0549f849ee" d="M 0 -10 
L -2.24514 -3.09017 
L -9.510565 -3.09017 
L -3.632713 1.18034 
L -5.877853 8.09017 
L -0 3.81966 
L 5.877853 8.09017 
L 3.632713 1.18034 
L 9.510565 -3.09017 
L 2.24514 -3.09017 
z
" style="stroke: #ffffff"/>
    </defs>
    <g clip-path="url(#pe78a671570)">
     <use xlink:href="#m0549f849ee" x="395.348213" y="237.093604" style="fill: #808080; stroke: #ffffff"/>
    </g>
   </g>
   <g id="matplotlib.axis_1">
    <g id="xtick_1">
     <g id="line2d_1">
      <defs>
       <path id="m5c9248cb98" d="M 0 0 
L 0 3.5 
" style="stroke: #000000; stroke-width: 0.8"/>
      </defs>
      <g>
       <use xlink:href="#m5c9248cb98" x="60.548213" y="290.316004" style="stroke: #000000; stroke-width: 0.8"/>
      </g>
     </g>
     <g id="text_1">
      <!-- $\mathdefault{−1.5}$ -->
      <g transform="translate(40.951656 311.153) scale(0.2 -0.2)">
       <defs>
        <path id="CMSY10-0" d="M 4218 1472 
C 4326 1472 4442 1472 4442 1600 
C 4442 1728 4326 1728 4218 1728 
L 755 1728 
C 646 1728 531 1728 531 1600 
C 531 1472 646 1472 755 1472 
L 4218 1472 
z
" transform="scale(0.015625)"/>
        <path id="CMR17-31" d="M 1702 4083 
C 1702 4217 1696 4224 1606 4224 
C 1357 3927 979 3833 621 3820 
C 602 3820 570 3820 563 3808 
C 557 3795 557 3782 557 3648 
C 755 3648 1088 3686 1344 3839 
L 1344 467 
C 1344 243 1331 166 781 166 
L 589 166 
L 589 0 
C 896 6 1216 12 1523 12 
C 1830 12 2150 6 2458 0 
L 2458 166 
L 2266 166 
C 1715 166 1702 236 1702 467 
L 1702 4083 
z
" transform="scale(0.015625)"/>
        <path id="CMMI12-3a" d="M 1178 307 
C 1178 492 1024 620 870 620 
C 685 620 557 467 557 313 
C 557 128 710 0 864 0 
C 1050 0 1178 153 1178 307 
z
" transform="scale(0.015625)"/>
        <path id="CMR17-35" d="M 730 3750 
C 794 3724 1056 3641 1325 3641 
C 1920 3641 2246 3961 2432 4140 
C 2432 4191 2432 4224 2394 4224 
C 2387 4224 2374 4224 2323 4198 
C 2099 4102 1837 4032 1517 4032 
C 1325 4032 1037 4055 723 4191 
C 653 4224 640 4224 634 4224 
C 602 4224 595 4217 595 4090 
L 595 2231 
C 595 2113 595 2080 659 2080 
C 691 2080 704 2093 736 2139 
C 941 2435 1222 2560 1542 2560 
C 1766 2560 2246 2415 2246 1293 
C 2246 1087 2246 716 2054 422 
C 1894 159 1645 25 1370 25 
C 947 25 518 319 403 812 
C 429 806 480 793 506 793 
C 589 793 749 838 749 1036 
C 749 1209 627 1280 506 1280 
C 358 1280 262 1190 262 1011 
C 262 454 704 -128 1382 -128 
C 2042 -128 2669 441 2669 1267 
C 2669 2054 2170 2662 1549 2662 
C 1222 2662 947 2540 730 2304 
L 730 3750 
z
" transform="scale(0.015625)"/>
       </defs>
       <use xlink:href="#CMSY10-0" transform="scale(0.996264)"/>
       <use xlink:href="#CMR17-31" transform="translate(77.487468 0) scale(0.996264)"/>
       <use xlink:href="#CMMI12-3a" transform="translate(123.177945 0) scale(0.996264)"/>
       <use xlink:href="#CMR17-35" transform="translate(150.275122 0) scale(0.996264)"/>
      </g>
     </g>
    </g>
    <g id="xtick_2">
     <g id="line2d_2">
      <g>
       <use xlink:href="#m5c9248cb98" x="172.148213" y="290.316004" style="stroke: #000000; stroke-width: 0.8"/>
      </g>
     </g>
     <g id="text_2">
      <!-- $\mathdefault{−1.0}$ -->
      <g transform="translate(152.551656 311.153) scale(0.2 -0.2)">
       <defs>
        <path id="CMR17-30" d="M 2688 2038 
C 2688 2430 2682 3099 2413 3613 
C 2176 4063 1798 4224 1466 4224 
C 1158 4224 768 4082 525 3620 
C 269 3137 243 2539 243 2038 
C 243 1671 250 1112 448 623 
C 723 -39 1216 -128 1466 -128 
C 1760 -128 2208 -7 2470 604 
C 2662 1048 2688 1568 2688 2038 
z
M 1466 -26 
C 1056 -26 813 328 723 816 
C 653 1196 653 1749 653 2109 
C 653 2604 653 3015 736 3407 
C 858 3954 1216 4121 1466 4121 
C 1728 4121 2067 3947 2189 3420 
C 2272 3054 2278 2623 2278 2109 
C 2278 1691 2278 1176 2202 797 
C 2067 96 1690 -26 1466 -26 
z
" transform="scale(0.015625)"/>
       </defs>
       <use xlink:href="#CMSY10-0" transform="scale(0.996264)"/>
       <use xlink:href="#CMR17-31" transform="translate(77.487468 0) scale(0.996264)"/>
       <use xlink:href="#CMMI12-3a" transform="translate(123.177945 0) scale(0.996264)"/>
       <use xlink:href="#CMR17-30" transform="translate(150.275122 0) scale(0.996264)"/>
      </g>
     </g>
    </g>
    <g id="xtick_3">
     <g id="line2d_3">
      <g>
       <use xlink:href="#m5c9248cb98" x="283.748213" y="290.316004" style="stroke: #000000; stroke-width: 0.8"/>
      </g>
     </g>
     <g id="text_3">
      <!-- $\mathdefault{−0.5}$ -->
      <g transform="translate(264.151656 311.153) scale(0.2 -0.2)">
       <use xlink:href="#CMSY10-0" transform="scale(0.996264)"/>
       <use xlink:href="#CMR17-30" transform="translate(77.487468 0) scale(0.996264)"/>
       <use xlink:href="#CMMI12-3a" transform="translate(123.177945 0) scale(0.996264)"/>
       <use xlink:href="#CMR17-35" transform="translate(150.275122 0) scale(0.996264)"/>
      </g>
     </g>
    </g>
    <g id="xtick_4">
     <g id="line2d_4">
      <g>
       <use xlink:href="#m5c9248cb98" x="395.348213" y="290.316004" style="stroke: #000000; stroke-width: 0.8"/>
      </g>
     </g>
     <g id="text_4">
      <!-- $\mathdefault{0.0}$ -->
      <g transform="translate(383.5004 311.153) scale(0.2 -0.2)">
       <use xlink:href="#CMR17-30" transform="scale(0.996264)"/>
       <use xlink:href="#CMMI12-3a" transform="translate(45.690477 0) scale(0.996264)"/>
       <use xlink:href="#CMR17-30" transform="translate(72.787654 0) scale(0.996264)"/>
      </g>
     </g>
    </g>
    <g id="text_5">
     <!-- $x_1$ -->
     <g transform="translate(230.150578 332.865631) scale(0.2 -0.2)">
      <defs>
       <path id="CMMI12-78" d="M 3034 2624 
C 2829 2585 2752 2431 2752 2310 
C 2752 2156 2874 2105 2963 2105 
C 3155 2105 3290 2271 3290 2444 
C 3290 2694 2982 2816 2714 2816 
C 2323 2816 2106 2451 2048 2329 
C 1901 2790 1504 2816 1389 2816 
C 736 2816 390 1993 390 1849 
C 390 1823 416 1790 461 1790 
C 512 1790 525 1829 538 1855 
C 755 2572 1184 2687 1370 2687 
C 1658 2687 1715 2438 1715 2284 
C 1715 2143 1677 1993 1600 1678 
L 1382 778 
C 1286 390 1101 64 762 64 
C 730 64 570 64 435 126 
C 666 166 717 358 717 435 
C 717 563 621 640 499 640 
C 346 640 179 505 179 300 
C 179 57 480 -64 755 -64 
C 1062 -64 1280 153 1414 415 
C 1517 64 1837 -64 2074 -64 
C 2726 -64 3072 751 3072 896 
C 3072 929 3046 955 3008 955 
C 2950 955 2944 922 2925 870 
C 2752 300 2381 64 2093 64 
C 1869 64 1747 204 1747 467 
C 1747 607 1773 712 1875 1146 
L 2099 2039 
C 2195 2425 2413 2687 2707 2687 
C 2720 2687 2899 2687 3034 2624 
z
" transform="scale(0.015625)"/>
      </defs>
      <use xlink:href="#CMMI12-78" transform="scale(0.996264)"/>
      <use xlink:href="#CMR17-31" transform="translate(55.43406 -14.943915) scale(0.697382)"/>
     </g>
    </g>
    <g id="text_6">
     <!-- $\times\mathdefault{10^{−1}}\mathdefault{}$ -->
     <g transform="translate(366.217887 332.032637) scale(0.2 -0.2)">
      <defs>
       <path id="CMSY10-2" d="M 2490 1775 
L 1210 3046 
C 1133 3123 1120 3136 1069 3136 
C 1005 3136 941 3078 941 3008 
C 941 2963 954 2950 1024 2880 
L 2304 1596 
L 1024 313 
C 954 243 941 230 941 185 
C 941 115 1005 57 1069 57 
C 1120 57 1133 70 1210 147 
L 2483 1418 
L 3808 95 
C 3821 89 3866 57 3904 57 
C 3981 57 4032 115 4032 185 
C 4032 198 4032 223 4013 255 
C 4006 268 2989 1271 2669 1596 
L 3840 2765 
C 3872 2803 3968 2886 4000 2925 
C 4006 2937 4032 2963 4032 3008 
C 4032 3078 3981 3136 3904 3136 
C 3853 3136 3827 3110 3757 3040 
L 2490 1775 
z
" transform="scale(0.015625)"/>
      </defs>
      <use xlink:href="#CMSY10-2" transform="scale(0.996264)"/>
      <use xlink:href="#CMR17-31" transform="translate(77.487468 0) scale(0.996264)"/>
      <use xlink:href="#CMR17-30" transform="translate(123.177945 0) scale(0.996264)"/>
      <use xlink:href="#CMSY10-0" transform="translate(168.868422 36.153639) scale(0.697382)"/>
      <use xlink:href="#CMR17-31" transform="translate(223.109415 36.153639) scale(0.697382)"/>
     </g>
    </g>
   </g>
   <g id="matplotlib.axis_2">
    <g id="ytick_1">
     <g id="line2d_5">
      <defs>
       <path id="m6c30bef9ab" d="M 0 0 
L -3.5 0 
" style="stroke: #000000; stroke-width: 0.8"/>
      </defs>
      <g>
       <use xlink:href="#m6c30bef9ab" x="60.548213" y="290.316004" style="stroke: #000000; stroke-width: 0.8"/>
      </g>
     </g>
     <g id="text_7">
      <!-- $\mathdefault{−1}$ -->
      <g transform="translate(28.91263 297.234502) scale(0.2 -0.2)">
       <use xlink:href="#CMSY10-0" transform="scale(0.996264)"/>
       <use xlink:href="#CMR17-31" transform="translate(77.487468 0) scale(0.996264)"/>
      </g>
     </g>
    </g>
    <g id="ytick_2">
     <g id="line2d_6">
      <g>
       <use xlink:href="#m6c30bef9ab" x="60.548213" y="237.093604" style="stroke: #000000; stroke-width: 0.8"/>
      </g>
     </g>
     <g id="text_8">
      <!-- $\mathdefault{0}$ -->
      <g transform="translate(44.410118 244.012102) scale(0.2 -0.2)">
       <use xlink:href="#CMR17-30" transform="scale(0.996264)"/>
      </g>
     </g>
    </g>
    <g id="ytick_3">
     <g id="line2d_7">
      <g>
       <use xlink:href="#m6c30bef9ab" x="60.548213" y="183.871204" style="stroke: #000000; stroke-width: 0.8"/>
      </g>
     </g>
     <g id="text_9">
      <!-- $\mathdefault{1}$ -->
      <g transform="translate(44.410118 190.789702) scale(0.2 -0.2)">
       <use xlink:href="#CMR17-31" transform="scale(0.996264)"/>
      </g>
     </g>
    </g>
    <g id="ytick_4">
     <g id="line2d_8">
      <g>
       <use xlink:href="#m6c30bef9ab" x="60.548213" y="130.648804" style="stroke: #000000; stroke-width: 0.8"/>
      </g>
     </g>
     <g id="text_10">
      <!-- $\mathdefault{2}$ -->
      <g transform="translate(44.410118 137.567302) scale(0.2 -0.2)">
       <defs>
        <path id="CMR17-32" d="M 2669 990 
L 2554 990 
C 2490 537 2438 460 2413 422 
C 2381 371 1920 371 1830 371 
L 602 371 
C 832 620 1280 1073 1824 1596 
C 2214 1966 2669 2400 2669 3033 
C 2669 3788 2067 4224 1395 4224 
C 691 4224 262 3603 262 3027 
C 262 2777 448 2745 525 2745 
C 589 2745 781 2783 781 3007 
C 781 3206 614 3264 525 3264 
C 486 3264 448 3257 422 3244 
C 544 3788 915 4057 1306 4057 
C 1862 4057 2227 3616 2227 3033 
C 2227 2477 1901 1998 1536 1583 
L 262 147 
L 262 0 
L 2515 0 
L 2669 990 
z
" transform="scale(0.015625)"/>
       </defs>
       <use xlink:href="#CMR17-32" transform="scale(0.996264)"/>
      </g>
     </g>
    </g>
    <g id="ytick_5">
     <g id="line2d_9">
      <g>
       <use xlink:href="#m6c30bef9ab" x="60.548213" y="77.426404" style="stroke: #000000; stroke-width: 0.8"/>
      </g>
     </g>
     <g id="text_11">
      <!-- $\mathdefault{3}$ -->
      <g transform="translate(44.410118 84.344902) scale(0.2 -0.2)">
       <defs>
        <path id="CMR17-33" d="M 1414 2176 
C 1984 2176 2234 1673 2234 1094 
C 2234 322 1824 25 1453 25 
C 1114 25 563 193 390 691 
C 422 678 454 678 486 678 
C 640 678 755 780 755 947 
C 755 1132 614 1216 486 1216 
C 378 1216 211 1164 211 927 
C 211 335 787 -128 1466 -128 
C 2176 -128 2720 432 2720 1087 
C 2720 1718 2208 2176 1600 2246 
C 2086 2347 2554 2776 2554 3353 
C 2554 3856 2048 4224 1472 4224 
C 890 4224 378 3862 378 3347 
C 378 3123 544 3084 627 3084 
C 762 3084 877 3167 877 3334 
C 877 3500 762 3584 627 3584 
C 602 3584 570 3584 544 3571 
C 730 3999 1235 4076 1459 4076 
C 1683 4076 2106 3966 2106 3347 
C 2106 3167 2080 2851 1862 2574 
C 1670 2329 1453 2316 1242 2297 
C 1210 2297 1062 2284 1037 2284 
C 992 2278 966 2272 966 2227 
C 966 2182 973 2176 1101 2176 
L 1414 2176 
z
" transform="scale(0.015625)"/>
       </defs>
       <use xlink:href="#CMR17-33" transform="scale(0.996264)"/>
      </g>
     </g>
    </g>
    <g id="ytick_6">
     <g id="line2d_10">
      <g>
       <use xlink:href="#m6c30bef9ab" x="60.548213" y="24.204004" style="stroke: #000000; stroke-width: 0.8"/>
      </g>
     </g>
     <g id="text_12">
      <!-- $\mathdefault{4}$ -->
      <g transform="translate(44.410118 31.122502) scale(0.2 -0.2)">
       <defs>
        <path id="CMR17-34" d="M 2150 4147 
C 2150 4281 2144 4288 2029 4288 
L 128 1254 
L 128 1088 
L 1779 1088 
L 1779 460 
C 1779 230 1766 166 1318 166 
L 1197 166 
L 1197 0 
C 1402 12 1747 12 1965 12 
C 2182 12 2528 12 2733 0 
L 2733 166 
L 2611 166 
C 2163 166 2150 230 2150 460 
L 2150 1088 
L 2803 1088 
L 2803 1254 
L 2150 1254 
L 2150 4147 
z
M 1798 3723 
L 1798 1254 
L 256 1254 
L 1798 3723 
z
" transform="scale(0.015625)"/>
       </defs>
       <use xlink:href="#CMR17-34" transform="scale(0.996264)"/>
      </g>
     </g>
    </g>
    <g id="text_13">
     <!-- $x_2$ -->
     <g transform="translate(21.036997 166.217639) rotate(-90) scale(0.2 -0.2)">
      <use xlink:href="#CMMI12-78" transform="scale(0.996264)"/>
      <use xlink:href="#CMR17-32" transform="translate(55.43406 -14.943915) scale(0.697382)"/>
     </g>
    </g>
    <g id="text_14">
     <!-- $\times\mathdefault{10^{−2}}\mathdefault{}$ -->
     <g transform="translate(60.548213 21.204004) scale(0.2 -0.2)">
      <use xlink:href="#CMSY10-2" transform="scale(0.996264)"/>
      <use xlink:href="#CMR17-31" transform="translate(77.487468 0) scale(0.996264)"/>
      <use xlink:href="#CMR17-30" transform="translate(123.177945 0) scale(0.996264)"/>
      <use xlink:href="#CMSY10-0" transform="translate(168.868422 36.153639) scale(0.697382)"/>
      <use xlink:href="#CMR17-32" transform="translate(223.109415 36.153639) scale(0.697382)"/>
     </g>
    </g>
   </g>
   <g id="QuadContourSet_1">
    <path clip-path="url(#pe78a671570)" style="fill: none; stroke: #440154"/>
    <path d="M 0 0 
" clip-path="url(#pe78a671570)" style="fill: none; stroke: #471365"/>
    <path d="M 0 0 
" clip-path="url(#pe78a671570)" style="fill: none; stroke: #482374"/>
    <path d="M 0 0 
" clip-path="url(#pe78a671570)" style="fill: none; stroke: #46327e"/>
    <path d="M 0 0 
" clip-path="url(#pe78a671570)" style="fill: none; stroke: #424086"/>
    <path d="M 0 0 
" clip-path="url(#pe78a671570)" style="fill: none; stroke: #3d4e8a"/>
    <path d="M 0 0 
" clip-path="url(#pe78a671570)" style="fill: none; stroke: #365c8d"/>
    <path d="M 0 0 
" clip-path="url(#pe78a671570)" style="fill: none; stroke: #31688e"/>
    <path d="M 0 0 
" clip-path="url(#pe78a671570)" style="fill: none; stroke: #2c738e"/>
    <path d="M 0 0 
" clip-path="url(#pe78a671570)" style="fill: none; stroke: #277f8e"/>
    <path d="M 0 0 
" clip-path="url(#pe78a671570)" style="fill: none; stroke: #238a8d"/>
    <path d="M 0 0 
" clip-path="url(#pe78a671570)" style="fill: none; stroke: #1f968b"/>
    <path d="M 0 0 
" clip-path="url(#pe78a671570)" style="fill: none; stroke: #1fa187"/>
    <path clip-path="url(#pe78a671570)" style="fill: none; stroke: #26ad81"/>
    <path clip-path="url(#pe78a671570)" style="fill: none; stroke: #35b779"/>
    <path clip-path="url(#pe78a671570)" style="fill: none; stroke: #4ac16d"/>
    <path clip-path="url(#pe78a671570)" style="fill: none; stroke: #65cb5e"/>
    <path clip-path="url(#pe78a671570)" style="fill: none; stroke: #81d34d"/>
    <path clip-path="url(#pe78a671570)" style="fill: none; stroke: #a0da39"/>
    <path clip-path="url(#pe78a671570)" style="fill: none; stroke: #c0df25"/>
    <path clip-path="url(#pe78a671570)" style="fill: none; stroke: #dfe318"/>
    <path clip-path="url(#pe78a671570)" style="fill: none; stroke: #fde725"/>
   </g>
   <g id="line2d_11">
    <path d="M -1 78.700099 
L 8.285505 84.75881 
L 70.215539 121.319161 
L 122.236766 149.105027 
L 165.934598 170.222285 
L 202.640776 186.271402 
L 233.473966 198.46873 
L 259.373846 207.7387 
L 281.129745 214.783877 
L 299.4047 220.138211 
L 314.755662 224.207505 
L 327.65047 227.300169 
L 338.482109 229.650593 
L 347.580686 231.436916 
L 355.22349 232.794521 
L 361.643446 233.826301 
L 367.036209 234.610453 
L 371.566129 235.206409 
L 375.371263 235.659336 
L 378.567575 236.00356 
L 381.252477 236.265171 
L 383.507795 236.463995 
L 385.402262 236.615101 
L 386.993614 236.729941 
L 388.33035 236.81722 
L 389.453208 236.883552 
L 390.396409 236.933965 
L 391.188698 236.972278 
L 391.85422 237.001396 
L 392.413259 237.023526 
L 392.882852 237.040345 
L 393.27731 237.053127 
L 393.608654 237.062841 
L 393.886984 237.070224 
" clip-path="url(#pe78a671570)" style="fill: none; stroke: #0000ff; stroke-linecap: square"/>
    <defs>
     <path id="m6ba8fd4a42" d="M 0 1.5 
C 0.397805 1.5 0.77937 1.341951 1.06066 1.06066 
C 1.341951 0.77937 1.5 0.397805 1.5 0 
C 1.5 -0.397805 1.341951 -0.77937 1.06066 -1.06066 
C 0.77937 -1.341951 0.397805 -1.5 0 -1.5 
C -0.397805 -1.5 -0.77937 -1.341951 -1.06066 -1.06066 
C -1.341951 -0.77937 -1.5 -0.397805 -1.5 0 
C -1.5 0.397805 -1.341951 0.77937 -1.06066 1.06066 
C -0.77937 1.341951 -0.397805 1.5 0 1.5 
z
" style="stroke: #0000ff"/>
    </defs>
    <g clip-path="url(#pe78a671570)">
     <use xlink:href="#m6ba8fd4a42" x="-1" y="78.700099" style="fill: #0000ff; stroke: #0000ff"/>
     <use xlink:href="#m6ba8fd4a42" x="8.285505" y="84.75881" style="fill: #0000ff; stroke: #0000ff"/>
     <use xlink:href="#m6ba8fd4a42" x="70.215539" y="121.319161" style="fill: #0000ff; stroke: #0000ff"/>
     <use xlink:href="#m6ba8fd4a42" x="122.236766" y="149.105027" style="fill: #0000ff; stroke: #0000ff"/>
     <use xlink:href="#m6ba8fd4a42" x="165.934598" y="170.222285" style="fill: #0000ff; stroke: #0000ff"/>
     <use xlink:href="#m6ba8fd4a42" x="202.640776" y="186.271402" style="fill: #0000ff; stroke: #0000ff"/>
     <use xlink:href="#m6ba8fd4a42" x="233.473966" y="198.46873" style="fill: #0000ff; stroke: #0000ff"/>
     <use xlink:href="#m6ba8fd4a42" x="259.373846" y="207.7387" style="fill: #0000ff; stroke: #0000ff"/>
     <use xlink:href="#m6ba8fd4a42" x="281.129745" y="214.783877" style="fill: #0000ff; stroke: #0000ff"/>
     <use xlink:href="#m6ba8fd4a42" x="299.4047" y="220.138211" style="fill: #0000ff; stroke: #0000ff"/>
     <use xlink:href="#m6ba8fd4a42" x="314.755662" y="224.207505" style="fill: #0000ff; stroke: #0000ff"/>
     <use xlink:href="#m6ba8fd4a42" x="327.65047" y="227.300169" style="fill: #0000ff; stroke: #0000ff"/>
     <use xlink:href="#m6ba8fd4a42" x="338.482109" y="229.650593" style="fill: #0000ff; stroke: #0000ff"/>
     <use xlink:href="#m6ba8fd4a42" x="347.580686" y="231.436916" style="fill: #0000ff; stroke: #0000ff"/>
     <use xlink:href="#m6ba8fd4a42" x="355.22349" y="232.794521" style="fill: #0000ff; stroke: #0000ff"/>
     <use xlink:href="#m6ba8fd4a42" x="361.643446" y="233.826301" style="fill: #0000ff; stroke: #0000ff"/>
     <use xlink:href="#m6ba8fd4a42" x="367.036209" y="234.610453" style="fill: #0000ff; stroke: #0000ff"/>
     <use xlink:href="#m6ba8fd4a42" x="371.566129" y="235.206409" style="fill: #0000ff; stroke: #0000ff"/>
     <use xlink:href="#m6ba8fd4a42" x="375.371263" y="235.659336" style="fill: #0000ff; stroke: #0000ff"/>
     <use xlink:href="#m6ba8fd4a42" x="378.567575" y="236.00356" style="fill: #0000ff; stroke: #0000ff"/>
     <use xlink:href="#m6ba8fd4a42" x="381.252477" y="236.265171" style="fill: #0000ff; stroke: #0000ff"/>
     <use xlink:href="#m6ba8fd4a42" x="383.507795" y="236.463995" style="fill: #0000ff; stroke: #0000ff"/>
     <use xlink:href="#m6ba8fd4a42" x="385.402262" y="236.615101" style="fill: #0000ff; stroke: #0000ff"/>
     <use xlink:href="#m6ba8fd4a42" x="386.993614" y="236.729941" style="fill: #0000ff; stroke: #0000ff"/>
     <use xlink:href="#m6ba8fd4a42" x="388.33035" y="236.81722" style="fill: #0000ff; stroke: #0000ff"/>
     <use xlink:href="#m6ba8fd4a42" x="389.453208" y="236.883552" style="fill: #0000ff; stroke: #0000ff"/>
     <use xlink:href="#m6ba8fd4a42" x="390.396409" y="236.933965" style="fill: #0000ff; stroke: #0000ff"/>
     <use xlink:href="#m6ba8fd4a42" x="391.188698" y="236.972278" style="fill: #0000ff; stroke: #0000ff"/>
     <use xlink:href="#m6ba8fd4a42" x="391.85422" y="237.001396" style="fill: #0000ff; stroke: #0000ff"/>
     <use xlink:href="#m6ba8fd4a42" x="392.413259" y="237.023526" style="fill: #0000ff; stroke: #0000ff"/>
     <use xlink:href="#m6ba8fd4a42" x="392.882852" y="237.040345" style="fill: #0000ff; stroke: #0000ff"/>
     <use xlink:href="#m6ba8fd4a42" x="393.27731" y="237.053127" style="fill: #0000ff; stroke: #0000ff"/>
     <use xlink:href="#m6ba8fd4a42" x="393.608654" y="237.062841" style="fill: #0000ff; stroke: #0000ff"/>
     <use xlink:href="#m6ba8fd4a42" x="393.886984" y="237.070224" style="fill: #0000ff; stroke: #0000ff"/>
    </g>
   </g>
   <g id="line2d_12">
    <path d="M -1 0.925221 
L 4.777982 5.634827 
L 54.941302 44.431065 
L 98.064942 76.137364 
L 135.21887 102.153757 
L 167.298214 123.583783 
L 195.053793 141.301397 
L 219.116969 156.001882 
L 240.019958 168.240788 
L 258.212472 178.463881 
L 274.075385 187.030275 
L 287.931997 194.230402 
L 300.05734 200.300022 
L 310.685881 205.431207 
L 320.017918 209.78098 
L 328.224907 213.47814 
L 335.453901 216.628677 
L 341.831267 219.320085 
L 347.465797 221.624811 
L 352.451321 223.603012 
L 356.868913 225.304789 
L 360.788742 226.771976 
L 364.271642 228.039603 
L 367.370442 229.137074 
L 370.131094 230.089134 
L 372.593628 230.916659 
L 374.792971 231.637301 
L 376.759644 232.26602 
L 378.520354 232.815525 
L 380.098506 233.296632 
L 381.514642 233.718571 
L 382.786811 234.08923 
L 383.930898 234.415365 
" clip-path="url(#pe78a671570)" style="fill: none; stroke: #ff0000; stroke-linecap: square"/>
    <defs>
     <path id="mb001b537ce" d="M 0 1.5 
C 0.397805 1.5 0.77937 1.341951 1.06066 1.06066 
C 1.341951 0.77937 1.5 0.397805 1.5 0 
C 1.5 -0.397805 1.341951 -0.77937 1.06066 -1.06066 
C 0.77937 -1.341951 0.397805 -1.5 0 -1.5 
C -0.397805 -1.5 -0.77937 -1.341951 -1.06066 -1.06066 
C -1.341951 -0.77937 -1.5 -0.397805 -1.5 0 
C -1.5 0.397805 -1.341951 0.77937 -1.06066 1.06066 
C -0.77937 1.341951 -0.397805 1.5 0 1.5 
z
" style="stroke: #ff0000"/>
    </defs>
    <g clip-path="url(#pe78a671570)">
     <use xlink:href="#mb001b537ce" x="-1" y="0.925221" style="fill: #ff0000; stroke: #ff0000"/>
     <use xlink:href="#mb001b537ce" x="4.777982" y="5.634827" style="fill: #ff0000; stroke: #ff0000"/>
     <use xlink:href="#mb001b537ce" x="54.941302" y="44.431065" style="fill: #ff0000; stroke: #ff0000"/>
     <use xlink:href="#mb001b537ce" x="98.064942" y="76.137364" style="fill: #ff0000; stroke: #ff0000"/>
     <use xlink:href="#mb001b537ce" x="135.21887" y="102.153757" style="fill: #ff0000; stroke: #ff0000"/>
     <use xlink:href="#mb001b537ce" x="167.298214" y="123.583783" style="fill: #ff0000; stroke: #ff0000"/>
     <use xlink:href="#mb001b537ce" x="195.053793" y="141.301397" style="fill: #ff0000; stroke: #ff0000"/>
     <use xlink:href="#mb001b537ce" x="219.116969" y="156.001882" style="fill: #ff0000; stroke: #ff0000"/>
     <use xlink:href="#mb001b537ce" x="240.019958" y="168.240788" style="fill: #ff0000; stroke: #ff0000"/>
     <use xlink:href="#mb001b537ce" x="258.212472" y="178.463881" style="fill: #ff0000; stroke: #ff0000"/>
     <use xlink:href="#mb001b537ce" x="274.075385" y="187.030275" style="fill: #ff0000; stroke: #ff0000"/>
     <use xlink:href="#mb001b537ce" x="287.931997" y="194.230402" style="fill: #ff0000; stroke: #ff0000"/>
     <use xlink:href="#mb001b537ce" x="300.05734" y="200.300022" style="fill: #ff0000; stroke: #ff0000"/>
     <use xlink:href="#mb001b537ce" x="310.685881" y="205.431207" style="fill: #ff0000; stroke: #ff0000"/>
     <use xlink:href="#mb001b537ce" x="320.017918" y="209.78098" style="fill: #ff0000; stroke: #ff0000"/>
     <use xlink:href="#mb001b537ce" x="328.224907" y="213.47814" style="fill: #ff0000; stroke: #ff0000"/>
     <use xlink:href="#mb001b537ce" x="335.453901" y="216.628677" style="fill: #ff0000; stroke: #ff0000"/>
     <use xlink:href="#mb001b537ce" x="341.831267" y="219.320085" style="fill: #ff0000; stroke: #ff0000"/>
     <use xlink:href="#mb001b537ce" x="347.465797" y="221.624811" style="fill: #ff0000; stroke: #ff0000"/>
     <use xlink:href="#mb001b537ce" x="352.451321" y="223.603012" style="fill: #ff0000; stroke: #ff0000"/>
     <use xlink:href="#mb001b537ce" x="356.868913" y="225.304789" style="fill: #ff0000; stroke: #ff0000"/>
     <use xlink:href="#mb001b537ce" x="360.788742" y="226.771976" style="fill: #ff0000; stroke: #ff0000"/>
     <use xlink:href="#mb001b537ce" x="364.271642" y="228.039603" style="fill: #ff0000; stroke: #ff0000"/>
     <use xlink:href="#mb001b537ce" x="367.370442" y="229.137074" style="fill: #ff0000; stroke: #ff0000"/>
     <use xlink:href="#mb001b537ce" x="370.131094" y="230.089134" style="fill: #ff0000; stroke: #ff0000"/>
     <use xlink:href="#mb001b537ce" x="372.593628" y="230.916659" style="fill: #ff0000; stroke: #ff0000"/>
     <use xlink:href="#mb001b537ce" x="374.792971" y="231.637301" style="fill: #ff0000; stroke: #ff0000"/>
     <use xlink:href="#mb001b537ce" x="376.759644" y="232.26602" style="fill: #ff0000; stroke: #ff0000"/>
     <use xlink:href="#mb001b537ce" x="378.520354" y="232.815525" style="fill: #ff0000; stroke: #ff0000"/>
     <use xlink:href="#mb001b537ce" x="380.098506" y="233.296632" style="fill: #ff0000; stroke: #ff0000"/>
     <use xlink:href="#mb001b537ce" x="381.514642" y="233.718571" style="fill: #ff0000; stroke: #ff0000"/>
     <use xlink:href="#mb001b537ce" x="382.786811" y="234.08923" style="fill: #ff0000; stroke: #ff0000"/>
     <use xlink:href="#mb001b537ce" x="383.930898" y="234.415365" style="fill: #ff0000; stroke: #ff0000"/>
    </g>
   </g>
   <g id="patch_4">
    <path d="M 60.548213 290.316004 
L 60.548213 24.204004 
" style="fill: none; stroke: #000000; stroke-width: 0.8; stroke-linejoin: miter; stroke-linecap: square"/>
   </g>
   <g id="patch_5">
    <path d="M 417.668213 290.316004 
L 417.668213 24.204004 
" style="fill: none; stroke: #000000; stroke-width: 0.8; stroke-linejoin: miter; stroke-linecap: square"/>
   </g>
   <g id="patch_6">
    <path d="M 60.548213 290.316004 
L 417.668213 290.316004 
" style="fill: none; stroke: #000000; stroke-width: 0.8; stroke-linejoin: miter; stroke-linecap: square"/>
   </g>
   <g id="patch_7">
    <path d="M 60.548213 24.204004 
L 417.668213 24.204004 
" style="fill: none; stroke: #000000; stroke-width: 0.8; stroke-linejoin: miter; stroke-linecap: square"/>
   </g>
   <g id="legend_1">
    <g id="patch_8">
     <path d="M 218.508757 133.96706 
L 405.068213 133.96706 
Q 408.668213 133.96706 408.668213 130.36706 
L 408.668213 36.804004 
Q 408.668213 33.204004 405.068213 33.204004 
L 218.508757 33.204004 
Q 214.908757 33.204004 214.908757 36.804004 
L 214.908757 130.36706 
Q 214.908757 133.96706 218.508757 133.96706 
z
" style="fill: #ffffff; opacity: 0.8; stroke: #cccccc; stroke-linejoin: miter"/>
    </g>
    <g id="line2d_13">
     <path d="M 222.108757 46.704004 
L 240.108757 46.704004 
L 258.108757 46.704004 
" style="fill: none; stroke: #0000ff; stroke-linecap: square"/>
     <g>
      <use xlink:href="#m6ba8fd4a42" x="240.108757" y="46.704004" style="fill: #0000ff; stroke: #0000ff"/>
     </g>
    </g>
    <g id="text_15">
     <!-- $\alpha=1.0$ -->
     <g transform="translate(272.508757 53.004004) scale(0.18 -0.18)">
      <defs>
       <path id="CMMI12-b" d="M 2963 1615 
C 2963 2234 2611 2816 1933 2816 
C 1094 2816 256 1902 256 996 
C 256 440 602 -64 1254 -64 
C 1651 -64 2125 89 2579 472 
C 2669 115 2867 -64 3142 -64 
C 3488 -64 3661 293 3661 376 
C 3661 434 3616 434 3597 434 
C 3546 434 3539 415 3520 364 
C 3462 204 3315 64 3162 64 
C 2963 64 2963 472 2963 862 
C 3616 1641 3770 2445 3770 2451 
C 3770 2509 3718 2509 3699 2509 
C 3642 2509 3635 2490 3610 2375 
C 3526 2094 3360 1596 2963 1072 
L 2963 1615 
z
M 2560 625 
C 1997 121 1491 64 1267 64 
C 813 64 685 466 685 766 
C 685 1040 826 1692 1024 2043 
C 1286 2490 1645 2687 1933 2687 
C 2554 2687 2554 1877 2554 1340 
C 2554 1181 2547 1015 2547 855 
C 2547 728 2554 696 2560 625 
z
" transform="scale(0.015625)"/>
       <path id="CMR17-3d" d="M 4115 2048 
C 4211 2048 4307 2048 4307 2156 
C 4307 2272 4198 2272 4090 2272 
L 512 2272 
C 403 2272 294 2272 294 2156 
C 294 2048 390 2048 486 2048 
L 4115 2048 
z
M 4090 927 
C 4198 927 4307 927 4307 1043 
C 4307 1152 4211 1152 4115 1152 
L 486 1152 
C 390 1152 294 1152 294 1043 
C 294 927 403 927 512 927 
L 4090 927 
z
" transform="scale(0.015625)"/>
      </defs>
      <use xlink:href="#CMMI12-b" transform="scale(0.996264)"/>
      <use xlink:href="#CMR17-3d" transform="translate(90.355032 0) scale(0.996264)"/>
      <use xlink:href="#CMR17-31" transform="translate(189.743829 0) scale(0.996264)"/>
      <use xlink:href="#CMMI12-3a" transform="translate(235.434306 0) scale(0.996264)"/>
      <use xlink:href="#CMR17-30" transform="translate(262.531483 0) scale(0.996264)"/>
     </g>
    </g>
    <g id="line2d_14">
     <path d="M 222.108757 72.625488 
L 240.108757 72.625488 
L 258.108757 72.625488 
" style="fill: none; stroke: #ff0000; stroke-linecap: square"/>
     <g>
      <use xlink:href="#mb001b537ce" x="240.108757" y="72.625488" style="fill: #ff0000; stroke: #ff0000"/>
     </g>
    </g>
    <g id="text_16">
     <!-- $\alpha=0.9$(FGD-ED) -->
     <g transform="translate(272.508757 78.925488) scale(0.18 -0.18)">
      <defs>
       <path id="CMR17-39" d="M 2253 1871 
C 2253 448 1670 25 1190 25 
C 1043 25 685 43 538 281 
C 704 256 826 345 826 505 
C 826 678 685 736 595 736 
C 538 736 365 710 365 492 
C 365 68 742 -128 1203 -128 
C 1939 -128 2688 665 2688 2090 
C 2688 3857 1971 4224 1485 4224 
C 851 4224 243 3664 243 2800 
C 243 2000 762 1408 1414 1408 
C 1952 1408 2189 1910 2253 2122 
L 2253 1871 
z
M 1427 1510 
C 1254 1510 1011 1542 813 1929 
C 678 2181 678 2477 678 2793 
C 678 3174 678 3438 858 3722 
C 947 3857 1114 4076 1485 4076 
C 2240 4076 2240 2909 2240 2651 
C 2240 2193 2035 1510 1427 1510 
z
" transform="scale(0.015625)"/>
       <path id="CMSS17-28" d="M 1613 4800 
C 1267 4447 474 3627 474 1603 
C 474 -428 1267 -1242 1613 -1600 
L 2003 -1600 
C 1216 -781 960 366 960 1596 
C 960 2820 1203 3973 2003 4800 
L 1613 4800 
z
" transform="scale(0.015625)"/>
       <path id="CMSS17-46" d="M 2918 1984 
L 2918 2374 
L 1101 2374 
L 1101 3993 
L 1882 3993 
C 1958 3993 2035 3987 2112 3987 
L 3168 3987 
L 3168 4403 
L 563 4403 
L 563 0 
L 1101 0 
L 1101 1984 
L 2918 1984 
z
" transform="scale(0.015625)"/>
       <path id="CMSS17-47" d="M 3610 1868 
L 2336 1868 
L 2336 1472 
L 3123 1472 
L 3123 473 
C 2874 403 2618 352 2362 352 
C 1466 352 934 1311 934 2220 
C 934 3123 1491 4070 2362 4070 
C 2854 4070 3130 3916 3469 3660 
L 3552 4172 
C 3130 4390 2867 4480 2387 4480 
C 1146 4480 397 3353 397 2201 
C 397 1100 1152 -64 2349 -64 
C 2797 -64 3213 51 3610 249 
L 3610 1868 
z
" transform="scale(0.015625)"/>
       <path id="CMSS17-44" d="M 570 4416 
L 570 0 
L 2144 0 
C 3194 0 4000 981 4000 2169 
C 4000 3396 3194 4416 2144 4416 
L 570 4416 
z
M 1094 358 
L 1094 4057 
L 2003 4057 
C 2861 4057 3475 3275 3475 2169 
C 3475 1108 2867 358 2003 358 
L 1094 358 
z
" transform="scale(0.015625)"/>
       <path id="CMSS17-2d" d="M 1664 1216 
L 1664 1587 
L 64 1587 
L 64 1216 
L 1664 1216 
z
" transform="scale(0.015625)"/>
       <path id="CMSS17-45" d="M 1958 435 
C 1446 435 1216 435 1101 428 
L 1101 2105 
L 3085 2105 
L 3085 2496 
L 1101 2496 
L 1101 3993 
L 1926 3993 
C 2003 3993 2080 3987 2157 3987 
L 3251 3987 
L 3251 4403 
L 563 4403 
L 563 0 
L 3334 0 
L 3334 441 
L 1958 435 
z
" transform="scale(0.015625)"/>
       <path id="CMSS17-29" d="M 723 -1600 
C 1069 -1248 1862 -428 1862 1596 
C 1862 3627 1069 4440 723 4800 
L 333 4800 
C 1120 3979 1376 2833 1376 1603 
C 1376 379 1133 -774 333 -1600 
L 723 -1600 
z
" transform="scale(0.015625)"/>
      </defs>
      <use xlink:href="#CMMI12-b" transform="scale(0.996264)"/>
      <use xlink:href="#CMR17-3d" transform="translate(90.355032 0) scale(0.996264)"/>
      <use xlink:href="#CMR17-30" transform="translate(189.743829 0) scale(0.996264)"/>
      <use xlink:href="#CMMI12-3a" transform="translate(235.434306 0) scale(0.996264)"/>
      <use xlink:href="#CMR17-39" transform="translate(262.531483 0) scale(0.996264)"/>
      <use xlink:href="#CMSS17-28" transform="translate(308.22196 0) scale(0.996264)"/>
      <use xlink:href="#CMSS17-46" transform="translate(344.655874 0) scale(0.996264)"/>
      <use xlink:href="#CMSS17-47" transform="translate(395.34298 0) scale(0.996264)"/>
      <use xlink:href="#CMSS17-44" transform="translate(457.801205 0) scale(0.996264)"/>
      <use xlink:href="#CMSS17-2d" transform="translate(525.344047 0) scale(0.996264)"/>
      <use xlink:href="#CMSS17-45" transform="translate(556.573159 0) scale(0.996264)"/>
      <use xlink:href="#CMSS17-44" transform="translate(612.465173 0) scale(0.996264)"/>
      <use xlink:href="#CMSS17-29" transform="translate(680.008014 0) scale(0.996264)"/>
     </g>
    </g>
    <g id="PathCollection_2">
     <g>
      <use xlink:href="#m0549f849ee" x="240.108757" y="111.082016" style="fill: #808080; stroke: #ffffff"/>
     </g>
    </g>
    <g id="text_17">
     <!-- Integer-order  -->
     <g transform="translate(272.508757 104.846972) scale(0.18 -0.18)">
      <defs>
       <path id="CMSS17-49" d="M 1094 4416 
L 557 4416 
L 557 0 
L 1094 0 
L 1094 4416 
z
" transform="scale(0.015625)"/>
       <path id="CMSS17-6e" d="M 2618 1878 
C 2618 2283 2522 2816 1798 2816 
C 1389 2816 1120 2604 941 2386 
L 941 2783 
L 474 2783 
L 474 0 
L 960 0 
L 960 1556 
C 960 1962 1114 2425 1549 2425 
C 2112 2425 2131 2045 2131 1826 
L 2131 0 
L 2618 0 
L 2618 1878 
z
" transform="scale(0.015625)"/>
       <path id="CMSS17-74" d="M 1069 2380 
L 1901 2380 
L 1901 2752 
L 1069 2752 
L 1069 3520 
L 614 3520 
L 614 2752 
L 109 2752 
L 109 2380 
L 602 2380 
L 602 751 
C 602 384 685 -64 1107 -64 
C 1427 -64 1722 25 2003 172 
L 1901 551 
C 1747 416 1562 339 1363 339 
C 1082 339 1069 699 1069 860 
L 1069 2380 
z
" transform="scale(0.015625)"/>
       <path id="CMSS17-65" d="M 2502 1375 
C 2502 1587 2490 2001 2285 2347 
C 2061 2713 1696 2816 1421 2816 
C 755 2816 192 2184 192 1363 
C 192 579 774 -64 1510 -64 
C 1798 -64 2150 19 2470 249 
C 2470 275 2458 414 2451 421 
C 2451 433 2432 629 2432 655 
C 2125 408 1773 326 1517 326 
C 1107 326 666 667 646 1375 
L 2502 1375 
z
M 698 1728 
C 781 2086 1062 2425 1421 2425 
C 1517 2425 1965 2412 2080 1728 
L 698 1728 
z
" transform="scale(0.015625)"/>
       <path id="CMSS17-67" d="M 2848 2816 
C 2483 2809 2170 2739 1914 2617 
C 1702 2783 1485 2816 1338 2816 
C 781 2816 358 2356 358 1824 
C 358 1481 550 1222 563 1209 
C 448 1049 384 876 384 684 
C 384 460 474 300 544 211 
C 211 6 166 -308 166 -429 
C 166 -896 749 -1280 1498 -1280 
C 2253 -1280 2835 -896 2835 -423 
C 2835 460 1856 467 1587 467 
L 1069 467 
C 973 467 717 467 717 793 
C 717 921 774 1004 781 1011 
C 877 940 1075 832 1338 832 
C 1869 832 2310 1279 2310 1824 
C 2310 2128 2170 2349 2112 2425 
L 2131 2425 
C 2150 2425 2419 2444 2515 2444 
C 2720 2444 2739 2438 2918 2419 
L 2848 2816 
z
M 1338 1184 
C 1120 1184 813 1317 813 1824 
C 813 2375 1165 2463 1331 2463 
C 1549 2463 1856 2330 1856 1824 
C 1856 1272 1504 1184 1338 1184 
z
M 1581 0 
C 1734 0 2381 0 2381 -436 
C 2381 -711 1984 -928 1504 -928 
C 1018 -928 621 -717 621 -429 
C 621 -397 621 0 1062 0 
L 1581 0 
z
" transform="scale(0.015625)"/>
       <path id="CMSS17-72" d="M 954 1369 
C 954 1974 1395 2379 1958 2392 
L 1958 2816 
C 1549 2809 1165 2604 934 2270 
L 934 2783 
L 480 2783 
L 480 0 
L 954 0 
L 954 1369 
z
" transform="scale(0.015625)"/>
       <path id="CMSS17-6f" d="M 2829 1356 
C 2829 2175 2221 2816 1504 2816 
C 768 2816 173 2156 173 1356 
C 173 544 787 -64 1498 -64 
C 2227 -64 2829 563 2829 1356 
z
M 1504 339 
C 1050 339 659 710 659 1407 
C 659 2150 1114 2425 1498 2425 
C 1914 2425 2342 2124 2342 1407 
C 2342 684 1926 339 1504 339 
z
" transform="scale(0.015625)"/>
       <path id="CMSS17-64" d="M 2611 4416 
L 2138 4416 
L 2138 2495 
C 1939 2662 1613 2816 1254 2816 
C 672 2816 211 2179 211 1375 
C 211 572 666 -64 1235 -64 
C 1677 -64 1971 172 2125 307 
L 2125 -13 
L 2611 -13 
L 2611 4416 
z
M 2125 851 
C 2125 760 2125 663 1926 488 
C 1798 378 1645 326 1498 326 
C 1152 326 698 585 698 1369 
C 698 2185 1210 2425 1562 2425 
C 1798 2425 1990 2308 2125 2114 
L 2125 851 
z
" transform="scale(0.015625)"/>
      </defs>
      <use xlink:href="#CMSS17-49" transform="scale(0.996264)"/>
      <use xlink:href="#CMSS17-6e" transform="translate(25.783926 0) scale(0.996264)"/>
      <use xlink:href="#CMSS17-74" transform="translate(73.988869 0) scale(0.996264)"/>
      <use xlink:href="#CMSS17-65" transform="translate(107.820435 0) scale(0.996264)"/>
      <use xlink:href="#CMSS17-67" transform="translate(149.459257 0) scale(0.996264)"/>
      <use xlink:href="#CMSS17-65" transform="translate(196.302881 0) scale(0.996264)"/>
      <use xlink:href="#CMSS17-72" transform="translate(237.941703 0) scale(0.996264)"/>
      <use xlink:href="#CMSS17-2d" transform="translate(269.851476 0) scale(0.996264)"/>
      <use xlink:href="#CMSS17-6f" transform="translate(301.080588 0) scale(0.996264)"/>
      <use xlink:href="#CMSS17-72" transform="translate(345.321758 0) scale(0.996264)"/>
      <use xlink:href="#CMSS17-64" transform="translate(377.23153 0) scale(0.996264)"/>
      <use xlink:href="#CMSS17-65" transform="translate(425.436474 0) scale(0.996264)"/>
      <use xlink:href="#CMSS17-72" transform="translate(467.075296 0) scale(0.996264)"/>
     </g>
     <!--  extremum point -->
     <g transform="translate(272.508757 123.278996) scale(0.18 -0.18)">
      <defs>
       <path id="CMSS17-78" d="M 1587 1420 
L 2656 2752 
L 2099 2752 
L 1363 1785 
L 602 2752 
L 32 2752 
L 1139 1420 
L 0 0 
L 563 0 
L 1363 1126 
L 2195 0 
L 2758 0 
L 1587 1420 
z
" transform="scale(0.015625)"/>
       <path id="CMSS17-6d" d="M 4288 1878 
C 4288 2309 4179 2816 3462 2816 
C 2982 2816 2694 2515 2566 2328 
C 2451 2668 2182 2816 1798 2816 
C 1363 2816 1088 2566 941 2386 
L 941 2783 
L 474 2783 
L 474 0 
L 960 0 
L 960 1556 
C 960 1936 1101 2425 1555 2425 
C 2138 2425 2138 2013 2138 1826 
L 2138 0 
L 2624 0 
L 2624 1556 
C 2624 1936 2765 2425 3219 2425 
C 3802 2425 3802 2013 3802 1826 
L 3802 0 
L 4288 0 
L 4288 1878 
z
" transform="scale(0.015625)"/>
       <path id="CMSS17-75" d="M 2618 2752 
L 2131 2752 
L 2131 976 
C 2131 500 1786 307 1421 307 
C 998 307 960 448 960 712 
L 960 2752 
L 474 2752 
L 474 680 
C 474 179 646 -64 1088 -64 
C 1306 -64 1798 -13 2144 307 
L 2144 -13 
L 2618 -13 
L 2618 2752 
z
" transform="scale(0.015625)"/>
       <path id="CMSS17-70" d="M 966 275 
C 1178 70 1466 -64 1773 -64 
C 2368 -64 2880 553 2880 1382 
C 2880 2147 2496 2816 1946 2816 
C 1626 2816 1242 2700 954 2470 
L 954 2764 
L 480 2764 
L 480 -1280 
L 966 -1280 
L 966 275 
z
M 966 2088 
C 1018 2166 1235 2412 1587 2412 
C 2035 2412 2394 1946 2394 1382 
C 2394 741 1958 326 1530 326 
C 1402 326 1267 358 1139 468 
C 966 624 966 721 966 812 
L 966 2088 
z
" transform="scale(0.015625)"/>
       <path id="CMSS17-69" d="M 979 4224 
L 442 4224 
L 442 3686 
L 979 3686 
L 979 4224 
z
M 947 2752 
L 474 2752 
L 474 0 
L 947 0 
L 947 2752 
z
" transform="scale(0.015625)"/>
      </defs>
      <use xlink:href="#CMSS17-65" transform="scale(0.996264)"/>
      <use xlink:href="#CMSS17-78" transform="translate(41.638822 0) scale(0.996264)"/>
      <use xlink:href="#CMSS17-74" transform="translate(84.638964 0) scale(0.996264)"/>
      <use xlink:href="#CMSS17-72" transform="translate(118.47053 0) scale(0.996264)"/>
      <use xlink:href="#CMSS17-65" transform="translate(150.380303 0) scale(0.996264)"/>
      <use xlink:href="#CMSS17-6d" transform="translate(192.019125 0) scale(0.996264)"/>
      <use xlink:href="#CMSS17-75" transform="translate(266.248379 0) scale(0.996264)"/>
      <use xlink:href="#CMSS17-6d" transform="translate(314.453323 0) scale(0.996264)"/>
      <use xlink:href="#CMSS17-70" transform="translate(419.91169 0) scale(0.996264)"/>
      <use xlink:href="#CMSS17-6f" transform="translate(470.719072 0) scale(0.996264)"/>
      <use xlink:href="#CMSS17-69" transform="translate(517.562695 0) scale(0.996264)"/>
      <use xlink:href="#CMSS17-6e" transform="translate(539.743418 0) scale(0.996264)"/>
      <use xlink:href="#CMSS17-74" transform="translate(587.948361 0) scale(0.996264)"/>
     </g>
    </g>
   </g>
  </g>
 </g>
 <defs>
  <clipPath id="pe78a671570">
   <rect x="60.548213" y="24.204004" width="357.12" height="266.112"/>
  </clipPath>
 </defs>
</svg>
