<?xml version="1.0" encoding="utf-8" standalone="no"?>
<!DOCTYPE svg PUBLIC "-//W3C//DTD SVG 1.1//EN"
  "http://www.w3.org/Graphics/SVG/1.1/DTD/svg11.dtd">
<svg xmlns:xlink="http://www.w3.org/1999/xlink" width="429.437261pt" height="326.937261pt" viewBox="0 0 429.437261 326.937261" xmlns="http://www.w3.org/2000/svg" version="1.1">
 <metadata>
  <rdf:RDF xmlns:dc="http://purl.org/dc/elements/1.1/" xmlns:cc="http://creativecommons.org/ns#" xmlns:rdf="http://www.w3.org/1999/02/22-rdf-syntax-ns#">
   <cc:Work>
    <dc:type rdf:resource="http://purl.org/dc/dcmitype/StillImage"/>
    <dc:date>2025-05-21T15:47:28.575707</dc:date>
    <dc:format>image/svg+xml</dc:format>
    <dc:creator>
     <cc:Agent>
      <dc:title>Matplotlib v3.9.2, https://matplotlib.org/</dc:title>
     </cc:Agent>
    </dc:creator>
   </cc:Work>
  </rdf:RDF>
 </metadata>
 <defs>
  <style type="text/css">*{stroke-linejoin: round; stroke-linecap: butt}</style>
 </defs>
 <g id="figure_1">
  <g id="patch_1">
   <path d="M 0 326.937261 
L 429.437261 326.937261 
L 429.437261 0 
L 0 0 
z
" style="fill: #ffffff"/>
  </g>
  <g id="axes_1">
   <g id="patch_2">
    <path d="M 60.548213 273.312 
L 417.668213 273.312 
L 417.668213 7.2 
L 60.548213 7.2 
z
" style="fill: #ffffff"/>
   </g>
   <g id="patch_3">
    <path d="M 280.314367 211.901538 
L 335.255906 211.901538 
L 335.255906 170.961231 
L 280.314367 170.961231 
L 280.314367 211.901538 
z
" clip-path="url(#pea4fb3a2b5)" style="fill: none; stroke: #ff0000; stroke-width: 2; stroke-linejoin: miter"/>
   </g>
   <g id="matplotlib.axis_1">
    <g id="xtick_1">
     <g id="line2d_1">
      <defs>
       <path id="m475d2a46c9" d="M 0 0 
L 0 3.5 
" style="stroke: #000000; stroke-width: 0.8"/>
      </defs>
      <g>
       <use xlink:href="#m475d2a46c9" x="88.018982" y="273.312" style="stroke: #000000; stroke-width: 0.8"/>
      </g>
     </g>
     <g id="text_1">
      <!-- $\mathdefault{−4}$ -->
      <g transform="translate(75.701191 294.148997) scale(0.2 -0.2)">
       <defs>
        <path id="CMSY10-0" d="M 4218 1472 
C 4326 1472 4442 1472 4442 1600 
C 4442 1728 4326 1728 4218 1728 
L 755 1728 
C 646 1728 531 1728 531 1600 
C 531 1472 646 1472 755 1472 
L 4218 1472 
z
" transform="scale(0.015625)"/>
        <path id="CMR17-34" d="M 2150 4147 
C 2150 4281 2144 4288 2029 4288 
L 128 1254 
L 128 1088 
L 1779 1088 
L 1779 460 
C 1779 230 1766 166 1318 166 
L 1197 166 
L 1197 0 
C 1402 12 1747 12 1965 12 
C 2182 12 2528 12 2733 0 
L 2733 166 
L 2611 166 
C 2163 166 2150 230 2150 460 
L 2150 1088 
L 2803 1088 
L 2803 1254 
L 2150 1254 
L 2150 4147 
z
M 1798 3723 
L 1798 1254 
L 256 1254 
L 1798 3723 
z
" transform="scale(0.015625)"/>
       </defs>
       <use xlink:href="#CMSY10-0" transform="scale(0.996264)"/>
       <use xlink:href="#CMR17-34" transform="translate(77.487468 0) scale(0.996264)"/>
      </g>
     </g>
    </g>
    <g id="xtick_2">
     <g id="line2d_2">
      <g>
       <use xlink:href="#m475d2a46c9" x="197.902059" y="273.312" style="stroke: #000000; stroke-width: 0.8"/>
      </g>
     </g>
     <g id="text_2">
      <!-- $\mathdefault{−2}$ -->
      <g transform="translate(185.584268 294.148997) scale(0.2 -0.2)">
       <defs>
        <path id="CMR17-32" d="M 2669 990 
L 2554 990 
C 2490 537 2438 460 2413 422 
C 2381 371 1920 371 1830 371 
L 602 371 
C 832 620 1280 1073 1824 1596 
C 2214 1966 2669 2400 2669 3033 
C 2669 3788 2067 4224 1395 4224 
C 691 4224 262 3603 262 3027 
C 262 2777 448 2745 525 2745 
C 589 2745 781 2783 781 3007 
C 781 3206 614 3264 525 3264 
C 486 3264 448 3257 422 3244 
C 544 3788 915 4057 1306 4057 
C 1862 4057 2227 3616 2227 3033 
C 2227 2477 1901 1998 1536 1583 
L 262 147 
L 262 0 
L 2515 0 
L 2669 990 
z
" transform="scale(0.015625)"/>
       </defs>
       <use xlink:href="#CMSY10-0" transform="scale(0.996264)"/>
       <use xlink:href="#CMR17-32" transform="translate(77.487468 0) scale(0.996264)"/>
      </g>
     </g>
    </g>
    <g id="xtick_3">
     <g id="line2d_3">
      <g>
       <use xlink:href="#m475d2a46c9" x="307.785136" y="273.312" style="stroke: #000000; stroke-width: 0.8"/>
      </g>
     </g>
     <g id="text_3">
      <!-- $\mathdefault{0}$ -->
      <g transform="translate(303.216089 294.148997) scale(0.2 -0.2)">
       <defs>
        <path id="CMR17-30" d="M 2688 2038 
C 2688 2430 2682 3099 2413 3613 
C 2176 4063 1798 4224 1466 4224 
C 1158 4224 768 4082 525 3620 
C 269 3137 243 2539 243 2038 
C 243 1671 250 1112 448 623 
C 723 -39 1216 -128 1466 -128 
C 1760 -128 2208 -7 2470 604 
C 2662 1048 2688 1568 2688 2038 
z
M 1466 -26 
C 1056 -26 813 328 723 816 
C 653 1196 653 1749 653 2109 
C 653 2604 653 3015 736 3407 
C 858 3954 1216 4121 1466 4121 
C 1728 4121 2067 3947 2189 3420 
C 2272 3054 2278 2623 2278 2109 
C 2278 1691 2278 1176 2202 797 
C 2067 96 1690 -26 1466 -26 
z
" transform="scale(0.015625)"/>
       </defs>
       <use xlink:href="#CMR17-30" transform="scale(0.996264)"/>
      </g>
     </g>
    </g>
    <g id="xtick_4">
     <g id="line2d_4">
      <g>
       <use xlink:href="#m475d2a46c9" x="417.668213" y="273.312" style="stroke: #000000; stroke-width: 0.8"/>
      </g>
     </g>
     <g id="text_4">
      <!-- $\mathdefault{2}$ -->
      <g transform="translate(413.099166 294.148997) scale(0.2 -0.2)">
       <use xlink:href="#CMR17-32" transform="scale(0.996264)"/>
      </g>
     </g>
    </g>
    <g id="text_5">
     <!-- $x_1$ -->
     <g transform="translate(230.150578 315.861627) scale(0.2 -0.2)">
      <defs>
       <path id="CMMI12-78" d="M 3034 2624 
C 2829 2585 2752 2431 2752 2310 
C 2752 2156 2874 2105 2963 2105 
C 3155 2105 3290 2271 3290 2444 
C 3290 2694 2982 2816 2714 2816 
C 2323 2816 2106 2451 2048 2329 
C 1901 2790 1504 2816 1389 2816 
C 736 2816 390 1993 390 1849 
C 390 1823 416 1790 461 1790 
C 512 1790 525 1829 538 1855 
C 755 2572 1184 2687 1370 2687 
C 1658 2687 1715 2438 1715 2284 
C 1715 2143 1677 1993 1600 1678 
L 1382 778 
C 1286 390 1101 64 762 64 
C 730 64 570 64 435 126 
C 666 166 717 358 717 435 
C 717 563 621 640 499 640 
C 346 640 179 505 179 300 
C 179 57 480 -64 755 -64 
C 1062 -64 1280 153 1414 415 
C 1517 64 1837 -64 2074 -64 
C 2726 -64 3072 751 3072 896 
C 3072 929 3046 955 3008 955 
C 2950 955 2944 922 2925 870 
C 2752 300 2381 64 2093 64 
C 1869 64 1747 204 1747 467 
C 1747 607 1773 712 1875 1146 
L 2099 2039 
C 2195 2425 2413 2687 2707 2687 
C 2720 2687 2899 2687 3034 2624 
z
" transform="scale(0.015625)"/>
       <path id="CMR17-31" d="M 1702 4083 
C 1702 4217 1696 4224 1606 4224 
C 1357 3927 979 3833 621 3820 
C 602 3820 570 3820 563 3808 
C 557 3795 557 3782 557 3648 
C 755 3648 1088 3686 1344 3839 
L 1344 467 
C 1344 243 1331 166 781 166 
L 589 166 
L 589 0 
C 896 6 1216 12 1523 12 
C 1830 12 2150 6 2458 0 
L 2458 166 
L 2266 166 
C 1715 166 1702 236 1702 467 
L 1702 4083 
z
" transform="scale(0.015625)"/>
      </defs>
      <use xlink:href="#CMMI12-78" transform="scale(0.996264)"/>
      <use xlink:href="#CMR17-31" transform="translate(55.43406 -14.943915) scale(0.697382)"/>
     </g>
    </g>
   </g>
   <g id="matplotlib.axis_2">
    <g id="ytick_1">
     <g id="line2d_5">
      <defs>
       <path id="mc9be765a4c" d="M 0 0 
L -3.5 0 
" style="stroke: #000000; stroke-width: 0.8"/>
      </defs>
      <g>
       <use xlink:href="#mc9be765a4c" x="60.548213" y="273.312" style="stroke: #000000; stroke-width: 0.8"/>
      </g>
     </g>
     <g id="text_6">
      <!-- $\mathdefault{−2}$ -->
      <g transform="translate(28.91263 280.230498) scale(0.2 -0.2)">
       <use xlink:href="#CMSY10-0" transform="scale(0.996264)"/>
       <use xlink:href="#CMR17-32" transform="translate(77.487468 0) scale(0.996264)"/>
      </g>
     </g>
    </g>
    <g id="ytick_2">
     <g id="line2d_6">
      <g>
       <use xlink:href="#mc9be765a4c" x="60.548213" y="191.431385" style="stroke: #000000; stroke-width: 0.8"/>
      </g>
     </g>
     <g id="text_7">
      <!-- $\mathdefault{0}$ -->
      <g transform="translate(44.410118 198.349883) scale(0.2 -0.2)">
       <use xlink:href="#CMR17-30" transform="scale(0.996264)"/>
      </g>
     </g>
    </g>
    <g id="ytick_3">
     <g id="line2d_7">
      <g>
       <use xlink:href="#mc9be765a4c" x="60.548213" y="109.550769" style="stroke: #000000; stroke-width: 0.8"/>
      </g>
     </g>
     <g id="text_8">
      <!-- $\mathdefault{2}$ -->
      <g transform="translate(44.410118 116.469268) scale(0.2 -0.2)">
       <use xlink:href="#CMR17-32" transform="scale(0.996264)"/>
      </g>
     </g>
    </g>
    <g id="ytick_4">
     <g id="line2d_8">
      <g>
       <use xlink:href="#mc9be765a4c" x="60.548213" y="27.670154" style="stroke: #000000; stroke-width: 0.8"/>
      </g>
     </g>
     <g id="text_9">
      <!-- $\mathdefault{4}$ -->
      <g transform="translate(44.410118 34.588652) scale(0.2 -0.2)">
       <use xlink:href="#CMR17-34" transform="scale(0.996264)"/>
      </g>
     </g>
    </g>
    <g id="text_10">
     <!-- $x_2$ -->
     <g transform="translate(21.036997 149.213635) rotate(-90) scale(0.2 -0.2)">
      <use xlink:href="#CMMI12-78" transform="scale(0.996264)"/>
      <use xlink:href="#CMR17-32" transform="translate(55.43406 -14.943915) scale(0.697382)"/>
     </g>
    </g>
   </g>
   <g id="QuadContourSet_1">
    <path clip-path="url(#pea4fb3a2b5)" style="fill: none; stroke: #440154"/>
    <path d="M 298.628213 238.375527 
L 295.020941 238.054955 
L 287.806395 237.095971 
L 280.59185 235.714383 
L 276.984577 234.81406 
L 270.793315 232.992 
L 269.770031 232.650928 
L 263.598927 230.304 
L 262.555486 229.857044 
L 257.812055 227.616 
L 252.984113 224.928 
L 248.870674 222.24 
L 245.345933 219.552 
L 242.311983 216.864 
L 239.691487 214.176 
L 237.304577 211.31931 
L 235.542749 208.8 
L 233.697304 205.639156 
L 232.645711 203.424 
L 231.626838 200.736 
L 230.865156 198.048 
L 230.360666 195.36 
L 230.113366 192.672 
L 230.123258 189.984 
L 230.390342 187.296 
L 230.914616 184.608 
L 231.696082 181.92 
L 232.734739 179.232 
L 234.04722 176.544 
L 235.677762 173.856 
L 237.59271 171.168 
L 240.91185 167.397468 
L 242.531188 165.792 
L 245.602432 163.104 
L 249.169117 160.416 
L 253.330079 157.728 
L 258.212314 155.04 
L 258.948213 154.674424 
L 264.100257 152.352 
L 269.770031 150.216442 
L 273.377304 149.060386 
L 280.59185 147.152357 
L 284.199122 146.401745 
L 291.413668 145.236742 
L 298.628213 144.492435 
L 302.235486 144.278595 
L 309.450031 144.17161 
L 316.664577 144.47221 
L 323.879122 145.200336 
L 331.093668 146.349158 
L 334.700941 147.087897 
L 341.915486 148.978736 
L 345.522759 150.120197 
L 351.472573 152.352 
L 352.737304 152.887334 
L 357.35284 155.04 
L 362.241972 157.728 
L 366.405491 160.416 
L 369.971737 163.104 
L 373.040468 165.792 
L 375.690399 168.48 
L 377.988213 171.173273 
L 379.892364 173.856 
L 381.595486 176.67448 
L 382.832956 179.232 
L 383.875425 181.92 
L 384.659759 184.608 
L 385.202759 187.464479 
L 385.442579 189.984 
L 385.452056 192.672 
L 385.202759 195.428923 
L 384.7094 198.048 
L 383.944923 200.736 
L 382.922311 203.424 
L 381.595486 206.192484 
L 380.027897 208.8 
L 377.988213 211.678121 
L 375.876982 214.176 
L 373.260612 216.864 
L 370.229399 219.552 
L 366.705373 222.24 
L 362.589717 224.928 
L 357.755304 227.616 
L 356.344577 228.316813 
L 351.977127 230.304 
L 349.130031 231.434764 
L 344.784055 232.992 
L 338.308213 234.887468 
L 334.700941 235.775336 
L 327.486395 237.140669 
L 320.27185 238.083399 
L 316.664577 238.394713 
L 309.450031 238.686345 
L 302.235486 238.578902 
L 298.628213 238.375527 
L 298.628213 238.375527 
" clip-path="url(#pea4fb3a2b5)" style="fill: none; stroke: #471365"/>
    <path d="M 417.668213 215.035024 
L 416.56701 216.864 
L 414.060941 220.512086 
L 412.744465 222.24 
L 410.453668 224.990174 
L 406.846395 228.767186 
L 403.239122 232.099189 
L 399.63185 235.069823 
L 396.024577 237.743004 
L 392.417304 240.168412 
L 388.810031 242.385251 
L 385.202759 244.424864 
L 381.343132 246.432 
L 374.380941 249.616463 
L 367.166395 252.437428 
L 359.95185 254.835969 
L 352.737304 256.849452 
L 349.130031 257.721579 
L 341.915486 259.223656 
L 334.700941 260.416748 
L 327.486395 261.308765 
L 320.27185 261.924682 
L 313.057304 262.264499 
L 305.842759 262.328214 
L 298.628213 262.115829 
L 291.413668 261.627343 
L 284.199122 260.862756 
L 276.984577 259.820069 
L 269.770031 258.450528 
L 262.555486 256.777542 
L 254.518074 254.496 
L 248.126395 252.338373 
L 244.519122 250.972232 
L 240.02867 249.12 
L 233.697304 246.165072 
L 229.119327 243.744 
L 224.551499 241.056 
L 220.438745 238.368 
L 216.726542 235.68 
L 213.368738 232.992 
L 210.326013 230.304 
L 207.564655 227.616 
L 204.839122 224.666934 
L 202.826731 222.24 
L 200.799105 219.552 
L 199.004706 216.864 
L 197.397983 214.176 
L 196.010055 211.488 
L 194.796456 208.8 
L 193.765305 206.112 
L 192.927361 203.424 
L 192.258305 200.736 
L 191.758137 198.048 
L 191.426857 195.36 
L 191.264464 192.672 
L 191.27096 189.984 
L 191.446344 187.296 
L 191.790615 184.608 
L 192.303775 181.92 
L 192.985822 179.232 
L 194.017304 176.068123 
L 194.88362 173.856 
L 196.11063 171.168 
L 197.624577 168.287895 
L 199.136341 165.792 
L 201.23185 162.715677 
L 202.991567 160.416 
L 205.248875 157.728 
L 208.446395 154.363987 
L 212.053668 151.008264 
L 215.660941 148.015135 
L 219.268213 145.320757 
L 222.875486 142.875444 
L 226.482759 140.63995 
L 230.090031 138.582863 
L 234.658374 136.224 
L 240.91185 133.3587 
L 248.126395 130.521335 
L 255.340941 128.106405 
L 262.555486 126.087897 
L 266.162759 125.201707 
L 273.377304 123.693234 
L 280.59185 122.48306 
L 287.806395 121.583089 
L 295.020941 120.958404 
L 302.235486 120.609004 
L 309.450031 120.534888 
L 316.664577 120.736058 
L 323.879122 121.212513 
L 331.093668 121.964253 
L 338.308213 122.999557 
L 345.522759 124.353879 
L 352.737304 126.016217 
L 360.39411 128.16 
L 367.166395 130.42261 
L 370.773668 131.782491 
L 375.066486 133.536 
L 381.595486 136.560413 
L 386.078943 138.912 
L 390.684317 141.6 
L 394.830021 144.288 
L 398.571302 146.976 
L 401.954892 149.664 
L 405.020592 152.352 
L 407.802507 155.04 
L 410.453668 157.875755 
L 414.060941 162.347287 
L 414.622139 163.104 
L 416.435037 165.792 
L 417.668213 167.822738 
L 417.668213 167.822738 
" clip-path="url(#pea4fb3a2b5)" style="fill: none; stroke: #482374"/>
    <path d="M 252.869146 273.312 
L 248.126395 272.069615 
L 240.91185 269.94914 
L 233.697304 267.516773 
L 226.482759 264.737812 
L 219.268213 261.572205 
L 215.660941 259.842795 
L 208.446395 255.984318 
L 204.839122 253.860915 
L 201.23185 251.584935 
L 197.604806 249.12 
L 193.95268 246.432 
L 190.410031 243.600142 
L 186.802759 240.445581 
L 183.195486 236.971878 
L 179.588213 233.119051 
L 179.47494 232.992 
L 175.980941 228.704149 
L 175.155264 227.616 
L 172.373668 223.561949 
L 171.536871 222.24 
L 168.766395 217.254387 
L 168.56587 216.864 
L 167.323759 214.176 
L 166.220254 211.488 
L 165.159122 208.486956 
L 164.44729 206.112 
L 163.776774 203.424 
L 163.241401 200.736 
L 162.84117 198.048 
L 162.576083 195.36 
L 162.446138 192.672 
L 162.451335 189.984 
L 162.591676 187.296 
L 162.867159 184.608 
L 163.277786 181.92 
L 163.823554 179.232 
L 165.159122 174.38763 
L 165.324655 173.856 
L 166.300218 171.168 
L 167.414385 168.48 
L 168.766395 165.600283 
L 170.092503 163.104 
L 172.373668 159.300019 
L 173.402197 157.728 
L 175.980941 154.156652 
L 177.396042 152.352 
L 179.655832 149.664 
L 183.195486 145.890189 
L 186.802759 142.419876 
L 190.410031 139.267058 
L 194.017304 136.384203 
L 197.624577 133.732815 
L 201.23185 131.281385 
L 204.839122 129.003876 
L 208.446395 126.878582 
L 212.053668 124.887266 
L 216.143445 122.784 
L 222.875486 119.653932 
L 230.090031 116.692864 
L 237.304577 114.090016 
L 244.519122 111.809611 
L 251.733668 109.836346 
L 258.948213 108.141732 
L 266.377397 106.656 
L 273.377304 105.513846 
L 280.59185 104.558686 
L 287.806395 103.831518 
L 295.020941 103.339187 
L 302.235486 103.063816 
L 309.450031 103.005404 
L 316.664577 103.163951 
L 323.879122 103.539457 
L 331.093668 104.137039 
L 338.308213 104.971729 
L 345.522759 106.030149 
L 352.737304 107.333445 
L 359.95185 108.887844 
L 367.166395 110.717431 
L 374.380941 112.827308 
L 381.595486 115.247465 
L 388.810031 118.012327 
L 396.024577 121.16161 
L 399.63185 122.883309 
L 406.846395 126.720886 
L 410.453668 128.833352 
L 414.060941 131.096869 
L 417.668213 133.533113 
M 417.668213 249.325321 
L 414.003086 251.808 
L 409.686679 254.496 
L 403.239122 258.119825 
L 399.63185 259.979316 
L 392.417304 263.326708 
L 385.202759 266.274451 
L 377.988213 268.863944 
L 370.773668 271.131058 
L 362.705275 273.312 
L 362.705275 273.312 
" clip-path="url(#pea4fb3a2b5)" style="fill: none; stroke: #46327e"/>
    <path d="M 205.001653 273.312 
L 199.473691 270.624 
L 194.017304 267.744115 
L 186.802759 263.511355 
L 183.195486 261.198488 
L 179.588213 258.736203 
L 175.980941 256.105791 
L 172.373668 253.285286 
L 168.766395 250.248721 
L 164.597227 246.432 
L 161.55185 243.379253 
L 157.944577 239.414243 
L 154.861551 235.68 
L 152.842643 232.992 
L 150.730031 229.949321 
L 147.6484 224.928 
L 146.199673 222.24 
L 143.68598 216.864 
L 142.629026 214.176 
L 140.875113 208.8 
L 139.908213 204.884742 
L 139.598059 203.424 
L 139.142357 200.736 
L 138.801686 198.048 
L 138.576048 195.36 
L 138.46544 192.672 
L 138.469865 189.984 
L 138.58932 187.296 
L 138.823808 184.608 
L 139.173327 181.92 
L 139.908213 177.978231 
L 140.224177 176.544 
L 140.933879 173.856 
L 141.76111 171.168 
L 143.515486 166.431372 
L 143.773775 165.792 
L 146.305951 160.416 
L 147.766542 157.728 
L 150.730031 152.918302 
L 152.992543 149.664 
L 155.024918 146.976 
L 157.944577 143.446815 
L 162.102283 138.912 
L 165.159122 135.894253 
L 168.766395 132.612936 
L 172.373668 129.577583 
L 175.980941 126.757498 
L 179.588213 124.126888 
L 183.195486 121.663924 
L 186.802759 119.350003 
L 190.410031 117.16918 
L 197.624577 113.192281 
L 201.23185 111.361655 
L 208.446395 108.001324 
L 215.660941 104.990593 
L 222.875486 102.297719 
L 230.090031 99.894685 
L 237.304577 97.756677 
L 244.519122 95.861631 
L 251.733668 94.216893 
L 258.948213 92.783066 
L 266.162759 91.569791 
L 273.559144 90.528 
L 280.59185 89.744967 
L 287.806395 89.12891 
L 295.020941 88.701295 
L 302.235486 88.46212 
L 309.450031 88.411386 
L 316.664577 88.549092 
L 323.879122 88.87524 
L 331.093668 89.389828 
L 338.308213 90.092858 
L 345.522759 90.996648 
L 352.737304 92.105716 
L 359.95185 93.413648 
L 367.166395 94.951287 
L 374.380941 96.710196 
L 381.595486 98.704068 
L 389.753565 101.28 
L 397.273248 103.968 
L 404.011798 106.656 
L 410.453668 109.498525 
L 417.668213 113.047497 
M 417.668213 269.816419 
L 414.060941 271.635373 
L 410.569378 273.312 
L 410.569378 273.312 
" clip-path="url(#pea4fb3a2b5)" style="fill: none; stroke: #424086"/>
    <path d="M 173.215048 273.312 
L 168.766395 270.516634 
L 164.918691 267.936 
L 161.149929 265.248 
L 157.603372 262.56 
L 154.263532 259.872 
L 150.730031 256.831309 
L 145.390329 251.808 
L 142.768462 249.12 
L 139.908213 245.977559 
L 135.829065 241.056 
L 131.911711 235.68 
L 128.511381 230.304 
L 125.600054 224.928 
L 124.329567 222.24 
L 122.11138 216.864 
L 121.174964 214.176 
L 119.623277 208.8 
L 118.487506 203.424 
L 118.079153 200.736 
L 117.576907 195.36 
L 117.482736 189.984 
L 117.79664 184.608 
L 118.523499 179.232 
L 119.675267 173.856 
L 121.242951 168.48 
L 122.188853 165.792 
L 124.42335 160.416 
L 125.70403 157.728 
L 128.631993 152.352 
L 130.282073 149.664 
L 132.693668 146.058218 
L 135.989356 141.6 
L 138.172756 138.912 
L 140.490185 136.224 
L 143.515486 132.962483 
L 148.394331 128.16 
L 151.36224 125.472 
L 154.514253 122.784 
L 157.944577 120.035116 
L 161.55185 117.318561 
L 165.216396 114.72 
L 172.373668 110.069325 
L 178.150753 106.656 
L 183.195486 103.895226 
L 190.410031 100.28704 
L 197.624577 97.01267 
L 204.839122 94.044327 
L 212.053668 91.357224 
L 219.268213 88.92918 
L 226.482759 86.740286 
L 233.697304 84.772625 
L 243.412446 82.464 
L 248.126395 81.478342 
L 257.373025 79.776 
L 262.555486 78.958886 
L 269.770031 77.975172 
L 277.763254 77.088 
L 284.199122 76.532489 
L 291.413668 76.071277 
L 298.628213 75.776614 
L 305.842759 75.648499 
L 313.057304 75.686934 
L 320.27185 75.891917 
L 327.486395 76.263448 
L 334.700941 76.801529 
L 341.915486 77.516105 
L 349.130031 78.408006 
L 358.196754 79.776 
L 363.559122 80.725937 
L 372.155436 82.464 
L 377.988213 83.808629 
L 385.202759 85.652728 
L 392.827738 87.84 
L 401.140943 90.528 
L 408.587436 93.216 
L 415.34078 95.904 
L 417.668213 96.892679 
L 417.668213 96.892679 
" clip-path="url(#pea4fb3a2b5)" style="fill: none; stroke: #3d4e8a"/>
    <path d="M 147.609141 273.312 
L 143.515486 270.250644 
L 137.353582 265.248 
L 132.693668 261.088212 
L 128.652149 257.184 
L 123.615368 251.808 
L 121.298324 249.12 
L 117.066211 243.744 
L 113.324499 238.368 
L 110.04646 232.992 
L 107.20727 227.616 
L 104.800771 222.24 
L 102.798996 216.864 
L 101.193602 211.488 
L 99.972153 206.112 
L 99.140257 200.736 
L 98.68128 195.36 
L 98.595222 189.984 
L 98.882083 184.608 
L 99.541862 179.232 
L 100.580633 173.856 
L 102.010893 168.48 
L 103.835486 163.065816 
L 106.048585 157.728 
L 108.685225 152.352 
L 111.753218 146.976 
L 115.276961 141.6 
L 119.282731 136.224 
L 123.798858 130.848 
L 126.256543 128.16 
L 129.086395 125.243209 
L 134.524408 120.096 
L 139.908213 115.481747 
L 144.271395 112.032 
L 150.730031 107.347451 
L 155.795674 103.968 
L 161.55185 100.41009 
L 168.766395 96.313907 
L 174.714404 93.216 
L 180.258923 90.528 
L 186.802759 87.587327 
L 194.017304 84.613857 
L 201.23185 81.894464 
L 208.446395 79.411017 
L 215.865323 77.088 
L 225.52153 74.4 
L 230.090031 73.253409 
L 237.304577 71.584807 
L 244.519122 70.109583 
L 251.733668 68.798517 
L 258.948213 67.666728 
L 269.140136 66.336 
L 273.377304 65.880138 
L 280.59185 65.229568 
L 287.806395 64.731383 
L 295.020941 64.385584 
L 302.235486 64.192171 
L 309.450031 64.151144 
L 316.664577 64.262503 
L 323.879122 64.526248 
L 331.093668 64.942379 
L 338.308213 65.510896 
L 346.422873 66.336 
L 352.737304 67.121792 
L 359.95185 68.169745 
L 367.166395 69.381152 
L 374.380941 70.770679 
L 381.595486 72.33315 
L 390.046386 74.4 
L 396.024577 76.026067 
L 403.239122 78.171536 
L 410.453668 80.53073 
L 417.668213 83.119663 
L 417.668213 83.119663 
" clip-path="url(#pea4fb3a2b5)" style="fill: none; stroke: #365c8d"/>
    <path d="M 125.565502 273.312 
L 121.87185 270.172659 
L 116.492733 265.248 
L 113.75909 262.56 
L 108.703549 257.184 
L 106.367395 254.496 
L 102.061413 249.12 
L 98.21458 243.744 
L 94.803566 238.368 
L 91.806592 232.992 
L 89.20331 227.616 
L 86.993941 222.24 
L 85.149799 216.864 
L 83.673792 211.488 
L 82.546659 206.112 
L 81.775118 200.736 
L 81.352545 195.36 
L 81.273313 189.984 
L 81.537421 184.608 
L 82.19185 178.939998 
L 83.110226 173.856 
L 84.425214 168.48 
L 86.093827 163.104 
L 88.13954 157.728 
L 90.558721 152.352 
L 93.365357 146.976 
L 96.620941 141.537203 
L 100.228213 136.216314 
L 104.317414 130.848 
L 108.888828 125.472 
L 111.355953 122.784 
L 116.708542 117.408 
L 121.87185 112.692201 
L 125.819204 109.344 
L 129.177366 106.656 
L 136.300941 101.376284 
L 140.362223 98.592 
L 147.122759 94.276768 
L 153.483531 90.528 
L 158.369383 87.84 
L 165.159122 84.360411 
L 172.373668 80.948532 
L 179.588213 77.805544 
L 186.802759 74.912704 
L 194.017304 72.252971 
L 201.23185 69.810818 
L 208.446395 67.572067 
L 215.660941 65.523745 
L 222.900501 63.648 
L 233.697304 61.187628 
L 240.91185 59.755008 
L 249.364752 58.272 
L 258.948213 56.853488 
L 269.770031 55.560576 
L 280.59185 54.608533 
L 291.413668 53.972488 
L 302.235486 53.65244 
L 313.057304 53.648389 
L 323.879122 53.960334 
L 334.700941 54.588277 
L 345.522759 55.532217 
L 352.737304 56.352114 
L 363.559122 57.852104 
L 370.773668 59.046641 
L 380.777741 60.96 
L 388.810031 62.729982 
L 396.024577 64.49807 
L 403.239122 66.440277 
L 411.88051 69.024 
L 417.668213 70.912645 
L 417.668213 70.912645 
" clip-path="url(#pea4fb3a2b5)" style="fill: none; stroke: #31688e"/>
    <path d="M 105.924889 273.312 
L 100.298566 267.936 
L 96.620941 264.104231 
L 92.825154 259.872 
L 88.432234 254.496 
L 84.471662 249.12 
L 80.922862 243.744 
L 77.766545 238.368 
L 74.977304 232.976231 
L 72.578336 227.616 
L 70.517948 222.24 
L 68.803601 216.864 
L 67.422154 211.488 
L 66.379087 206.112 
L 65.658874 200.736 
L 65.261516 195.36 
L 65.187011 189.984 
L 65.43536 184.608 
L 66.006563 179.232 
L 66.900621 173.856 
L 68.122904 168.48 
L 69.685986 163.104 
L 71.579989 157.728 
L 73.832668 152.352 
L 76.440629 146.976 
L 79.417448 141.6 
L 82.780962 136.224 
L 86.550179 130.848 
L 90.745368 125.472 
L 95.388177 120.096 
L 100.228213 115.00127 
L 103.835486 111.490323 
L 109.1794 106.656 
L 114.657304 102.095523 
L 119.169523 98.592 
L 125.479122 94.041091 
L 130.712987 90.528 
L 136.300941 87.018016 
L 143.515486 82.80557 
L 149.101003 79.776 
L 154.348601 77.088 
L 161.55185 73.651778 
L 168.766395 70.462379 
L 175.980941 67.508844 
L 183.195486 64.776129 
L 190.410031 62.250445 
L 197.624577 59.919126 
L 204.839122 57.77052 
L 212.881812 55.584 
L 222.875486 53.156526 
L 230.090031 51.599248 
L 237.304577 50.185159 
L 248.126395 48.356773 
L 255.340941 47.310729 
L 266.162759 46.013602 
L 276.984577 45.014928 
L 287.806395 44.324108 
L 298.628213 43.929642 
L 309.450031 43.828208 
L 320.27185 44.019806 
L 331.093668 44.504435 
L 341.915486 45.290424 
L 352.737304 46.38093 
L 363.559122 47.774601 
L 374.380941 49.493829 
L 381.595486 50.820463 
L 392.417304 53.093057 
L 403.239122 55.725078 
L 412.470851 58.272 
L 417.668213 59.833391 
L 417.668213 59.833391 
" clip-path="url(#pea4fb3a2b5)" style="fill: none; stroke: #2c738e"/>
    <path d="M 88.025976 273.312 
L 82.850892 267.936 
L 78.584577 263.092507 
L 75.93966 259.872 
L 71.854682 254.496 
L 68.166539 249.12 
L 64.857471 243.744 
L 61.910764 238.368 
L 60.548213 235.651102 
M 60.548213 147.217479 
L 62.01782 144.288 
L 64.978541 138.912 
L 68.302048 133.536 
L 72.005074 128.16 
L 76.1054 122.784 
L 80.621932 117.408 
L 85.574797 112.032 
L 89.406395 108.198613 
L 93.914175 103.968 
L 100.228213 98.50386 
L 106.915885 93.216 
L 111.050031 90.166868 
L 118.325078 85.152 
L 125.479122 80.623618 
L 131.471983 77.088 
L 136.300941 74.396388 
L 143.515486 70.633422 
L 150.730031 67.131235 
L 158.464174 63.648 
L 165.159122 60.846426 
L 172.373668 58.034663 
L 179.588213 55.42086 
L 187.112221 52.896 
L 197.624577 49.693651 
L 205.51551 47.52 
L 215.660941 45.00443 
L 222.875486 43.403399 
L 230.090031 41.939454 
L 240.91185 40.017082 
L 248.126395 38.90522 
L 258.948213 37.487812 
L 269.770031 36.360308 
L 280.59185 35.523091 
L 291.413668 34.963759 
L 302.235486 34.682312 
L 313.057304 34.678749 
L 323.879122 34.953071 
L 334.700941 35.505278 
L 345.522759 36.33537 
L 356.344577 37.455186 
L 367.166395 38.865344 
L 374.380941 39.971575 
L 385.202759 41.886567 
L 392.417304 43.344543 
L 399.63185 44.939383 
L 410.453668 47.62356 
L 417.668213 49.614382 
L 417.668213 49.614382 
" clip-path="url(#pea4fb3a2b5)" style="fill: none; stroke: #277f8e"/>
    <path d="M 71.47341 273.312 
L 67.762759 269.203343 
L 64.155486 264.941337 
L 60.548213 260.336695 
M 60.548213 122.523171 
L 64.574496 117.408 
L 69.202856 112.032 
L 74.250861 106.656 
L 78.584577 102.390793 
L 82.686002 98.592 
L 88.935794 93.216 
L 93.013668 89.941771 
L 99.363954 85.152 
L 103.835486 81.988644 
L 111.227087 77.088 
L 118.264577 72.777749 
L 125.479122 68.660901 
L 132.693668 64.836994 
L 140.549993 60.96 
L 147.122759 57.937927 
L 154.337304 54.834468 
L 161.55185 51.936375 
L 168.766395 49.232031 
L 175.980941 46.710681 
L 183.195486 44.36235 
L 194.017304 41.153249 
L 201.23185 39.204614 
L 212.053668 36.565479 
L 222.875486 34.24621 
L 230.090031 32.875171 
L 240.91185 31.056171 
L 251.733668 29.530503 
L 262.555486 28.280516 
L 273.377304 27.308297 
L 284.199122 26.600304 
L 295.020941 26.156539 
L 305.842759 25.977629 
L 316.664577 26.061688 
L 327.486395 26.410603 
L 338.308213 27.023745 
L 349.130031 27.901113 
L 359.95185 29.04835 
L 370.773668 30.477588 
L 381.595486 32.188724 
L 392.417304 34.190396 
L 403.239122 36.502539 
L 410.453668 38.223425 
L 417.668213 40.085674 
L 417.668213 40.085674 
" clip-path="url(#pea4fb3a2b5)" style="fill: none; stroke: #238a8d"/>
    <path d="M 60.548213 104.591286 
L 64.155486 100.893719 
L 69.35994 95.904 
L 75.415443 90.528 
L 82.19185 84.987141 
L 89.406395 79.556682 
L 96.831857 74.4 
L 103.835486 69.896633 
L 109.733492 66.336 
L 114.657304 63.5149 
L 121.87185 59.623 
L 129.891965 55.584 
L 136.300941 52.566514 
L 143.515486 49.377275 
L 150.730031 46.388975 
L 157.944577 43.590662 
L 165.159122 40.972166 
L 172.373668 38.524028 
L 179.588213 36.237443 
L 190.410031 33.101382 
L 201.23185 30.293646 
L 212.053668 27.798098 
L 222.875486 25.599641 
L 233.697304 23.689878 
L 244.519122 22.060513 
L 255.817602 20.64 
L 266.162759 19.597337 
L 276.984577 18.754612 
L 287.806395 18.163737 
L 298.628213 17.826667 
L 309.450031 17.740829 
L 320.27185 17.902967 
L 331.093668 18.31872 
L 341.915486 18.987088 
L 352.737304 19.907304 
L 363.559122 21.086339 
L 374.380941 22.53284 
L 385.202759 24.249809 
L 396.024577 26.243225 
L 407.611857 28.704 
L 417.668213 31.120193 
L 417.668213 31.120193 
" clip-path="url(#pea4fb3a2b5)" style="fill: none; stroke: #1f968b"/>
    <path d="M 60.548213 89.772425 
L 65.852539 85.152 
L 72.483572 79.776 
L 79.649812 74.4 
L 85.799122 70.104403 
L 91.519688 66.336 
L 96.620941 63.150143 
L 104.942178 58.272 
L 111.050031 54.922972 
L 118.264577 51.196712 
L 125.853436 47.52 
L 132.693668 44.414368 
L 139.908213 41.33348 
L 147.122759 38.439164 
L 154.337304 35.721776 
L 161.55185 33.172326 
L 168.766395 30.782422 
L 179.588213 27.486185 
L 190.410031 24.512853 
L 201.23185 21.847058 
L 212.053668 19.474393 
L 222.875486 17.381336 
L 233.697304 15.559664 
L 244.519122 14.005321 
L 256.512069 12.576 
L 266.162759 11.652241 
L 276.984577 10.847229 
L 287.806395 10.282795 
L 298.628213 9.95894 
L 309.450031 9.875844 
L 320.27185 10.032964 
L 331.093668 10.430843 
L 341.915486 11.069301 
L 352.737304 11.948337 
L 363.559122 13.075401 
L 374.380941 14.456191 
L 385.202759 16.093767 
L 396.024577 17.99236 
L 406.846395 20.17182 
L 414.060941 21.78255 
L 417.668213 22.63427 
L 417.668213 22.63427 
" clip-path="url(#pea4fb3a2b5)" style="fill: none; stroke: #1fa187"/>
    <path d="M 60.548213 76.849818 
L 63.667656 74.4 
L 64.155486 74.025588 
L 67.214878 71.712 
L 67.762759 71.306878 
L 70.896841 69.024 
L 71.370031 68.686812 
L 74.719759 66.336 
L 74.977304 66.159099 
L 78.584577 63.719459 
L 78.691913 63.648 
L 82.19185 61.36642 
L 82.825346 60.96 
L 85.799122 59.091076 
L 87.123765 58.272 
L 89.406395 56.888771 
L 91.595414 55.584 
L 93.013668 54.755209 
L 96.249096 52.896 
L 96.620941 52.686429 
L 100.228213 50.687813 
L 101.109403 50.208 
L 103.835486 48.751619 
L 106.181994 47.52 
L 107.442759 46.870504 
L 111.050031 45.045343 
L 111.479487 44.832 
L 114.657304 43.282025 
L 117.034518 42.144 
L 118.264577 41.565652 
L 121.87185 39.901564 
L 122.85663 39.456 
L 125.479122 38.290257 
L 128.972075 36.768 
L 129.086395 36.719037 
L 132.693668 35.204921 
L 135.429503 34.08 
L 136.300941 33.727751 
L 139.908213 32.299989 
L 142.252094 31.392 
L 143.515486 30.910731 
L 147.122759 29.566444 
L 149.4896 28.704 
L 150.730031 28.259409 
L 154.337304 26.995863 
L 157.201239 26.016 
L 157.944577 25.765775 
L 161.55185 24.580366 
L 165.159122 23.423843 
L 165.46572 23.328 
L 168.766395 22.312573 
L 172.373668 21.23125 
L 174.399319 20.64 
L 175.980941 20.185563 
L 179.588213 19.177092 
L 183.195486 18.196604 
L 184.121839 17.952 
L 186.802759 17.254984 
L 190.410031 16.344678 
L 194.017304 15.461925 
L 194.852159 15.264 
L 197.624577 14.616677 
L 201.23185 13.801562 
L 204.839122 13.013583 
L 206.91377 12.576 
L 208.446395 12.257562 
L 212.053668 11.534799 
L 215.660941 10.838767 
L 219.268213 10.169466 
L 220.84831 9.888 
L 222.875486 9.532203 
L 226.482759 8.925415 
L 230.090031 8.344965 
L 233.697304 7.790853 
L 237.304577 7.263079 
L 237.758359 7.2 
M 377.817953 7.2 
L 377.988213 7.223572 
L 381.595486 7.74932 
L 385.202759 8.301406 
L 388.810031 8.87983 
L 392.417304 9.484592 
L 394.723126 9.888 
L 396.024577 10.119088 
L 399.63185 10.786333 
L 403.239122 11.480309 
L 406.846395 12.201016 
L 408.656138 12.576 
L 410.453668 12.954093 
L 414.060941 13.739985 
L 417.668213 14.553012 
" clip-path="url(#pea4fb3a2b5)" style="fill: none; stroke: #26ad81"/>
    <path d="M 60.548213 65.251772 
L 62.780151 63.648 
L 64.155486 62.680318 
L 66.636988 60.96 
L 67.762759 60.195467 
L 70.637943 58.272 
L 71.370031 57.792028 
L 74.789663 55.584 
L 74.977304 55.465215 
L 78.584577 53.216775 
L 79.107375 52.896 
L 82.19185 51.039814 
L 83.596379 50.208 
L 85.799122 48.92805 
L 88.26202 47.52 
L 89.406395 46.877863 
L 93.013668 44.886893 
L 93.114809 44.832 
L 96.620941 42.96366 
L 98.185618 42.144 
L 100.228213 41.093077 
L 103.465852 39.456 
L 103.835486 39.272376 
L 107.442759 37.511793 
L 108.994411 36.768 
L 111.050031 35.799606 
L 114.657304 34.13111 
L 114.769887 34.08 
L 118.264577 32.520363 
L 120.841493 31.392 
L 121.87185 30.948349 
L 125.479122 29.424977 
L 127.22048 28.704 
L 129.086395 27.944109 
L 132.693668 26.504411 
L 133.942895 26.016 
L 136.300941 25.108933 
L 139.908213 23.750213 
L 141.053495 23.328 
L 143.515486 22.434775 
L 147.122759 21.154463 
L 148.60517 20.64 
L 150.730031 19.914093 
L 154.337304 18.70974 
L 156.660871 17.952 
L 157.944577 17.539807 
L 161.55185 16.409077 
L 165.159122 15.3059 
L 165.299641 15.264 
L 168.766395 14.245929 
L 172.373668 13.213729 
L 174.662538 12.576 
L 175.980941 12.214144 
L 179.588213 11.250803 
L 183.195486 10.314192 
L 184.885151 9.888 
L 186.802759 9.411422 
L 190.410031 8.541253 
L 194.017304 7.697423 
L 196.212236 7.2 
" clip-path="url(#pea4fb3a2b5)" style="fill: none; stroke: #35b779"/>
    <path d="M 60.548213 54.628997 
L 63.165082 52.896 
L 64.155486 52.252718 
L 67.350515 50.208 
L 67.762759 49.949151 
L 71.370031 47.717923 
L 71.694937 47.52 
L 74.977304 45.557483 
L 76.209643 44.832 
L 78.584577 43.45927 
L 80.896198 42.144 
L 82.19185 41.419953 
L 85.76291 39.456 
L 85.799122 39.436434 
L 89.406395 37.518764 
L 90.842158 36.768 
L 93.013668 35.652076 
L 96.124635 34.08 
L 96.620941 33.833448 
L 100.228213 32.071802 
L 101.644628 31.392 
L 103.835486 30.358021 
L 107.402669 28.704 
L 107.442759 28.685716 
L 111.050031 27.069867 
L 113.446256 26.016 
L 114.657304 25.491962 
L 118.264577 23.95993 
L 119.781092 23.328 
L 121.87185 22.470604 
L 125.479122 21.019729 
L 126.4421 20.64 
L 129.086395 19.613564 
L 132.693668 18.241311 
L 133.470019 17.952 
L 136.300941 16.913263 
L 139.908213 15.617215 
L 140.912668 15.264 
L 143.515486 14.362581 
L 147.122759 13.140431 
L 148.82655 12.576 
L 150.730031 11.954822 
L 154.337304 10.804365 
L 157.278923 9.888 
L 157.944577 9.683685 
L 161.55185 8.602813 
L 165.159122 7.548278 
L 166.381002 7.2 
" clip-path="url(#pea4fb3a2b5)" style="fill: none; stroke: #4ac16d"/>
    <path d="M 60.548213 44.768857 
L 64.155486 42.553589 
L 64.832397 42.144 
L 67.762759 40.402522 
L 69.379575 39.456 
L 71.370031 38.31117 
L 74.094316 36.768 
L 74.977304 36.276449 
L 78.584577 34.299193 
L 78.990812 34.08 
L 82.19185 32.382068 
L 84.088468 31.392 
L 85.799122 30.513882 
L 89.382703 28.704 
L 89.406395 28.692231 
L 93.013668 26.929589 
L 94.915011 26.016 
L 96.620941 25.209519 
L 100.228213 23.53306 
L 100.677181 23.328 
L 103.835486 21.90837 
L 106.70763 20.64 
L 107.442759 20.320429 
L 111.050031 18.780277 
L 113.025885 17.952 
L 114.657304 17.278624 
L 118.264577 15.81726 
L 119.656501 15.264 
L 121.87185 14.396782 
L 125.479122 13.011817 
L 126.636935 12.576 
L 129.086395 11.667742 
L 132.693668 10.356898 
L 134.010877 9.888 
L 136.300941 9.084768 
L 139.908213 7.845867 
L 141.829612 7.2 
" clip-path="url(#pea4fb3a2b5)" style="fill: none; stroke: #65cb5e"/>
    <path d="M 60.548213 35.541087 
L 63.057085 34.08 
L 64.155486 33.451161 
L 67.762759 31.416336 
L 67.806555 31.392 
L 71.370031 29.444846 
L 72.746696 28.704 
L 74.977304 27.523274 
L 77.869289 26.016 
L 78.584577 25.649208 
L 82.19185 23.828323 
L 83.198992 23.328 
L 85.799122 22.056813 
L 88.744598 20.64 
L 89.406395 20.326638 
L 93.013668 18.646571 
L 94.530241 17.952 
L 96.620941 17.009209 
L 100.228213 15.410079 
L 100.563512 15.264 
L 103.835486 13.860089 
L 106.881604 12.576 
L 107.442759 12.342974 
L 111.050031 10.871745 
L 113.50669 9.888 
L 114.657304 9.434019 
L 118.264577 8.03709 
L 120.467722 7.2 
" clip-path="url(#pea4fb3a2b5)" style="fill: none; stroke: #81d34d"/>
    <path d="M 60.548213 26.824055 
L 62.007467 26.016 
L 64.155486 24.845718 
L 66.982767 23.328 
L 67.762759 22.915933 
L 71.370031 21.038652 
L 72.147836 20.64 
L 74.977304 19.212444 
L 77.514561 17.952 
L 78.584577 17.428617 
L 82.19185 15.691723 
L 83.094485 15.264 
L 85.799122 14.001788 
L 88.904321 12.576 
L 89.406395 12.348906 
L 93.013668 10.744022 
L 94.970326 9.888 
L 96.620941 9.176483 
L 100.228213 7.647864 
L 101.303622 7.2 
" clip-path="url(#pea4fb3a2b5)" style="fill: none; stroke: #a0da39"/>
    <path d="M 60.548213 18.54598 
L 61.673594 17.952 
L 64.155486 16.662189 
L 66.886054 15.264 
L 67.762759 14.821881 
L 71.370031 13.029881 
L 72.297735 12.576 
L 74.977304 11.284572 
L 77.920285 9.888 
L 78.584577 9.577398 
L 82.19185 7.917088 
L 83.774945 7.2 
" clip-path="url(#pea4fb3a2b5)" style="fill: none; stroke: #c0df25"/>
    <path d="M 60.548213 10.647933 
L 62.055466 9.888 
L 64.155486 8.844764 
L 67.515763 7.2 
" clip-path="url(#pea4fb3a2b5)" style="fill: none; stroke: #dfe318"/>
    <path clip-path="url(#pea4fb3a2b5)" style="fill: none; stroke: #fde725"/>
   </g>
   <g id="line2d_9">
    <path d="M 88.018982 27.670154 
L 171.298781 102.04602 
L 209.227314 134.234059 
L 231.46186 152.25221 
L 246.231372 163.761536 
L 256.849819 171.813522 
L 264.927459 177.894294 
L 271.347696 182.861802 
L 276.641875 187.365555 
L 281.159599 192.412754 
L 285.174669 183.614801 
L 289.064623 187.062136 
L 292.576569 190.804729 
L 295.897947 199.431069 
L 299.534388 196.50682 
L 303.266299 193.441762 
L 307.77693 189.13553 
L 410.184671 193.135257 
L 392.44576 157.079341 
L 376.688244 168.558928 
L 365.257002 176.769864 
L 356.503442 183.276611 
L 349.508323 189.259364 
L 343.697273 197.987548 
L 338.551091 193.232211 
L 334.11354 185.995949 
L 330.034045 190.053779 
L 326.374904 196.78808 
L 322.832361 193.299167 
L 319.50053 188.252603 
L 316.115752 192.02979 
" clip-path="url(#pea4fb3a2b5)" style="fill: none; stroke: #0000ff; stroke-linecap: square"/>
    <defs>
     <path id="m2b660192e7" d="M 0 1.5 
C 0.397805 1.5 0.77937 1.341951 1.06066 1.06066 
C 1.341951 0.77937 1.5 0.397805 1.5 0 
C 1.5 -0.397805 1.341951 -0.77937 1.06066 -1.06066 
C 0.77937 -1.341951 0.397805 -1.5 0 -1.5 
C -0.397805 -1.5 -0.77937 -1.341951 -1.06066 -1.06066 
C -1.341951 -0.77937 -1.5 -0.397805 -1.5 0 
C -1.5 0.397805 -1.341951 0.77937 -1.06066 1.06066 
C -0.77937 1.341951 -0.397805 1.5 0 1.5 
z
" style="stroke: #0000ff"/>
    </defs>
    <g clip-path="url(#pea4fb3a2b5)">
     <use xlink:href="#m2b660192e7" x="88.018982" y="27.670154" style="fill: #0000ff; stroke: #0000ff"/>
     <use xlink:href="#m2b660192e7" x="171.298781" y="102.04602" style="fill: #0000ff; stroke: #0000ff"/>
     <use xlink:href="#m2b660192e7" x="209.227314" y="134.234059" style="fill: #0000ff; stroke: #0000ff"/>
     <use xlink:href="#m2b660192e7" x="231.46186" y="152.25221" style="fill: #0000ff; stroke: #0000ff"/>
     <use xlink:href="#m2b660192e7" x="246.231372" y="163.761536" style="fill: #0000ff; stroke: #0000ff"/>
     <use xlink:href="#m2b660192e7" x="256.849819" y="171.813522" style="fill: #0000ff; stroke: #0000ff"/>
     <use xlink:href="#m2b660192e7" x="264.927459" y="177.894294" style="fill: #0000ff; stroke: #0000ff"/>
     <use xlink:href="#m2b660192e7" x="271.347696" y="182.861802" style="fill: #0000ff; stroke: #0000ff"/>
     <use xlink:href="#m2b660192e7" x="276.641875" y="187.365555" style="fill: #0000ff; stroke: #0000ff"/>
     <use xlink:href="#m2b660192e7" x="281.159599" y="192.412754" style="fill: #0000ff; stroke: #0000ff"/>
     <use xlink:href="#m2b660192e7" x="285.174669" y="183.614801" style="fill: #0000ff; stroke: #0000ff"/>
     <use xlink:href="#m2b660192e7" x="289.064623" y="187.062136" style="fill: #0000ff; stroke: #0000ff"/>
     <use xlink:href="#m2b660192e7" x="292.576569" y="190.804729" style="fill: #0000ff; stroke: #0000ff"/>
     <use xlink:href="#m2b660192e7" x="295.897947" y="199.431069" style="fill: #0000ff; stroke: #0000ff"/>
     <use xlink:href="#m2b660192e7" x="299.534388" y="196.50682" style="fill: #0000ff; stroke: #0000ff"/>
     <use xlink:href="#m2b660192e7" x="303.266299" y="193.441762" style="fill: #0000ff; stroke: #0000ff"/>
     <use xlink:href="#m2b660192e7" x="307.77693" y="189.13553" style="fill: #0000ff; stroke: #0000ff"/>
     <use xlink:href="#m2b660192e7" x="410.184671" y="193.135257" style="fill: #0000ff; stroke: #0000ff"/>
     <use xlink:href="#m2b660192e7" x="392.44576" y="157.079341" style="fill: #0000ff; stroke: #0000ff"/>
     <use xlink:href="#m2b660192e7" x="376.688244" y="168.558928" style="fill: #0000ff; stroke: #0000ff"/>
     <use xlink:href="#m2b660192e7" x="365.257002" y="176.769864" style="fill: #0000ff; stroke: #0000ff"/>
     <use xlink:href="#m2b660192e7" x="356.503442" y="183.276611" style="fill: #0000ff; stroke: #0000ff"/>
     <use xlink:href="#m2b660192e7" x="349.508323" y="189.259364" style="fill: #0000ff; stroke: #0000ff"/>
     <use xlink:href="#m2b660192e7" x="343.697273" y="197.987548" style="fill: #0000ff; stroke: #0000ff"/>
     <use xlink:href="#m2b660192e7" x="338.551091" y="193.232211" style="fill: #0000ff; stroke: #0000ff"/>
     <use xlink:href="#m2b660192e7" x="334.11354" y="185.995949" style="fill: #0000ff; stroke: #0000ff"/>
     <use xlink:href="#m2b660192e7" x="330.034045" y="190.053779" style="fill: #0000ff; stroke: #0000ff"/>
     <use xlink:href="#m2b660192e7" x="326.374904" y="196.78808" style="fill: #0000ff; stroke: #0000ff"/>
     <use xlink:href="#m2b660192e7" x="322.832361" y="193.299167" style="fill: #0000ff; stroke: #0000ff"/>
     <use xlink:href="#m2b660192e7" x="319.50053" y="188.252603" style="fill: #0000ff; stroke: #0000ff"/>
     <use xlink:href="#m2b660192e7" x="316.115752" y="192.02979" style="fill: #0000ff; stroke: #0000ff"/>
    </g>
   </g>
   <g id="line2d_10">
    <path d="M 88.018982 27.670154 
L 171.298781 102.04602 
L 202.084528 129.283105 
L 220.899942 144.148955 
L 234.382148 153.669524 
L 244.698105 160.337209 
L 252.869814 165.2724 
L 259.490331 169.063172 
L 264.944778 172.054028 
L 269.499692 174.463057 
L 273.347036 176.436148 
L 276.628956 178.074921 
L 279.452967 179.45238 
L 281.901811 180.622284 
L 284.040103 181.625035 
L 285.918963 182.491528 
L 287.579289 183.245747 
L 289.054144 183.906561 
L 290.370504 184.488992 
L 291.550566 185.005127 
L 292.612738 185.464787 
L 293.572392 185.876022 
L 294.442454 186.245482 
L 295.233858 186.578706 
L 295.955905 186.880334 
L 296.61655 187.154281 
L 297.222631 187.40387 
L 297.780052 187.631933 
L 298.293936 187.840901 
L 298.76874 188.032869 
L 299.208366 188.20965 
" clip-path="url(#pea4fb3a2b5)" style="fill: none; stroke: #ff0000; stroke-linecap: square"/>
    <defs>
     <path id="m3fc25b14f3" d="M 0 1.5 
C 0.397805 1.5 0.77937 1.341951 1.06066 1.06066 
C 1.341951 0.77937 1.5 0.397805 1.5 0 
C 1.5 -0.397805 1.341951 -0.77937 1.06066 -1.06066 
C 0.77937 -1.341951 0.397805 -1.5 0 -1.5 
C -0.397805 -1.5 -0.77937 -1.341951 -1.06066 -1.06066 
C -1.341951 -0.77937 -1.5 -0.397805 -1.5 0 
C -1.5 0.397805 -1.341951 0.77937 -1.06066 1.06066 
C -0.77937 1.341951 -0.397805 1.5 0 1.5 
z
" style="stroke: #ff0000"/>
    </defs>
    <g clip-path="url(#pea4fb3a2b5)">
     <use xlink:href="#m3fc25b14f3" x="88.018982" y="27.670154" style="fill: #ff0000; stroke: #ff0000"/>
     <use xlink:href="#m3fc25b14f3" x="171.298781" y="102.04602" style="fill: #ff0000; stroke: #ff0000"/>
     <use xlink:href="#m3fc25b14f3" x="202.084528" y="129.283105" style="fill: #ff0000; stroke: #ff0000"/>
     <use xlink:href="#m3fc25b14f3" x="220.899942" y="144.148955" style="fill: #ff0000; stroke: #ff0000"/>
     <use xlink:href="#m3fc25b14f3" x="234.382148" y="153.669524" style="fill: #ff0000; stroke: #ff0000"/>
     <use xlink:href="#m3fc25b14f3" x="244.698105" y="160.337209" style="fill: #ff0000; stroke: #ff0000"/>
     <use xlink:href="#m3fc25b14f3" x="252.869814" y="165.2724" style="fill: #ff0000; stroke: #ff0000"/>
     <use xlink:href="#m3fc25b14f3" x="259.490331" y="169.063172" style="fill: #ff0000; stroke: #ff0000"/>
     <use xlink:href="#m3fc25b14f3" x="264.944778" y="172.054028" style="fill: #ff0000; stroke: #ff0000"/>
     <use xlink:href="#m3fc25b14f3" x="269.499692" y="174.463057" style="fill: #ff0000; stroke: #ff0000"/>
     <use xlink:href="#m3fc25b14f3" x="273.347036" y="176.436148" style="fill: #ff0000; stroke: #ff0000"/>
     <use xlink:href="#m3fc25b14f3" x="276.628956" y="178.074921" style="fill: #ff0000; stroke: #ff0000"/>
     <use xlink:href="#m3fc25b14f3" x="279.452967" y="179.45238" style="fill: #ff0000; stroke: #ff0000"/>
     <use xlink:href="#m3fc25b14f3" x="281.901811" y="180.622284" style="fill: #ff0000; stroke: #ff0000"/>
     <use xlink:href="#m3fc25b14f3" x="284.040103" y="181.625035" style="fill: #ff0000; stroke: #ff0000"/>
     <use xlink:href="#m3fc25b14f3" x="285.918963" y="182.491528" style="fill: #ff0000; stroke: #ff0000"/>
     <use xlink:href="#m3fc25b14f3" x="287.579289" y="183.245747" style="fill: #ff0000; stroke: #ff0000"/>
     <use xlink:href="#m3fc25b14f3" x="289.054144" y="183.906561" style="fill: #ff0000; stroke: #ff0000"/>
     <use xlink:href="#m3fc25b14f3" x="290.370504" y="184.488992" style="fill: #ff0000; stroke: #ff0000"/>
     <use xlink:href="#m3fc25b14f3" x="291.550566" y="185.005127" style="fill: #ff0000; stroke: #ff0000"/>
     <use xlink:href="#m3fc25b14f3" x="292.612738" y="185.464787" style="fill: #ff0000; stroke: #ff0000"/>
     <use xlink:href="#m3fc25b14f3" x="293.572392" y="185.876022" style="fill: #ff0000; stroke: #ff0000"/>
     <use xlink:href="#m3fc25b14f3" x="294.442454" y="186.245482" style="fill: #ff0000; stroke: #ff0000"/>
     <use xlink:href="#m3fc25b14f3" x="295.233858" y="186.578706" style="fill: #ff0000; stroke: #ff0000"/>
     <use xlink:href="#m3fc25b14f3" x="295.955905" y="186.880334" style="fill: #ff0000; stroke: #ff0000"/>
     <use xlink:href="#m3fc25b14f3" x="296.61655" y="187.154281" style="fill: #ff0000; stroke: #ff0000"/>
     <use xlink:href="#m3fc25b14f3" x="297.222631" y="187.40387" style="fill: #ff0000; stroke: #ff0000"/>
     <use xlink:href="#m3fc25b14f3" x="297.780052" y="187.631933" style="fill: #ff0000; stroke: #ff0000"/>
     <use xlink:href="#m3fc25b14f3" x="298.293936" y="187.840901" style="fill: #ff0000; stroke: #ff0000"/>
     <use xlink:href="#m3fc25b14f3" x="298.76874" y="188.032869" style="fill: #ff0000; stroke: #ff0000"/>
     <use xlink:href="#m3fc25b14f3" x="299.208366" y="188.20965" style="fill: #ff0000; stroke: #ff0000"/>
    </g>
   </g>
   <g id="patch_4">
    <path d="M 60.548213 273.312 
L 60.548213 7.2 
" style="fill: none; stroke: #000000; stroke-width: 0.8; stroke-linejoin: miter; stroke-linecap: square"/>
   </g>
   <g id="patch_5">
    <path d="M 417.668213 273.312 
L 417.668213 7.2 
" style="fill: none; stroke: #000000; stroke-width: 0.8; stroke-linejoin: miter; stroke-linecap: square"/>
   </g>
   <g id="patch_6">
    <path d="M 60.548213 273.312 
L 417.668213 273.312 
" style="fill: none; stroke: #000000; stroke-width: 0.8; stroke-linejoin: miter; stroke-linecap: square"/>
   </g>
   <g id="patch_7">
    <path d="M 60.548213 7.2 
L 417.668213 7.2 
" style="fill: none; stroke: #000000; stroke-width: 0.8; stroke-linejoin: miter; stroke-linecap: square"/>
   </g>
   <g id="legend_1">
    <g id="patch_8">
     <path d="M 287.104869 71.776128 
L 405.068213 71.776128 
Q 408.668213 71.776128 408.668213 68.176128 
L 408.668213 19.8 
Q 408.668213 16.2 405.068213 16.2 
L 287.104869 16.2 
Q 283.504869 16.2 283.504869 19.8 
L 283.504869 68.176128 
Q 283.504869 71.776128 287.104869 71.776128 
z
" style="fill: #ffffff; opacity: 0.8; stroke: #cccccc; stroke-linejoin: miter"/>
    </g>
    <g id="line2d_11">
     <path d="M 290.704869 29.7 
L 308.704869 29.7 
L 326.704869 29.7 
" style="fill: none; stroke: #0000ff; stroke-linecap: square"/>
     <g>
      <use xlink:href="#m2b660192e7" x="308.704869" y="29.7" style="fill: #0000ff; stroke: #0000ff"/>
     </g>
    </g>
    <g id="text_11">
     <!-- FGD -->
     <g transform="translate(341.104869 36) scale(0.18 -0.18)">
      <defs>
       <path id="CMSS17-46" d="M 2918 1984 
L 2918 2374 
L 1101 2374 
L 1101 3993 
L 1882 3993 
C 1958 3993 2035 3987 2112 3987 
L 3168 3987 
L 3168 4403 
L 563 4403 
L 563 0 
L 1101 0 
L 1101 1984 
L 2918 1984 
z
" transform="scale(0.015625)"/>
       <path id="CMSS17-47" d="M 3610 1868 
L 2336 1868 
L 2336 1472 
L 3123 1472 
L 3123 473 
C 2874 403 2618 352 2362 352 
C 1466 352 934 1311 934 2220 
C 934 3123 1491 4070 2362 4070 
C 2854 4070 3130 3916 3469 3660 
L 3552 4172 
C 3130 4390 2867 4480 2387 4480 
C 1146 4480 397 3353 397 2201 
C 397 1100 1152 -64 2349 -64 
C 2797 -64 3213 51 3610 249 
L 3610 1868 
z
" transform="scale(0.015625)"/>
       <path id="CMSS17-44" d="M 570 4416 
L 570 0 
L 2144 0 
C 3194 0 4000 981 4000 2169 
C 4000 3396 3194 4416 2144 4416 
L 570 4416 
z
M 1094 358 
L 1094 4057 
L 2003 4057 
C 2861 4057 3475 3275 3475 2169 
C 3475 1108 2867 358 2003 358 
L 1094 358 
z
" transform="scale(0.015625)"/>
      </defs>
      <use xlink:href="#CMSS17-46" transform="scale(0.996264)"/>
      <use xlink:href="#CMSS17-47" transform="translate(50.687105 0) scale(0.996264)"/>
      <use xlink:href="#CMSS17-44" transform="translate(113.145331 0) scale(0.996264)"/>
     </g>
    </g>
    <g id="line2d_12">
     <path d="M 290.704869 54.788064 
L 308.704869 54.788064 
L 326.704869 54.788064 
" style="fill: none; stroke: #ff0000; stroke-linecap: square"/>
     <g>
      <use xlink:href="#m3fc25b14f3" x="308.704869" y="54.788064" style="fill: #ff0000; stroke: #ff0000"/>
     </g>
    </g>
    <g id="text_12">
     <!-- FGD-ED -->
     <g transform="translate(341.104869 61.088064) scale(0.18 -0.18)">
      <defs>
       <path id="CMSS17-2d" d="M 1664 1216 
L 1664 1587 
L 64 1587 
L 64 1216 
L 1664 1216 
z
" transform="scale(0.015625)"/>
       <path id="CMSS17-45" d="M 1958 435 
C 1446 435 1216 435 1101 428 
L 1101 2105 
L 3085 2105 
L 3085 2496 
L 1101 2496 
L 1101 3993 
L 1926 3993 
C 2003 3993 2080 3987 2157 3987 
L 3251 3987 
L 3251 4403 
L 563 4403 
L 563 0 
L 3334 0 
L 3334 441 
L 1958 435 
z
" transform="scale(0.015625)"/>
      </defs>
      <use xlink:href="#CMSS17-46" transform="scale(0.996264)"/>
      <use xlink:href="#CMSS17-47" transform="translate(50.687105 0) scale(0.996264)"/>
      <use xlink:href="#CMSS17-44" transform="translate(113.145331 0) scale(0.996264)"/>
      <use xlink:href="#CMSS17-2d" transform="translate(180.688173 0) scale(0.996264)"/>
      <use xlink:href="#CMSS17-45" transform="translate(211.917285 0) scale(0.996264)"/>
      <use xlink:href="#CMSS17-44" transform="translate(267.809299 0) scale(0.996264)"/>
     </g>
    </g>
   </g>
  </g>
 </g>
 <defs>
  <clipPath id="pea4fb3a2b5">
   <rect x="60.548213" y="7.2" width="357.12" height="266.112"/>
  </clipPath>
 </defs>
</svg>
