<?xml version="1.0" encoding="utf-8" standalone="no"?>
<!DOCTYPE svg PUBLIC "-//W3C//DTD SVG 1.1//EN"
  "http://www.w3.org/Graphics/SVG/1.1/DTD/svg11.dtd">
<svg xmlns:xlink="http://www.w3.org/1999/xlink" width="424.868213pt" height="333.855759pt" viewBox="0 0 424.868213 333.855759" xmlns="http://www.w3.org/2000/svg" version="1.1">
 <metadata>
  <rdf:RDF xmlns:dc="http://purl.org/dc/elements/1.1/" xmlns:cc="http://creativecommons.org/ns#" xmlns:rdf="http://www.w3.org/1999/02/22-rdf-syntax-ns#">
   <cc:Work>
    <dc:type rdf:resource="http://purl.org/dc/dcmitype/StillImage"/>
    <dc:date>2025-05-21T19:18:12.082443</dc:date>
    <dc:format>image/svg+xml</dc:format>
    <dc:creator>
     <cc:Agent>
      <dc:title>Matplotlib v3.9.2, https://matplotlib.org/</dc:title>
     </cc:Agent>
    </dc:creator>
   </cc:Work>
  </rdf:RDF>
 </metadata>
 <defs>
  <style type="text/css">*{stroke-linejoin: round; stroke-linecap: butt}</style>
 </defs>
 <g id="figure_1">
  <g id="patch_1">
   <path d="M 0 333.855759 
L 424.868213 333.855759 
L 424.868213 0 
L 0 0 
z
" style="fill: #ffffff"/>
  </g>
  <g id="axes_1">
   <g id="patch_2">
    <path d="M 60.548213 280.230498 
L 417.668213 280.230498 
L 417.668213 14.118498 
L 60.548213 14.118498 
z
" style="fill: #ffffff"/>
   </g>
   <g id="patch_3">
    <path d="M 320.27185 161.958498 
L 385.202759 161.958498 
L 385.202759 102.822498 
L 320.27185 102.822498 
L 320.27185 161.958498 
z
" clip-path="url(#p5473b7978a)" style="fill: none; stroke: #ff0000; stroke-width: 2; stroke-linejoin: miter"/>
   </g>
   <g id="matplotlib.axis_1">
    <g id="xtick_1">
     <g id="line2d_1">
      <defs>
       <path id="md459260043" d="M 0 0 
L 0 3.5 
" style="stroke: #000000; stroke-width: 0.8"/>
      </defs>
      <g>
       <use xlink:href="#md459260043" x="93.013668" y="280.230498" style="stroke: #000000; stroke-width: 0.8"/>
      </g>
     </g>
     <g id="text_1">
      <!-- $\mathdefault{−4}$ -->
      <g transform="translate(80.695876 301.067495) scale(0.2 -0.2)">
       <defs>
        <path id="CMSY10-0" d="M 4218 1472 
C 4326 1472 4442 1472 4442 1600 
C 4442 1728 4326 1728 4218 1728 
L 755 1728 
C 646 1728 531 1728 531 1600 
C 531 1472 646 1472 755 1472 
L 4218 1472 
z
" transform="scale(0.015625)"/>
        <path id="CMR17-34" d="M 2150 4147 
C 2150 4281 2144 4288 2029 4288 
L 128 1254 
L 128 1088 
L 1779 1088 
L 1779 460 
C 1779 230 1766 166 1318 166 
L 1197 166 
L 1197 0 
C 1402 12 1747 12 1965 12 
C 2182 12 2528 12 2733 0 
L 2733 166 
L 2611 166 
C 2163 166 2150 230 2150 460 
L 2150 1088 
L 2803 1088 
L 2803 1254 
L 2150 1254 
L 2150 4147 
z
M 1798 3723 
L 1798 1254 
L 256 1254 
L 1798 3723 
z
" transform="scale(0.015625)"/>
       </defs>
       <use xlink:href="#CMSY10-0" transform="scale(0.996264)"/>
       <use xlink:href="#CMR17-34" transform="translate(77.487468 0) scale(0.996264)"/>
      </g>
     </g>
    </g>
    <g id="xtick_2">
     <g id="line2d_2">
      <g>
       <use xlink:href="#md459260043" x="222.875486" y="280.230498" style="stroke: #000000; stroke-width: 0.8"/>
      </g>
     </g>
     <g id="text_2">
      <!-- $\mathdefault{−2}$ -->
      <g transform="translate(210.557695 301.067495) scale(0.2 -0.2)">
       <defs>
        <path id="CMR17-32" d="M 2669 990 
L 2554 990 
C 2490 537 2438 460 2413 422 
C 2381 371 1920 371 1830 371 
L 602 371 
C 832 620 1280 1073 1824 1596 
C 2214 1966 2669 2400 2669 3033 
C 2669 3788 2067 4224 1395 4224 
C 691 4224 262 3603 262 3027 
C 262 2777 448 2745 525 2745 
C 589 2745 781 2783 781 3007 
C 781 3206 614 3264 525 3264 
C 486 3264 448 3257 422 3244 
C 544 3788 915 4057 1306 4057 
C 1862 4057 2227 3616 2227 3033 
C 2227 2477 1901 1998 1536 1583 
L 262 147 
L 262 0 
L 2515 0 
L 2669 990 
z
" transform="scale(0.015625)"/>
       </defs>
       <use xlink:href="#CMSY10-0" transform="scale(0.996264)"/>
       <use xlink:href="#CMR17-32" transform="translate(77.487468 0) scale(0.996264)"/>
      </g>
     </g>
    </g>
    <g id="xtick_3">
     <g id="line2d_3">
      <g>
       <use xlink:href="#md459260043" x="352.737304" y="280.230498" style="stroke: #000000; stroke-width: 0.8"/>
      </g>
     </g>
     <g id="text_3">
      <!-- $\mathdefault{0}$ -->
      <g transform="translate(348.168256 301.067495) scale(0.2 -0.2)">
       <defs>
        <path id="CMR17-30" d="M 2688 2038 
C 2688 2430 2682 3099 2413 3613 
C 2176 4063 1798 4224 1466 4224 
C 1158 4224 768 4082 525 3620 
C 269 3137 243 2539 243 2038 
C 243 1671 250 1112 448 623 
C 723 -39 1216 -128 1466 -128 
C 1760 -128 2208 -7 2470 604 
C 2662 1048 2688 1568 2688 2038 
z
M 1466 -26 
C 1056 -26 813 328 723 816 
C 653 1196 653 1749 653 2109 
C 653 2604 653 3015 736 3407 
C 858 3954 1216 4121 1466 4121 
C 1728 4121 2067 3947 2189 3420 
C 2272 3054 2278 2623 2278 2109 
C 2278 1691 2278 1176 2202 797 
C 2067 96 1690 -26 1466 -26 
z
" transform="scale(0.015625)"/>
       </defs>
       <use xlink:href="#CMR17-30" transform="scale(0.996264)"/>
      </g>
     </g>
    </g>
    <g id="text_4">
     <!-- $x_1$ -->
     <g transform="translate(230.150578 322.780126) scale(0.2 -0.2)">
      <defs>
       <path id="CMMI12-78" d="M 3034 2624 
C 2829 2585 2752 2431 2752 2310 
C 2752 2156 2874 2105 2963 2105 
C 3155 2105 3290 2271 3290 2444 
C 3290 2694 2982 2816 2714 2816 
C 2323 2816 2106 2451 2048 2329 
C 1901 2790 1504 2816 1389 2816 
C 736 2816 390 1993 390 1849 
C 390 1823 416 1790 461 1790 
C 512 1790 525 1829 538 1855 
C 755 2572 1184 2687 1370 2687 
C 1658 2687 1715 2438 1715 2284 
C 1715 2143 1677 1993 1600 1678 
L 1382 778 
C 1286 390 1101 64 762 64 
C 730 64 570 64 435 126 
C 666 166 717 358 717 435 
C 717 563 621 640 499 640 
C 346 640 179 505 179 300 
C 179 57 480 -64 755 -64 
C 1062 -64 1280 153 1414 415 
C 1517 64 1837 -64 2074 -64 
C 2726 -64 3072 751 3072 896 
C 3072 929 3046 955 3008 955 
C 2950 955 2944 922 2925 870 
C 2752 300 2381 64 2093 64 
C 1869 64 1747 204 1747 467 
C 1747 607 1773 712 1875 1146 
L 2099 2039 
C 2195 2425 2413 2687 2707 2687 
C 2720 2687 2899 2687 3034 2624 
z
" transform="scale(0.015625)"/>
       <path id="CMR17-31" d="M 1702 4083 
C 1702 4217 1696 4224 1606 4224 
C 1357 3927 979 3833 621 3820 
C 602 3820 570 3820 563 3808 
C 557 3795 557 3782 557 3648 
C 755 3648 1088 3686 1344 3839 
L 1344 467 
C 1344 243 1331 166 781 166 
L 589 166 
L 589 0 
C 896 6 1216 12 1523 12 
C 1830 12 2150 6 2458 0 
L 2458 166 
L 2266 166 
C 1715 166 1702 236 1702 467 
L 1702 4083 
z
" transform="scale(0.015625)"/>
      </defs>
      <use xlink:href="#CMMI12-78" transform="scale(0.996264)"/>
      <use xlink:href="#CMR17-31" transform="translate(55.43406 -14.943915) scale(0.697382)"/>
     </g>
    </g>
   </g>
   <g id="matplotlib.axis_2">
    <g id="ytick_1">
     <g id="line2d_4">
      <defs>
       <path id="m68bfc64411" d="M 0 0 
L -3.5 0 
" style="stroke: #000000; stroke-width: 0.8"/>
      </defs>
      <g>
       <use xlink:href="#m68bfc64411" x="60.548213" y="250.662498" style="stroke: #000000; stroke-width: 0.8"/>
      </g>
     </g>
     <g id="text_5">
      <!-- $\mathdefault{−2}$ -->
      <g transform="translate(28.91263 257.580997) scale(0.2 -0.2)">
       <use xlink:href="#CMSY10-0" transform="scale(0.996264)"/>
       <use xlink:href="#CMR17-32" transform="translate(77.487468 0) scale(0.996264)"/>
      </g>
     </g>
    </g>
    <g id="ytick_2">
     <g id="line2d_5">
      <g>
       <use xlink:href="#m68bfc64411" x="60.548213" y="191.526498" style="stroke: #000000; stroke-width: 0.8"/>
      </g>
     </g>
     <g id="text_6">
      <!-- $\mathdefault{−1}$ -->
      <g transform="translate(28.91263 198.444997) scale(0.2 -0.2)">
       <use xlink:href="#CMSY10-0" transform="scale(0.996264)"/>
       <use xlink:href="#CMR17-31" transform="translate(77.487468 0) scale(0.996264)"/>
      </g>
     </g>
    </g>
    <g id="ytick_3">
     <g id="line2d_6">
      <g>
       <use xlink:href="#m68bfc64411" x="60.548213" y="132.390498" style="stroke: #000000; stroke-width: 0.8"/>
      </g>
     </g>
     <g id="text_7">
      <!-- $\mathdefault{0}$ -->
      <g transform="translate(44.410118 139.308997) scale(0.2 -0.2)">
       <use xlink:href="#CMR17-30" transform="scale(0.996264)"/>
      </g>
     </g>
    </g>
    <g id="ytick_4">
     <g id="line2d_7">
      <g>
       <use xlink:href="#m68bfc64411" x="60.548213" y="73.254498" style="stroke: #000000; stroke-width: 0.8"/>
      </g>
     </g>
     <g id="text_8">
      <!-- $\mathdefault{1}$ -->
      <g transform="translate(44.410118 80.172997) scale(0.2 -0.2)">
       <use xlink:href="#CMR17-31" transform="scale(0.996264)"/>
      </g>
     </g>
    </g>
    <g id="ytick_5">
     <g id="line2d_8">
      <g>
       <use xlink:href="#m68bfc64411" x="60.548213" y="14.118498" style="stroke: #000000; stroke-width: 0.8"/>
      </g>
     </g>
     <g id="text_9">
      <!-- $\mathdefault{2}$ -->
      <g transform="translate(44.410118 21.036997) scale(0.2 -0.2)">
       <use xlink:href="#CMR17-32" transform="scale(0.996264)"/>
      </g>
     </g>
    </g>
    <g id="text_10">
     <!-- $x_2$ -->
     <g transform="translate(21.036997 156.132133) rotate(-90) scale(0.2 -0.2)">
      <use xlink:href="#CMMI12-78" transform="scale(0.996264)"/>
      <use xlink:href="#CMR17-32" transform="translate(55.43406 -14.943915) scale(0.697382)"/>
     </g>
    </g>
   </g>
   <g id="QuadContourSet_1">
    <path clip-path="url(#p5473b7978a)" style="fill: none; stroke: #440154"/>
    <path d="M 417.668213 166.528851 
L 414.060941 170.021727 
L 410.453668 173.053571 
L 406.846395 175.71721 
L 402.704712 178.385165 
L 397.262378 181.371832 
L 396.024577 181.983303 
L 390.64419 184.358498 
L 388.810031 185.077078 
L 382.083003 187.345165 
L 381.595486 187.491601 
L 377.988213 188.447651 
L 374.380941 189.276227 
L 368.54438 190.331832 
L 367.166395 190.539948 
L 363.559122 190.963684 
L 359.95185 191.266353 
L 356.344577 191.447955 
L 352.737304 191.508488 
L 349.130031 191.447955 
L 345.522759 191.266353 
L 341.915486 190.963684 
L 336.930228 190.331832 
L 334.700941 189.97733 
L 331.093668 189.276227 
L 327.486395 188.447651 
L 323.391606 187.345165 
L 320.27185 186.355727 
L 314.830419 184.358498 
L 313.057304 183.62273 
L 308.21223 181.371832 
L 305.842759 180.1277 
L 302.235486 178.061777 
L 298.16949 175.398498 
L 294.211495 172.411832 
L 290.755245 169.425165 
L 287.719376 166.438498 
L 284.199122 162.346664 
L 282.768903 160.465165 
L 280.59185 157.254183 
L 278.997989 154.491832 
L 276.984577 150.325685 
L 276.242046 148.518498 
L 275.222886 145.531832 
L 274.411717 142.545165 
L 273.808541 139.558498 
L 273.377304 135.996622 
L 273.232881 133.585165 
L 273.252756 130.598498 
L 273.475754 127.611832 
L 273.912537 124.625165 
L 274.557311 121.638498 
L 275.410078 118.651832 
L 276.984577 114.45581 
L 277.776417 112.678498 
L 279.325196 109.691832 
L 281.117767 106.705165 
L 284.199122 102.436105 
L 285.592237 100.731832 
L 288.302129 97.745165 
L 291.413668 94.741019 
L 295.020941 91.71111 
L 299.03222 88.785165 
L 303.79676 85.798498 
L 305.842759 84.652682 
L 309.450031 82.783886 
L 313.057304 81.163634 
L 316.664577 79.692058 
L 320.27185 78.427537 
L 325.532704 76.838498 
L 327.486395 76.326126 
L 331.093668 75.506226 
L 334.700941 74.812465 
L 341.51941 73.851832 
L 341.915486 73.805769 
L 345.522759 73.506111 
L 349.130031 73.326317 
L 352.737304 73.266386 
L 356.344577 73.326317 
L 359.95185 73.506111 
L 363.955198 73.851832 
L 367.166395 74.244842 
L 370.773668 74.812465 
L 374.380941 75.506226 
L 379.941904 76.838498 
L 381.595486 77.296124 
L 385.202759 78.427537 
L 389.153581 79.825165 
L 392.417304 81.163634 
L 396.081816 82.811832 
L 401.677848 85.798498 
L 403.239122 86.73076 
L 406.846395 89.06265 
L 410.53136 91.771832 
L 414.080531 94.758498 
L 417.668213 98.267159 
L 417.668213 98.267159 
" clip-path="url(#p5473b7978a)" style="fill: none; stroke: #481668"/>
    <path d="M 417.668213 208.726931 
L 410.453668 211.865439 
L 403.239122 214.540603 
L 396.024577 216.785777 
L 392.417304 217.759215 
L 385.202759 219.426512 
L 377.988213 220.741559 
L 370.773668 221.70848 
L 363.559122 222.353094 
L 356.344577 222.675401 
L 349.130031 222.675401 
L 341.915486 222.353094 
L 334.700941 221.70848 
L 327.486395 220.741559 
L 320.27185 219.426512 
L 313.057304 217.759215 
L 309.450031 216.785777 
L 302.235486 214.540603 
L 298.628213 213.253666 
L 293.490582 211.238498 
L 287.806395 208.726931 
L 284.199122 206.95601 
L 280.59185 205.061055 
L 275.792783 202.278498 
L 271.134104 199.291832 
L 266.908697 196.305165 
L 262.555486 192.900765 
L 258.948213 189.78612 
L 255.340941 186.355727 
L 251.733668 182.553538 
L 250.684489 181.371832 
L 248.126395 178.304318 
L 244.519122 173.400225 
L 243.844683 172.411832 
L 240.91185 167.642368 
L 240.230902 166.438498 
L 238.683508 163.451832 
L 237.278893 160.465165 
L 236.0543 157.478498 
L 234.967303 154.491832 
L 233.697304 150.325685 
L 233.220754 148.518498 
L 232.566666 145.531832 
L 232.046066 142.545165 
L 231.658953 139.558498 
L 231.405327 136.571832 
L 231.285188 133.585165 
L 231.298537 130.598498 
L 231.445373 127.611832 
L 231.725696 124.625165 
L 232.139507 121.638498 
L 232.686805 118.651832 
L 233.697304 114.45581 
L 234.196773 112.678498 
L 235.173695 109.691832 
L 237.304577 104.280823 
L 237.547806 103.718498 
L 238.98163 100.731832 
L 240.91185 97.128908 
L 242.319864 94.758498 
L 244.519122 91.369373 
L 248.126395 86.491431 
L 248.67609 85.798498 
L 251.733668 82.22032 
L 255.340941 78.427537 
L 258.948213 75.001672 
L 262.555486 71.887962 
L 266.162759 69.042024 
L 269.770031 66.42751 
L 273.377304 64.014364 
L 276.984577 61.777519 
L 282.090102 58.918498 
L 288.056817 55.931832 
L 295.020941 52.906959 
L 302.235486 50.239899 
L 305.842759 49.072419 
L 313.229079 46.971832 
L 320.27185 45.35739 
L 327.805156 43.985165 
L 334.700941 43.070643 
L 341.915486 42.430312 
L 349.130031 42.110147 
L 356.344577 42.110147 
L 363.559122 42.430312 
L 370.773668 43.070643 
L 377.988213 44.032719 
L 385.202759 45.35739 
L 392.417304 47.014701 
L 399.63185 49.072419 
L 403.239122 50.239899 
L 410.547621 52.945165 
L 417.668213 56.048443 
L 417.668213 56.048443 
" clip-path="url(#p5473b7978a)" style="fill: none; stroke: #482878"/>
    <path d="M 417.668213 234.812902 
L 414.060941 236.030114 
L 406.846395 238.235802 
L 399.63185 240.114878 
L 392.417304 241.708704 
L 385.202759 243.014527 
L 377.710731 244.091832 
L 370.773668 244.822869 
L 363.559122 245.331417 
L 356.344577 245.58569 
L 349.130031 245.58569 
L 341.915486 245.331417 
L 334.700941 244.822869 
L 327.486395 244.059186 
L 320.27185 243.014527 
L 313.057304 241.708704 
L 305.842759 240.114878 
L 298.221421 238.118498 
L 291.413668 236.030114 
L 284.199122 233.498122 
L 276.984577 230.610073 
L 273.377304 229.031791 
L 266.162759 225.537769 
L 261.752896 223.185165 
L 255.340941 219.426512 
L 251.733668 217.131188 
L 247.496297 214.225165 
L 243.454681 211.238498 
L 239.697122 208.251832 
L 236.197399 205.265165 
L 232.932422 202.278498 
L 229.881778 199.291832 
L 226.482759 195.687349 
L 222.875486 191.508488 
L 219.599414 187.345165 
L 217.456031 184.358498 
L 215.446448 181.371832 
L 211.873663 175.398498 
L 208.839614 169.425165 
L 207.515961 166.438498 
L 205.21932 160.465165 
L 204.25114 157.478498 
L 202.656369 151.505165 
L 201.492616 145.531832 
L 201.076125 142.545165 
L 200.571072 136.571832 
L 200.486896 130.598498 
L 200.823598 124.625165 
L 201.23185 121.070303 
L 202.139145 115.665165 
L 203.561509 109.691832 
L 204.839122 105.472208 
L 206.544305 100.731832 
L 208.446395 96.232908 
L 210.605702 91.771832 
L 212.205826 88.785165 
L 215.834249 82.811832 
L 219.268213 77.895107 
L 222.392774 73.851832 
L 224.911111 70.865165 
L 227.600499 67.878498 
L 230.476255 64.891832 
L 233.697304 61.777519 
L 237.304577 58.544074 
L 240.91185 55.53628 
L 244.519122 52.729155 
L 248.337172 49.958498 
L 252.783056 46.971832 
L 258.948213 43.190705 
L 262.83353 40.998498 
L 269.770031 37.444582 
L 276.984577 34.168867 
L 284.199122 31.2803 
L 291.413668 28.745791 
L 298.628213 26.549328 
L 305.842759 24.667251 
L 313.057304 23.065886 
L 320.27185 21.767102 
L 327.486395 20.728075 
L 334.700941 19.952558 
L 341.915486 19.44668 
L 349.130031 19.193741 
L 356.344577 19.193741 
L 363.559122 19.44668 
L 370.773668 19.952558 
L 377.988213 20.728075 
L 385.202759 21.767102 
L 392.478225 23.078498 
L 399.63185 24.667251 
L 406.846395 26.549328 
L 414.980007 29.051832 
L 417.668213 29.973232 
L 417.668213 29.973232 
" clip-path="url(#p5473b7978a)" style="fill: none; stroke: #443983"/>
    <path d="M 417.668213 255.48644 
L 410.453668 257.454611 
L 403.239122 259.176007 
L 396.024577 260.636155 
L 387.862318 262.011832 
L 381.595486 262.862703 
L 374.380941 263.631027 
L 367.166395 264.17983 
L 359.95185 264.509111 
L 352.737304 264.618872 
L 345.522759 264.509111 
L 338.308213 264.17983 
L 331.093668 263.631027 
L 323.879122 262.862703 
L 316.664577 261.871665 
L 309.450031 260.636155 
L 301.567282 259.025165 
L 295.020941 257.454611 
L 287.806395 255.48644 
L 280.005786 253.051832 
L 273.377304 250.716892 
L 266.162759 247.884668 
L 262.555486 246.348512 
L 255.340941 243.014527 
L 248.126395 239.30956 
L 244.519122 237.30722 
L 240.795913 235.131832 
L 233.697304 230.610073 
L 230.090031 228.125492 
L 226.482759 225.498785 
L 222.875486 222.715689 
L 219.268213 219.759972 
L 215.660941 216.613071 
L 212.053668 213.253666 
L 207.100799 208.251832 
L 204.363205 205.265165 
L 201.23185 201.60552 
L 197.073908 196.305165 
L 192.90521 190.331832 
L 189.233597 184.358498 
L 186.027001 178.385165 
L 183.195486 172.262884 
L 180.921288 166.438498 
L 178.975988 160.465165 
L 177.426984 154.491832 
L 176.246791 148.518498 
L 175.446429 142.545165 
L 175.012798 136.571832 
L 174.940526 130.598498 
L 175.229614 124.625165 
L 175.880061 118.651832 
L 176.91065 112.678498 
L 178.312129 106.705165 
L 180.092823 100.731832 
L 182.276957 94.758498 
L 183.517009 91.771832 
L 186.325123 85.798498 
L 187.896964 82.811832 
L 191.377755 76.838498 
L 195.346858 70.865165 
L 197.624577 67.735697 
L 202.294312 61.905165 
L 204.89249 58.918498 
L 208.446395 55.120893 
L 213.708824 49.958498 
L 217.007656 46.971832 
L 220.510932 43.985165 
L 226.482759 39.285567 
L 230.090031 36.656512 
L 233.697304 34.168867 
L 237.304577 31.810192 
L 244.519122 27.475961 
L 248.126395 25.468107 
L 255.340941 21.767102 
L 262.555486 18.434924 
L 269.770031 15.443275 
L 273.216981 14.118498 
L 273.216981 14.118498 
" clip-path="url(#p5473b7978a)" style="fill: none; stroke: #3e4989"/>
    <path d="M 417.668213 273.15611 
L 410.453668 274.882973 
L 403.239122 276.391894 
L 396.024577 277.684197 
L 388.810031 278.768111 
L 381.595486 279.654949 
L 374.380941 280.336438 
L 367.166395 280.819253 
L 359.95185 281.108941 
L 352.737304 281.205504 
L 345.522759 281.108941 
L 338.308213 280.819253 
L 331.093668 280.336438 
L 323.879122 279.654949 
L 316.664577 278.768111 
L 309.450031 277.684197 
L 302.235486 276.391894 
L 295.020941 274.882973 
L 287.806395 273.15611 
L 279.796374 270.971832 
L 273.377304 269.004579 
L 266.162759 266.559015 
L 258.948213 263.850548 
L 251.733668 260.860793 
L 244.519122 257.569611 
L 237.304577 253.954891 
L 233.697304 252.015107 
L 226.482759 247.853701 
L 220.503581 244.091832 
L 215.660941 240.819532 
L 211.894041 238.118498 
L 207.955414 235.131832 
L 204.227434 232.145165 
L 200.695231 229.158498 
L 197.345302 226.171832 
L 194.017304 223.037996 
L 188.303851 217.211832 
L 185.588474 214.225165 
L 183.00563 211.238498 
L 178.251276 205.265165 
L 173.977502 199.291832 
L 172.006476 196.305165 
L 168.400834 190.331832 
L 165.159122 184.264245 
L 162.410724 178.385165 
L 159.987407 172.411832 
L 157.915038 166.438498 
L 156.20836 160.465165 
L 154.829889 154.491832 
L 153.789673 148.518498 
L 153.080627 142.545165 
L 152.693875 136.571832 
L 152.629416 130.598498 
L 152.887251 124.625165 
L 153.46738 118.651832 
L 154.370398 112.678498 
L 155.617586 106.705165 
L 157.192982 100.731832 
L 159.118118 94.758498 
L 161.55185 88.406063 
L 164.046135 82.811832 
L 167.080994 76.838498 
L 170.518819 70.865165 
L 174.384032 64.891832 
L 176.480986 61.905165 
L 181.047441 55.931832 
L 183.511239 52.945165 
L 188.864057 46.971832 
L 194.017304 41.749961 
L 198.001613 38.011832 
L 201.382706 35.025165 
L 204.952114 32.038498 
L 208.724139 29.051832 
L 215.660941 23.966501 
L 221.422449 20.091832 
L 226.482759 16.922095 
L 231.274509 14.118498 
L 231.274509 14.118498 
" clip-path="url(#p5473b7978a)" style="fill: none; stroke: #375a8c"/>
    <path d="M 417.668213 288.849247 
L 410.453668 290.398527 
L 402.572213 291.878498 
L 396.024577 292.929096 
L 388.810031 293.912461 
L 380.001529 294.865165 
L 374.380941 295.33411 
L 367.166395 295.772952 
L 359.95185 296.036258 
L 352.737304 296.124026 
L 345.522759 296.036258 
L 338.308213 295.772952 
L 331.093668 295.33411 
L 323.879122 294.717032 
L 316.664577 293.912461 
L 309.450031 292.929096 
L 302.235486 291.764828 
L 295.020941 290.398527 
L 287.806395 288.849247 
L 280.59185 287.085253 
L 273.377304 285.120456 
L 266.086099 282.918498 
L 257.262982 279.931832 
L 249.328819 276.945165 
L 242.108735 273.958498 
L 235.470899 270.971832 
L 229.314051 267.985165 
L 222.875486 264.618872 
L 215.660941 260.523836 
L 208.390451 256.038498 
L 201.23185 251.199949 
L 195.591524 247.078498 
L 190.410031 243.014527 
L 184.611404 238.118498 
L 179.588213 233.533657 
L 175.119399 229.158498 
L 169.504025 223.185165 
L 165.159122 218.134357 
L 161.55185 213.611918 
L 157.606523 208.251832 
L 153.615635 202.278498 
L 150.018761 196.305165 
L 146.795343 190.331832 
L 143.933375 184.358498 
L 141.418951 178.385165 
L 139.229047 172.411832 
L 137.36516 166.438498 
L 135.810148 160.465165 
L 134.568385 154.491832 
L 133.62228 148.518498 
L 132.971833 142.545165 
L 132.618289 136.571832 
L 132.560119 130.598498 
L 132.794438 124.625165 
L 133.326622 118.651832 
L 134.154464 112.678498 
L 135.277964 106.705165 
L 136.703781 100.731832 
L 138.447417 94.758498 
L 140.501654 88.785165 
L 142.886628 82.811832 
L 145.613226 76.838498 
L 148.689085 70.865165 
L 152.133084 64.891832 
L 155.965486 58.918498 
L 160.208073 52.945165 
L 162.490791 49.958498 
L 167.405744 43.985165 
L 172.373668 38.472156 
L 175.980941 34.751162 
L 181.945571 29.051832 
L 186.802759 24.767358 
L 192.501238 20.091832 
L 197.624577 16.182685 
L 200.467957 14.118498 
L 200.467957 14.118498 
" clip-path="url(#p5473b7978a)" style="fill: none; stroke: #31688e"/>
    <path d="M 352.737304 309.798498 
L 345.522759 309.71669 
L 338.308213 309.471267 
L 331.093668 309.062227 
L 323.879122 308.489571 
L 316.664577 307.753299 
L 309.15668 306.811832 
L 302.235486 305.772259 
L 295.020941 304.523945 
L 287.806395 303.096607 
L 277.894212 300.838498 
L 273.377304 299.689068 
L 266.162759 297.703858 
L 256.94911 294.865165 
L 251.733668 293.107889 
L 244.519122 290.489614 
L 237.304577 287.642304 
L 230.090031 284.552461 
L 222.875486 281.205504 
L 215.660941 277.585659 
L 208.446395 273.669808 
L 201.23185 269.424491 
L 194.017304 264.838393 
L 186.802759 259.849921 
L 181.666906 256.038498 
L 175.980941 251.53205 
L 170.729571 247.078498 
L 165.159122 242.002514 
L 161.164291 238.118498 
L 155.460047 232.145165 
L 150.730031 226.766044 
L 147.122759 222.353094 
L 143.203095 217.211832 
L 139.02913 211.238498 
L 135.229181 205.265165 
L 131.785003 199.291832 
L 128.679519 193.318498 
L 125.479122 186.355727 
L 123.446026 181.371832 
L 121.286237 175.398498 
L 119.428176 169.425165 
L 117.853806 163.451832 
L 116.57029 157.478498 
L 115.559862 151.505165 
L 114.822523 145.531832 
L 114.362769 139.558498 
L 114.174481 133.585165 
L 114.255176 127.611832 
L 114.657304 121.070303 
L 115.232156 115.665165 
L 116.133348 109.691832 
L 117.307629 103.718498 
L 118.762602 97.745165 
L 120.509734 91.771832 
L 122.544619 85.798498 
L 124.882644 79.825165 
L 127.534731 73.851832 
L 130.505261 67.878498 
L 133.810023 61.905165 
L 137.46587 55.931832 
L 141.490806 49.958498 
L 145.904089 43.985165 
L 150.730031 38.00749 
L 156.009794 32.038498 
L 161.55185 26.274771 
L 165.159122 22.77366 
L 171.411414 17.105165 
L 174.924265 14.118498 
M 417.668213 303.096607 
L 410.453668 304.523945 
L 403.239122 305.772259 
L 396.024577 306.853412 
L 388.810031 307.753299 
L 381.595486 308.489571 
L 374.380941 309.062227 
L 367.166395 309.471267 
L 359.95185 309.71669 
L 352.737304 309.798498 
L 352.737304 309.798498 
" clip-path="url(#p5473b7978a)" style="fill: none; stroke: #2b758e"/>
    <path d="M 260.928677 309.798498 
L 255.340941 308.141887 
L 248.126395 305.834674 
L 240.91185 303.329487 
L 233.697304 300.615701 
L 226.482759 297.681916 
L 219.268213 294.515889 
L 212.053668 291.104449 
L 204.839122 287.43341 
L 197.624577 283.487471 
L 191.554618 279.931832 
L 186.725183 276.945165 
L 179.588213 272.231454 
L 173.581814 267.985165 
L 168.766395 264.371911 
L 162.088753 259.025165 
L 157.944577 255.48644 
L 151.978383 250.065165 
L 147.122759 245.331417 
L 143.037982 241.105165 
L 137.664284 235.131832 
L 132.693668 229.145079 
L 128.152916 223.185165 
L 123.969969 217.211832 
L 120.138122 211.238498 
L 116.641293 205.265165 
L 113.464369 199.291832 
L 110.593132 193.318498 
L 108.022661 187.345165 
L 105.742377 181.371832 
L 103.733181 175.398498 
L 102.008793 169.425165 
L 100.541777 163.451832 
L 99.344843 157.478498 
L 98.406076 151.505165 
L 97.721031 145.531832 
L 97.289706 139.558498 
L 97.112101 133.585165 
L 97.188218 127.611832 
L 97.518054 121.638498 
L 98.101612 115.665165 
L 98.93889 109.691832 
L 100.228213 102.793913 
L 101.391102 97.745165 
L 103.012541 91.771832 
L 104.906766 85.798498 
L 107.442759 78.893413 
L 109.533144 73.851832 
L 112.280848 67.878498 
L 115.330468 61.905165 
L 118.696045 55.931832 
L 122.392506 49.958498 
L 126.435735 43.985165 
L 130.842647 38.011832 
L 135.631275 32.038498 
L 139.908213 27.098444 
L 143.597405 23.078498 
L 149.48689 17.105165 
L 152.614913 14.118498 
L 152.614913 14.118498 
" clip-path="url(#p5473b7978a)" style="fill: none; stroke: #26828e"/>
    <path d="M 222.875486 309.798498 
L 215.660941 306.770909 
L 208.446395 303.520025 
L 201.23185 300.033862 
L 194.017304 296.299563 
L 186.065468 291.878498 
L 179.588213 288.013671 
L 171.622165 282.918498 
L 165.159122 278.472498 
L 158.997755 273.958498 
L 154.337304 270.343048 
L 147.851706 264.998498 
L 143.515486 261.19775 
L 137.960401 256.038498 
L 132.693668 250.807465 
L 129.086395 247.015981 
L 123.817857 241.105165 
L 118.879077 235.131832 
L 114.314352 229.158498 
L 110.105538 223.185165 
L 106.228076 217.211832 
L 102.667664 211.238498 
L 99.41081 205.265165 
L 96.444778 199.291832 
L 93.767937 193.318498 
L 91.364335 187.345165 
L 89.220424 181.371832 
L 87.346516 175.398498 
L 85.717089 169.425165 
L 84.34853 163.451832 
L 83.220069 157.478498 
L 82.19185 150.325685 
L 81.690176 145.531832 
L 81.287415 139.558498 
L 81.121573 133.585165 
L 81.192648 127.611832 
L 81.500642 121.638498 
L 82.19185 114.45581 
L 82.835913 109.691832 
L 83.868334 103.718498 
L 85.140854 97.745165 
L 86.665095 91.771832 
L 88.441657 85.798498 
L 90.476138 79.825165 
L 93.013668 73.266386 
L 95.344021 67.878498 
L 98.192951 61.905165 
L 101.329333 55.931832 
L 104.765756 49.958498 
L 108.515555 43.985165 
L 112.592867 38.011832 
L 117.012693 32.038498 
L 121.87185 25.968643 
L 126.968061 20.091832 
L 132.547031 14.118498 
L 132.547031 14.118498 
" clip-path="url(#p5473b7978a)" style="fill: none; stroke: #21918c"/>
    <path d="M 193.693055 309.798498 
L 186.802759 306.271584 
L 179.588213 302.334456 
L 171.900215 297.851832 
L 165.159122 293.64427 
L 157.944577 288.849247 
L 149.675261 282.918498 
L 143.515486 278.176885 
L 138.339191 273.958498 
L 132.693668 269.083313 
L 128.21588 264.998498 
L 121.87185 258.834608 
L 116.346357 253.051832 
L 111.022428 247.078498 
L 106.087067 241.105165 
L 101.499198 235.131832 
L 97.244036 229.158498 
L 93.30762 223.185165 
L 89.676761 217.211832 
L 86.338986 211.238498 
L 83.282495 205.265165 
L 80.49611 199.291832 
L 77.969238 193.318498 
L 75.701175 187.345165 
L 73.683841 181.371832 
L 71.906651 175.398498 
L 70.373128 169.425165 
L 69.074304 163.451832 
L 68.003345 157.478498 
L 67.167828 151.505165 
L 66.560334 145.531832 
L 66.177839 139.558498 
L 66.02034 133.585165 
L 66.08784 127.611832 
L 66.380336 121.638498 
L 66.897831 115.665165 
L 67.762759 108.889242 
L 68.618577 103.718498 
L 69.826255 97.745165 
L 71.370031 91.369373 
L 72.945268 85.798498 
L 74.977304 79.492396 
L 77.033954 73.851832 
L 79.453671 67.878498 
L 82.19185 61.777519 
L 85.799122 54.567043 
L 88.31024 49.958498 
L 91.823237 43.985165 
L 95.63422 38.011832 
L 99.75587 32.038498 
L 104.206941 26.065165 
L 109.00845 20.091832 
L 114.169102 14.118498 
L 114.169102 14.118498 
" clip-path="url(#p5473b7978a)" style="fill: none; stroke: #1f9e89"/>
    <path d="M 169.087835 309.798498 
L 168.766395 309.61443 
L 165.159122 307.507875 
L 163.989917 306.811832 
L 161.55185 305.335349 
L 159.104744 303.825165 
L 157.944577 303.096607 
L 154.414706 300.838498 
L 154.337304 300.788097 
L 150.730031 298.396092 
L 149.923784 297.851832 
L 147.122759 295.926547 
L 145.605449 294.865165 
L 143.515486 293.37608 
L 141.449528 291.878498 
L 139.908213 290.740102 
L 137.447832 288.891832 
L 136.300941 288.013671 
L 133.592714 285.905165 
L 132.693668 285.191455 
L 129.877024 282.918498 
L 129.086395 282.267696 
L 126.294068 279.931832 
L 125.479122 279.236164 
L 122.837576 276.945165 
L 121.87185 276.09011 
L 119.501666 273.958498 
L 118.264577 272.822207 
L 116.280816 270.971832 
L 114.657304 269.424491 
L 113.169834 267.985165 
L 111.050031 265.88829 
L 110.163837 264.998498 
L 107.442759 262.204139 
L 107.258228 262.011832 
L 104.457625 259.025165 
L 103.835486 258.345859 
L 101.752709 256.038498 
L 100.228213 254.308325 
L 99.136792 253.051832 
L 96.620941 250.08288 
L 96.606139 250.065165 
L 94.173215 247.078498 
L 93.013668 245.617475 
L 91.819536 244.091832 
L 89.543531 241.105165 
L 89.406395 240.920197 
L 87.357467 238.118498 
L 85.799122 235.926565 
L 85.241695 235.131832 
L 83.206864 232.145165 
L 82.19185 230.610073 
L 81.24477 229.158498 
L 79.35535 226.171832 
L 78.584577 224.914017 
L 77.539008 223.185165 
L 75.791196 220.198498 
L 74.977304 218.759593 
L 74.113136 217.211832 
L 72.503279 214.225165 
L 71.370031 212.044565 
L 70.956459 211.238498 
L 69.481041 208.251832 
L 68.062589 205.265165 
L 67.762759 204.607432 
L 66.714458 202.278498 
L 65.426347 199.291832 
L 64.194486 196.305165 
L 64.155486 196.206086 
L 63.032993 193.318498 
L 61.927535 190.331832 
L 60.877628 187.345165 
L 60.548213 186.355727 
M 60.548213 78.427537 
L 61.083166 76.838498 
L 62.144183 73.851832 
L 63.26075 70.865165 
L 64.155486 68.585296 
L 64.436358 67.878498 
L 65.679469 64.891832 
L 66.97883 61.905165 
L 67.762759 60.178021 
L 68.341722 58.918498 
L 69.771567 55.931832 
L 71.258378 52.945165 
L 71.370031 52.729155 
L 72.820634 49.958498 
L 74.442031 46.971832 
L 74.977304 46.019725 
L 76.136082 43.985165 
L 77.895584 40.998498 
L 78.584577 39.866574 
L 79.728496 38.011832 
L 81.629762 35.025165 
L 82.19185 34.168867 
L 83.609028 32.038498 
L 85.655864 29.051832 
L 85.799122 28.84875 
L 87.78944 26.065165 
L 89.406395 23.866394 
L 89.993798 23.078498 
L 92.282139 20.091832 
L 93.013668 19.162124 
L 94.654797 17.105165 
L 96.620941 14.703865 
L 97.107027 14.118498 
" clip-path="url(#p5473b7978a)" style="fill: none; stroke: #25ab82"/>
    <path d="M 147.410064 309.798498 
L 147.122759 309.61443 
L 143.515486 307.262452 
L 142.836176 306.811832 
L 139.908213 304.836024 
L 138.435392 303.825165 
L 136.300941 302.334456 
L 134.194378 300.838498 
L 132.693668 299.753717 
L 130.105341 297.851832 
L 129.086395 297.089479 
L 126.160986 294.865165 
L 125.479122 294.337096 
L 122.354478 291.878498 
L 121.87185 291.491568 
L 118.679405 288.891832 
L 118.264577 288.547511 
L 115.129747 285.905165 
L 114.657304 285.499119 
L 111.699847 282.918498 
L 111.050031 282.340119 
L 108.384382 279.931832 
L 107.442759 279.063724 
L 105.178339 276.945165 
L 103.835486 275.662582 
L 102.076997 273.958498 
L 100.228213 272.128714 
L 99.075899 270.971832 
L 96.620941 268.453445 
L 96.170839 267.985165 
L 93.362658 264.998498 
L 93.013668 264.618872 
L 90.650077 262.011832 
L 89.406395 260.608075 
L 88.02307 259.025165 
L 85.799122 256.419613 
L 85.478191 256.038498 
L 83.023189 253.051832 
L 82.19185 252.015107 
L 80.648922 250.065165 
L 78.584577 247.389194 
L 78.348028 247.078498 
L 76.132575 244.091832 
L 74.977304 242.492198 
L 73.988502 241.105165 
L 71.917037 238.118498 
L 71.370031 237.30722 
L 69.921957 235.131832 
L 67.990812 232.145165 
L 67.762759 231.781742 
L 66.137339 229.158498 
L 64.342984 226.171832 
L 64.155486 225.849645 
L 62.62414 223.185165 
L 60.963176 220.198498 
L 60.548213 219.426512 
M 60.548213 45.35739 
L 61.290925 43.985165 
L 62.962999 40.998498 
L 64.155486 38.936962 
L 64.697355 38.011832 
L 66.50296 35.025165 
L 67.762759 33.004278 
L 68.372484 32.038498 
L 70.315022 29.051832 
L 71.370031 27.475961 
L 72.326714 26.065165 
L 74.409719 23.078498 
L 74.977304 22.286616 
L 76.570989 20.091832 
L 78.584577 17.391551 
L 78.800962 17.105165 
L 81.116835 14.118498 
" clip-path="url(#p5473b7978a)" style="fill: none; stroke: #35b779"/>
    <path d="M 127.816635 309.798498 
L 125.479122 308.141887 
L 123.631941 306.811832 
L 121.87185 305.522596 
L 119.59041 303.825165 
L 118.264577 302.821386 
L 115.685483 300.838498 
L 114.657304 300.033862 
L 111.910998 297.851832 
L 111.050031 297.155306 
L 108.261158 294.865165 
L 107.442759 294.180651 
L 104.730504 291.878498 
L 103.835486 291.104449 
L 101.313891 288.891832 
L 100.228213 287.920829 
L 98.006466 285.905165 
L 96.620941 284.623461 
L 94.803649 282.918498 
L 93.013668 281.205504 
L 91.70111 279.931832 
L 89.406395 277.659563 
L 88.694756 276.945165 
L 85.799122 273.97762 
L 85.780715 273.958498 
L 82.965565 270.971832 
L 82.19185 270.133092 
L 80.236684 267.985165 
L 78.584577 266.129751 
L 77.590448 264.998498 
L 75.024263 262.011832 
L 74.977304 261.955904 
L 72.548285 259.025165 
L 71.370031 257.569611 
L 70.146403 256.038498 
L 67.816497 253.051832 
L 67.762759 252.98122 
L 65.57147 250.065165 
L 64.155486 248.132405 
L 63.392961 247.078498 
L 61.287592 244.091832 
L 60.548213 243.014527 
M 60.548213 21.767102 
L 61.704222 20.091832 
L 63.820701 17.105165 
L 64.155486 16.644816 
L 66.01584 14.118498 
" clip-path="url(#p5473b7978a)" style="fill: none; stroke: #4ec36b"/>
    <path d="M 109.794166 309.798498 
L 107.442759 307.998723 
L 105.914722 306.811832 
L 103.835486 305.168907 
L 102.159356 303.825165 
L 100.228213 302.249773 
L 98.522788 300.838498 
L 96.620941 299.236527 
L 95.000034 297.851832 
L 93.013668 296.124026 
L 91.586384 294.865165 
L 89.406395 292.906747 
L 88.277386 291.878498 
L 85.799122 289.578746 
L 85.068824 288.891832 
L 82.19185 286.133625 
L 81.956709 285.905165 
L 78.941928 282.918498 
L 78.584577 282.557385 
L 76.02034 279.931832 
L 74.977304 278.842014 
L 73.185304 276.945165 
L 71.370031 274.983567 
L 70.433511 273.958498 
L 67.762759 270.972893 
L 67.761821 270.971832 
L 65.179975 267.985165 
L 64.155486 266.773647 
L 62.673025 264.998498 
L 60.548213 262.39622 
" clip-path="url(#p5473b7978a)" style="fill: none; stroke: #6ece58"/>
    <path d="M 93.013668 309.798498 
L 89.406395 306.83296 
L 89.381045 306.811832 
L 85.858341 303.825165 
L 85.799122 303.774075 
L 82.442152 300.838498 
L 82.19185 300.615701 
L 79.127909 297.851832 
L 78.584577 297.352785 
L 75.911614 294.865165 
L 74.977304 293.979508 
L 72.789475 291.878498 
L 71.370031 290.489614 
L 69.757896 288.891832 
L 67.762759 286.876359 
L 66.813457 285.905165 
L 64.155486 283.132474 
L 63.952911 282.918498 
L 61.180935 279.931832 
L 60.548213 279.236164 
" clip-path="url(#p5473b7978a)" style="fill: none; stroke: #90d743"/>
    <path d="M 77.264268 309.798498 
L 74.977304 307.814655 
L 73.836171 306.811832 
L 71.370031 304.607166 
L 70.506428 303.825165 
L 67.762759 301.297084 
L 67.271327 300.838498 
L 64.155486 297.878902 
L 64.12734 297.851832 
L 61.077611 294.865165 
L 60.548213 294.337096 
" clip-path="url(#p5473b7978a)" style="fill: none; stroke: #b5de2b"/>
    <path d="M 62.363052 309.798498 
L 60.548213 308.141887 
" clip-path="url(#p5473b7978a)" style="fill: none; stroke: #dae319"/>
    <path clip-path="url(#p5473b7978a)" style="fill: none; stroke: #fde725"/>
   </g>
   <g id="line2d_9">
    <path d="M 93.013668 250.662498 
L 151.276998 204.64739 
L 192.233414 174.944302 
L 222.286979 153.851992 
L 245.084844 136.010552 
L 262.882251 99.383698 
L 277.804152 110.828117 
L 289.630188 119.975222 
L 299.213675 128.386904 
L 307.14801 141.037561 
L 313.954062 134.006333 
L 319.758944 117.054145 
L 325.126177 122.24161 
L 329.775187 127.169272 
L 333.919865 133.09314 
L 337.766479 112.494603 
L 342.336579 117.321623 
L 346.898294 121.543089 
L 352.447102 125.518261 
L 392.328543 129.826885 
L 386.413577 142.436324 
L 381.127241 137.016134 
L 376.511955 130.067246 
L 372.337801 139.913349 
L 368.355837 135.121013 
L 364.590062 127.303358 
L 360.695495 132.50142 
L 356.340427 66.481573 
L 325.073244 81.225167 
L 333.130739 92.49556 
L 339.756487 101.019656 
" clip-path="url(#p5473b7978a)" style="fill: none; stroke: #0000ff; stroke-linecap: square"/>
    <defs>
     <path id="mf359fa2d6b" d="M 0 1.5 
C 0.397805 1.5 0.77937 1.341951 1.06066 1.06066 
C 1.341951 0.77937 1.5 0.397805 1.5 0 
C 1.5 -0.397805 1.341951 -0.77937 1.06066 -1.06066 
C 0.77937 -1.341951 0.397805 -1.5 0 -1.5 
C -0.397805 -1.5 -0.77937 -1.341951 -1.06066 -1.06066 
C -1.341951 -0.77937 -1.5 -0.397805 -1.5 0 
C -1.5 0.397805 -1.341951 0.77937 -1.06066 1.06066 
C -0.77937 1.341951 -0.397805 1.5 0 1.5 
z
" style="stroke: #0000ff"/>
    </defs>
    <g clip-path="url(#p5473b7978a)">
     <use xlink:href="#mf359fa2d6b" x="93.013668" y="250.662498" style="fill: #0000ff; stroke: #0000ff"/>
     <use xlink:href="#mf359fa2d6b" x="151.276998" y="204.64739" style="fill: #0000ff; stroke: #0000ff"/>
     <use xlink:href="#mf359fa2d6b" x="192.233414" y="174.944302" style="fill: #0000ff; stroke: #0000ff"/>
     <use xlink:href="#mf359fa2d6b" x="222.286979" y="153.851992" style="fill: #0000ff; stroke: #0000ff"/>
     <use xlink:href="#mf359fa2d6b" x="245.084844" y="136.010552" style="fill: #0000ff; stroke: #0000ff"/>
     <use xlink:href="#mf359fa2d6b" x="262.882251" y="99.383698" style="fill: #0000ff; stroke: #0000ff"/>
     <use xlink:href="#mf359fa2d6b" x="277.804152" y="110.828117" style="fill: #0000ff; stroke: #0000ff"/>
     <use xlink:href="#mf359fa2d6b" x="289.630188" y="119.975222" style="fill: #0000ff; stroke: #0000ff"/>
     <use xlink:href="#mf359fa2d6b" x="299.213675" y="128.386904" style="fill: #0000ff; stroke: #0000ff"/>
     <use xlink:href="#mf359fa2d6b" x="307.14801" y="141.037561" style="fill: #0000ff; stroke: #0000ff"/>
     <use xlink:href="#mf359fa2d6b" x="313.954062" y="134.006333" style="fill: #0000ff; stroke: #0000ff"/>
     <use xlink:href="#mf359fa2d6b" x="319.758944" y="117.054145" style="fill: #0000ff; stroke: #0000ff"/>
     <use xlink:href="#mf359fa2d6b" x="325.126177" y="122.24161" style="fill: #0000ff; stroke: #0000ff"/>
     <use xlink:href="#mf359fa2d6b" x="329.775187" y="127.169272" style="fill: #0000ff; stroke: #0000ff"/>
     <use xlink:href="#mf359fa2d6b" x="333.919865" y="133.09314" style="fill: #0000ff; stroke: #0000ff"/>
     <use xlink:href="#mf359fa2d6b" x="337.766479" y="112.494603" style="fill: #0000ff; stroke: #0000ff"/>
     <use xlink:href="#mf359fa2d6b" x="342.336579" y="117.321623" style="fill: #0000ff; stroke: #0000ff"/>
     <use xlink:href="#mf359fa2d6b" x="346.898294" y="121.543089" style="fill: #0000ff; stroke: #0000ff"/>
     <use xlink:href="#mf359fa2d6b" x="352.447102" y="125.518261" style="fill: #0000ff; stroke: #0000ff"/>
     <use xlink:href="#mf359fa2d6b" x="392.328543" y="129.826885" style="fill: #0000ff; stroke: #0000ff"/>
     <use xlink:href="#mf359fa2d6b" x="386.413577" y="142.436324" style="fill: #0000ff; stroke: #0000ff"/>
     <use xlink:href="#mf359fa2d6b" x="381.127241" y="137.016134" style="fill: #0000ff; stroke: #0000ff"/>
     <use xlink:href="#mf359fa2d6b" x="376.511955" y="130.067246" style="fill: #0000ff; stroke: #0000ff"/>
     <use xlink:href="#mf359fa2d6b" x="372.337801" y="139.913349" style="fill: #0000ff; stroke: #0000ff"/>
     <use xlink:href="#mf359fa2d6b" x="368.355837" y="135.121013" style="fill: #0000ff; stroke: #0000ff"/>
     <use xlink:href="#mf359fa2d6b" x="364.590062" y="127.303358" style="fill: #0000ff; stroke: #0000ff"/>
     <use xlink:href="#mf359fa2d6b" x="360.695495" y="132.50142" style="fill: #0000ff; stroke: #0000ff"/>
     <use xlink:href="#mf359fa2d6b" x="356.340427" y="66.481573" style="fill: #0000ff; stroke: #0000ff"/>
     <use xlink:href="#mf359fa2d6b" x="325.073244" y="81.225167" style="fill: #0000ff; stroke: #0000ff"/>
     <use xlink:href="#mf359fa2d6b" x="333.130739" y="92.49556" style="fill: #0000ff; stroke: #0000ff"/>
     <use xlink:href="#mf359fa2d6b" x="339.756487" y="101.019656" style="fill: #0000ff; stroke: #0000ff"/>
    </g>
   </g>
   <g id="line2d_10">
    <path d="M 93.013668 250.662498 
L 151.276998 204.64739 
L 190.955615 183.203923 
L 220.375356 171.266317 
L 242.932434 163.551272 
L 260.591589 158.034823 
L 274.639242 153.849921 
L 285.964227 150.564819 
L 295.200506 147.930345 
L 302.810756 145.785694 
L 309.138909 144.01929 
L 314.444644 142.550166 
L 318.926705 141.317865 
L 322.739057 140.276336 
L 326.002284 139.38997 
L 328.811767 138.630893 
L 331.243644 137.977052 
L 333.3592 137.410837 
L 335.208153 136.918065 
L 336.831121 136.487224 
L 338.261519 136.108904 
L 339.527 135.775357 
L 340.650589 135.480172 
L 341.651561 135.218005 
L 342.546132 134.984381 
L 343.348018 134.775535 
L 344.068865 134.588279 
L 344.718612 134.419906 
L 345.30577 134.268106 
L 345.837662 134.130898 
L 346.320604 134.00658 
" clip-path="url(#p5473b7978a)" style="fill: none; stroke: #ff0000; stroke-linecap: square"/>
    <defs>
     <path id="m8e96e88d08" d="M 0 1.5 
C 0.397805 1.5 0.77937 1.341951 1.06066 1.06066 
C 1.341951 0.77937 1.5 0.397805 1.5 0 
C 1.5 -0.397805 1.341951 -0.77937 1.06066 -1.06066 
C 0.77937 -1.341951 0.397805 -1.5 0 -1.5 
C -0.397805 -1.5 -0.77937 -1.341951 -1.06066 -1.06066 
C -1.341951 -0.77937 -1.5 -0.397805 -1.5 0 
C -1.5 0.397805 -1.341951 0.77937 -1.06066 1.06066 
C -0.77937 1.341951 -0.397805 1.5 0 1.5 
z
" style="stroke: #ff0000"/>
    </defs>
    <g clip-path="url(#p5473b7978a)">
     <use xlink:href="#m8e96e88d08" x="93.013668" y="250.662498" style="fill: #ff0000; stroke: #ff0000"/>
     <use xlink:href="#m8e96e88d08" x="151.276998" y="204.64739" style="fill: #ff0000; stroke: #ff0000"/>
     <use xlink:href="#m8e96e88d08" x="190.955615" y="183.203923" style="fill: #ff0000; stroke: #ff0000"/>
     <use xlink:href="#m8e96e88d08" x="220.375356" y="171.266317" style="fill: #ff0000; stroke: #ff0000"/>
     <use xlink:href="#m8e96e88d08" x="242.932434" y="163.551272" style="fill: #ff0000; stroke: #ff0000"/>
     <use xlink:href="#m8e96e88d08" x="260.591589" y="158.034823" style="fill: #ff0000; stroke: #ff0000"/>
     <use xlink:href="#m8e96e88d08" x="274.639242" y="153.849921" style="fill: #ff0000; stroke: #ff0000"/>
     <use xlink:href="#m8e96e88d08" x="285.964227" y="150.564819" style="fill: #ff0000; stroke: #ff0000"/>
     <use xlink:href="#m8e96e88d08" x="295.200506" y="147.930345" style="fill: #ff0000; stroke: #ff0000"/>
     <use xlink:href="#m8e96e88d08" x="302.810756" y="145.785694" style="fill: #ff0000; stroke: #ff0000"/>
     <use xlink:href="#m8e96e88d08" x="309.138909" y="144.01929" style="fill: #ff0000; stroke: #ff0000"/>
     <use xlink:href="#m8e96e88d08" x="314.444644" y="142.550166" style="fill: #ff0000; stroke: #ff0000"/>
     <use xlink:href="#m8e96e88d08" x="318.926705" y="141.317865" style="fill: #ff0000; stroke: #ff0000"/>
     <use xlink:href="#m8e96e88d08" x="322.739057" y="140.276336" style="fill: #ff0000; stroke: #ff0000"/>
     <use xlink:href="#m8e96e88d08" x="326.002284" y="139.38997" style="fill: #ff0000; stroke: #ff0000"/>
     <use xlink:href="#m8e96e88d08" x="328.811767" y="138.630893" style="fill: #ff0000; stroke: #ff0000"/>
     <use xlink:href="#m8e96e88d08" x="331.243644" y="137.977052" style="fill: #ff0000; stroke: #ff0000"/>
     <use xlink:href="#m8e96e88d08" x="333.3592" y="137.410837" style="fill: #ff0000; stroke: #ff0000"/>
     <use xlink:href="#m8e96e88d08" x="335.208153" y="136.918065" style="fill: #ff0000; stroke: #ff0000"/>
     <use xlink:href="#m8e96e88d08" x="336.831121" y="136.487224" style="fill: #ff0000; stroke: #ff0000"/>
     <use xlink:href="#m8e96e88d08" x="338.261519" y="136.108904" style="fill: #ff0000; stroke: #ff0000"/>
     <use xlink:href="#m8e96e88d08" x="339.527" y="135.775357" style="fill: #ff0000; stroke: #ff0000"/>
     <use xlink:href="#m8e96e88d08" x="340.650589" y="135.480172" style="fill: #ff0000; stroke: #ff0000"/>
     <use xlink:href="#m8e96e88d08" x="341.651561" y="135.218005" style="fill: #ff0000; stroke: #ff0000"/>
     <use xlink:href="#m8e96e88d08" x="342.546132" y="134.984381" style="fill: #ff0000; stroke: #ff0000"/>
     <use xlink:href="#m8e96e88d08" x="343.348018" y="134.775535" style="fill: #ff0000; stroke: #ff0000"/>
     <use xlink:href="#m8e96e88d08" x="344.068865" y="134.588279" style="fill: #ff0000; stroke: #ff0000"/>
     <use xlink:href="#m8e96e88d08" x="344.718612" y="134.419906" style="fill: #ff0000; stroke: #ff0000"/>
     <use xlink:href="#m8e96e88d08" x="345.30577" y="134.268106" style="fill: #ff0000; stroke: #ff0000"/>
     <use xlink:href="#m8e96e88d08" x="345.837662" y="134.130898" style="fill: #ff0000; stroke: #ff0000"/>
     <use xlink:href="#m8e96e88d08" x="346.320604" y="134.00658" style="fill: #ff0000; stroke: #ff0000"/>
    </g>
   </g>
   <g id="patch_4">
    <path d="M 60.548213 280.230498 
L 60.548213 14.118498 
" style="fill: none; stroke: #000000; stroke-width: 0.8; stroke-linejoin: miter; stroke-linecap: square"/>
   </g>
   <g id="patch_5">
    <path d="M 417.668213 280.230498 
L 417.668213 14.118498 
" style="fill: none; stroke: #000000; stroke-width: 0.8; stroke-linejoin: miter; stroke-linecap: square"/>
   </g>
   <g id="patch_6">
    <path d="M 60.548213 280.230498 
L 417.668213 280.230498 
" style="fill: none; stroke: #000000; stroke-width: 0.8; stroke-linejoin: miter; stroke-linecap: square"/>
   </g>
   <g id="patch_7">
    <path d="M 60.548213 14.118498 
L 417.668213 14.118498 
" style="fill: none; stroke: #000000; stroke-width: 0.8; stroke-linejoin: miter; stroke-linecap: square"/>
   </g>
   <g id="legend_1">
    <g id="patch_8">
     <path d="M 73.148213 78.694627 
L 191.111557 78.694627 
Q 194.711557 78.694627 194.711557 75.094627 
L 194.711557 26.718498 
Q 194.711557 23.118498 191.111557 23.118498 
L 73.148213 23.118498 
Q 69.548213 23.118498 69.548213 26.718498 
L 69.548213 75.094627 
Q 69.548213 78.694627 73.148213 78.694627 
z
" style="fill: #ffffff; opacity: 0.8; stroke: #cccccc; stroke-linejoin: miter"/>
    </g>
    <g id="line2d_11">
     <path d="M 76.748213 36.618498 
L 94.748213 36.618498 
L 112.748213 36.618498 
" style="fill: none; stroke: #0000ff; stroke-linecap: square"/>
     <g>
      <use xlink:href="#mf359fa2d6b" x="94.748213" y="36.618498" style="fill: #0000ff; stroke: #0000ff"/>
     </g>
    </g>
    <g id="text_11">
     <!-- FGD -->
     <g transform="translate(127.148213 42.918498) scale(0.18 -0.18)">
      <defs>
       <path id="CMSS17-46" d="M 2918 1984 
L 2918 2374 
L 1101 2374 
L 1101 3993 
L 1882 3993 
C 1958 3993 2035 3987 2112 3987 
L 3168 3987 
L 3168 4403 
L 563 4403 
L 563 0 
L 1101 0 
L 1101 1984 
L 2918 1984 
z
" transform="scale(0.015625)"/>
       <path id="CMSS17-47" d="M 3610 1868 
L 2336 1868 
L 2336 1472 
L 3123 1472 
L 3123 473 
C 2874 403 2618 352 2362 352 
C 1466 352 934 1311 934 2220 
C 934 3123 1491 4070 2362 4070 
C 2854 4070 3130 3916 3469 3660 
L 3552 4172 
C 3130 4390 2867 4480 2387 4480 
C 1146 4480 397 3353 397 2201 
C 397 1100 1152 -64 2349 -64 
C 2797 -64 3213 51 3610 249 
L 3610 1868 
z
" transform="scale(0.015625)"/>
       <path id="CMSS17-44" d="M 570 4416 
L 570 0 
L 2144 0 
C 3194 0 4000 981 4000 2169 
C 4000 3396 3194 4416 2144 4416 
L 570 4416 
z
M 1094 358 
L 1094 4057 
L 2003 4057 
C 2861 4057 3475 3275 3475 2169 
C 3475 1108 2867 358 2003 358 
L 1094 358 
z
" transform="scale(0.015625)"/>
      </defs>
      <use xlink:href="#CMSS17-46" transform="scale(0.996264)"/>
      <use xlink:href="#CMSS17-47" transform="translate(50.687105 0) scale(0.996264)"/>
      <use xlink:href="#CMSS17-44" transform="translate(113.145331 0) scale(0.996264)"/>
     </g>
    </g>
    <g id="line2d_12">
     <path d="M 76.748213 61.706563 
L 94.748213 61.706563 
L 112.748213 61.706563 
" style="fill: none; stroke: #ff0000; stroke-linecap: square"/>
     <g>
      <use xlink:href="#m8e96e88d08" x="94.748213" y="61.706563" style="fill: #ff0000; stroke: #ff0000"/>
     </g>
    </g>
    <g id="text_12">
     <!-- FGD-ED -->
     <g transform="translate(127.148213 68.006563) scale(0.18 -0.18)">
      <defs>
       <path id="CMSS17-2d" d="M 1664 1216 
L 1664 1587 
L 64 1587 
L 64 1216 
L 1664 1216 
z
" transform="scale(0.015625)"/>
       <path id="CMSS17-45" d="M 1958 435 
C 1446 435 1216 435 1101 428 
L 1101 2105 
L 3085 2105 
L 3085 2496 
L 1101 2496 
L 1101 3993 
L 1926 3993 
C 2003 3993 2080 3987 2157 3987 
L 3251 3987 
L 3251 4403 
L 563 4403 
L 563 0 
L 3334 0 
L 3334 441 
L 1958 435 
z
" transform="scale(0.015625)"/>
      </defs>
      <use xlink:href="#CMSS17-46" transform="scale(0.996264)"/>
      <use xlink:href="#CMSS17-47" transform="translate(50.687105 0) scale(0.996264)"/>
      <use xlink:href="#CMSS17-44" transform="translate(113.145331 0) scale(0.996264)"/>
      <use xlink:href="#CMSS17-2d" transform="translate(180.688173 0) scale(0.996264)"/>
      <use xlink:href="#CMSS17-45" transform="translate(211.917285 0) scale(0.996264)"/>
      <use xlink:href="#CMSS17-44" transform="translate(267.809299 0) scale(0.996264)"/>
     </g>
    </g>
   </g>
  </g>
 </g>
 <defs>
  <clipPath id="p5473b7978a">
   <rect x="60.548213" y="14.118498" width="357.12" height="266.112"/>
  </clipPath>
 </defs>
</svg>
