<?xml version="1.0" encoding="utf-8" standalone="no"?>
<!DOCTYPE svg PUBLIC "-//W3C//DTD SVG 1.1//EN"
  "http://www.w3.org/Graphics/SVG/1.1/DTD/svg11.dtd">
<svg xmlns:xlink="http://www.w3.org/1999/xlink" width="221.857759pt" height="185.170603pt" viewBox="0 0 221.857759 185.170603" xmlns="http://www.w3.org/2000/svg" version="1.1">
 <metadata>
  <rdf:RDF xmlns:dc="http://purl.org/dc/elements/1.1/" xmlns:cc="http://creativecommons.org/ns#" xmlns:rdf="http://www.w3.org/1999/02/22-rdf-syntax-ns#">
   <cc:Work>
    <dc:type rdf:resource="http://purl.org/dc/dcmitype/StillImage"/>
    <dc:date>2025-06-05T18:32:53.411859</dc:date>
    <dc:format>image/svg+xml</dc:format>
    <dc:creator>
     <cc:Agent>
      <dc:title>Matplotlib v3.9.2, https://matplotlib.org/</dc:title>
     </cc:Agent>
    </dc:creator>
   </cc:Work>
  </rdf:RDF>
 </metadata>
 <defs>
  <style type="text/css">*{stroke-linejoin: round; stroke-linecap: butt}</style>
 </defs>
 <g id="figure_1">
  <g id="patch_1">
   <path d="M 0 185.170603 
L 221.857759 185.170603 
L 221.857759 -0 
L 0 -0 
z
" style="fill: #ffffff"/>
  </g>
  <g id="axes_1">
   <g id="patch_2">
    <path d="M 39.785756 149.259249 
L 207.185756 149.259249 
L 207.185756 10.659249 
L 39.785756 10.659249 
z
" style="fill: #ffffff"/>
   </g>
   <g id="matplotlib.axis_1">
    <g id="xtick_1">
     <g id="line2d_1">
      <defs>
       <path id="me3eb9b2599" d="M 0 0 
L 0 3.5 
" style="stroke: #000000; stroke-width: 0.8"/>
      </defs>
      <g>
       <use xlink:href="#me3eb9b2599" x="39.785756" y="149.259249" style="stroke: #000000; stroke-width: 0.8"/>
      </g>
     </g>
     <g id="text_1">
      <!-- $\mathdefault{0}$ -->
      <g transform="translate(37.295088 163.177748) scale(0.1 -0.1)">
       <defs>
        <path id="CMR17-30" d="M 2688 2038 
C 2688 2430 2682 3099 2413 3613 
C 2176 4063 1798 4224 1466 4224 
C 1158 4224 768 4082 525 3620 
C 269 3137 243 2539 243 2038 
C 243 1671 250 1112 448 623 
C 723 -39 1216 -128 1466 -128 
C 1760 -128 2208 -7 2470 604 
C 2662 1048 2688 1568 2688 2038 
z
M 1466 -26 
C 1056 -26 813 328 723 816 
C 653 1196 653 1749 653 2109 
C 653 2604 653 3015 736 3407 
C 858 3954 1216 4121 1466 4121 
C 1728 4121 2067 3947 2189 3420 
C 2272 3054 2278 2623 2278 2109 
C 2278 1691 2278 1176 2202 797 
C 2067 96 1690 -26 1466 -26 
z
" transform="scale(0.015625)"/>
       </defs>
       <use xlink:href="#CMR17-30" transform="scale(0.996264)"/>
      </g>
     </g>
    </g>
    <g id="xtick_2">
     <g id="line2d_2">
      <g>
       <use xlink:href="#me3eb9b2599" x="73.265756" y="149.259249" style="stroke: #000000; stroke-width: 0.8"/>
      </g>
     </g>
     <g id="text_2">
      <!-- $\mathdefault{100}$ -->
      <g transform="translate(65.793753 163.177748) scale(0.1 -0.1)">
       <defs>
        <path id="CMR17-31" d="M 1702 4083 
C 1702 4217 1696 4224 1606 4224 
C 1357 3927 979 3833 621 3820 
C 602 3820 570 3820 563 3808 
C 557 3795 557 3782 557 3648 
C 755 3648 1088 3686 1344 3839 
L 1344 467 
C 1344 243 1331 166 781 166 
L 589 166 
L 589 0 
C 896 6 1216 12 1523 12 
C 1830 12 2150 6 2458 0 
L 2458 166 
L 2266 166 
C 1715 166 1702 236 1702 467 
L 1702 4083 
z
" transform="scale(0.015625)"/>
       </defs>
       <use xlink:href="#CMR17-31" transform="scale(0.996264)"/>
       <use xlink:href="#CMR17-30" transform="translate(45.690477 0) scale(0.996264)"/>
       <use xlink:href="#CMR17-30" transform="translate(91.380954 0) scale(0.996264)"/>
      </g>
     </g>
    </g>
    <g id="xtick_3">
     <g id="line2d_3">
      <g>
       <use xlink:href="#me3eb9b2599" x="106.745756" y="149.259249" style="stroke: #000000; stroke-width: 0.8"/>
      </g>
     </g>
     <g id="text_3">
      <!-- $\mathdefault{200}$ -->
      <g transform="translate(99.273753 163.177748) scale(0.1 -0.1)">
       <defs>
        <path id="CMR17-32" d="M 2669 990 
L 2554 990 
C 2490 537 2438 460 2413 422 
C 2381 371 1920 371 1830 371 
L 602 371 
C 832 620 1280 1073 1824 1596 
C 2214 1966 2669 2400 2669 3033 
C 2669 3788 2067 4224 1395 4224 
C 691 4224 262 3603 262 3027 
C 262 2777 448 2745 525 2745 
C 589 2745 781 2783 781 3007 
C 781 3206 614 3264 525 3264 
C 486 3264 448 3257 422 3244 
C 544 3788 915 4057 1306 4057 
C 1862 4057 2227 3616 2227 3033 
C 2227 2477 1901 1998 1536 1583 
L 262 147 
L 262 0 
L 2515 0 
L 2669 990 
z
" transform="scale(0.015625)"/>
       </defs>
       <use xlink:href="#CMR17-32" transform="scale(0.996264)"/>
       <use xlink:href="#CMR17-30" transform="translate(45.690477 0) scale(0.996264)"/>
       <use xlink:href="#CMR17-30" transform="translate(91.380954 0) scale(0.996264)"/>
      </g>
     </g>
    </g>
    <g id="xtick_4">
     <g id="line2d_4">
      <g>
       <use xlink:href="#me3eb9b2599" x="140.225756" y="149.259249" style="stroke: #000000; stroke-width: 0.8"/>
      </g>
     </g>
     <g id="text_4">
      <!-- $\mathdefault{300}$ -->
      <g transform="translate(132.753753 163.177748) scale(0.1 -0.1)">
       <defs>
        <path id="CMR17-33" d="M 1414 2176 
C 1984 2176 2234 1673 2234 1094 
C 2234 322 1824 25 1453 25 
C 1114 25 563 193 390 691 
C 422 678 454 678 486 678 
C 640 678 755 780 755 947 
C 755 1132 614 1216 486 1216 
C 378 1216 211 1164 211 927 
C 211 335 787 -128 1466 -128 
C 2176 -128 2720 432 2720 1087 
C 2720 1718 2208 2176 1600 2246 
C 2086 2347 2554 2776 2554 3353 
C 2554 3856 2048 4224 1472 4224 
C 890 4224 378 3862 378 3347 
C 378 3123 544 3084 627 3084 
C 762 3084 877 3167 877 3334 
C 877 3500 762 3584 627 3584 
C 602 3584 570 3584 544 3571 
C 730 3999 1235 4076 1459 4076 
C 1683 4076 2106 3966 2106 3347 
C 2106 3167 2080 2851 1862 2574 
C 1670 2329 1453 2316 1242 2297 
C 1210 2297 1062 2284 1037 2284 
C 992 2278 966 2272 966 2227 
C 966 2182 973 2176 1101 2176 
L 1414 2176 
z
" transform="scale(0.015625)"/>
       </defs>
       <use xlink:href="#CMR17-33" transform="scale(0.996264)"/>
       <use xlink:href="#CMR17-30" transform="translate(45.690477 0) scale(0.996264)"/>
       <use xlink:href="#CMR17-30" transform="translate(91.380954 0) scale(0.996264)"/>
      </g>
     </g>
    </g>
    <g id="xtick_5">
     <g id="line2d_5">
      <g>
       <use xlink:href="#me3eb9b2599" x="173.705756" y="149.259249" style="stroke: #000000; stroke-width: 0.8"/>
      </g>
     </g>
     <g id="text_5">
      <!-- $\mathdefault{400}$ -->
      <g transform="translate(166.233753 163.177748) scale(0.1 -0.1)">
       <defs>
        <path id="CMR17-34" d="M 2150 4147 
C 2150 4281 2144 4288 2029 4288 
L 128 1254 
L 128 1088 
L 1779 1088 
L 1779 460 
C 1779 230 1766 166 1318 166 
L 1197 166 
L 1197 0 
C 1402 12 1747 12 1965 12 
C 2182 12 2528 12 2733 0 
L 2733 166 
L 2611 166 
C 2163 166 2150 230 2150 460 
L 2150 1088 
L 2803 1088 
L 2803 1254 
L 2150 1254 
L 2150 4147 
z
M 1798 3723 
L 1798 1254 
L 256 1254 
L 1798 3723 
z
" transform="scale(0.015625)"/>
       </defs>
       <use xlink:href="#CMR17-34" transform="scale(0.996264)"/>
       <use xlink:href="#CMR17-30" transform="translate(45.690477 0) scale(0.996264)"/>
       <use xlink:href="#CMR17-30" transform="translate(91.380954 0) scale(0.996264)"/>
      </g>
     </g>
    </g>
    <g id="xtick_6">
     <g id="line2d_6">
      <g>
       <use xlink:href="#me3eb9b2599" x="207.185756" y="149.259249" style="stroke: #000000; stroke-width: 0.8"/>
      </g>
     </g>
     <g id="text_6">
      <!-- $\mathdefault{500}$ -->
      <g transform="translate(199.713753 163.177748) scale(0.1 -0.1)">
       <defs>
        <path id="CMR17-35" d="M 730 3750 
C 794 3724 1056 3641 1325 3641 
C 1920 3641 2246 3961 2432 4140 
C 2432 4191 2432 4224 2394 4224 
C 2387 4224 2374 4224 2323 4198 
C 2099 4102 1837 4032 1517 4032 
C 1325 4032 1037 4055 723 4191 
C 653 4224 640 4224 634 4224 
C 602 4224 595 4217 595 4090 
L 595 2231 
C 595 2113 595 2080 659 2080 
C 691 2080 704 2093 736 2139 
C 941 2435 1222 2560 1542 2560 
C 1766 2560 2246 2415 2246 1293 
C 2246 1087 2246 716 2054 422 
C 1894 159 1645 25 1370 25 
C 947 25 518 319 403 812 
C 429 806 480 793 506 793 
C 589 793 749 838 749 1036 
C 749 1209 627 1280 506 1280 
C 358 1280 262 1190 262 1011 
C 262 454 704 -128 1382 -128 
C 2042 -128 2669 441 2669 1267 
C 2669 2054 2170 2662 1549 2662 
C 1222 2662 947 2540 730 2304 
L 730 3750 
z
" transform="scale(0.015625)"/>
       </defs>
       <use xlink:href="#CMR17-35" transform="scale(0.996264)"/>
       <use xlink:href="#CMR17-30" transform="translate(45.690477 0) scale(0.996264)"/>
       <use xlink:href="#CMR17-30" transform="translate(91.380954 0) scale(0.996264)"/>
      </g>
     </g>
    </g>
    <g id="text_7">
     <!-- $Epoch$ -->
     <g transform="translate(109.574954 176.033424) scale(0.1 -0.1)">
      <defs>
       <path id="CMMI12-45" d="M 4448 1489 
C 4454 1508 4474 1553 4474 1578 
C 4474 1611 4448 1643 4410 1643 
C 4384 1643 4371 1636 4352 1617 
C 4339 1611 4339 1598 4282 1469 
C 3904 570 3629 185 2605 185 
L 1670 185 
C 1581 185 1568 185 1530 192 
C 1459 198 1453 211 1453 262 
C 1453 307 1466 346 1478 403 
L 1920 2176 
L 2554 2176 
C 3053 2176 3091 2066 3091 1874 
C 3091 1810 3091 1752 3046 1559 
C 3034 1534 3027 1508 3027 1489 
C 3027 1444 3059 1424 3098 1424 
C 3155 1424 3162 1469 3187 1559 
L 3552 3036 
C 3552 3068 3526 3099 3488 3099 
C 3430 3099 3424 3074 3398 2986 
C 3270 2500 3142 2361 2573 2361 
L 1965 2361 
L 2362 3913 
C 2419 4134 2432 4153 2694 4153 
L 3610 4153 
C 4397 4153 4557 3945 4557 3465 
C 4557 3459 4557 3282 4531 3074 
C 4525 3049 4518 3011 4518 2998 
C 4518 2948 4550 2929 4589 2929 
C 4634 2929 4659 2954 4672 3068 
L 4806 4172 
C 4806 4191 4819 4255 4819 4268 
C 4819 4339 4762 4339 4646 4339 
L 1523 4339 
C 1402 4339 1338 4339 1338 4223 
C 1338 4153 1382 4153 1491 4153 
C 1888 4153 1888 4109 1888 4039 
C 1888 4008 1882 3983 1862 3913 
L 998 474 
C 941 249 928 185 480 185 
C 358 185 294 185 294 70 
C 294 0 333 0 461 0 
L 3674 0 
C 3814 0 3821 6 3866 108 
L 4448 1489 
z
" transform="scale(0.015625)"/>
       <path id="CMMI12-70" d="M 275 -794 
C 230 -981 205 -1031 -58 -1031 
C -135 -1031 -199 -1031 -199 -1152 
C -199 -1165 -192 -1216 -122 -1216 
C -39 -1216 51 -1204 134 -1204 
L 410 -1204 
C 544 -1204 870 -1216 1005 -1216 
C 1043 -1216 1120 -1216 1120 -1101 
C 1120 -1031 1075 -1031 966 -1031 
C 672 -1031 653 -987 653 -937 
C 653 -863 941 217 979 364 
C 1050 185 1222 -64 1555 -64 
C 2278 -64 3059 874 3059 1813 
C 3059 2400 2726 2816 2246 2816 
C 1837 2816 1491 2419 1421 2330 
C 1370 2649 1120 2816 864 2816 
C 678 2816 531 2726 410 2483 
C 294 2253 205 1864 205 1838 
C 205 1813 230 1781 275 1781 
C 326 1781 333 1787 371 1934 
C 467 2311 589 2687 845 2687 
C 992 2687 1043 2585 1043 2394 
C 1043 2241 1024 2177 998 2062 
L 275 -794 
z
M 1382 1992 
C 1427 2170 1606 2356 1709 2445 
C 1779 2509 1990 2687 2234 2687 
C 2515 2687 2643 2407 2643 2075 
C 2643 1768 2464 1047 2304 715 
C 2144 370 1850 64 1555 64 
C 1120 64 1050 613 1050 638 
C 1050 657 1062 708 1069 740 
L 1382 1992 
z
" transform="scale(0.015625)"/>
       <path id="CMMI12-6f" d="M 2918 1755 
C 2918 2362 2522 2816 1939 2816 
C 1094 2816 262 1896 262 996 
C 262 389 659 -64 1242 -64 
C 2093 -64 2918 855 2918 1755 
z
M 1248 64 
C 928 64 691 319 691 766 
C 691 1060 845 1711 1024 2030 
C 1312 2522 1670 2687 1933 2687 
C 2246 2687 2490 2432 2490 1985 
C 2490 1730 2355 1047 2112 657 
C 1850 230 1498 64 1248 64 
z
" transform="scale(0.015625)"/>
       <path id="CMMI12-63" d="M 2502 2432 
C 2381 2432 2323 2432 2234 2355 
C 2195 2323 2125 2227 2125 2124 
C 2125 1996 2221 1919 2342 1919 
C 2496 1919 2669 2047 2669 2303 
C 2669 2591 2374 2816 1933 2816 
C 1094 2816 256 1932 256 1011 
C 256 446 602 -64 1254 -64 
C 2125 -64 2675 622 2675 706 
C 2675 745 2637 777 2611 777 
C 2592 777 2586 771 2528 712 
C 2118 161 1510 64 1267 64 
C 826 64 685 453 685 777 
C 685 1004 794 1634 1024 2073 
C 1190 2374 1536 2687 1939 2687 
C 2022 2687 2374 2676 2502 2432 
z
" transform="scale(0.015625)"/>
       <path id="CMMI12-68" d="M 1798 4255 
C 1805 4281 1818 4319 1818 4351 
C 1818 4416 1754 4416 1741 4416 
C 1734 4416 1421 4390 1389 4383 
C 1280 4377 1184 4364 1069 4358 
C 909 4345 864 4339 864 4223 
C 864 4159 915 4159 1005 4159 
C 1318 4159 1325 4103 1325 4040 
C 1325 4002 1312 3951 1306 3932 
L 378 249 
C 352 153 352 140 352 102 
C 352 -39 461 -64 525 -64 
C 634 -64 717 19 749 89 
L 1037 1245 
C 1069 1385 1107 1519 1139 1660 
C 1210 1928 1210 1934 1331 2119 
C 1453 2305 1741 2687 2234 2687 
C 2490 2687 2579 2496 2579 2241 
C 2579 1883 2330 1187 2189 804 
C 2131 651 2099 568 2099 453 
C 2099 166 2298 -64 2605 -64 
C 3200 -64 3424 874 3424 913 
C 3424 945 3398 970 3360 970 
C 3302 970 3296 951 3264 842 
C 3117 332 2880 64 2624 64 
C 2560 64 2458 70 2458 274 
C 2458 440 2534 645 2560 715 
C 2675 1021 2963 1775 2963 2145 
C 2963 2528 2739 2816 2253 2816 
C 1888 2816 1568 2643 1306 2311 
L 1798 4255 
z
" transform="scale(0.015625)"/>
      </defs>
      <use xlink:href="#CMMI12-45" transform="scale(0.996264)"/>
      <use xlink:href="#CMMI12-70" transform="translate(78.051636 0) scale(0.996264)"/>
      <use xlink:href="#CMMI12-6f" transform="translate(127.01115 0) scale(0.996264)"/>
      <use xlink:href="#CMMI12-63" transform="translate(173.90646 0) scale(0.996264)"/>
      <use xlink:href="#CMMI12-68" transform="translate(215.889693 0) scale(0.996264)"/>
     </g>
    </g>
   </g>
   <g id="matplotlib.axis_2">
    <g id="ytick_1">
     <g id="line2d_7">
      <defs>
       <path id="m79f4ade4e3" d="M 0 0 
L -3.5 0 
" style="stroke: #000000; stroke-width: 0.8"/>
      </defs>
      <g>
       <use xlink:href="#m79f4ade4e3" x="39.785756" y="142.659249" style="stroke: #000000; stroke-width: 0.8"/>
      </g>
     </g>
     <g id="text_8">
      <!-- $\mathdefault{0.5}$ -->
      <g transform="translate(20.055677 146.118498) scale(0.1 -0.1)">
       <defs>
        <path id="CMMI12-3a" d="M 1178 307 
C 1178 492 1024 620 870 620 
C 685 620 557 467 557 313 
C 557 128 710 0 864 0 
C 1050 0 1178 153 1178 307 
z
" transform="scale(0.015625)"/>
       </defs>
       <use xlink:href="#CMR17-30" transform="scale(0.996264)"/>
       <use xlink:href="#CMMI12-3a" transform="translate(45.690477 0) scale(0.996264)"/>
       <use xlink:href="#CMR17-35" transform="translate(72.787654 0) scale(0.996264)"/>
      </g>
     </g>
    </g>
    <g id="ytick_2">
     <g id="line2d_8">
      <g>
       <use xlink:href="#m79f4ade4e3" x="39.785756" y="109.659249" style="stroke: #000000; stroke-width: 0.8"/>
      </g>
     </g>
     <g id="text_9">
      <!-- $\mathdefault{1.0}$ -->
      <g transform="translate(20.055677 113.118498) scale(0.1 -0.1)">
       <use xlink:href="#CMR17-31" transform="scale(0.996264)"/>
       <use xlink:href="#CMMI12-3a" transform="translate(45.690477 0) scale(0.996264)"/>
       <use xlink:href="#CMR17-30" transform="translate(72.787654 0) scale(0.996264)"/>
      </g>
     </g>
    </g>
    <g id="ytick_3">
     <g id="line2d_9">
      <g>
       <use xlink:href="#m79f4ade4e3" x="39.785756" y="76.659249" style="stroke: #000000; stroke-width: 0.8"/>
      </g>
     </g>
     <g id="text_10">
      <!-- $\mathdefault{1.5}$ -->
      <g transform="translate(20.055677 80.118498) scale(0.1 -0.1)">
       <use xlink:href="#CMR17-31" transform="scale(0.996264)"/>
       <use xlink:href="#CMMI12-3a" transform="translate(45.690477 0) scale(0.996264)"/>
       <use xlink:href="#CMR17-35" transform="translate(72.787654 0) scale(0.996264)"/>
      </g>
     </g>
    </g>
    <g id="ytick_4">
     <g id="line2d_10">
      <g>
       <use xlink:href="#m79f4ade4e3" x="39.785756" y="43.659249" style="stroke: #000000; stroke-width: 0.8"/>
      </g>
     </g>
     <g id="text_11">
      <!-- $\mathdefault{2.0}$ -->
      <g transform="translate(20.055677 47.118498) scale(0.1 -0.1)">
       <use xlink:href="#CMR17-32" transform="scale(0.996264)"/>
       <use xlink:href="#CMMI12-3a" transform="translate(45.690477 0) scale(0.996264)"/>
       <use xlink:href="#CMR17-30" transform="translate(72.787654 0) scale(0.996264)"/>
      </g>
     </g>
    </g>
    <g id="ytick_5">
     <g id="line2d_11">
      <g>
       <use xlink:href="#m79f4ade4e3" x="39.785756" y="10.659249" style="stroke: #000000; stroke-width: 0.8"/>
      </g>
     </g>
     <g id="text_12">
      <!-- $\mathdefault{2.5}$ -->
      <g transform="translate(20.055677 14.118498) scale(0.1 -0.1)">
       <use xlink:href="#CMR17-32" transform="scale(0.996264)"/>
       <use xlink:href="#CMMI12-3a" transform="translate(45.690477 0) scale(0.996264)"/>
       <use xlink:href="#CMR17-35" transform="translate(72.787654 0) scale(0.996264)"/>
      </g>
     </g>
    </g>
    <g id="text_13">
     <!-- $Loss$ -->
     <g transform="translate(14.118498 90.43387) rotate(-90) scale(0.1 -0.1)">
      <defs>
       <path id="CMMI12-4c" d="M 2349 3860 
C 2406 4102 2426 4166 2989 4166 
C 3162 4166 3206 4166 3206 4287 
C 3206 4352 3136 4352 3110 4352 
C 2982 4352 2835 4339 2707 4339 
L 1850 4339 
C 1728 4339 1587 4352 1466 4352 
C 1414 4352 1344 4352 1344 4230 
C 1344 4166 1402 4166 1498 4166 
C 1888 4166 1888 4115 1888 4045 
C 1888 4032 1888 3994 1862 3898 
L 998 472 
C 941 249 928 185 480 185 
C 358 185 294 185 294 70 
C 294 0 333 0 461 0 
L 3328 0 
C 3469 0 3475 6 3520 121 
L 4013 1478 
C 4026 1510 4038 1548 4038 1567 
C 4038 1605 4006 1631 3974 1631 
C 3968 1631 3936 1631 3923 1605 
C 3910 1599 3910 1586 3859 1465 
C 3654 905 3366 185 2285 185 
L 1670 185 
C 1581 185 1568 185 1530 191 
C 1459 198 1453 211 1453 262 
C 1453 306 1466 344 1478 402 
L 2349 3860 
z
" transform="scale(0.015625)"/>
       <path id="CMMI12-73" d="M 1459 1290 
C 1568 1271 1741 1233 1779 1227 
C 1862 1201 2150 1099 2150 793 
C 2150 595 1971 64 1229 64 
C 1094 64 614 83 486 447 
C 742 414 870 614 870 755 
C 870 889 781 960 653 960 
C 512 960 326 851 326 563 
C 326 176 710 -64 1222 -64 
C 2195 -64 2483 665 2483 998 
C 2483 1093 2483 1271 2278 1475 
C 2118 1627 1965 1659 1619 1729 
C 1446 1767 1171 1824 1171 2111 
C 1171 2239 1286 2687 1894 2687 
C 2163 2687 2426 2589 2490 2368 
C 2208 2368 2195 2124 2195 2118 
C 2195 1983 2317 1945 2374 1945 
C 2464 1945 2643 2015 2643 2284 
C 2643 2546 2400 2816 1901 2816 
C 1062 2816 838 2169 838 1907 
C 838 1424 1312 1322 1459 1290 
z
" transform="scale(0.015625)"/>
      </defs>
      <use xlink:href="#CMMI12-4c" transform="scale(0.996264)"/>
      <use xlink:href="#CMMI12-6f" transform="translate(66.370875 0) scale(0.996264)"/>
      <use xlink:href="#CMMI12-73" transform="translate(113.266185 0) scale(0.996264)"/>
      <use xlink:href="#CMMI12-73" transform="translate(159.216233 0) scale(0.996264)"/>
     </g>
    </g>
   </g>
   <g id="line2d_12">
    <path d="M 43.798903 -1 
L 43.803356 -0.884784 
L 44.472956 26.003436 
L 45.142556 47.47709 
L 45.812156 65.629039 
L 46.481756 77.197667 
L 47.820956 93.784764 
L 48.155756 97.567294 
L 48.825356 101.988926 
L 49.160156 103.390231 
L 49.494956 105.66148 
L 50.164556 108.370407 
L 50.834156 110.476982 
L 52.173356 112.690698 
L 52.508156 112.405332 
L 53.177756 114.126078 
L 53.847356 114.55131 
L 54.182156 114.121822 
L 54.516956 114.857572 
L 54.851756 115.130066 
L 55.186556 114.657226 
L 55.521356 114.517636 
L 55.856156 114.983477 
L 56.190956 115.050503 
L 56.525756 115.883968 
L 56.860556 114.818623 
L 57.195356 115.801234 
L 57.864956 115.690081 
L 58.199756 115.270219 
L 58.534556 115.084618 
L 58.869356 114.711778 
L 59.204156 112.973015 
L 59.538956 114.626396 
L 59.873756 114.763044 
L 60.208556 115.061026 
L 60.543356 114.612006 
L 60.878156 115.01232 
L 61.212956 115.988449 
L 61.547756 115.978346 
L 62.217356 116.427504 
L 62.886956 116.857704 
L 63.556556 117.748439 
L 63.891356 117.854088 
L 64.226156 117.706724 
L 64.895756 118.069013 
L 65.230556 118.046668 
L 65.565356 118.567797 
L 65.900156 118.115268 
L 66.234956 119.107749 
L 66.569756 119.733449 
L 66.904556 119.79815 
L 67.574156 120.4132 
L 67.908956 120.619392 
L 68.243756 120.458059 
L 68.578556 121.114974 
L 68.913356 120.9696 
L 69.248156 121.371709 
L 69.582956 121.250111 
L 69.917756 121.51611 
L 70.252556 120.684904 
L 70.587356 121.869592 
L 70.922156 121.439073 
L 71.256956 121.491685 
L 71.591756 121.030072 
L 71.926556 121.247318 
L 72.261356 121.203908 
L 72.596156 120.523554 
L 72.930956 120.39573 
L 73.265756 119.104626 
L 73.935356 119.092073 
L 74.270156 119.364028 
L 74.604956 119.459728 
L 74.939756 119.292489 
L 75.274556 119.650833 
L 75.609356 119.495703 
L 75.944156 120.158779 
L 76.278956 120.350647 
L 76.948556 120.554093 
L 77.283356 120.309235 
L 77.618156 119.865809 
L 77.952956 119.672198 
L 78.622556 122.361951 
L 78.957356 122.793186 
L 79.292156 123.020185 
L 79.626956 123.490326 
L 79.961756 123.151821 
L 80.631356 123.719165 
L 81.300956 124.455439 
L 81.635756 124.247367 
L 81.970556 122.628269 
L 82.305356 100.73556 
L 82.640156 11.794087 
L 83.644556 63.706626 
L 84.314156 77.007604 
L 84.983756 93.66253 
L 85.318556 103.541899 
L 85.653356 108.75069 
L 85.988156 109.850048 
L 86.322956 115.099043 
L 86.657756 117.673569 
L 87.327356 119.165503 
L 87.662156 118.761168 
L 87.996956 117.76085 
L 88.331756 119.596038 
L 89.670956 118.048006 
L 90.005756 119.255979 
L 90.340556 119.625377 
L 90.675356 120.360612 
L 91.010156 120.269774 
L 91.344956 120.59473 
L 91.679756 120.677897 
L 92.684156 121.185029 
L 93.018956 121.898801 
L 93.353756 121.387578 
L 93.688556 121.78626 
L 94.023356 121.660945 
L 94.358156 122.1929 
L 94.692956 121.785563 
L 95.027756 121.825319 
L 95.362556 122.700075 
L 95.697356 121.818207 
L 96.032156 123.014461 
L 96.366956 123.463284 
L 97.036556 123.651045 
L 97.371356 124.332272 
L 97.706156 123.861391 
L 98.040956 124.695262 
L 98.375756 124.989911 
L 98.710556 124.784573 
L 99.045356 125.340666 
L 99.380156 125.162016 
L 100.049756 125.708884 
L 100.384556 125.779431 
L 100.719356 126.201098 
L 101.054156 126.152255 
L 101.388956 126.514383 
L 101.723756 126.596546 
L 102.058556 126.304092 
L 102.728156 125.135981 
L 103.062956 125.964643 
L 103.397756 125.619671 
L 104.067356 120.647228 
L 104.402156 120.788416 
L 104.736956 123.489527 
L 105.071756 123.362572 
L 105.406556 122.81893 
L 105.741356 122.926699 
L 106.076156 123.422678 
L 106.410956 123.541415 
L 107.080556 122.202805 
L 107.415356 123.112517 
L 107.750156 124.640631 
L 108.084956 124.016572 
L 108.419756 123.647576 
L 108.754556 124.903944 
L 109.424156 125.496689 
L 109.758956 125.180898 
L 110.093756 125.469077 
L 110.428556 124.541942 
L 110.763356 124.618653 
L 111.098156 124.91724 
L 111.767756 125.099038 
L 112.102556 124.191088 
L 112.437356 124.987275 
L 112.772156 124.337496 
L 113.106956 123.98219 
L 113.776556 125.449832 
L 114.111356 125.163672 
L 114.446156 125.192708 
L 114.780956 125.097413 
L 115.115756 125.278487 
L 115.450556 125.85873 
L 115.785356 126.101751 
L 116.120156 125.6767 
L 116.454956 126.142923 
L 117.124556 124.913401 
L 117.459356 125.64742 
L 117.794156 125.802456 
L 118.463756 126.570366 
L 118.798556 126.492848 
L 119.468156 126.985499 
L 120.472556 126.666802 
L 120.807356 127.225625 
L 121.142156 127.282789 
L 121.476956 127.175786 
L 121.811756 126.842518 
L 122.146556 127.292891 
L 122.481356 126.810814 
L 122.816156 127.05834 
L 123.150956 126.216794 
L 123.485756 126.983422 
L 124.155356 127.032454 
L 124.490156 127.207258 
L 124.824956 127.213155 
L 125.159756 127.106247 
L 125.494556 127.270778 
L 126.164156 126.960975 
L 126.498956 127.030704 
L 126.833756 126.862179 
L 127.168556 127.314331 
L 127.503356 126.985346 
L 128.172956 127.340641 
L 128.507756 126.944583 
L 128.842556 127.273961 
L 129.177356 127.793941 
L 129.846956 127.154319 
L 130.181756 127.239547 
L 130.516556 127.010688 
L 130.851356 127.008084 
L 131.855756 125.868054 
L 132.190556 125.092437 
L 132.525356 125.232983 
L 133.529756 125.291248 
L 133.864556 124.81012 
L 134.534156 124.520671 
L 135.203756 126.356023 
L 135.538556 127.045987 
L 135.873356 126.772585 
L 136.208156 126.835307 
L 136.877756 127.985943 
L 137.212556 127.643249 
L 137.547356 126.748356 
L 137.882156 127.514098 
L 138.216956 127.603717 
L 138.551756 128.282135 
L 138.886556 128.303626 
L 139.556156 127.986749 
L 139.890956 128.176006 
L 140.225756 128.504707 
L 140.560556 128.426887 
L 140.895356 128.489113 
L 141.230156 128.38385 
L 142.234556 129.204455 
L 142.569356 129.080694 
L 142.904156 129.281445 
L 143.908556 129.307484 
L 144.243356 129.449136 
L 144.578156 129.318428 
L 144.912956 128.856686 
L 145.247756 129.469478 
L 145.582556 129.54139 
L 145.917356 129.906991 
L 146.252156 129.407377 
L 146.586956 129.696701 
L 147.256556 129.24842 
L 147.926156 129.834639 
L 148.260956 129.59434 
L 148.930556 129.9365 
L 149.265356 129.909371 
L 149.934956 130.397022 
L 150.604556 129.897172 
L 150.939356 130.425185 
L 151.274156 130.364359 
L 151.943756 130.920854 
L 152.278556 130.615496 
L 152.613356 131.184547 
L 152.948156 130.917014 
L 153.282956 131.070472 
L 153.617756 130.562841 
L 154.287356 131.047809 
L 154.622156 131.284622 
L 154.956956 131.119897 
L 155.291756 131.093544 
L 155.626556 131.298395 
L 155.961356 130.534241 
L 156.296156 129.461107 
L 156.630956 129.67508 
L 156.965756 130.049336 
L 157.300556 131.39581 
L 158.304956 131.741093 
L 158.639756 131.583685 
L 158.974556 131.584748 
L 159.644156 130.641881 
L 159.978956 130.601137 
L 160.313756 131.208599 
L 160.648556 131.562277 
L 160.983356 130.914721 
L 161.318156 131.008159 
L 161.652956 131.288261 
L 161.987756 131.419724 
L 162.322556 131.23974 
L 162.657356 131.723599 
L 162.992156 131.485393 
L 163.326956 131.618615 
L 163.661756 131.271565 
L 163.996556 131.644067 
L 164.331356 131.665837 
L 164.666156 131.889157 
L 165.000956 131.47356 
L 165.335756 130.863131 
L 165.670556 128.320514 
L 166.340156 131.264783 
L 166.674956 131.091691 
L 167.009756 130.77382 
L 167.344556 130.710976 
L 167.679356 119.644716 
L 168.014156 73.285106 
L 168.348956 99.129125 
L 168.683756 104.75093 
L 169.018556 117.977589 
L 169.688156 123.796927 
L 170.357756 126.357089 
L 170.692556 127.009048 
L 171.027356 128.038008 
L 171.362156 128.312099 
L 171.696956 128.912354 
L 172.701356 129.515269 
L 173.036156 129.944454 
L 173.370956 129.794804 
L 173.705756 129.931091 
L 174.040556 130.204737 
L 174.710156 130.150496 
L 175.044956 130.286492 
L 175.379756 130.181897 
L 175.714556 130.467561 
L 176.049356 130.003317 
L 176.384156 130.215599 
L 176.718956 130.69286 
L 177.053756 130.524654 
L 177.723356 130.73155 
L 178.058156 130.827939 
L 178.727756 130.496893 
L 179.062556 129.667346 
L 179.397356 129.739045 
L 180.066956 129.37126 
L 180.401756 129.634568 
L 181.071356 129.457672 
L 181.406156 129.486359 
L 181.740956 129.207445 
L 182.075756 128.69811 
L 182.410556 128.748267 
L 184.084556 125.769997 
L 184.754156 124.430183 
L 185.088956 124.47276 
L 185.423756 128.757406 
L 185.758556 130.027912 
L 186.093356 130.175721 
L 186.762956 131.134779 
L 187.432556 131.09356 
L 187.767356 131.332179 
L 188.102156 131.165432 
L 188.436956 131.430377 
L 188.771756 131.135551 
L 189.106556 131.686231 
L 189.441356 131.636856 
L 189.776156 131.047514 
L 190.110956 131.865204 
L 190.445756 131.755743 
L 190.780556 131.460338 
L 191.115356 131.86817 
L 191.450156 132.009786 
L 191.784956 131.757745 
L 192.119756 132.165845 
L 192.454556 131.987273 
L 193.458956 132.243299 
L 193.793756 132.179952 
L 194.463356 132.345538 
L 195.132956 132.269601 
L 195.467756 132.431545 
L 195.802556 132.41374 
L 196.472156 132.139716 
L 196.806956 130.92358 
L 197.141756 126.605354 
L 197.811356 77.309453 
L 198.480956 118.581546 
L 199.150556 126.202353 
L 199.485356 128.877158 
L 200.154956 130.852419 
L 200.489756 130.885 
L 201.159356 131.489193 
L 202.163756 131.496093 
L 202.498556 131.252993 
L 202.833356 131.375011 
L 203.837756 131.375904 
L 204.172556 131.478988 
L 205.176956 130.413081 
L 205.511756 129.745894 
L 206.181356 131.480137 
L 206.850956 131.126381 
L 206.850956 131.126381 
" clip-path="url(#pd88c2aa17a)" style="fill: none; stroke: #1f77b4; stroke-width: 1.5; stroke-linecap: square"/>
   </g>
   <g id="line2d_13">
    <path d="M 41.122 -1 
L 41.124956 1.335135 
L 41.459756 90.298811 
L 41.794556 99.206686 
L 42.464156 105.932927 
L 42.798956 83.890344 
L 43.133756 72.250882 
L 43.219504 -1 
M 43.816009 -1 
L 44.138156 27.55039 
L 44.472956 38.546477 
L 45.812156 65.487726 
L 46.816556 78.794385 
L 47.151356 82.154051 
L 47.820956 95.020081 
L 48.490556 104.991693 
L 49.829756 116.412945 
L 50.499356 120.796996 
L 50.834156 123.019736 
L 52.842956 127.750377 
L 53.177756 128.426981 
L 53.512556 128.729699 
L 53.847356 129.371087 
L 54.182156 129.495709 
L 55.186556 130.799898 
L 55.521356 131.177875 
L 55.856156 131.354354 
L 56.525756 132.01673 
L 56.860556 131.861238 
L 57.195356 132.663071 
L 57.530156 132.983582 
L 58.199756 133.340902 
L 58.869356 133.972007 
L 59.204156 133.754686 
L 59.538956 134.358687 
L 59.873756 134.500142 
L 60.208556 134.911043 
L 60.543356 134.707656 
L 61.212956 135.600782 
L 61.547756 135.615715 
L 62.217356 135.922871 
L 62.552156 135.890141 
L 62.886956 136.448913 
L 64.560956 137.097142 
L 64.895756 136.945517 
L 65.565356 137.530879 
L 65.900156 137.376847 
L 66.234956 137.621241 
L 66.569756 137.65901 
L 66.904556 137.55143 
L 67.239356 137.64327 
L 67.574156 137.425061 
L 67.908956 137.981284 
L 68.243756 137.653042 
L 68.578556 138.315319 
L 68.913356 138.206567 
L 69.248156 138.508089 
L 69.582956 138.552027 
L 70.252556 138.395496 
L 70.922156 138.86135 
L 71.256956 138.634981 
L 71.591756 138.88072 
L 71.926556 138.81941 
L 72.261356 139.072105 
L 72.930956 139.183812 
L 73.265756 139.153076 
L 73.600556 139.310979 
L 73.935356 138.800575 
L 74.270156 139.282836 
L 76.948556 139.727419 
L 77.283356 139.579103 
L 77.618156 139.908418 
L 77.952956 139.702584 
L 78.287756 140.0095 
L 78.957356 140.038308 
L 79.292156 139.9354 
L 79.626956 140.190231 
L 79.961756 139.917273 
L 80.296556 140.137041 
L 80.966156 140.139259 
L 81.300956 140.221635 
L 81.635756 140.178504 
L 82.640156 140.457583 
L 83.309756 140.325392 
L 83.644556 140.35601 
L 83.979356 140.155227 
L 84.314156 140.16363 
L 84.648956 140.582414 
L 84.983756 140.403767 
L 85.318556 140.519019 
L 85.653356 140.472926 
L 85.988156 140.540593 
L 86.322956 140.255923 
L 86.657756 140.350652 
L 86.992556 140.682725 
L 87.327356 140.492863 
L 87.662156 140.431285 
L 87.996956 140.74577 
L 88.331756 140.821674 
L 88.666556 140.701112 
L 89.001356 140.851537 
L 89.336156 140.857791 
L 89.670956 140.703748 
L 90.675356 141.0613 
L 91.010156 140.863484 
L 91.344956 140.988802 
L 91.679756 140.866812 
L 92.014556 140.908975 
L 92.349356 140.813504 
L 93.018956 141.160458 
L 93.353756 140.847756 
L 93.688556 141.062311 
L 94.023356 140.927355 
L 94.692956 141.338141 
L 95.027756 141.141379 
L 95.362556 141.0951 
L 95.697356 140.879145 
L 96.366956 141.250313 
L 96.701756 141.145364 
L 97.371356 141.353582 
L 97.706156 141.096768 
L 98.040956 141.467649 
L 100.049756 141.431265 
L 100.384556 141.590828 
L 101.388956 141.455395 
L 101.723756 141.646626 
L 102.393356 141.441587 
L 103.062956 141.665635 
L 103.397756 141.502452 
L 103.732556 141.489498 
L 104.067356 141.708357 
L 104.402156 141.723817 
L 104.736956 141.608983 
L 106.410956 141.667358 
L 107.415356 141.700662 
L 108.084956 141.947236 
L 108.419756 141.490922 
L 109.089356 141.851237 
L 109.424156 141.813337 
L 109.758956 141.542157 
L 110.093756 141.896913 
L 110.428556 141.650934 
L 110.763356 141.955839 
L 111.432956 141.93855 
L 111.767756 142.061091 
L 112.102556 141.761366 
L 112.437356 142.088966 
L 112.772156 141.763652 
L 113.106956 141.827043 
L 113.441756 142.015292 
L 114.111356 141.992385 
L 114.446156 142.068459 
L 114.780956 141.691536 
L 115.785356 142.168463 
L 116.120156 141.807472 
L 116.454956 142.180461 
L 117.124556 141.991657 
L 117.459356 142.062361 
L 117.794156 141.906583 
L 118.463756 142.161819 
L 119.468156 142.16174 
L 119.802956 142.062515 
L 120.137756 142.209698 
L 120.472556 142.134029 
L 121.476956 142.315111 
L 121.811756 142.088876 
L 122.146556 142.329053 
L 122.481356 142.225587 
L 122.816156 142.282353 
L 123.150956 142.087365 
L 124.155356 142.438769 
L 124.490156 142.311382 
L 124.824956 142.396102 
L 125.159756 142.361161 
L 125.494556 142.48288 
L 125.829356 142.343789 
L 126.164156 142.34788 
L 126.498956 142.482121 
L 126.833756 142.18886 
L 127.168556 142.303423 
L 127.503356 142.23973 
L 127.838156 142.448223 
L 128.507756 142.488333 
L 128.842556 142.226224 
L 129.177356 142.519749 
L 129.512156 142.574241 
L 130.181756 142.262452 
L 130.851356 142.520968 
L 131.186156 142.516476 
L 131.520956 142.644005 
L 132.190556 142.346331 
L 132.860156 142.654985 
L 133.194956 142.431043 
L 133.864556 142.59589 
L 134.534156 142.527715 
L 135.203756 142.709639 
L 135.873356 142.700943 
L 136.208156 142.441075 
L 136.542956 142.728368 
L 136.877756 142.667044 
L 137.212556 142.439013 
L 137.882156 142.569548 
L 138.551756 142.687603 
L 139.221356 142.810821 
L 139.556156 142.608679 
L 139.890956 142.852766 
L 140.225756 142.71232 
L 141.230156 142.799701 
L 141.899756 142.737101 
L 142.234556 142.879951 
L 142.569356 142.74965 
L 142.904156 142.950256 
L 143.238956 142.821668 
L 143.573756 142.864182 
L 143.908556 142.634993 
L 144.243356 142.816424 
L 144.912956 142.751131 
L 145.247756 142.481507 
L 145.917356 142.894798 
L 147.591356 142.891424 
L 148.260956 142.655048 
L 148.930556 142.999766 
L 149.600156 142.743331 
L 149.934956 142.930396 
L 151.274156 142.984691 
L 151.943756 143.023079 
L 152.278556 142.89027 
L 152.613356 142.969316 
L 152.948156 142.889992 
L 153.282956 143.071255 
L 154.622156 142.962612 
L 154.956956 142.843982 
L 155.626556 143.022742 
L 156.630956 143.101751 
L 156.965756 142.755073 
L 157.300556 143.079912 
L 157.635356 143.024489 
L 157.970156 143.124215 
L 158.304956 143.093078 
L 158.639756 143.211953 
L 160.648556 143.106169 
L 160.983356 143.21716 
L 161.652956 143.113403 
L 161.987756 143.149219 
L 162.322556 143.070765 
L 162.657356 143.185358 
L 162.992156 143.071064 
L 163.661756 143.294152 
L 163.996556 143.144001 
L 164.666156 143.257787 
L 165.670556 142.960872 
L 166.340156 143.284662 
L 166.674956 143.351172 
L 167.009756 143.140309 
L 167.344556 143.253773 
L 168.014156 143.203663 
L 168.683756 143.33025 
L 169.018556 142.940366 
L 169.688156 143.408678 
L 170.022956 143.154807 
L 170.357756 143.356481 
L 171.027356 143.222785 
L 171.696956 143.360297 
L 172.366556 143.333588 
L 172.701356 143.265203 
L 173.036156 143.344549 
L 173.370956 143.188218 
L 174.375356 143.445682 
L 174.710156 143.315086 
L 175.379756 143.391501 
L 175.714556 143.479825 
L 176.049356 143.204174 
L 176.384156 143.228521 
L 176.718956 143.43524 
L 177.053756 143.31586 
L 178.058156 143.310031 
L 178.392956 143.298763 
L 178.727756 143.4883 
L 179.062556 143.207675 
L 179.397356 143.157892 
L 179.732156 143.389001 
L 180.736556 143.355287 
L 181.071356 143.525578 
L 182.075756 143.336589 
L 182.410556 143.538131 
L 182.745356 143.523688 
L 183.080156 143.367921 
L 183.414956 143.358379 
L 183.749756 143.525368 
L 184.084556 143.34009 
L 184.754156 143.534962 
L 185.088956 143.573928 
L 185.423756 143.370964 
L 185.758556 143.498586 
L 186.093356 143.266904 
L 186.762956 143.611813 
L 188.102156 143.535425 
L 188.771756 143.347636 
L 189.106556 143.595185 
L 189.441356 143.56332 
L 189.776156 143.345507 
L 190.110956 143.610084 
L 190.780556 143.318283 
L 191.115356 143.652161 
L 191.450156 143.666312 
L 191.784956 143.399862 
L 192.119756 143.692228 
L 192.454556 143.599754 
L 193.124156 143.674268 
L 193.458956 143.616996 
L 194.128556 143.670434 
L 197.811356 143.68831 
L 198.480956 143.330299 
L 198.815756 143.637852 
L 199.150556 143.729964 
L 199.485356 143.549329 
L 199.820156 143.592299 
L 200.154956 143.774571 
L 201.828956 143.607879 
L 202.163756 143.708804 
L 202.498556 143.577677 
L 203.502956 143.755558 
L 204.172556 143.68747 
L 204.507356 143.744856 
L 204.842156 143.530741 
L 205.176956 143.804695 
L 206.181356 143.699468 
L 206.850956 143.796622 
L 206.850956 143.796622 
" clip-path="url(#pd88c2aa17a)" style="fill: none; stroke: #ff7f0e; stroke-width: 1.5; stroke-linecap: square"/>
   </g>
   <g id="line2d_14">
    <path d="M 47.401257 -1 
L 47.486156 -0.375154 
L 47.820956 3.019713 
L 49.494956 12.370074 
L 49.829756 13.15503 
L 50.834156 20.428382 
L 51.503756 22.920528 
L 51.838556 25.823782 
L 52.173356 27.092436 
L 53.512556 34.510981 
L 53.847356 36.406227 
L 54.182156 39.223156 
L 54.516956 40.222762 
L 55.186556 45.227698 
L 55.856156 48.576947 
L 56.190956 50.647181 
L 56.525756 54.006525 
L 57.195356 57.509527 
L 58.534556 68.042058 
L 63.556556 107.218213 
L 64.226156 111.440742 
L 65.230556 117.140123 
L 66.234956 121.685457 
L 67.574156 125.47222 
L 67.908956 126.616763 
L 68.243756 127.136597 
L 68.578556 127.932631 
L 68.913356 128.355081 
L 69.248156 129.541362 
L 69.582956 130.025595 
L 69.917756 130.261944 
L 70.252556 130.746275 
L 70.587356 131.55985 
L 72.596156 133.938164 
L 72.930956 133.081422 
L 73.265756 132.699156 
L 73.600556 134.184548 
L 73.935356 135.056617 
L 75.274556 136.390172 
L 75.609356 136.436348 
L 75.944156 136.331258 
L 76.278956 137.066442 
L 76.613756 137.153861 
L 76.948556 137.668211 
L 77.283356 137.487783 
L 77.618156 136.883602 
L 77.952956 136.578224 
L 78.287756 137.422496 
L 78.622556 137.467169 
L 79.626956 139.092006 
L 79.961756 139.034512 
L 80.631356 139.371636 
L 80.966156 139.496113 
L 81.300956 139.76306 
L 81.635756 131.146086 
L 81.970556 103.011553 
L 82.305356 125.890969 
L 82.640156 136.587249 
L 82.974956 138.166244 
L 83.309756 138.679717 
L 83.644556 139.624331 
L 83.979356 139.85341 
L 84.314156 140.244212 
L 84.983756 140.551246 
L 85.318556 140.594491 
L 85.653356 140.760628 
L 85.988156 140.733582 
L 86.322956 140.973755 
L 86.657756 140.671729 
L 86.992556 141.042968 
L 87.662156 141.066768 
L 89.001356 141.261202 
L 89.336156 141.422881 
L 89.670956 141.15307 
L 90.005756 141.42604 
L 90.340556 141.28652 
L 90.675356 141.271933 
L 91.010156 140.860541 
L 91.344956 141.445454 
L 91.679756 141.574718 
L 92.014556 141.579274 
L 92.349356 141.383715 
L 92.684156 141.587087 
L 93.018956 141.965863 
L 93.353756 141.593656 
L 93.688556 142.007472 
L 94.023356 141.822775 
L 94.692956 142.234427 
L 95.362556 142.051138 
L 95.697356 142.100056 
L 96.032156 142.031288 
L 96.366956 142.249785 
L 96.701756 142.308357 
L 97.036556 142.183404 
L 97.371356 142.399143 
L 97.706156 141.930776 
L 98.040956 142.491681 
L 99.045356 142.221492 
L 99.380156 142.029104 
L 99.714956 142.098848 
L 100.384556 142.538954 
L 103.397756 142.432015 
L 104.736956 142.833248 
L 105.071756 142.691539 
L 105.406556 142.82779 
L 105.741356 142.804298 
L 106.076156 143.023706 
L 106.745756 142.785276 
L 108.084956 143.111507 
L 108.419756 142.667489 
L 109.089356 143.073037 
L 109.758956 142.864928 
L 110.093756 143.113246 
L 110.428556 142.864011 
L 110.763356 143.154141 
L 111.432956 143.137748 
L 111.767756 143.27128 
L 112.102556 142.974715 
L 112.437356 143.282364 
L 112.772156 143.114084 
L 113.776556 143.241178 
L 114.111356 143.186495 
L 114.446156 143.301607 
L 114.780956 143.059491 
L 115.115756 143.210275 
L 115.450556 143.497403 
L 115.785356 143.432598 
L 116.120156 143.174817 
L 116.454956 143.481719 
L 116.789756 143.256662 
L 117.124556 143.221279 
L 117.459356 143.40474 
L 117.794156 143.103877 
L 118.463756 143.46508 
L 119.468156 143.454565 
L 119.802956 143.329854 
L 120.137756 143.470586 
L 120.807356 143.491567 
L 121.476956 143.595537 
L 121.811756 143.291662 
L 122.146556 142.01748 
L 122.481356 142.781246 
L 123.150956 142.741889 
L 123.820556 142.846735 
L 125.494556 143.652934 
L 126.164156 143.601607 
L 126.498956 143.747557 
L 126.833756 143.564557 
L 127.168556 143.606255 
L 127.503356 143.479071 
L 127.838156 143.755367 
L 128.507756 143.824262 
L 128.842556 143.681929 
L 129.177356 143.843347 
L 129.846956 143.791719 
L 130.181756 143.62807 
L 130.516556 143.868619 
L 131.520956 144.014397 
L 131.855756 143.863265 
L 132.190556 143.865552 
L 132.525356 143.713912 
L 132.860156 144.016087 
L 133.194956 143.917303 
L 133.864556 143.958672 
L 134.199356 143.769665 
L 134.868956 143.961091 
L 135.538556 144.08961 
L 135.873356 144.080908 
L 136.208156 143.835086 
L 136.542956 144.124828 
L 137.212556 143.963772 
L 137.547356 143.769134 
L 138.551756 144.10639 
L 138.886556 144.210265 
L 139.221356 144.187371 
L 139.556156 144.007747 
L 139.890956 144.242826 
L 140.225756 144.113571 
L 140.895356 144.300164 
L 141.230156 144.134907 
L 142.234556 144.284407 
L 142.569356 144.150985 
L 142.904156 144.370133 
L 143.238956 144.242715 
L 143.573756 144.331036 
L 143.908556 144.196647 
L 144.578156 144.261118 
L 144.912956 144.130267 
L 145.582556 144.202224 
L 145.917356 144.318252 
L 146.586956 144.365986 
L 147.256556 144.291203 
L 148.595756 144.295766 
L 148.930556 144.444281 
L 149.265356 144.165119 
L 150.269756 144.362987 
L 151.608956 144.424926 
L 151.943756 144.485595 
L 152.278556 144.27877 
L 152.613356 144.489863 
L 152.948156 144.250324 
L 153.282956 144.505845 
L 154.956956 144.263056 
L 155.626556 144.524436 
L 156.630956 144.568795 
L 156.965756 144.206848 
L 157.300556 144.560073 
L 158.304956 144.587998 
L 158.639756 144.710957 
L 159.309356 144.517198 
L 159.644156 144.704013 
L 159.978956 144.678085 
L 160.313756 144.540597 
L 161.318156 144.648228 
L 161.652956 144.600016 
L 161.987756 144.681606 
L 162.322556 144.570131 
L 162.992156 144.700406 
L 163.326956 144.638854 
L 163.661756 144.766682 
L 163.996556 144.674428 
L 164.666156 144.77727 
L 165.335756 144.594039 
L 165.670556 144.531018 
L 166.674956 144.836558 
L 167.009756 144.744475 
L 168.683756 144.847115 
L 169.018556 144.458838 
L 169.353356 144.615062 
L 169.688156 144.922231 
L 170.022956 144.821185 
L 172.031756 144.948094 
L 172.701356 144.83073 
L 173.036156 144.905522 
L 173.370956 144.703099 
L 173.705756 144.863085 
L 175.714556 145.005071 
L 176.049356 144.785008 
L 176.384156 144.759001 
L 176.718956 144.982748 
L 177.053756 144.860341 
L 178.058156 144.864546 
L 178.392956 144.835093 
L 178.727756 145.005704 
L 179.062556 144.711204 
L 179.732156 144.937077 
L 182.075756 144.874052 
L 182.410556 145.07466 
L 183.414956 144.92204 
L 183.749756 145.050964 
L 184.084556 144.843563 
L 184.754156 145.077931 
L 185.088956 145.0673 
L 185.423756 144.880864 
L 185.758556 145.049929 
L 186.093356 144.860353 
L 186.762956 145.144514 
L 187.432556 145.131784 
L 188.102156 145.024271 
L 188.771756 144.912656 
L 189.106556 145.169959 
L 189.441356 145.113 
L 189.776156 144.923639 
L 190.110956 145.178584 
L 190.780556 144.913543 
L 191.115356 145.184617 
L 191.450156 145.204888 
L 191.784956 144.987176 
L 192.119756 145.283554 
L 192.789356 145.209617 
L 194.128556 145.278607 
L 196.806956 145.143135 
L 197.141756 145.294166 
L 197.476556 145.188283 
L 197.811356 145.266206 
L 198.480956 144.929583 
L 199.150556 145.296383 
L 199.485356 145.032152 
L 200.154956 145.371068 
L 200.824556 145.249996 
L 201.159356 145.314756 
L 201.494156 145.153735 
L 204.507356 145.36822 
L 204.842156 145.152587 
L 205.176956 145.397762 
L 205.511756 145.285053 
L 206.850956 145.425488 
L 206.850956 145.425488 
" clip-path="url(#pd88c2aa17a)" style="fill: none; stroke: #2ca02c; stroke-width: 1.5; stroke-linecap: square"/>
   </g>
   <g id="line2d_15">
    <path d="M 44.51431 -1 
L 45.142556 43.938509 
L 45.812156 70.561686 
L 46.481756 85.043317 
L 47.151356 93.301114 
L 47.820956 99.467701 
L 48.490556 103.562874 
L 50.164556 110.545519 
L 50.499356 112.386749 
L 50.834156 113.561909 
L 51.168956 114.241554 
L 51.838556 116.981925 
L 52.842956 119.9166 
L 53.847356 123.08675 
L 54.516956 124.475565 
L 54.851756 125.643841 
L 55.521356 126.928407 
L 56.190956 128.208012 
L 56.525756 129.136788 
L 57.195356 130.14733 
L 57.530156 130.947301 
L 57.864956 131.302537 
L 58.199756 131.972363 
L 59.873756 134.01017 
L 60.208556 134.480728 
L 60.878156 135.068442 
L 61.212956 135.527061 
L 61.882556 135.934909 
L 62.217356 136.257221 
L 62.552156 136.374149 
L 62.886956 136.855238 
L 63.221756 137.07355 
L 63.556556 137.095222 
L 63.891356 137.39272 
L 64.226156 137.461677 
L 64.560956 137.766787 
L 64.895756 137.876834 
L 65.230556 138.208569 
L 65.565356 138.345268 
L 65.900156 138.332731 
L 66.234956 138.653702 
L 66.569756 138.75753 
L 66.904556 138.701417 
L 67.574156 138.965519 
L 67.908956 139.264276 
L 68.243756 139.034603 
L 68.578556 139.4481 
L 68.913356 139.351019 
L 69.248156 139.868811 
L 69.582956 139.949185 
L 69.917756 139.711007 
L 70.252556 139.761471 
L 70.587356 140.129916 
L 70.922156 140.256195 
L 71.256956 140.106879 
L 72.596156 140.653563 
L 72.930956 140.616198 
L 73.600556 140.763854 
L 73.935356 140.714676 
L 74.270156 140.872953 
L 74.604956 140.863334 
L 74.939756 141.020596 
L 75.274556 141.017508 
L 76.278956 141.375431 
L 76.613756 141.248889 
L 76.948556 141.429309 
L 77.283356 141.270903 
L 77.618156 141.534132 
L 77.952956 141.369844 
L 78.287756 141.630395 
L 78.622556 141.574801 
L 78.957356 141.683467 
L 79.292156 141.589081 
L 79.626956 141.793326 
L 79.961756 141.519156 
L 80.296556 141.790509 
L 80.966156 141.749026 
L 81.300956 141.949655 
L 81.970556 141.850056 
L 82.640156 142.075457 
L 83.309756 141.905371 
L 84.314156 141.913215 
L 84.648956 142.142149 
L 85.318556 142.166398 
L 85.653356 142.209116 
L 85.988156 142.128758 
L 86.322956 142.215048 
L 86.657756 142.003876 
L 86.992556 142.310642 
L 87.662156 142.138963 
L 87.996956 142.215607 
L 88.331756 142.415953 
L 88.666556 142.349812 
L 89.336156 142.502503 
L 89.670956 142.258498 
L 90.005756 142.404796 
L 90.340556 142.311307 
L 90.675356 142.635016 
L 91.679756 142.465729 
L 92.014556 142.440587 
L 92.349356 142.189431 
L 93.018956 142.70446 
L 93.353756 142.361598 
L 93.688556 142.699613 
L 94.023356 142.445693 
L 94.692956 142.840846 
L 95.027756 142.667347 
L 96.032156 142.569906 
L 96.366956 142.766409 
L 97.036556 142.668199 
L 97.371356 142.846424 
L 97.706156 142.487373 
L 98.040956 142.922374 
L 98.375756 142.824902 
L 99.045356 142.805211 
L 99.380156 142.689088 
L 100.384556 142.991228 
L 101.388956 142.869853 
L 101.723756 142.983712 
L 102.058556 142.846586 
L 102.393356 142.833476 
L 102.728156 143.012217 
L 103.062956 143.01098 
L 103.397756 142.81195 
L 104.736956 143.082386 
L 105.071756 142.983576 
L 106.410956 143.0531 
L 106.745756 142.869115 
L 107.080556 142.864694 
L 108.084956 143.190305 
L 108.419756 142.795701 
L 109.089356 143.095285 
L 109.424156 143.006135 
L 109.758956 142.728344 
L 110.093756 143.146025 
L 110.428556 142.849149 
L 110.763356 143.173741 
L 111.098156 143.105533 
L 111.767756 143.239217 
L 112.102556 142.991251 
L 112.437356 143.261788 
L 112.772156 142.998678 
L 113.776556 143.162866 
L 114.111356 143.128222 
L 114.446156 143.214577 
L 114.780956 142.903696 
L 115.115756 143.042304 
L 115.450556 143.337132 
L 115.785356 143.252911 
L 116.120156 142.981987 
L 116.454956 143.323483 
L 116.789756 143.102899 
L 117.124556 143.052475 
L 117.459356 143.162714 
L 117.794156 142.938934 
L 118.463756 143.223395 
L 118.798556 143.210696 
L 119.133356 143.320915 
L 119.802956 143.093417 
L 120.137756 143.225921 
L 120.472556 143.119196 
L 121.476956 143.342976 
L 121.811756 143.115873 
L 122.146556 143.299764 
L 122.481356 143.232465 
L 122.816156 143.309898 
L 123.150956 143.182581 
L 124.155356 143.383771 
L 124.824956 143.366595 
L 125.159756 143.330482 
L 125.494556 143.424225 
L 126.164156 143.293851 
L 126.498956 143.436353 
L 126.833756 143.193295 
L 127.168556 143.236534 
L 127.503356 143.116515 
L 127.838156 143.364728 
L 128.507756 143.404673 
L 128.842556 143.213647 
L 129.177356 143.43238 
L 129.846956 143.327044 
L 130.181756 143.169321 
L 130.516556 143.380842 
L 131.520956 143.52251 
L 132.190556 143.313411 
L 132.525356 143.227004 
L 132.860156 143.519577 
L 133.194956 143.365738 
L 133.864556 143.408261 
L 134.534156 143.364829 
L 135.203756 143.538774 
L 135.873356 143.513527 
L 136.208156 143.248375 
L 136.542956 143.534709 
L 137.882156 143.290913 
L 138.216956 143.321668 
L 138.886556 143.570139 
L 139.221356 143.551678 
L 139.556156 143.354858 
L 139.890956 143.609825 
L 140.225756 143.452728 
L 140.895356 143.627358 
L 141.230156 143.50579 
L 142.234556 143.624541 
L 142.569356 143.471756 
L 142.904156 143.674809 
L 143.238956 143.535309 
L 143.573756 143.652458 
L 143.908556 143.488304 
L 144.578156 143.534506 
L 145.247756 143.294793 
L 145.917356 143.588829 
L 146.252156 143.565812 
L 146.586956 143.655202 
L 148.595756 143.554595 
L 148.930556 143.662596 
L 149.265356 143.321084 
L 149.934956 143.553487 
L 151.274156 143.535456 
L 151.943756 143.638945 
L 152.278556 143.461524 
L 152.613356 143.580316 
L 152.948156 143.411613 
L 153.282956 143.653446 
L 154.622156 143.535588 
L 154.956956 143.417126 
L 155.961356 143.639032 
L 156.296156 143.555452 
L 156.630956 143.669941 
L 156.965756 143.3025 
L 157.300556 143.679636 
L 158.304956 143.663518 
L 158.639756 143.772519 
L 158.974556 143.739411 
L 159.309356 143.581308 
L 159.644156 143.780293 
L 159.978956 143.756667 
L 160.313756 143.606121 
L 161.318156 143.683237 
L 161.652956 143.628269 
L 161.987756 143.705204 
L 162.322556 143.562187 
L 162.657356 143.713271 
L 162.992156 143.730224 
L 163.326956 143.633576 
L 163.661756 143.800163 
L 163.996556 143.688845 
L 164.666156 143.781734 
L 165.335756 143.565727 
L 165.670556 143.449756 
L 166.340156 143.72913 
L 166.674956 143.80784 
L 168.014156 143.661123 
L 168.348956 143.797867 
L 168.683756 143.770942 
L 169.018556 143.38999 
L 169.353356 143.539406 
L 169.688156 143.889433 
L 170.022956 143.677065 
L 170.357756 143.789832 
L 170.692556 143.698794 
L 172.366556 143.765908 
L 172.701356 143.722094 
L 173.036156 143.795161 
L 173.370956 143.604541 
L 173.705756 143.799091 
L 175.044956 143.736001 
L 175.714556 143.897584 
L 176.049356 143.596811 
L 176.384156 143.654095 
L 176.718956 143.853503 
L 177.388556 143.757712 
L 178.392956 143.650283 
L 178.727756 143.871724 
L 179.062556 143.554242 
L 180.401756 143.799592 
L 180.736556 143.715269 
L 181.071356 143.867446 
L 182.075756 143.704347 
L 182.410556 143.896897 
L 183.414956 143.722271 
L 183.749756 143.865314 
L 184.084556 143.630432 
L 184.754156 143.850955 
L 185.088956 143.9221 
L 185.423756 143.628719 
L 185.758556 143.842564 
L 186.093356 143.649836 
L 186.762956 143.915605 
L 187.432556 143.915625 
L 188.102156 143.814984 
L 188.436956 143.804014 
L 188.771756 143.640352 
L 189.106556 143.930294 
L 189.441356 143.919195 
L 189.776156 143.637319 
L 190.110956 143.952755 
L 190.780556 143.655725 
L 191.115356 143.93804 
L 191.450156 143.956618 
L 191.784956 143.699581 
L 192.119756 144.011474 
L 192.454556 143.917781 
L 193.458956 143.982082 
L 197.811356 143.979986 
L 198.146156 143.72437 
L 198.480956 143.609728 
L 199.150556 143.976455 
L 199.485356 143.668113 
L 200.154956 144.065259 
L 201.828956 143.851675 
L 202.163756 143.948666 
L 202.498556 143.814889 
L 203.502956 144.012991 
L 204.172556 143.938929 
L 204.507356 144.032505 
L 204.842156 143.813031 
L 205.176956 144.032971 
L 205.846556 143.916953 
L 206.850956 144.034706 
L 206.850956 144.034706 
" clip-path="url(#pd88c2aa17a)" style="fill: none; stroke: #d62728; stroke-width: 1.5; stroke-linecap: square"/>
   </g>
   <g id="patch_3">
    <path d="M 39.785756 149.259249 
L 39.785756 10.659249 
" style="fill: none; stroke: #000000; stroke-width: 0.8; stroke-linejoin: miter; stroke-linecap: square"/>
   </g>
   <g id="patch_4">
    <path d="M 207.185756 149.259249 
L 207.185756 10.659249 
" style="fill: none; stroke: #000000; stroke-width: 0.8; stroke-linejoin: miter; stroke-linecap: square"/>
   </g>
   <g id="patch_5">
    <path d="M 39.785756 149.259249 
L 207.185756 149.259249 
" style="fill: none; stroke: #000000; stroke-width: 0.8; stroke-linejoin: miter; stroke-linecap: square"/>
   </g>
   <g id="patch_6">
    <path d="M 39.785756 10.659249 
L 207.185756 10.659249 
" style="fill: none; stroke: #000000; stroke-width: 0.8; stroke-linejoin: miter; stroke-linecap: square"/>
   </g>
  </g>
 </g>
 <defs>
  <clipPath id="pd88c2aa17a">
   <rect x="39.785756" y="10.659249" width="167.4" height="138.6"/>
  </clipPath>
 </defs>
</svg>
