<?xml version="1.0" encoding="utf-8" standalone="no"?>
<!DOCTYPE svg PUBLIC "-//W3C//DTD SVG 1.1//EN"
  "http://www.w3.org/Graphics/SVG/1.1/DTD/svg11.dtd">
<svg xmlns:xlink="http://www.w3.org/1999/xlink" width="221.857759pt" height="185.170603pt" viewBox="0 0 221.857759 185.170603" xmlns="http://www.w3.org/2000/svg" version="1.1">
 <metadata>
  <rdf:RDF xmlns:dc="http://purl.org/dc/elements/1.1/" xmlns:cc="http://creativecommons.org/ns#" xmlns:rdf="http://www.w3.org/1999/02/22-rdf-syntax-ns#">
   <cc:Work>
    <dc:type rdf:resource="http://purl.org/dc/dcmitype/StillImage"/>
    <dc:date>2025-06-05T19:55:47.391130</dc:date>
    <dc:format>image/svg+xml</dc:format>
    <dc:creator>
     <cc:Agent>
      <dc:title>Matplotlib v3.9.2, https://matplotlib.org/</dc:title>
     </cc:Agent>
    </dc:creator>
   </cc:Work>
  </rdf:RDF>
 </metadata>
 <defs>
  <style type="text/css">*{stroke-linejoin: round; stroke-linecap: butt}</style>
 </defs>
 <g id="figure_1">
  <g id="patch_1">
   <path d="M 0 185.170603 
L 221.857759 185.170603 
L 221.857759 -0 
L 0 -0 
z
" style="fill: #ffffff"/>
  </g>
  <g id="axes_1">
   <g id="patch_2">
    <path d="M 39.785756 149.259249 
L 207.185756 149.259249 
L 207.185756 10.659249 
L 39.785756 10.659249 
z
" style="fill: #ffffff"/>
   </g>
   <g id="matplotlib.axis_1">
    <g id="xtick_1">
     <g id="line2d_1">
      <defs>
       <path id="m272b659e33" d="M 0 0 
L 0 3.5 
" style="stroke: #000000; stroke-width: 0.8"/>
      </defs>
      <g>
       <use xlink:href="#m272b659e33" x="39.785756" y="149.259249" style="stroke: #000000; stroke-width: 0.8"/>
      </g>
     </g>
     <g id="text_1">
      <!-- $\mathdefault{0}$ -->
      <g transform="translate(37.295088 163.177748) scale(0.1 -0.1)">
       <defs>
        <path id="CMR17-30" d="M 2688 2038 
C 2688 2430 2682 3099 2413 3613 
C 2176 4063 1798 4224 1466 4224 
C 1158 4224 768 4082 525 3620 
C 269 3137 243 2539 243 2038 
C 243 1671 250 1112 448 623 
C 723 -39 1216 -128 1466 -128 
C 1760 -128 2208 -7 2470 604 
C 2662 1048 2688 1568 2688 2038 
z
M 1466 -26 
C 1056 -26 813 328 723 816 
C 653 1196 653 1749 653 2109 
C 653 2604 653 3015 736 3407 
C 858 3954 1216 4121 1466 4121 
C 1728 4121 2067 3947 2189 3420 
C 2272 3054 2278 2623 2278 2109 
C 2278 1691 2278 1176 2202 797 
C 2067 96 1690 -26 1466 -26 
z
" transform="scale(0.015625)"/>
       </defs>
       <use xlink:href="#CMR17-30" transform="scale(0.996264)"/>
      </g>
     </g>
    </g>
    <g id="xtick_2">
     <g id="line2d_2">
      <g>
       <use xlink:href="#m272b659e33" x="73.265756" y="149.259249" style="stroke: #000000; stroke-width: 0.8"/>
      </g>
     </g>
     <g id="text_2">
      <!-- $\mathdefault{100}$ -->
      <g transform="translate(65.793753 163.177748) scale(0.1 -0.1)">
       <defs>
        <path id="CMR17-31" d="M 1702 4083 
C 1702 4217 1696 4224 1606 4224 
C 1357 3927 979 3833 621 3820 
C 602 3820 570 3820 563 3808 
C 557 3795 557 3782 557 3648 
C 755 3648 1088 3686 1344 3839 
L 1344 467 
C 1344 243 1331 166 781 166 
L 589 166 
L 589 0 
C 896 6 1216 12 1523 12 
C 1830 12 2150 6 2458 0 
L 2458 166 
L 2266 166 
C 1715 166 1702 236 1702 467 
L 1702 4083 
z
" transform="scale(0.015625)"/>
       </defs>
       <use xlink:href="#CMR17-31" transform="scale(0.996264)"/>
       <use xlink:href="#CMR17-30" transform="translate(45.690477 0) scale(0.996264)"/>
       <use xlink:href="#CMR17-30" transform="translate(91.380954 0) scale(0.996264)"/>
      </g>
     </g>
    </g>
    <g id="xtick_3">
     <g id="line2d_3">
      <g>
       <use xlink:href="#m272b659e33" x="106.745756" y="149.259249" style="stroke: #000000; stroke-width: 0.8"/>
      </g>
     </g>
     <g id="text_3">
      <!-- $\mathdefault{200}$ -->
      <g transform="translate(99.273753 163.177748) scale(0.1 -0.1)">
       <defs>
        <path id="CMR17-32" d="M 2669 990 
L 2554 990 
C 2490 537 2438 460 2413 422 
C 2381 371 1920 371 1830 371 
L 602 371 
C 832 620 1280 1073 1824 1596 
C 2214 1966 2669 2400 2669 3033 
C 2669 3788 2067 4224 1395 4224 
C 691 4224 262 3603 262 3027 
C 262 2777 448 2745 525 2745 
C 589 2745 781 2783 781 3007 
C 781 3206 614 3264 525 3264 
C 486 3264 448 3257 422 3244 
C 544 3788 915 4057 1306 4057 
C 1862 4057 2227 3616 2227 3033 
C 2227 2477 1901 1998 1536 1583 
L 262 147 
L 262 0 
L 2515 0 
L 2669 990 
z
" transform="scale(0.015625)"/>
       </defs>
       <use xlink:href="#CMR17-32" transform="scale(0.996264)"/>
       <use xlink:href="#CMR17-30" transform="translate(45.690477 0) scale(0.996264)"/>
       <use xlink:href="#CMR17-30" transform="translate(91.380954 0) scale(0.996264)"/>
      </g>
     </g>
    </g>
    <g id="xtick_4">
     <g id="line2d_4">
      <g>
       <use xlink:href="#m272b659e33" x="140.225756" y="149.259249" style="stroke: #000000; stroke-width: 0.8"/>
      </g>
     </g>
     <g id="text_4">
      <!-- $\mathdefault{300}$ -->
      <g transform="translate(132.753753 163.177748) scale(0.1 -0.1)">
       <defs>
        <path id="CMR17-33" d="M 1414 2176 
C 1984 2176 2234 1673 2234 1094 
C 2234 322 1824 25 1453 25 
C 1114 25 563 193 390 691 
C 422 678 454 678 486 678 
C 640 678 755 780 755 947 
C 755 1132 614 1216 486 1216 
C 378 1216 211 1164 211 927 
C 211 335 787 -128 1466 -128 
C 2176 -128 2720 432 2720 1087 
C 2720 1718 2208 2176 1600 2246 
C 2086 2347 2554 2776 2554 3353 
C 2554 3856 2048 4224 1472 4224 
C 890 4224 378 3862 378 3347 
C 378 3123 544 3084 627 3084 
C 762 3084 877 3167 877 3334 
C 877 3500 762 3584 627 3584 
C 602 3584 570 3584 544 3571 
C 730 3999 1235 4076 1459 4076 
C 1683 4076 2106 3966 2106 3347 
C 2106 3167 2080 2851 1862 2574 
C 1670 2329 1453 2316 1242 2297 
C 1210 2297 1062 2284 1037 2284 
C 992 2278 966 2272 966 2227 
C 966 2182 973 2176 1101 2176 
L 1414 2176 
z
" transform="scale(0.015625)"/>
       </defs>
       <use xlink:href="#CMR17-33" transform="scale(0.996264)"/>
       <use xlink:href="#CMR17-30" transform="translate(45.690477 0) scale(0.996264)"/>
       <use xlink:href="#CMR17-30" transform="translate(91.380954 0) scale(0.996264)"/>
      </g>
     </g>
    </g>
    <g id="xtick_5">
     <g id="line2d_5">
      <g>
       <use xlink:href="#m272b659e33" x="173.705756" y="149.259249" style="stroke: #000000; stroke-width: 0.8"/>
      </g>
     </g>
     <g id="text_5">
      <!-- $\mathdefault{400}$ -->
      <g transform="translate(166.233753 163.177748) scale(0.1 -0.1)">
       <defs>
        <path id="CMR17-34" d="M 2150 4147 
C 2150 4281 2144 4288 2029 4288 
L 128 1254 
L 128 1088 
L 1779 1088 
L 1779 460 
C 1779 230 1766 166 1318 166 
L 1197 166 
L 1197 0 
C 1402 12 1747 12 1965 12 
C 2182 12 2528 12 2733 0 
L 2733 166 
L 2611 166 
C 2163 166 2150 230 2150 460 
L 2150 1088 
L 2803 1088 
L 2803 1254 
L 2150 1254 
L 2150 4147 
z
M 1798 3723 
L 1798 1254 
L 256 1254 
L 1798 3723 
z
" transform="scale(0.015625)"/>
       </defs>
       <use xlink:href="#CMR17-34" transform="scale(0.996264)"/>
       <use xlink:href="#CMR17-30" transform="translate(45.690477 0) scale(0.996264)"/>
       <use xlink:href="#CMR17-30" transform="translate(91.380954 0) scale(0.996264)"/>
      </g>
     </g>
    </g>
    <g id="xtick_6">
     <g id="line2d_6">
      <g>
       <use xlink:href="#m272b659e33" x="207.185756" y="149.259249" style="stroke: #000000; stroke-width: 0.8"/>
      </g>
     </g>
     <g id="text_6">
      <!-- $\mathdefault{500}$ -->
      <g transform="translate(199.713753 163.177748) scale(0.1 -0.1)">
       <defs>
        <path id="CMR17-35" d="M 730 3750 
C 794 3724 1056 3641 1325 3641 
C 1920 3641 2246 3961 2432 4140 
C 2432 4191 2432 4224 2394 4224 
C 2387 4224 2374 4224 2323 4198 
C 2099 4102 1837 4032 1517 4032 
C 1325 4032 1037 4055 723 4191 
C 653 4224 640 4224 634 4224 
C 602 4224 595 4217 595 4090 
L 595 2231 
C 595 2113 595 2080 659 2080 
C 691 2080 704 2093 736 2139 
C 941 2435 1222 2560 1542 2560 
C 1766 2560 2246 2415 2246 1293 
C 2246 1087 2246 716 2054 422 
C 1894 159 1645 25 1370 25 
C 947 25 518 319 403 812 
C 429 806 480 793 506 793 
C 589 793 749 838 749 1036 
C 749 1209 627 1280 506 1280 
C 358 1280 262 1190 262 1011 
C 262 454 704 -128 1382 -128 
C 2042 -128 2669 441 2669 1267 
C 2669 2054 2170 2662 1549 2662 
C 1222 2662 947 2540 730 2304 
L 730 3750 
z
" transform="scale(0.015625)"/>
       </defs>
       <use xlink:href="#CMR17-35" transform="scale(0.996264)"/>
       <use xlink:href="#CMR17-30" transform="translate(45.690477 0) scale(0.996264)"/>
       <use xlink:href="#CMR17-30" transform="translate(91.380954 0) scale(0.996264)"/>
      </g>
     </g>
    </g>
    <g id="text_7">
     <!-- $Epoch$ -->
     <g transform="translate(109.574954 176.033424) scale(0.1 -0.1)">
      <defs>
       <path id="CMMI12-45" d="M 4448 1489 
C 4454 1508 4474 1553 4474 1578 
C 4474 1611 4448 1643 4410 1643 
C 4384 1643 4371 1636 4352 1617 
C 4339 1611 4339 1598 4282 1469 
C 3904 570 3629 185 2605 185 
L 1670 185 
C 1581 185 1568 185 1530 192 
C 1459 198 1453 211 1453 262 
C 1453 307 1466 346 1478 403 
L 1920 2176 
L 2554 2176 
C 3053 2176 3091 2066 3091 1874 
C 3091 1810 3091 1752 3046 1559 
C 3034 1534 3027 1508 3027 1489 
C 3027 1444 3059 1424 3098 1424 
C 3155 1424 3162 1469 3187 1559 
L 3552 3036 
C 3552 3068 3526 3099 3488 3099 
C 3430 3099 3424 3074 3398 2986 
C 3270 2500 3142 2361 2573 2361 
L 1965 2361 
L 2362 3913 
C 2419 4134 2432 4153 2694 4153 
L 3610 4153 
C 4397 4153 4557 3945 4557 3465 
C 4557 3459 4557 3282 4531 3074 
C 4525 3049 4518 3011 4518 2998 
C 4518 2948 4550 2929 4589 2929 
C 4634 2929 4659 2954 4672 3068 
L 4806 4172 
C 4806 4191 4819 4255 4819 4268 
C 4819 4339 4762 4339 4646 4339 
L 1523 4339 
C 1402 4339 1338 4339 1338 4223 
C 1338 4153 1382 4153 1491 4153 
C 1888 4153 1888 4109 1888 4039 
C 1888 4008 1882 3983 1862 3913 
L 998 474 
C 941 249 928 185 480 185 
C 358 185 294 185 294 70 
C 294 0 333 0 461 0 
L 3674 0 
C 3814 0 3821 6 3866 108 
L 4448 1489 
z
" transform="scale(0.015625)"/>
       <path id="CMMI12-70" d="M 275 -794 
C 230 -981 205 -1031 -58 -1031 
C -135 -1031 -199 -1031 -199 -1152 
C -199 -1165 -192 -1216 -122 -1216 
C -39 -1216 51 -1204 134 -1204 
L 410 -1204 
C 544 -1204 870 -1216 1005 -1216 
C 1043 -1216 1120 -1216 1120 -1101 
C 1120 -1031 1075 -1031 966 -1031 
C 672 -1031 653 -987 653 -937 
C 653 -863 941 217 979 364 
C 1050 185 1222 -64 1555 -64 
C 2278 -64 3059 874 3059 1813 
C 3059 2400 2726 2816 2246 2816 
C 1837 2816 1491 2419 1421 2330 
C 1370 2649 1120 2816 864 2816 
C 678 2816 531 2726 410 2483 
C 294 2253 205 1864 205 1838 
C 205 1813 230 1781 275 1781 
C 326 1781 333 1787 371 1934 
C 467 2311 589 2687 845 2687 
C 992 2687 1043 2585 1043 2394 
C 1043 2241 1024 2177 998 2062 
L 275 -794 
z
M 1382 1992 
C 1427 2170 1606 2356 1709 2445 
C 1779 2509 1990 2687 2234 2687 
C 2515 2687 2643 2407 2643 2075 
C 2643 1768 2464 1047 2304 715 
C 2144 370 1850 64 1555 64 
C 1120 64 1050 613 1050 638 
C 1050 657 1062 708 1069 740 
L 1382 1992 
z
" transform="scale(0.015625)"/>
       <path id="CMMI12-6f" d="M 2918 1755 
C 2918 2362 2522 2816 1939 2816 
C 1094 2816 262 1896 262 996 
C 262 389 659 -64 1242 -64 
C 2093 -64 2918 855 2918 1755 
z
M 1248 64 
C 928 64 691 319 691 766 
C 691 1060 845 1711 1024 2030 
C 1312 2522 1670 2687 1933 2687 
C 2246 2687 2490 2432 2490 1985 
C 2490 1730 2355 1047 2112 657 
C 1850 230 1498 64 1248 64 
z
" transform="scale(0.015625)"/>
       <path id="CMMI12-63" d="M 2502 2432 
C 2381 2432 2323 2432 2234 2355 
C 2195 2323 2125 2227 2125 2124 
C 2125 1996 2221 1919 2342 1919 
C 2496 1919 2669 2047 2669 2303 
C 2669 2591 2374 2816 1933 2816 
C 1094 2816 256 1932 256 1011 
C 256 446 602 -64 1254 -64 
C 2125 -64 2675 622 2675 706 
C 2675 745 2637 777 2611 777 
C 2592 777 2586 771 2528 712 
C 2118 161 1510 64 1267 64 
C 826 64 685 453 685 777 
C 685 1004 794 1634 1024 2073 
C 1190 2374 1536 2687 1939 2687 
C 2022 2687 2374 2676 2502 2432 
z
" transform="scale(0.015625)"/>
       <path id="CMMI12-68" d="M 1798 4255 
C 1805 4281 1818 4319 1818 4351 
C 1818 4416 1754 4416 1741 4416 
C 1734 4416 1421 4390 1389 4383 
C 1280 4377 1184 4364 1069 4358 
C 909 4345 864 4339 864 4223 
C 864 4159 915 4159 1005 4159 
C 1318 4159 1325 4103 1325 4040 
C 1325 4002 1312 3951 1306 3932 
L 378 249 
C 352 153 352 140 352 102 
C 352 -39 461 -64 525 -64 
C 634 -64 717 19 749 89 
L 1037 1245 
C 1069 1385 1107 1519 1139 1660 
C 1210 1928 1210 1934 1331 2119 
C 1453 2305 1741 2687 2234 2687 
C 2490 2687 2579 2496 2579 2241 
C 2579 1883 2330 1187 2189 804 
C 2131 651 2099 568 2099 453 
C 2099 166 2298 -64 2605 -64 
C 3200 -64 3424 874 3424 913 
C 3424 945 3398 970 3360 970 
C 3302 970 3296 951 3264 842 
C 3117 332 2880 64 2624 64 
C 2560 64 2458 70 2458 274 
C 2458 440 2534 645 2560 715 
C 2675 1021 2963 1775 2963 2145 
C 2963 2528 2739 2816 2253 2816 
C 1888 2816 1568 2643 1306 2311 
L 1798 4255 
z
" transform="scale(0.015625)"/>
      </defs>
      <use xlink:href="#CMMI12-45" transform="scale(0.996264)"/>
      <use xlink:href="#CMMI12-70" transform="translate(78.051636 0) scale(0.996264)"/>
      <use xlink:href="#CMMI12-6f" transform="translate(127.01115 0) scale(0.996264)"/>
      <use xlink:href="#CMMI12-63" transform="translate(173.90646 0) scale(0.996264)"/>
      <use xlink:href="#CMMI12-68" transform="translate(215.889693 0) scale(0.996264)"/>
     </g>
    </g>
   </g>
   <g id="matplotlib.axis_2">
    <g id="ytick_1">
     <g id="line2d_7">
      <defs>
       <path id="m91b8c2a1dc" d="M 0 0 
L -3.5 0 
" style="stroke: #000000; stroke-width: 0.8"/>
      </defs>
      <g>
       <use xlink:href="#m91b8c2a1dc" x="39.785756" y="133.859249" style="stroke: #000000; stroke-width: 0.8"/>
      </g>
     </g>
     <g id="text_8">
      <!-- $\mathdefault{0.2}$ -->
      <g transform="translate(20.055677 137.318498) scale(0.1 -0.1)">
       <defs>
        <path id="CMMI12-3a" d="M 1178 307 
C 1178 492 1024 620 870 620 
C 685 620 557 467 557 313 
C 557 128 710 0 864 0 
C 1050 0 1178 153 1178 307 
z
" transform="scale(0.015625)"/>
       </defs>
       <use xlink:href="#CMR17-30" transform="scale(0.996264)"/>
       <use xlink:href="#CMMI12-3a" transform="translate(45.690477 0) scale(0.996264)"/>
       <use xlink:href="#CMR17-32" transform="translate(72.787654 0) scale(0.996264)"/>
      </g>
     </g>
    </g>
    <g id="ytick_2">
     <g id="line2d_8">
      <g>
       <use xlink:href="#m91b8c2a1dc" x="39.785756" y="103.059249" style="stroke: #000000; stroke-width: 0.8"/>
      </g>
     </g>
     <g id="text_9">
      <!-- $\mathdefault{0.4}$ -->
      <g transform="translate(20.055677 106.518498) scale(0.1 -0.1)">
       <use xlink:href="#CMR17-30" transform="scale(0.996264)"/>
       <use xlink:href="#CMMI12-3a" transform="translate(45.690477 0) scale(0.996264)"/>
       <use xlink:href="#CMR17-34" transform="translate(72.787654 0) scale(0.996264)"/>
      </g>
     </g>
    </g>
    <g id="ytick_3">
     <g id="line2d_9">
      <g>
       <use xlink:href="#m91b8c2a1dc" x="39.785756" y="72.259249" style="stroke: #000000; stroke-width: 0.8"/>
      </g>
     </g>
     <g id="text_10">
      <!-- $\mathdefault{0.6}$ -->
      <g transform="translate(20.055677 75.718498) scale(0.1 -0.1)">
       <defs>
        <path id="CMR17-36" d="M 678 2198 
C 678 3712 1395 4076 1811 4076 
C 1946 4076 2272 4049 2400 3782 
C 2298 3782 2106 3782 2106 3558 
C 2106 3385 2246 3328 2336 3328 
C 2394 3328 2566 3353 2566 3571 
C 2566 3987 2246 4224 1805 4224 
C 1043 4224 243 3411 243 2011 
C 243 257 966 -128 1478 -128 
C 2099 -128 2688 431 2688 1295 
C 2688 2101 2170 2688 1517 2688 
C 1126 2688 838 2430 678 1979 
L 678 2198 
z
M 1478 25 
C 691 25 691 1212 691 1450 
C 691 1914 909 2585 1504 2585 
C 1613 2585 1926 2585 2138 2140 
C 2253 1889 2253 1624 2253 1302 
C 2253 954 2253 696 2118 438 
C 1978 173 1773 25 1478 25 
z
" transform="scale(0.015625)"/>
       </defs>
       <use xlink:href="#CMR17-30" transform="scale(0.996264)"/>
       <use xlink:href="#CMMI12-3a" transform="translate(45.690477 0) scale(0.996264)"/>
       <use xlink:href="#CMR17-36" transform="translate(72.787654 0) scale(0.996264)"/>
      </g>
     </g>
    </g>
    <g id="ytick_4">
     <g id="line2d_10">
      <g>
       <use xlink:href="#m91b8c2a1dc" x="39.785756" y="41.459249" style="stroke: #000000; stroke-width: 0.8"/>
      </g>
     </g>
     <g id="text_11">
      <!-- $\mathdefault{0.8}$ -->
      <g transform="translate(20.055677 44.918498) scale(0.1 -0.1)">
       <defs>
        <path id="CMR17-38" d="M 1741 2289 
C 2144 2494 2554 2803 2554 3298 
C 2554 3884 1990 4224 1472 4224 
C 890 4224 378 3800 378 3215 
C 378 3054 416 2777 666 2533 
C 730 2469 998 2276 1171 2154 
C 883 2006 211 1652 211 945 
C 211 282 838 -128 1459 -128 
C 2144 -128 2720 366 2720 1022 
C 2720 1607 2330 1877 2074 2051 
L 1741 2289 
z
M 902 2855 
C 851 2887 595 3086 595 3388 
C 595 3781 998 4076 1459 4076 
C 1965 4076 2336 3716 2336 3298 
C 2336 2700 1670 2359 1638 2359 
C 1632 2359 1626 2359 1574 2398 
L 902 2855 
z
M 2080 1536 
C 2176 1466 2483 1253 2483 861 
C 2483 385 2010 25 1472 25 
C 890 25 448 443 448 951 
C 448 1459 838 1884 1280 2083 
L 2080 1536 
z
" transform="scale(0.015625)"/>
       </defs>
       <use xlink:href="#CMR17-30" transform="scale(0.996264)"/>
       <use xlink:href="#CMMI12-3a" transform="translate(45.690477 0) scale(0.996264)"/>
       <use xlink:href="#CMR17-38" transform="translate(72.787654 0) scale(0.996264)"/>
      </g>
     </g>
    </g>
    <g id="ytick_5">
     <g id="line2d_11">
      <g>
       <use xlink:href="#m91b8c2a1dc" x="39.785756" y="10.659249" style="stroke: #000000; stroke-width: 0.8"/>
      </g>
     </g>
     <g id="text_12">
      <!-- $\mathdefault{1.0}$ -->
      <g transform="translate(20.055677 14.118498) scale(0.1 -0.1)">
       <use xlink:href="#CMR17-31" transform="scale(0.996264)"/>
       <use xlink:href="#CMMI12-3a" transform="translate(45.690477 0) scale(0.996264)"/>
       <use xlink:href="#CMR17-30" transform="translate(72.787654 0) scale(0.996264)"/>
      </g>
     </g>
    </g>
    <g id="text_13">
     <!-- $Loss$ -->
     <g transform="translate(14.118498 90.43387) rotate(-90) scale(0.1 -0.1)">
      <defs>
       <path id="CMMI12-4c" d="M 2349 3860 
C 2406 4102 2426 4166 2989 4166 
C 3162 4166 3206 4166 3206 4287 
C 3206 4352 3136 4352 3110 4352 
C 2982 4352 2835 4339 2707 4339 
L 1850 4339 
C 1728 4339 1587 4352 1466 4352 
C 1414 4352 1344 4352 1344 4230 
C 1344 4166 1402 4166 1498 4166 
C 1888 4166 1888 4115 1888 4045 
C 1888 4032 1888 3994 1862 3898 
L 998 472 
C 941 249 928 185 480 185 
C 358 185 294 185 294 70 
C 294 0 333 0 461 0 
L 3328 0 
C 3469 0 3475 6 3520 121 
L 4013 1478 
C 4026 1510 4038 1548 4038 1567 
C 4038 1605 4006 1631 3974 1631 
C 3968 1631 3936 1631 3923 1605 
C 3910 1599 3910 1586 3859 1465 
C 3654 905 3366 185 2285 185 
L 1670 185 
C 1581 185 1568 185 1530 191 
C 1459 198 1453 211 1453 262 
C 1453 306 1466 344 1478 402 
L 2349 3860 
z
" transform="scale(0.015625)"/>
       <path id="CMMI12-73" d="M 1459 1290 
C 1568 1271 1741 1233 1779 1227 
C 1862 1201 2150 1099 2150 793 
C 2150 595 1971 64 1229 64 
C 1094 64 614 83 486 447 
C 742 414 870 614 870 755 
C 870 889 781 960 653 960 
C 512 960 326 851 326 563 
C 326 176 710 -64 1222 -64 
C 2195 -64 2483 665 2483 998 
C 2483 1093 2483 1271 2278 1475 
C 2118 1627 1965 1659 1619 1729 
C 1446 1767 1171 1824 1171 2111 
C 1171 2239 1286 2687 1894 2687 
C 2163 2687 2426 2589 2490 2368 
C 2208 2368 2195 2124 2195 2118 
C 2195 1983 2317 1945 2374 1945 
C 2464 1945 2643 2015 2643 2284 
C 2643 2546 2400 2816 1901 2816 
C 1062 2816 838 2169 838 1907 
C 838 1424 1312 1322 1459 1290 
z
" transform="scale(0.015625)"/>
      </defs>
      <use xlink:href="#CMMI12-4c" transform="scale(0.996264)"/>
      <use xlink:href="#CMMI12-6f" transform="translate(66.370875 0) scale(0.996264)"/>
      <use xlink:href="#CMMI12-73" transform="translate(113.266185 0) scale(0.996264)"/>
      <use xlink:href="#CMMI12-73" transform="translate(159.216233 0) scale(0.996264)"/>
     </g>
    </g>
   </g>
   <g id="line2d_12">
    <path d="M 40.410429 -1 
L 40.455356 29.480823 
L 40.790156 39.243124 
L 41.459756 49.965928 
L 42.129356 58.987567 
L 42.798956 65.732481 
L 44.138156 75.482951 
L 45.142556 80.223909 
L 45.812156 82.547299 
L 47.486156 87.127017 
L 50.164556 91.313905 
L 50.499356 91.70633 
L 50.834156 92.288217 
L 51.168956 92.592615 
L 51.838556 93.427433 
L 53.177756 94.796787 
L 55.856156 97.068219 
L 56.860556 97.865907 
L 57.864956 98.476717 
L 60.878156 100.112408 
L 61.547756 100.397438 
L 61.882556 100.542564 
L 62.217356 100.525473 
L 62.552156 100.772845 
L 63.221756 100.917779 
L 64.895756 101.849758 
L 65.565356 102.094115 
L 73.600556 104.823846 
L 73.935356 104.896361 
L 74.604956 104.727667 
L 75.274556 105.042883 
L 75.944156 105.349438 
L 77.283356 105.633797 
L 77.952956 105.539491 
L 78.957356 105.839465 
L 79.292156 106.095424 
L 82.640156 107.125541 
L 83.644556 107.282701 
L 85.988156 107.93759 
L 88.331756 108.508077 
L 89.336156 108.75611 
L 91.344956 109.231396 
L 92.014556 109.404417 
L 92.349356 109.411995 
L 93.018956 109.704395 
L 93.688556 109.778104 
L 94.023356 109.794107 
L 94.358156 109.951777 
L 94.692956 109.952511 
L 95.027756 110.117924 
L 95.697356 110.165173 
L 99.045356 110.759388 
L 100.719356 110.976754 
L 102.393356 111.185781 
L 104.736956 111.530176 
L 105.406556 111.629885 
L 107.750156 111.998761 
L 108.084956 111.987792 
L 108.754556 112.205158 
L 109.089356 112.272629 
L 109.424156 112.212198 
L 113.106956 112.919408 
L 114.780956 113.297588 
L 115.115756 113.152305 
L 115.785356 113.428739 
L 116.789756 113.649194 
L 117.459356 113.951095 
L 118.798556 113.936472 
L 119.133356 113.918527 
L 119.802956 114.308383 
L 127.503356 115.873986 
L 127.838156 115.892955 
L 128.172956 116.0287 
L 128.842556 116.130244 
L 130.516556 116.44098 
L 142.234556 118.298002 
L 142.569356 118.251492 
L 143.238956 118.432417 
L 147.256556 118.936662 
L 147.926156 119.13014 
L 148.260956 119.090798 
L 149.265356 119.237288 
L 150.269756 119.410456 
L 157.970156 120.410975 
L 158.639756 120.480631 
L 176.384156 122.541755 
L 177.053756 122.585636 
L 182.410556 123.145213 
L 182.745356 123.240341 
L 183.080156 123.169042 
L 183.749756 123.312048 
L 188.436956 123.739258 
L 190.110956 123.955435 
L 191.115356 123.943204 
L 191.450156 124.048636 
L 192.119756 124.063923 
L 192.454556 124.172774 
L 193.124156 124.119232 
L 193.458956 124.267131 
L 195.132956 124.333321 
L 195.467756 124.422395 
L 196.137356 124.418214 
L 196.472156 124.547952 
L 197.141756 124.557305 
L 197.476556 124.656724 
L 198.146156 124.625089 
L 199.485356 124.706461 
L 200.154956 124.869432 
L 200.824556 124.853956 
L 202.498556 125.037561 
L 203.168156 125.054602 
L 203.837756 125.184211 
L 204.507356 125.218193 
L 206.516156 125.375706 
L 206.850956 125.46674 
L 206.850956 125.46674 
" clip-path="url(#p172bf0611b)" style="fill: none; stroke: #1f77b4; stroke-width: 1.5; stroke-linecap: square"/>
   </g>
   <g id="line2d_13">
    <path d="M 40.115516 -1 
L 40.120556 13.908665 
L 40.455356 35.876509 
L 41.124956 56.408713 
L 41.794556 68.141669 
L 42.464156 74.955702 
L 43.133756 80.369609 
L 43.468556 81.488213 
L 43.803356 83.024852 
L 44.472956 85.187066 
L 45.142556 87.341028 
L 47.151356 91.839437 
L 48.490556 94.080632 
L 50.834156 97.904698 
L 51.168956 98.235903 
L 51.503756 98.852281 
L 53.512556 100.888938 
L 56.860556 103.541326 
L 57.530156 103.852654 
L 58.199756 104.291884 
L 59.873756 105.200208 
L 60.543356 105.540345 
L 61.212956 105.93976 
L 61.547756 105.992301 
L 61.882556 106.19807 
L 62.217356 106.253406 
L 62.552156 106.509379 
L 63.221756 106.697941 
L 64.560956 107.175099 
L 65.230556 107.516081 
L 65.900156 107.762696 
L 67.574156 108.359962 
L 67.908956 108.360045 
L 69.248156 108.866562 
L 70.252556 109.114761 
L 71.256956 109.48015 
L 72.261356 109.783267 
L 73.935356 110.279306 
L 74.939756 110.55205 
L 76.278956 110.950323 
L 76.948556 111.170094 
L 77.952956 111.439478 
L 78.287756 111.581639 
L 78.957356 111.690054 
L 79.292156 111.85743 
L 79.626956 111.887694 
L 79.961756 112.079689 
L 80.296556 112.093063 
L 80.631356 112.253867 
L 81.635756 112.431722 
L 86.992556 113.956327 
L 89.336156 114.581411 
L 90.340556 114.834438 
L 91.679756 115.276178 
L 92.684156 115.561956 
L 93.688556 115.787831 
L 94.023356 115.815254 
L 94.358156 115.98895 
L 94.692956 116.028934 
L 95.027756 116.221567 
L 95.697356 116.318168 
L 96.032156 116.401684 
L 96.366956 116.603189 
L 97.036556 116.720906 
L 98.375756 117.09451 
L 99.045356 117.291779 
L 100.719356 117.717047 
L 103.062956 118.408253 
L 104.402156 118.718443 
L 105.071756 118.99254 
L 107.415356 119.601423 
L 108.754556 120.003184 
L 111.767756 120.844757 
L 113.441756 121.408745 
L 114.111356 121.606849 
L 114.780956 121.801051 
L 116.789756 122.359876 
L 117.794156 122.724089 
L 122.146556 124.099658 
L 123.150956 124.469287 
L 124.155356 124.366187 
L 125.159756 124.626433 
L 126.164156 124.73332 
L 126.498956 124.848738 
L 127.168556 124.396864 
L 127.503356 124.01884 
L 127.838156 123.861533 
L 130.516556 123.907654 
L 130.851356 123.24371 
L 131.520956 122.558893 
L 131.855756 122.555193 
L 133.864556 123.1538 
L 134.868956 123.444705 
L 135.873356 123.737092 
L 136.208156 123.696616 
L 136.542956 122.614449 
L 136.877756 123.828355 
L 137.547356 124.280229 
L 137.882156 124.311916 
L 138.216956 124.509863 
L 138.551756 124.489949 
L 139.556156 124.772822 
L 140.560556 124.984047 
L 141.230156 125.212231 
L 142.904156 125.582016 
L 145.247756 126.188604 
L 153.617756 128.076528 
L 154.956956 128.298958 
L 155.626556 128.450154 
L 160.983356 129.690508 
L 161.652956 129.812025 
L 161.987756 129.990961 
L 162.322556 129.724551 
L 165.335756 130.33339 
L 172.366556 131.834003 
L 173.036156 131.912287 
L 173.705756 132.069929 
L 174.710156 132.081899 
L 175.714556 130.768108 
L 176.049356 131.166675 
L 176.384156 131.072983 
L 176.718956 131.185703 
L 177.053756 131.700185 
L 177.388556 131.878504 
L 177.723356 131.892846 
L 179.397356 132.444084 
L 180.401756 132.673773 
L 181.406156 132.87913 
L 182.075756 132.926247 
L 188.436956 134.0966 
L 188.771756 134.076002 
L 189.106556 133.883452 
L 189.441356 134.119986 
L 189.776156 134.552836 
L 190.445756 134.673517 
L 190.780556 134.500896 
L 191.450156 134.654107 
L 191.784956 134.481193 
L 192.454556 134.777534 
L 193.793756 135.011831 
L 196.137356 135.235363 
L 196.806956 135.305719 
L 198.480956 135.478947 
L 200.154956 135.691398 
L 200.824556 135.689064 
L 201.828956 135.840857 
L 204.842156 136.153796 
L 206.181356 136.289277 
L 206.850956 136.35049 
L 206.850956 136.35049 
" clip-path="url(#p172bf0611b)" style="fill: none; stroke: #ff7f0e; stroke-width: 1.5; stroke-linecap: square"/>
   </g>
   <g id="line2d_14">
    <path d="M 40.113828 -1 
L 40.120556 16.739651 
L 40.455356 44.994097 
L 41.124956 61.704098 
L 41.794556 70.877926 
L 42.464156 76.965405 
L 43.468556 82.951419 
L 44.472956 86.473565 
L 44.807756 85.139454 
L 45.142556 86.931896 
L 45.477356 85.615712 
L 45.812156 88.494182 
L 46.146956 90.378677 
L 46.481756 90.550758 
L 46.816556 90.923003 
L 47.151356 90.947566 
L 47.486156 93.241528 
L 47.820956 94.425584 
L 48.155756 94.985734 
L 48.490556 75.135925 
L 48.825356 93.5532 
L 49.160156 95.387624 
L 49.494956 93.060167 
L 49.829756 93.795763 
L 50.834156 96.937471 
L 51.168956 96.131095 
L 51.503756 98.33065 
L 52.508156 100.781552 
L 52.842956 101.345131 
L 53.177756 101.395323 
L 53.512556 101.059257 
L 53.847356 101.396387 
L 54.182156 102.067647 
L 54.851756 102.715656 
L 55.186556 103.240114 
L 55.521356 103.527117 
L 55.856156 102.54458 
L 56.190956 103.414687 
L 56.860556 104.513748 
L 57.195356 104.656703 
L 57.530156 102.539508 
L 57.864956 105.034254 
L 58.869356 106.960964 
L 59.873756 107.920558 
L 60.208556 107.427915 
L 60.543356 106.301344 
L 60.878156 106.099133 
L 61.212956 106.470579 
L 61.547756 104.184374 
L 61.882556 104.146941 
L 62.217356 104.454052 
L 62.552156 103.31217 
L 62.886956 93.05572 
L 63.221756 93.722876 
L 63.556556 96.94979 
L 63.891356 98.628251 
L 64.226156 98.67701 
L 65.230556 100.195796 
L 65.900156 101.053309 
L 66.234956 101.164578 
L 66.569756 101.697237 
L 67.239356 101.932172 
L 67.574156 102.003687 
L 67.908956 101.766058 
L 68.243756 101.922768 
L 68.578556 100.511108 
L 68.913356 102.814662 
L 69.248156 100.550142 
L 69.582956 101.687627 
L 69.917756 101.892133 
L 70.252556 102.397021 
L 70.587356 102.441512 
L 70.922156 102.12375 
L 71.256956 103.052309 
L 71.591756 102.667075 
L 71.926556 103.247058 
L 72.261356 104.173786 
L 72.930956 104.649792 
L 73.265756 104.850433 
L 73.600556 105.244667 
L 73.935356 105.201686 
L 74.270156 106.904628 
L 74.939756 103.062782 
L 75.274556 107.797797 
L 75.609356 108.970479 
L 75.944156 109.331296 
L 76.006609 -1 
M 76.635004 -1 
L 76.948556 51.986958 
L 77.283356 69.769925 
L 77.618156 79.351489 
L 77.952956 82.553256 
L 78.622556 91.270533 
L 78.957356 94.387655 
L 79.292156 89.688981 
L 79.626956 96.560425 
L 79.961756 93.27522 
L 80.296556 78.23306 
L 80.631356 70.120603 
L 80.966156 96.032502 
L 81.635756 92.984719 
L 81.970556 93.659917 
L 82.305356 93.057799 
L 82.640156 98.576834 
L 82.974956 98.829232 
L 83.309756 97.637324 
L 83.644556 79.435092 
L 83.979356 98.930721 
L 84.314156 102.676337 
L 84.648956 95.433065 
L 84.983756 98.46897 
L 85.318556 99.677373 
L 85.988156 64.144586 
L 86.264186 -1 
M 86.365593 -1 
L 86.657756 94.040515 
L 86.992556 98.694125 
L 87.327356 100.574384 
L 87.662156 86.344882 
L 87.996956 100.472344 
L 88.331756 102.275655 
L 89.001356 104.381973 
L 92.684156 111.200509 
L 93.018956 111.455509 
L 93.353756 111.872048 
L 94.023356 112.380814 
L 94.358156 112.908425 
L 94.692956 112.978572 
L 95.027756 113.369538 
L 95.362556 113.494948 
L 95.697356 113.806212 
L 96.032156 113.961527 
L 96.366956 114.472886 
L 96.701756 114.53418 
L 97.036556 114.88568 
L 97.706156 115.109114 
L 98.375756 115.784972 
L 99.380156 116.282957 
L 99.714956 116.745424 
L 100.049756 116.79785 
L 103.062956 118.539477 
L 103.397756 118.563857 
L 103.732556 118.867746 
L 104.067356 118.892176 
L 104.402156 119.231399 
L 104.736956 119.36351 
L 105.071756 119.708016 
L 105.406556 119.700273 
L 106.076156 120.198479 
L 106.745756 120.381542 
L 107.750156 121.045307 
L 108.084956 120.92551 
L 108.419756 121.369747 
L 108.754556 121.383603 
L 109.424156 121.778755 
L 110.428556 122.203698 
L 112.102556 122.970548 
L 112.437356 122.967685 
L 112.772156 123.161368 
L 113.106956 123.493561 
L 113.441756 123.556378 
L 113.776556 123.436214 
L 114.111356 123.860583 
L 115.115756 124.226385 
L 116.120156 124.546905 
L 116.454956 124.870157 
L 116.789756 124.751205 
L 117.459356 125.226665 
L 118.128956 125.338604 
L 119.468156 125.833542 
L 119.802956 126.224465 
L 120.807356 126.413951 
L 123.150956 127.115816 
L 123.485756 127.424597 
L 123.820556 127.303274 
L 124.155356 127.425338 
L 124.490156 127.758196 
L 124.824956 127.759938 
L 125.829356 128.099854 
L 126.164156 128.076514 
L 126.498956 128.360952 
L 126.833756 128.309707 
L 127.168556 128.53756 
L 128.172956 128.631772 
L 128.842556 128.982518 
L 129.177356 129.05431 
L 129.512156 129.274388 
L 129.846956 128.892787 
L 130.181756 129.54774 
L 130.516556 129.670451 
L 130.851356 129.408482 
L 131.186156 129.67122 
L 131.855756 129.713244 
L 132.190556 130.063808 
L 132.860156 130.092181 
L 133.194956 129.794096 
L 133.529756 130.293497 
L 133.864556 130.387861 
L 134.199356 130.297474 
L 134.534156 130.459717 
L 134.868956 130.461934 
L 135.203756 130.619911 
L 135.538556 130.967093 
L 135.873356 130.733404 
L 136.208156 130.750287 
L 137.547356 131.391026 
L 137.882156 131.30572 
L 138.216956 131.685538 
L 138.551756 131.383793 
L 139.221356 131.697156 
L 139.556156 131.81134 
L 139.890956 131.651825 
L 140.225756 131.911466 
L 140.560556 131.802349 
L 140.895356 131.818594 
L 141.230156 132.177093 
L 141.564956 132.041986 
L 141.899756 132.571281 
L 142.234556 132.390889 
L 142.569356 132.031545 
L 142.904156 132.617002 
L 143.238956 132.50828 
L 143.573756 132.519034 
L 143.908556 132.705627 
L 144.243356 132.724933 
L 144.578156 132.998034 
L 144.912956 132.891458 
L 145.582556 133.147027 
L 145.917356 133.038246 
L 146.252156 133.325779 
L 146.586956 133.070127 
L 146.921756 133.29924 
L 147.256556 133.050876 
L 147.591356 133.241614 
L 147.926156 133.628043 
L 148.260956 133.396452 
L 149.265356 133.503838 
L 150.604556 133.977976 
L 150.939356 133.909936 
L 151.274156 134.015626 
L 151.608956 133.979826 
L 152.278556 134.181073 
L 152.613356 134.23229 
L 152.948156 134.552738 
L 153.282956 134.636612 
L 153.617756 134.58075 
L 153.952556 134.161889 
L 154.622156 134.879126 
L 154.956956 134.703624 
L 155.626556 134.765661 
L 156.965756 135.148667 
L 157.300556 134.841673 
L 157.635356 135.007099 
L 157.970156 134.570458 
L 158.974556 135.51517 
L 159.644156 135.2709 
L 159.978956 135.554113 
L 160.313756 135.471815 
L 160.983356 135.716923 
L 161.318156 135.720211 
L 161.652956 135.403646 
L 162.322556 135.943511 
L 162.657356 135.486967 
L 162.992156 136.092 
L 163.326956 135.861342 
L 163.996556 136.004952 
L 164.331356 135.932148 
L 166.340156 136.282962 
L 167.009756 136.577166 
L 167.679356 136.243815 
L 168.014156 136.672262 
L 168.348956 136.620301 
L 168.683756 136.054879 
L 169.018556 136.730297 
L 169.353356 136.709403 
L 169.688156 136.910059 
L 170.022956 136.585703 
L 170.692556 136.917411 
L 171.362156 136.874512 
L 171.696956 137.164279 
L 172.031756 136.680895 
L 172.366556 136.968747 
L 172.701356 136.759549 
L 173.370956 137.146221 
L 174.375356 137.075815 
L 175.044956 137.390764 
L 175.379756 136.248623 
L 175.714556 137.609964 
L 176.049356 137.545315 
L 176.384156 137.813775 
L 176.718956 137.391829 
L 177.723356 137.225616 
L 178.058156 137.649113 
L 178.392956 137.693071 
L 178.727756 137.953586 
L 179.062556 137.740495 
L 180.066956 137.934296 
L 180.401756 138.177928 
L 180.736556 137.943113 
L 181.071356 138.121564 
L 181.406156 138.0016 
L 181.740956 138.125931 
L 182.075756 137.648475 
L 182.410556 138.165293 
L 182.745356 138.025746 
L 183.080156 138.010293 
L 183.749756 138.259593 
L 184.419356 138.180069 
L 184.754156 138.430824 
L 185.088956 137.74615 
L 185.423756 138.251765 
L 185.758556 138.204848 
L 186.093356 138.496256 
L 186.428156 138.243598 
L 187.097756 138.651995 
L 187.432556 138.756796 
L 187.767356 138.712674 
L 188.102156 138.542227 
L 188.436956 138.602355 
L 188.771756 138.066597 
L 189.106556 138.648789 
L 189.441356 138.413412 
L 189.776156 138.842209 
L 190.110956 138.916845 
L 190.445756 138.397995 
L 190.780556 139.217025 
L 191.115356 138.910013 
L 191.450156 138.870245 
L 191.784956 138.593885 
L 192.454556 139.000765 
L 192.789356 138.726032 
L 193.458956 139.242401 
L 194.128556 139.085591 
L 194.463356 138.889512 
L 194.798156 138.942895 
L 195.132956 139.241726 
L 195.802556 139.202974 
L 196.137356 139.386584 
L 196.806956 139.256984 
L 197.141756 139.56216 
L 197.476556 139.578056 
L 197.811356 139.280524 
L 198.480956 139.681869 
L 198.815756 139.710827 
L 199.150556 139.564509 
L 199.485356 139.576555 
L 199.820156 139.81068 
L 200.154956 139.79108 
L 200.489756 139.6137 
L 201.159356 139.748158 
L 201.494156 139.602626 
L 201.828956 139.801021 
L 202.163756 139.545061 
L 202.833356 140.001998 
L 203.168156 140.037475 
L 203.502956 139.755031 
L 203.837756 140.064145 
L 204.172556 139.737201 
L 204.507356 139.989856 
L 204.842156 139.950659 
L 205.176956 140.251899 
L 205.511756 140.383461 
L 206.181356 140.049642 
L 206.516156 139.940945 
L 206.850956 140.057444 
L 206.850956 140.057444 
" clip-path="url(#p172bf0611b)" style="fill: none; stroke: #2ca02c; stroke-width: 1.5; stroke-linecap: square"/>
   </g>
   <g id="line2d_15">
    <path d="M 40.676973 -1 
L 40.790156 23.544845 
L 41.124956 36.614758 
L 41.459756 41.737687 
L 42.129356 47.74942 
L 43.133756 54.413017 
L 44.807756 63.639212 
L 46.146956 69.746334 
L 47.486156 74.966919 
L 49.160156 80.240358 
L 50.499356 83.81577 
L 50.834156 84.707677 
L 51.168956 85.272064 
L 51.838556 86.736408 
L 52.842956 88.683386 
L 53.847356 90.32586 
L 55.186556 92.201342 
L 56.190956 93.345312 
L 57.864956 94.960689 
L 61.212956 97.226265 
L 61.547756 97.32025 
L 62.552156 97.901797 
L 64.560956 98.777306 
L 65.230556 99.07716 
L 66.234956 99.503378 
L 67.239356 99.838223 
L 67.574156 100.068688 
L 67.908956 99.986324 
L 68.578556 100.257534 
L 70.922156 100.970508 
L 71.926556 101.274755 
L 73.935356 101.858285 
L 75.274556 102.141144 
L 75.944156 102.372054 
L 76.278956 102.414062 
L 76.613756 102.597098 
L 76.948556 102.571108 
L 77.618156 102.740618 
L 78.622556 103.018975 
L 79.626956 103.204081 
L 79.961756 103.365055 
L 80.296556 103.359089 
L 80.631356 103.519783 
L 81.635756 103.691341 
L 83.644556 104.137276 
L 85.988156 104.700561 
L 86.657756 104.802468 
L 87.327356 104.995606 
L 88.666556 105.320179 
L 89.670956 105.486427 
L 91.344956 105.891666 
L 93.688556 106.414123 
L 94.692956 106.626817 
L 95.362556 106.773045 
L 98.710556 107.620796 
L 99.714956 107.777001 
L 103.732556 108.703119 
L 104.736956 108.952061 
L 106.076156 109.280582 
L 106.745756 109.422826 
L 109.089356 109.967662 
L 110.093756 110.220514 
L 113.776556 111.091369 
L 133.194956 115.986238 
L 133.529756 116.139777 
L 134.199356 116.227772 
L 135.538556 116.65126 
L 136.542956 116.834617 
L 142.234556 118.433165 
L 142.569356 118.399147 
L 143.573756 118.706886 
L 147.926156 119.907147 
L 148.260956 119.909837 
L 148.595756 120.084015 
L 149.600156 120.264486 
L 150.269756 120.478878 
L 151.943756 120.908144 
L 160.983356 123.250163 
L 161.652956 123.419967 
L 171.362156 125.884601 
L 172.031756 125.988141 
L 173.705756 126.414855 
L 176.384156 127.070247 
L 187.767356 129.67608 
L 188.436956 129.775527 
L 190.445756 130.21302 
L 195.132956 131.166229 
L 195.802556 131.315087 
L 198.480956 131.828998 
L 199.150556 131.978244 
L 200.154956 132.16788 
L 200.824556 132.266124 
L 203.837756 132.849032 
L 204.507356 132.956877 
L 206.850956 133.382164 
L 206.850956 133.382164 
" clip-path="url(#p172bf0611b)" style="fill: none; stroke: #d62728; stroke-width: 1.5; stroke-linecap: square"/>
   </g>
   <g id="patch_3">
    <path d="M 39.785756 149.259249 
L 39.785756 10.659249 
" style="fill: none; stroke: #000000; stroke-width: 0.8; stroke-linejoin: miter; stroke-linecap: square"/>
   </g>
   <g id="patch_4">
    <path d="M 207.185756 149.259249 
L 207.185756 10.659249 
" style="fill: none; stroke: #000000; stroke-width: 0.8; stroke-linejoin: miter; stroke-linecap: square"/>
   </g>
   <g id="patch_5">
    <path d="M 39.785756 149.259249 
L 207.185756 149.259249 
" style="fill: none; stroke: #000000; stroke-width: 0.8; stroke-linejoin: miter; stroke-linecap: square"/>
   </g>
   <g id="patch_6">
    <path d="M 39.785756 10.659249 
L 207.185756 10.659249 
" style="fill: none; stroke: #000000; stroke-width: 0.8; stroke-linejoin: miter; stroke-linecap: square"/>
   </g>
  </g>
 </g>
 <defs>
  <clipPath id="p172bf0611b">
   <rect x="39.785756" y="10.659249" width="167.4" height="138.6"/>
  </clipPath>
 </defs>
</svg>
