<?xml version="1.0" encoding="utf-8" standalone="no"?>
<!DOCTYPE svg PUBLIC "-//W3C//DTD SVG 1.1//EN"
  "http://www.w3.org/Graphics/SVG/1.1/DTD/svg11.dtd">
<svg xmlns:xlink="http://www.w3.org/1999/xlink" width="221.857759pt" height="185.170603pt" viewBox="0 0 221.857759 185.170603" xmlns="http://www.w3.org/2000/svg" version="1.1">
 <metadata>
  <rdf:RDF xmlns:dc="http://purl.org/dc/elements/1.1/" xmlns:cc="http://creativecommons.org/ns#" xmlns:rdf="http://www.w3.org/1999/02/22-rdf-syntax-ns#">
   <cc:Work>
    <dc:type rdf:resource="http://purl.org/dc/dcmitype/StillImage"/>
    <dc:date>2025-06-05T18:32:06.890450</dc:date>
    <dc:format>image/svg+xml</dc:format>
    <dc:creator>
     <cc:Agent>
      <dc:title>Matplotlib v3.9.2, https://matplotlib.org/</dc:title>
     </cc:Agent>
    </dc:creator>
   </cc:Work>
  </rdf:RDF>
 </metadata>
 <defs>
  <style type="text/css">*{stroke-linejoin: round; stroke-linecap: butt}</style>
 </defs>
 <g id="figure_1">
  <g id="patch_1">
   <path d="M 0 185.170603 
L 221.857759 185.170603 
L 221.857759 -0 
L 0 -0 
z
" style="fill: #ffffff"/>
  </g>
  <g id="axes_1">
   <g id="patch_2">
    <path d="M 39.785756 149.259249 
L 207.185756 149.259249 
L 207.185756 10.659249 
L 39.785756 10.659249 
z
" style="fill: #ffffff"/>
   </g>
   <g id="matplotlib.axis_1">
    <g id="xtick_1">
     <g id="line2d_1">
      <defs>
       <path id="mc007c42763" d="M 0 0 
L 0 3.5 
" style="stroke: #000000; stroke-width: 0.8"/>
      </defs>
      <g>
       <use xlink:href="#mc007c42763" x="39.785756" y="149.259249" style="stroke: #000000; stroke-width: 0.8"/>
      </g>
     </g>
     <g id="text_1">
      <!-- $\mathdefault{0}$ -->
      <g transform="translate(37.295088 163.177748) scale(0.1 -0.1)">
       <defs>
        <path id="CMR17-30" d="M 2688 2038 
C 2688 2430 2682 3099 2413 3613 
C 2176 4063 1798 4224 1466 4224 
C 1158 4224 768 4082 525 3620 
C 269 3137 243 2539 243 2038 
C 243 1671 250 1112 448 623 
C 723 -39 1216 -128 1466 -128 
C 1760 -128 2208 -7 2470 604 
C 2662 1048 2688 1568 2688 2038 
z
M 1466 -26 
C 1056 -26 813 328 723 816 
C 653 1196 653 1749 653 2109 
C 653 2604 653 3015 736 3407 
C 858 3954 1216 4121 1466 4121 
C 1728 4121 2067 3947 2189 3420 
C 2272 3054 2278 2623 2278 2109 
C 2278 1691 2278 1176 2202 797 
C 2067 96 1690 -26 1466 -26 
z
" transform="scale(0.015625)"/>
       </defs>
       <use xlink:href="#CMR17-30" transform="scale(0.996264)"/>
      </g>
     </g>
    </g>
    <g id="xtick_2">
     <g id="line2d_2">
      <g>
       <use xlink:href="#mc007c42763" x="73.265756" y="149.259249" style="stroke: #000000; stroke-width: 0.8"/>
      </g>
     </g>
     <g id="text_2">
      <!-- $\mathdefault{100}$ -->
      <g transform="translate(65.793753 163.177748) scale(0.1 -0.1)">
       <defs>
        <path id="CMR17-31" d="M 1702 4083 
C 1702 4217 1696 4224 1606 4224 
C 1357 3927 979 3833 621 3820 
C 602 3820 570 3820 563 3808 
C 557 3795 557 3782 557 3648 
C 755 3648 1088 3686 1344 3839 
L 1344 467 
C 1344 243 1331 166 781 166 
L 589 166 
L 589 0 
C 896 6 1216 12 1523 12 
C 1830 12 2150 6 2458 0 
L 2458 166 
L 2266 166 
C 1715 166 1702 236 1702 467 
L 1702 4083 
z
" transform="scale(0.015625)"/>
       </defs>
       <use xlink:href="#CMR17-31" transform="scale(0.996264)"/>
       <use xlink:href="#CMR17-30" transform="translate(45.690477 0) scale(0.996264)"/>
       <use xlink:href="#CMR17-30" transform="translate(91.380954 0) scale(0.996264)"/>
      </g>
     </g>
    </g>
    <g id="xtick_3">
     <g id="line2d_3">
      <g>
       <use xlink:href="#mc007c42763" x="106.745756" y="149.259249" style="stroke: #000000; stroke-width: 0.8"/>
      </g>
     </g>
     <g id="text_3">
      <!-- $\mathdefault{200}$ -->
      <g transform="translate(99.273753 163.177748) scale(0.1 -0.1)">
       <defs>
        <path id="CMR17-32" d="M 2669 990 
L 2554 990 
C 2490 537 2438 460 2413 422 
C 2381 371 1920 371 1830 371 
L 602 371 
C 832 620 1280 1073 1824 1596 
C 2214 1966 2669 2400 2669 3033 
C 2669 3788 2067 4224 1395 4224 
C 691 4224 262 3603 262 3027 
C 262 2777 448 2745 525 2745 
C 589 2745 781 2783 781 3007 
C 781 3206 614 3264 525 3264 
C 486 3264 448 3257 422 3244 
C 544 3788 915 4057 1306 4057 
C 1862 4057 2227 3616 2227 3033 
C 2227 2477 1901 1998 1536 1583 
L 262 147 
L 262 0 
L 2515 0 
L 2669 990 
z
" transform="scale(0.015625)"/>
       </defs>
       <use xlink:href="#CMR17-32" transform="scale(0.996264)"/>
       <use xlink:href="#CMR17-30" transform="translate(45.690477 0) scale(0.996264)"/>
       <use xlink:href="#CMR17-30" transform="translate(91.380954 0) scale(0.996264)"/>
      </g>
     </g>
    </g>
    <g id="xtick_4">
     <g id="line2d_4">
      <g>
       <use xlink:href="#mc007c42763" x="140.225756" y="149.259249" style="stroke: #000000; stroke-width: 0.8"/>
      </g>
     </g>
     <g id="text_4">
      <!-- $\mathdefault{300}$ -->
      <g transform="translate(132.753753 163.177748) scale(0.1 -0.1)">
       <defs>
        <path id="CMR17-33" d="M 1414 2176 
C 1984 2176 2234 1673 2234 1094 
C 2234 322 1824 25 1453 25 
C 1114 25 563 193 390 691 
C 422 678 454 678 486 678 
C 640 678 755 780 755 947 
C 755 1132 614 1216 486 1216 
C 378 1216 211 1164 211 927 
C 211 335 787 -128 1466 -128 
C 2176 -128 2720 432 2720 1087 
C 2720 1718 2208 2176 1600 2246 
C 2086 2347 2554 2776 2554 3353 
C 2554 3856 2048 4224 1472 4224 
C 890 4224 378 3862 378 3347 
C 378 3123 544 3084 627 3084 
C 762 3084 877 3167 877 3334 
C 877 3500 762 3584 627 3584 
C 602 3584 570 3584 544 3571 
C 730 3999 1235 4076 1459 4076 
C 1683 4076 2106 3966 2106 3347 
C 2106 3167 2080 2851 1862 2574 
C 1670 2329 1453 2316 1242 2297 
C 1210 2297 1062 2284 1037 2284 
C 992 2278 966 2272 966 2227 
C 966 2182 973 2176 1101 2176 
L 1414 2176 
z
" transform="scale(0.015625)"/>
       </defs>
       <use xlink:href="#CMR17-33" transform="scale(0.996264)"/>
       <use xlink:href="#CMR17-30" transform="translate(45.690477 0) scale(0.996264)"/>
       <use xlink:href="#CMR17-30" transform="translate(91.380954 0) scale(0.996264)"/>
      </g>
     </g>
    </g>
    <g id="xtick_5">
     <g id="line2d_5">
      <g>
       <use xlink:href="#mc007c42763" x="173.705756" y="149.259249" style="stroke: #000000; stroke-width: 0.8"/>
      </g>
     </g>
     <g id="text_5">
      <!-- $\mathdefault{400}$ -->
      <g transform="translate(166.233753 163.177748) scale(0.1 -0.1)">
       <defs>
        <path id="CMR17-34" d="M 2150 4147 
C 2150 4281 2144 4288 2029 4288 
L 128 1254 
L 128 1088 
L 1779 1088 
L 1779 460 
C 1779 230 1766 166 1318 166 
L 1197 166 
L 1197 0 
C 1402 12 1747 12 1965 12 
C 2182 12 2528 12 2733 0 
L 2733 166 
L 2611 166 
C 2163 166 2150 230 2150 460 
L 2150 1088 
L 2803 1088 
L 2803 1254 
L 2150 1254 
L 2150 4147 
z
M 1798 3723 
L 1798 1254 
L 256 1254 
L 1798 3723 
z
" transform="scale(0.015625)"/>
       </defs>
       <use xlink:href="#CMR17-34" transform="scale(0.996264)"/>
       <use xlink:href="#CMR17-30" transform="translate(45.690477 0) scale(0.996264)"/>
       <use xlink:href="#CMR17-30" transform="translate(91.380954 0) scale(0.996264)"/>
      </g>
     </g>
    </g>
    <g id="xtick_6">
     <g id="line2d_6">
      <g>
       <use xlink:href="#mc007c42763" x="207.185756" y="149.259249" style="stroke: #000000; stroke-width: 0.8"/>
      </g>
     </g>
     <g id="text_6">
      <!-- $\mathdefault{500}$ -->
      <g transform="translate(199.713753 163.177748) scale(0.1 -0.1)">
       <defs>
        <path id="CMR17-35" d="M 730 3750 
C 794 3724 1056 3641 1325 3641 
C 1920 3641 2246 3961 2432 4140 
C 2432 4191 2432 4224 2394 4224 
C 2387 4224 2374 4224 2323 4198 
C 2099 4102 1837 4032 1517 4032 
C 1325 4032 1037 4055 723 4191 
C 653 4224 640 4224 634 4224 
C 602 4224 595 4217 595 4090 
L 595 2231 
C 595 2113 595 2080 659 2080 
C 691 2080 704 2093 736 2139 
C 941 2435 1222 2560 1542 2560 
C 1766 2560 2246 2415 2246 1293 
C 2246 1087 2246 716 2054 422 
C 1894 159 1645 25 1370 25 
C 947 25 518 319 403 812 
C 429 806 480 793 506 793 
C 589 793 749 838 749 1036 
C 749 1209 627 1280 506 1280 
C 358 1280 262 1190 262 1011 
C 262 454 704 -128 1382 -128 
C 2042 -128 2669 441 2669 1267 
C 2669 2054 2170 2662 1549 2662 
C 1222 2662 947 2540 730 2304 
L 730 3750 
z
" transform="scale(0.015625)"/>
       </defs>
       <use xlink:href="#CMR17-35" transform="scale(0.996264)"/>
       <use xlink:href="#CMR17-30" transform="translate(45.690477 0) scale(0.996264)"/>
       <use xlink:href="#CMR17-30" transform="translate(91.380954 0) scale(0.996264)"/>
      </g>
     </g>
    </g>
    <g id="text_7">
     <!-- $Epoch$ -->
     <g transform="translate(109.574954 176.033424) scale(0.1 -0.1)">
      <defs>
       <path id="CMMI12-45" d="M 4448 1489 
C 4454 1508 4474 1553 4474 1578 
C 4474 1611 4448 1643 4410 1643 
C 4384 1643 4371 1636 4352 1617 
C 4339 1611 4339 1598 4282 1469 
C 3904 570 3629 185 2605 185 
L 1670 185 
C 1581 185 1568 185 1530 192 
C 1459 198 1453 211 1453 262 
C 1453 307 1466 346 1478 403 
L 1920 2176 
L 2554 2176 
C 3053 2176 3091 2066 3091 1874 
C 3091 1810 3091 1752 3046 1559 
C 3034 1534 3027 1508 3027 1489 
C 3027 1444 3059 1424 3098 1424 
C 3155 1424 3162 1469 3187 1559 
L 3552 3036 
C 3552 3068 3526 3099 3488 3099 
C 3430 3099 3424 3074 3398 2986 
C 3270 2500 3142 2361 2573 2361 
L 1965 2361 
L 2362 3913 
C 2419 4134 2432 4153 2694 4153 
L 3610 4153 
C 4397 4153 4557 3945 4557 3465 
C 4557 3459 4557 3282 4531 3074 
C 4525 3049 4518 3011 4518 2998 
C 4518 2948 4550 2929 4589 2929 
C 4634 2929 4659 2954 4672 3068 
L 4806 4172 
C 4806 4191 4819 4255 4819 4268 
C 4819 4339 4762 4339 4646 4339 
L 1523 4339 
C 1402 4339 1338 4339 1338 4223 
C 1338 4153 1382 4153 1491 4153 
C 1888 4153 1888 4109 1888 4039 
C 1888 4008 1882 3983 1862 3913 
L 998 474 
C 941 249 928 185 480 185 
C 358 185 294 185 294 70 
C 294 0 333 0 461 0 
L 3674 0 
C 3814 0 3821 6 3866 108 
L 4448 1489 
z
" transform="scale(0.015625)"/>
       <path id="CMMI12-70" d="M 275 -794 
C 230 -981 205 -1031 -58 -1031 
C -135 -1031 -199 -1031 -199 -1152 
C -199 -1165 -192 -1216 -122 -1216 
C -39 -1216 51 -1204 134 -1204 
L 410 -1204 
C 544 -1204 870 -1216 1005 -1216 
C 1043 -1216 1120 -1216 1120 -1101 
C 1120 -1031 1075 -1031 966 -1031 
C 672 -1031 653 -987 653 -937 
C 653 -863 941 217 979 364 
C 1050 185 1222 -64 1555 -64 
C 2278 -64 3059 874 3059 1813 
C 3059 2400 2726 2816 2246 2816 
C 1837 2816 1491 2419 1421 2330 
C 1370 2649 1120 2816 864 2816 
C 678 2816 531 2726 410 2483 
C 294 2253 205 1864 205 1838 
C 205 1813 230 1781 275 1781 
C 326 1781 333 1787 371 1934 
C 467 2311 589 2687 845 2687 
C 992 2687 1043 2585 1043 2394 
C 1043 2241 1024 2177 998 2062 
L 275 -794 
z
M 1382 1992 
C 1427 2170 1606 2356 1709 2445 
C 1779 2509 1990 2687 2234 2687 
C 2515 2687 2643 2407 2643 2075 
C 2643 1768 2464 1047 2304 715 
C 2144 370 1850 64 1555 64 
C 1120 64 1050 613 1050 638 
C 1050 657 1062 708 1069 740 
L 1382 1992 
z
" transform="scale(0.015625)"/>
       <path id="CMMI12-6f" d="M 2918 1755 
C 2918 2362 2522 2816 1939 2816 
C 1094 2816 262 1896 262 996 
C 262 389 659 -64 1242 -64 
C 2093 -64 2918 855 2918 1755 
z
M 1248 64 
C 928 64 691 319 691 766 
C 691 1060 845 1711 1024 2030 
C 1312 2522 1670 2687 1933 2687 
C 2246 2687 2490 2432 2490 1985 
C 2490 1730 2355 1047 2112 657 
C 1850 230 1498 64 1248 64 
z
" transform="scale(0.015625)"/>
       <path id="CMMI12-63" d="M 2502 2432 
C 2381 2432 2323 2432 2234 2355 
C 2195 2323 2125 2227 2125 2124 
C 2125 1996 2221 1919 2342 1919 
C 2496 1919 2669 2047 2669 2303 
C 2669 2591 2374 2816 1933 2816 
C 1094 2816 256 1932 256 1011 
C 256 446 602 -64 1254 -64 
C 2125 -64 2675 622 2675 706 
C 2675 745 2637 777 2611 777 
C 2592 777 2586 771 2528 712 
C 2118 161 1510 64 1267 64 
C 826 64 685 453 685 777 
C 685 1004 794 1634 1024 2073 
C 1190 2374 1536 2687 1939 2687 
C 2022 2687 2374 2676 2502 2432 
z
" transform="scale(0.015625)"/>
       <path id="CMMI12-68" d="M 1798 4255 
C 1805 4281 1818 4319 1818 4351 
C 1818 4416 1754 4416 1741 4416 
C 1734 4416 1421 4390 1389 4383 
C 1280 4377 1184 4364 1069 4358 
C 909 4345 864 4339 864 4223 
C 864 4159 915 4159 1005 4159 
C 1318 4159 1325 4103 1325 4040 
C 1325 4002 1312 3951 1306 3932 
L 378 249 
C 352 153 352 140 352 102 
C 352 -39 461 -64 525 -64 
C 634 -64 717 19 749 89 
L 1037 1245 
C 1069 1385 1107 1519 1139 1660 
C 1210 1928 1210 1934 1331 2119 
C 1453 2305 1741 2687 2234 2687 
C 2490 2687 2579 2496 2579 2241 
C 2579 1883 2330 1187 2189 804 
C 2131 651 2099 568 2099 453 
C 2099 166 2298 -64 2605 -64 
C 3200 -64 3424 874 3424 913 
C 3424 945 3398 970 3360 970 
C 3302 970 3296 951 3264 842 
C 3117 332 2880 64 2624 64 
C 2560 64 2458 70 2458 274 
C 2458 440 2534 645 2560 715 
C 2675 1021 2963 1775 2963 2145 
C 2963 2528 2739 2816 2253 2816 
C 1888 2816 1568 2643 1306 2311 
L 1798 4255 
z
" transform="scale(0.015625)"/>
      </defs>
      <use xlink:href="#CMMI12-45" transform="scale(0.996264)"/>
      <use xlink:href="#CMMI12-70" transform="translate(78.051636 0) scale(0.996264)"/>
      <use xlink:href="#CMMI12-6f" transform="translate(127.01115 0) scale(0.996264)"/>
      <use xlink:href="#CMMI12-63" transform="translate(173.90646 0) scale(0.996264)"/>
      <use xlink:href="#CMMI12-68" transform="translate(215.889693 0) scale(0.996264)"/>
     </g>
    </g>
   </g>
   <g id="matplotlib.axis_2">
    <g id="ytick_1">
     <g id="line2d_7">
      <defs>
       <path id="m03342ae2cb" d="M 0 0 
L -3.5 0 
" style="stroke: #000000; stroke-width: 0.8"/>
      </defs>
      <g>
       <use xlink:href="#m03342ae2cb" x="39.785756" y="142.659249" style="stroke: #000000; stroke-width: 0.8"/>
      </g>
     </g>
     <g id="text_8">
      <!-- $\mathdefault{0.5}$ -->
      <g transform="translate(20.055677 146.118498) scale(0.1 -0.1)">
       <defs>
        <path id="CMMI12-3a" d="M 1178 307 
C 1178 492 1024 620 870 620 
C 685 620 557 467 557 313 
C 557 128 710 0 864 0 
C 1050 0 1178 153 1178 307 
z
" transform="scale(0.015625)"/>
       </defs>
       <use xlink:href="#CMR17-30" transform="scale(0.996264)"/>
       <use xlink:href="#CMMI12-3a" transform="translate(45.690477 0) scale(0.996264)"/>
       <use xlink:href="#CMR17-35" transform="translate(72.787654 0) scale(0.996264)"/>
      </g>
     </g>
    </g>
    <g id="ytick_2">
     <g id="line2d_8">
      <g>
       <use xlink:href="#m03342ae2cb" x="39.785756" y="109.659249" style="stroke: #000000; stroke-width: 0.8"/>
      </g>
     </g>
     <g id="text_9">
      <!-- $\mathdefault{1.0}$ -->
      <g transform="translate(20.055677 113.118498) scale(0.1 -0.1)">
       <use xlink:href="#CMR17-31" transform="scale(0.996264)"/>
       <use xlink:href="#CMMI12-3a" transform="translate(45.690477 0) scale(0.996264)"/>
       <use xlink:href="#CMR17-30" transform="translate(72.787654 0) scale(0.996264)"/>
      </g>
     </g>
    </g>
    <g id="ytick_3">
     <g id="line2d_9">
      <g>
       <use xlink:href="#m03342ae2cb" x="39.785756" y="76.659249" style="stroke: #000000; stroke-width: 0.8"/>
      </g>
     </g>
     <g id="text_10">
      <!-- $\mathdefault{1.5}$ -->
      <g transform="translate(20.055677 80.118498) scale(0.1 -0.1)">
       <use xlink:href="#CMR17-31" transform="scale(0.996264)"/>
       <use xlink:href="#CMMI12-3a" transform="translate(45.690477 0) scale(0.996264)"/>
       <use xlink:href="#CMR17-35" transform="translate(72.787654 0) scale(0.996264)"/>
      </g>
     </g>
    </g>
    <g id="ytick_4">
     <g id="line2d_10">
      <g>
       <use xlink:href="#m03342ae2cb" x="39.785756" y="43.659249" style="stroke: #000000; stroke-width: 0.8"/>
      </g>
     </g>
     <g id="text_11">
      <!-- $\mathdefault{2.0}$ -->
      <g transform="translate(20.055677 47.118498) scale(0.1 -0.1)">
       <use xlink:href="#CMR17-32" transform="scale(0.996264)"/>
       <use xlink:href="#CMMI12-3a" transform="translate(45.690477 0) scale(0.996264)"/>
       <use xlink:href="#CMR17-30" transform="translate(72.787654 0) scale(0.996264)"/>
      </g>
     </g>
    </g>
    <g id="ytick_5">
     <g id="line2d_11">
      <g>
       <use xlink:href="#m03342ae2cb" x="39.785756" y="10.659249" style="stroke: #000000; stroke-width: 0.8"/>
      </g>
     </g>
     <g id="text_12">
      <!-- $\mathdefault{2.5}$ -->
      <g transform="translate(20.055677 14.118498) scale(0.1 -0.1)">
       <use xlink:href="#CMR17-32" transform="scale(0.996264)"/>
       <use xlink:href="#CMMI12-3a" transform="translate(45.690477 0) scale(0.996264)"/>
       <use xlink:href="#CMR17-35" transform="translate(72.787654 0) scale(0.996264)"/>
      </g>
     </g>
    </g>
    <g id="text_13">
     <!-- $Loss$ -->
     <g transform="translate(14.118498 90.43387) rotate(-90) scale(0.1 -0.1)">
      <defs>
       <path id="CMMI12-4c" d="M 2349 3860 
C 2406 4102 2426 4166 2989 4166 
C 3162 4166 3206 4166 3206 4287 
C 3206 4352 3136 4352 3110 4352 
C 2982 4352 2835 4339 2707 4339 
L 1850 4339 
C 1728 4339 1587 4352 1466 4352 
C 1414 4352 1344 4352 1344 4230 
C 1344 4166 1402 4166 1498 4166 
C 1888 4166 1888 4115 1888 4045 
C 1888 4032 1888 3994 1862 3898 
L 998 472 
C 941 249 928 185 480 185 
C 358 185 294 185 294 70 
C 294 0 333 0 461 0 
L 3328 0 
C 3469 0 3475 6 3520 121 
L 4013 1478 
C 4026 1510 4038 1548 4038 1567 
C 4038 1605 4006 1631 3974 1631 
C 3968 1631 3936 1631 3923 1605 
C 3910 1599 3910 1586 3859 1465 
C 3654 905 3366 185 2285 185 
L 1670 185 
C 1581 185 1568 185 1530 191 
C 1459 198 1453 211 1453 262 
C 1453 306 1466 344 1478 402 
L 2349 3860 
z
" transform="scale(0.015625)"/>
       <path id="CMMI12-73" d="M 1459 1290 
C 1568 1271 1741 1233 1779 1227 
C 1862 1201 2150 1099 2150 793 
C 2150 595 1971 64 1229 64 
C 1094 64 614 83 486 447 
C 742 414 870 614 870 755 
C 870 889 781 960 653 960 
C 512 960 326 851 326 563 
C 326 176 710 -64 1222 -64 
C 2195 -64 2483 665 2483 998 
C 2483 1093 2483 1271 2278 1475 
C 2118 1627 1965 1659 1619 1729 
C 1446 1767 1171 1824 1171 2111 
C 1171 2239 1286 2687 1894 2687 
C 2163 2687 2426 2589 2490 2368 
C 2208 2368 2195 2124 2195 2118 
C 2195 1983 2317 1945 2374 1945 
C 2464 1945 2643 2015 2643 2284 
C 2643 2546 2400 2816 1901 2816 
C 1062 2816 838 2169 838 1907 
C 838 1424 1312 1322 1459 1290 
z
" transform="scale(0.015625)"/>
      </defs>
      <use xlink:href="#CMMI12-4c" transform="scale(0.996264)"/>
      <use xlink:href="#CMMI12-6f" transform="translate(66.370875 0) scale(0.996264)"/>
      <use xlink:href="#CMMI12-73" transform="translate(113.266185 0) scale(0.996264)"/>
      <use xlink:href="#CMMI12-73" transform="translate(159.216233 0) scale(0.996264)"/>
     </g>
    </g>
   </g>
   <g id="line2d_12">
    <path d="M 47.003927 -1 
L 47.820956 15.863304 
L 48.490556 30.201544 
L 49.494956 42.348944 
L 51.838556 64.727097 
L 53.177756 72.847349 
L 53.847356 77.032231 
L 54.182156 78.421545 
L 54.851756 82.94324 
L 55.856156 89.871188 
L 56.190956 90.851848 
L 56.525756 93.372656 
L 57.195356 95.714715 
L 57.530156 97.591204 
L 57.864956 98.209307 
L 58.199756 100.142342 
L 58.534556 100.708974 
L 58.869356 102.056361 
L 59.204156 102.655251 
L 59.873756 105.622801 
L 60.208556 106.475664 
L 60.543356 107.919408 
L 60.878156 108.544553 
L 63.221756 114.891553 
L 65.565356 120.335573 
L 66.234956 121.746075 
L 66.569756 121.797062 
L 67.239356 122.839839 
L 67.574156 123.426577 
L 68.243756 123.930341 
L 68.578556 124.489805 
L 68.913356 124.497595 
L 69.248156 125.532959 
L 69.582956 125.685925 
L 69.917756 125.629348 
L 70.587356 126.72727 
L 70.922156 127.040267 
L 71.256956 126.999972 
L 71.926556 127.74247 
L 72.261356 127.666116 
L 72.596156 128.011454 
L 72.930956 128.148885 
L 73.265756 128.456993 
L 73.935356 128.827708 
L 74.939756 129.605611 
L 75.274556 129.508939 
L 75.944156 130.254981 
L 76.278956 130.334446 
L 76.613756 130.157129 
L 76.948556 130.48382 
L 77.283356 130.202786 
L 77.952956 130.963847 
L 78.287756 131.200153 
L 78.622556 131.150625 
L 78.957356 131.333284 
L 79.292156 131.279004 
L 79.626956 131.624338 
L 79.961756 131.629567 
L 80.296556 131.788221 
L 80.631356 131.594138 
L 80.966156 131.722584 
L 81.300956 132.074566 
L 81.635756 131.839739 
L 81.970556 131.888776 
L 82.974956 132.390349 
L 83.309756 131.977469 
L 83.644556 132.467111 
L 83.979356 131.862552 
L 84.314156 132.742268 
L 84.648956 132.600714 
L 84.983756 132.891902 
L 85.988156 132.985183 
L 86.322956 133.141524 
L 86.657756 133.014774 
L 87.327356 133.395131 
L 87.662156 133.410466 
L 87.996956 133.286996 
L 88.331756 133.511272 
L 88.666556 133.505057 
L 89.001356 133.38689 
L 89.336156 133.742527 
L 89.670956 133.429286 
L 90.005756 133.802004 
L 90.340556 133.20702 
L 90.675356 134.00076 
L 91.010156 134.063585 
L 91.344956 133.956571 
L 91.679756 133.666174 
L 92.014556 134.04281 
L 92.684156 133.417956 
L 93.018956 134.358321 
L 93.353756 133.755406 
L 93.688556 134.466283 
L 94.023356 134.256865 
L 94.358156 134.360878 
L 94.692956 134.693918 
L 95.027756 134.511259 
L 95.697356 134.661118 
L 96.032156 134.426047 
L 96.366956 134.792148 
L 96.701756 134.892537 
L 97.036556 134.78504 
L 97.371356 134.85727 
L 97.706156 133.933565 
L 98.040956 134.791527 
L 98.375756 134.872789 
L 98.710556 135.070393 
L 99.045356 134.91618 
L 99.380156 135.107805 
L 99.714956 135.15677 
L 100.049756 135.029508 
L 100.384556 135.388442 
L 101.054156 135.276963 
L 101.723756 135.512372 
L 102.058556 135.344559 
L 103.397756 135.604102 
L 104.067356 135.706077 
L 104.402156 135.888976 
L 104.736956 135.781632 
L 105.071756 135.519819 
L 106.076156 136.085097 
L 106.410956 136.005766 
L 106.745756 135.729268 
L 107.415356 136.169307 
L 107.750156 136.073067 
L 108.084956 136.118701 
L 108.419756 135.75828 
L 108.754556 135.90077 
L 109.089356 136.223917 
L 109.424156 136.119881 
L 109.758956 135.869496 
L 110.093756 136.337371 
L 110.428556 136.115632 
L 110.763356 136.332229 
L 111.432956 136.468232 
L 112.102556 136.332741 
L 112.437356 136.563563 
L 113.106956 136.415911 
L 113.441756 136.617449 
L 113.776556 136.671438 
L 114.111356 136.592064 
L 114.446156 136.709904 
L 114.780956 136.441828 
L 115.450556 136.922559 
L 115.785356 136.831143 
L 116.120156 136.567725 
L 116.454956 136.997669 
L 116.789756 136.660529 
L 117.124556 136.648594 
L 117.459356 136.830195 
L 117.794156 136.199362 
L 118.128956 136.790211 
L 118.463756 136.969211 
L 119.468156 136.954573 
L 119.802956 136.816383 
L 120.137756 137.036041 
L 120.472556 136.839152 
L 120.807356 136.896045 
L 121.142156 137.181099 
L 121.476956 137.247712 
L 121.811756 137.07955 
L 122.481356 137.3827 
L 123.150956 137.247976 
L 123.485756 137.084978 
L 124.155356 137.47914 
L 124.490156 137.370128 
L 124.824956 137.57772 
L 125.159756 137.488204 
L 125.829356 137.590458 
L 126.164156 137.441398 
L 126.498956 137.701028 
L 127.168556 137.414353 
L 127.503356 137.047351 
L 127.838156 137.650745 
L 128.172956 137.818475 
L 128.507756 137.786677 
L 128.842556 137.502437 
L 129.177356 137.781457 
L 129.846956 137.773491 
L 130.181756 137.577177 
L 130.516556 137.860422 
L 131.186156 137.847259 
L 131.520956 138.058349 
L 131.855756 137.762676 
L 132.190556 137.809309 
L 132.525356 137.482429 
L 132.860156 138.069104 
L 133.194956 137.924604 
L 133.864556 137.989757 
L 134.534156 137.942216 
L 135.873356 138.19052 
L 136.208156 137.976842 
L 136.877756 138.256441 
L 137.547356 137.911626 
L 137.882156 137.967535 
L 138.551756 138.259065 
L 139.221356 138.403199 
L 139.556156 138.255099 
L 139.890956 138.537204 
L 140.225756 138.298589 
L 141.230156 138.402381 
L 141.564956 138.344135 
L 142.234556 138.462983 
L 142.569356 138.343773 
L 142.904156 138.658856 
L 143.238956 138.492337 
L 143.908556 138.483553 
L 144.243356 138.616464 
L 145.247756 138.492817 
L 146.252156 138.699245 
L 147.591356 138.564757 
L 147.926156 138.713804 
L 148.595756 138.552813 
L 148.930556 138.894516 
L 149.265356 138.31102 
L 149.934956 138.846771 
L 150.604556 138.729855 
L 151.943756 138.929501 
L 152.278556 138.086653 
L 152.613356 138.95572 
L 152.948156 138.737612 
L 153.282956 138.837734 
L 153.617756 138.659281 
L 153.952556 138.934131 
L 154.287356 138.825626 
L 154.622156 139.022632 
L 154.956956 138.850775 
L 156.630956 139.078568 
L 156.965756 138.753029 
L 157.300556 139.148985 
L 157.635356 139.046542 
L 157.970156 139.092911 
L 158.304956 139.015055 
L 158.639756 139.258029 
L 158.974556 139.208241 
L 159.309356 138.569576 
L 159.644156 139.224827 
L 159.978956 139.268489 
L 160.313756 139.095012 
L 161.318156 139.260822 
L 161.652956 139.051648 
L 161.987756 139.276986 
L 162.322556 139.17513 
L 162.657356 139.396727 
L 162.992156 139.200421 
L 163.326956 139.331908 
L 167.344556 139.372242 
L 167.679356 139.505633 
L 168.014156 139.447152 
L 168.683756 139.543076 
L 169.018556 139.109272 
L 169.353356 138.937207 
L 169.688156 139.672482 
L 170.022956 139.512883 
L 170.357756 139.6021 
L 171.362156 139.515507 
L 171.696956 139.643359 
L 172.031756 139.598056 
L 172.366556 139.680302 
L 172.701356 139.486825 
L 173.036156 139.643831 
L 173.370956 139.20441 
L 173.705756 139.559327 
L 174.375356 139.72841 
L 175.044956 139.613261 
L 175.714556 139.789331 
L 176.049356 139.474398 
L 176.384156 139.547804 
L 176.718956 139.764177 
L 177.053756 139.648387 
L 178.058156 139.787844 
L 178.392956 139.727887 
L 178.727756 139.826294 
L 179.062556 139.180834 
L 179.397356 139.80343 
L 179.732156 139.545066 
L 180.066956 139.733831 
L 181.406156 139.835204 
L 181.740956 139.915495 
L 182.075756 139.818748 
L 182.410556 139.989208 
L 183.414956 139.751962 
L 183.749756 139.909303 
L 184.084556 139.543296 
L 184.419356 139.965991 
L 185.423756 139.88819 
L 185.758556 140.063131 
L 186.093356 139.839279 
L 186.762956 140.069523 
L 187.432556 140.139708 
L 187.767356 139.935184 
L 188.102156 139.888933 
L 188.436956 140.028705 
L 188.771756 139.970609 
L 189.106556 140.130868 
L 189.776156 139.807537 
L 190.110956 140.193815 
L 190.445756 139.951541 
L 190.780556 139.971164 
L 191.115356 140.24385 
L 191.784956 140.077017 
L 192.119756 140.293677 
L 192.454556 140.037729 
L 192.789356 140.241478 
L 193.124156 140.295931 
L 193.458956 140.218968 
L 194.463356 140.336738 
L 194.798156 140.244012 
L 196.472156 140.319826 
L 197.476556 140.224429 
L 197.811356 140.411427 
L 198.480956 140.091832 
L 198.815756 140.351545 
L 199.150556 140.381978 
L 199.485356 139.955086 
L 199.820156 140.438307 
L 201.828956 140.298598 
L 202.163756 140.421883 
L 202.833356 140.36828 
L 203.168156 140.506305 
L 203.837756 140.500577 
L 204.842156 140.357831 
L 205.176956 140.612859 
L 206.850956 140.579346 
L 206.850956 140.579346 
" clip-path="url(#pbc5e1144b3)" style="fill: none; stroke: #1f77b4; stroke-width: 1.5; stroke-linecap: square"/>
   </g>
   <g id="line2d_13">
    <path d="M 43.061591 -1 
L 43.133756 9.467527 
L 43.803356 50.204208 
L 44.472956 60.733466 
L 45.142556 65.897544 
L 46.816556 78.09684 
L 47.820956 89.950338 
L 49.494956 101.847038 
L 50.834156 109.18611 
L 51.168956 110.111176 
L 51.503756 111.765691 
L 52.173356 113.594997 
L 53.177756 117.579312 
L 53.512556 117.977931 
L 53.847356 119.135767 
L 54.182156 119.078253 
L 55.856156 123.884806 
L 56.525756 124.998145 
L 56.860556 123.529307 
L 57.530156 125.520056 
L 57.864956 125.546468 
L 58.199756 125.968848 
L 58.534556 126.775641 
L 58.869356 127.124736 
L 59.204156 126.404713 
L 59.538956 128.3837 
L 61.212956 130.001747 
L 61.547756 130.594174 
L 61.882556 130.875515 
L 62.217356 131.30352 
L 62.552156 131.334937 
L 63.221756 132.213394 
L 63.556556 132.278346 
L 64.560956 132.980659 
L 64.895756 133.118928 
L 65.230556 133.558219 
L 65.565356 133.749183 
L 65.900156 133.552106 
L 66.234956 134.137916 
L 66.904556 134.167397 
L 67.239356 134.30218 
L 67.574156 134.204009 
L 67.908956 134.319831 
L 68.243756 134.849233 
L 68.578556 135.130677 
L 68.913356 135.060704 
L 69.248156 135.456136 
L 69.582956 135.453221 
L 69.917756 135.332049 
L 70.252556 135.532195 
L 70.587356 135.893064 
L 70.922156 135.999979 
L 71.256956 135.872584 
L 72.596156 136.634275 
L 73.600556 136.871879 
L 73.935356 136.781548 
L 74.270156 137.039892 
L 75.609356 137.203239 
L 75.944156 137.497771 
L 76.278956 137.490218 
L 76.613756 137.330466 
L 76.948556 137.613145 
L 77.283356 137.510792 
L 77.618156 137.752507 
L 77.952956 137.558979 
L 78.287756 137.981409 
L 78.622556 137.896988 
L 78.957356 138.001134 
L 79.292156 137.953184 
L 79.626956 138.239777 
L 79.961756 137.98495 
L 80.296556 138.291527 
L 80.631356 138.168498 
L 80.966156 138.212865 
L 81.300956 138.40742 
L 81.970556 138.160992 
L 82.305356 138.402215 
L 82.640156 138.483655 
L 83.309756 138.340882 
L 83.644556 138.49764 
L 83.979356 138.344529 
L 84.314156 138.402023 
L 84.983756 138.718883 
L 86.322956 138.695728 
L 87.327356 138.940342 
L 87.996956 138.83659 
L 88.331756 139.078167 
L 89.336156 139.248025 
L 89.670956 138.895838 
L 90.005756 139.17664 
L 90.340556 139.012097 
L 90.675356 139.341589 
L 91.010156 139.188422 
L 91.344956 139.293706 
L 91.679756 139.105287 
L 92.014556 139.235322 
L 92.349356 138.92526 
L 93.018956 139.589889 
L 93.353756 139.392089 
L 93.688556 139.663072 
L 94.023356 139.495558 
L 94.358156 139.7197 
L 94.692956 139.782324 
L 95.027756 139.644618 
L 95.362556 139.697966 
L 95.697356 139.462561 
L 96.366956 139.903744 
L 97.036556 139.808127 
L 97.371356 139.985086 
L 97.706156 139.525314 
L 98.040956 140.068071 
L 98.710556 140.085672 
L 99.380156 139.969236 
L 100.384556 140.267072 
L 101.388956 140.242568 
L 101.723756 140.329244 
L 102.058556 140.216006 
L 102.728156 140.341588 
L 103.062956 140.409605 
L 103.397756 140.220152 
L 103.732556 140.263697 
L 104.402156 140.484322 
L 105.741356 140.266002 
L 106.076156 140.525801 
L 106.745756 140.338677 
L 107.080556 140.326588 
L 107.415356 140.515447 
L 108.084956 140.654342 
L 108.419756 140.322296 
L 108.754556 140.399023 
L 109.089356 140.605644 
L 109.758956 140.359676 
L 110.093756 140.530774 
L 110.428556 140.328079 
L 110.763356 140.682032 
L 111.432956 140.657371 
L 111.767756 140.810278 
L 112.102556 140.516057 
L 112.437356 140.782343 
L 113.106956 140.598956 
L 113.441756 140.755136 
L 114.111356 140.673999 
L 114.446156 140.822949 
L 114.780956 140.591309 
L 115.785356 140.923468 
L 116.120156 140.671281 
L 116.454956 140.973763 
L 117.124556 140.70038 
L 118.463756 140.99191 
L 119.133356 140.996859 
L 120.137756 141.052956 
L 121.476956 141.284931 
L 121.811756 141.054518 
L 122.146556 141.290254 
L 122.481356 141.162378 
L 122.816156 141.355572 
L 123.485756 141.213125 
L 124.155356 141.406213 
L 124.490156 141.329837 
L 124.824956 141.443633 
L 125.159756 141.394687 
L 125.494556 141.501327 
L 126.164156 141.36512 
L 126.498956 141.5465 
L 126.833756 141.332004 
L 127.503356 141.292276 
L 127.838156 141.497779 
L 128.172956 141.456921 
L 128.507756 141.55032 
L 128.842556 141.301512 
L 129.177356 141.496091 
L 129.512156 141.425191 
L 129.846956 141.534085 
L 130.181756 141.320092 
L 130.516556 141.535486 
L 131.520956 141.708511 
L 132.190556 141.402169 
L 132.525356 141.326446 
L 132.860156 141.756252 
L 133.194956 141.493011 
L 134.868956 141.535741 
L 135.203756 141.736886 
L 135.873356 141.7308 
L 136.208156 141.490765 
L 136.877756 141.720324 
L 137.212556 141.66259 
L 137.547356 141.414026 
L 137.882156 141.637736 
L 138.216956 141.629423 
L 138.886556 141.862 
L 139.221356 141.828636 
L 139.556156 141.682783 
L 139.890956 141.898538 
L 140.225756 141.7439 
L 140.895356 141.926421 
L 141.230156 141.75139 
L 141.564956 141.853483 
L 141.899756 141.832562 
L 142.234556 141.944513 
L 142.569356 141.886752 
L 142.904156 142.064096 
L 143.238956 141.890391 
L 143.573756 141.985961 
L 143.908556 141.919643 
L 144.578156 141.993912 
L 145.247756 141.825021 
L 145.917356 142.002873 
L 146.921756 142.042102 
L 147.256556 141.960253 
L 147.926156 141.995367 
L 148.595756 142.040524 
L 148.930556 142.176834 
L 149.265356 142.005741 
L 149.934956 142.05209 
L 150.939356 142.109541 
L 152.278556 142.018451 
L 152.613356 142.190819 
L 152.948156 141.964159 
L 153.282956 142.180658 
L 154.287356 142.19912 
L 154.622156 142.240107 
L 154.956956 142.008479 
L 155.626556 142.230847 
L 155.961356 142.28388 
L 156.296156 142.186512 
L 156.630956 142.312735 
L 156.965756 141.996036 
L 157.300556 142.340524 
L 157.970156 142.275418 
L 158.304956 142.265969 
L 158.639756 142.436763 
L 158.974556 142.422271 
L 159.309356 142.168797 
L 159.644156 142.4248 
L 159.978956 142.433463 
L 160.313756 142.112232 
L 160.983356 142.385013 
L 161.318156 142.404564 
L 161.652956 142.293227 
L 161.987756 142.413258 
L 162.322556 142.287735 
L 162.657356 142.453223 
L 163.326956 142.438231 
L 163.661756 142.526484 
L 163.996556 142.420312 
L 165.000956 142.427798 
L 165.670556 142.097121 
L 166.005356 142.374474 
L 167.344556 142.528706 
L 168.348956 142.531413 
L 168.683756 142.602448 
L 169.018556 142.315048 
L 169.353356 142.360607 
L 169.688156 142.681893 
L 170.022956 142.397629 
L 170.357756 142.616318 
L 170.692556 142.462971 
L 171.027356 142.627447 
L 172.701356 142.594887 
L 173.036156 142.659013 
L 173.370956 142.488978 
L 174.375356 142.712084 
L 174.710156 142.609898 
L 175.714556 142.769284 
L 176.049356 142.493545 
L 177.053756 142.622388 
L 178.058156 142.653411 
L 178.392956 142.546295 
L 178.727756 142.745268 
L 179.062556 142.537097 
L 179.397356 142.672237 
L 179.732156 142.583439 
L 181.740956 142.794277 
L 182.075756 142.698514 
L 182.410556 142.821277 
L 182.745356 142.814715 
L 183.080156 142.629104 
L 183.749756 142.830016 
L 184.084556 142.699678 
L 184.419356 142.838191 
L 185.423756 142.627337 
L 185.758556 142.839688 
L 186.093356 142.600567 
L 186.762956 142.877302 
L 187.432556 142.917154 
L 188.771756 142.656196 
L 189.106556 142.960197 
L 189.776156 142.738561 
L 190.110956 143.037422 
L 190.445756 142.736806 
L 190.780556 142.750258 
L 191.115356 142.920758 
L 191.450156 142.957807 
L 191.784956 142.825771 
L 192.119756 143.065608 
L 192.454556 142.90778 
L 193.124156 143.061491 
L 193.458956 142.961733 
L 194.798156 143.119451 
L 195.467756 143.024705 
L 196.472156 143.011206 
L 196.806956 142.948877 
L 197.141756 143.123755 
L 197.476556 143.00302 
L 197.811356 143.099632 
L 198.146156 142.775976 
L 198.480956 142.736977 
L 198.815756 143.012896 
L 199.150556 143.078773 
L 199.485356 142.668504 
L 199.820156 143.03441 
L 200.489756 143.153354 
L 200.824556 143.046682 
L 201.159356 143.065537 
L 201.494156 142.940962 
L 202.163756 143.130081 
L 202.498556 142.965282 
L 203.168156 143.174493 
L 204.842156 142.986088 
L 205.176956 143.240814 
L 205.511756 143.100201 
L 206.850956 143.187482 
L 206.850956 143.187482 
" clip-path="url(#pbc5e1144b3)" style="fill: none; stroke: #ff7f0e; stroke-width: 1.5; stroke-linecap: square"/>
   </g>
   <g id="line2d_14">
    <path d="M 41.1163 -1 
L 41.124956 7.176027 
L 41.459756 112.904313 
L 41.794556 124.350042 
L 42.464156 128.919479 
L 43.133756 132.557976 
L 43.803356 134.143868 
L 44.138156 134.100139 
L 44.807756 136.465911 
L 45.142556 136.545589 
L 45.477356 137.188806 
L 46.146956 137.751067 
L 46.481756 138.043188 
L 46.816556 137.697468 
L 47.151356 138.252369 
L 47.820956 138.793777 
L 48.155756 138.132318 
L 48.490556 138.249367 
L 48.825356 138.552042 
L 49.160156 139.093124 
L 49.494956 138.869678 
L 49.829756 139.188883 
L 50.499356 139.162581 
L 50.834156 139.473277 
L 51.168956 139.391597 
L 51.503756 139.565637 
L 51.838556 128.11254 
L 52.508156 135.59651 
L 52.842956 135.676962 
L 53.177756 137.455977 
L 53.512556 137.396748 
L 53.847356 138.495339 
L 54.182156 138.614178 
L 54.851756 138.462436 
L 55.521356 139.516573 
L 55.856156 139.462927 
L 56.190956 122.607242 
L 56.860556 135.766903 
L 57.195356 138.199958 
L 57.530156 139.515133 
L 57.864956 140.126636 
L 58.199756 140.488378 
L 58.869356 140.772929 
L 59.204156 140.68798 
L 59.538956 140.936804 
L 60.208556 141.066253 
L 60.543356 140.866686 
L 60.878156 140.883004 
L 61.212956 141.159199 
L 61.547756 141.020612 
L 61.882556 141.057744 
L 62.217356 141.334361 
L 62.552156 140.730474 
L 62.886956 141.373487 
L 63.221756 141.499109 
L 63.556556 141.3351 
L 64.560956 141.409046 
L 65.230556 141.485962 
L 65.565356 141.571319 
L 65.900156 141.348818 
L 66.234956 141.392779 
L 66.569756 141.726311 
L 66.904556 141.550961 
L 67.239356 141.566005 
L 67.574156 141.773491 
L 67.908956 141.816071 
L 68.243756 141.499644 
L 68.578556 141.922535 
L 68.913356 141.563019 
L 69.248156 142.059391 
L 70.252556 141.821119 
L 70.587356 141.98486 
L 71.256956 141.961303 
L 71.591756 141.840536 
L 71.926556 141.886492 
L 72.261356 142.173778 
L 73.935356 142.096744 
L 74.270156 142.15469 
L 74.604956 142.046276 
L 74.939756 142.324576 
L 76.278956 142.516574 
L 76.613756 142.314804 
L 76.948556 142.472841 
L 77.283356 142.432621 
L 77.618156 142.588124 
L 77.952956 142.437243 
L 78.957356 142.573958 
L 79.292156 142.38888 
L 79.626956 142.500115 
L 79.961756 142.443624 
L 80.966156 142.639812 
L 81.300956 142.492467 
L 82.974956 142.740187 
L 83.979356 142.52622 
L 84.314156 142.584076 
L 84.648956 142.802213 
L 84.983756 142.71612 
L 85.318556 142.84372 
L 85.653356 142.717217 
L 86.322956 142.70429 
L 86.657756 142.54375 
L 86.992556 142.832925 
L 87.662156 142.658352 
L 87.996956 142.930657 
L 88.331756 142.962485 
L 88.666556 142.680345 
L 89.001356 143.058218 
L 89.670956 142.709021 
L 90.005756 142.906818 
L 90.340556 142.846568 
L 90.675356 143.177453 
L 91.010156 142.969839 
L 91.344956 143.160059 
L 92.349356 142.831983 
L 93.018956 143.216257 
L 93.353756 142.868466 
L 93.688556 143.135407 
L 94.023356 142.895793 
L 94.358156 142.911273 
L 94.692956 143.200378 
L 95.362556 143.021619 
L 95.697356 143.159323 
L 96.032156 143.027762 
L 96.701756 143.213033 
L 97.036556 143.125171 
L 97.371356 143.20943 
L 97.706156 142.857797 
L 98.040956 143.398139 
L 98.375756 143.309858 
L 98.710556 143.38295 
L 99.380156 143.164807 
L 99.714956 143.327238 
L 100.049756 143.319752 
L 100.384556 143.451135 
L 101.388956 143.260535 
L 101.723756 143.388881 
L 102.393356 143.198564 
L 102.728156 143.387291 
L 103.062956 143.383529 
L 103.397756 143.108454 
L 104.067356 143.385472 
L 104.402156 143.503176 
L 105.071756 143.363405 
L 105.406556 143.550403 
L 105.741356 143.369363 
L 106.076156 143.580627 
L 107.080556 143.22093 
L 107.415356 143.470065 
L 108.084956 143.575208 
L 108.419756 143.36913 
L 109.424156 143.516872 
L 109.758956 143.337166 
L 110.093756 143.585975 
L 110.428556 143.292301 
L 111.098156 143.578281 
L 111.767756 143.758337 
L 112.102556 143.439522 
L 112.437356 143.724427 
L 112.772156 143.529272 
L 115.115756 143.59913 
L 115.450556 143.841689 
L 115.785356 143.754746 
L 116.120156 143.425901 
L 116.454956 143.796077 
L 116.789756 143.769579 
L 117.124556 143.540678 
L 117.459356 143.750749 
L 117.794156 143.597112 
L 118.463756 143.564901 
L 119.133356 143.85662 
L 120.137756 143.69806 
L 120.807356 143.813103 
L 121.142156 143.759968 
L 121.476956 143.935942 
L 121.811756 143.699171 
L 122.481356 143.761542 
L 124.490156 143.937901 
L 124.824956 143.841463 
L 125.829356 143.875499 
L 127.168556 143.767828 
L 127.838156 143.889567 
L 128.507756 144.042495 
L 128.842556 143.889934 
L 129.512156 143.987059 
L 130.181756 143.717767 
L 130.516556 144.039472 
L 130.851356 143.928794 
L 131.186156 143.951701 
L 131.520956 144.178563 
L 131.855756 143.865001 
L 132.190556 143.85208 
L 132.860156 144.110869 
L 133.194956 143.941504 
L 133.529756 144.068451 
L 134.534156 143.901744 
L 135.203756 144.155023 
L 135.538556 144.036498 
L 135.873356 144.138081 
L 136.208156 143.964936 
L 136.542956 144.151067 
L 136.877756 143.885147 
L 137.212556 144.014596 
L 137.547356 143.846412 
L 137.882156 143.976101 
L 138.216956 143.945296 
L 138.551756 144.210465 
L 139.221356 144.195526 
L 139.556156 144.071549 
L 139.890956 144.185503 
L 140.225756 144.054775 
L 140.895356 144.219429 
L 141.230156 144.110115 
L 142.234556 144.248783 
L 142.569356 144.158544 
L 142.904156 144.304318 
L 143.238956 144.239663 
L 143.573756 144.313803 
L 144.243356 144.136651 
L 144.578156 144.198264 
L 145.247756 143.990511 
L 145.582556 144.222263 
L 145.917356 144.283658 
L 146.586956 144.192832 
L 146.921756 144.279254 
L 147.256556 144.175572 
L 147.926156 144.259157 
L 148.260956 144.22006 
L 148.930556 144.321545 
L 149.265356 144.162059 
L 149.934956 144.246103 
L 151.608956 144.282381 
L 151.943756 144.357155 
L 152.278556 144.164212 
L 152.613356 144.298097 
L 152.948156 144.139321 
L 153.617756 144.343443 
L 153.952556 144.287054 
L 154.287356 144.377265 
L 155.291756 144.204244 
L 155.626556 144.325381 
L 156.296156 144.286504 
L 156.630956 144.396431 
L 156.965756 144.119742 
L 157.970156 144.444716 
L 158.304956 144.392054 
L 158.639756 144.49478 
L 159.309356 144.358046 
L 159.644156 144.493474 
L 159.978956 144.486846 
L 160.313756 144.36172 
L 161.318156 144.427757 
L 161.987756 144.400691 
L 162.322556 144.344688 
L 162.657356 144.452825 
L 163.326956 144.350575 
L 163.661756 144.52531 
L 163.996556 144.423958 
L 165.000956 144.448532 
L 165.670556 144.220198 
L 166.005356 144.442037 
L 168.348956 144.499556 
L 168.683756 144.581659 
L 169.018556 144.267062 
L 169.688156 144.594769 
L 170.692556 144.498351 
L 171.362156 144.576081 
L 172.366556 144.542176 
L 172.701356 144.411689 
L 173.036156 144.537393 
L 173.370956 144.491624 
L 173.705756 144.577758 
L 174.040556 144.50745 
L 174.375356 144.662029 
L 174.710156 144.46194 
L 175.044956 144.481374 
L 175.714556 144.672442 
L 176.049356 144.445164 
L 176.384156 144.432601 
L 176.718956 144.648608 
L 177.053756 144.473948 
L 177.388556 144.578181 
L 177.723356 144.462823 
L 178.727756 144.715469 
L 179.062556 144.429255 
L 179.732156 144.542754 
L 180.736556 144.465272 
L 181.071356 144.652143 
L 182.410556 144.616505 
L 182.745356 144.634173 
L 183.414956 144.512808 
L 183.749756 144.620213 
L 184.084556 144.553325 
L 184.754156 144.701143 
L 185.088956 144.708158 
L 185.423756 144.483579 
L 185.758556 144.581812 
L 186.093356 144.43336 
L 186.762956 144.731167 
L 187.097756 144.790734 
L 187.767356 144.6772 
L 188.102156 144.603577 
L 188.436956 144.647571 
L 188.771756 144.519057 
L 189.106556 144.808248 
L 189.776156 144.55204 
L 190.110956 144.690237 
L 190.780556 144.481096 
L 191.450156 144.798571 
L 191.784956 144.613278 
L 192.119756 144.827917 
L 193.124156 144.745111 
L 193.458956 144.818203 
L 193.793756 144.705917 
L 194.128556 144.82763 
L 198.146156 144.650915 
L 198.480956 144.421932 
L 198.815756 144.508522 
L 199.150556 144.84325 
L 199.485356 144.638504 
L 199.820156 144.835856 
L 201.159356 144.851198 
L 201.828956 144.64026 
L 202.163756 144.803844 
L 202.498556 144.619084 
L 202.833356 144.650492 
L 203.168156 144.864904 
L 203.837756 144.872858 
L 204.507356 144.879603 
L 204.842156 144.68811 
L 205.176956 144.845083 
L 206.181356 144.795179 
L 206.850956 144.790591 
L 206.850956 144.790591 
" clip-path="url(#pbc5e1144b3)" style="fill: none; stroke: #2ca02c; stroke-width: 1.5; stroke-linecap: square"/>
   </g>
   <g id="line2d_15">
    <path d="M 44.51431 -1 
L 45.142556 43.938509 
L 45.812156 70.561686 
L 46.481756 85.043317 
L 47.151356 93.301114 
L 47.820956 99.467701 
L 48.490556 103.562874 
L 50.164556 110.545519 
L 50.499356 112.386749 
L 50.834156 113.561909 
L 51.168956 114.241554 
L 51.838556 116.981925 
L 52.842956 119.9166 
L 53.847356 123.08675 
L 54.516956 124.475565 
L 54.851756 125.643841 
L 55.521356 126.928407 
L 56.190956 128.208012 
L 56.525756 129.136788 
L 57.195356 130.14733 
L 57.530156 130.947301 
L 57.864956 131.302537 
L 58.199756 131.972363 
L 59.873756 134.01017 
L 60.208556 134.480728 
L 60.878156 135.068442 
L 61.212956 135.527061 
L 61.882556 135.934909 
L 62.217356 136.257221 
L 62.552156 136.374149 
L 62.886956 136.855238 
L 63.221756 137.07355 
L 63.556556 137.095222 
L 63.891356 137.39272 
L 64.226156 137.461677 
L 64.560956 137.766787 
L 64.895756 137.876834 
L 65.230556 138.208569 
L 65.565356 138.345268 
L 65.900156 138.332731 
L 66.234956 138.653702 
L 66.569756 138.75753 
L 66.904556 138.701417 
L 67.574156 138.965519 
L 67.908956 139.264276 
L 68.243756 139.034603 
L 68.578556 139.4481 
L 68.913356 139.351019 
L 69.248156 139.868811 
L 69.582956 139.949185 
L 69.917756 139.711007 
L 70.252556 139.761471 
L 70.587356 140.129916 
L 70.922156 140.256195 
L 71.256956 140.106879 
L 72.596156 140.653563 
L 72.930956 140.616198 
L 73.600556 140.763854 
L 73.935356 140.714676 
L 74.270156 140.872953 
L 74.604956 140.863334 
L 74.939756 141.020596 
L 75.274556 141.017508 
L 76.278956 141.375431 
L 76.613756 141.248889 
L 76.948556 141.429309 
L 77.283356 141.270903 
L 77.618156 141.534132 
L 77.952956 141.369844 
L 78.287756 141.630395 
L 78.622556 141.574801 
L 78.957356 141.683467 
L 79.292156 141.589081 
L 79.626956 141.793326 
L 79.961756 141.519156 
L 80.296556 141.790509 
L 80.966156 141.749026 
L 81.300956 141.949655 
L 81.970556 141.850056 
L 82.640156 142.075457 
L 83.309756 141.905371 
L 84.314156 141.913215 
L 84.648956 142.142149 
L 85.318556 142.166398 
L 85.653356 142.209116 
L 85.988156 142.128758 
L 86.322956 142.215048 
L 86.657756 142.003876 
L 86.992556 142.310642 
L 87.662156 142.138963 
L 87.996956 142.215607 
L 88.331756 142.415953 
L 88.666556 142.349812 
L 89.336156 142.502503 
L 89.670956 142.258498 
L 90.005756 142.404796 
L 90.340556 142.311307 
L 90.675356 142.635016 
L 91.679756 142.465729 
L 92.014556 142.440587 
L 92.349356 142.189431 
L 93.018956 142.70446 
L 93.353756 142.361598 
L 93.688556 142.699613 
L 94.023356 142.445693 
L 94.692956 142.840846 
L 95.027756 142.667347 
L 96.032156 142.569906 
L 96.366956 142.766409 
L 97.036556 142.668199 
L 97.371356 142.846424 
L 97.706156 142.487373 
L 98.040956 142.922374 
L 98.375756 142.824902 
L 99.045356 142.805211 
L 99.380156 142.689088 
L 100.384556 142.991228 
L 101.388956 142.869853 
L 101.723756 142.983712 
L 102.058556 142.846586 
L 102.393356 142.833476 
L 102.728156 143.012217 
L 103.062956 143.01098 
L 103.397756 142.81195 
L 104.736956 143.082386 
L 105.071756 142.983576 
L 106.410956 143.0531 
L 106.745756 142.869115 
L 107.080556 142.864694 
L 108.084956 143.190305 
L 108.419756 142.795701 
L 109.089356 143.095285 
L 109.424156 143.006135 
L 109.758956 142.728344 
L 110.093756 143.146025 
L 110.428556 142.849149 
L 110.763356 143.173741 
L 111.098156 143.105533 
L 111.767756 143.239217 
L 112.102556 142.991251 
L 112.437356 143.261788 
L 112.772156 142.998678 
L 113.776556 143.162866 
L 114.111356 143.128222 
L 114.446156 143.214577 
L 114.780956 142.903696 
L 115.115756 143.042304 
L 115.450556 143.337132 
L 115.785356 143.252911 
L 116.120156 142.981987 
L 116.454956 143.323483 
L 116.789756 143.102899 
L 117.124556 143.052475 
L 117.459356 143.162714 
L 117.794156 142.938934 
L 118.463756 143.223395 
L 118.798556 143.210696 
L 119.133356 143.320915 
L 119.802956 143.093417 
L 120.137756 143.225921 
L 120.472556 143.119196 
L 121.476956 143.342976 
L 121.811756 143.115873 
L 122.146556 143.299764 
L 122.481356 143.232465 
L 122.816156 143.309898 
L 123.150956 143.182581 
L 124.155356 143.383771 
L 124.824956 143.366595 
L 125.159756 143.330482 
L 125.494556 143.424225 
L 126.164156 143.293851 
L 126.498956 143.436353 
L 126.833756 143.193295 
L 127.168556 143.236534 
L 127.503356 143.116515 
L 127.838156 143.364728 
L 128.507756 143.404673 
L 128.842556 143.213647 
L 129.177356 143.43238 
L 129.846956 143.327044 
L 130.181756 143.169321 
L 130.516556 143.380842 
L 131.520956 143.52251 
L 132.190556 143.313411 
L 132.525356 143.227004 
L 132.860156 143.519577 
L 133.194956 143.365738 
L 133.864556 143.408261 
L 134.534156 143.364829 
L 135.203756 143.538774 
L 135.873356 143.513527 
L 136.208156 143.248375 
L 136.542956 143.534709 
L 137.882156 143.290913 
L 138.216956 143.321668 
L 138.886556 143.570139 
L 139.221356 143.551678 
L 139.556156 143.354858 
L 139.890956 143.609825 
L 140.225756 143.452728 
L 140.895356 143.627358 
L 141.230156 143.50579 
L 142.234556 143.624541 
L 142.569356 143.471756 
L 142.904156 143.674809 
L 143.238956 143.535309 
L 143.573756 143.652458 
L 143.908556 143.488304 
L 144.578156 143.534506 
L 145.247756 143.294793 
L 145.917356 143.588829 
L 146.252156 143.565812 
L 146.586956 143.655202 
L 148.595756 143.554595 
L 148.930556 143.662596 
L 149.265356 143.321084 
L 149.934956 143.553487 
L 151.274156 143.535456 
L 151.943756 143.638945 
L 152.278556 143.461524 
L 152.613356 143.580316 
L 152.948156 143.411613 
L 153.282956 143.653446 
L 154.622156 143.535588 
L 154.956956 143.417126 
L 155.961356 143.639032 
L 156.296156 143.555452 
L 156.630956 143.669941 
L 156.965756 143.3025 
L 157.300556 143.679636 
L 158.304956 143.663518 
L 158.639756 143.772519 
L 158.974556 143.739411 
L 159.309356 143.581308 
L 159.644156 143.780293 
L 159.978956 143.756667 
L 160.313756 143.606121 
L 161.318156 143.683237 
L 161.652956 143.628269 
L 161.987756 143.705204 
L 162.322556 143.562187 
L 162.657356 143.713271 
L 162.992156 143.730224 
L 163.326956 143.633576 
L 163.661756 143.800163 
L 163.996556 143.688845 
L 164.666156 143.781734 
L 165.335756 143.565727 
L 165.670556 143.449756 
L 166.340156 143.72913 
L 166.674956 143.80784 
L 168.014156 143.661123 
L 168.348956 143.797867 
L 168.683756 143.770942 
L 169.018556 143.38999 
L 169.353356 143.539406 
L 169.688156 143.889433 
L 170.022956 143.677065 
L 170.357756 143.789832 
L 170.692556 143.698794 
L 172.366556 143.765908 
L 172.701356 143.722094 
L 173.036156 143.795161 
L 173.370956 143.604541 
L 173.705756 143.799091 
L 175.044956 143.736001 
L 175.714556 143.897584 
L 176.049356 143.596811 
L 176.384156 143.654095 
L 176.718956 143.853503 
L 177.388556 143.757712 
L 178.392956 143.650283 
L 178.727756 143.871724 
L 179.062556 143.554242 
L 180.401756 143.799592 
L 180.736556 143.715269 
L 181.071356 143.867446 
L 182.075756 143.704347 
L 182.410556 143.896897 
L 183.414956 143.722271 
L 183.749756 143.865314 
L 184.084556 143.630432 
L 184.754156 143.850955 
L 185.088956 143.9221 
L 185.423756 143.628719 
L 185.758556 143.842564 
L 186.093356 143.649836 
L 186.762956 143.915605 
L 187.432556 143.915625 
L 188.102156 143.814984 
L 188.436956 143.804014 
L 188.771756 143.640352 
L 189.106556 143.930294 
L 189.441356 143.919195 
L 189.776156 143.637319 
L 190.110956 143.952755 
L 190.780556 143.655725 
L 191.115356 143.93804 
L 191.450156 143.956618 
L 191.784956 143.699581 
L 192.119756 144.011474 
L 192.454556 143.917781 
L 193.458956 143.982082 
L 197.811356 143.979986 
L 198.146156 143.72437 
L 198.480956 143.609728 
L 199.150556 143.976455 
L 199.485356 143.668113 
L 200.154956 144.065259 
L 201.828956 143.851675 
L 202.163756 143.948666 
L 202.498556 143.814889 
L 203.502956 144.012991 
L 204.172556 143.938929 
L 204.507356 144.032505 
L 204.842156 143.813031 
L 205.176956 144.032971 
L 205.846556 143.916953 
L 206.850956 144.034706 
L 206.850956 144.034706 
" clip-path="url(#pbc5e1144b3)" style="fill: none; stroke: #d62728; stroke-width: 1.5; stroke-linecap: square"/>
   </g>
   <g id="patch_3">
    <path d="M 39.785756 149.259249 
L 39.785756 10.659249 
" style="fill: none; stroke: #000000; stroke-width: 0.8; stroke-linejoin: miter; stroke-linecap: square"/>
   </g>
   <g id="patch_4">
    <path d="M 207.185756 149.259249 
L 207.185756 10.659249 
" style="fill: none; stroke: #000000; stroke-width: 0.8; stroke-linejoin: miter; stroke-linecap: square"/>
   </g>
   <g id="patch_5">
    <path d="M 39.785756 149.259249 
L 207.185756 149.259249 
" style="fill: none; stroke: #000000; stroke-width: 0.8; stroke-linejoin: miter; stroke-linecap: square"/>
   </g>
   <g id="patch_6">
    <path d="M 39.785756 10.659249 
L 207.185756 10.659249 
" style="fill: none; stroke: #000000; stroke-width: 0.8; stroke-linejoin: miter; stroke-linecap: square"/>
   </g>
  </g>
 </g>
 <defs>
  <clipPath id="pbc5e1144b3">
   <rect x="39.785756" y="10.659249" width="167.4" height="138.6"/>
  </clipPath>
 </defs>
</svg>
