<?xml version="1.0" encoding="utf-8" standalone="no"?>
<!DOCTYPE svg PUBLIC "-//W3C//DTD SVG 1.1//EN"
  "http://www.w3.org/Graphics/SVG/1.1/DTD/svg11.dtd">
<svg xmlns:xlink="http://www.w3.org/1999/xlink" width="219.09035pt" height="181.711353pt" viewBox="0 0 219.09035 181.711353" xmlns="http://www.w3.org/2000/svg" version="1.1">
 <metadata>
  <rdf:RDF xmlns:dc="http://purl.org/dc/elements/1.1/" xmlns:cc="http://creativecommons.org/ns#" xmlns:rdf="http://www.w3.org/1999/02/22-rdf-syntax-ns#">
   <cc:Work>
    <dc:type rdf:resource="http://purl.org/dc/dcmitype/StillImage"/>
    <dc:date>2025-06-05T17:31:22.166129</dc:date>
    <dc:format>image/svg+xml</dc:format>
    <dc:creator>
     <cc:Agent>
      <dc:title>Matplotlib v3.9.2, https://matplotlib.org/</dc:title>
     </cc:Agent>
    </dc:creator>
   </cc:Work>
  </rdf:RDF>
 </metadata>
 <defs>
  <style type="text/css">*{stroke-linejoin: round; stroke-linecap: butt}</style>
 </defs>
 <g id="figure_1">
  <g id="patch_1">
   <path d="M 0 181.711353 
L 219.09035 181.711353 
L 219.09035 0 
L 0 0 
z
" style="fill: #ffffff"/>
  </g>
  <g id="axes_1">
   <g id="patch_2">
    <path d="M 37.018347 145.8 
L 204.418347 145.8 
L 204.418347 7.2 
L 37.018347 7.2 
z
" style="fill: #ffffff"/>
   </g>
   <g id="matplotlib.axis_1">
    <g id="xtick_1">
     <g id="line2d_1">
      <defs>
       <path id="m8521cea6f5" d="M 0 0 
L 0 3.5 
" style="stroke: #000000; stroke-width: 0.8"/>
      </defs>
      <g>
       <use xlink:href="#m8521cea6f5" x="37.018347" y="145.8" style="stroke: #000000; stroke-width: 0.8"/>
      </g>
     </g>
     <g id="text_1">
      <!-- $\mathdefault{0}$ -->
      <g transform="translate(34.52768 159.718498) scale(0.1 -0.1)">
       <defs>
        <path id="CMR17-30" d="M 2688 2038 
C 2688 2430 2682 3099 2413 3613 
C 2176 4063 1798 4224 1466 4224 
C 1158 4224 768 4082 525 3620 
C 269 3137 243 2539 243 2038 
C 243 1671 250 1112 448 623 
C 723 -39 1216 -128 1466 -128 
C 1760 -128 2208 -7 2470 604 
C 2662 1048 2688 1568 2688 2038 
z
M 1466 -26 
C 1056 -26 813 328 723 816 
C 653 1196 653 1749 653 2109 
C 653 2604 653 3015 736 3407 
C 858 3954 1216 4121 1466 4121 
C 1728 4121 2067 3947 2189 3420 
C 2272 3054 2278 2623 2278 2109 
C 2278 1691 2278 1176 2202 797 
C 2067 96 1690 -26 1466 -26 
z
" transform="scale(0.015625)"/>
       </defs>
       <use xlink:href="#CMR17-30" transform="scale(0.996264)"/>
      </g>
     </g>
    </g>
    <g id="xtick_2">
     <g id="line2d_2">
      <g>
       <use xlink:href="#m8521cea6f5" x="70.498347" y="145.8" style="stroke: #000000; stroke-width: 0.8"/>
      </g>
     </g>
     <g id="text_2">
      <!-- $\mathdefault{100}$ -->
      <g transform="translate(63.026344 159.718498) scale(0.1 -0.1)">
       <defs>
        <path id="CMR17-31" d="M 1702 4083 
C 1702 4217 1696 4224 1606 4224 
C 1357 3927 979 3833 621 3820 
C 602 3820 570 3820 563 3808 
C 557 3795 557 3782 557 3648 
C 755 3648 1088 3686 1344 3839 
L 1344 467 
C 1344 243 1331 166 781 166 
L 589 166 
L 589 0 
C 896 6 1216 12 1523 12 
C 1830 12 2150 6 2458 0 
L 2458 166 
L 2266 166 
C 1715 166 1702 236 1702 467 
L 1702 4083 
z
" transform="scale(0.015625)"/>
       </defs>
       <use xlink:href="#CMR17-31" transform="scale(0.996264)"/>
       <use xlink:href="#CMR17-30" transform="translate(45.690477 0) scale(0.996264)"/>
       <use xlink:href="#CMR17-30" transform="translate(91.380954 0) scale(0.996264)"/>
      </g>
     </g>
    </g>
    <g id="xtick_3">
     <g id="line2d_3">
      <g>
       <use xlink:href="#m8521cea6f5" x="103.978347" y="145.8" style="stroke: #000000; stroke-width: 0.8"/>
      </g>
     </g>
     <g id="text_3">
      <!-- $\mathdefault{200}$ -->
      <g transform="translate(96.506344 159.718498) scale(0.1 -0.1)">
       <defs>
        <path id="CMR17-32" d="M 2669 990 
L 2554 990 
C 2490 537 2438 460 2413 422 
C 2381 371 1920 371 1830 371 
L 602 371 
C 832 620 1280 1073 1824 1596 
C 2214 1966 2669 2400 2669 3033 
C 2669 3788 2067 4224 1395 4224 
C 691 4224 262 3603 262 3027 
C 262 2777 448 2745 525 2745 
C 589 2745 781 2783 781 3007 
C 781 3206 614 3264 525 3264 
C 486 3264 448 3257 422 3244 
C 544 3788 915 4057 1306 4057 
C 1862 4057 2227 3616 2227 3033 
C 2227 2477 1901 1998 1536 1583 
L 262 147 
L 262 0 
L 2515 0 
L 2669 990 
z
" transform="scale(0.015625)"/>
       </defs>
       <use xlink:href="#CMR17-32" transform="scale(0.996264)"/>
       <use xlink:href="#CMR17-30" transform="translate(45.690477 0) scale(0.996264)"/>
       <use xlink:href="#CMR17-30" transform="translate(91.380954 0) scale(0.996264)"/>
      </g>
     </g>
    </g>
    <g id="xtick_4">
     <g id="line2d_4">
      <g>
       <use xlink:href="#m8521cea6f5" x="137.458347" y="145.8" style="stroke: #000000; stroke-width: 0.8"/>
      </g>
     </g>
     <g id="text_4">
      <!-- $\mathdefault{300}$ -->
      <g transform="translate(129.986344 159.718498) scale(0.1 -0.1)">
       <defs>
        <path id="CMR17-33" d="M 1414 2176 
C 1984 2176 2234 1673 2234 1094 
C 2234 322 1824 25 1453 25 
C 1114 25 563 193 390 691 
C 422 678 454 678 486 678 
C 640 678 755 780 755 947 
C 755 1132 614 1216 486 1216 
C 378 1216 211 1164 211 927 
C 211 335 787 -128 1466 -128 
C 2176 -128 2720 432 2720 1087 
C 2720 1718 2208 2176 1600 2246 
C 2086 2347 2554 2776 2554 3353 
C 2554 3856 2048 4224 1472 4224 
C 890 4224 378 3862 378 3347 
C 378 3123 544 3084 627 3084 
C 762 3084 877 3167 877 3334 
C 877 3500 762 3584 627 3584 
C 602 3584 570 3584 544 3571 
C 730 3999 1235 4076 1459 4076 
C 1683 4076 2106 3966 2106 3347 
C 2106 3167 2080 2851 1862 2574 
C 1670 2329 1453 2316 1242 2297 
C 1210 2297 1062 2284 1037 2284 
C 992 2278 966 2272 966 2227 
C 966 2182 973 2176 1101 2176 
L 1414 2176 
z
" transform="scale(0.015625)"/>
       </defs>
       <use xlink:href="#CMR17-33" transform="scale(0.996264)"/>
       <use xlink:href="#CMR17-30" transform="translate(45.690477 0) scale(0.996264)"/>
       <use xlink:href="#CMR17-30" transform="translate(91.380954 0) scale(0.996264)"/>
      </g>
     </g>
    </g>
    <g id="xtick_5">
     <g id="line2d_5">
      <g>
       <use xlink:href="#m8521cea6f5" x="170.938347" y="145.8" style="stroke: #000000; stroke-width: 0.8"/>
      </g>
     </g>
     <g id="text_5">
      <!-- $\mathdefault{400}$ -->
      <g transform="translate(163.466344 159.718498) scale(0.1 -0.1)">
       <defs>
        <path id="CMR17-34" d="M 2150 4147 
C 2150 4281 2144 4288 2029 4288 
L 128 1254 
L 128 1088 
L 1779 1088 
L 1779 460 
C 1779 230 1766 166 1318 166 
L 1197 166 
L 1197 0 
C 1402 12 1747 12 1965 12 
C 2182 12 2528 12 2733 0 
L 2733 166 
L 2611 166 
C 2163 166 2150 230 2150 460 
L 2150 1088 
L 2803 1088 
L 2803 1254 
L 2150 1254 
L 2150 4147 
z
M 1798 3723 
L 1798 1254 
L 256 1254 
L 1798 3723 
z
" transform="scale(0.015625)"/>
       </defs>
       <use xlink:href="#CMR17-34" transform="scale(0.996264)"/>
       <use xlink:href="#CMR17-30" transform="translate(45.690477 0) scale(0.996264)"/>
       <use xlink:href="#CMR17-30" transform="translate(91.380954 0) scale(0.996264)"/>
      </g>
     </g>
    </g>
    <g id="xtick_6">
     <g id="line2d_6">
      <g>
       <use xlink:href="#m8521cea6f5" x="204.418347" y="145.8" style="stroke: #000000; stroke-width: 0.8"/>
      </g>
     </g>
     <g id="text_6">
      <!-- $\mathdefault{500}$ -->
      <g transform="translate(196.946344 159.718498) scale(0.1 -0.1)">
       <defs>
        <path id="CMR17-35" d="M 730 3750 
C 794 3724 1056 3641 1325 3641 
C 1920 3641 2246 3961 2432 4140 
C 2432 4191 2432 4224 2394 4224 
C 2387 4224 2374 4224 2323 4198 
C 2099 4102 1837 4032 1517 4032 
C 1325 4032 1037 4055 723 4191 
C 653 4224 640 4224 634 4224 
C 602 4224 595 4217 595 4090 
L 595 2231 
C 595 2113 595 2080 659 2080 
C 691 2080 704 2093 736 2139 
C 941 2435 1222 2560 1542 2560 
C 1766 2560 2246 2415 2246 1293 
C 2246 1087 2246 716 2054 422 
C 1894 159 1645 25 1370 25 
C 947 25 518 319 403 812 
C 429 806 480 793 506 793 
C 589 793 749 838 749 1036 
C 749 1209 627 1280 506 1280 
C 358 1280 262 1190 262 1011 
C 262 454 704 -128 1382 -128 
C 2042 -128 2669 441 2669 1267 
C 2669 2054 2170 2662 1549 2662 
C 1222 2662 947 2540 730 2304 
L 730 3750 
z
" transform="scale(0.015625)"/>
       </defs>
       <use xlink:href="#CMR17-35" transform="scale(0.996264)"/>
       <use xlink:href="#CMR17-30" transform="translate(45.690477 0) scale(0.996264)"/>
       <use xlink:href="#CMR17-30" transform="translate(91.380954 0) scale(0.996264)"/>
      </g>
     </g>
    </g>
    <g id="text_7">
     <!-- $Epoch$ -->
     <g transform="translate(106.807546 172.574175) scale(0.1 -0.1)">
      <defs>
       <path id="CMMI12-45" d="M 4448 1489 
C 4454 1508 4474 1553 4474 1578 
C 4474 1611 4448 1643 4410 1643 
C 4384 1643 4371 1636 4352 1617 
C 4339 1611 4339 1598 4282 1469 
C 3904 570 3629 185 2605 185 
L 1670 185 
C 1581 185 1568 185 1530 192 
C 1459 198 1453 211 1453 262 
C 1453 307 1466 346 1478 403 
L 1920 2176 
L 2554 2176 
C 3053 2176 3091 2066 3091 1874 
C 3091 1810 3091 1752 3046 1559 
C 3034 1534 3027 1508 3027 1489 
C 3027 1444 3059 1424 3098 1424 
C 3155 1424 3162 1469 3187 1559 
L 3552 3036 
C 3552 3068 3526 3099 3488 3099 
C 3430 3099 3424 3074 3398 2986 
C 3270 2500 3142 2361 2573 2361 
L 1965 2361 
L 2362 3913 
C 2419 4134 2432 4153 2694 4153 
L 3610 4153 
C 4397 4153 4557 3945 4557 3465 
C 4557 3459 4557 3282 4531 3074 
C 4525 3049 4518 3011 4518 2998 
C 4518 2948 4550 2929 4589 2929 
C 4634 2929 4659 2954 4672 3068 
L 4806 4172 
C 4806 4191 4819 4255 4819 4268 
C 4819 4339 4762 4339 4646 4339 
L 1523 4339 
C 1402 4339 1338 4339 1338 4223 
C 1338 4153 1382 4153 1491 4153 
C 1888 4153 1888 4109 1888 4039 
C 1888 4008 1882 3983 1862 3913 
L 998 474 
C 941 249 928 185 480 185 
C 358 185 294 185 294 70 
C 294 0 333 0 461 0 
L 3674 0 
C 3814 0 3821 6 3866 108 
L 4448 1489 
z
" transform="scale(0.015625)"/>
       <path id="CMMI12-70" d="M 275 -794 
C 230 -981 205 -1031 -58 -1031 
C -135 -1031 -199 -1031 -199 -1152 
C -199 -1165 -192 -1216 -122 -1216 
C -39 -1216 51 -1204 134 -1204 
L 410 -1204 
C 544 -1204 870 -1216 1005 -1216 
C 1043 -1216 1120 -1216 1120 -1101 
C 1120 -1031 1075 -1031 966 -1031 
C 672 -1031 653 -987 653 -937 
C 653 -863 941 217 979 364 
C 1050 185 1222 -64 1555 -64 
C 2278 -64 3059 874 3059 1813 
C 3059 2400 2726 2816 2246 2816 
C 1837 2816 1491 2419 1421 2330 
C 1370 2649 1120 2816 864 2816 
C 678 2816 531 2726 410 2483 
C 294 2253 205 1864 205 1838 
C 205 1813 230 1781 275 1781 
C 326 1781 333 1787 371 1934 
C 467 2311 589 2687 845 2687 
C 992 2687 1043 2585 1043 2394 
C 1043 2241 1024 2177 998 2062 
L 275 -794 
z
M 1382 1992 
C 1427 2170 1606 2356 1709 2445 
C 1779 2509 1990 2687 2234 2687 
C 2515 2687 2643 2407 2643 2075 
C 2643 1768 2464 1047 2304 715 
C 2144 370 1850 64 1555 64 
C 1120 64 1050 613 1050 638 
C 1050 657 1062 708 1069 740 
L 1382 1992 
z
" transform="scale(0.015625)"/>
       <path id="CMMI12-6f" d="M 2918 1755 
C 2918 2362 2522 2816 1939 2816 
C 1094 2816 262 1896 262 996 
C 262 389 659 -64 1242 -64 
C 2093 -64 2918 855 2918 1755 
z
M 1248 64 
C 928 64 691 319 691 766 
C 691 1060 845 1711 1024 2030 
C 1312 2522 1670 2687 1933 2687 
C 2246 2687 2490 2432 2490 1985 
C 2490 1730 2355 1047 2112 657 
C 1850 230 1498 64 1248 64 
z
" transform="scale(0.015625)"/>
       <path id="CMMI12-63" d="M 2502 2432 
C 2381 2432 2323 2432 2234 2355 
C 2195 2323 2125 2227 2125 2124 
C 2125 1996 2221 1919 2342 1919 
C 2496 1919 2669 2047 2669 2303 
C 2669 2591 2374 2816 1933 2816 
C 1094 2816 256 1932 256 1011 
C 256 446 602 -64 1254 -64 
C 2125 -64 2675 622 2675 706 
C 2675 745 2637 777 2611 777 
C 2592 777 2586 771 2528 712 
C 2118 161 1510 64 1267 64 
C 826 64 685 453 685 777 
C 685 1004 794 1634 1024 2073 
C 1190 2374 1536 2687 1939 2687 
C 2022 2687 2374 2676 2502 2432 
z
" transform="scale(0.015625)"/>
       <path id="CMMI12-68" d="M 1798 4255 
C 1805 4281 1818 4319 1818 4351 
C 1818 4416 1754 4416 1741 4416 
C 1734 4416 1421 4390 1389 4383 
C 1280 4377 1184 4364 1069 4358 
C 909 4345 864 4339 864 4223 
C 864 4159 915 4159 1005 4159 
C 1318 4159 1325 4103 1325 4040 
C 1325 4002 1312 3951 1306 3932 
L 378 249 
C 352 153 352 140 352 102 
C 352 -39 461 -64 525 -64 
C 634 -64 717 19 749 89 
L 1037 1245 
C 1069 1385 1107 1519 1139 1660 
C 1210 1928 1210 1934 1331 2119 
C 1453 2305 1741 2687 2234 2687 
C 2490 2687 2579 2496 2579 2241 
C 2579 1883 2330 1187 2189 804 
C 2131 651 2099 568 2099 453 
C 2099 166 2298 -64 2605 -64 
C 3200 -64 3424 874 3424 913 
C 3424 945 3398 970 3360 970 
C 3302 970 3296 951 3264 842 
C 3117 332 2880 64 2624 64 
C 2560 64 2458 70 2458 274 
C 2458 440 2534 645 2560 715 
C 2675 1021 2963 1775 2963 2145 
C 2963 2528 2739 2816 2253 2816 
C 1888 2816 1568 2643 1306 2311 
L 1798 4255 
z
" transform="scale(0.015625)"/>
      </defs>
      <use xlink:href="#CMMI12-45" transform="scale(0.996264)"/>
      <use xlink:href="#CMMI12-70" transform="translate(78.051636 0) scale(0.996264)"/>
      <use xlink:href="#CMMI12-6f" transform="translate(127.01115 0) scale(0.996264)"/>
      <use xlink:href="#CMMI12-63" transform="translate(173.90646 0) scale(0.996264)"/>
      <use xlink:href="#CMMI12-68" transform="translate(215.889693 0) scale(0.996264)"/>
     </g>
    </g>
   </g>
   <g id="matplotlib.axis_2">
    <g id="ytick_1">
     <g id="line2d_7">
      <defs>
       <path id="m6de190ee51" d="M 0 0 
L -3.5 0 
" style="stroke: #000000; stroke-width: 0.8"/>
      </defs>
      <g>
       <use xlink:href="#m6de190ee51" x="37.018347" y="144.439006" style="stroke: #000000; stroke-width: 0.8"/>
      </g>
     </g>
     <g id="text_8">
      <!-- $\mathdefault{10}$ -->
      <g transform="translate(20.055677 147.898255) scale(0.1 -0.1)">
       <use xlink:href="#CMR17-31" transform="scale(0.996264)"/>
       <use xlink:href="#CMR17-30" transform="translate(45.690477 0) scale(0.996264)"/>
      </g>
     </g>
    </g>
    <g id="ytick_2">
     <g id="line2d_8">
      <g>
       <use xlink:href="#m6de190ee51" x="37.018347" y="108.659523" style="stroke: #000000; stroke-width: 0.8"/>
      </g>
     </g>
     <g id="text_9">
      <!-- $\mathdefault{20}$ -->
      <g transform="translate(20.055677 112.118772) scale(0.1 -0.1)">
       <use xlink:href="#CMR17-32" transform="scale(0.996264)"/>
       <use xlink:href="#CMR17-30" transform="translate(45.690477 0) scale(0.996264)"/>
      </g>
     </g>
    </g>
    <g id="ytick_3">
     <g id="line2d_9">
      <g>
       <use xlink:href="#m6de190ee51" x="37.018347" y="72.880041" style="stroke: #000000; stroke-width: 0.8"/>
      </g>
     </g>
     <g id="text_10">
      <!-- $\mathdefault{30}$ -->
      <g transform="translate(20.055677 76.33929) scale(0.1 -0.1)">
       <use xlink:href="#CMR17-33" transform="scale(0.996264)"/>
       <use xlink:href="#CMR17-30" transform="translate(45.690477 0) scale(0.996264)"/>
      </g>
     </g>
    </g>
    <g id="ytick_4">
     <g id="line2d_10">
      <g>
       <use xlink:href="#m6de190ee51" x="37.018347" y="37.100558" style="stroke: #000000; stroke-width: 0.8"/>
      </g>
     </g>
     <g id="text_11">
      <!-- $\mathdefault{40}$ -->
      <g transform="translate(20.055677 40.559808) scale(0.1 -0.1)">
       <use xlink:href="#CMR17-34" transform="scale(0.996264)"/>
       <use xlink:href="#CMR17-30" transform="translate(45.690477 0) scale(0.996264)"/>
      </g>
     </g>
    </g>
    <g id="text_12">
     <!-- $Loss$ -->
     <g transform="translate(14.118498 86.974621) rotate(-90) scale(0.1 -0.1)">
      <defs>
       <path id="CMMI12-4c" d="M 2349 3860 
C 2406 4102 2426 4166 2989 4166 
C 3162 4166 3206 4166 3206 4287 
C 3206 4352 3136 4352 3110 4352 
C 2982 4352 2835 4339 2707 4339 
L 1850 4339 
C 1728 4339 1587 4352 1466 4352 
C 1414 4352 1344 4352 1344 4230 
C 1344 4166 1402 4166 1498 4166 
C 1888 4166 1888 4115 1888 4045 
C 1888 4032 1888 3994 1862 3898 
L 998 472 
C 941 249 928 185 480 185 
C 358 185 294 185 294 70 
C 294 0 333 0 461 0 
L 3328 0 
C 3469 0 3475 6 3520 121 
L 4013 1478 
C 4026 1510 4038 1548 4038 1567 
C 4038 1605 4006 1631 3974 1631 
C 3968 1631 3936 1631 3923 1605 
C 3910 1599 3910 1586 3859 1465 
C 3654 905 3366 185 2285 185 
L 1670 185 
C 1581 185 1568 185 1530 191 
C 1459 198 1453 211 1453 262 
C 1453 306 1466 344 1478 402 
L 2349 3860 
z
" transform="scale(0.015625)"/>
       <path id="CMMI12-73" d="M 1459 1290 
C 1568 1271 1741 1233 1779 1227 
C 1862 1201 2150 1099 2150 793 
C 2150 595 1971 64 1229 64 
C 1094 64 614 83 486 447 
C 742 414 870 614 870 755 
C 870 889 781 960 653 960 
C 512 960 326 851 326 563 
C 326 176 710 -64 1222 -64 
C 2195 -64 2483 665 2483 998 
C 2483 1093 2483 1271 2278 1475 
C 2118 1627 1965 1659 1619 1729 
C 1446 1767 1171 1824 1171 2111 
C 1171 2239 1286 2687 1894 2687 
C 2163 2687 2426 2589 2490 2368 
C 2208 2368 2195 2124 2195 2118 
C 2195 1983 2317 1945 2374 1945 
C 2464 1945 2643 2015 2643 2284 
C 2643 2546 2400 2816 1901 2816 
C 1062 2816 838 2169 838 1907 
C 838 1424 1312 1322 1459 1290 
z
" transform="scale(0.015625)"/>
      </defs>
      <use xlink:href="#CMMI12-4c" transform="scale(0.996264)"/>
      <use xlink:href="#CMMI12-6f" transform="translate(66.370875 0) scale(0.996264)"/>
      <use xlink:href="#CMMI12-73" transform="translate(113.266185 0) scale(0.996264)"/>
      <use xlink:href="#CMMI12-73" transform="translate(159.216233 0) scale(0.996264)"/>
     </g>
    </g>
   </g>
   <g id="line2d_11">
    <path d="M 37.018347 13.908263 
L 37.353147 14.83653 
L 37.687947 14.683418 
L 38.022747 15.128587 
L 38.692347 14.101216 
L 39.027147 15.739671 
L 39.361947 13.5 
L 39.696747 15.21785 
L 40.031547 14.071748 
L 40.366347 14.823837 
L 40.701147 13.672371 
L 41.035947 14.484105 
L 41.370747 13.949905 
L 41.705547 16.175081 
L 42.040347 16.122219 
L 42.375147 15.134443 
L 42.709947 15.214124 
L 43.044747 14.881517 
L 43.379547 15.13219 
L 43.714347 14.747486 
L 44.049147 15.234666 
L 44.718747 14.591603 
L 45.053547 15.957342 
L 45.723147 16.565163 
L 46.057947 15.444775 
L 46.392747 16.156928 
L 47.062347 15.845408 
L 47.397147 15.117846 
L 47.731947 16.559499 
L 48.066747 17.17293 
L 48.401547 14.675434 
L 48.736347 15.487182 
L 49.071147 16.606492 
L 49.405947 16.419544 
L 49.740747 15.167677 
L 50.075547 16.567975 
L 51.079947 15.850267 
L 51.414747 17.189268 
L 51.749547 16.082951 
L 52.084347 17.155569 
L 52.419147 16.535996 
L 52.753947 16.401951 
L 53.423547 15.751163 
L 53.758347 16.83777 
L 54.093147 16.425277 
L 54.427947 16.255322 
L 54.762747 17.420342 
L 55.432347 17.983109 
L 55.767147 16.624836 
L 56.101947 17.165478 
L 56.436747 16.767179 
L 56.771547 16.132374 
L 57.106347 16.797588 
L 57.441147 16.562816 
L 57.775947 18.351831 
L 58.110747 18.450361 
L 58.445547 17.986111 
L 59.115147 17.806507 
L 59.449947 18.97947 
L 60.119547 18.213145 
L 60.454347 17.06131 
L 60.789147 18.240566 
L 61.458747 19.46837 
L 61.793547 19.29256 
L 62.128347 20.260245 
L 62.463147 20.679495 
L 62.797947 20.764568 
L 63.132747 22.335871 
L 63.467547 22.96519 
L 63.802347 23.067924 
L 64.137147 22.81246 
L 64.806747 24.803518 
L 65.141547 27.032433 
L 65.476347 26.585067 
L 65.811147 27.202497 
L 66.145947 27.245027 
L 66.480747 30.273775 
L 66.815547 31.24445 
L 67.150347 31.645369 
L 67.485147 32.806526 
L 67.819947 34.92632 
L 68.154747 34.990073 
L 68.489547 36.459434 
L 69.159147 41.468976 
L 69.493947 43.310321 
L 69.828747 46.40401 
L 70.163547 48.306242 
L 71.502747 58.444781 
L 71.837547 59.687599 
L 72.172347 62.824923 
L 72.507147 64.46084 
L 73.846347 74.254822 
L 76.189947 88.74652 
L 76.524747 90.113309 
L 77.529147 95.384943 
L 78.868347 100.932609 
L 79.872747 105.0994 
L 80.542347 107.38534 
L 80.877147 108.121679 
L 81.211947 108.465076 
L 81.881547 110.606973 
L 82.216347 110.964722 
L 82.551147 111.945039 
L 82.885947 112.228081 
L 83.220747 112.756924 
L 83.555547 113.561063 
L 84.225147 114.495916 
L 84.559947 115.275385 
L 84.894747 115.35336 
L 85.229547 116.044296 
L 85.564347 116.085775 
L 85.899147 116.302804 
L 86.233947 116.851158 
L 86.568747 117.153117 
L 86.903547 117.045414 
L 87.907947 118.216378 
L 88.242747 118.185655 
L 88.912347 118.652962 
L 89.247147 118.705947 
L 89.581947 118.478537 
L 89.916747 118.821101 
L 90.251547 119.422856 
L 90.586347 119.305818 
L 90.921147 119.578841 
L 91.255947 119.425326 
L 91.590747 119.856853 
L 91.925547 120.028112 
L 92.260347 119.887413 
L 92.595147 120.237934 
L 93.264747 120.30695 
L 93.599547 120.593035 
L 93.934347 120.611488 
L 94.269147 120.46157 
L 94.603947 120.765549 
L 94.938747 120.769166 
L 95.273547 121.16771 
L 95.943147 121.293484 
L 96.277947 121.121666 
L 96.612747 121.310163 
L 96.947547 121.344435 
L 97.617147 121.787925 
L 98.286747 121.688262 
L 98.956347 122.096913 
L 99.291147 122.016583 
L 99.625947 121.80805 
L 99.960747 122.248865 
L 100.295547 122.268076 
L 100.630347 122.163048 
L 101.299947 122.432905 
L 101.969547 122.713804 
L 102.304347 122.552182 
L 103.978347 122.857751 
L 104.313147 122.694014 
L 104.647947 122.895081 
L 104.982747 122.887553 
L 105.317547 123.142131 
L 105.652347 122.942572 
L 105.987147 122.954385 
L 106.321947 123.182811 
L 106.656747 123.238754 
L 106.991547 123.043317 
L 107.326347 123.473291 
L 107.661147 122.995648 
L 107.995947 123.403771 
L 108.330747 123.354236 
L 108.665547 123.513743 
L 109.335147 123.397001 
L 109.669947 123.823209 
L 110.004747 123.550339 
L 110.339547 123.610997 
L 110.674347 123.900563 
L 111.343947 123.647225 
L 111.678747 123.898089 
L 112.013547 123.611096 
L 112.348347 123.642359 
L 112.683147 124.000486 
L 113.687547 124.315169 
L 114.022347 124.031749 
L 117.035547 124.582863 
L 117.370347 124.411557 
L 117.705147 124.498322 
L 118.374747 124.370225 
L 118.709547 124.578693 
L 119.044347 124.42827 
L 119.379147 124.62486 
L 119.713947 124.595222 
L 120.048747 124.857412 
L 120.718347 124.652376 
L 121.053147 124.857838 
L 122.057547 124.889172 
L 122.392347 124.851085 
L 122.727147 125.077515 
L 123.061947 124.926567 
L 123.396747 124.96305 
L 123.731547 125.132349 
L 124.066347 124.881447 
L 125.740347 125.172327 
L 126.075147 124.942887 
L 126.409947 125.200146 
L 127.079547 125.091086 
L 127.414347 124.929388 
L 127.749147 125.20261 
L 129.757947 125.362888 
L 130.092747 125.636454 
L 130.427547 125.503368 
L 132.436347 125.793698 
L 132.771147 125.844932 
L 133.105947 125.734633 
L 133.440747 125.474914 
L 133.775547 125.900029 
L 134.779947 125.636413 
L 135.449547 125.739652 
L 136.119147 126.258839 
L 136.453947 126.057123 
L 136.788747 126.038448 
L 137.123547 126.178768 
L 137.793147 126.054424 
L 138.127947 126.225815 
L 138.462747 126.130581 
L 139.132347 126.210522 
L 139.467147 126.416407 
L 139.801947 126.213525 
L 140.136747 126.530091 
L 140.471547 126.408033 
L 140.806347 126.535165 
L 141.475947 126.450191 
L 141.810747 126.464021 
L 142.480347 126.212607 
L 143.149947 126.615324 
L 143.819547 126.630437 
L 145.828347 126.607241 
L 146.163147 126.853404 
L 146.497947 126.620446 
L 146.832747 126.597359 
L 147.837147 126.795239 
L 148.171947 126.690662 
L 148.506747 126.900018 
L 149.176347 126.964658 
L 149.511147 126.745097 
L 149.845947 126.858324 
L 150.180747 126.779113 
L 150.515547 126.953586 
L 151.185147 126.941623 
L 151.519947 127.076203 
L 151.854747 126.780021 
L 152.189547 126.764072 
L 153.528747 127.075309 
L 153.863547 127.057446 
L 154.198347 126.892954 
L 154.867947 127.273759 
L 155.202747 127.175218 
L 155.537547 127.249608 
L 155.872347 127.144693 
L 156.207147 127.396291 
L 156.541947 127.210477 
L 157.211547 127.394766 
L 157.546347 127.176539 
L 158.215947 127.339645 
L 159.555147 127.254828 
L 159.889947 127.550772 
L 160.559547 127.592834 
L 160.894347 127.649695 
L 161.229147 127.493525 
L 161.898747 127.814889 
L 162.233547 127.53571 
L 162.568347 127.595782 
L 162.903147 127.48753 
L 163.907547 127.992255 
L 164.242347 127.872231 
L 164.911947 127.929645 
L 165.581547 128.077663 
L 165.916347 128.11088 
L 166.251147 127.72247 
L 166.920747 128.212004 
L 167.255547 128.025913 
L 167.590347 128.251378 
L 167.925147 128.137809 
L 169.599147 128.343002 
L 169.933947 128.19884 
L 170.268747 128.563812 
L 170.603547 128.300813 
L 171.607947 128.597965 
L 171.942747 128.425031 
L 172.947147 128.751565 
L 173.281947 128.436616 
L 173.616747 128.450872 
L 173.951547 128.776996 
L 174.286347 128.594174 
L 174.621147 128.697659 
L 174.955947 128.501819 
L 175.625547 128.577928 
L 175.960347 128.773676 
L 176.629947 128.432831 
L 176.964747 128.651662 
L 177.299547 128.623703 
L 177.634347 128.758621 
L 177.969147 128.647581 
L 178.303947 128.770421 
L 178.638747 128.701061 
L 179.977947 129.023203 
L 180.312747 128.897061 
L 180.647547 128.895675 
L 180.982347 129.141094 
L 181.317147 129.041083 
L 182.321547 129.178236 
L 182.656347 128.949902 
L 182.991147 129.100107 
L 183.325947 129.049968 
L 184.665147 129.511509 
L 184.999947 129.379716 
L 185.669547 129.459824 
L 186.004347 129.334525 
L 186.339147 129.564128 
L 186.673947 129.596425 
L 187.008747 129.284516 
L 187.343547 129.723649 
L 187.678347 129.416582 
L 188.013147 129.378669 
L 188.347947 129.718274 
L 189.017547 129.565128 
L 189.352347 129.825144 
L 190.021947 129.701671 
L 190.356747 129.828198 
L 192.365547 129.739007 
L 192.700347 129.915015 
L 193.369947 129.854479 
L 193.704747 129.975049 
L 194.039547 129.832238 
L 194.374347 130.13316 
L 194.709147 129.925183 
L 195.378747 130.101266 
L 195.713547 129.787051 
L 196.383147 130.33231 
L 197.052747 130.209941 
L 197.387547 130.610605 
L 198.057147 130.433536 
L 198.391947 130.474574 
L 198.726747 130.366691 
L 199.396347 130.565619 
L 199.731147 130.420614 
L 200.400747 130.614304 
L 201.070347 130.46471 
L 201.739947 130.704823 
L 202.074747 130.520318 
L 202.409547 130.70729 
L 202.744347 130.443257 
L 204.083547 130.821803 
L 204.083547 130.821803 
" clip-path="url(#p714a95aad1)" style="fill: none; stroke: #1f77b4; stroke-width: 1.5; stroke-linecap: square"/>
   </g>
   <g id="line2d_12">
    <path d="M 37.018347 13.94016 
L 37.353147 14.926408 
L 37.687947 14.815238 
L 38.022747 15.335148 
L 38.692347 14.480256 
L 39.027147 16.167069 
L 39.361947 13.968085 
L 39.696747 15.714939 
L 40.031547 14.665033 
L 40.366347 15.493133 
L 40.701147 14.325138 
L 41.035947 15.001012 
L 41.370747 14.280574 
L 41.705547 16.419039 
L 42.040347 16.477784 
L 42.375147 14.919433 
L 42.709947 15.153605 
L 43.044747 15.001954 
L 43.379547 15.445144 
L 43.714347 15.087695 
L 44.049147 15.671099 
L 44.383947 15.467719 
L 44.718747 15.951677 
L 45.053547 17.43193 
L 45.723147 18.265106 
L 46.057947 17.096006 
L 46.392747 17.918004 
L 46.727547 17.699405 
L 47.062347 17.687776 
L 47.397147 17.259259 
L 47.731947 18.884638 
L 48.066747 19.393534 
L 48.401547 16.846301 
L 49.071147 19.055985 
L 49.405947 18.994525 
L 49.740747 18.085461 
L 50.075547 19.726537 
L 50.745147 19.775263 
L 51.079947 19.404862 
L 51.414747 20.979837 
L 51.749547 20.33818 
L 52.084347 21.899151 
L 52.419147 21.419765 
L 52.753947 21.518568 
L 53.088747 21.477049 
L 53.423547 21.60562 
L 53.758347 22.896837 
L 54.093147 22.359306 
L 54.427947 22.481381 
L 55.097547 24.618468 
L 55.432347 23.770946 
L 55.767147 23.537115 
L 56.101947 25.131635 
L 56.436747 25.033909 
L 56.771547 24.32581 
L 57.106347 23.162101 
L 57.441147 22.955035 
L 57.775947 26.13048 
L 58.110747 27.097552 
L 58.445547 28.439187 
L 59.449947 35.828055 
L 61.123947 53.411803 
L 62.128347 69.331137 
L 63.132747 89.116149 
L 63.467547 84.982183 
L 63.802347 86.715907 
L 64.137147 87.860577 
L 65.141547 100.424526 
L 66.145947 105.286935 
L 66.480747 107.168973 
L 66.815547 108.334484 
L 67.150347 108.993482 
L 67.485147 109.957243 
L 68.824347 112.280745 
L 69.159147 113.603306 
L 69.493947 112.957295 
L 69.828747 113.510808 
L 70.498347 116.130031 
L 70.833147 116.710657 
L 71.167947 116.862159 
L 72.172347 119.293356 
L 72.507147 119.32193 
L 72.841947 119.824376 
L 73.176747 120.835458 
L 73.511547 121.137724 
L 73.846347 121.193684 
L 74.181147 121.651772 
L 74.515947 121.748767 
L 74.850747 122.509086 
L 75.185547 122.663973 
L 75.520347 123.459602 
L 76.189947 124.1864 
L 76.524747 124.202116 
L 76.859547 124.697799 
L 77.194347 124.631992 
L 77.529147 125.088397 
L 78.198747 125.266677 
L 78.533547 125.788385 
L 78.868347 125.788771 
L 79.872747 126.375389 
L 80.207547 126.651112 
L 80.542347 126.624722 
L 81.546747 126.966979 
L 81.881547 127.624615 
L 82.216347 127.568907 
L 82.551147 127.697472 
L 82.885947 127.692497 
L 83.555547 128.033915 
L 83.890347 128.106165 
L 84.225147 128.587138 
L 84.559947 128.628586 
L 84.894747 128.521832 
L 85.229547 128.974917 
L 85.564347 129.094433 
L 85.899147 129.009308 
L 86.568747 129.458668 
L 86.903547 129.194103 
L 87.907947 129.9673 
L 88.242747 129.778506 
L 88.912347 129.952699 
L 89.247147 129.860423 
L 89.581947 129.59883 
L 90.251547 130.405986 
L 90.586347 130.293973 
L 90.921147 130.537522 
L 91.255947 130.364538 
L 91.590747 130.694286 
L 91.925547 130.85555 
L 92.260347 130.674812 
L 93.599547 131.125635 
L 94.269147 130.986301 
L 94.603947 131.425557 
L 94.938747 131.138417 
L 95.273547 131.68513 
L 95.608347 131.542237 
L 95.943147 131.764866 
L 96.612747 131.533324 
L 97.951947 132.014939 
L 98.956347 132.284144 
L 99.625947 132.121765 
L 99.960747 132.447503 
L 100.630347 132.285605 
L 101.299947 132.557175 
L 101.634747 132.70726 
L 102.973947 132.705117 
L 103.308747 132.9341 
L 103.643547 132.806726 
L 104.313147 132.803389 
L 105.317547 133.194184 
L 105.652347 132.852504 
L 105.987147 132.880798 
L 106.321947 133.051937 
L 106.656747 133.062388 
L 106.991547 132.827643 
L 107.326347 133.266878 
L 107.661147 132.807828 
L 107.995947 133.333491 
L 108.330747 133.211644 
L 108.665547 133.249087 
L 109.000347 133.544341 
L 109.335147 133.07084 
L 109.669947 133.567182 
L 110.004747 133.311844 
L 110.674347 133.592299 
L 111.343947 133.422904 
L 111.678747 133.607838 
L 112.013547 133.249769 
L 112.348347 133.325704 
L 112.683147 133.748216 
L 113.017947 133.827348 
L 113.352747 133.558017 
L 113.687547 133.908565 
L 114.022347 133.652384 
L 114.357147 133.640077 
L 114.691947 133.809093 
L 115.026747 133.62824 
L 115.361547 133.667593 
L 115.696347 133.877235 
L 118.039947 134.108469 
L 118.374747 133.975031 
L 118.709547 134.207484 
L 119.044347 133.991359 
L 119.379147 134.239043 
L 120.048747 134.309471 
L 120.383547 134.071791 
L 120.718347 134.291073 
L 122.057547 134.328784 
L 122.392347 134.268883 
L 122.727147 134.555126 
L 123.061947 134.430819 
L 123.396747 134.429601 
L 123.731547 134.598085 
L 124.066347 134.368779 
L 124.735947 134.436947 
L 125.740347 134.790205 
L 126.075147 134.710456 
L 126.409947 134.971328 
L 127.079547 134.848206 
L 127.414347 134.695916 
L 127.749147 134.949275 
L 128.753547 135.219934 
L 129.088347 134.979869 
L 129.757947 135.045011 
L 130.092747 135.364819 
L 130.762347 135.253275 
L 131.097147 135.333704 
L 131.766747 135.279214 
L 133.105947 135.585582 
L 133.440747 135.202822 
L 133.775547 135.679748 
L 134.779947 135.311101 
L 135.114747 135.43954 
L 135.449547 135.39903 
L 136.119147 135.873363 
L 136.453947 135.816738 
L 136.788747 135.605936 
L 137.123547 135.925024 
L 137.458347 135.735507 
L 138.127947 135.857821 
L 138.462747 135.77456 
L 139.467147 135.934223 
L 139.801947 135.801478 
L 140.136747 136.031611 
L 140.471547 135.942893 
L 140.806347 136.030488 
L 141.141147 135.913716 
L 141.475947 136.065756 
L 141.810747 136.033221 
L 142.480347 135.728433 
L 142.815147 135.984659 
L 144.154347 136.212962 
L 144.489147 136.048934 
L 145.158747 136.160977 
L 145.493547 136.026397 
L 146.163147 136.286775 
L 146.497947 135.99306 
L 146.832747 135.928235 
L 149.176347 136.304146 
L 149.511147 136.149212 
L 149.845947 136.197873 
L 150.180747 135.956655 
L 150.515547 136.245067 
L 151.519947 136.340268 
L 151.854747 136.116434 
L 152.189547 136.075444 
L 152.859147 136.355923 
L 153.863547 136.456924 
L 154.198347 136.146646 
L 154.533147 136.515034 
L 156.207147 136.63791 
L 156.541947 136.539516 
L 157.211547 136.569097 
L 157.546347 136.326759 
L 158.550747 136.560105 
L 158.885547 136.491261 
L 159.220347 136.601246 
L 159.555147 136.472095 
L 159.889947 136.773825 
L 160.559547 136.675915 
L 160.894347 136.862156 
L 161.229147 136.687387 
L 161.898747 136.947891 
L 162.568347 136.678338 
L 162.903147 136.659769 
L 163.572747 136.891508 
L 163.907547 136.929909 
L 164.242347 136.816259 
L 164.911947 136.873007 
L 165.581547 136.8923 
L 165.916347 136.995317 
L 166.251147 136.521015 
L 166.920747 137.15362 
L 167.255547 137.006414 
L 167.590347 137.070051 
L 167.925147 136.934911 
L 168.929547 137.051735 
L 169.599147 136.983412 
L 169.933947 136.894705 
L 170.268747 137.076599 
L 170.603547 136.932635 
L 171.607947 137.122627 
L 171.942747 136.96512 
L 172.612347 137.215438 
L 172.947147 137.240887 
L 173.281947 137.020087 
L 173.951547 137.295976 
L 174.286347 137.120433 
L 174.621147 137.177478 
L 174.955947 137.064022 
L 175.625547 137.123108 
L 175.960347 137.418218 
L 176.295147 137.195344 
L 176.629947 137.149675 
L 176.964747 137.257855 
L 177.299547 137.168285 
L 177.634347 137.310959 
L 177.969147 137.21608 
L 178.303947 137.427919 
L 179.308347 137.310901 
L 179.643147 137.521601 
L 179.977947 137.512805 
L 180.312747 137.179429 
L 180.982347 137.437037 
L 181.317147 137.397759 
L 181.651947 137.546988 
L 182.321547 137.539638 
L 182.656347 137.30942 
L 182.991147 137.441097 
L 183.660747 137.420122 
L 184.665147 137.629174 
L 184.999947 137.461877 
L 185.334747 137.505622 
L 186.004347 137.326481 
L 186.339147 137.571228 
L 186.673947 137.577459 
L 187.008747 137.319517 
L 187.343547 137.788329 
L 187.678347 137.467873 
L 188.013147 137.359846 
L 188.347947 137.723433 
L 188.682747 137.719997 
L 189.017547 137.535397 
L 189.352347 137.825102 
L 190.021947 137.746581 
L 191.026347 137.829057 
L 193.035147 137.87087 
L 193.704747 137.780123 
L 194.039547 137.775598 
L 194.374347 137.958775 
L 194.709147 137.804404 
L 195.378747 137.818739 
L 195.713547 137.47322 
L 196.048347 137.837083 
L 196.383147 137.95077 
L 196.717947 137.790332 
L 197.387547 138.112679 
L 198.057147 137.947679 
L 198.391947 137.937633 
L 198.726747 137.791752 
L 200.400747 138.082287 
L 201.739947 138.011968 
L 202.074747 137.911325 
L 202.409547 138.159982 
L 202.744347 137.963457 
L 203.413947 138.038399 
L 204.083547 138.132681 
L 204.083547 138.132681 
" clip-path="url(#p714a95aad1)" style="fill: none; stroke: #ff7f0e; stroke-width: 1.5; stroke-linecap: square"/>
   </g>
   <g id="line2d_13">
    <path d="M 37.018347 14.004459 
L 37.353147 15.245421 
L 37.687947 15.387368 
L 38.022747 16.079921 
L 38.692347 15.440981 
L 39.027147 17.288849 
L 39.361947 15.360985 
L 39.696747 17.502098 
L 40.031547 16.303202 
L 40.366347 17.49859 
L 40.701147 16.583644 
L 41.035947 17.39475 
L 41.370747 17.050487 
L 41.705547 19.146327 
L 42.375147 17.97709 
L 42.709947 17.46395 
L 43.044747 17.495014 
L 43.379547 18.645635 
L 43.714347 19.112328 
L 44.049147 20.074267 
L 44.383947 20.174162 
L 44.718747 20.150468 
L 45.053547 21.503282 
L 45.723147 23.052829 
L 46.057947 22.679548 
L 46.727547 28.149819 
L 47.062347 31.457507 
L 47.397147 33.219416 
L 48.066747 39.004715 
L 48.401547 38.662853 
L 49.071147 43.657 
L 49.405947 45.09243 
L 49.740747 45.192325 
L 50.075547 52.968573 
L 50.410347 57.840604 
L 50.745147 61.022519 
L 51.079947 62.291569 
L 51.414747 64.738388 
L 51.749547 63.178004 
L 52.084347 66.35031 
L 52.753947 69.602195 
L 53.758347 78.706088 
L 54.093147 75.998052 
L 54.427947 77.722734 
L 55.097547 83.435387 
L 55.432347 85.271729 
L 55.767147 86.466414 
L 56.101947 89.723254 
L 57.775947 100.037549 
L 58.110747 101.099513 
L 58.445547 102.749277 
L 58.780347 105.392897 
L 59.449947 108.669432 
L 59.784747 109.43345 
L 60.454347 111.725342 
L 61.123947 114.382877 
L 61.458747 114.981294 
L 62.797947 120.271545 
L 63.132747 120.556245 
L 63.467547 121.868378 
L 63.802347 122.712624 
L 64.137147 122.284018 
L 64.806747 124.569982 
L 65.141547 125.541049 
L 65.476347 125.451857 
L 65.811147 125.731511 
L 66.145947 126.313475 
L 66.480747 127.611707 
L 66.815547 128.199089 
L 67.150347 128.502669 
L 67.485147 129.272621 
L 67.819947 130.473991 
L 68.154747 131.074633 
L 68.489547 131.067843 
L 69.159147 131.655556 
L 69.828747 132.165274 
L 70.163547 132.369886 
L 70.498347 132.410034 
L 71.167947 132.809926 
L 71.837547 132.886994 
L 72.172347 133.222048 
L 72.507147 133.199968 
L 73.176747 133.780833 
L 73.846347 133.712234 
L 74.181147 133.943609 
L 74.515947 133.769122 
L 74.850747 134.091964 
L 75.185547 134.054529 
L 75.855147 134.372041 
L 76.524747 134.259315 
L 76.859547 134.733949 
L 77.194347 134.566956 
L 77.529147 134.819697 
L 77.863947 134.666172 
L 78.198747 134.656181 
L 78.533547 135.037221 
L 79.203147 134.744509 
L 79.872747 135.147162 
L 80.207547 135.05936 
L 80.542347 135.09688 
L 80.877147 134.975174 
L 81.211947 135.049485 
L 81.546747 134.964712 
L 81.881547 135.323655 
L 83.555547 135.438837 
L 83.890347 135.104957 
L 84.225147 135.535412 
L 84.559947 135.396427 
L 84.894747 135.396706 
L 85.229547 135.602987 
L 85.899147 134.897052 
L 86.568747 135.430388 
L 86.903547 135.281862 
L 87.238347 135.484219 
L 87.573147 135.505675 
L 87.907947 135.866382 
L 88.242747 135.618827 
L 88.577547 135.75394 
L 88.912347 135.752889 
L 89.581947 135.465892 
L 89.916747 135.918472 
L 90.251547 136.072533 
L 90.586347 135.783858 
L 90.921147 136.032747 
L 91.255947 135.863219 
L 91.925547 136.338077 
L 92.595147 136.09909 
L 92.929947 136.213061 
L 93.264747 136.131793 
L 93.599547 136.331939 
L 94.269147 136.154944 
L 94.603947 136.409743 
L 94.938747 136.1438 
L 95.273547 136.645905 
L 95.608347 136.518111 
L 96.277947 136.532914 
L 96.612747 136.370394 
L 97.282347 136.55957 
L 98.286747 136.479762 
L 98.621547 136.178298 
L 98.956347 136.251807 
L 99.291147 136.185061 
L 100.295547 136.533224 
L 100.630347 136.392345 
L 100.965147 136.463066 
L 101.299947 135.696744 
L 101.634747 126.855226 
L 101.634747 126.855226 
" clip-path="url(#p714a95aad1)" style="fill: none; stroke: #2ca02c; stroke-width: 1.5; stroke-linecap: square"/>
   </g>
   <g id="line2d_14">
    <path d="M 37.018347 16.530536 
L 37.353147 17.734005 
L 37.687947 17.806466 
L 38.022747 18.550011 
L 38.692347 17.943855 
L 39.027147 19.837515 
L 39.361947 17.824496 
L 39.696747 19.771878 
L 40.031547 18.80422 
L 40.366347 19.777829 
L 40.701147 18.831217 
L 41.035947 19.83125 
L 41.370747 19.519171 
L 41.705547 21.947618 
L 42.040347 22.137008 
L 42.375147 21.431516 
L 42.709947 21.710934 
L 43.044747 21.536339 
L 43.379547 21.972909 
L 43.714347 21.852609 
L 44.049147 22.506454 
L 44.718747 22.38038 
L 45.053547 23.944982 
L 45.723147 24.977431 
L 46.057947 24.071834 
L 46.392747 24.995201 
L 46.727547 25.014583 
L 47.062347 25.20583 
L 47.397147 24.71764 
L 47.731947 26.435927 
L 48.066747 27.224294 
L 48.401547 25.163082 
L 49.071147 27.514113 
L 49.405947 27.629309 
L 49.740747 26.90034 
L 50.075547 28.478577 
L 51.079947 28.962181 
L 51.414747 30.54282 
L 51.749547 29.957396 
L 52.084347 31.402626 
L 52.419147 31.220319 
L 53.088747 31.628349 
L 53.423547 31.786976 
L 53.758347 33.365595 
L 54.093147 33.506464 
L 54.427947 33.805468 
L 54.762747 35.273013 
L 55.432347 36.981036 
L 55.767147 36.413492 
L 56.101947 37.420582 
L 56.436747 37.717893 
L 56.771547 37.79722 
L 57.106347 39.126694 
L 57.441147 39.661535 
L 57.775947 41.723185 
L 58.110747 42.604515 
L 58.445547 42.913769 
L 59.115147 44.098566 
L 59.449947 45.892412 
L 60.119547 47.42453 
L 60.454347 47.519089 
L 61.458747 51.358111 
L 61.793547 52.059127 
L 62.463147 54.590745 
L 62.797947 55.491046 
L 63.132747 57.365134 
L 63.467547 58.479203 
L 64.137147 59.838213 
L 65.141547 64.707828 
L 65.476347 64.861473 
L 66.145947 66.827151 
L 66.480747 69.304433 
L 66.815547 70.356223 
L 67.150347 70.924231 
L 67.485147 72.110317 
L 67.819947 74.215165 
L 68.154747 74.563305 
L 68.824347 77.027533 
L 69.159147 78.687976 
L 69.828747 80.591102 
L 70.163547 81.579063 
L 70.833147 84.491373 
L 71.167947 85.038915 
L 71.502747 86.388077 
L 71.837547 86.64638 
L 72.172347 88.17527 
L 72.507147 88.471394 
L 73.176747 91.160704 
L 73.511547 92.327034 
L 74.181147 93.740605 
L 75.185547 96.8954 
L 75.520347 97.240973 
L 75.855147 98.070267 
L 76.189947 99.57738 
L 76.524747 99.977631 
L 77.194347 101.160776 
L 77.529147 102.50149 
L 77.863947 102.539454 
L 78.198747 103.139113 
L 78.868347 104.899473 
L 79.203147 105.492451 
L 79.537947 106.436156 
L 79.872747 106.954769 
L 80.542347 108.295626 
L 80.877147 108.754867 
L 81.211947 108.937542 
L 81.881547 110.526405 
L 82.216347 110.691623 
L 82.885947 112.16991 
L 83.220747 112.24594 
L 83.555547 113.115805 
L 83.890347 113.384782 
L 84.225147 113.826034 
L 84.559947 114.693864 
L 84.894747 114.707854 
L 85.229547 115.740686 
L 85.564347 115.758252 
L 85.899147 116.223 
L 86.233947 116.928601 
L 86.568747 117.287947 
L 86.903547 117.239507 
L 87.907947 119.127373 
L 88.242747 119.262838 
L 89.247147 120.261581 
L 89.581947 120.286981 
L 90.251547 121.719995 
L 90.586347 121.69297 
L 90.921147 122.235435 
L 91.255947 122.178308 
L 91.590747 122.894467 
L 91.925547 123.208655 
L 92.260347 123.356468 
L 92.929947 124.113771 
L 93.264747 124.198769 
L 93.599547 124.869897 
L 94.269147 124.966568 
L 94.603947 125.705711 
L 94.938747 125.750019 
L 95.273547 126.289924 
L 96.277947 126.762714 
L 96.612747 126.926261 
L 97.951947 128.18297 
L 98.286747 128.206746 
L 98.621547 128.488843 
L 98.956347 128.937758 
L 99.625947 128.944347 
L 99.960747 129.463257 
L 100.965147 129.7827 
L 101.634747 130.473592 
L 102.973947 130.987871 
L 103.308747 131.404244 
L 103.643547 131.389968 
L 103.978347 131.533004 
L 104.313147 131.462204 
L 104.647947 131.849215 
L 104.982747 131.961402 
L 105.317547 132.206858 
L 105.652347 131.996053 
L 105.987147 132.157972 
L 106.321947 132.47605 
L 106.991547 132.605468 
L 107.326347 132.946237 
L 107.661147 132.720752 
L 107.995947 133.15246 
L 108.330747 133.148556 
L 109.000347 133.51563 
L 109.335147 133.272798 
L 109.669947 133.759186 
L 110.004747 133.575811 
L 110.674347 134.065305 
L 111.009147 133.992881 
L 111.678747 134.217298 
L 112.013547 134.002152 
L 113.017947 134.655796 
L 113.352747 134.608632 
L 113.687547 134.829111 
L 114.357147 134.718153 
L 114.691947 134.945819 
L 115.026747 134.726933 
L 115.361547 135.057169 
L 118.039947 135.619837 
L 118.374747 135.486659 
L 118.709547 135.673142 
L 119.044347 135.558602 
L 119.379147 135.759075 
L 121.387947 136.148311 
L 122.392347 136.145237 
L 122.727147 136.391246 
L 123.396747 136.31223 
L 123.731547 136.48198 
L 124.066347 136.329932 
L 124.735947 136.349549 
L 125.740347 136.596466 
L 126.075147 136.546525 
L 126.409947 136.771778 
L 127.079547 136.680471 
L 127.414347 136.439413 
L 127.749147 136.746862 
L 128.753547 137.024222 
L 129.088347 136.788886 
L 129.423147 136.752516 
L 129.757947 136.863259 
L 130.092747 137.109609 
L 130.427547 136.906437 
L 131.097147 137.110766 
L 131.766747 136.972391 
L 132.436347 137.266529 
L 133.105947 137.25734 
L 133.440747 136.845232 
L 133.775547 137.373246 
L 134.110347 137.256429 
L 134.445147 137.260005 
L 134.779947 137.000405 
L 135.114747 137.170315 
L 135.449547 137.147583 
L 135.784347 137.431983 
L 136.453947 137.588235 
L 136.788747 137.340939 
L 137.123547 137.641513 
L 137.458347 137.425575 
L 138.127947 137.651173 
L 138.462747 137.535915 
L 139.467147 137.704277 
L 139.801947 137.560333 
L 140.136747 137.782672 
L 140.471547 137.685793 
L 140.806347 137.839966 
L 141.141147 137.712152 
L 141.810747 137.779451 
L 142.480347 137.492028 
L 143.149947 137.865691 
L 143.484747 137.819721 
L 144.154347 137.890866 
L 144.489147 137.779526 
L 145.158747 137.898086 
L 145.493547 137.757708 
L 146.163147 138.062731 
L 146.497947 137.840853 
L 147.502347 137.910175 
L 147.837147 137.985411 
L 148.506747 137.966279 
L 148.841547 138.117518 
L 149.845947 138.095335 
L 150.180747 137.809918 
L 150.515547 138.134005 
L 151.519947 138.182926 
L 152.189547 137.948412 
L 152.859147 138.158733 
L 153.863547 138.216611 
L 154.198347 138.005584 
L 154.533147 138.297709 
L 155.537547 138.259482 
L 156.207147 138.407991 
L 156.541947 138.345323 
L 157.211547 138.424653 
L 157.546347 138.184465 
L 157.881147 138.212517 
L 158.215947 138.453994 
L 158.550747 138.355737 
L 159.220347 138.373852 
L 159.555147 138.305178 
L 159.889947 138.484748 
L 160.894347 138.55129 
L 161.229147 138.384423 
L 161.898747 138.572159 
L 162.903147 138.258373 
L 163.572747 138.607134 
L 164.577147 138.550147 
L 165.916347 138.628119 
L 166.251147 138.270357 
L 166.920747 138.783346 
L 167.255547 138.659415 
L 167.590347 138.662746 
L 167.925147 138.458065 
L 168.259947 138.651724 
L 169.599147 138.69554 
L 169.933947 138.596771 
L 170.268747 138.779071 
L 170.603547 138.58749 
L 171.607947 138.825477 
L 171.942747 138.640679 
L 172.947147 138.812347 
L 173.281947 138.598641 
L 173.616747 138.658279 
L 173.951547 138.869419 
L 174.286347 138.722306 
L 174.955947 138.698424 
L 175.625547 138.624348 
L 175.960347 138.902507 
L 176.295147 138.641832 
L 176.629947 138.624181 
L 176.964747 138.844339 
L 177.299547 138.735255 
L 177.634347 138.816411 
L 177.969147 138.708568 
L 178.303947 138.908618 
L 178.638747 138.852931 
L 178.973547 138.967049 
L 179.308347 138.811105 
L 179.643147 138.977323 
L 179.977947 138.956911 
L 180.312747 138.685024 
L 180.647547 138.746505 
L 180.982347 138.93477 
L 181.317147 138.830837 
L 181.651947 138.971352 
L 182.321547 139.067931 
L 182.656347 138.705668 
L 182.991147 138.931589 
L 183.660747 138.920663 
L 184.330347 139.08437 
L 184.665147 139.085711 
L 185.334747 138.94863 
L 186.004347 138.754496 
L 186.339147 139.103397 
L 186.673947 139.091345 
L 187.008747 138.905943 
L 187.343547 139.18777 
L 188.013147 138.779419 
L 188.347947 139.180898 
L 189.017547 139.006702 
L 189.352347 139.235862 
L 190.356747 139.141173 
L 191.361147 139.256315 
L 193.704747 139.134035 
L 194.039547 139.084091 
L 194.374347 139.256673 
L 194.709147 139.124928 
L 195.378747 139.145469 
L 195.713547 138.839266 
L 196.048347 139.12818 
L 196.383147 139.249528 
L 196.717947 139.096675 
L 197.722347 139.295678 
L 199.061547 139.12098 
L 199.396347 139.30025 
L 199.731147 139.167154 
L 200.735547 139.361598 
L 202.074747 139.217259 
L 202.409547 139.5 
L 202.744347 139.267455 
L 204.083547 139.456965 
L 204.083547 139.456965 
" clip-path="url(#p714a95aad1)" style="fill: none; stroke: #d62728; stroke-width: 1.5; stroke-linecap: square"/>
   </g>
   <g id="patch_3">
    <path d="M 37.018347 145.8 
L 37.018347 7.2 
" style="fill: none; stroke: #000000; stroke-width: 0.8; stroke-linejoin: miter; stroke-linecap: square"/>
   </g>
   <g id="patch_4">
    <path d="M 204.418347 145.8 
L 204.418347 7.2 
" style="fill: none; stroke: #000000; stroke-width: 0.8; stroke-linejoin: miter; stroke-linecap: square"/>
   </g>
   <g id="patch_5">
    <path d="M 37.018347 145.8 
L 204.418347 145.8 
" style="fill: none; stroke: #000000; stroke-width: 0.8; stroke-linejoin: miter; stroke-linecap: square"/>
   </g>
   <g id="patch_6">
    <path d="M 37.018347 7.2 
L 204.418347 7.2 
" style="fill: none; stroke: #000000; stroke-width: 0.8; stroke-linejoin: miter; stroke-linecap: square"/>
   </g>
  </g>
 </g>
 <defs>
  <clipPath id="p714a95aad1">
   <rect x="37.018347" y="7.2" width="167.4" height="138.6"/>
  </clipPath>
 </defs>
</svg>
