<?xml version="1.0" encoding="utf-8" standalone="no"?>
<!DOCTYPE svg PUBLIC "-//W3C//DTD SVG 1.1//EN"
  "http://www.w3.org/Graphics/SVG/1.1/DTD/svg11.dtd">
<svg xmlns:xlink="http://www.w3.org/1999/xlink" width="214.109015pt" height="181.711353pt" viewBox="0 0 214.109015 181.711353" xmlns="http://www.w3.org/2000/svg" version="1.1">
 <metadata>
  <rdf:RDF xmlns:dc="http://purl.org/dc/elements/1.1/" xmlns:cc="http://creativecommons.org/ns#" xmlns:rdf="http://www.w3.org/1999/02/22-rdf-syntax-ns#">
   <cc:Work>
    <dc:type rdf:resource="http://purl.org/dc/dcmitype/StillImage"/>
    <dc:date>2025-06-06T14:10:35.566227</dc:date>
    <dc:format>image/svg+xml</dc:format>
    <dc:creator>
     <cc:Agent>
      <dc:title>Matplotlib v3.9.2, https://matplotlib.org/</dc:title>
     </cc:Agent>
    </dc:creator>
   </cc:Work>
  </rdf:RDF>
 </metadata>
 <defs>
  <style type="text/css">*{stroke-linejoin: round; stroke-linecap: butt}</style>
 </defs>
 <g id="figure_1">
  <g id="patch_1">
   <path d="M 0 181.711353 
L 214.109015 181.711353 
L 214.109015 0 
L 0 0 
z
" style="fill: #ffffff"/>
  </g>
  <g id="axes_1">
   <g id="patch_2">
    <path d="M 32.037012 145.8 
L 199.437012 145.8 
L 199.437012 7.2 
L 32.037012 7.2 
z
" style="fill: #ffffff"/>
   </g>
   <g id="matplotlib.axis_1">
    <g id="xtick_1">
     <g id="line2d_1">
      <defs>
       <path id="m8130d75eba" d="M 0 0 
L 0 3.5 
" style="stroke: #000000; stroke-width: 0.8"/>
      </defs>
      <g>
       <use xlink:href="#m8130d75eba" x="32.037012" y="145.8" style="stroke: #000000; stroke-width: 0.8"/>
      </g>
     </g>
     <g id="text_1">
      <!-- $\mathdefault{0}$ -->
      <g transform="translate(29.546344 159.718498) scale(0.1 -0.1)">
       <defs>
        <path id="CMR17-30" d="M 2688 2038 
C 2688 2430 2682 3099 2413 3613 
C 2176 4063 1798 4224 1466 4224 
C 1158 4224 768 4082 525 3620 
C 269 3137 243 2539 243 2038 
C 243 1671 250 1112 448 623 
C 723 -39 1216 -128 1466 -128 
C 1760 -128 2208 -7 2470 604 
C 2662 1048 2688 1568 2688 2038 
z
M 1466 -26 
C 1056 -26 813 328 723 816 
C 653 1196 653 1749 653 2109 
C 653 2604 653 3015 736 3407 
C 858 3954 1216 4121 1466 4121 
C 1728 4121 2067 3947 2189 3420 
C 2272 3054 2278 2623 2278 2109 
C 2278 1691 2278 1176 2202 797 
C 2067 96 1690 -26 1466 -26 
z
" transform="scale(0.015625)"/>
       </defs>
       <use xlink:href="#CMR17-30" transform="scale(0.996264)"/>
      </g>
     </g>
    </g>
    <g id="xtick_2">
     <g id="line2d_2">
      <g>
       <use xlink:href="#m8130d75eba" x="65.517012" y="145.8" style="stroke: #000000; stroke-width: 0.8"/>
      </g>
     </g>
     <g id="text_2">
      <!-- $\mathdefault{100}$ -->
      <g transform="translate(58.045009 159.718498) scale(0.1 -0.1)">
       <defs>
        <path id="CMR17-31" d="M 1702 4083 
C 1702 4217 1696 4224 1606 4224 
C 1357 3927 979 3833 621 3820 
C 602 3820 570 3820 563 3808 
C 557 3795 557 3782 557 3648 
C 755 3648 1088 3686 1344 3839 
L 1344 467 
C 1344 243 1331 166 781 166 
L 589 166 
L 589 0 
C 896 6 1216 12 1523 12 
C 1830 12 2150 6 2458 0 
L 2458 166 
L 2266 166 
C 1715 166 1702 236 1702 467 
L 1702 4083 
z
" transform="scale(0.015625)"/>
       </defs>
       <use xlink:href="#CMR17-31" transform="scale(0.996264)"/>
       <use xlink:href="#CMR17-30" transform="translate(45.690477 0) scale(0.996264)"/>
       <use xlink:href="#CMR17-30" transform="translate(91.380954 0) scale(0.996264)"/>
      </g>
     </g>
    </g>
    <g id="xtick_3">
     <g id="line2d_3">
      <g>
       <use xlink:href="#m8130d75eba" x="98.997012" y="145.8" style="stroke: #000000; stroke-width: 0.8"/>
      </g>
     </g>
     <g id="text_3">
      <!-- $\mathdefault{200}$ -->
      <g transform="translate(91.525009 159.718498) scale(0.1 -0.1)">
       <defs>
        <path id="CMR17-32" d="M 2669 990 
L 2554 990 
C 2490 537 2438 460 2413 422 
C 2381 371 1920 371 1830 371 
L 602 371 
C 832 620 1280 1073 1824 1596 
C 2214 1966 2669 2400 2669 3033 
C 2669 3788 2067 4224 1395 4224 
C 691 4224 262 3603 262 3027 
C 262 2777 448 2745 525 2745 
C 589 2745 781 2783 781 3007 
C 781 3206 614 3264 525 3264 
C 486 3264 448 3257 422 3244 
C 544 3788 915 4057 1306 4057 
C 1862 4057 2227 3616 2227 3033 
C 2227 2477 1901 1998 1536 1583 
L 262 147 
L 262 0 
L 2515 0 
L 2669 990 
z
" transform="scale(0.015625)"/>
       </defs>
       <use xlink:href="#CMR17-32" transform="scale(0.996264)"/>
       <use xlink:href="#CMR17-30" transform="translate(45.690477 0) scale(0.996264)"/>
       <use xlink:href="#CMR17-30" transform="translate(91.380954 0) scale(0.996264)"/>
      </g>
     </g>
    </g>
    <g id="xtick_4">
     <g id="line2d_4">
      <g>
       <use xlink:href="#m8130d75eba" x="132.477012" y="145.8" style="stroke: #000000; stroke-width: 0.8"/>
      </g>
     </g>
     <g id="text_4">
      <!-- $\mathdefault{300}$ -->
      <g transform="translate(125.005009 159.718498) scale(0.1 -0.1)">
       <defs>
        <path id="CMR17-33" d="M 1414 2176 
C 1984 2176 2234 1673 2234 1094 
C 2234 322 1824 25 1453 25 
C 1114 25 563 193 390 691 
C 422 678 454 678 486 678 
C 640 678 755 780 755 947 
C 755 1132 614 1216 486 1216 
C 378 1216 211 1164 211 927 
C 211 335 787 -128 1466 -128 
C 2176 -128 2720 432 2720 1087 
C 2720 1718 2208 2176 1600 2246 
C 2086 2347 2554 2776 2554 3353 
C 2554 3856 2048 4224 1472 4224 
C 890 4224 378 3862 378 3347 
C 378 3123 544 3084 627 3084 
C 762 3084 877 3167 877 3334 
C 877 3500 762 3584 627 3584 
C 602 3584 570 3584 544 3571 
C 730 3999 1235 4076 1459 4076 
C 1683 4076 2106 3966 2106 3347 
C 2106 3167 2080 2851 1862 2574 
C 1670 2329 1453 2316 1242 2297 
C 1210 2297 1062 2284 1037 2284 
C 992 2278 966 2272 966 2227 
C 966 2182 973 2176 1101 2176 
L 1414 2176 
z
" transform="scale(0.015625)"/>
       </defs>
       <use xlink:href="#CMR17-33" transform="scale(0.996264)"/>
       <use xlink:href="#CMR17-30" transform="translate(45.690477 0) scale(0.996264)"/>
       <use xlink:href="#CMR17-30" transform="translate(91.380954 0) scale(0.996264)"/>
      </g>
     </g>
    </g>
    <g id="xtick_5">
     <g id="line2d_5">
      <g>
       <use xlink:href="#m8130d75eba" x="165.957012" y="145.8" style="stroke: #000000; stroke-width: 0.8"/>
      </g>
     </g>
     <g id="text_5">
      <!-- $\mathdefault{400}$ -->
      <g transform="translate(158.485009 159.718498) scale(0.1 -0.1)">
       <defs>
        <path id="CMR17-34" d="M 2150 4147 
C 2150 4281 2144 4288 2029 4288 
L 128 1254 
L 128 1088 
L 1779 1088 
L 1779 460 
C 1779 230 1766 166 1318 166 
L 1197 166 
L 1197 0 
C 1402 12 1747 12 1965 12 
C 2182 12 2528 12 2733 0 
L 2733 166 
L 2611 166 
C 2163 166 2150 230 2150 460 
L 2150 1088 
L 2803 1088 
L 2803 1254 
L 2150 1254 
L 2150 4147 
z
M 1798 3723 
L 1798 1254 
L 256 1254 
L 1798 3723 
z
" transform="scale(0.015625)"/>
       </defs>
       <use xlink:href="#CMR17-34" transform="scale(0.996264)"/>
       <use xlink:href="#CMR17-30" transform="translate(45.690477 0) scale(0.996264)"/>
       <use xlink:href="#CMR17-30" transform="translate(91.380954 0) scale(0.996264)"/>
      </g>
     </g>
    </g>
    <g id="xtick_6">
     <g id="line2d_6">
      <g>
       <use xlink:href="#m8130d75eba" x="199.437012" y="145.8" style="stroke: #000000; stroke-width: 0.8"/>
      </g>
     </g>
     <g id="text_6">
      <!-- $\mathdefault{500}$ -->
      <g transform="translate(191.965009 159.718498) scale(0.1 -0.1)">
       <defs>
        <path id="CMR17-35" d="M 730 3750 
C 794 3724 1056 3641 1325 3641 
C 1920 3641 2246 3961 2432 4140 
C 2432 4191 2432 4224 2394 4224 
C 2387 4224 2374 4224 2323 4198 
C 2099 4102 1837 4032 1517 4032 
C 1325 4032 1037 4055 723 4191 
C 653 4224 640 4224 634 4224 
C 602 4224 595 4217 595 4090 
L 595 2231 
C 595 2113 595 2080 659 2080 
C 691 2080 704 2093 736 2139 
C 941 2435 1222 2560 1542 2560 
C 1766 2560 2246 2415 2246 1293 
C 2246 1087 2246 716 2054 422 
C 1894 159 1645 25 1370 25 
C 947 25 518 319 403 812 
C 429 806 480 793 506 793 
C 589 793 749 838 749 1036 
C 749 1209 627 1280 506 1280 
C 358 1280 262 1190 262 1011 
C 262 454 704 -128 1382 -128 
C 2042 -128 2669 441 2669 1267 
C 2669 2054 2170 2662 1549 2662 
C 1222 2662 947 2540 730 2304 
L 730 3750 
z
" transform="scale(0.015625)"/>
       </defs>
       <use xlink:href="#CMR17-35" transform="scale(0.996264)"/>
       <use xlink:href="#CMR17-30" transform="translate(45.690477 0) scale(0.996264)"/>
       <use xlink:href="#CMR17-30" transform="translate(91.380954 0) scale(0.996264)"/>
      </g>
     </g>
    </g>
    <g id="text_7">
     <!-- $Epoch$ -->
     <g transform="translate(101.826211 172.574175) scale(0.1 -0.1)">
      <defs>
       <path id="CMMI12-45" d="M 4448 1489 
C 4454 1508 4474 1553 4474 1578 
C 4474 1611 4448 1643 4410 1643 
C 4384 1643 4371 1636 4352 1617 
C 4339 1611 4339 1598 4282 1469 
C 3904 570 3629 185 2605 185 
L 1670 185 
C 1581 185 1568 185 1530 192 
C 1459 198 1453 211 1453 262 
C 1453 307 1466 346 1478 403 
L 1920 2176 
L 2554 2176 
C 3053 2176 3091 2066 3091 1874 
C 3091 1810 3091 1752 3046 1559 
C 3034 1534 3027 1508 3027 1489 
C 3027 1444 3059 1424 3098 1424 
C 3155 1424 3162 1469 3187 1559 
L 3552 3036 
C 3552 3068 3526 3099 3488 3099 
C 3430 3099 3424 3074 3398 2986 
C 3270 2500 3142 2361 2573 2361 
L 1965 2361 
L 2362 3913 
C 2419 4134 2432 4153 2694 4153 
L 3610 4153 
C 4397 4153 4557 3945 4557 3465 
C 4557 3459 4557 3282 4531 3074 
C 4525 3049 4518 3011 4518 2998 
C 4518 2948 4550 2929 4589 2929 
C 4634 2929 4659 2954 4672 3068 
L 4806 4172 
C 4806 4191 4819 4255 4819 4268 
C 4819 4339 4762 4339 4646 4339 
L 1523 4339 
C 1402 4339 1338 4339 1338 4223 
C 1338 4153 1382 4153 1491 4153 
C 1888 4153 1888 4109 1888 4039 
C 1888 4008 1882 3983 1862 3913 
L 998 474 
C 941 249 928 185 480 185 
C 358 185 294 185 294 70 
C 294 0 333 0 461 0 
L 3674 0 
C 3814 0 3821 6 3866 108 
L 4448 1489 
z
" transform="scale(0.015625)"/>
       <path id="CMMI12-70" d="M 275 -794 
C 230 -981 205 -1031 -58 -1031 
C -135 -1031 -199 -1031 -199 -1152 
C -199 -1165 -192 -1216 -122 -1216 
C -39 -1216 51 -1204 134 -1204 
L 410 -1204 
C 544 -1204 870 -1216 1005 -1216 
C 1043 -1216 1120 -1216 1120 -1101 
C 1120 -1031 1075 -1031 966 -1031 
C 672 -1031 653 -987 653 -937 
C 653 -863 941 217 979 364 
C 1050 185 1222 -64 1555 -64 
C 2278 -64 3059 874 3059 1813 
C 3059 2400 2726 2816 2246 2816 
C 1837 2816 1491 2419 1421 2330 
C 1370 2649 1120 2816 864 2816 
C 678 2816 531 2726 410 2483 
C 294 2253 205 1864 205 1838 
C 205 1813 230 1781 275 1781 
C 326 1781 333 1787 371 1934 
C 467 2311 589 2687 845 2687 
C 992 2687 1043 2585 1043 2394 
C 1043 2241 1024 2177 998 2062 
L 275 -794 
z
M 1382 1992 
C 1427 2170 1606 2356 1709 2445 
C 1779 2509 1990 2687 2234 2687 
C 2515 2687 2643 2407 2643 2075 
C 2643 1768 2464 1047 2304 715 
C 2144 370 1850 64 1555 64 
C 1120 64 1050 613 1050 638 
C 1050 657 1062 708 1069 740 
L 1382 1992 
z
" transform="scale(0.015625)"/>
       <path id="CMMI12-6f" d="M 2918 1755 
C 2918 2362 2522 2816 1939 2816 
C 1094 2816 262 1896 262 996 
C 262 389 659 -64 1242 -64 
C 2093 -64 2918 855 2918 1755 
z
M 1248 64 
C 928 64 691 319 691 766 
C 691 1060 845 1711 1024 2030 
C 1312 2522 1670 2687 1933 2687 
C 2246 2687 2490 2432 2490 1985 
C 2490 1730 2355 1047 2112 657 
C 1850 230 1498 64 1248 64 
z
" transform="scale(0.015625)"/>
       <path id="CMMI12-63" d="M 2502 2432 
C 2381 2432 2323 2432 2234 2355 
C 2195 2323 2125 2227 2125 2124 
C 2125 1996 2221 1919 2342 1919 
C 2496 1919 2669 2047 2669 2303 
C 2669 2591 2374 2816 1933 2816 
C 1094 2816 256 1932 256 1011 
C 256 446 602 -64 1254 -64 
C 2125 -64 2675 622 2675 706 
C 2675 745 2637 777 2611 777 
C 2592 777 2586 771 2528 712 
C 2118 161 1510 64 1267 64 
C 826 64 685 453 685 777 
C 685 1004 794 1634 1024 2073 
C 1190 2374 1536 2687 1939 2687 
C 2022 2687 2374 2676 2502 2432 
z
" transform="scale(0.015625)"/>
       <path id="CMMI12-68" d="M 1798 4255 
C 1805 4281 1818 4319 1818 4351 
C 1818 4416 1754 4416 1741 4416 
C 1734 4416 1421 4390 1389 4383 
C 1280 4377 1184 4364 1069 4358 
C 909 4345 864 4339 864 4223 
C 864 4159 915 4159 1005 4159 
C 1318 4159 1325 4103 1325 4040 
C 1325 4002 1312 3951 1306 3932 
L 378 249 
C 352 153 352 140 352 102 
C 352 -39 461 -64 525 -64 
C 634 -64 717 19 749 89 
L 1037 1245 
C 1069 1385 1107 1519 1139 1660 
C 1210 1928 1210 1934 1331 2119 
C 1453 2305 1741 2687 2234 2687 
C 2490 2687 2579 2496 2579 2241 
C 2579 1883 2330 1187 2189 804 
C 2131 651 2099 568 2099 453 
C 2099 166 2298 -64 2605 -64 
C 3200 -64 3424 874 3424 913 
C 3424 945 3398 970 3360 970 
C 3302 970 3296 951 3264 842 
C 3117 332 2880 64 2624 64 
C 2560 64 2458 70 2458 274 
C 2458 440 2534 645 2560 715 
C 2675 1021 2963 1775 2963 2145 
C 2963 2528 2739 2816 2253 2816 
C 1888 2816 1568 2643 1306 2311 
L 1798 4255 
z
" transform="scale(0.015625)"/>
      </defs>
      <use xlink:href="#CMMI12-45" transform="scale(0.996264)"/>
      <use xlink:href="#CMMI12-70" transform="translate(78.051636 0) scale(0.996264)"/>
      <use xlink:href="#CMMI12-6f" transform="translate(127.01115 0) scale(0.996264)"/>
      <use xlink:href="#CMMI12-63" transform="translate(173.90646 0) scale(0.996264)"/>
      <use xlink:href="#CMMI12-68" transform="translate(215.889693 0) scale(0.996264)"/>
     </g>
    </g>
   </g>
   <g id="matplotlib.axis_2">
    <g id="ytick_1">
     <g id="line2d_7">
      <defs>
       <path id="mf536b7f0c8" d="M 0 0 
L -3.5 0 
" style="stroke: #000000; stroke-width: 0.8"/>
      </defs>
      <g>
       <use xlink:href="#mf536b7f0c8" x="32.037012" y="145.8" style="stroke: #000000; stroke-width: 0.8"/>
      </g>
     </g>
     <g id="text_8">
      <!-- $\mathdefault{0}$ -->
      <g transform="translate(20.055677 149.259249) scale(0.1 -0.1)">
       <use xlink:href="#CMR17-30" transform="scale(0.996264)"/>
      </g>
     </g>
    </g>
    <g id="ytick_2">
     <g id="line2d_8">
      <g>
       <use xlink:href="#mf536b7f0c8" x="32.037012" y="106.2" style="stroke: #000000; stroke-width: 0.8"/>
      </g>
     </g>
     <g id="text_9">
      <!-- $\mathdefault{2}$ -->
      <g transform="translate(20.055677 109.659249) scale(0.1 -0.1)">
       <use xlink:href="#CMR17-32" transform="scale(0.996264)"/>
      </g>
     </g>
    </g>
    <g id="ytick_3">
     <g id="line2d_9">
      <g>
       <use xlink:href="#mf536b7f0c8" x="32.037012" y="66.6" style="stroke: #000000; stroke-width: 0.8"/>
      </g>
     </g>
     <g id="text_10">
      <!-- $\mathdefault{4}$ -->
      <g transform="translate(20.055677 70.059249) scale(0.1 -0.1)">
       <use xlink:href="#CMR17-34" transform="scale(0.996264)"/>
      </g>
     </g>
    </g>
    <g id="ytick_4">
     <g id="line2d_10">
      <g>
       <use xlink:href="#mf536b7f0c8" x="32.037012" y="27" style="stroke: #000000; stroke-width: 0.8"/>
      </g>
     </g>
     <g id="text_11">
      <!-- $\mathdefault{6}$ -->
      <g transform="translate(20.055677 30.459249) scale(0.1 -0.1)">
       <defs>
        <path id="CMR17-36" d="M 678 2198 
C 678 3712 1395 4076 1811 4076 
C 1946 4076 2272 4049 2400 3782 
C 2298 3782 2106 3782 2106 3558 
C 2106 3385 2246 3328 2336 3328 
C 2394 3328 2566 3353 2566 3571 
C 2566 3987 2246 4224 1805 4224 
C 1043 4224 243 3411 243 2011 
C 243 257 966 -128 1478 -128 
C 2099 -128 2688 431 2688 1295 
C 2688 2101 2170 2688 1517 2688 
C 1126 2688 838 2430 678 1979 
L 678 2198 
z
M 1478 25 
C 691 25 691 1212 691 1450 
C 691 1914 909 2585 1504 2585 
C 1613 2585 1926 2585 2138 2140 
C 2253 1889 2253 1624 2253 1302 
C 2253 954 2253 696 2118 438 
C 1978 173 1773 25 1478 25 
z
" transform="scale(0.015625)"/>
       </defs>
       <use xlink:href="#CMR17-36" transform="scale(0.996264)"/>
      </g>
     </g>
    </g>
    <g id="text_12">
     <!-- $Loss$ -->
     <g transform="translate(14.118498 86.974621) rotate(-90) scale(0.1 -0.1)">
      <defs>
       <path id="CMMI12-4c" d="M 2349 3860 
C 2406 4102 2426 4166 2989 4166 
C 3162 4166 3206 4166 3206 4287 
C 3206 4352 3136 4352 3110 4352 
C 2982 4352 2835 4339 2707 4339 
L 1850 4339 
C 1728 4339 1587 4352 1466 4352 
C 1414 4352 1344 4352 1344 4230 
C 1344 4166 1402 4166 1498 4166 
C 1888 4166 1888 4115 1888 4045 
C 1888 4032 1888 3994 1862 3898 
L 998 472 
C 941 249 928 185 480 185 
C 358 185 294 185 294 70 
C 294 0 333 0 461 0 
L 3328 0 
C 3469 0 3475 6 3520 121 
L 4013 1478 
C 4026 1510 4038 1548 4038 1567 
C 4038 1605 4006 1631 3974 1631 
C 3968 1631 3936 1631 3923 1605 
C 3910 1599 3910 1586 3859 1465 
C 3654 905 3366 185 2285 185 
L 1670 185 
C 1581 185 1568 185 1530 191 
C 1459 198 1453 211 1453 262 
C 1453 306 1466 344 1478 402 
L 2349 3860 
z
" transform="scale(0.015625)"/>
       <path id="CMMI12-73" d="M 1459 1290 
C 1568 1271 1741 1233 1779 1227 
C 1862 1201 2150 1099 2150 793 
C 2150 595 1971 64 1229 64 
C 1094 64 614 83 486 447 
C 742 414 870 614 870 755 
C 870 889 781 960 653 960 
C 512 960 326 851 326 563 
C 326 176 710 -64 1222 -64 
C 2195 -64 2483 665 2483 998 
C 2483 1093 2483 1271 2278 1475 
C 2118 1627 1965 1659 1619 1729 
C 1446 1767 1171 1824 1171 2111 
C 1171 2239 1286 2687 1894 2687 
C 2163 2687 2426 2589 2490 2368 
C 2208 2368 2195 2124 2195 2118 
C 2195 1983 2317 1945 2374 1945 
C 2464 1945 2643 2015 2643 2284 
C 2643 2546 2400 2816 1901 2816 
C 1062 2816 838 2169 838 1907 
C 838 1424 1312 1322 1459 1290 
z
" transform="scale(0.015625)"/>
      </defs>
      <use xlink:href="#CMMI12-4c" transform="scale(0.996264)"/>
      <use xlink:href="#CMMI12-6f" transform="translate(66.370875 0) scale(0.996264)"/>
      <use xlink:href="#CMMI12-73" transform="translate(113.266185 0) scale(0.996264)"/>
      <use xlink:href="#CMMI12-73" transform="translate(159.216233 0) scale(0.996264)"/>
     </g>
    </g>
   </g>
   <g id="line2d_11">
    <path d="M 32.037012 9.429704 
L 32.371812 9.431441 
L 33.711012 10.963644 
L 34.045812 10.998067 
L 35.050212 12.184593 
L 36.389412 12.974242 
L 36.724212 13.782272 
L 37.728612 14.444792 
L 38.063412 14.97958 
L 38.733012 15.4638 
L 39.737412 16.480617 
L 40.072212 16.77077 
L 40.407012 17.333164 
L 40.741812 17.487993 
L 41.076612 18.318561 
L 41.411412 18.489582 
L 41.746212 18.993005 
L 42.081012 19.260253 
L 42.750612 20.564985 
L 43.085412 20.629375 
L 43.420212 21.570633 
L 43.755012 22.171095 
L 44.089812 23.268022 
L 44.424612 23.709718 
L 45.094212 25.017613 
L 45.429012 25.478758 
L 45.763812 26.462153 
L 46.098612 27.039767 
L 47.103012 29.977055 
L 47.437812 30.614461 
L 48.777012 35.711416 
L 49.446612 39.702295 
L 49.781412 40.325992 
L 50.451012 43.740881 
L 50.785812 45.825971 
L 52.125012 51.507083 
L 53.799012 60.854715 
L 54.468612 65.385981 
L 55.138212 71.25584 
L 55.807812 77.111947 
L 56.142612 77.94411 
L 57.816612 91.44727 
L 59.155812 99.974376 
L 59.490612 100.563706 
L 60.495012 103.530583 
L 62.503812 109.023351 
L 63.173412 110.604987 
L 63.843012 112.630639 
L 64.177812 113.118482 
L 64.512612 113.324132 
L 65.517012 114.982356 
L 67.191012 117.51677 
L 67.525812 117.96127 
L 68.195412 119.111053 
L 69.199812 120.149963 
L 69.534612 120.59557 
L 69.869412 120.685742 
L 70.873812 121.74958 
L 71.543412 122.165758 
L 72.547812 122.838338 
L 72.882612 122.819342 
L 75.561012 124.112612 
L 76.230612 124.229978 
L 76.565412 124.362268 
L 76.900212 124.355046 
L 78.239412 124.750278 
L 78.909012 124.854636 
L 80.248212 125.27194 
L 81.252612 125.425424 
L 84.265812 126.098947 
L 84.935412 126.162199 
L 86.274612 126.372658 
L 87.279012 126.525744 
L 93.640212 127.298939 
L 94.309812 127.346929 
L 95.314212 127.477795 
L 98.662212 127.817925 
L 99.666612 127.904205 
L 100.336212 127.957471 
L 103.684212 128.183155 
L 104.353812 128.286456 
L 104.688612 128.215072 
L 105.358212 128.318064 
L 106.027812 128.392356 
L 106.362612 128.358796 
L 106.697412 128.508864 
L 125.781012 129.419951 
L 126.450612 129.393035 
L 127.789812 129.515116 
L 128.794212 129.52363 
L 133.146612 129.716725 
L 133.481412 129.655041 
L 134.151012 129.735236 
L 140.847012 129.955384 
L 141.516612 129.944298 
L 143.190612 130.061779 
L 144.195012 130.07355 
L 144.864612 130.070037 
L 145.534212 130.092689 
L 147.877812 130.132799 
L 148.882212 130.218596 
L 150.556212 130.232053 
L 151.225812 130.267911 
L 151.895412 130.295243 
L 153.569412 130.362278 
L 155.913012 130.392096 
L 199.102212 131.80166 
L 199.102212 131.80166 
" clip-path="url(#peb4e7502c2)" style="fill: none; stroke: #1f77b4; stroke-width: 1.5; stroke-linecap: square"/>
   </g>
   <g id="line2d_12">
    <path d="M 32.037012 9.501109 
L 32.371812 9.402173 
L 32.706612 9.944532 
L 33.041412 9.609024 
L 33.711012 12.464653 
L 34.045812 15.483259 
L 34.380612 14.828735 
L 34.715412 13.874902 
L 35.050212 16.041036 
L 35.385012 14.858315 
L 35.719812 14.648179 
L 36.054612 16.118975 
L 36.389412 18.501497 
L 36.724212 22.834729 
L 37.059012 24.672852 
L 38.398212 43.376652 
L 38.733012 45.137298 
L 39.067812 46.162764 
L 39.402612 46.355207 
L 39.737412 46.101319 
L 40.072212 46.879289 
L 40.407012 49.903711 
L 40.741812 50.369237 
L 41.076612 51.392115 
L 41.411412 55.212502 
L 42.415812 69.276498 
L 43.085412 71.45569 
L 44.424612 80.647955 
L 44.759412 82.021052 
L 45.094212 84.050386 
L 45.763812 86.861287 
L 46.098612 88.124642 
L 47.772612 96.86669 
L 50.451012 106.089748 
L 51.120612 108.866396 
L 52.459812 112.481262 
L 53.799012 115.224697 
L 55.138212 118.233836 
L 56.142612 119.953734 
L 56.477412 120.418462 
L 58.151412 123.52822 
L 59.155812 125.015704 
L 60.160212 126.158547 
L 61.164612 126.94335 
L 61.834212 127.387451 
L 62.169012 127.519593 
L 64.177812 129.41983 
L 66.521412 130.670738 
L 67.525812 131.063114 
L 70.204212 131.799141 
L 70.873812 131.95716 
L 71.878212 132.095902 
L 76.900212 132.640078 
L 78.909012 132.793394 
L 83.261412 132.971252 
L 83.931012 133.007956 
L 85.605012 133.047238 
L 103.014612 133.3756 
L 104.019012 133.38049 
L 107.367012 133.442298 
L 108.371412 133.439849 
L 114.397812 133.586997 
L 115.737012 133.59039 
L 117.076212 133.613333 
L 118.415412 133.585192 
L 121.428612 133.695668 
L 122.433012 133.713415 
L 126.785412 133.737026 
L 136.829412 133.838158 
L 138.168612 133.836721 
L 140.177412 133.863983 
L 140.847012 133.861607 
L 142.186212 133.908959 
L 143.190612 133.932269 
L 145.199412 133.942833 
L 146.538612 133.863793 
L 147.208212 133.89418 
L 148.882212 133.987063 
L 149.551812 133.952881 
L 150.891012 133.996335 
L 151.895412 133.98032 
L 153.234612 133.99302 
L 154.908612 133.988022 
L 156.582612 133.999987 
L 157.921812 134.029608 
L 161.939412 134.027547 
L 162.943812 134.096367 
L 164.952612 134.072475 
L 166.291812 134.08299 
L 168.300612 134.099016 
L 169.305012 134.127108 
L 170.309412 134.128283 
L 171.648612 134.136782 
L 173.992212 134.1617 
L 174.996612 134.193884 
L 176.670612 134.169848 
L 179.014212 134.206729 
L 180.353412 134.230735 
L 182.697012 134.199162 
L 199.102212 134.337588 
L 199.102212 134.337588 
" clip-path="url(#peb4e7502c2)" style="fill: none; stroke: #ff7f0e; stroke-width: 1.5; stroke-linecap: square"/>
   </g>
   <g id="line2d_13">
    <path d="M 32.037012 9.996054 
L 32.371812 11.176509 
L 32.706612 12.980378 
L 33.041412 9.744101 
L 33.376212 9.937838 
L 34.045812 15.796911 
L 34.715412 17.879905 
L 35.719812 20.02288 
L 36.724212 26.302962 
L 37.393812 29.597625 
L 39.067812 40.270581 
L 39.402612 43.544595 
L 39.737412 42.394777 
L 40.072212 47.316349 
L 40.407012 49.146635 
L 40.741812 51.771007 
L 41.411412 60.054681 
L 42.081012 64.940414 
L 42.415812 64.662903 
L 42.750612 66.694282 
L 44.089812 88.005936 
L 44.759412 93.390196 
L 46.433412 105.148561 
L 47.437812 111.000446 
L 48.442212 115.610977 
L 49.446612 119.068515 
L 50.451012 121.755514 
L 51.455412 123.815924 
L 52.459812 125.462767 
L 54.133812 127.481727 
L 55.807812 128.951385 
L 56.142612 129.063204 
L 56.812212 129.53366 
L 58.486212 130.341011 
L 58.821012 130.382565 
L 59.825412 130.8027 
L 60.829812 130.87847 
L 61.499412 131.193231 
L 62.169012 131.480238 
L 64.512612 131.918767 
L 66.186612 132.121888 
L 67.191012 132.240308 
L 68.530212 132.335556 
L 70.539012 132.471838 
L 71.208612 132.58504 
L 72.213012 132.6069 
L 75.561012 132.808256 
L 84.265812 133.21262 
L 84.935412 133.186687 
L 86.274612 133.257944 
L 88.618212 133.349917 
L 89.622612 133.38088 
L 90.961812 133.431137 
L 105.358212 133.889516 
L 106.027812 133.952416 
L 106.362612 133.920449 
L 106.697412 134.043711 
L 112.054212 134.135183 
L 113.393412 134.224702 
L 114.397812 134.221151 
L 117.745812 134.298281 
L 119.754612 134.342323 
L 181.692612 135.208018 
L 186.714612 135.255877 
L 199.102212 135.384737 
L 199.102212 135.384737 
" clip-path="url(#peb4e7502c2)" style="fill: none; stroke: #2ca02c; stroke-width: 1.5; stroke-linecap: square"/>
   </g>
   <g id="line2d_14">
    <path d="M 32.037012 12.389065 
L 32.371812 13.096281 
L 33.376212 15.989666 
L 36.389412 23.092092 
L 37.059012 25.370164 
L 38.063412 28.626192 
L 38.733012 30.938168 
L 40.741812 39.886099 
L 43.085412 53.70732 
L 45.094212 68.567281 
L 46.768212 81.21187 
L 48.107412 91.064139 
L 49.781412 101.955493 
L 51.120612 109.217334 
L 52.459812 115.125001 
L 53.799012 119.8043 
L 54.803412 122.627987 
L 56.142612 125.454716 
L 56.812212 126.717502 
L 58.486212 129.02613 
L 59.490612 130.00594 
L 60.495012 130.784127 
L 61.499412 131.430587 
L 62.838612 132.066914 
L 65.851812 132.999877 
L 71.208612 133.734422 
L 72.213012 133.767646 
L 74.221812 133.917748 
L 75.226212 133.940588 
L 77.569812 134.000069 
L 79.243812 134.085022 
L 83.596212 134.148122 
L 84.265812 134.212727 
L 84.935412 134.183236 
L 85.939812 134.234323 
L 88.953012 134.256052 
L 89.957412 134.332951 
L 92.301012 134.338538 
L 94.309812 134.384212 
L 95.314212 134.363598 
L 106.362612 134.471638 
L 106.697412 134.585452 
L 109.375812 134.567141 
L 111.384612 134.607446 
L 112.054212 134.569679 
L 113.393412 134.634253 
L 114.397812 134.620661 
L 116.406612 134.627659 
L 118.080612 134.675157 
L 118.750212 134.637853 
L 119.754612 134.665492 
L 129.798612 134.77507 
L 130.468212 134.778501 
L 132.142212 134.765225 
L 133.146612 134.81259 
L 133.816212 134.791739 
L 136.494612 134.834001 
L 139.507812 134.820815 
L 140.177412 134.843956 
L 141.851412 134.848772 
L 143.525412 134.925834 
L 144.864612 134.881853 
L 145.534212 134.889541 
L 147.877812 134.889102 
L 149.217012 134.925228 
L 156.582612 134.974248 
L 157.921812 135.004991 
L 160.935012 135.003481 
L 161.604612 135.01593 
L 162.609012 135.044007 
L 164.283012 135.047359 
L 164.952612 135.029019 
L 166.291812 135.045967 
L 167.631012 135.01896 
L 168.635412 135.086714 
L 170.309412 135.076271 
L 171.648612 135.086241 
L 176.670612 135.109754 
L 178.679412 135.171596 
L 179.683812 135.164195 
L 186.714612 135.173033 
L 192.071412 135.221572 
L 193.745412 135.199936 
L 194.749812 135.243651 
L 199.102212 135.275891 
L 199.102212 135.275891 
" clip-path="url(#peb4e7502c2)" style="fill: none; stroke: #d62728; stroke-width: 1.5; stroke-linecap: square"/>
   </g>
   <g id="patch_3">
    <path d="M 32.037012 145.8 
L 32.037012 7.2 
" style="fill: none; stroke: #000000; stroke-width: 0.8; stroke-linejoin: miter; stroke-linecap: square"/>
   </g>
   <g id="patch_4">
    <path d="M 199.437012 145.8 
L 199.437012 7.2 
" style="fill: none; stroke: #000000; stroke-width: 0.8; stroke-linejoin: miter; stroke-linecap: square"/>
   </g>
   <g id="patch_5">
    <path d="M 32.037012 145.8 
L 199.437012 145.8 
" style="fill: none; stroke: #000000; stroke-width: 0.8; stroke-linejoin: miter; stroke-linecap: square"/>
   </g>
   <g id="patch_6">
    <path d="M 32.037012 7.2 
L 199.437012 7.2 
" style="fill: none; stroke: #000000; stroke-width: 0.8; stroke-linejoin: miter; stroke-linecap: square"/>
   </g>
  </g>
 </g>
 <defs>
  <clipPath id="peb4e7502c2">
   <rect x="32.037012" y="7.2" width="167.4" height="138.6"/>
  </clipPath>
 </defs>
</svg>
