<?xml version="1.0" encoding="utf-8" standalone="no"?>
<!DOCTYPE svg PUBLIC "-//W3C//DTD SVG 1.1//EN"
  "http://www.w3.org/Graphics/SVG/1.1/DTD/svg11.dtd">
<svg xmlns:xlink="http://www.w3.org/1999/xlink" width="219.09035pt" height="181.711353pt" viewBox="0 0 219.09035 181.711353" xmlns="http://www.w3.org/2000/svg" version="1.1">
 <metadata>
  <rdf:RDF xmlns:dc="http://purl.org/dc/elements/1.1/" xmlns:cc="http://creativecommons.org/ns#" xmlns:rdf="http://www.w3.org/1999/02/22-rdf-syntax-ns#">
   <cc:Work>
    <dc:type rdf:resource="http://purl.org/dc/dcmitype/StillImage"/>
    <dc:date>2025-06-05T17:33:02.331751</dc:date>
    <dc:format>image/svg+xml</dc:format>
    <dc:creator>
     <cc:Agent>
      <dc:title>Matplotlib v3.9.2, https://matplotlib.org/</dc:title>
     </cc:Agent>
    </dc:creator>
   </cc:Work>
  </rdf:RDF>
 </metadata>
 <defs>
  <style type="text/css">*{stroke-linejoin: round; stroke-linecap: butt}</style>
 </defs>
 <g id="figure_1">
  <g id="patch_1">
   <path d="M 0 181.711353 
L 219.09035 181.711353 
L 219.09035 0 
L 0 0 
z
" style="fill: #ffffff"/>
  </g>
  <g id="axes_1">
   <g id="patch_2">
    <path d="M 37.018347 145.8 
L 204.418347 145.8 
L 204.418347 7.2 
L 37.018347 7.2 
z
" style="fill: #ffffff"/>
   </g>
   <g id="matplotlib.axis_1">
    <g id="xtick_1">
     <g id="line2d_1">
      <defs>
       <path id="mf612b7b5f9" d="M 0 0 
L 0 3.5 
" style="stroke: #000000; stroke-width: 0.8"/>
      </defs>
      <g>
       <use xlink:href="#mf612b7b5f9" x="37.018347" y="145.8" style="stroke: #000000; stroke-width: 0.8"/>
      </g>
     </g>
     <g id="text_1">
      <!-- $\mathdefault{0}$ -->
      <g transform="translate(34.52768 159.718498) scale(0.1 -0.1)">
       <defs>
        <path id="CMR17-30" d="M 2688 2038 
C 2688 2430 2682 3099 2413 3613 
C 2176 4063 1798 4224 1466 4224 
C 1158 4224 768 4082 525 3620 
C 269 3137 243 2539 243 2038 
C 243 1671 250 1112 448 623 
C 723 -39 1216 -128 1466 -128 
C 1760 -128 2208 -7 2470 604 
C 2662 1048 2688 1568 2688 2038 
z
M 1466 -26 
C 1056 -26 813 328 723 816 
C 653 1196 653 1749 653 2109 
C 653 2604 653 3015 736 3407 
C 858 3954 1216 4121 1466 4121 
C 1728 4121 2067 3947 2189 3420 
C 2272 3054 2278 2623 2278 2109 
C 2278 1691 2278 1176 2202 797 
C 2067 96 1690 -26 1466 -26 
z
" transform="scale(0.015625)"/>
       </defs>
       <use xlink:href="#CMR17-30" transform="scale(0.996264)"/>
      </g>
     </g>
    </g>
    <g id="xtick_2">
     <g id="line2d_2">
      <g>
       <use xlink:href="#mf612b7b5f9" x="70.498347" y="145.8" style="stroke: #000000; stroke-width: 0.8"/>
      </g>
     </g>
     <g id="text_2">
      <!-- $\mathdefault{100}$ -->
      <g transform="translate(63.026344 159.718498) scale(0.1 -0.1)">
       <defs>
        <path id="CMR17-31" d="M 1702 4083 
C 1702 4217 1696 4224 1606 4224 
C 1357 3927 979 3833 621 3820 
C 602 3820 570 3820 563 3808 
C 557 3795 557 3782 557 3648 
C 755 3648 1088 3686 1344 3839 
L 1344 467 
C 1344 243 1331 166 781 166 
L 589 166 
L 589 0 
C 896 6 1216 12 1523 12 
C 1830 12 2150 6 2458 0 
L 2458 166 
L 2266 166 
C 1715 166 1702 236 1702 467 
L 1702 4083 
z
" transform="scale(0.015625)"/>
       </defs>
       <use xlink:href="#CMR17-31" transform="scale(0.996264)"/>
       <use xlink:href="#CMR17-30" transform="translate(45.690477 0) scale(0.996264)"/>
       <use xlink:href="#CMR17-30" transform="translate(91.380954 0) scale(0.996264)"/>
      </g>
     </g>
    </g>
    <g id="xtick_3">
     <g id="line2d_3">
      <g>
       <use xlink:href="#mf612b7b5f9" x="103.978347" y="145.8" style="stroke: #000000; stroke-width: 0.8"/>
      </g>
     </g>
     <g id="text_3">
      <!-- $\mathdefault{200}$ -->
      <g transform="translate(96.506344 159.718498) scale(0.1 -0.1)">
       <defs>
        <path id="CMR17-32" d="M 2669 990 
L 2554 990 
C 2490 537 2438 460 2413 422 
C 2381 371 1920 371 1830 371 
L 602 371 
C 832 620 1280 1073 1824 1596 
C 2214 1966 2669 2400 2669 3033 
C 2669 3788 2067 4224 1395 4224 
C 691 4224 262 3603 262 3027 
C 262 2777 448 2745 525 2745 
C 589 2745 781 2783 781 3007 
C 781 3206 614 3264 525 3264 
C 486 3264 448 3257 422 3244 
C 544 3788 915 4057 1306 4057 
C 1862 4057 2227 3616 2227 3033 
C 2227 2477 1901 1998 1536 1583 
L 262 147 
L 262 0 
L 2515 0 
L 2669 990 
z
" transform="scale(0.015625)"/>
       </defs>
       <use xlink:href="#CMR17-32" transform="scale(0.996264)"/>
       <use xlink:href="#CMR17-30" transform="translate(45.690477 0) scale(0.996264)"/>
       <use xlink:href="#CMR17-30" transform="translate(91.380954 0) scale(0.996264)"/>
      </g>
     </g>
    </g>
    <g id="xtick_4">
     <g id="line2d_4">
      <g>
       <use xlink:href="#mf612b7b5f9" x="137.458347" y="145.8" style="stroke: #000000; stroke-width: 0.8"/>
      </g>
     </g>
     <g id="text_4">
      <!-- $\mathdefault{300}$ -->
      <g transform="translate(129.986344 159.718498) scale(0.1 -0.1)">
       <defs>
        <path id="CMR17-33" d="M 1414 2176 
C 1984 2176 2234 1673 2234 1094 
C 2234 322 1824 25 1453 25 
C 1114 25 563 193 390 691 
C 422 678 454 678 486 678 
C 640 678 755 780 755 947 
C 755 1132 614 1216 486 1216 
C 378 1216 211 1164 211 927 
C 211 335 787 -128 1466 -128 
C 2176 -128 2720 432 2720 1087 
C 2720 1718 2208 2176 1600 2246 
C 2086 2347 2554 2776 2554 3353 
C 2554 3856 2048 4224 1472 4224 
C 890 4224 378 3862 378 3347 
C 378 3123 544 3084 627 3084 
C 762 3084 877 3167 877 3334 
C 877 3500 762 3584 627 3584 
C 602 3584 570 3584 544 3571 
C 730 3999 1235 4076 1459 4076 
C 1683 4076 2106 3966 2106 3347 
C 2106 3167 2080 2851 1862 2574 
C 1670 2329 1453 2316 1242 2297 
C 1210 2297 1062 2284 1037 2284 
C 992 2278 966 2272 966 2227 
C 966 2182 973 2176 1101 2176 
L 1414 2176 
z
" transform="scale(0.015625)"/>
       </defs>
       <use xlink:href="#CMR17-33" transform="scale(0.996264)"/>
       <use xlink:href="#CMR17-30" transform="translate(45.690477 0) scale(0.996264)"/>
       <use xlink:href="#CMR17-30" transform="translate(91.380954 0) scale(0.996264)"/>
      </g>
     </g>
    </g>
    <g id="xtick_5">
     <g id="line2d_5">
      <g>
       <use xlink:href="#mf612b7b5f9" x="170.938347" y="145.8" style="stroke: #000000; stroke-width: 0.8"/>
      </g>
     </g>
     <g id="text_5">
      <!-- $\mathdefault{400}$ -->
      <g transform="translate(163.466344 159.718498) scale(0.1 -0.1)">
       <defs>
        <path id="CMR17-34" d="M 2150 4147 
C 2150 4281 2144 4288 2029 4288 
L 128 1254 
L 128 1088 
L 1779 1088 
L 1779 460 
C 1779 230 1766 166 1318 166 
L 1197 166 
L 1197 0 
C 1402 12 1747 12 1965 12 
C 2182 12 2528 12 2733 0 
L 2733 166 
L 2611 166 
C 2163 166 2150 230 2150 460 
L 2150 1088 
L 2803 1088 
L 2803 1254 
L 2150 1254 
L 2150 4147 
z
M 1798 3723 
L 1798 1254 
L 256 1254 
L 1798 3723 
z
" transform="scale(0.015625)"/>
       </defs>
       <use xlink:href="#CMR17-34" transform="scale(0.996264)"/>
       <use xlink:href="#CMR17-30" transform="translate(45.690477 0) scale(0.996264)"/>
       <use xlink:href="#CMR17-30" transform="translate(91.380954 0) scale(0.996264)"/>
      </g>
     </g>
    </g>
    <g id="xtick_6">
     <g id="line2d_6">
      <g>
       <use xlink:href="#mf612b7b5f9" x="204.418347" y="145.8" style="stroke: #000000; stroke-width: 0.8"/>
      </g>
     </g>
     <g id="text_6">
      <!-- $\mathdefault{500}$ -->
      <g transform="translate(196.946344 159.718498) scale(0.1 -0.1)">
       <defs>
        <path id="CMR17-35" d="M 730 3750 
C 794 3724 1056 3641 1325 3641 
C 1920 3641 2246 3961 2432 4140 
C 2432 4191 2432 4224 2394 4224 
C 2387 4224 2374 4224 2323 4198 
C 2099 4102 1837 4032 1517 4032 
C 1325 4032 1037 4055 723 4191 
C 653 4224 640 4224 634 4224 
C 602 4224 595 4217 595 4090 
L 595 2231 
C 595 2113 595 2080 659 2080 
C 691 2080 704 2093 736 2139 
C 941 2435 1222 2560 1542 2560 
C 1766 2560 2246 2415 2246 1293 
C 2246 1087 2246 716 2054 422 
C 1894 159 1645 25 1370 25 
C 947 25 518 319 403 812 
C 429 806 480 793 506 793 
C 589 793 749 838 749 1036 
C 749 1209 627 1280 506 1280 
C 358 1280 262 1190 262 1011 
C 262 454 704 -128 1382 -128 
C 2042 -128 2669 441 2669 1267 
C 2669 2054 2170 2662 1549 2662 
C 1222 2662 947 2540 730 2304 
L 730 3750 
z
" transform="scale(0.015625)"/>
       </defs>
       <use xlink:href="#CMR17-35" transform="scale(0.996264)"/>
       <use xlink:href="#CMR17-30" transform="translate(45.690477 0) scale(0.996264)"/>
       <use xlink:href="#CMR17-30" transform="translate(91.380954 0) scale(0.996264)"/>
      </g>
     </g>
    </g>
    <g id="text_7">
     <!-- $Epoch$ -->
     <g transform="translate(106.807546 172.574175) scale(0.1 -0.1)">
      <defs>
       <path id="CMMI12-45" d="M 4448 1489 
C 4454 1508 4474 1553 4474 1578 
C 4474 1611 4448 1643 4410 1643 
C 4384 1643 4371 1636 4352 1617 
C 4339 1611 4339 1598 4282 1469 
C 3904 570 3629 185 2605 185 
L 1670 185 
C 1581 185 1568 185 1530 192 
C 1459 198 1453 211 1453 262 
C 1453 307 1466 346 1478 403 
L 1920 2176 
L 2554 2176 
C 3053 2176 3091 2066 3091 1874 
C 3091 1810 3091 1752 3046 1559 
C 3034 1534 3027 1508 3027 1489 
C 3027 1444 3059 1424 3098 1424 
C 3155 1424 3162 1469 3187 1559 
L 3552 3036 
C 3552 3068 3526 3099 3488 3099 
C 3430 3099 3424 3074 3398 2986 
C 3270 2500 3142 2361 2573 2361 
L 1965 2361 
L 2362 3913 
C 2419 4134 2432 4153 2694 4153 
L 3610 4153 
C 4397 4153 4557 3945 4557 3465 
C 4557 3459 4557 3282 4531 3074 
C 4525 3049 4518 3011 4518 2998 
C 4518 2948 4550 2929 4589 2929 
C 4634 2929 4659 2954 4672 3068 
L 4806 4172 
C 4806 4191 4819 4255 4819 4268 
C 4819 4339 4762 4339 4646 4339 
L 1523 4339 
C 1402 4339 1338 4339 1338 4223 
C 1338 4153 1382 4153 1491 4153 
C 1888 4153 1888 4109 1888 4039 
C 1888 4008 1882 3983 1862 3913 
L 998 474 
C 941 249 928 185 480 185 
C 358 185 294 185 294 70 
C 294 0 333 0 461 0 
L 3674 0 
C 3814 0 3821 6 3866 108 
L 4448 1489 
z
" transform="scale(0.015625)"/>
       <path id="CMMI12-70" d="M 275 -794 
C 230 -981 205 -1031 -58 -1031 
C -135 -1031 -199 -1031 -199 -1152 
C -199 -1165 -192 -1216 -122 -1216 
C -39 -1216 51 -1204 134 -1204 
L 410 -1204 
C 544 -1204 870 -1216 1005 -1216 
C 1043 -1216 1120 -1216 1120 -1101 
C 1120 -1031 1075 -1031 966 -1031 
C 672 -1031 653 -987 653 -937 
C 653 -863 941 217 979 364 
C 1050 185 1222 -64 1555 -64 
C 2278 -64 3059 874 3059 1813 
C 3059 2400 2726 2816 2246 2816 
C 1837 2816 1491 2419 1421 2330 
C 1370 2649 1120 2816 864 2816 
C 678 2816 531 2726 410 2483 
C 294 2253 205 1864 205 1838 
C 205 1813 230 1781 275 1781 
C 326 1781 333 1787 371 1934 
C 467 2311 589 2687 845 2687 
C 992 2687 1043 2585 1043 2394 
C 1043 2241 1024 2177 998 2062 
L 275 -794 
z
M 1382 1992 
C 1427 2170 1606 2356 1709 2445 
C 1779 2509 1990 2687 2234 2687 
C 2515 2687 2643 2407 2643 2075 
C 2643 1768 2464 1047 2304 715 
C 2144 370 1850 64 1555 64 
C 1120 64 1050 613 1050 638 
C 1050 657 1062 708 1069 740 
L 1382 1992 
z
" transform="scale(0.015625)"/>
       <path id="CMMI12-6f" d="M 2918 1755 
C 2918 2362 2522 2816 1939 2816 
C 1094 2816 262 1896 262 996 
C 262 389 659 -64 1242 -64 
C 2093 -64 2918 855 2918 1755 
z
M 1248 64 
C 928 64 691 319 691 766 
C 691 1060 845 1711 1024 2030 
C 1312 2522 1670 2687 1933 2687 
C 2246 2687 2490 2432 2490 1985 
C 2490 1730 2355 1047 2112 657 
C 1850 230 1498 64 1248 64 
z
" transform="scale(0.015625)"/>
       <path id="CMMI12-63" d="M 2502 2432 
C 2381 2432 2323 2432 2234 2355 
C 2195 2323 2125 2227 2125 2124 
C 2125 1996 2221 1919 2342 1919 
C 2496 1919 2669 2047 2669 2303 
C 2669 2591 2374 2816 1933 2816 
C 1094 2816 256 1932 256 1011 
C 256 446 602 -64 1254 -64 
C 2125 -64 2675 622 2675 706 
C 2675 745 2637 777 2611 777 
C 2592 777 2586 771 2528 712 
C 2118 161 1510 64 1267 64 
C 826 64 685 453 685 777 
C 685 1004 794 1634 1024 2073 
C 1190 2374 1536 2687 1939 2687 
C 2022 2687 2374 2676 2502 2432 
z
" transform="scale(0.015625)"/>
       <path id="CMMI12-68" d="M 1798 4255 
C 1805 4281 1818 4319 1818 4351 
C 1818 4416 1754 4416 1741 4416 
C 1734 4416 1421 4390 1389 4383 
C 1280 4377 1184 4364 1069 4358 
C 909 4345 864 4339 864 4223 
C 864 4159 915 4159 1005 4159 
C 1318 4159 1325 4103 1325 4040 
C 1325 4002 1312 3951 1306 3932 
L 378 249 
C 352 153 352 140 352 102 
C 352 -39 461 -64 525 -64 
C 634 -64 717 19 749 89 
L 1037 1245 
C 1069 1385 1107 1519 1139 1660 
C 1210 1928 1210 1934 1331 2119 
C 1453 2305 1741 2687 2234 2687 
C 2490 2687 2579 2496 2579 2241 
C 2579 1883 2330 1187 2189 804 
C 2131 651 2099 568 2099 453 
C 2099 166 2298 -64 2605 -64 
C 3200 -64 3424 874 3424 913 
C 3424 945 3398 970 3360 970 
C 3302 970 3296 951 3264 842 
C 3117 332 2880 64 2624 64 
C 2560 64 2458 70 2458 274 
C 2458 440 2534 645 2560 715 
C 2675 1021 2963 1775 2963 2145 
C 2963 2528 2739 2816 2253 2816 
C 1888 2816 1568 2643 1306 2311 
L 1798 4255 
z
" transform="scale(0.015625)"/>
      </defs>
      <use xlink:href="#CMMI12-45" transform="scale(0.996264)"/>
      <use xlink:href="#CMMI12-70" transform="translate(78.051636 0) scale(0.996264)"/>
      <use xlink:href="#CMMI12-6f" transform="translate(127.01115 0) scale(0.996264)"/>
      <use xlink:href="#CMMI12-63" transform="translate(173.90646 0) scale(0.996264)"/>
      <use xlink:href="#CMMI12-68" transform="translate(215.889693 0) scale(0.996264)"/>
     </g>
    </g>
   </g>
   <g id="matplotlib.axis_2">
    <g id="ytick_1">
     <g id="line2d_7">
      <defs>
       <path id="md9a7337839" d="M 0 0 
L -3.5 0 
" style="stroke: #000000; stroke-width: 0.8"/>
      </defs>
      <g>
       <use xlink:href="#md9a7337839" x="37.018347" y="143.797832" style="stroke: #000000; stroke-width: 0.8"/>
      </g>
     </g>
     <g id="text_8">
      <!-- $\mathdefault{10}$ -->
      <g transform="translate(20.055677 147.257081) scale(0.1 -0.1)">
       <use xlink:href="#CMR17-31" transform="scale(0.996264)"/>
       <use xlink:href="#CMR17-30" transform="translate(45.690477 0) scale(0.996264)"/>
      </g>
     </g>
    </g>
    <g id="ytick_2">
     <g id="line2d_8">
      <g>
       <use xlink:href="#md9a7337839" x="37.018347" y="108.192547" style="stroke: #000000; stroke-width: 0.8"/>
      </g>
     </g>
     <g id="text_9">
      <!-- $\mathdefault{20}$ -->
      <g transform="translate(20.055677 111.651796) scale(0.1 -0.1)">
       <use xlink:href="#CMR17-32" transform="scale(0.996264)"/>
       <use xlink:href="#CMR17-30" transform="translate(45.690477 0) scale(0.996264)"/>
      </g>
     </g>
    </g>
    <g id="ytick_3">
     <g id="line2d_9">
      <g>
       <use xlink:href="#md9a7337839" x="37.018347" y="72.587261" style="stroke: #000000; stroke-width: 0.8"/>
      </g>
     </g>
     <g id="text_10">
      <!-- $\mathdefault{30}$ -->
      <g transform="translate(20.055677 76.04651) scale(0.1 -0.1)">
       <use xlink:href="#CMR17-33" transform="scale(0.996264)"/>
       <use xlink:href="#CMR17-30" transform="translate(45.690477 0) scale(0.996264)"/>
      </g>
     </g>
    </g>
    <g id="ytick_4">
     <g id="line2d_10">
      <g>
       <use xlink:href="#md9a7337839" x="37.018347" y="36.981975" style="stroke: #000000; stroke-width: 0.8"/>
      </g>
     </g>
     <g id="text_11">
      <!-- $\mathdefault{40}$ -->
      <g transform="translate(20.055677 40.441225) scale(0.1 -0.1)">
       <use xlink:href="#CMR17-34" transform="scale(0.996264)"/>
       <use xlink:href="#CMR17-30" transform="translate(45.690477 0) scale(0.996264)"/>
      </g>
     </g>
    </g>
    <g id="text_12">
     <!-- $Loss$ -->
     <g transform="translate(14.118498 86.974621) rotate(-90) scale(0.1 -0.1)">
      <defs>
       <path id="CMMI12-4c" d="M 2349 3860 
C 2406 4102 2426 4166 2989 4166 
C 3162 4166 3206 4166 3206 4287 
C 3206 4352 3136 4352 3110 4352 
C 2982 4352 2835 4339 2707 4339 
L 1850 4339 
C 1728 4339 1587 4352 1466 4352 
C 1414 4352 1344 4352 1344 4230 
C 1344 4166 1402 4166 1498 4166 
C 1888 4166 1888 4115 1888 4045 
C 1888 4032 1888 3994 1862 3898 
L 998 472 
C 941 249 928 185 480 185 
C 358 185 294 185 294 70 
C 294 0 333 0 461 0 
L 3328 0 
C 3469 0 3475 6 3520 121 
L 4013 1478 
C 4026 1510 4038 1548 4038 1567 
C 4038 1605 4006 1631 3974 1631 
C 3968 1631 3936 1631 3923 1605 
C 3910 1599 3910 1586 3859 1465 
C 3654 905 3366 185 2285 185 
L 1670 185 
C 1581 185 1568 185 1530 191 
C 1459 198 1453 211 1453 262 
C 1453 306 1466 344 1478 402 
L 2349 3860 
z
" transform="scale(0.015625)"/>
       <path id="CMMI12-73" d="M 1459 1290 
C 1568 1271 1741 1233 1779 1227 
C 1862 1201 2150 1099 2150 793 
C 2150 595 1971 64 1229 64 
C 1094 64 614 83 486 447 
C 742 414 870 614 870 755 
C 870 889 781 960 653 960 
C 512 960 326 851 326 563 
C 326 176 710 -64 1222 -64 
C 2195 -64 2483 665 2483 998 
C 2483 1093 2483 1271 2278 1475 
C 2118 1627 1965 1659 1619 1729 
C 1446 1767 1171 1824 1171 2111 
C 1171 2239 1286 2687 1894 2687 
C 2163 2687 2426 2589 2490 2368 
C 2208 2368 2195 2124 2195 2118 
C 2195 1983 2317 1945 2374 1945 
C 2464 1945 2643 2015 2643 2284 
C 2643 2546 2400 2816 1901 2816 
C 1062 2816 838 2169 838 1907 
C 838 1424 1312 1322 1459 1290 
z
" transform="scale(0.015625)"/>
      </defs>
      <use xlink:href="#CMMI12-4c" transform="scale(0.996264)"/>
      <use xlink:href="#CMMI12-6f" transform="translate(66.370875 0) scale(0.996264)"/>
      <use xlink:href="#CMMI12-73" transform="translate(113.266185 0) scale(0.996264)"/>
      <use xlink:href="#CMMI12-73" transform="translate(159.216233 0) scale(0.996264)"/>
     </g>
    </g>
   </g>
   <g id="line2d_11">
    <path d="M 37.018347 13.902594 
L 37.353147 14.822553 
L 37.687947 14.670621 
L 38.022747 15.113079 
L 38.692347 14.069684 
L 39.027147 15.719341 
L 39.361947 13.5 
L 39.696747 15.214702 
L 40.031547 14.084665 
L 40.366347 14.845018 
L 40.701147 13.71562 
L 41.035947 14.54038 
L 41.370747 14.034288 
L 41.705547 16.26023 
L 42.040347 16.227279 
L 42.375147 15.23092 
L 42.709947 15.343151 
L 43.044747 14.993867 
L 43.379547 15.183803 
L 43.714347 14.806607 
L 44.049147 15.315239 
L 44.718747 14.760876 
L 45.053547 16.140352 
L 45.723147 16.779184 
L 46.057947 15.618478 
L 46.392747 16.266695 
L 47.062347 15.946437 
L 47.397147 15.237222 
L 47.731947 16.66152 
L 48.066747 17.299143 
L 48.401547 14.821344 
L 48.736347 15.611782 
L 49.071147 16.727571 
L 49.405947 16.551761 
L 49.740747 15.353813 
L 50.075547 16.724651 
L 51.079947 16.127069 
L 51.414747 17.542919 
L 51.749547 16.481242 
L 52.084347 17.590566 
L 52.419147 16.92222 
L 53.088747 16.453317 
L 53.423547 16.108964 
L 53.758347 17.231422 
L 54.093147 16.751666 
L 54.427947 16.578301 
L 54.762747 17.669479 
L 55.432347 18.246633 
L 55.767147 16.856658 
L 56.101947 17.346301 
L 56.436747 16.951259 
L 56.771547 16.303096 
L 57.106347 16.982471 
L 57.441147 16.705282 
L 57.775947 18.394762 
L 58.110747 18.487149 
L 58.445547 17.919978 
L 59.115147 17.569011 
L 59.449947 18.738993 
L 60.119547 18.161377 
L 60.454347 16.935843 
L 60.789147 17.925873 
L 61.458747 18.472399 
L 61.793547 17.925941 
L 62.128347 18.621438 
L 62.463147 18.656005 
L 62.797947 18.343421 
L 63.132747 19.552507 
L 63.467547 19.75248 
L 63.802347 19.250721 
L 64.137147 18.301954 
L 64.471947 19.136141 
L 64.806747 19.38247 
L 65.141547 20.870388 
L 65.476347 19.021533 
L 65.811147 18.736358 
L 66.145947 18.208549 
L 66.480747 20.444378 
L 66.815547 20.379821 
L 67.150347 19.532175 
L 67.485147 19.264154 
L 67.819947 20.966836 
L 68.154747 20.030579 
L 68.489547 19.500813 
L 68.824347 20.590646 
L 69.159147 20.900324 
L 69.493947 20.241879 
L 69.828747 21.160194 
L 70.163547 20.616874 
L 70.833147 21.820975 
L 71.167947 21.570232 
L 71.502747 22.315332 
L 71.837547 20.836419 
L 72.172347 21.453845 
L 72.507147 20.716364 
L 72.841947 21.125138 
L 73.511547 22.780893 
L 73.846347 22.582958 
L 74.515947 23.195915 
L 74.850747 22.814347 
L 75.185547 23.527284 
L 75.520347 23.701382 
L 76.189947 25.030916 
L 76.524747 23.766781 
L 76.859547 25.0613 
L 77.194347 24.653735 
L 77.529147 25.558156 
L 77.863947 24.793633 
L 78.198747 24.368845 
L 78.533547 25.240315 
L 78.868347 25.258258 
L 79.203147 25.725789 
L 79.537947 27.063894 
L 79.872747 26.822862 
L 80.207547 26.773354 
L 80.542347 27.841157 
L 80.877147 26.069599 
L 81.546747 28.341584 
L 81.881547 29.023662 
L 82.216347 29.018352 
L 82.551147 28.62752 
L 83.220747 29.631146 
L 83.555547 30.464884 
L 83.890347 29.579519 
L 84.559947 30.929821 
L 85.229547 32.968367 
L 85.564347 32.052374 
L 85.899147 32.118806 
L 86.233947 33.003342 
L 86.568747 33.385467 
L 86.903547 32.641658 
L 87.573147 35.430438 
L 87.907947 35.952407 
L 88.577547 35.505575 
L 88.912347 36.754037 
L 89.247147 36.798478 
L 89.581947 36.992801 
L 89.916747 38.338308 
L 90.251547 37.680814 
L 90.586347 39.503618 
L 90.921147 39.689927 
L 91.255947 39.343835 
L 91.925547 41.609791 
L 92.260347 40.797268 
L 92.595147 43.417858 
L 92.929947 42.457858 
L 93.934347 46.14204 
L 94.269147 46.104173 
L 94.603947 45.547052 
L 94.938747 46.274957 
L 95.608347 49.152348 
L 95.943147 49.239316 
L 96.277947 48.669428 
L 96.612747 49.828138 
L 96.947547 49.841774 
L 97.282347 50.719071 
L 97.617147 52.324463 
L 97.951947 52.235376 
L 98.286747 53.66322 
L 98.956347 55.04237 
L 99.291147 56.232333 
L 99.625947 56.312482 
L 100.295547 58.831761 
L 100.630347 58.964515 
L 101.634747 62.108365 
L 101.969547 63.342782 
L 102.304347 63.440439 
L 103.308747 66.203474 
L 103.643547 67.720376 
L 104.313147 68.764797 
L 104.647947 70.033157 
L 105.987147 73.580028 
L 106.321947 75.427335 
L 106.656747 75.456286 
L 107.661147 77.36982 
L 107.995947 78.923653 
L 109.000347 81.371537 
L 109.335147 82.133513 
L 109.669947 83.277825 
L 110.004747 83.649261 
L 110.339547 84.355305 
L 111.343947 87.079542 
L 112.013547 88.073721 
L 112.348347 89.160933 
L 113.017947 90.30187 
L 113.687547 91.932783 
L 114.022347 92.086168 
L 114.357147 92.6588 
L 114.691947 93.546079 
L 115.026747 93.895417 
L 115.361547 94.560307 
L 115.696347 95.516374 
L 116.031147 96.020646 
L 116.365947 96.759409 
L 116.700747 97.004353 
L 117.035547 97.828631 
L 117.370347 98.130879 
L 117.705147 98.916706 
L 118.039947 98.810825 
L 118.709547 100.266444 
L 119.044347 100.303653 
L 119.379147 101.01117 
L 119.713947 101.233309 
L 120.048747 102.296399 
L 121.387947 103.680168 
L 121.722747 103.783869 
L 122.392347 104.817451 
L 122.727147 105.293729 
L 123.061947 105.272724 
L 123.731547 106.373369 
L 124.066347 106.479882 
L 124.735947 107.023773 
L 125.070747 107.540343 
L 125.405547 107.691114 
L 125.740347 108.018285 
L 126.075147 107.918754 
L 126.744747 108.970115 
L 127.079547 109.259107 
L 127.414347 109.102156 
L 128.083947 109.954353 
L 128.418747 110.432682 
L 128.753547 110.397137 
L 129.088347 110.732451 
L 129.757947 110.965286 
L 130.092747 111.581001 
L 130.762347 111.580722 
L 131.431947 112.201516 
L 131.766747 112.365815 
L 132.101547 112.897034 
L 133.105947 113.229971 
L 133.440747 112.941034 
L 133.775547 113.560355 
L 134.110347 113.59103 
L 134.445147 113.791465 
L 134.779947 113.664932 
L 135.784347 114.396633 
L 136.119147 114.923268 
L 136.453947 114.638005 
L 137.793147 115.16832 
L 138.127947 115.527186 
L 138.462747 115.534697 
L 139.132347 115.89579 
L 139.467147 116.240551 
L 139.801947 115.953176 
L 140.136747 116.373814 
L 140.471547 116.311593 
L 140.806347 116.740693 
L 141.475947 116.461339 
L 141.810747 116.830574 
L 142.145547 116.766486 
L 142.480347 116.571471 
L 142.815147 116.809386 
L 143.149947 117.262398 
L 143.484747 117.309386 
L 143.819547 117.5607 
L 144.489147 117.642737 
L 145.828347 117.758934 
L 146.163147 118.134065 
L 146.832747 118.179491 
L 147.837147 118.512985 
L 148.171947 118.410988 
L 148.506747 118.714886 
L 148.841547 118.736543 
L 149.176347 118.989623 
L 149.845947 118.98182 
L 150.180747 118.938852 
L 150.515547 119.1713 
L 151.519947 119.528081 
L 151.854747 119.138187 
L 152.859147 119.705324 
L 153.528747 119.888088 
L 154.198347 119.761426 
L 154.533147 120.192964 
L 154.867947 120.253643 
L 155.202747 120.11511 
L 155.537547 120.335558 
L 155.872347 120.318879 
L 156.207147 120.564848 
L 156.541947 120.431442 
L 157.211547 120.732264 
L 157.546347 120.405684 
L 158.215947 120.821697 
L 158.885547 120.700794 
L 159.220347 120.866437 
L 159.555147 120.823918 
L 160.224747 121.156733 
L 161.563947 121.244013 
L 161.898747 121.472814 
L 162.233547 121.254553 
L 163.572747 121.545568 
L 163.907547 121.837683 
L 164.242347 121.687232 
L 164.577147 121.860413 
L 164.911947 121.7964 
L 165.246747 121.847014 
L 165.581547 122.076379 
L 165.916347 122.110851 
L 166.251147 121.768984 
L 166.920747 122.164583 
L 167.255547 121.993282 
L 167.590347 122.299605 
L 167.925147 122.157174 
L 168.594747 122.28298 
L 168.929547 122.507544 
L 169.264347 122.527354 
L 169.933947 122.349017 
L 170.268747 122.625187 
L 170.603547 122.489191 
L 170.938347 122.680841 
L 171.607947 122.773744 
L 171.942747 122.668308 
L 172.947147 123.020117 
L 173.281947 122.573955 
L 173.951547 123.107381 
L 174.286347 122.975591 
L 174.621147 123.050277 
L 174.955947 122.918824 
L 175.960347 123.356202 
L 176.295147 123.117435 
L 176.629947 123.038841 
L 176.964747 123.364256 
L 177.634347 123.376963 
L 177.969147 123.241173 
L 178.303947 123.428671 
L 178.638747 123.429998 
L 178.973547 123.575139 
L 179.308347 123.450226 
L 179.643147 123.648997 
L 180.312747 123.601835 
L 180.647547 123.561557 
L 180.982347 123.839615 
L 181.317147 123.665662 
L 182.321547 124.08411 
L 182.656347 123.742188 
L 182.991147 123.966205 
L 183.660747 123.973502 
L 184.330347 124.154922 
L 184.665147 124.308035 
L 185.334747 124.201007 
L 186.004347 124.083659 
L 186.673947 124.472368 
L 187.008747 124.16008 
L 187.343547 124.611648 
L 188.013147 124.222969 
L 188.347947 124.704086 
L 188.682747 124.529081 
L 189.017547 124.554911 
L 189.352347 124.707071 
L 189.687147 124.69882 
L 190.021947 124.859512 
L 191.695947 124.967217 
L 192.030747 125.022375 
L 192.365547 124.839584 
L 192.700347 125.062612 
L 193.369947 124.954806 
L 193.704747 125.124918 
L 194.039547 124.811577 
L 194.374347 125.154562 
L 194.709147 124.99449 
L 195.378747 125.08939 
L 195.713547 124.787706 
L 196.048347 125.138616 
L 196.383147 125.218857 
L 197.052747 125.132687 
L 197.387547 125.508867 
L 199.061547 125.204932 
L 199.396347 125.55795 
L 199.731147 125.405577 
L 200.735547 125.734371 
L 201.070347 125.60011 
L 201.739947 125.768558 
L 202.074747 125.574443 
L 202.409547 125.850578 
L 202.744347 125.621943 
L 204.083547 125.976256 
L 204.083547 125.976256 
" clip-path="url(#p7bfca67f64)" style="fill: none; stroke: #1f77b4; stroke-width: 1.5; stroke-linecap: square"/>
   </g>
   <g id="line2d_12">
    <path d="M 37.018347 13.934336 
L 37.353147 14.952522 
L 37.687947 14.883361 
L 38.022747 15.43619 
L 38.692347 14.469276 
L 39.027147 16.06713 
L 39.361947 13.790445 
L 39.696747 15.62569 
L 40.031547 14.880604 
L 40.366347 15.54497 
L 40.701147 14.417609 
L 41.035947 15.119409 
L 41.370747 14.67418 
L 41.705547 17.120074 
L 42.040347 17.056033 
L 42.375147 16.285018 
L 42.709947 16.306532 
L 43.044747 16.500244 
L 43.379547 16.958987 
L 43.714347 16.616875 
L 44.049147 17.252542 
L 44.383947 17.344413 
L 44.718747 17.056196 
L 45.053547 18.382647 
L 45.388347 18.602219 
L 45.723147 19.172378 
L 46.057947 18.138817 
L 46.392747 18.88916 
L 47.062347 18.240671 
L 47.397147 17.58459 
L 47.731947 19.261356 
L 48.066747 20.029288 
L 48.401547 17.887707 
L 49.071147 19.875903 
L 49.405947 19.801051 
L 49.740747 18.604773 
L 50.075547 20.058667 
L 50.745147 20.259753 
L 51.079947 20.187957 
L 51.414747 21.589587 
L 51.749547 21.030741 
L 52.084347 22.287787 
L 52.419147 21.796323 
L 52.753947 21.842259 
L 53.088747 21.739726 
L 53.423547 21.48689 
L 53.758347 22.604364 
L 54.093147 22.322666 
L 54.427947 22.281539 
L 55.097547 24.35764 
L 55.432347 25.175772 
L 55.767147 24.148635 
L 56.101947 25.058557 
L 56.436747 24.96382 
L 56.771547 24.385986 
L 57.106347 25.396865 
L 57.441147 25.685286 
L 57.775947 27.554569 
L 58.110747 28.060987 
L 58.445547 27.965095 
L 58.780347 28.029245 
L 59.115147 28.507642 
L 59.449947 30.159499 
L 60.119547 30.169658 
L 60.454347 29.629665 
L 60.789147 31.407974 
L 61.123947 31.593169 
L 61.458747 31.976897 
L 61.793547 31.716782 
L 62.463147 33.342316 
L 62.797947 33.427763 
L 63.132747 35.447606 
L 63.467547 36.572414 
L 63.802347 37.069065 
L 64.137147 36.888746 
L 64.471947 37.701934 
L 64.806747 38.986335 
L 65.141547 41.628589 
L 65.476347 40.687577 
L 65.811147 40.833085 
L 66.145947 41.237797 
L 66.480747 44.88998 
L 66.815547 46.026006 
L 67.150347 46.550584 
L 67.485147 48.908518 
L 67.819947 52.275403 
L 68.154747 52.850819 
L 68.489547 53.717386 
L 69.159147 63.14903 
L 69.493947 64.086116 
L 70.163547 68.763982 
L 70.833147 74.1585 
L 71.837547 79.801724 
L 72.507147 85.362707 
L 72.841947 87.104771 
L 73.511547 92.381699 
L 73.846347 93.436558 
L 74.515947 96.607274 
L 75.185547 100.953466 
L 76.189947 104.686714 
L 76.524747 105.121363 
L 76.859547 106.212269 
L 77.194347 106.771759 
L 77.529147 108.08001 
L 78.868347 110.717008 
L 80.207547 113.508076 
L 80.877147 114.245529 
L 81.546747 114.910507 
L 81.881547 115.692707 
L 83.220747 116.97253 
L 83.555547 117.4549 
L 83.890347 117.46051 
L 84.225147 118.002859 
L 84.559947 118.303029 
L 84.894747 118.427885 
L 85.229547 118.957494 
L 85.899147 119.105691 
L 86.568747 119.841371 
L 86.903547 119.48201 
L 87.907947 120.815537 
L 88.242747 120.684047 
L 88.912347 121.165371 
L 89.247147 121.239714 
L 89.581947 121.041785 
L 89.916747 121.776909 
L 90.251547 122.062858 
L 90.586347 122.091476 
L 90.921147 122.381167 
L 91.255947 122.232888 
L 91.590747 122.730345 
L 91.925547 122.961004 
L 92.260347 122.913459 
L 92.595147 123.204335 
L 93.264747 123.366195 
L 93.599547 123.756005 
L 94.269147 123.714518 
L 94.603947 124.193781 
L 94.938747 124.144867 
L 95.273547 124.629543 
L 96.612747 124.799183 
L 97.282347 125.166018 
L 97.617147 125.51267 
L 98.621547 125.661614 
L 98.956347 125.999862 
L 99.625947 125.866809 
L 99.960747 126.25815 
L 100.965147 126.331865 
L 101.969547 126.995641 
L 102.973947 127.065294 
L 103.308747 127.410765 
L 104.313147 127.289722 
L 104.647947 127.633077 
L 104.982747 127.662269 
L 105.317547 127.888635 
L 105.652347 127.619634 
L 105.987147 127.730544 
L 106.321947 128.089508 
L 106.991547 127.98632 
L 107.326347 128.392581 
L 107.661147 128.038571 
L 107.995947 128.547735 
L 108.330747 128.511127 
L 109.000347 128.787959 
L 109.335147 128.560635 
L 109.669947 129.048211 
L 110.004747 128.87674 
L 110.674347 129.245032 
L 111.009147 129.171823 
L 111.678747 129.424176 
L 112.013547 129.167949 
L 112.348347 129.258947 
L 112.683147 129.622519 
L 113.687547 129.968825 
L 114.022347 129.824003 
L 114.357147 129.829382 
L 114.691947 129.999551 
L 115.026747 129.884886 
L 116.031147 130.358227 
L 116.365947 130.456655 
L 116.700747 130.37674 
L 117.370347 130.562984 
L 118.374747 130.599514 
L 118.709547 130.7833 
L 119.044347 130.628281 
L 119.379147 130.846403 
L 119.713947 130.927134 
L 120.048747 131.123782 
L 120.383547 131.062132 
L 121.722747 131.286906 
L 122.392347 131.33914 
L 122.727147 131.606957 
L 123.061947 131.49166 
L 123.396747 131.538556 
L 123.731547 131.738118 
L 124.066347 131.555979 
L 125.405547 131.849514 
L 125.740347 131.994909 
L 126.075147 131.909897 
L 126.409947 132.107232 
L 127.079547 132.092967 
L 127.414347 131.880379 
L 127.749147 132.197415 
L 128.753547 132.44915 
L 129.423147 132.315934 
L 129.757947 132.374658 
L 130.092747 132.686838 
L 130.427547 132.511422 
L 131.097147 132.682987 
L 132.101547 132.825265 
L 132.771147 133.032267 
L 133.105947 132.988141 
L 133.440747 132.657371 
L 133.775547 133.116926 
L 134.110347 132.996732 
L 134.445147 133.021944 
L 134.779947 132.841703 
L 135.114747 132.977041 
L 135.449547 132.975309 
L 136.119147 133.471021 
L 136.453947 133.43209 
L 136.788747 133.248206 
L 137.123547 133.525805 
L 137.458347 133.408617 
L 139.467147 133.795326 
L 139.801947 133.560253 
L 140.136747 133.897547 
L 140.471547 133.805034 
L 140.806347 133.959581 
L 141.141147 133.796868 
L 141.810747 133.912508 
L 142.480347 133.674056 
L 143.149947 134.084555 
L 145.828347 134.251968 
L 146.163147 134.414243 
L 146.497947 134.250616 
L 147.167547 134.317587 
L 149.176347 134.643866 
L 150.180747 134.405611 
L 150.515547 134.710708 
L 151.519947 134.816419 
L 151.854747 134.620453 
L 152.189547 134.610005 
L 152.859147 134.844776 
L 153.863547 134.922653 
L 154.198347 134.720467 
L 154.533147 135.034579 
L 156.207147 135.246827 
L 156.876747 135.248657 
L 157.211547 135.293499 
L 157.546347 135.056599 
L 157.881147 135.120073 
L 158.215947 135.361781 
L 158.885547 135.244256 
L 160.559547 135.396392 
L 160.894347 135.544765 
L 161.229147 135.372562 
L 161.898747 135.604062 
L 162.903147 135.359577 
L 163.907547 135.705441 
L 164.577147 135.68282 
L 165.246747 135.63082 
L 165.916347 135.785027 
L 166.251147 135.457604 
L 166.920747 135.956874 
L 167.255547 135.813865 
L 167.590347 135.887631 
L 167.925147 135.75901 
L 168.594747 135.871994 
L 169.264347 136.026568 
L 169.933947 135.854072 
L 170.268747 136.062538 
L 170.603547 135.889458 
L 171.607947 136.123984 
L 171.942747 135.926833 
L 172.612347 136.181964 
L 172.947147 136.17323 
L 173.281947 135.909373 
L 173.616747 136.010578 
L 173.951547 136.250062 
L 174.286347 136.07522 
L 174.621147 136.109427 
L 174.955947 136.024371 
L 175.625547 136.077101 
L 175.960347 136.33065 
L 176.629947 136.065842 
L 176.964747 136.190337 
L 177.299547 136.169872 
L 177.634347 136.289376 
L 177.969147 136.178256 
L 178.303947 136.368996 
L 178.638747 136.3214 
L 178.973547 136.429142 
L 179.308347 136.310239 
L 179.643147 136.497407 
L 179.977947 136.479865 
L 180.312747 136.200931 
L 180.647547 136.265217 
L 180.982347 136.482667 
L 181.317147 136.40774 
L 182.321547 136.60342 
L 182.656347 136.334137 
L 182.991147 136.519009 
L 183.660747 136.512785 
L 184.665147 136.699485 
L 185.669547 136.494646 
L 186.004347 136.409203 
L 186.339147 136.726402 
L 186.673947 136.726323 
L 187.008747 136.539896 
L 187.343547 136.870055 
L 187.678347 136.572568 
L 188.013147 136.473322 
L 188.347947 136.848242 
L 189.017547 136.678429 
L 189.352347 136.9003 
L 191.361147 136.958011 
L 192.030747 136.977478 
L 192.365547 136.901169 
L 193.035147 136.993719 
L 193.704747 136.889471 
L 194.039547 136.830975 
L 194.374347 137.035634 
L 194.709147 136.856031 
L 195.043947 136.936045 
L 195.378747 136.886687 
L 195.713547 136.605437 
L 196.048347 136.920503 
L 196.383147 137.027488 
L 196.717947 136.892456 
L 197.052747 136.973621 
L 197.387547 137.196459 
L 198.057147 136.990283 
L 198.391947 137.063855 
L 198.726747 136.898952 
L 199.061547 136.940632 
L 199.396347 137.103631 
L 199.731147 136.987879 
L 200.735547 137.253193 
L 201.405147 137.214839 
L 201.739947 137.211498 
L 202.074747 137.06575 
L 202.409547 137.341013 
L 202.744347 137.138259 
L 204.083547 137.341019 
L 204.083547 137.341019 
" clip-path="url(#p7bfca67f64)" style="fill: none; stroke: #ff7f0e; stroke-width: 1.5; stroke-linecap: square"/>
   </g>
   <g id="line2d_13">
    <path d="M 37.018347 13.998322 
L 37.353147 15.306166 
L 37.687947 15.323266 
L 38.022747 15.782987 
L 38.357547 15.799082 
L 38.692347 15.501439 
L 39.027147 17.519992 
L 39.361947 15.762152 
L 39.696747 18.294647 
L 40.031547 17.212719 
L 40.366347 18.099523 
L 40.701147 17.065242 
L 41.035947 18.152372 
L 41.370747 17.871639 
L 41.705547 20.37959 
L 42.040347 20.579821 
L 42.375147 19.902986 
L 42.709947 20.401988 
L 43.044747 20.316867 
L 43.379547 20.852133 
L 43.714347 20.877899 
L 44.049147 21.70812 
L 44.383947 21.885817 
L 44.718747 21.922938 
L 45.053547 23.679732 
L 46.057947 25.961225 
L 46.392747 28.350576 
L 47.062347 31.486969 
L 47.397147 32.386364 
L 48.066747 37.526356 
L 48.401547 37.465697 
L 49.405947 44.92907 
L 49.740747 46.725456 
L 50.410347 52.15486 
L 51.749547 62.295013 
L 52.084347 65.525878 
L 52.419147 67.517646 
L 53.088747 72.573808 
L 53.423547 74.355926 
L 54.093147 79.833364 
L 56.101947 90.627167 
L 56.436747 91.535975 
L 57.441147 95.479464 
L 58.780347 99.067341 
L 59.115147 99.191925 
L 60.119547 102.237058 
L 60.454347 102.78611 
L 60.789147 102.436365 
L 61.123947 103.153757 
L 61.458747 104.154137 
L 62.797947 106.443128 
L 63.132747 107.229919 
L 63.802347 107.766251 
L 64.137147 108.477076 
L 64.806747 109.38384 
L 65.141547 110.139249 
L 65.811147 110.63969 
L 66.480747 112.19315 
L 67.150347 112.75408 
L 67.819947 114.188219 
L 68.154747 114.054344 
L 68.489547 114.732606 
L 68.824347 114.985713 
L 69.159147 115.994092 
L 69.493947 116.24779 
L 69.828747 116.284856 
L 70.833147 118.246703 
L 71.167947 118.297691 
L 71.502747 118.940788 
L 71.837547 119.025399 
L 72.172347 119.910268 
L 72.507147 119.826567 
L 72.841947 120.787571 
L 73.846347 121.951911 
L 74.181147 122.227523 
L 75.185547 123.518827 
L 75.520347 123.653204 
L 75.855147 124.057306 
L 76.189947 124.755584 
L 76.524747 124.870687 
L 76.859547 125.285193 
L 77.194347 125.383611 
L 77.529147 126.059716 
L 77.863947 126.154361 
L 78.198747 126.373369 
L 78.868347 127.205308 
L 79.203147 127.33832 
L 79.537947 127.840571 
L 79.872747 128.082014 
L 80.207547 128.511776 
L 81.546747 129.03434 
L 81.881547 129.611331 
L 82.216347 129.619463 
L 82.551147 130.067925 
L 83.220747 130.233181 
L 83.555547 130.538699 
L 83.890347 130.483236 
L 84.225147 130.990434 
L 84.559947 131.164285 
L 84.894747 130.993375 
L 85.229547 131.462458 
L 85.899147 131.594413 
L 86.233947 131.919238 
L 86.568747 132.032485 
L 86.903547 131.873605 
L 87.573147 132.358827 
L 87.907947 132.772549 
L 88.242747 132.616063 
L 88.577547 132.849265 
L 89.247147 132.939635 
L 89.581947 132.708654 
L 89.916747 133.260647 
L 90.251547 133.565201 
L 90.586347 133.221275 
L 90.921147 133.649689 
L 91.255947 133.483598 
L 91.590747 133.90771 
L 91.925547 134.019051 
L 92.595147 133.925438 
L 92.929947 134.184888 
L 93.264747 134.1239 
L 93.599547 134.411197 
L 94.269147 134.258477 
L 94.603947 134.691845 
L 94.938747 134.523224 
L 95.273547 134.935726 
L 95.608347 134.876827 
L 96.277947 134.966012 
L 96.612747 134.799642 
L 97.282347 135.11121 
L 97.951947 135.290888 
L 98.286747 135.230069 
L 98.621547 135.282939 
L 98.956347 135.4741 
L 99.625947 135.381142 
L 99.960747 135.635753 
L 100.630347 135.496232 
L 100.965147 135.588725 
L 101.634747 135.910134 
L 102.639147 135.975274 
L 102.973947 135.880653 
L 103.308747 136.17721 
L 103.978347 135.955237 
L 104.313147 135.975675 
L 104.647947 136.13887 
L 104.982747 136.159139 
L 105.317547 136.328096 
L 105.652347 136.049224 
L 106.656747 136.335179 
L 106.991547 136.21956 
L 107.326347 136.48104 
L 107.661147 136.134755 
L 107.995947 136.519936 
L 108.330747 136.424391 
L 108.665547 136.494453 
L 109.000347 136.69031 
L 109.335147 136.261933 
L 109.669947 136.676843 
L 110.004747 136.482765 
L 110.339547 136.697349 
L 110.674347 136.735091 
L 111.009147 136.623397 
L 111.678747 136.735977 
L 112.013547 136.475648 
L 113.017947 136.987845 
L 113.352747 136.825885 
L 113.687547 136.960106 
L 114.357147 136.788534 
L 114.691947 136.961953 
L 115.026747 136.693899 
L 115.361547 136.981862 
L 116.031147 137.051879 
L 116.365947 137.128171 
L 116.700747 137.042486 
L 117.370347 137.109736 
L 117.705147 137.080418 
L 118.039947 137.210276 
L 118.374747 137.021118 
L 118.709547 137.194008 
L 119.044347 137.040164 
L 119.379147 137.199471 
L 120.048747 137.308435 
L 120.383547 137.16577 
L 120.718347 137.349732 
L 121.387947 137.368194 
L 122.392347 137.319437 
L 122.727147 137.507641 
L 123.396747 137.405773 
L 123.731547 137.527495 
L 124.401147 137.305631 
L 125.405547 137.467318 
L 125.740347 137.567698 
L 126.075147 137.433393 
L 126.409947 137.668574 
L 127.414347 137.291345 
L 127.749147 137.559288 
L 128.753547 137.753749 
L 129.088347 137.541712 
L 129.757947 137.573722 
L 130.092747 137.767084 
L 130.427547 137.670425 
L 131.097147 137.718707 
L 132.101547 137.699889 
L 132.771147 137.878174 
L 133.105947 137.822001 
L 133.440747 137.540598 
L 133.775547 137.926472 
L 134.779947 137.576218 
L 135.114747 137.70467 
L 135.449547 137.697563 
L 135.784347 137.974211 
L 136.453947 138.047002 
L 136.788747 137.885868 
L 137.123547 138.096493 
L 137.458347 137.885742 
L 138.127947 138.05215 
L 138.462747 137.938635 
L 139.467147 138.09127 
L 139.801947 137.937685 
L 140.136747 138.15034 
L 140.471547 138.091542 
L 140.806347 138.20215 
L 141.141147 138.068795 
L 141.810747 138.131328 
L 142.480347 137.921012 
L 143.149947 138.231685 
L 143.484747 138.152265 
L 144.154347 138.2316 
L 144.489147 138.095753 
L 145.158747 138.186574 
L 145.493547 138.045332 
L 146.163147 138.343073 
L 146.497947 138.182629 
L 148.171947 138.224269 
L 148.841547 138.413352 
L 149.511147 138.274445 
L 149.845947 138.32414 
L 150.180747 138.138941 
L 150.515547 138.390214 
L 151.519947 138.426296 
L 152.189547 138.21578 
L 152.859147 138.407739 
L 153.528747 138.370955 
L 153.863547 138.415786 
L 154.198347 138.226853 
L 154.533147 138.468656 
L 157.211547 138.621875 
L 157.546347 138.405552 
L 157.881147 138.462771 
L 158.215947 138.667233 
L 158.550747 138.553997 
L 158.885547 138.616272 
L 159.555147 138.480296 
L 159.889947 138.65508 
L 161.563947 138.666248 
L 161.898747 138.749471 
L 162.903147 138.455735 
L 163.907547 138.768832 
L 165.581547 138.689613 
L 165.916347 138.779946 
L 166.251147 138.491416 
L 166.585947 138.623433 
L 166.920747 138.899766 
L 167.925147 138.719576 
L 168.594747 138.808988 
L 169.599147 138.800869 
L 169.933947 138.723701 
L 170.268747 138.927521 
L 170.603547 138.719671 
L 171.607947 138.97781 
L 171.942747 138.7309 
L 172.612347 138.949644 
L 172.947147 138.944924 
L 173.281947 138.741718 
L 173.616747 138.811905 
L 173.951547 139.014044 
L 174.286347 138.85798 
L 175.290747 138.827386 
L 175.625547 138.783403 
L 175.960347 139.039114 
L 176.295147 138.753301 
L 176.629947 138.784482 
L 176.964747 138.956903 
L 177.299547 138.843321 
L 177.634347 138.914156 
L 177.969147 138.839314 
L 178.303947 138.985077 
L 178.638747 138.927504 
L 178.973547 139.056129 
L 179.308347 138.976822 
L 179.977947 139.08143 
L 180.312747 138.782829 
L 181.651947 139.102146 
L 182.321547 139.138978 
L 182.656347 138.867987 
L 182.991147 139.030869 
L 183.660747 139.0111 
L 184.665147 139.182679 
L 185.334747 138.972313 
L 186.004347 138.892992 
L 186.339147 139.177847 
L 187.008747 139.018795 
L 187.343547 139.250784 
L 188.013147 138.889501 
L 188.347947 139.23473 
L 188.682747 139.226126 
L 189.017547 139.104143 
L 189.352347 139.302221 
L 190.021947 139.218431 
L 193.035147 139.328007 
L 193.704747 139.198163 
L 194.039547 139.187572 
L 194.374347 139.319229 
L 194.709147 139.180869 
L 195.378747 139.249599 
L 195.713547 138.951545 
L 196.383147 139.317708 
L 196.717947 139.145841 
L 197.387547 139.424098 
L 198.057147 139.271012 
L 198.391947 139.287504 
L 198.726747 139.178421 
L 199.061547 139.193178 
L 199.396347 139.387725 
L 199.731147 139.196985 
L 200.400747 139.416387 
L 202.074747 139.278353 
L 202.409547 139.5 
L 202.744347 139.360139 
L 203.748747 139.401531 
L 204.083547 139.496462 
L 204.083547 139.496462 
" clip-path="url(#p7bfca67f64)" style="fill: none; stroke: #2ca02c; stroke-width: 1.5; stroke-linecap: square"/>
   </g>
   <g id="line2d_14">
    <path d="M 37.018347 16.512101 
L 37.353147 17.70971 
L 37.687947 17.781819 
L 38.022747 18.521744 
L 38.692347 17.918538 
L 39.027147 19.802979 
L 39.361947 17.799761 
L 39.696747 19.737662 
L 40.031547 18.774715 
L 40.366347 19.743584 
L 40.701147 18.801581 
L 41.035947 19.796745 
L 41.370747 19.486185 
L 41.705547 21.902809 
L 42.040347 22.091277 
L 42.375147 21.38922 
L 42.709947 21.667277 
L 43.044747 21.493532 
L 43.379547 21.927977 
L 43.714347 21.808262 
L 44.049147 22.458924 
L 44.718747 22.333464 
L 45.053547 23.890448 
L 45.723147 24.917871 
L 46.057947 24.016683 
L 46.392747 24.935555 
L 46.727547 24.954842 
L 47.062347 25.145158 
L 47.397147 24.659344 
L 47.731947 26.369266 
L 48.066747 27.153795 
L 48.401547 25.102618 
L 49.071147 27.442203 
L 49.405947 27.556838 
L 49.740747 26.831418 
L 50.075547 28.401971 
L 51.079947 28.883221 
L 51.414747 30.456164 
L 51.749547 29.873591 
L 52.084347 31.311784 
L 52.419147 31.130364 
L 53.088747 31.536408 
L 53.423547 31.694262 
L 53.758347 33.265196 
L 54.093147 33.405379 
L 54.427947 33.702927 
L 54.762747 35.163327 
L 55.432347 36.863035 
L 55.767147 36.298254 
L 56.101947 37.300441 
L 56.436747 37.596305 
L 56.771547 37.675245 
L 57.106347 38.998246 
L 57.441147 39.530484 
L 57.775947 41.582096 
L 58.110747 42.459135 
L 58.445547 42.766884 
L 59.115147 43.945912 
L 59.449947 45.731025 
L 60.119547 47.255683 
L 60.454347 47.349782 
L 61.458747 51.170113 
L 61.793547 51.867716 
L 62.463147 54.387009 
L 62.797947 55.282927 
L 63.132747 57.147891 
L 63.467547 58.256536 
L 64.137147 59.608929 
L 65.141547 64.454836 
L 65.476347 64.607732 
L 66.145947 66.56384 
L 66.480747 69.029062 
L 66.815547 70.07573 
L 67.150347 70.640973 
L 67.485147 71.821285 
L 67.819947 73.915885 
L 68.154747 74.26233 
L 68.824347 76.71456 
L 69.159147 78.36692 
L 69.828747 80.26078 
L 70.163547 81.243931 
L 70.833147 84.142062 
L 71.167947 84.686938 
L 71.502747 86.029532 
L 71.837547 86.286577 
L 72.172347 87.808024 
L 72.507147 88.102706 
L 73.176747 90.778922 
L 73.511547 91.939574 
L 74.181147 93.346263 
L 75.185547 96.485698 
L 75.520347 96.829589 
L 75.855147 97.654845 
L 76.189947 99.154621 
L 76.524747 99.552923 
L 77.194347 100.730308 
L 77.529147 102.064494 
L 77.863947 102.102274 
L 78.198747 102.699014 
L 78.868347 104.450803 
L 79.203147 105.040894 
L 79.537947 105.980004 
L 79.872747 106.496092 
L 80.542347 107.830421 
L 80.877147 108.287426 
L 81.211947 108.469212 
L 81.881547 110.050339 
L 82.216347 110.214753 
L 82.885947 111.685843 
L 83.220747 111.761503 
L 83.555547 112.627133 
L 83.890347 112.8948 
L 84.225147 113.333903 
L 84.559947 114.197509 
L 84.894747 114.211431 
L 85.229547 115.239234 
L 85.564347 115.256714 
L 85.899147 115.7192 
L 86.233947 116.421366 
L 86.568747 116.778962 
L 86.903547 116.730758 
L 87.907947 118.609433 
L 88.242747 118.744238 
L 89.247147 119.738118 
L 89.581947 119.763395 
L 90.251547 121.189432 
L 90.586347 121.162539 
L 90.921147 121.702362 
L 91.255947 121.645513 
L 91.590747 122.358186 
L 91.925547 122.670844 
L 92.260347 122.817937 
L 92.929947 123.571554 
L 93.264747 123.656138 
L 93.599547 124.323998 
L 94.269147 124.420198 
L 94.603947 125.155743 
L 94.938747 125.199835 
L 95.273547 125.737111 
L 96.277947 126.2076 
L 96.612747 126.370351 
L 97.951947 127.620941 
L 98.286747 127.644601 
L 98.621547 127.925325 
L 98.956347 128.372055 
L 99.625947 128.378611 
L 99.960747 128.894995 
L 100.965147 129.212883 
L 101.634747 129.900411 
L 102.973947 130.412186 
L 103.308747 130.826533 
L 103.643547 130.812325 
L 103.978347 130.954665 
L 104.313147 130.88421 
L 104.647947 131.269337 
L 104.982747 131.380977 
L 105.317547 131.625239 
L 105.652347 131.415459 
L 105.987147 131.57659 
L 106.321947 131.89312 
L 106.991547 132.021907 
L 107.326347 132.361018 
L 107.661147 132.136631 
L 107.995947 132.566237 
L 108.330747 132.562352 
L 109.000347 132.927639 
L 109.335147 132.685989 
L 109.669947 133.170009 
L 110.004747 132.987527 
L 110.674347 133.474637 
L 111.009147 133.402566 
L 111.678747 133.62589 
L 112.013547 133.411791 
L 113.017947 134.062253 
L 113.352747 134.015319 
L 113.687547 134.234725 
L 114.357147 134.124307 
L 114.691947 134.350864 
L 115.026747 134.133044 
L 115.361547 134.461672 
L 118.039947 135.021601 
L 118.374747 134.889071 
L 118.709547 135.074647 
L 119.044347 134.960664 
L 119.379147 135.160161 
L 121.387947 135.547502 
L 122.392347 135.544443 
L 122.727147 135.789254 
L 123.396747 135.710623 
L 123.731547 135.879546 
L 124.066347 135.728239 
L 124.735947 135.74776 
L 125.740347 135.993475 
L 126.075147 135.943777 
L 126.409947 136.167933 
L 127.079547 136.077071 
L 127.414347 135.837186 
L 127.749147 136.143139 
L 128.753547 136.419149 
L 129.088347 136.184959 
L 129.423147 136.148765 
L 129.757947 136.258969 
L 130.092747 136.50412 
L 130.427547 136.301937 
L 131.097147 136.505271 
L 131.766747 136.36757 
L 132.436347 136.660276 
L 133.105947 136.651132 
L 133.440747 136.24103 
L 133.775547 136.766473 
L 134.110347 136.650225 
L 134.445147 136.653784 
L 134.779947 136.395448 
L 135.114747 136.564531 
L 135.449547 136.541909 
L 135.784347 136.824924 
L 136.453947 136.980415 
L 136.788747 136.734323 
L 137.123547 137.033434 
L 137.458347 136.818548 
L 138.127947 137.043047 
L 138.462747 136.928351 
L 139.467147 137.095892 
L 139.801947 136.952649 
L 140.136747 137.173906 
L 140.471547 137.077498 
L 140.806347 137.230921 
L 141.141147 137.103729 
L 141.810747 137.1707 
L 142.480347 136.884677 
L 143.149947 137.25652 
L 143.484747 137.210775 
L 144.154347 137.281573 
L 144.489147 137.170775 
L 145.158747 137.288758 
L 145.493547 137.149064 
L 146.163147 137.452602 
L 146.497947 137.231804 
L 147.502347 137.300788 
L 147.837147 137.375658 
L 148.506747 137.356619 
L 148.841547 137.507121 
L 149.845947 137.485046 
L 150.180747 137.201019 
L 150.515547 137.523529 
L 151.519947 137.572211 
L 152.189547 137.338839 
L 152.859147 137.548136 
L 153.863547 137.605732 
L 154.198347 137.395732 
L 154.533147 137.686435 
L 155.537547 137.648394 
L 156.207147 137.796181 
L 156.541947 137.733817 
L 157.211547 137.812761 
L 157.546347 137.573743 
L 157.881147 137.601658 
L 158.215947 137.84196 
L 158.550747 137.744181 
L 159.220347 137.762208 
L 159.555147 137.693868 
L 159.889947 137.872564 
L 160.894347 137.938781 
L 161.229147 137.772727 
L 161.898747 137.959549 
L 162.903147 137.647291 
L 163.572747 137.994354 
L 164.577147 137.937644 
L 165.916347 138.015236 
L 166.251147 137.659216 
L 166.920747 138.169708 
L 167.255547 138.046381 
L 167.590347 138.049695 
L 167.925147 137.846011 
L 168.259947 138.038727 
L 169.599147 138.08233 
L 169.933947 137.984041 
L 170.268747 138.165454 
L 170.603547 137.974805 
L 171.607947 138.211634 
L 171.942747 138.027736 
L 172.947147 138.198567 
L 173.281947 137.985902 
L 173.616747 138.04525 
L 173.951547 138.255362 
L 174.286347 138.108965 
L 174.955947 138.085199 
L 175.625547 138.011484 
L 175.960347 138.288289 
L 176.295147 138.028883 
L 176.629947 138.011318 
L 176.964747 138.230404 
L 177.299547 138.121851 
L 177.634347 138.202612 
L 177.969147 138.095294 
L 178.303947 138.294371 
L 178.638747 138.238955 
L 178.973547 138.352517 
L 179.308347 138.197331 
L 179.643147 138.362741 
L 179.977947 138.342428 
L 180.312747 138.071865 
L 180.647547 138.133046 
L 180.982347 138.320394 
L 181.317147 138.216968 
L 181.651947 138.356798 
L 182.321547 138.452907 
L 182.656347 138.092408 
L 182.991147 138.31723 
L 183.660747 138.306357 
L 184.330347 138.469267 
L 184.665147 138.470601 
L 185.334747 138.334187 
L 186.004347 138.140999 
L 186.339147 138.488201 
L 186.673947 138.476207 
L 187.008747 138.291708 
L 187.343547 138.572163 
L 188.013147 138.1658 
L 188.347947 138.565325 
L 189.017547 138.391977 
L 189.352347 138.620021 
L 190.356747 138.525793 
L 191.361147 138.640374 
L 193.704747 138.51869 
L 194.039547 138.468988 
L 194.374347 138.64073 
L 194.709147 138.509627 
L 195.378747 138.530068 
L 195.713547 138.225355 
L 196.048347 138.512863 
L 196.383147 138.63362 
L 196.717947 138.481511 
L 197.722347 138.679545 
L 199.061547 138.505698 
L 199.396347 138.684095 
L 199.731147 138.551647 
L 200.735547 138.745145 
L 202.074747 138.601508 
L 202.409547 138.882873 
L 202.744347 138.65146 
L 204.083547 138.840048 
L 204.083547 138.840048 
" clip-path="url(#p7bfca67f64)" style="fill: none; stroke: #d62728; stroke-width: 1.5; stroke-linecap: square"/>
   </g>
   <g id="patch_3">
    <path d="M 37.018347 145.8 
L 37.018347 7.2 
" style="fill: none; stroke: #000000; stroke-width: 0.8; stroke-linejoin: miter; stroke-linecap: square"/>
   </g>
   <g id="patch_4">
    <path d="M 204.418347 145.8 
L 204.418347 7.2 
" style="fill: none; stroke: #000000; stroke-width: 0.8; stroke-linejoin: miter; stroke-linecap: square"/>
   </g>
   <g id="patch_5">
    <path d="M 37.018347 145.8 
L 204.418347 145.8 
" style="fill: none; stroke: #000000; stroke-width: 0.8; stroke-linejoin: miter; stroke-linecap: square"/>
   </g>
   <g id="patch_6">
    <path d="M 37.018347 7.2 
L 204.418347 7.2 
" style="fill: none; stroke: #000000; stroke-width: 0.8; stroke-linejoin: miter; stroke-linecap: square"/>
   </g>
  </g>
 </g>
 <defs>
  <clipPath id="p7bfca67f64">
   <rect x="37.018347" y="7.2" width="167.4" height="138.6"/>
  </clipPath>
 </defs>
</svg>
