<?xml version="1.0" encoding="utf-8" standalone="no"?>
<!DOCTYPE svg PUBLIC "-//W3C//DTD SVG 1.1//EN"
  "http://www.w3.org/Graphics/SVG/1.1/DTD/svg11.dtd">
<svg xmlns:xlink="http://www.w3.org/1999/xlink" width="221.857759pt" height="185.170603pt" viewBox="0 0 221.857759 185.170603" xmlns="http://www.w3.org/2000/svg" version="1.1">
 <metadata>
  <rdf:RDF xmlns:dc="http://purl.org/dc/elements/1.1/" xmlns:cc="http://creativecommons.org/ns#" xmlns:rdf="http://www.w3.org/1999/02/22-rdf-syntax-ns#">
   <cc:Work>
    <dc:type rdf:resource="http://purl.org/dc/dcmitype/StillImage"/>
    <dc:date>2025-06-05T19:54:06.445209</dc:date>
    <dc:format>image/svg+xml</dc:format>
    <dc:creator>
     <cc:Agent>
      <dc:title>Matplotlib v3.9.2, https://matplotlib.org/</dc:title>
     </cc:Agent>
    </dc:creator>
   </cc:Work>
  </rdf:RDF>
 </metadata>
 <defs>
  <style type="text/css">*{stroke-linejoin: round; stroke-linecap: butt}</style>
 </defs>
 <g id="figure_1">
  <g id="patch_1">
   <path d="M 0 185.170603 
L 221.857759 185.170603 
L 221.857759 -0 
L 0 -0 
z
" style="fill: #ffffff"/>
  </g>
  <g id="axes_1">
   <g id="patch_2">
    <path d="M 39.785756 149.259249 
L 207.185756 149.259249 
L 207.185756 10.659249 
L 39.785756 10.659249 
z
" style="fill: #ffffff"/>
   </g>
   <g id="matplotlib.axis_1">
    <g id="xtick_1">
     <g id="line2d_1">
      <defs>
       <path id="m472cf7da15" d="M 0 0 
L 0 3.5 
" style="stroke: #000000; stroke-width: 0.8"/>
      </defs>
      <g>
       <use xlink:href="#m472cf7da15" x="39.785756" y="149.259249" style="stroke: #000000; stroke-width: 0.8"/>
      </g>
     </g>
     <g id="text_1">
      <!-- $\mathdefault{0}$ -->
      <g transform="translate(37.295088 163.177748) scale(0.1 -0.1)">
       <defs>
        <path id="CMR17-30" d="M 2688 2038 
C 2688 2430 2682 3099 2413 3613 
C 2176 4063 1798 4224 1466 4224 
C 1158 4224 768 4082 525 3620 
C 269 3137 243 2539 243 2038 
C 243 1671 250 1112 448 623 
C 723 -39 1216 -128 1466 -128 
C 1760 -128 2208 -7 2470 604 
C 2662 1048 2688 1568 2688 2038 
z
M 1466 -26 
C 1056 -26 813 328 723 816 
C 653 1196 653 1749 653 2109 
C 653 2604 653 3015 736 3407 
C 858 3954 1216 4121 1466 4121 
C 1728 4121 2067 3947 2189 3420 
C 2272 3054 2278 2623 2278 2109 
C 2278 1691 2278 1176 2202 797 
C 2067 96 1690 -26 1466 -26 
z
" transform="scale(0.015625)"/>
       </defs>
       <use xlink:href="#CMR17-30" transform="scale(0.996264)"/>
      </g>
     </g>
    </g>
    <g id="xtick_2">
     <g id="line2d_2">
      <g>
       <use xlink:href="#m472cf7da15" x="73.265756" y="149.259249" style="stroke: #000000; stroke-width: 0.8"/>
      </g>
     </g>
     <g id="text_2">
      <!-- $\mathdefault{100}$ -->
      <g transform="translate(65.793753 163.177748) scale(0.1 -0.1)">
       <defs>
        <path id="CMR17-31" d="M 1702 4083 
C 1702 4217 1696 4224 1606 4224 
C 1357 3927 979 3833 621 3820 
C 602 3820 570 3820 563 3808 
C 557 3795 557 3782 557 3648 
C 755 3648 1088 3686 1344 3839 
L 1344 467 
C 1344 243 1331 166 781 166 
L 589 166 
L 589 0 
C 896 6 1216 12 1523 12 
C 1830 12 2150 6 2458 0 
L 2458 166 
L 2266 166 
C 1715 166 1702 236 1702 467 
L 1702 4083 
z
" transform="scale(0.015625)"/>
       </defs>
       <use xlink:href="#CMR17-31" transform="scale(0.996264)"/>
       <use xlink:href="#CMR17-30" transform="translate(45.690477 0) scale(0.996264)"/>
       <use xlink:href="#CMR17-30" transform="translate(91.380954 0) scale(0.996264)"/>
      </g>
     </g>
    </g>
    <g id="xtick_3">
     <g id="line2d_3">
      <g>
       <use xlink:href="#m472cf7da15" x="106.745756" y="149.259249" style="stroke: #000000; stroke-width: 0.8"/>
      </g>
     </g>
     <g id="text_3">
      <!-- $\mathdefault{200}$ -->
      <g transform="translate(99.273753 163.177748) scale(0.1 -0.1)">
       <defs>
        <path id="CMR17-32" d="M 2669 990 
L 2554 990 
C 2490 537 2438 460 2413 422 
C 2381 371 1920 371 1830 371 
L 602 371 
C 832 620 1280 1073 1824 1596 
C 2214 1966 2669 2400 2669 3033 
C 2669 3788 2067 4224 1395 4224 
C 691 4224 262 3603 262 3027 
C 262 2777 448 2745 525 2745 
C 589 2745 781 2783 781 3007 
C 781 3206 614 3264 525 3264 
C 486 3264 448 3257 422 3244 
C 544 3788 915 4057 1306 4057 
C 1862 4057 2227 3616 2227 3033 
C 2227 2477 1901 1998 1536 1583 
L 262 147 
L 262 0 
L 2515 0 
L 2669 990 
z
" transform="scale(0.015625)"/>
       </defs>
       <use xlink:href="#CMR17-32" transform="scale(0.996264)"/>
       <use xlink:href="#CMR17-30" transform="translate(45.690477 0) scale(0.996264)"/>
       <use xlink:href="#CMR17-30" transform="translate(91.380954 0) scale(0.996264)"/>
      </g>
     </g>
    </g>
    <g id="xtick_4">
     <g id="line2d_4">
      <g>
       <use xlink:href="#m472cf7da15" x="140.225756" y="149.259249" style="stroke: #000000; stroke-width: 0.8"/>
      </g>
     </g>
     <g id="text_4">
      <!-- $\mathdefault{300}$ -->
      <g transform="translate(132.753753 163.177748) scale(0.1 -0.1)">
       <defs>
        <path id="CMR17-33" d="M 1414 2176 
C 1984 2176 2234 1673 2234 1094 
C 2234 322 1824 25 1453 25 
C 1114 25 563 193 390 691 
C 422 678 454 678 486 678 
C 640 678 755 780 755 947 
C 755 1132 614 1216 486 1216 
C 378 1216 211 1164 211 927 
C 211 335 787 -128 1466 -128 
C 2176 -128 2720 432 2720 1087 
C 2720 1718 2208 2176 1600 2246 
C 2086 2347 2554 2776 2554 3353 
C 2554 3856 2048 4224 1472 4224 
C 890 4224 378 3862 378 3347 
C 378 3123 544 3084 627 3084 
C 762 3084 877 3167 877 3334 
C 877 3500 762 3584 627 3584 
C 602 3584 570 3584 544 3571 
C 730 3999 1235 4076 1459 4076 
C 1683 4076 2106 3966 2106 3347 
C 2106 3167 2080 2851 1862 2574 
C 1670 2329 1453 2316 1242 2297 
C 1210 2297 1062 2284 1037 2284 
C 992 2278 966 2272 966 2227 
C 966 2182 973 2176 1101 2176 
L 1414 2176 
z
" transform="scale(0.015625)"/>
       </defs>
       <use xlink:href="#CMR17-33" transform="scale(0.996264)"/>
       <use xlink:href="#CMR17-30" transform="translate(45.690477 0) scale(0.996264)"/>
       <use xlink:href="#CMR17-30" transform="translate(91.380954 0) scale(0.996264)"/>
      </g>
     </g>
    </g>
    <g id="xtick_5">
     <g id="line2d_5">
      <g>
       <use xlink:href="#m472cf7da15" x="173.705756" y="149.259249" style="stroke: #000000; stroke-width: 0.8"/>
      </g>
     </g>
     <g id="text_5">
      <!-- $\mathdefault{400}$ -->
      <g transform="translate(166.233753 163.177748) scale(0.1 -0.1)">
       <defs>
        <path id="CMR17-34" d="M 2150 4147 
C 2150 4281 2144 4288 2029 4288 
L 128 1254 
L 128 1088 
L 1779 1088 
L 1779 460 
C 1779 230 1766 166 1318 166 
L 1197 166 
L 1197 0 
C 1402 12 1747 12 1965 12 
C 2182 12 2528 12 2733 0 
L 2733 166 
L 2611 166 
C 2163 166 2150 230 2150 460 
L 2150 1088 
L 2803 1088 
L 2803 1254 
L 2150 1254 
L 2150 4147 
z
M 1798 3723 
L 1798 1254 
L 256 1254 
L 1798 3723 
z
" transform="scale(0.015625)"/>
       </defs>
       <use xlink:href="#CMR17-34" transform="scale(0.996264)"/>
       <use xlink:href="#CMR17-30" transform="translate(45.690477 0) scale(0.996264)"/>
       <use xlink:href="#CMR17-30" transform="translate(91.380954 0) scale(0.996264)"/>
      </g>
     </g>
    </g>
    <g id="xtick_6">
     <g id="line2d_6">
      <g>
       <use xlink:href="#m472cf7da15" x="207.185756" y="149.259249" style="stroke: #000000; stroke-width: 0.8"/>
      </g>
     </g>
     <g id="text_6">
      <!-- $\mathdefault{500}$ -->
      <g transform="translate(199.713753 163.177748) scale(0.1 -0.1)">
       <defs>
        <path id="CMR17-35" d="M 730 3750 
C 794 3724 1056 3641 1325 3641 
C 1920 3641 2246 3961 2432 4140 
C 2432 4191 2432 4224 2394 4224 
C 2387 4224 2374 4224 2323 4198 
C 2099 4102 1837 4032 1517 4032 
C 1325 4032 1037 4055 723 4191 
C 653 4224 640 4224 634 4224 
C 602 4224 595 4217 595 4090 
L 595 2231 
C 595 2113 595 2080 659 2080 
C 691 2080 704 2093 736 2139 
C 941 2435 1222 2560 1542 2560 
C 1766 2560 2246 2415 2246 1293 
C 2246 1087 2246 716 2054 422 
C 1894 159 1645 25 1370 25 
C 947 25 518 319 403 812 
C 429 806 480 793 506 793 
C 589 793 749 838 749 1036 
C 749 1209 627 1280 506 1280 
C 358 1280 262 1190 262 1011 
C 262 454 704 -128 1382 -128 
C 2042 -128 2669 441 2669 1267 
C 2669 2054 2170 2662 1549 2662 
C 1222 2662 947 2540 730 2304 
L 730 3750 
z
" transform="scale(0.015625)"/>
       </defs>
       <use xlink:href="#CMR17-35" transform="scale(0.996264)"/>
       <use xlink:href="#CMR17-30" transform="translate(45.690477 0) scale(0.996264)"/>
       <use xlink:href="#CMR17-30" transform="translate(91.380954 0) scale(0.996264)"/>
      </g>
     </g>
    </g>
    <g id="text_7">
     <!-- $Epoch$ -->
     <g transform="translate(109.574954 176.033424) scale(0.1 -0.1)">
      <defs>
       <path id="CMMI12-45" d="M 4448 1489 
C 4454 1508 4474 1553 4474 1578 
C 4474 1611 4448 1643 4410 1643 
C 4384 1643 4371 1636 4352 1617 
C 4339 1611 4339 1598 4282 1469 
C 3904 570 3629 185 2605 185 
L 1670 185 
C 1581 185 1568 185 1530 192 
C 1459 198 1453 211 1453 262 
C 1453 307 1466 346 1478 403 
L 1920 2176 
L 2554 2176 
C 3053 2176 3091 2066 3091 1874 
C 3091 1810 3091 1752 3046 1559 
C 3034 1534 3027 1508 3027 1489 
C 3027 1444 3059 1424 3098 1424 
C 3155 1424 3162 1469 3187 1559 
L 3552 3036 
C 3552 3068 3526 3099 3488 3099 
C 3430 3099 3424 3074 3398 2986 
C 3270 2500 3142 2361 2573 2361 
L 1965 2361 
L 2362 3913 
C 2419 4134 2432 4153 2694 4153 
L 3610 4153 
C 4397 4153 4557 3945 4557 3465 
C 4557 3459 4557 3282 4531 3074 
C 4525 3049 4518 3011 4518 2998 
C 4518 2948 4550 2929 4589 2929 
C 4634 2929 4659 2954 4672 3068 
L 4806 4172 
C 4806 4191 4819 4255 4819 4268 
C 4819 4339 4762 4339 4646 4339 
L 1523 4339 
C 1402 4339 1338 4339 1338 4223 
C 1338 4153 1382 4153 1491 4153 
C 1888 4153 1888 4109 1888 4039 
C 1888 4008 1882 3983 1862 3913 
L 998 474 
C 941 249 928 185 480 185 
C 358 185 294 185 294 70 
C 294 0 333 0 461 0 
L 3674 0 
C 3814 0 3821 6 3866 108 
L 4448 1489 
z
" transform="scale(0.015625)"/>
       <path id="CMMI12-70" d="M 275 -794 
C 230 -981 205 -1031 -58 -1031 
C -135 -1031 -199 -1031 -199 -1152 
C -199 -1165 -192 -1216 -122 -1216 
C -39 -1216 51 -1204 134 -1204 
L 410 -1204 
C 544 -1204 870 -1216 1005 -1216 
C 1043 -1216 1120 -1216 1120 -1101 
C 1120 -1031 1075 -1031 966 -1031 
C 672 -1031 653 -987 653 -937 
C 653 -863 941 217 979 364 
C 1050 185 1222 -64 1555 -64 
C 2278 -64 3059 874 3059 1813 
C 3059 2400 2726 2816 2246 2816 
C 1837 2816 1491 2419 1421 2330 
C 1370 2649 1120 2816 864 2816 
C 678 2816 531 2726 410 2483 
C 294 2253 205 1864 205 1838 
C 205 1813 230 1781 275 1781 
C 326 1781 333 1787 371 1934 
C 467 2311 589 2687 845 2687 
C 992 2687 1043 2585 1043 2394 
C 1043 2241 1024 2177 998 2062 
L 275 -794 
z
M 1382 1992 
C 1427 2170 1606 2356 1709 2445 
C 1779 2509 1990 2687 2234 2687 
C 2515 2687 2643 2407 2643 2075 
C 2643 1768 2464 1047 2304 715 
C 2144 370 1850 64 1555 64 
C 1120 64 1050 613 1050 638 
C 1050 657 1062 708 1069 740 
L 1382 1992 
z
" transform="scale(0.015625)"/>
       <path id="CMMI12-6f" d="M 2918 1755 
C 2918 2362 2522 2816 1939 2816 
C 1094 2816 262 1896 262 996 
C 262 389 659 -64 1242 -64 
C 2093 -64 2918 855 2918 1755 
z
M 1248 64 
C 928 64 691 319 691 766 
C 691 1060 845 1711 1024 2030 
C 1312 2522 1670 2687 1933 2687 
C 2246 2687 2490 2432 2490 1985 
C 2490 1730 2355 1047 2112 657 
C 1850 230 1498 64 1248 64 
z
" transform="scale(0.015625)"/>
       <path id="CMMI12-63" d="M 2502 2432 
C 2381 2432 2323 2432 2234 2355 
C 2195 2323 2125 2227 2125 2124 
C 2125 1996 2221 1919 2342 1919 
C 2496 1919 2669 2047 2669 2303 
C 2669 2591 2374 2816 1933 2816 
C 1094 2816 256 1932 256 1011 
C 256 446 602 -64 1254 -64 
C 2125 -64 2675 622 2675 706 
C 2675 745 2637 777 2611 777 
C 2592 777 2586 771 2528 712 
C 2118 161 1510 64 1267 64 
C 826 64 685 453 685 777 
C 685 1004 794 1634 1024 2073 
C 1190 2374 1536 2687 1939 2687 
C 2022 2687 2374 2676 2502 2432 
z
" transform="scale(0.015625)"/>
       <path id="CMMI12-68" d="M 1798 4255 
C 1805 4281 1818 4319 1818 4351 
C 1818 4416 1754 4416 1741 4416 
C 1734 4416 1421 4390 1389 4383 
C 1280 4377 1184 4364 1069 4358 
C 909 4345 864 4339 864 4223 
C 864 4159 915 4159 1005 4159 
C 1318 4159 1325 4103 1325 4040 
C 1325 4002 1312 3951 1306 3932 
L 378 249 
C 352 153 352 140 352 102 
C 352 -39 461 -64 525 -64 
C 634 -64 717 19 749 89 
L 1037 1245 
C 1069 1385 1107 1519 1139 1660 
C 1210 1928 1210 1934 1331 2119 
C 1453 2305 1741 2687 2234 2687 
C 2490 2687 2579 2496 2579 2241 
C 2579 1883 2330 1187 2189 804 
C 2131 651 2099 568 2099 453 
C 2099 166 2298 -64 2605 -64 
C 3200 -64 3424 874 3424 913 
C 3424 945 3398 970 3360 970 
C 3302 970 3296 951 3264 842 
C 3117 332 2880 64 2624 64 
C 2560 64 2458 70 2458 274 
C 2458 440 2534 645 2560 715 
C 2675 1021 2963 1775 2963 2145 
C 2963 2528 2739 2816 2253 2816 
C 1888 2816 1568 2643 1306 2311 
L 1798 4255 
z
" transform="scale(0.015625)"/>
      </defs>
      <use xlink:href="#CMMI12-45" transform="scale(0.996264)"/>
      <use xlink:href="#CMMI12-70" transform="translate(78.051636 0) scale(0.996264)"/>
      <use xlink:href="#CMMI12-6f" transform="translate(127.01115 0) scale(0.996264)"/>
      <use xlink:href="#CMMI12-63" transform="translate(173.90646 0) scale(0.996264)"/>
      <use xlink:href="#CMMI12-68" transform="translate(215.889693 0) scale(0.996264)"/>
     </g>
    </g>
   </g>
   <g id="matplotlib.axis_2">
    <g id="ytick_1">
     <g id="line2d_7">
      <defs>
       <path id="m98f82fee7e" d="M 0 0 
L -3.5 0 
" style="stroke: #000000; stroke-width: 0.8"/>
      </defs>
      <g>
       <use xlink:href="#m98f82fee7e" x="39.785756" y="133.859249" style="stroke: #000000; stroke-width: 0.8"/>
      </g>
     </g>
     <g id="text_8">
      <!-- $\mathdefault{0.2}$ -->
      <g transform="translate(20.055677 137.318498) scale(0.1 -0.1)">
       <defs>
        <path id="CMMI12-3a" d="M 1178 307 
C 1178 492 1024 620 870 620 
C 685 620 557 467 557 313 
C 557 128 710 0 864 0 
C 1050 0 1178 153 1178 307 
z
" transform="scale(0.015625)"/>
       </defs>
       <use xlink:href="#CMR17-30" transform="scale(0.996264)"/>
       <use xlink:href="#CMMI12-3a" transform="translate(45.690477 0) scale(0.996264)"/>
       <use xlink:href="#CMR17-32" transform="translate(72.787654 0) scale(0.996264)"/>
      </g>
     </g>
    </g>
    <g id="ytick_2">
     <g id="line2d_8">
      <g>
       <use xlink:href="#m98f82fee7e" x="39.785756" y="103.059249" style="stroke: #000000; stroke-width: 0.8"/>
      </g>
     </g>
     <g id="text_9">
      <!-- $\mathdefault{0.4}$ -->
      <g transform="translate(20.055677 106.518498) scale(0.1 -0.1)">
       <use xlink:href="#CMR17-30" transform="scale(0.996264)"/>
       <use xlink:href="#CMMI12-3a" transform="translate(45.690477 0) scale(0.996264)"/>
       <use xlink:href="#CMR17-34" transform="translate(72.787654 0) scale(0.996264)"/>
      </g>
     </g>
    </g>
    <g id="ytick_3">
     <g id="line2d_9">
      <g>
       <use xlink:href="#m98f82fee7e" x="39.785756" y="72.259249" style="stroke: #000000; stroke-width: 0.8"/>
      </g>
     </g>
     <g id="text_10">
      <!-- $\mathdefault{0.6}$ -->
      <g transform="translate(20.055677 75.718498) scale(0.1 -0.1)">
       <defs>
        <path id="CMR17-36" d="M 678 2198 
C 678 3712 1395 4076 1811 4076 
C 1946 4076 2272 4049 2400 3782 
C 2298 3782 2106 3782 2106 3558 
C 2106 3385 2246 3328 2336 3328 
C 2394 3328 2566 3353 2566 3571 
C 2566 3987 2246 4224 1805 4224 
C 1043 4224 243 3411 243 2011 
C 243 257 966 -128 1478 -128 
C 2099 -128 2688 431 2688 1295 
C 2688 2101 2170 2688 1517 2688 
C 1126 2688 838 2430 678 1979 
L 678 2198 
z
M 1478 25 
C 691 25 691 1212 691 1450 
C 691 1914 909 2585 1504 2585 
C 1613 2585 1926 2585 2138 2140 
C 2253 1889 2253 1624 2253 1302 
C 2253 954 2253 696 2118 438 
C 1978 173 1773 25 1478 25 
z
" transform="scale(0.015625)"/>
       </defs>
       <use xlink:href="#CMR17-30" transform="scale(0.996264)"/>
       <use xlink:href="#CMMI12-3a" transform="translate(45.690477 0) scale(0.996264)"/>
       <use xlink:href="#CMR17-36" transform="translate(72.787654 0) scale(0.996264)"/>
      </g>
     </g>
    </g>
    <g id="ytick_4">
     <g id="line2d_10">
      <g>
       <use xlink:href="#m98f82fee7e" x="39.785756" y="41.459249" style="stroke: #000000; stroke-width: 0.8"/>
      </g>
     </g>
     <g id="text_11">
      <!-- $\mathdefault{0.8}$ -->
      <g transform="translate(20.055677 44.918498) scale(0.1 -0.1)">
       <defs>
        <path id="CMR17-38" d="M 1741 2289 
C 2144 2494 2554 2803 2554 3298 
C 2554 3884 1990 4224 1472 4224 
C 890 4224 378 3800 378 3215 
C 378 3054 416 2777 666 2533 
C 730 2469 998 2276 1171 2154 
C 883 2006 211 1652 211 945 
C 211 282 838 -128 1459 -128 
C 2144 -128 2720 366 2720 1022 
C 2720 1607 2330 1877 2074 2051 
L 1741 2289 
z
M 902 2855 
C 851 2887 595 3086 595 3388 
C 595 3781 998 4076 1459 4076 
C 1965 4076 2336 3716 2336 3298 
C 2336 2700 1670 2359 1638 2359 
C 1632 2359 1626 2359 1574 2398 
L 902 2855 
z
M 2080 1536 
C 2176 1466 2483 1253 2483 861 
C 2483 385 2010 25 1472 25 
C 890 25 448 443 448 951 
C 448 1459 838 1884 1280 2083 
L 2080 1536 
z
" transform="scale(0.015625)"/>
       </defs>
       <use xlink:href="#CMR17-30" transform="scale(0.996264)"/>
       <use xlink:href="#CMMI12-3a" transform="translate(45.690477 0) scale(0.996264)"/>
       <use xlink:href="#CMR17-38" transform="translate(72.787654 0) scale(0.996264)"/>
      </g>
     </g>
    </g>
    <g id="ytick_5">
     <g id="line2d_11">
      <g>
       <use xlink:href="#m98f82fee7e" x="39.785756" y="10.659249" style="stroke: #000000; stroke-width: 0.8"/>
      </g>
     </g>
     <g id="text_12">
      <!-- $\mathdefault{1.0}$ -->
      <g transform="translate(20.055677 14.118498) scale(0.1 -0.1)">
       <use xlink:href="#CMR17-31" transform="scale(0.996264)"/>
       <use xlink:href="#CMMI12-3a" transform="translate(45.690477 0) scale(0.996264)"/>
       <use xlink:href="#CMR17-30" transform="translate(72.787654 0) scale(0.996264)"/>
      </g>
     </g>
    </g>
    <g id="text_13">
     <!-- $Loss$ -->
     <g transform="translate(14.118498 90.43387) rotate(-90) scale(0.1 -0.1)">
      <defs>
       <path id="CMMI12-4c" d="M 2349 3860 
C 2406 4102 2426 4166 2989 4166 
C 3162 4166 3206 4166 3206 4287 
C 3206 4352 3136 4352 3110 4352 
C 2982 4352 2835 4339 2707 4339 
L 1850 4339 
C 1728 4339 1587 4352 1466 4352 
C 1414 4352 1344 4352 1344 4230 
C 1344 4166 1402 4166 1498 4166 
C 1888 4166 1888 4115 1888 4045 
C 1888 4032 1888 3994 1862 3898 
L 998 472 
C 941 249 928 185 480 185 
C 358 185 294 185 294 70 
C 294 0 333 0 461 0 
L 3328 0 
C 3469 0 3475 6 3520 121 
L 4013 1478 
C 4026 1510 4038 1548 4038 1567 
C 4038 1605 4006 1631 3974 1631 
C 3968 1631 3936 1631 3923 1605 
C 3910 1599 3910 1586 3859 1465 
C 3654 905 3366 185 2285 185 
L 1670 185 
C 1581 185 1568 185 1530 191 
C 1459 198 1453 211 1453 262 
C 1453 306 1466 344 1478 402 
L 2349 3860 
z
" transform="scale(0.015625)"/>
       <path id="CMMI12-73" d="M 1459 1290 
C 1568 1271 1741 1233 1779 1227 
C 1862 1201 2150 1099 2150 793 
C 2150 595 1971 64 1229 64 
C 1094 64 614 83 486 447 
C 742 414 870 614 870 755 
C 870 889 781 960 653 960 
C 512 960 326 851 326 563 
C 326 176 710 -64 1222 -64 
C 2195 -64 2483 665 2483 998 
C 2483 1093 2483 1271 2278 1475 
C 2118 1627 1965 1659 1619 1729 
C 1446 1767 1171 1824 1171 2111 
C 1171 2239 1286 2687 1894 2687 
C 2163 2687 2426 2589 2490 2368 
C 2208 2368 2195 2124 2195 2118 
C 2195 1983 2317 1945 2374 1945 
C 2464 1945 2643 2015 2643 2284 
C 2643 2546 2400 2816 1901 2816 
C 1062 2816 838 2169 838 1907 
C 838 1424 1312 1322 1459 1290 
z
" transform="scale(0.015625)"/>
      </defs>
      <use xlink:href="#CMMI12-4c" transform="scale(0.996264)"/>
      <use xlink:href="#CMMI12-6f" transform="translate(66.370875 0) scale(0.996264)"/>
      <use xlink:href="#CMMI12-73" transform="translate(113.266185 0) scale(0.996264)"/>
      <use xlink:href="#CMMI12-73" transform="translate(159.216233 0) scale(0.996264)"/>
     </g>
    </g>
   </g>
   <g id="line2d_12">
    <path d="M 40.42097 -1 
L 40.455356 23.100815 
L 40.790156 35.378671 
L 41.794556 52.833098 
L 42.798956 65.471639 
L 43.803356 73.385596 
L 44.472956 77.337362 
L 45.812156 82.856295 
L 47.151356 86.201615 
L 48.490556 88.888856 
L 50.834156 92.408739 
L 51.168956 92.690497 
L 52.173356 94.032465 
L 55.521356 97.02264 
L 60.543356 99.987701 
L 61.212956 100.341845 
L 61.882556 100.566402 
L 63.221756 101.073204 
L 65.565356 102.085353 
L 66.904556 102.539082 
L 67.574156 102.870512 
L 67.908956 102.860139 
L 69.248156 103.289158 
L 69.917756 103.481653 
L 70.922156 103.772167 
L 71.256956 103.099012 
L 71.591756 103.595501 
L 72.261356 103.945345 
L 73.600556 104.338771 
L 77.618156 105.175163 
L 78.287756 105.404131 
L 78.957356 105.45821 
L 80.631356 105.93624 
L 81.635756 106.079448 
L 84.983756 106.874401 
L 85.653356 107.044825 
L 87.996956 107.661207 
L 88.666556 107.781917 
L 89.336156 107.911967 
L 93.688556 108.795172 
L 94.023356 108.780885 
L 94.358156 108.925625 
L 94.692956 108.945989 
L 95.027756 109.094581 
L 95.697356 109.165659 
L 96.032156 109.227549 
L 96.366956 109.408231 
L 97.036556 109.46908 
L 98.375756 109.732529 
L 99.045356 109.892517 
L 100.384556 110.082827 
L 101.388956 110.355488 
L 106.076156 111.269223 
L 106.745756 111.387354 
L 107.415356 111.48602 
L 110.428556 112.066586 
L 111.767756 112.258984 
L 114.780956 112.8259 
L 116.120156 112.998087 
L 117.459356 113.303045 
L 118.463756 113.411661 
L 128.172956 115.026047 
L 128.842556 115.144256 
L 133.194956 115.741968 
L 133.529756 115.893662 
L 134.199356 115.87892 
L 134.868956 116.000094 
L 136.208156 116.192515 
L 137.882156 116.395305 
L 138.216956 116.536516 
L 138.886556 116.584936 
L 141.564956 116.957241 
L 158.304956 118.960936 
L 159.978956 119.147484 
L 161.318156 119.274068 
L 163.996556 119.579366 
L 164.666156 119.635927 
L 165.000956 119.741597 
L 166.005356 119.777263 
L 167.344556 119.945254 
L 177.388556 120.913812 
L 178.058156 120.991022 
L 181.071356 121.259125 
L 182.410556 121.340489 
L 183.080156 121.399419 
L 184.754156 121.571959 
L 185.423756 121.636713 
L 187.432556 121.791688 
L 192.454556 122.203803 
L 196.137356 122.482835 
L 196.472156 122.565033 
L 197.141756 122.567617 
L 198.815756 122.712188 
L 203.168156 123.004314 
L 203.837756 123.102223 
L 204.507356 123.145626 
L 206.850956 123.314472 
L 206.850956 123.314472 
" clip-path="url(#pccd1455b19)" style="fill: none; stroke: #1f77b4; stroke-width: 1.5; stroke-linecap: square"/>
   </g>
   <g id="line2d_13">
    <path d="M 40.113299 -1 
L 40.120556 20.61444 
L 40.455356 38.150901 
L 40.790156 45.699797 
L 42.464156 69.267827 
L 43.133756 74.619031 
L 44.472956 81.927351 
L 45.477356 85.859674 
L 46.146956 87.594234 
L 47.820956 91.155157 
L 48.490556 92.233996 
L 49.160156 93.322497 
L 49.494956 93.692824 
L 50.164556 94.763747 
L 52.173356 97.206066 
L 53.512556 98.428908 
L 55.856156 100.169488 
L 56.190956 100.128077 
L 56.860556 100.83279 
L 57.530156 101.181256 
L 58.199756 101.589833 
L 59.873756 102.48906 
L 60.208556 102.504752 
L 61.212956 103.034396 
L 61.547756 103.130864 
L 61.882556 103.36651 
L 63.556556 103.895801 
L 63.891356 104.076694 
L 64.560956 104.248384 
L 65.230556 104.569181 
L 68.578556 105.683002 
L 68.913356 105.728085 
L 69.248156 105.941651 
L 69.917756 106.055504 
L 70.252556 105.993821 
L 70.587356 106.204738 
L 71.256956 106.416831 
L 71.926556 106.652486 
L 78.287756 108.646176 
L 78.622556 108.637245 
L 80.966156 109.350187 
L 81.635756 109.47601 
L 82.640156 109.769613 
L 82.974956 109.931312 
L 83.644556 110.029579 
L 83.979356 110.157197 
L 84.314156 110.131486 
L 84.983756 110.438009 
L 85.988156 110.759195 
L 86.657756 110.855053 
L 87.996956 111.321182 
L 88.666556 111.450327 
L 89.001356 111.589455 
L 90.005756 111.730208 
L 93.353756 112.641363 
L 94.023356 112.707738 
L 94.358156 112.88466 
L 94.692956 112.908356 
L 95.027756 113.117342 
L 95.697356 113.238107 
L 96.032156 113.305339 
L 96.366956 113.538998 
L 96.701756 113.525422 
L 99.714956 114.351001 
L 101.388956 114.723825 
L 103.732556 115.340753 
L 104.736956 115.586868 
L 105.406556 115.746943 
L 106.076156 115.866776 
L 107.080556 116.059716 
L 113.441756 117.623833 
L 114.780956 117.932031 
L 119.133356 118.951643 
L 122.146556 119.540588 
L 122.816156 119.811735 
L 123.485756 119.926162 
L 125.159756 120.353785 
L 125.494556 120.370169 
L 125.829356 120.518527 
L 126.164156 120.455792 
L 127.168556 120.806173 
L 127.838156 120.837529 
L 128.842556 121.108537 
L 133.194956 121.911109 
L 133.529756 122.107294 
L 134.199356 122.099226 
L 134.534156 122.237546 
L 135.203756 122.334812 
L 137.547356 122.82237 
L 137.882156 122.826 
L 138.216956 122.993818 
L 138.551756 122.950304 
L 139.556156 123.162777 
L 140.560556 123.252765 
L 141.230156 123.461117 
L 147.926156 124.51107 
L 148.260956 124.480091 
L 149.265356 124.636081 
L 154.287356 125.38869 
L 156.965756 125.885078 
L 157.970156 126.023609 
L 160.983356 126.546553 
L 161.652956 126.639429 
L 162.322556 126.744282 
L 164.666156 127.092848 
L 165.000956 127.2083 
L 165.670556 127.238516 
L 168.348956 127.642766 
L 168.683756 127.614837 
L 169.353356 127.767439 
L 197.476556 130.930083 
L 198.480956 130.986739 
L 199.150556 131.052539 
L 199.820156 131.129662 
L 201.159356 131.249849 
L 202.163756 131.337154 
L 203.837756 131.512392 
L 204.507356 131.567153 
L 205.846556 131.683521 
L 206.850956 131.758523 
L 206.850956 131.758523 
" clip-path="url(#pccd1455b19)" style="fill: none; stroke: #ff7f0e; stroke-width: 1.5; stroke-linecap: square"/>
   </g>
   <g id="line2d_14">
    <path d="M 40.113208 -1 
L 40.120556 18.410902 
L 40.455356 43.789898 
L 41.124956 58.342293 
L 41.794556 67.678426 
L 42.464156 73.494883 
L 42.798956 76.125149 
L 43.803356 80.716993 
L 44.138156 81.546729 
L 44.807756 84.874443 
L 47.486156 92.250973 
L 47.820956 88.071951 
L 48.155756 91.001677 
L 48.825356 94.04773 
L 50.164556 97.126616 
L 50.499356 97.139201 
L 50.834156 98.338402 
L 51.168956 98.7365 
L 51.503756 93.459702 
L 51.838556 99.00565 
L 52.173356 100.555424 
L 52.508156 101.118623 
L 53.512556 102.042133 
L 53.847356 102.772984 
L 54.182156 103.185663 
L 54.516956 103.169338 
L 55.186556 104.168205 
L 55.521356 104.555077 
L 55.856156 104.507469 
L 56.190956 102.376111 
L 56.525756 105.177673 
L 57.195356 105.889266 
L 57.530156 105.895494 
L 58.869356 107.072385 
L 59.204156 107.457518 
L 59.538956 107.310505 
L 60.543356 108.552522 
L 61.547756 109.395454 
L 61.882556 110.092796 
L 62.217356 109.907199 
L 62.552156 110.57872 
L 62.886956 109.651313 
L 63.221756 110.870395 
L 63.556556 110.926526 
L 63.891356 111.589799 
L 64.560956 111.751265 
L 64.895756 112.410086 
L 65.230556 112.430689 
L 65.565356 112.270541 
L 65.900156 112.881466 
L 66.234956 113.251715 
L 66.569756 113.197682 
L 66.904556 113.524013 
L 67.239356 113.515408 
L 67.574156 114.019759 
L 67.908956 113.920753 
L 68.243756 114.352139 
L 68.578556 114.350377 
L 69.582956 115.516446 
L 69.917756 115.380278 
L 70.252556 115.485779 
L 70.587356 115.844645 
L 70.922156 115.968343 
L 71.591756 116.34773 
L 71.926556 116.886172 
L 72.596156 117.01518 
L 72.930956 117.43064 
L 73.265756 117.378039 
L 73.935356 117.743731 
L 74.270156 118.112988 
L 74.604956 118.199699 
L 74.939756 118.414623 
L 75.274556 118.328927 
L 75.609356 118.891607 
L 75.944156 118.704224 
L 76.278956 118.913494 
L 76.613756 118.981507 
L 77.283356 119.273591 
L 77.952956 119.292495 
L 78.287756 119.820336 
L 78.622556 119.611442 
L 79.626956 120.281926 
L 79.961756 121.081968 
L 80.296556 120.713803 
L 80.966156 121.046872 
L 81.300956 120.972815 
L 81.635756 121.18874 
L 81.970556 121.117684 
L 83.309756 122.100685 
L 83.979356 122.158151 
L 84.648956 122.527977 
L 84.983756 122.500183 
L 85.653356 123.253027 
L 85.988156 123.258754 
L 86.992556 123.700495 
L 87.327356 123.621921 
L 87.662156 123.769838 
L 87.996956 123.778003 
L 89.001356 124.658225 
L 89.336156 124.345282 
L 89.670956 124.611935 
L 90.005756 124.367949 
L 90.675356 124.984024 
L 91.010156 124.943847 
L 91.679756 125.29962 
L 92.014556 125.678938 
L 92.349356 125.61842 
L 93.018956 125.965134 
L 93.353756 125.847907 
L 93.688556 126.047457 
L 94.023356 125.982496 
L 94.358156 126.34324 
L 94.692956 126.427807 
L 95.027756 126.672513 
L 95.362556 126.684088 
L 95.697356 119.812111 
L 96.032156 126.136944 
L 96.366956 127.221651 
L 96.701756 126.980468 
L 97.036556 127.199002 
L 97.371356 127.237077 
L 97.706156 126.915537 
L 98.040956 127.343977 
L 98.710556 127.725479 
L 99.045356 128.022885 
L 99.380156 127.916589 
L 99.714956 128.228915 
L 100.049756 127.953174 
L 100.719356 128.002558 
L 101.054156 128.518782 
L 101.388956 128.279939 
L 101.723756 128.605141 
L 102.058556 128.536849 
L 102.393356 128.801377 
L 104.067356 129.013585 
L 104.402156 129.408888 
L 104.736956 129.626297 
L 105.071756 129.646209 
L 105.406556 129.357053 
L 105.741356 123.583314 
L 106.076156 127.181254 
L 106.745756 128.468217 
L 107.750156 129.000185 
L 108.084956 128.592786 
L 108.419756 129.342075 
L 108.754556 129.388489 
L 109.424156 129.784509 
L 109.758956 129.738363 
L 110.428556 130.041728 
L 110.763356 130.051931 
L 111.098156 130.506221 
L 112.772156 130.544861 
L 113.106956 130.892382 
L 113.441756 130.801493 
L 113.776556 130.964433 
L 114.111356 131.290551 
L 114.780956 131.202742 
L 115.115756 131.217706 
L 115.450556 131.442216 
L 115.785356 130.750298 
L 116.120156 130.504078 
L 116.454956 131.183055 
L 116.789756 131.294654 
L 117.124556 131.59201 
L 118.463756 131.841966 
L 118.798556 132.030845 
L 119.133356 131.968929 
L 119.468156 132.168821 
L 119.802956 132.537486 
L 120.472556 132.328145 
L 120.807356 132.636157 
L 121.142156 132.540887 
L 121.476956 132.78713 
L 122.146556 132.635673 
L 122.481356 133.044618 
L 122.816156 133.132965 
L 123.150956 132.839006 
L 123.485756 133.227696 
L 124.155356 133.055961 
L 124.490156 133.444518 
L 125.159756 133.777293 
L 125.494556 133.464294 
L 125.829356 133.793143 
L 126.833756 133.995928 
L 127.168556 133.953204 
L 127.503356 134.093791 
L 127.838156 133.961298 
L 128.172956 134.29142 
L 128.507756 134.25728 
L 128.842556 134.509603 
L 129.177356 134.280935 
L 129.512156 134.678815 
L 129.846956 134.387684 
L 130.181756 134.793472 
L 130.516556 134.642303 
L 130.851356 134.722228 
L 131.186156 134.936349 
L 131.855756 134.902226 
L 132.190556 134.931762 
L 132.525356 135.088626 
L 132.860156 135.080287 
L 133.194956 134.926236 
L 133.529756 135.148958 
L 134.534156 135.207183 
L 134.868956 135.183134 
L 135.203756 135.311724 
L 135.538556 135.702936 
L 136.208156 135.385603 
L 136.542956 135.638469 
L 137.212556 135.676411 
L 137.547356 135.671559 
L 138.216956 136.126527 
L 138.551756 136.000456 
L 138.886556 136.006232 
L 139.556156 136.291595 
L 139.890956 135.975423 
L 140.895356 136.420364 
L 141.230156 136.484219 
L 141.564956 136.393504 
L 141.899756 136.554735 
L 142.234556 136.57729 
L 142.569356 136.336047 
L 142.904156 136.743171 
L 143.238956 136.591892 
L 144.578156 136.892338 
L 144.912956 136.630261 
L 145.247756 137.100167 
L 145.582556 136.829819 
L 145.917356 137.181955 
L 146.252156 137.132661 
L 146.921756 137.235717 
L 147.591356 137.077206 
L 148.595756 137.459504 
L 148.930556 137.547739 
L 149.265356 137.279181 
L 149.600156 137.422584 
L 150.269756 137.43423 
L 150.604556 137.76502 
L 150.939356 137.668012 
L 151.274156 137.80971 
L 151.608956 137.448978 
L 152.278556 137.755515 
L 152.613356 137.69547 
L 152.948156 138.014244 
L 153.282956 137.915394 
L 153.617756 138.097246 
L 153.952556 137.771938 
L 154.287356 137.849968 
L 154.622156 138.09427 
L 154.956956 138.094449 
L 155.291756 137.849913 
L 155.626556 138.181944 
L 157.300556 138.134417 
L 157.635356 138.098054 
L 157.970156 138.352967 
L 159.644156 138.568752 
L 159.978956 138.569991 
L 160.648556 138.68501 
L 160.983356 138.792264 
L 161.318156 138.71971 
L 162.322556 138.869318 
L 162.657356 138.636223 
L 162.992156 138.873503 
L 163.326956 138.957898 
L 163.661756 138.802333 
L 163.996556 138.983251 
L 164.331356 138.969662 
L 165.000956 139.065751 
L 165.335756 139.131347 
L 165.670556 138.800621 
L 166.674956 139.202341 
L 167.009756 139.304002 
L 167.344556 139.181571 
L 167.679356 139.339337 
L 168.014156 139.187064 
L 168.348956 139.373924 
L 168.683756 139.03101 
L 169.018556 139.485948 
L 169.353356 139.322945 
L 170.022956 139.332576 
L 170.357756 139.600641 
L 170.692556 139.508407 
L 171.027356 139.644377 
L 171.696956 139.505492 
L 172.701356 139.28437 
L 173.036156 139.535554 
L 173.370956 139.623449 
L 173.705756 139.531701 
L 174.375356 139.682264 
L 175.714556 139.999253 
L 176.049356 139.847077 
L 176.384156 140.005222 
L 177.053756 139.839993 
L 177.388556 139.998812 
L 177.723356 139.835231 
L 178.058156 139.926281 
L 178.392956 140.176906 
L 179.062556 140.050785 
L 179.732156 139.893847 
L 180.066956 140.219779 
L 180.736556 140.133025 
L 181.071356 140.367664 
L 181.406156 140.247778 
L 181.740956 140.349113 
L 182.075756 140.150401 
L 182.745356 140.409325 
L 183.080156 140.098211 
L 183.414956 140.359696 
L 184.754156 140.4164 
L 185.088956 140.116103 
L 185.423756 140.587288 
L 185.758556 140.512675 
L 186.093356 140.596811 
L 186.428156 140.341861 
L 186.762956 140.572785 
L 187.097756 140.563776 
L 187.432556 140.734323 
L 187.767356 140.647826 
L 188.771756 140.658029 
L 189.441356 140.530396 
L 189.776156 140.832522 
L 190.445756 140.696143 
L 190.780556 140.930699 
L 191.115356 140.814932 
L 191.450156 141.126171 
L 191.784956 140.669138 
L 193.124156 140.838327 
L 193.458956 141.090457 
L 194.463356 140.871235 
L 195.132956 141.090716 
L 195.467756 141.031798 
L 195.802556 141.126513 
L 196.137356 141.051196 
L 196.472156 141.409142 
L 196.806956 141.189325 
L 197.811356 141.28544 
L 199.485356 141.216913 
L 200.154956 141.556189 
L 200.824556 141.377279 
L 201.159356 141.440746 
L 201.494156 141.339757 
L 202.163756 141.502434 
L 202.498556 141.442683 
L 202.833356 141.521646 
L 203.168156 141.443541 
L 203.502956 141.638161 
L 204.172556 141.602007 
L 204.507356 141.718189 
L 204.842156 141.547547 
L 205.511756 141.750137 
L 205.846556 141.659457 
L 206.181356 141.690941 
L 206.516156 141.505819 
L 206.850956 141.735021 
L 206.850956 141.735021 
" clip-path="url(#pccd1455b19)" style="fill: none; stroke: #2ca02c; stroke-width: 1.5; stroke-linecap: square"/>
   </g>
   <g id="line2d_15">
    <path d="M 40.676973 -1 
L 40.790156 23.544845 
L 41.124956 36.614758 
L 41.459756 41.737687 
L 42.129356 47.74942 
L 43.133756 54.413017 
L 44.807756 63.639212 
L 46.146956 69.746334 
L 47.486156 74.966919 
L 49.160156 80.240358 
L 50.499356 83.81577 
L 50.834156 84.707677 
L 51.168956 85.272064 
L 51.838556 86.736408 
L 52.842956 88.683386 
L 53.847356 90.32586 
L 55.186556 92.201342 
L 56.190956 93.345312 
L 57.864956 94.960689 
L 61.212956 97.226265 
L 61.547756 97.32025 
L 62.552156 97.901797 
L 64.560956 98.777306 
L 65.230556 99.07716 
L 66.234956 99.503378 
L 67.239356 99.838223 
L 67.574156 100.068688 
L 67.908956 99.986324 
L 68.578556 100.257534 
L 70.922156 100.970508 
L 71.926556 101.274755 
L 73.935356 101.858285 
L 75.274556 102.141144 
L 75.944156 102.372054 
L 76.278956 102.414062 
L 76.613756 102.597098 
L 76.948556 102.571108 
L 77.618156 102.740618 
L 78.622556 103.018975 
L 79.626956 103.204081 
L 79.961756 103.365055 
L 80.296556 103.359089 
L 80.631356 103.519783 
L 81.635756 103.691341 
L 83.644556 104.137276 
L 85.988156 104.700561 
L 86.657756 104.802468 
L 87.327356 104.995606 
L 88.666556 105.320179 
L 89.670956 105.486427 
L 91.344956 105.891666 
L 93.688556 106.414123 
L 94.692956 106.626817 
L 95.362556 106.773045 
L 98.710556 107.620796 
L 99.714956 107.777001 
L 103.732556 108.703119 
L 104.736956 108.952061 
L 106.076156 109.280582 
L 106.745756 109.422826 
L 109.089356 109.967662 
L 110.093756 110.220514 
L 113.776556 111.091369 
L 133.194956 115.986238 
L 133.529756 116.139777 
L 134.199356 116.227772 
L 135.538556 116.65126 
L 136.542956 116.834617 
L 142.234556 118.433165 
L 142.569356 118.399147 
L 143.573756 118.706886 
L 147.926156 119.907147 
L 148.260956 119.909837 
L 148.595756 120.084015 
L 149.600156 120.264486 
L 150.269756 120.478878 
L 151.943756 120.908144 
L 160.983356 123.250163 
L 161.652956 123.419967 
L 171.362156 125.884601 
L 172.031756 125.988141 
L 173.705756 126.414855 
L 176.384156 127.070247 
L 187.767356 129.67608 
L 188.436956 129.775527 
L 190.445756 130.21302 
L 195.132956 131.166229 
L 195.802556 131.315087 
L 198.480956 131.828998 
L 199.150556 131.978244 
L 200.154956 132.16788 
L 200.824556 132.266124 
L 203.837756 132.849032 
L 204.507356 132.956877 
L 206.850956 133.382164 
L 206.850956 133.382164 
" clip-path="url(#pccd1455b19)" style="fill: none; stroke: #d62728; stroke-width: 1.5; stroke-linecap: square"/>
   </g>
   <g id="patch_3">
    <path d="M 39.785756 149.259249 
L 39.785756 10.659249 
" style="fill: none; stroke: #000000; stroke-width: 0.8; stroke-linejoin: miter; stroke-linecap: square"/>
   </g>
   <g id="patch_4">
    <path d="M 207.185756 149.259249 
L 207.185756 10.659249 
" style="fill: none; stroke: #000000; stroke-width: 0.8; stroke-linejoin: miter; stroke-linecap: square"/>
   </g>
   <g id="patch_5">
    <path d="M 39.785756 149.259249 
L 207.185756 149.259249 
" style="fill: none; stroke: #000000; stroke-width: 0.8; stroke-linejoin: miter; stroke-linecap: square"/>
   </g>
   <g id="patch_6">
    <path d="M 39.785756 10.659249 
L 207.185756 10.659249 
" style="fill: none; stroke: #000000; stroke-width: 0.8; stroke-linejoin: miter; stroke-linecap: square"/>
   </g>
  </g>
 </g>
 <defs>
  <clipPath id="pccd1455b19">
   <rect x="39.785756" y="10.659249" width="167.4" height="138.6"/>
  </clipPath>
 </defs>
</svg>
