<?xml version="1.0" encoding="utf-8" standalone="no"?>
<!DOCTYPE svg PUBLIC "-//W3C//DTD SVG 1.1//EN"
  "http://www.w3.org/Graphics/SVG/1.1/DTD/svg11.dtd">
<svg xmlns:xlink="http://www.w3.org/1999/xlink" width="214.109015pt" height="181.711353pt" viewBox="0 0 214.109015 181.711353" xmlns="http://www.w3.org/2000/svg" version="1.1">
 <metadata>
  <rdf:RDF xmlns:dc="http://purl.org/dc/elements/1.1/" xmlns:cc="http://creativecommons.org/ns#" xmlns:rdf="http://www.w3.org/1999/02/22-rdf-syntax-ns#">
   <cc:Work>
    <dc:type rdf:resource="http://purl.org/dc/dcmitype/StillImage"/>
    <dc:date>2025-06-06T14:10:51.307662</dc:date>
    <dc:format>image/svg+xml</dc:format>
    <dc:creator>
     <cc:Agent>
      <dc:title>Matplotlib v3.9.2, https://matplotlib.org/</dc:title>
     </cc:Agent>
    </dc:creator>
   </cc:Work>
  </rdf:RDF>
 </metadata>
 <defs>
  <style type="text/css">*{stroke-linejoin: round; stroke-linecap: butt}</style>
 </defs>
 <g id="figure_1">
  <g id="patch_1">
   <path d="M 0 181.711353 
L 214.109015 181.711353 
L 214.109015 0 
L 0 0 
z
" style="fill: #ffffff"/>
  </g>
  <g id="axes_1">
   <g id="patch_2">
    <path d="M 32.037012 145.8 
L 199.437012 145.8 
L 199.437012 7.2 
L 32.037012 7.2 
z
" style="fill: #ffffff"/>
   </g>
   <g id="matplotlib.axis_1">
    <g id="xtick_1">
     <g id="line2d_1">
      <defs>
       <path id="ma08ece3cf9" d="M 0 0 
L 0 3.5 
" style="stroke: #000000; stroke-width: 0.8"/>
      </defs>
      <g>
       <use xlink:href="#ma08ece3cf9" x="32.037012" y="145.8" style="stroke: #000000; stroke-width: 0.8"/>
      </g>
     </g>
     <g id="text_1">
      <!-- $\mathdefault{0}$ -->
      <g transform="translate(29.546344 159.718498) scale(0.1 -0.1)">
       <defs>
        <path id="CMR17-30" d="M 2688 2038 
C 2688 2430 2682 3099 2413 3613 
C 2176 4063 1798 4224 1466 4224 
C 1158 4224 768 4082 525 3620 
C 269 3137 243 2539 243 2038 
C 243 1671 250 1112 448 623 
C 723 -39 1216 -128 1466 -128 
C 1760 -128 2208 -7 2470 604 
C 2662 1048 2688 1568 2688 2038 
z
M 1466 -26 
C 1056 -26 813 328 723 816 
C 653 1196 653 1749 653 2109 
C 653 2604 653 3015 736 3407 
C 858 3954 1216 4121 1466 4121 
C 1728 4121 2067 3947 2189 3420 
C 2272 3054 2278 2623 2278 2109 
C 2278 1691 2278 1176 2202 797 
C 2067 96 1690 -26 1466 -26 
z
" transform="scale(0.015625)"/>
       </defs>
       <use xlink:href="#CMR17-30" transform="scale(0.996264)"/>
      </g>
     </g>
    </g>
    <g id="xtick_2">
     <g id="line2d_2">
      <g>
       <use xlink:href="#ma08ece3cf9" x="65.517012" y="145.8" style="stroke: #000000; stroke-width: 0.8"/>
      </g>
     </g>
     <g id="text_2">
      <!-- $\mathdefault{100}$ -->
      <g transform="translate(58.045009 159.718498) scale(0.1 -0.1)">
       <defs>
        <path id="CMR17-31" d="M 1702 4083 
C 1702 4217 1696 4224 1606 4224 
C 1357 3927 979 3833 621 3820 
C 602 3820 570 3820 563 3808 
C 557 3795 557 3782 557 3648 
C 755 3648 1088 3686 1344 3839 
L 1344 467 
C 1344 243 1331 166 781 166 
L 589 166 
L 589 0 
C 896 6 1216 12 1523 12 
C 1830 12 2150 6 2458 0 
L 2458 166 
L 2266 166 
C 1715 166 1702 236 1702 467 
L 1702 4083 
z
" transform="scale(0.015625)"/>
       </defs>
       <use xlink:href="#CMR17-31" transform="scale(0.996264)"/>
       <use xlink:href="#CMR17-30" transform="translate(45.690477 0) scale(0.996264)"/>
       <use xlink:href="#CMR17-30" transform="translate(91.380954 0) scale(0.996264)"/>
      </g>
     </g>
    </g>
    <g id="xtick_3">
     <g id="line2d_3">
      <g>
       <use xlink:href="#ma08ece3cf9" x="98.997012" y="145.8" style="stroke: #000000; stroke-width: 0.8"/>
      </g>
     </g>
     <g id="text_3">
      <!-- $\mathdefault{200}$ -->
      <g transform="translate(91.525009 159.718498) scale(0.1 -0.1)">
       <defs>
        <path id="CMR17-32" d="M 2669 990 
L 2554 990 
C 2490 537 2438 460 2413 422 
C 2381 371 1920 371 1830 371 
L 602 371 
C 832 620 1280 1073 1824 1596 
C 2214 1966 2669 2400 2669 3033 
C 2669 3788 2067 4224 1395 4224 
C 691 4224 262 3603 262 3027 
C 262 2777 448 2745 525 2745 
C 589 2745 781 2783 781 3007 
C 781 3206 614 3264 525 3264 
C 486 3264 448 3257 422 3244 
C 544 3788 915 4057 1306 4057 
C 1862 4057 2227 3616 2227 3033 
C 2227 2477 1901 1998 1536 1583 
L 262 147 
L 262 0 
L 2515 0 
L 2669 990 
z
" transform="scale(0.015625)"/>
       </defs>
       <use xlink:href="#CMR17-32" transform="scale(0.996264)"/>
       <use xlink:href="#CMR17-30" transform="translate(45.690477 0) scale(0.996264)"/>
       <use xlink:href="#CMR17-30" transform="translate(91.380954 0) scale(0.996264)"/>
      </g>
     </g>
    </g>
    <g id="xtick_4">
     <g id="line2d_4">
      <g>
       <use xlink:href="#ma08ece3cf9" x="132.477012" y="145.8" style="stroke: #000000; stroke-width: 0.8"/>
      </g>
     </g>
     <g id="text_4">
      <!-- $\mathdefault{300}$ -->
      <g transform="translate(125.005009 159.718498) scale(0.1 -0.1)">
       <defs>
        <path id="CMR17-33" d="M 1414 2176 
C 1984 2176 2234 1673 2234 1094 
C 2234 322 1824 25 1453 25 
C 1114 25 563 193 390 691 
C 422 678 454 678 486 678 
C 640 678 755 780 755 947 
C 755 1132 614 1216 486 1216 
C 378 1216 211 1164 211 927 
C 211 335 787 -128 1466 -128 
C 2176 -128 2720 432 2720 1087 
C 2720 1718 2208 2176 1600 2246 
C 2086 2347 2554 2776 2554 3353 
C 2554 3856 2048 4224 1472 4224 
C 890 4224 378 3862 378 3347 
C 378 3123 544 3084 627 3084 
C 762 3084 877 3167 877 3334 
C 877 3500 762 3584 627 3584 
C 602 3584 570 3584 544 3571 
C 730 3999 1235 4076 1459 4076 
C 1683 4076 2106 3966 2106 3347 
C 2106 3167 2080 2851 1862 2574 
C 1670 2329 1453 2316 1242 2297 
C 1210 2297 1062 2284 1037 2284 
C 992 2278 966 2272 966 2227 
C 966 2182 973 2176 1101 2176 
L 1414 2176 
z
" transform="scale(0.015625)"/>
       </defs>
       <use xlink:href="#CMR17-33" transform="scale(0.996264)"/>
       <use xlink:href="#CMR17-30" transform="translate(45.690477 0) scale(0.996264)"/>
       <use xlink:href="#CMR17-30" transform="translate(91.380954 0) scale(0.996264)"/>
      </g>
     </g>
    </g>
    <g id="xtick_5">
     <g id="line2d_5">
      <g>
       <use xlink:href="#ma08ece3cf9" x="165.957012" y="145.8" style="stroke: #000000; stroke-width: 0.8"/>
      </g>
     </g>
     <g id="text_5">
      <!-- $\mathdefault{400}$ -->
      <g transform="translate(158.485009 159.718498) scale(0.1 -0.1)">
       <defs>
        <path id="CMR17-34" d="M 2150 4147 
C 2150 4281 2144 4288 2029 4288 
L 128 1254 
L 128 1088 
L 1779 1088 
L 1779 460 
C 1779 230 1766 166 1318 166 
L 1197 166 
L 1197 0 
C 1402 12 1747 12 1965 12 
C 2182 12 2528 12 2733 0 
L 2733 166 
L 2611 166 
C 2163 166 2150 230 2150 460 
L 2150 1088 
L 2803 1088 
L 2803 1254 
L 2150 1254 
L 2150 4147 
z
M 1798 3723 
L 1798 1254 
L 256 1254 
L 1798 3723 
z
" transform="scale(0.015625)"/>
       </defs>
       <use xlink:href="#CMR17-34" transform="scale(0.996264)"/>
       <use xlink:href="#CMR17-30" transform="translate(45.690477 0) scale(0.996264)"/>
       <use xlink:href="#CMR17-30" transform="translate(91.380954 0) scale(0.996264)"/>
      </g>
     </g>
    </g>
    <g id="xtick_6">
     <g id="line2d_6">
      <g>
       <use xlink:href="#ma08ece3cf9" x="199.437012" y="145.8" style="stroke: #000000; stroke-width: 0.8"/>
      </g>
     </g>
     <g id="text_6">
      <!-- $\mathdefault{500}$ -->
      <g transform="translate(191.965009 159.718498) scale(0.1 -0.1)">
       <defs>
        <path id="CMR17-35" d="M 730 3750 
C 794 3724 1056 3641 1325 3641 
C 1920 3641 2246 3961 2432 4140 
C 2432 4191 2432 4224 2394 4224 
C 2387 4224 2374 4224 2323 4198 
C 2099 4102 1837 4032 1517 4032 
C 1325 4032 1037 4055 723 4191 
C 653 4224 640 4224 634 4224 
C 602 4224 595 4217 595 4090 
L 595 2231 
C 595 2113 595 2080 659 2080 
C 691 2080 704 2093 736 2139 
C 941 2435 1222 2560 1542 2560 
C 1766 2560 2246 2415 2246 1293 
C 2246 1087 2246 716 2054 422 
C 1894 159 1645 25 1370 25 
C 947 25 518 319 403 812 
C 429 806 480 793 506 793 
C 589 793 749 838 749 1036 
C 749 1209 627 1280 506 1280 
C 358 1280 262 1190 262 1011 
C 262 454 704 -128 1382 -128 
C 2042 -128 2669 441 2669 1267 
C 2669 2054 2170 2662 1549 2662 
C 1222 2662 947 2540 730 2304 
L 730 3750 
z
" transform="scale(0.015625)"/>
       </defs>
       <use xlink:href="#CMR17-35" transform="scale(0.996264)"/>
       <use xlink:href="#CMR17-30" transform="translate(45.690477 0) scale(0.996264)"/>
       <use xlink:href="#CMR17-30" transform="translate(91.380954 0) scale(0.996264)"/>
      </g>
     </g>
    </g>
    <g id="text_7">
     <!-- $Epoch$ -->
     <g transform="translate(101.826211 172.574175) scale(0.1 -0.1)">
      <defs>
       <path id="CMMI12-45" d="M 4448 1489 
C 4454 1508 4474 1553 4474 1578 
C 4474 1611 4448 1643 4410 1643 
C 4384 1643 4371 1636 4352 1617 
C 4339 1611 4339 1598 4282 1469 
C 3904 570 3629 185 2605 185 
L 1670 185 
C 1581 185 1568 185 1530 192 
C 1459 198 1453 211 1453 262 
C 1453 307 1466 346 1478 403 
L 1920 2176 
L 2554 2176 
C 3053 2176 3091 2066 3091 1874 
C 3091 1810 3091 1752 3046 1559 
C 3034 1534 3027 1508 3027 1489 
C 3027 1444 3059 1424 3098 1424 
C 3155 1424 3162 1469 3187 1559 
L 3552 3036 
C 3552 3068 3526 3099 3488 3099 
C 3430 3099 3424 3074 3398 2986 
C 3270 2500 3142 2361 2573 2361 
L 1965 2361 
L 2362 3913 
C 2419 4134 2432 4153 2694 4153 
L 3610 4153 
C 4397 4153 4557 3945 4557 3465 
C 4557 3459 4557 3282 4531 3074 
C 4525 3049 4518 3011 4518 2998 
C 4518 2948 4550 2929 4589 2929 
C 4634 2929 4659 2954 4672 3068 
L 4806 4172 
C 4806 4191 4819 4255 4819 4268 
C 4819 4339 4762 4339 4646 4339 
L 1523 4339 
C 1402 4339 1338 4339 1338 4223 
C 1338 4153 1382 4153 1491 4153 
C 1888 4153 1888 4109 1888 4039 
C 1888 4008 1882 3983 1862 3913 
L 998 474 
C 941 249 928 185 480 185 
C 358 185 294 185 294 70 
C 294 0 333 0 461 0 
L 3674 0 
C 3814 0 3821 6 3866 108 
L 4448 1489 
z
" transform="scale(0.015625)"/>
       <path id="CMMI12-70" d="M 275 -794 
C 230 -981 205 -1031 -58 -1031 
C -135 -1031 -199 -1031 -199 -1152 
C -199 -1165 -192 -1216 -122 -1216 
C -39 -1216 51 -1204 134 -1204 
L 410 -1204 
C 544 -1204 870 -1216 1005 -1216 
C 1043 -1216 1120 -1216 1120 -1101 
C 1120 -1031 1075 -1031 966 -1031 
C 672 -1031 653 -987 653 -937 
C 653 -863 941 217 979 364 
C 1050 185 1222 -64 1555 -64 
C 2278 -64 3059 874 3059 1813 
C 3059 2400 2726 2816 2246 2816 
C 1837 2816 1491 2419 1421 2330 
C 1370 2649 1120 2816 864 2816 
C 678 2816 531 2726 410 2483 
C 294 2253 205 1864 205 1838 
C 205 1813 230 1781 275 1781 
C 326 1781 333 1787 371 1934 
C 467 2311 589 2687 845 2687 
C 992 2687 1043 2585 1043 2394 
C 1043 2241 1024 2177 998 2062 
L 275 -794 
z
M 1382 1992 
C 1427 2170 1606 2356 1709 2445 
C 1779 2509 1990 2687 2234 2687 
C 2515 2687 2643 2407 2643 2075 
C 2643 1768 2464 1047 2304 715 
C 2144 370 1850 64 1555 64 
C 1120 64 1050 613 1050 638 
C 1050 657 1062 708 1069 740 
L 1382 1992 
z
" transform="scale(0.015625)"/>
       <path id="CMMI12-6f" d="M 2918 1755 
C 2918 2362 2522 2816 1939 2816 
C 1094 2816 262 1896 262 996 
C 262 389 659 -64 1242 -64 
C 2093 -64 2918 855 2918 1755 
z
M 1248 64 
C 928 64 691 319 691 766 
C 691 1060 845 1711 1024 2030 
C 1312 2522 1670 2687 1933 2687 
C 2246 2687 2490 2432 2490 1985 
C 2490 1730 2355 1047 2112 657 
C 1850 230 1498 64 1248 64 
z
" transform="scale(0.015625)"/>
       <path id="CMMI12-63" d="M 2502 2432 
C 2381 2432 2323 2432 2234 2355 
C 2195 2323 2125 2227 2125 2124 
C 2125 1996 2221 1919 2342 1919 
C 2496 1919 2669 2047 2669 2303 
C 2669 2591 2374 2816 1933 2816 
C 1094 2816 256 1932 256 1011 
C 256 446 602 -64 1254 -64 
C 2125 -64 2675 622 2675 706 
C 2675 745 2637 777 2611 777 
C 2592 777 2586 771 2528 712 
C 2118 161 1510 64 1267 64 
C 826 64 685 453 685 777 
C 685 1004 794 1634 1024 2073 
C 1190 2374 1536 2687 1939 2687 
C 2022 2687 2374 2676 2502 2432 
z
" transform="scale(0.015625)"/>
       <path id="CMMI12-68" d="M 1798 4255 
C 1805 4281 1818 4319 1818 4351 
C 1818 4416 1754 4416 1741 4416 
C 1734 4416 1421 4390 1389 4383 
C 1280 4377 1184 4364 1069 4358 
C 909 4345 864 4339 864 4223 
C 864 4159 915 4159 1005 4159 
C 1318 4159 1325 4103 1325 4040 
C 1325 4002 1312 3951 1306 3932 
L 378 249 
C 352 153 352 140 352 102 
C 352 -39 461 -64 525 -64 
C 634 -64 717 19 749 89 
L 1037 1245 
C 1069 1385 1107 1519 1139 1660 
C 1210 1928 1210 1934 1331 2119 
C 1453 2305 1741 2687 2234 2687 
C 2490 2687 2579 2496 2579 2241 
C 2579 1883 2330 1187 2189 804 
C 2131 651 2099 568 2099 453 
C 2099 166 2298 -64 2605 -64 
C 3200 -64 3424 874 3424 913 
C 3424 945 3398 970 3360 970 
C 3302 970 3296 951 3264 842 
C 3117 332 2880 64 2624 64 
C 2560 64 2458 70 2458 274 
C 2458 440 2534 645 2560 715 
C 2675 1021 2963 1775 2963 2145 
C 2963 2528 2739 2816 2253 2816 
C 1888 2816 1568 2643 1306 2311 
L 1798 4255 
z
" transform="scale(0.015625)"/>
      </defs>
      <use xlink:href="#CMMI12-45" transform="scale(0.996264)"/>
      <use xlink:href="#CMMI12-70" transform="translate(78.051636 0) scale(0.996264)"/>
      <use xlink:href="#CMMI12-6f" transform="translate(127.01115 0) scale(0.996264)"/>
      <use xlink:href="#CMMI12-63" transform="translate(173.90646 0) scale(0.996264)"/>
      <use xlink:href="#CMMI12-68" transform="translate(215.889693 0) scale(0.996264)"/>
     </g>
    </g>
   </g>
   <g id="matplotlib.axis_2">
    <g id="ytick_1">
     <g id="line2d_7">
      <defs>
       <path id="m184aee7fc6" d="M 0 0 
L -3.5 0 
" style="stroke: #000000; stroke-width: 0.8"/>
      </defs>
      <g>
       <use xlink:href="#m184aee7fc6" x="32.037012" y="145.8" style="stroke: #000000; stroke-width: 0.8"/>
      </g>
     </g>
     <g id="text_8">
      <!-- $\mathdefault{0}$ -->
      <g transform="translate(20.055677 149.259249) scale(0.1 -0.1)">
       <use xlink:href="#CMR17-30" transform="scale(0.996264)"/>
      </g>
     </g>
    </g>
    <g id="ytick_2">
     <g id="line2d_8">
      <g>
       <use xlink:href="#m184aee7fc6" x="32.037012" y="106.2" style="stroke: #000000; stroke-width: 0.8"/>
      </g>
     </g>
     <g id="text_9">
      <!-- $\mathdefault{2}$ -->
      <g transform="translate(20.055677 109.659249) scale(0.1 -0.1)">
       <use xlink:href="#CMR17-32" transform="scale(0.996264)"/>
      </g>
     </g>
    </g>
    <g id="ytick_3">
     <g id="line2d_9">
      <g>
       <use xlink:href="#m184aee7fc6" x="32.037012" y="66.6" style="stroke: #000000; stroke-width: 0.8"/>
      </g>
     </g>
     <g id="text_10">
      <!-- $\mathdefault{4}$ -->
      <g transform="translate(20.055677 70.059249) scale(0.1 -0.1)">
       <use xlink:href="#CMR17-34" transform="scale(0.996264)"/>
      </g>
     </g>
    </g>
    <g id="ytick_4">
     <g id="line2d_10">
      <g>
       <use xlink:href="#m184aee7fc6" x="32.037012" y="27" style="stroke: #000000; stroke-width: 0.8"/>
      </g>
     </g>
     <g id="text_11">
      <!-- $\mathdefault{6}$ -->
      <g transform="translate(20.055677 30.459249) scale(0.1 -0.1)">
       <defs>
        <path id="CMR17-36" d="M 678 2198 
C 678 3712 1395 4076 1811 4076 
C 1946 4076 2272 4049 2400 3782 
C 2298 3782 2106 3782 2106 3558 
C 2106 3385 2246 3328 2336 3328 
C 2394 3328 2566 3353 2566 3571 
C 2566 3987 2246 4224 1805 4224 
C 1043 4224 243 3411 243 2011 
C 243 257 966 -128 1478 -128 
C 2099 -128 2688 431 2688 1295 
C 2688 2101 2170 2688 1517 2688 
C 1126 2688 838 2430 678 1979 
L 678 2198 
z
M 1478 25 
C 691 25 691 1212 691 1450 
C 691 1914 909 2585 1504 2585 
C 1613 2585 1926 2585 2138 2140 
C 2253 1889 2253 1624 2253 1302 
C 2253 954 2253 696 2118 438 
C 1978 173 1773 25 1478 25 
z
" transform="scale(0.015625)"/>
       </defs>
       <use xlink:href="#CMR17-36" transform="scale(0.996264)"/>
      </g>
     </g>
    </g>
    <g id="text_12">
     <!-- $Loss$ -->
     <g transform="translate(14.118498 86.974621) rotate(-90) scale(0.1 -0.1)">
      <defs>
       <path id="CMMI12-4c" d="M 2349 3860 
C 2406 4102 2426 4166 2989 4166 
C 3162 4166 3206 4166 3206 4287 
C 3206 4352 3136 4352 3110 4352 
C 2982 4352 2835 4339 2707 4339 
L 1850 4339 
C 1728 4339 1587 4352 1466 4352 
C 1414 4352 1344 4352 1344 4230 
C 1344 4166 1402 4166 1498 4166 
C 1888 4166 1888 4115 1888 4045 
C 1888 4032 1888 3994 1862 3898 
L 998 472 
C 941 249 928 185 480 185 
C 358 185 294 185 294 70 
C 294 0 333 0 461 0 
L 3328 0 
C 3469 0 3475 6 3520 121 
L 4013 1478 
C 4026 1510 4038 1548 4038 1567 
C 4038 1605 4006 1631 3974 1631 
C 3968 1631 3936 1631 3923 1605 
C 3910 1599 3910 1586 3859 1465 
C 3654 905 3366 185 2285 185 
L 1670 185 
C 1581 185 1568 185 1530 191 
C 1459 198 1453 211 1453 262 
C 1453 306 1466 344 1478 402 
L 2349 3860 
z
" transform="scale(0.015625)"/>
       <path id="CMMI12-73" d="M 1459 1290 
C 1568 1271 1741 1233 1779 1227 
C 1862 1201 2150 1099 2150 793 
C 2150 595 1971 64 1229 64 
C 1094 64 614 83 486 447 
C 742 414 870 614 870 755 
C 870 889 781 960 653 960 
C 512 960 326 851 326 563 
C 326 176 710 -64 1222 -64 
C 2195 -64 2483 665 2483 998 
C 2483 1093 2483 1271 2278 1475 
C 2118 1627 1965 1659 1619 1729 
C 1446 1767 1171 1824 1171 2111 
C 1171 2239 1286 2687 1894 2687 
C 2163 2687 2426 2589 2490 2368 
C 2208 2368 2195 2124 2195 2118 
C 2195 1983 2317 1945 2374 1945 
C 2464 1945 2643 2015 2643 2284 
C 2643 2546 2400 2816 1901 2816 
C 1062 2816 838 2169 838 1907 
C 838 1424 1312 1322 1459 1290 
z
" transform="scale(0.015625)"/>
      </defs>
      <use xlink:href="#CMMI12-4c" transform="scale(0.996264)"/>
      <use xlink:href="#CMMI12-6f" transform="translate(66.370875 0) scale(0.996264)"/>
      <use xlink:href="#CMMI12-73" transform="translate(113.266185 0) scale(0.996264)"/>
      <use xlink:href="#CMMI12-73" transform="translate(159.216233 0) scale(0.996264)"/>
     </g>
    </g>
   </g>
   <g id="line2d_11">
    <path d="M 32.037012 9.429704 
L 32.371812 9.443762 
L 33.711012 10.948377 
L 34.045812 11.037475 
L 34.380612 11.493475 
L 34.715412 11.719908 
L 35.050212 12.141956 
L 36.389412 12.93894 
L 36.724212 13.397602 
L 37.728612 14.209882 
L 38.063412 14.583137 
L 38.398212 14.724021 
L 38.733012 15.101015 
L 39.067812 15.664363 
L 39.737412 16.054632 
L 41.746212 18.880577 
L 42.081012 19.164697 
L 42.415812 19.852085 
L 42.750612 20.854457 
L 43.085412 21.238485 
L 43.420212 22.670695 
L 43.755012 23.336756 
L 44.089812 24.679404 
L 44.759412 25.819885 
L 45.763812 29.166862 
L 46.433412 30.755269 
L 47.437812 34.801805 
L 47.772612 36.406301 
L 48.442212 40.960301 
L 49.111812 45.063108 
L 50.451012 56.327528 
L 50.785812 59.096788 
L 51.120612 63.955584 
L 51.790212 67.255321 
L 52.794612 83.223463 
L 53.129412 84.841507 
L 53.464212 87.257957 
L 53.799012 87.626085 
L 54.133812 89.431909 
L 54.803412 98.737792 
L 55.138212 103.973412 
L 55.807812 108.634832 
L 56.142612 108.967126 
L 56.812212 111.531377 
L 58.151412 116.450502 
L 58.486212 117.138152 
L 58.821012 117.368791 
L 59.155812 117.441801 
L 59.490612 117.974231 
L 60.160212 118.625462 
L 61.164612 119.987841 
L 61.499412 119.860096 
L 62.503812 120.730457 
L 63.173412 120.772704 
L 63.843012 121.376452 
L 64.177812 121.572103 
L 64.512612 121.971608 
L 66.521412 122.80392 
L 67.525812 122.999333 
L 69.534612 124.012059 
L 69.869412 123.95023 
L 70.539012 124.345576 
L 70.873812 124.503643 
L 72.547812 124.508624 
L 72.882612 124.407582 
L 73.552212 124.715475 
L 73.887012 124.728792 
L 74.556612 124.943279 
L 76.230612 124.931163 
L 76.565412 125.127459 
L 77.235012 125.211489 
L 79.243812 125.479237 
L 79.913412 125.447233 
L 80.583012 125.476768 
L 81.252612 125.564587 
L 81.922212 125.66552 
L 83.261412 125.808404 
L 83.931012 125.857088 
L 84.265812 125.929818 
L 84.600612 125.784359 
L 85.939812 126.05223 
L 87.948612 126.069559 
L 91.966212 126.52876 
L 95.649012 126.74451 
L 103.014612 127.166071 
L 103.684212 127.126587 
L 104.353812 127.235629 
L 104.688612 127.124926 
L 105.023412 127.248969 
L 105.358212 127.214007 
L 106.027812 127.280488 
L 106.362612 127.236039 
L 107.032212 127.395527 
L 107.701812 127.320258 
L 109.041012 127.451422 
L 111.049812 127.503038 
L 111.384612 127.569443 
L 111.719412 127.480326 
L 115.402212 127.728924 
L 116.406612 127.766558 
L 133.146612 128.659854 
L 133.481412 128.59299 
L 134.151012 128.657545 
L 138.838212 128.955558 
L 139.507812 128.92746 
L 140.177412 129.013431 
L 140.847012 129.049889 
L 141.516612 129.038973 
L 142.521012 129.117036 
L 143.525412 129.267262 
L 144.195012 129.257823 
L 144.864612 129.249537 
L 145.199412 129.340018 
L 145.869012 129.31236 
L 146.203812 129.371874 
L 146.538612 129.311812 
L 147.208212 129.376701 
L 148.212612 129.483077 
L 149.551812 129.547813 
L 151.225812 129.634906 
L 151.895412 129.673468 
L 154.908612 129.820234 
L 155.578212 129.810612 
L 157.252212 129.910167 
L 163.278612 130.198764 
L 164.617812 130.174658 
L 165.287412 130.311081 
L 168.300612 130.44428 
L 168.970212 130.490577 
L 170.644212 130.594183 
L 171.313812 130.627846 
L 172.987812 130.642487 
L 173.322612 130.733842 
L 173.992212 130.727477 
L 176.335812 130.781614 
L 177.340212 130.815636 
L 178.679412 130.892252 
L 179.683812 130.872583 
L 181.023012 130.95756 
L 181.692612 130.930475 
L 186.379812 131.05052 
L 187.719012 131.086731 
L 195.084612 131.278137 
L 196.089012 131.285109 
L 197.428212 131.310557 
L 199.102212 131.354604 
L 199.102212 131.354604 
" clip-path="url(#pb7212562bf)" style="fill: none; stroke: #1f77b4; stroke-width: 1.5; stroke-linecap: square"/>
   </g>
   <g id="line2d_12">
    <path d="M 32.037012 9.501109 
L 32.371812 9.379645 
L 33.041412 10.792887 
L 33.376212 12.068389 
L 34.045812 12.680841 
L 34.380612 13.48164 
L 34.715412 13.439248 
L 35.050212 13.559531 
L 35.719812 15.145163 
L 36.054612 15.405056 
L 36.389412 15.891476 
L 36.724212 17.207877 
L 37.059012 17.696459 
L 37.393812 18.444726 
L 37.728612 16.787424 
L 38.063412 16.529665 
L 38.398212 17.162719 
L 38.733012 18.31383 
L 39.402612 21.253403 
L 40.741812 26.392419 
L 41.076612 28.363844 
L 41.411412 27.558004 
L 41.746212 28.403951 
L 42.081012 34.800068 
L 42.415812 48.454696 
L 42.750612 57.285073 
L 43.085412 59.677366 
L 43.420212 68.546486 
L 43.755012 110.935851 
L 44.089812 111.795339 
L 44.759412 116.539704 
L 45.429012 119.933517 
L 45.763812 119.974705 
L 46.098612 121.18588 
L 46.768212 122.699876 
L 47.103012 121.801496 
L 47.437812 121.469216 
L 47.772612 123.728167 
L 48.107412 124.062781 
L 48.777012 116.981917 
L 49.111812 83.866142 
L 49.446612 90.066318 
L 49.781412 91.661863 
L 50.116212 99.997743 
L 51.455412 116.278685 
L 51.790212 118.872172 
L 52.125012 120.357513 
L 52.459812 120.081761 
L 53.129412 119.982813 
L 53.799012 125.308443 
L 54.468612 127.869196 
L 54.803412 128.529104 
L 55.473012 129.085838 
L 56.477412 130.029558 
L 57.816612 130.796755 
L 58.821012 131.03607 
L 59.155812 129.085388 
L 59.490612 128.20065 
L 59.825412 129.369097 
L 60.160212 129.982167 
L 60.495012 129.638234 
L 61.164612 130.642386 
L 61.499412 130.318499 
L 61.834212 130.319065 
L 62.169012 130.521713 
L 62.503812 130.49819 
L 63.508212 131.236183 
L 63.843012 131.373055 
L 64.177812 130.763207 
L 64.512612 130.505115 
L 64.847412 130.510851 
L 65.182212 130.821295 
L 65.517012 131.433306 
L 65.851812 132.347313 
L 66.856212 132.52274 
L 67.191012 132.437672 
L 68.530212 132.517984 
L 68.865012 132.451821 
L 70.539012 132.804849 
L 70.873812 132.875855 
L 71.543412 132.63709 
L 72.547812 133.030813 
L 72.882612 119.054544 
L 73.217412 129.27316 
L 73.552212 130.166997 
L 74.221812 131.135042 
L 75.226212 131.801259 
L 78.909012 132.960589 
L 79.243812 120.80274 
L 79.578612 130.615928 
L 79.913412 132.526627 
L 80.248212 132.937753 
L 81.252612 133.349854 
L 82.257012 133.480598 
L 82.591812 133.353256 
L 82.926612 132.739646 
L 83.261412 133.327527 
L 84.600612 133.534638 
L 85.939812 133.692374 
L 86.609412 133.716206 
L 86.944212 132.977427 
L 87.279012 133.584074 
L 88.618212 133.716697 
L 89.287812 133.607976 
L 90.627012 133.602285 
L 91.296612 133.638986 
L 91.631412 133.408728 
L 96.988212 133.477377 
L 97.323012 133.314314 
L 99.666612 133.420701 
L 100.001412 133.746408 
L 101.340612 133.733181 
L 101.675412 133.711634 
L 102.010212 130.861559 
L 102.345012 131.575217 
L 102.679812 131.871418 
L 103.014612 132.405865 
L 103.684212 132.998059 
L 106.027812 133.747618 
L 106.362612 133.709785 
L 106.697412 133.86941 
L 107.367012 133.826162 
L 108.036612 133.829719 
L 109.710612 134.044803 
L 110.045412 134.076062 
L 110.380212 133.927713 
L 111.049812 133.98626 
L 111.719412 133.489898 
L 113.393412 133.899954 
L 114.063012 133.93366 
L 116.071812 134.203446 
L 116.406612 133.554853 
L 116.741412 133.743305 
L 117.076212 133.770655 
L 118.080612 134.161685 
L 119.754612 134.334871 
L 121.763412 134.62141 
L 123.102612 134.731953 
L 125.446212 134.923378 
L 128.124612 135.032679 
L 128.459412 134.888406 
L 130.803012 134.914327 
L 131.807412 135.169582 
L 132.811812 135.165015 
L 133.146612 135.208249 
L 133.481412 135.008037 
L 134.485812 135.109593 
L 134.820612 135.051314 
L 136.159812 135.231558 
L 137.164212 135.398286 
L 138.838212 135.630668 
L 139.173012 135.535778 
L 142.186212 135.729635 
L 143.860212 135.798568 
L 145.199412 135.882138 
L 145.869012 135.871062 
L 146.873412 135.911661 
L 147.877812 135.94921 
L 148.882212 135.998959 
L 149.551812 135.956298 
L 150.221412 135.525975 
L 152.565012 135.612325 
L 152.899812 135.509804 
L 155.578212 135.780656 
L 157.252212 135.84564 
L 157.921812 135.790166 
L 159.595812 135.925457 
L 160.600212 136.033963 
L 162.943812 135.970396 
L 164.283012 135.918201 
L 165.287412 135.906255 
L 168.635412 136.223808 
L 168.970212 135.342029 
L 169.305012 135.181674 
L 169.974612 135.888922 
L 171.983412 136.291215 
L 174.327012 136.457267 
L 179.014212 136.644463 
L 182.027412 136.584612 
L 182.362212 136.714077 
L 188.723412 136.729264 
L 191.736612 136.849228 
L 192.406212 136.465154 
L 196.089012 136.632676 
L 198.432612 136.692249 
L 199.102212 136.566817 
L 199.102212 136.566817 
" clip-path="url(#pb7212562bf)" style="fill: none; stroke: #ff7f0e; stroke-width: 1.5; stroke-linecap: square"/>
   </g>
   <g id="line2d_13">
    <path d="M 32.037012 9.996054 
L 33.376212 14.679958 
L 33.711012 18.29778 
L 34.045812 29.340706 
L 34.380612 30.379021 
L 35.050212 43.720573 
L 35.385012 17.095836 
L 35.719812 66.666821 
L 36.054612 73.932437 
L 36.389412 77.488375 
L 36.724212 36.055459 
L 36.734578 -1 
M 37.383884 -1 
L 37.393812 34.442589 
L 37.728612 82.614688 
L 38.063412 113.869907 
L 38.398212 119.969874 
L 38.733012 122.551571 
L 39.067812 124.005476 
L 39.737412 125.741823 
L 40.072212 126.338973 
L 40.407012 126.087766 
L 40.741812 126.032542 
L 41.076612 126.684021 
L 41.746212 127.442502 
L 42.081012 127.598137 
L 42.415812 128.052498 
L 42.750612 127.657894 
L 43.085412 127.896444 
L 43.420212 128.667165 
L 44.089812 129.158321 
L 44.424612 129.077208 
L 44.759412 78.880586 
L 44.815357 -1 
M 45.374389 -1 
L 45.429012 76.624296 
L 45.763812 98.169789 
L 46.098612 105.276907 
L 46.433412 109.67847 
L 47.103012 114.669122 
L 47.437812 96.656341 
L 47.772612 110.335384 
L 48.107412 117.86621 
L 48.442212 122.546713 
L 49.111812 124.55483 
L 50.451012 127.223756 
L 51.120612 127.881429 
L 51.455412 128.064138 
L 52.125012 127.494317 
L 52.459812 127.552652 
L 53.129412 128.46619 
L 53.464212 128.802146 
L 53.799012 128.788192 
L 54.133812 128.935808 
L 54.468612 129.477525 
L 55.138212 129.897746 
L 55.807812 130.157892 
L 56.142612 130.011403 
L 56.477412 130.247139 
L 56.812212 130.340676 
L 57.147012 130.213784 
L 57.481812 130.38907 
L 57.816612 129.892847 
L 58.151412 130.781634 
L 58.486212 131.050637 
L 59.155812 131.27489 
L 59.490612 131.419306 
L 59.825412 131.426081 
L 60.829812 131.77938 
L 62.838612 131.780555 
L 63.843012 132.380176 
L 64.512612 132.548921 
L 65.182212 132.590081 
L 65.851812 132.7468 
L 66.186612 132.690266 
L 66.521412 132.794144 
L 66.856212 132.692866 
L 68.195412 132.954347 
L 68.530212 132.967065 
L 68.846796 -1 
M 68.8846 -1 
L 69.199812 123.044 
L 69.534612 131.289949 
L 69.869412 131.778809 
L 70.539012 132.088105 
L 70.873812 132.029447 
L 71.208612 132.325422 
L 71.543412 132.229127 
L 71.878212 132.352866 
L 71.961324 -1 
M 72.469078 -1 
L 72.547812 123.170115 
L 72.882612 127.155668 
L 73.217412 128.862119 
L 73.887012 130.334022 
L 74.556612 131.239527 
L 75.561012 132.161076 
L 76.900212 132.94426 
L 78.239412 133.467228 
L 79.913412 133.683425 
L 81.252612 133.848344 
L 84.265812 134.084329 
L 84.935412 134.070372 
L 85.605012 134.16677 
L 86.274612 134.194404 
L 86.609412 133.608931 
L 86.944212 133.850094 
L 87.279012 132.13479 
L 87.613812 133.148584 
L 88.283412 133.250808 
L 88.953012 133.209096 
L 89.287812 133.045716 
L 90.627012 133.163873 
L 90.961812 133.175611 
L 91.296612 134.072204 
L 91.966212 134.062316 
L 92.301012 134.348974 
L 92.635812 134.314395 
L 92.970612 122.300243 
L 93.305412 131.504433 
L 93.640212 133.636837 
L 93.975012 134.109627 
L 94.644612 134.309457 
L 95.983812 134.440001 
L 97.657812 134.491124 
L 97.992612 133.818535 
L 98.327412 134.418944 
L 100.336212 134.671871 
L 101.005812 134.658061 
L 101.340612 134.578408 
L 102.010212 134.785082 
L 102.345012 134.678849 
L 103.014612 134.748322 
L 104.688612 134.630871 
L 105.023412 134.745994 
L 106.362612 134.729023 
L 107.032212 134.864944 
L 107.367012 134.815128 
L 107.701812 134.343551 
L 108.371412 134.662751 
L 109.710612 134.858406 
L 112.389012 134.974252 
L 112.723812 134.864241 
L 113.393412 135.03849 
L 114.063012 135.053001 
L 114.397812 134.7136 
L 114.732612 134.928032 
L 115.402212 135.005061 
L 121.763412 135.185206 
L 123.772212 135.293608 
L 126.450612 135.311724 
L 128.459412 135.440479 
L 129.129012 135.437154 
L 129.798612 135.416382 
L 130.133412 134.511134 
L 130.468212 135.340619 
L 131.472612 135.462444 
L 131.807412 135.464812 
L 132.142212 135.323478 
L 132.477012 135.4528 
L 134.485812 135.48413 
L 135.155412 134.256626 
L 135.825012 135.052738 
L 136.494612 134.433614 
L 136.829412 135.224783 
L 137.499012 135.359349 
L 137.833812 126.426684 
L 138.168612 134.145823 
L 138.503412 135.332999 
L 140.177412 135.458112 
L 146.873412 135.75075 
L 147.208212 135.68007 
L 148.212612 135.806807 
L 150.221412 135.808178 
L 151.225812 135.863832 
L 152.899812 135.913145 
L 159.930612 136.040725 
L 160.935012 136.052383 
L 162.943812 136.07927 
L 167.631012 136.014568 
L 167.965812 136.075671 
L 168.300612 135.993661 
L 169.305012 136.054754 
L 177.340212 136.106823 
L 177.675012 135.515021 
L 178.009812 134.636732 
L 178.344612 134.664843 
L 178.679412 135.408127 
L 179.014212 135.16333 
L 179.349012 135.161503 
L 179.683812 135.346383 
L 183.031812 135.754852 
L 183.701412 135.755808 
L 185.040612 136.286794 
L 187.049412 136.28604 
L 189.727812 136.341595 
L 193.410612 136.376554 
L 194.415012 136.347033 
L 195.419412 135.77325 
L 199.102212 136.012886 
L 199.102212 136.012886 
" clip-path="url(#pb7212562bf)" style="fill: none; stroke: #2ca02c; stroke-width: 1.5; stroke-linecap: square"/>
   </g>
   <g id="line2d_14">
    <path d="M 32.037012 12.389065 
L 32.371812 13.096281 
L 33.376212 15.989666 
L 36.389412 23.092092 
L 37.059012 25.370164 
L 38.063412 28.626192 
L 38.733012 30.938168 
L 40.741812 39.886099 
L 43.085412 53.70732 
L 45.094212 68.567281 
L 46.768212 81.21187 
L 48.107412 91.064139 
L 49.781412 101.955493 
L 51.120612 109.217334 
L 52.459812 115.125001 
L 53.799012 119.8043 
L 54.803412 122.627987 
L 56.142612 125.454716 
L 56.812212 126.717502 
L 58.486212 129.02613 
L 59.490612 130.00594 
L 60.495012 130.784127 
L 61.499412 131.430587 
L 62.838612 132.066914 
L 65.851812 132.999877 
L 71.208612 133.734422 
L 72.213012 133.767646 
L 74.221812 133.917748 
L 75.226212 133.940588 
L 77.569812 134.000069 
L 79.243812 134.085022 
L 83.596212 134.148122 
L 84.265812 134.212727 
L 84.935412 134.183236 
L 85.939812 134.234323 
L 88.953012 134.256052 
L 89.957412 134.332951 
L 92.301012 134.338538 
L 94.309812 134.384212 
L 95.314212 134.363598 
L 106.362612 134.471638 
L 106.697412 134.585452 
L 109.375812 134.567141 
L 111.384612 134.607446 
L 112.054212 134.569679 
L 113.393412 134.634253 
L 114.397812 134.620661 
L 116.406612 134.627659 
L 118.080612 134.675157 
L 118.750212 134.637853 
L 119.754612 134.665492 
L 129.798612 134.77507 
L 130.468212 134.778501 
L 132.142212 134.765225 
L 133.146612 134.81259 
L 133.816212 134.791739 
L 136.494612 134.834001 
L 139.507812 134.820815 
L 140.177412 134.843956 
L 141.851412 134.848772 
L 143.525412 134.925834 
L 144.864612 134.881853 
L 145.534212 134.889541 
L 147.877812 134.889102 
L 149.217012 134.925228 
L 156.582612 134.974248 
L 157.921812 135.004991 
L 160.935012 135.003481 
L 161.604612 135.01593 
L 162.609012 135.044007 
L 164.283012 135.047359 
L 164.952612 135.029019 
L 166.291812 135.045967 
L 167.631012 135.01896 
L 168.635412 135.086714 
L 170.309412 135.076271 
L 171.648612 135.086241 
L 176.670612 135.109754 
L 178.679412 135.171596 
L 179.683812 135.164195 
L 186.714612 135.173033 
L 192.071412 135.221572 
L 193.745412 135.199936 
L 194.749812 135.243651 
L 199.102212 135.275891 
L 199.102212 135.275891 
" clip-path="url(#pb7212562bf)" style="fill: none; stroke: #d62728; stroke-width: 1.5; stroke-linecap: square"/>
   </g>
   <g id="patch_3">
    <path d="M 32.037012 145.8 
L 32.037012 7.2 
" style="fill: none; stroke: #000000; stroke-width: 0.8; stroke-linejoin: miter; stroke-linecap: square"/>
   </g>
   <g id="patch_4">
    <path d="M 199.437012 145.8 
L 199.437012 7.2 
" style="fill: none; stroke: #000000; stroke-width: 0.8; stroke-linejoin: miter; stroke-linecap: square"/>
   </g>
   <g id="patch_5">
    <path d="M 32.037012 145.8 
L 199.437012 145.8 
" style="fill: none; stroke: #000000; stroke-width: 0.8; stroke-linejoin: miter; stroke-linecap: square"/>
   </g>
   <g id="patch_6">
    <path d="M 32.037012 7.2 
L 199.437012 7.2 
" style="fill: none; stroke: #000000; stroke-width: 0.8; stroke-linejoin: miter; stroke-linecap: square"/>
   </g>
  </g>
 </g>
 <defs>
  <clipPath id="pb7212562bf">
   <rect x="32.037012" y="7.2" width="167.4" height="138.6"/>
  </clipPath>
 </defs>
</svg>
