<?xml version="1.0" encoding="utf-8" standalone="no"?>
<!DOCTYPE svg PUBLIC "-//W3C//DTD SVG 1.1//EN"
  "http://www.w3.org/Graphics/SVG/1.1/DTD/svg11.dtd">
<svg xmlns:xlink="http://www.w3.org/1999/xlink" width="216.876423pt" height="191.714009pt" viewBox="0 0 216.876423 191.714009" xmlns="http://www.w3.org/2000/svg" version="1.1">
 <metadata>
  <rdf:RDF xmlns:dc="http://purl.org/dc/elements/1.1/" xmlns:cc="http://creativecommons.org/ns#" xmlns:rdf="http://www.w3.org/1999/02/22-rdf-syntax-ns#">
   <cc:Work>
    <dc:type rdf:resource="http://purl.org/dc/dcmitype/StillImage"/>
    <dc:date>2025-06-02T19:54:48.475112</dc:date>
    <dc:format>image/svg+xml</dc:format>
    <dc:creator>
     <cc:Agent>
      <dc:title>Matplotlib v3.9.2, https://matplotlib.org/</dc:title>
     </cc:Agent>
    </dc:creator>
   </cc:Work>
  </rdf:RDF>
 </metadata>
 <defs>
  <style type="text/css">*{stroke-linejoin: round; stroke-linecap: butt}</style>
 </defs>
 <g id="figure_1">
  <g id="patch_1">
   <path d="M 0 191.714009 
L 216.876423 191.714009 
L 216.876423 -0 
L 0 -0 
z
" style="fill: #ffffff"/>
  </g>
  <g id="axes_1">
   <g id="patch_2">
    <path d="M 39.785756 155.802655 
L 207.185756 155.802655 
L 207.185756 17.202655 
L 39.785756 17.202655 
z
" style="fill: #ffffff"/>
   </g>
   <g id="matplotlib.axis_1">
    <g id="xtick_1">
     <g id="line2d_1">
      <defs>
       <path id="mf68dc6fb48" d="M 0 0 
L 0 3.5 
" style="stroke: #000000; stroke-width: 0.8"/>
      </defs>
      <g>
       <use xlink:href="#mf68dc6fb48" x="39.785756" y="155.802655" style="stroke: #000000; stroke-width: 0.8"/>
      </g>
     </g>
     <g id="text_1">
      <!-- $\mathdefault{0}$ -->
      <g transform="translate(37.295088 169.721154) scale(0.1 -0.1)">
       <defs>
        <path id="CMR17-30" d="M 2688 2038 
C 2688 2430 2682 3099 2413 3613 
C 2176 4063 1798 4224 1466 4224 
C 1158 4224 768 4082 525 3620 
C 269 3137 243 2539 243 2038 
C 243 1671 250 1112 448 623 
C 723 -39 1216 -128 1466 -128 
C 1760 -128 2208 -7 2470 604 
C 2662 1048 2688 1568 2688 2038 
z
M 1466 -26 
C 1056 -26 813 328 723 816 
C 653 1196 653 1749 653 2109 
C 653 2604 653 3015 736 3407 
C 858 3954 1216 4121 1466 4121 
C 1728 4121 2067 3947 2189 3420 
C 2272 3054 2278 2623 2278 2109 
C 2278 1691 2278 1176 2202 797 
C 2067 96 1690 -26 1466 -26 
z
" transform="scale(0.015625)"/>
       </defs>
       <use xlink:href="#CMR17-30" transform="scale(0.996264)"/>
      </g>
     </g>
    </g>
    <g id="xtick_2">
     <g id="line2d_2">
      <g>
       <use xlink:href="#mf68dc6fb48" x="73.265756" y="155.802655" style="stroke: #000000; stroke-width: 0.8"/>
      </g>
     </g>
     <g id="text_2">
      <!-- $\mathdefault{1}$ -->
      <g transform="translate(70.775088 169.721154) scale(0.1 -0.1)">
       <defs>
        <path id="CMR17-31" d="M 1702 4083 
C 1702 4217 1696 4224 1606 4224 
C 1357 3927 979 3833 621 3820 
C 602 3820 570 3820 563 3808 
C 557 3795 557 3782 557 3648 
C 755 3648 1088 3686 1344 3839 
L 1344 467 
C 1344 243 1331 166 781 166 
L 589 166 
L 589 0 
C 896 6 1216 12 1523 12 
C 1830 12 2150 6 2458 0 
L 2458 166 
L 2266 166 
C 1715 166 1702 236 1702 467 
L 1702 4083 
z
" transform="scale(0.015625)"/>
       </defs>
       <use xlink:href="#CMR17-31" transform="scale(0.996264)"/>
      </g>
     </g>
    </g>
    <g id="xtick_3">
     <g id="line2d_3">
      <g>
       <use xlink:href="#mf68dc6fb48" x="106.745756" y="155.802655" style="stroke: #000000; stroke-width: 0.8"/>
      </g>
     </g>
     <g id="text_3">
      <!-- $\mathdefault{2}$ -->
      <g transform="translate(104.255088 169.721154) scale(0.1 -0.1)">
       <defs>
        <path id="CMR17-32" d="M 2669 990 
L 2554 990 
C 2490 537 2438 460 2413 422 
C 2381 371 1920 371 1830 371 
L 602 371 
C 832 620 1280 1073 1824 1596 
C 2214 1966 2669 2400 2669 3033 
C 2669 3788 2067 4224 1395 4224 
C 691 4224 262 3603 262 3027 
C 262 2777 448 2745 525 2745 
C 589 2745 781 2783 781 3007 
C 781 3206 614 3264 525 3264 
C 486 3264 448 3257 422 3244 
C 544 3788 915 4057 1306 4057 
C 1862 4057 2227 3616 2227 3033 
C 2227 2477 1901 1998 1536 1583 
L 262 147 
L 262 0 
L 2515 0 
L 2669 990 
z
" transform="scale(0.015625)"/>
       </defs>
       <use xlink:href="#CMR17-32" transform="scale(0.996264)"/>
      </g>
     </g>
    </g>
    <g id="xtick_4">
     <g id="line2d_4">
      <g>
       <use xlink:href="#mf68dc6fb48" x="140.225756" y="155.802655" style="stroke: #000000; stroke-width: 0.8"/>
      </g>
     </g>
     <g id="text_4">
      <!-- $\mathdefault{3}$ -->
      <g transform="translate(137.735088 169.721154) scale(0.1 -0.1)">
       <defs>
        <path id="CMR17-33" d="M 1414 2176 
C 1984 2176 2234 1673 2234 1094 
C 2234 322 1824 25 1453 25 
C 1114 25 563 193 390 691 
C 422 678 454 678 486 678 
C 640 678 755 780 755 947 
C 755 1132 614 1216 486 1216 
C 378 1216 211 1164 211 927 
C 211 335 787 -128 1466 -128 
C 2176 -128 2720 432 2720 1087 
C 2720 1718 2208 2176 1600 2246 
C 2086 2347 2554 2776 2554 3353 
C 2554 3856 2048 4224 1472 4224 
C 890 4224 378 3862 378 3347 
C 378 3123 544 3084 627 3084 
C 762 3084 877 3167 877 3334 
C 877 3500 762 3584 627 3584 
C 602 3584 570 3584 544 3571 
C 730 3999 1235 4076 1459 4076 
C 1683 4076 2106 3966 2106 3347 
C 2106 3167 2080 2851 1862 2574 
C 1670 2329 1453 2316 1242 2297 
C 1210 2297 1062 2284 1037 2284 
C 992 2278 966 2272 966 2227 
C 966 2182 973 2176 1101 2176 
L 1414 2176 
z
" transform="scale(0.015625)"/>
       </defs>
       <use xlink:href="#CMR17-33" transform="scale(0.996264)"/>
      </g>
     </g>
    </g>
    <g id="xtick_5">
     <g id="line2d_5">
      <g>
       <use xlink:href="#mf68dc6fb48" x="173.705756" y="155.802655" style="stroke: #000000; stroke-width: 0.8"/>
      </g>
     </g>
     <g id="text_5">
      <!-- $\mathdefault{4}$ -->
      <g transform="translate(171.215088 169.721154) scale(0.1 -0.1)">
       <defs>
        <path id="CMR17-34" d="M 2150 4147 
C 2150 4281 2144 4288 2029 4288 
L 128 1254 
L 128 1088 
L 1779 1088 
L 1779 460 
C 1779 230 1766 166 1318 166 
L 1197 166 
L 1197 0 
C 1402 12 1747 12 1965 12 
C 2182 12 2528 12 2733 0 
L 2733 166 
L 2611 166 
C 2163 166 2150 230 2150 460 
L 2150 1088 
L 2803 1088 
L 2803 1254 
L 2150 1254 
L 2150 4147 
z
M 1798 3723 
L 1798 1254 
L 256 1254 
L 1798 3723 
z
" transform="scale(0.015625)"/>
       </defs>
       <use xlink:href="#CMR17-34" transform="scale(0.996264)"/>
      </g>
     </g>
    </g>
    <g id="xtick_6">
     <g id="line2d_6">
      <g>
       <use xlink:href="#mf68dc6fb48" x="207.185756" y="155.802655" style="stroke: #000000; stroke-width: 0.8"/>
      </g>
     </g>
     <g id="text_6">
      <!-- $\mathdefault{5}$ -->
      <g transform="translate(204.695088 169.721154) scale(0.1 -0.1)">
       <defs>
        <path id="CMR17-35" d="M 730 3750 
C 794 3724 1056 3641 1325 3641 
C 1920 3641 2246 3961 2432 4140 
C 2432 4191 2432 4224 2394 4224 
C 2387 4224 2374 4224 2323 4198 
C 2099 4102 1837 4032 1517 4032 
C 1325 4032 1037 4055 723 4191 
C 653 4224 640 4224 634 4224 
C 602 4224 595 4217 595 4090 
L 595 2231 
C 595 2113 595 2080 659 2080 
C 691 2080 704 2093 736 2139 
C 941 2435 1222 2560 1542 2560 
C 1766 2560 2246 2415 2246 1293 
C 2246 1087 2246 716 2054 422 
C 1894 159 1645 25 1370 25 
C 947 25 518 319 403 812 
C 429 806 480 793 506 793 
C 589 793 749 838 749 1036 
C 749 1209 627 1280 506 1280 
C 358 1280 262 1190 262 1011 
C 262 454 704 -128 1382 -128 
C 2042 -128 2669 441 2669 1267 
C 2669 2054 2170 2662 1549 2662 
C 1222 2662 947 2540 730 2304 
L 730 3750 
z
" transform="scale(0.015625)"/>
       </defs>
       <use xlink:href="#CMR17-35" transform="scale(0.996264)"/>
      </g>
     </g>
    </g>
    <g id="text_7">
     <!-- $Epoch$ -->
     <g transform="translate(109.574954 182.576831) scale(0.1 -0.1)">
      <defs>
       <path id="CMMI12-45" d="M 4448 1489 
C 4454 1508 4474 1553 4474 1578 
C 4474 1611 4448 1643 4410 1643 
C 4384 1643 4371 1636 4352 1617 
C 4339 1611 4339 1598 4282 1469 
C 3904 570 3629 185 2605 185 
L 1670 185 
C 1581 185 1568 185 1530 192 
C 1459 198 1453 211 1453 262 
C 1453 307 1466 346 1478 403 
L 1920 2176 
L 2554 2176 
C 3053 2176 3091 2066 3091 1874 
C 3091 1810 3091 1752 3046 1559 
C 3034 1534 3027 1508 3027 1489 
C 3027 1444 3059 1424 3098 1424 
C 3155 1424 3162 1469 3187 1559 
L 3552 3036 
C 3552 3068 3526 3099 3488 3099 
C 3430 3099 3424 3074 3398 2986 
C 3270 2500 3142 2361 2573 2361 
L 1965 2361 
L 2362 3913 
C 2419 4134 2432 4153 2694 4153 
L 3610 4153 
C 4397 4153 4557 3945 4557 3465 
C 4557 3459 4557 3282 4531 3074 
C 4525 3049 4518 3011 4518 2998 
C 4518 2948 4550 2929 4589 2929 
C 4634 2929 4659 2954 4672 3068 
L 4806 4172 
C 4806 4191 4819 4255 4819 4268 
C 4819 4339 4762 4339 4646 4339 
L 1523 4339 
C 1402 4339 1338 4339 1338 4223 
C 1338 4153 1382 4153 1491 4153 
C 1888 4153 1888 4109 1888 4039 
C 1888 4008 1882 3983 1862 3913 
L 998 474 
C 941 249 928 185 480 185 
C 358 185 294 185 294 70 
C 294 0 333 0 461 0 
L 3674 0 
C 3814 0 3821 6 3866 108 
L 4448 1489 
z
" transform="scale(0.015625)"/>
       <path id="CMMI12-70" d="M 275 -794 
C 230 -981 205 -1031 -58 -1031 
C -135 -1031 -199 -1031 -199 -1152 
C -199 -1165 -192 -1216 -122 -1216 
C -39 -1216 51 -1204 134 -1204 
L 410 -1204 
C 544 -1204 870 -1216 1005 -1216 
C 1043 -1216 1120 -1216 1120 -1101 
C 1120 -1031 1075 -1031 966 -1031 
C 672 -1031 653 -987 653 -937 
C 653 -863 941 217 979 364 
C 1050 185 1222 -64 1555 -64 
C 2278 -64 3059 874 3059 1813 
C 3059 2400 2726 2816 2246 2816 
C 1837 2816 1491 2419 1421 2330 
C 1370 2649 1120 2816 864 2816 
C 678 2816 531 2726 410 2483 
C 294 2253 205 1864 205 1838 
C 205 1813 230 1781 275 1781 
C 326 1781 333 1787 371 1934 
C 467 2311 589 2687 845 2687 
C 992 2687 1043 2585 1043 2394 
C 1043 2241 1024 2177 998 2062 
L 275 -794 
z
M 1382 1992 
C 1427 2170 1606 2356 1709 2445 
C 1779 2509 1990 2687 2234 2687 
C 2515 2687 2643 2407 2643 2075 
C 2643 1768 2464 1047 2304 715 
C 2144 370 1850 64 1555 64 
C 1120 64 1050 613 1050 638 
C 1050 657 1062 708 1069 740 
L 1382 1992 
z
" transform="scale(0.015625)"/>
       <path id="CMMI12-6f" d="M 2918 1755 
C 2918 2362 2522 2816 1939 2816 
C 1094 2816 262 1896 262 996 
C 262 389 659 -64 1242 -64 
C 2093 -64 2918 855 2918 1755 
z
M 1248 64 
C 928 64 691 319 691 766 
C 691 1060 845 1711 1024 2030 
C 1312 2522 1670 2687 1933 2687 
C 2246 2687 2490 2432 2490 1985 
C 2490 1730 2355 1047 2112 657 
C 1850 230 1498 64 1248 64 
z
" transform="scale(0.015625)"/>
       <path id="CMMI12-63" d="M 2502 2432 
C 2381 2432 2323 2432 2234 2355 
C 2195 2323 2125 2227 2125 2124 
C 2125 1996 2221 1919 2342 1919 
C 2496 1919 2669 2047 2669 2303 
C 2669 2591 2374 2816 1933 2816 
C 1094 2816 256 1932 256 1011 
C 256 446 602 -64 1254 -64 
C 2125 -64 2675 622 2675 706 
C 2675 745 2637 777 2611 777 
C 2592 777 2586 771 2528 712 
C 2118 161 1510 64 1267 64 
C 826 64 685 453 685 777 
C 685 1004 794 1634 1024 2073 
C 1190 2374 1536 2687 1939 2687 
C 2022 2687 2374 2676 2502 2432 
z
" transform="scale(0.015625)"/>
       <path id="CMMI12-68" d="M 1798 4255 
C 1805 4281 1818 4319 1818 4351 
C 1818 4416 1754 4416 1741 4416 
C 1734 4416 1421 4390 1389 4383 
C 1280 4377 1184 4364 1069 4358 
C 909 4345 864 4339 864 4223 
C 864 4159 915 4159 1005 4159 
C 1318 4159 1325 4103 1325 4040 
C 1325 4002 1312 3951 1306 3932 
L 378 249 
C 352 153 352 140 352 102 
C 352 -39 461 -64 525 -64 
C 634 -64 717 19 749 89 
L 1037 1245 
C 1069 1385 1107 1519 1139 1660 
C 1210 1928 1210 1934 1331 2119 
C 1453 2305 1741 2687 2234 2687 
C 2490 2687 2579 2496 2579 2241 
C 2579 1883 2330 1187 2189 804 
C 2131 651 2099 568 2099 453 
C 2099 166 2298 -64 2605 -64 
C 3200 -64 3424 874 3424 913 
C 3424 945 3398 970 3360 970 
C 3302 970 3296 951 3264 842 
C 3117 332 2880 64 2624 64 
C 2560 64 2458 70 2458 274 
C 2458 440 2534 645 2560 715 
C 2675 1021 2963 1775 2963 2145 
C 2963 2528 2739 2816 2253 2816 
C 1888 2816 1568 2643 1306 2311 
L 1798 4255 
z
" transform="scale(0.015625)"/>
      </defs>
      <use xlink:href="#CMMI12-45" transform="scale(0.996264)"/>
      <use xlink:href="#CMMI12-70" transform="translate(78.051636 0) scale(0.996264)"/>
      <use xlink:href="#CMMI12-6f" transform="translate(127.01115 0) scale(0.996264)"/>
      <use xlink:href="#CMMI12-63" transform="translate(173.90646 0) scale(0.996264)"/>
      <use xlink:href="#CMMI12-68" transform="translate(215.889693 0) scale(0.996264)"/>
     </g>
    </g>
    <g id="text_8">
     <!-- $\times\mathdefault{10^{2}}\mathdefault{}$ -->
     <g transform="translate(185.503104 181.660988) scale(0.1 -0.1)">
      <defs>
       <path id="CMSY10-2" d="M 2490 1775 
L 1210 3046 
C 1133 3123 1120 3136 1069 3136 
C 1005 3136 941 3078 941 3008 
C 941 2963 954 2950 1024 2880 
L 2304 1596 
L 1024 313 
C 954 243 941 230 941 185 
C 941 115 1005 57 1069 57 
C 1120 57 1133 70 1210 147 
L 2483 1418 
L 3808 95 
C 3821 89 3866 57 3904 57 
C 3981 57 4032 115 4032 185 
C 4032 198 4032 223 4013 255 
C 4006 268 2989 1271 2669 1596 
L 3840 2765 
C 3872 2803 3968 2886 4000 2925 
C 4006 2937 4032 2963 4032 3008 
C 4032 3078 3981 3136 3904 3136 
C 3853 3136 3827 3110 3757 3040 
L 2490 1775 
z
" transform="scale(0.015625)"/>
      </defs>
      <use xlink:href="#CMSY10-2" transform="scale(0.996264)"/>
      <use xlink:href="#CMR17-31" transform="translate(77.487468 0) scale(0.996264)"/>
      <use xlink:href="#CMR17-30" transform="translate(123.177945 0) scale(0.996264)"/>
      <use xlink:href="#CMR17-32" transform="translate(168.868422 36.153639) scale(0.697382)"/>
     </g>
    </g>
   </g>
   <g id="matplotlib.axis_2">
    <g id="ytick_1">
     <g id="line2d_7">
      <defs>
       <path id="mbc50da2caf" d="M 0 0 
L -3.5 0 
" style="stroke: #000000; stroke-width: 0.8"/>
      </defs>
      <g>
       <use xlink:href="#mbc50da2caf" x="39.785756" y="141.365863" style="stroke: #000000; stroke-width: 0.8"/>
      </g>
     </g>
     <g id="text_9">
      <!-- $\mathdefault{0.2}$ -->
      <g transform="translate(20.055677 144.825113) scale(0.1 -0.1)">
       <defs>
        <path id="CMMI12-3a" d="M 1178 307 
C 1178 492 1024 620 870 620 
C 685 620 557 467 557 313 
C 557 128 710 0 864 0 
C 1050 0 1178 153 1178 307 
z
" transform="scale(0.015625)"/>
       </defs>
       <use xlink:href="#CMR17-30" transform="scale(0.996264)"/>
       <use xlink:href="#CMMI12-3a" transform="translate(45.690477 0) scale(0.996264)"/>
       <use xlink:href="#CMR17-32" transform="translate(72.787654 0) scale(0.996264)"/>
      </g>
     </g>
    </g>
    <g id="ytick_2">
     <g id="line2d_8">
      <g>
       <use xlink:href="#mbc50da2caf" x="39.785756" y="113.781152" style="stroke: #000000; stroke-width: 0.8"/>
      </g>
     </g>
     <g id="text_10">
      <!-- $\mathdefault{0.4}$ -->
      <g transform="translate(20.055677 117.240401) scale(0.1 -0.1)">
       <use xlink:href="#CMR17-30" transform="scale(0.996264)"/>
       <use xlink:href="#CMMI12-3a" transform="translate(45.690477 0) scale(0.996264)"/>
       <use xlink:href="#CMR17-34" transform="translate(72.787654 0) scale(0.996264)"/>
      </g>
     </g>
    </g>
    <g id="ytick_3">
     <g id="line2d_9">
      <g>
       <use xlink:href="#mbc50da2caf" x="39.785756" y="86.19644" style="stroke: #000000; stroke-width: 0.8"/>
      </g>
     </g>
     <g id="text_11">
      <!-- $\mathdefault{0.6}$ -->
      <g transform="translate(20.055677 89.65569) scale(0.1 -0.1)">
       <defs>
        <path id="CMR17-36" d="M 678 2198 
C 678 3712 1395 4076 1811 4076 
C 1946 4076 2272 4049 2400 3782 
C 2298 3782 2106 3782 2106 3558 
C 2106 3385 2246 3328 2336 3328 
C 2394 3328 2566 3353 2566 3571 
C 2566 3987 2246 4224 1805 4224 
C 1043 4224 243 3411 243 2011 
C 243 257 966 -128 1478 -128 
C 2099 -128 2688 431 2688 1295 
C 2688 2101 2170 2688 1517 2688 
C 1126 2688 838 2430 678 1979 
L 678 2198 
z
M 1478 25 
C 691 25 691 1212 691 1450 
C 691 1914 909 2585 1504 2585 
C 1613 2585 1926 2585 2138 2140 
C 2253 1889 2253 1624 2253 1302 
C 2253 954 2253 696 2118 438 
C 1978 173 1773 25 1478 25 
z
" transform="scale(0.015625)"/>
       </defs>
       <use xlink:href="#CMR17-30" transform="scale(0.996264)"/>
       <use xlink:href="#CMMI12-3a" transform="translate(45.690477 0) scale(0.996264)"/>
       <use xlink:href="#CMR17-36" transform="translate(72.787654 0) scale(0.996264)"/>
      </g>
     </g>
    </g>
    <g id="ytick_4">
     <g id="line2d_10">
      <g>
       <use xlink:href="#mbc50da2caf" x="39.785756" y="58.611729" style="stroke: #000000; stroke-width: 0.8"/>
      </g>
     </g>
     <g id="text_12">
      <!-- $\mathdefault{0.8}$ -->
      <g transform="translate(20.055677 62.070978) scale(0.1 -0.1)">
       <defs>
        <path id="CMR17-38" d="M 1741 2289 
C 2144 2494 2554 2803 2554 3298 
C 2554 3884 1990 4224 1472 4224 
C 890 4224 378 3800 378 3215 
C 378 3054 416 2777 666 2533 
C 730 2469 998 2276 1171 2154 
C 883 2006 211 1652 211 945 
C 211 282 838 -128 1459 -128 
C 2144 -128 2720 366 2720 1022 
C 2720 1607 2330 1877 2074 2051 
L 1741 2289 
z
M 902 2855 
C 851 2887 595 3086 595 3388 
C 595 3781 998 4076 1459 4076 
C 1965 4076 2336 3716 2336 3298 
C 2336 2700 1670 2359 1638 2359 
C 1632 2359 1626 2359 1574 2398 
L 902 2855 
z
M 2080 1536 
C 2176 1466 2483 1253 2483 861 
C 2483 385 2010 25 1472 25 
C 890 25 448 443 448 951 
C 448 1459 838 1884 1280 2083 
L 2080 1536 
z
" transform="scale(0.015625)"/>
       </defs>
       <use xlink:href="#CMR17-30" transform="scale(0.996264)"/>
       <use xlink:href="#CMMI12-3a" transform="translate(45.690477 0) scale(0.996264)"/>
       <use xlink:href="#CMR17-38" transform="translate(72.787654 0) scale(0.996264)"/>
      </g>
     </g>
    </g>
    <g id="ytick_5">
     <g id="line2d_11">
      <g>
       <use xlink:href="#mbc50da2caf" x="39.785756" y="31.027017" style="stroke: #000000; stroke-width: 0.8"/>
      </g>
     </g>
     <g id="text_13">
      <!-- $\mathdefault{1.0}$ -->
      <g transform="translate(20.055677 34.486267) scale(0.1 -0.1)">
       <use xlink:href="#CMR17-31" transform="scale(0.996264)"/>
       <use xlink:href="#CMMI12-3a" transform="translate(45.690477 0) scale(0.996264)"/>
       <use xlink:href="#CMR17-30" transform="translate(72.787654 0) scale(0.996264)"/>
      </g>
     </g>
    </g>
    <g id="text_14">
     <!-- $MSE$ -->
     <g transform="translate(14.118498 98.897132) rotate(-90) scale(0.1 -0.1)">
      <defs>
       <path id="CMMI12-4d" d="M 5811 3886 
C 5869 4102 5882 4166 6336 4166 
C 6458 4166 6515 4166 6515 4287 
C 6515 4352 6470 4352 6349 4352 
L 5581 4352 
C 5421 4352 5414 4345 5344 4243 
L 3008 567 
L 2528 4211 
C 2509 4352 2502 4352 2336 4352 
L 1542 4352 
C 1421 4352 1363 4352 1363 4230 
C 1363 4166 1421 4166 1517 4166 
C 1907 4166 1907 4115 1907 4045 
C 1907 4032 1907 3994 1882 3898 
L 1062 650 
C 986 344 838 204 410 185 
C 390 185 314 179 314 70 
C 314 0 371 0 397 0 
C 525 0 851 12 979 12 
L 1286 12 
C 1376 12 1485 0 1574 0 
C 1619 0 1690 0 1690 121 
C 1690 179 1626 185 1600 185 
C 1389 191 1184 230 1184 459 
C 1184 523 1184 529 1210 618 
L 2093 4128 
L 2099 4128 
L 2630 172 
C 2650 19 2656 0 2714 0 
C 2784 0 2816 51 2848 108 
L 5421 4159 
L 5427 4159 
L 4499 472 
C 4442 249 4429 185 3981 185 
C 3859 185 3795 185 3795 70 
C 3795 0 3853 0 3891 0 
C 4000 0 4128 12 4237 12 
L 4992 12 
C 5101 12 5235 0 5344 0 
C 5395 0 5466 0 5466 121 
C 5466 185 5408 185 5312 185 
C 4922 185 4922 236 4922 300 
C 4922 306 4922 351 4934 402 
L 5811 3886 
z
" transform="scale(0.015625)"/>
       <path id="CMMI12-53" d="M 4064 4422 
C 4064 4480 4019 4480 4006 4480 
C 3981 4480 3974 4473 3898 4377 
C 3859 4332 3597 4002 3590 3996 
C 3379 4409 2957 4480 2688 4480 
C 1875 4480 1139 3742 1139 3024 
C 1139 2547 1427 2268 1741 2160 
C 1811 2134 2189 2033 2381 1988 
C 2707 1899 2790 1874 2925 1734 
C 2950 1702 3078 1556 3078 1258 
C 3078 667 2528 57 1888 57 
C 1363 57 781 279 781 991 
C 781 1112 806 1264 826 1328 
C 826 1347 832 1378 832 1391 
C 832 1417 819 1448 768 1448 
C 710 1448 704 1436 678 1328 
L 352 25 
C 352 19 326 -64 326 -71 
C 326 -128 378 -128 390 -128 
C 416 -128 422 -122 499 -26 
L 794 356 
C 947 127 1280 -128 1875 -128 
C 2701 -128 3456 667 3456 1461 
C 3456 1728 3392 1963 3149 2198 
C 3014 2331 2899 2363 2310 2516 
C 1882 2630 1824 2649 1709 2751 
C 1600 2859 1517 3011 1517 3227 
C 1517 3761 2061 4307 2669 4307 
C 3296 4307 3590 3926 3590 3322 
C 3590 3157 3558 2986 3558 2960 
C 3558 2903 3610 2903 3629 2903 
C 3686 2903 3693 2922 3718 3024 
L 4064 4422 
z
" transform="scale(0.015625)"/>
      </defs>
      <use xlink:href="#CMMI12-4d" transform="scale(0.996264)"/>
      <use xlink:href="#CMMI12-53" transform="translate(104.780079 0) scale(0.996264)"/>
      <use xlink:href="#CMMI12-45" transform="translate(170.574518 0) scale(0.996264)"/>
     </g>
    </g>
    <g id="text_15">
     <!-- $\times\mathdefault{10^{−1}}\mathdefault{}$ -->
     <g transform="translate(39.785756 14.202655) scale(0.1 -0.1)">
      <defs>
       <path id="CMSY10-0" d="M 4218 1472 
C 4326 1472 4442 1472 4442 1600 
C 4442 1728 4326 1728 4218 1728 
L 755 1728 
C 646 1728 531 1728 531 1600 
C 531 1472 646 1472 755 1472 
L 4218 1472 
z
" transform="scale(0.015625)"/>
      </defs>
      <use xlink:href="#CMSY10-2" transform="scale(0.996264)"/>
      <use xlink:href="#CMR17-31" transform="translate(77.487468 0) scale(0.996264)"/>
      <use xlink:href="#CMR17-30" transform="translate(123.177945 0) scale(0.996264)"/>
      <use xlink:href="#CMSY10-0" transform="translate(168.868422 36.153639) scale(0.697382)"/>
      <use xlink:href="#CMR17-31" transform="translate(223.109415 36.153639) scale(0.697382)"/>
     </g>
    </g>
   </g>
   <g id="line2d_12">
    <path d="M 39.785756 26.039497 
L 41.124956 28.631408 
L 41.794556 29.976787 
L 42.129356 31.303802 
L 42.464156 30.632567 
L 42.798956 30.722935 
L 43.133756 31.901892 
L 43.468556 32.46827 
L 44.138156 33.079781 
L 44.472956 33.856408 
L 44.807756 34.030742 
L 45.142556 34.941575 
L 45.812156 35.624566 
L 46.146956 35.597992 
L 46.481756 35.852808 
L 46.816556 36.572372 
L 47.151356 38.646018 
L 47.486156 39.220031 
L 47.820956 40.457613 
L 48.155756 40.032953 
L 48.490556 40.384365 
L 49.160156 45.595512 
L 49.494956 45.849353 
L 50.164556 53.611173 
L 50.499356 59.943669 
L 50.834156 60.216263 
L 51.168956 66.444744 
L 51.838556 69.913989 
L 52.173356 71.384355 
L 52.508156 70.674174 
L 52.842956 76.446612 
L 53.512556 80.539616 
L 54.516956 88.052451 
L 56.525756 104.95982 
L 58.534556 121.405253 
L 59.538956 128.21053 
L 60.543356 133.499194 
L 61.212956 136.053988 
L 61.547756 137.014257 
L 61.882556 137.465576 
L 63.221756 140.445608 
L 63.556556 141.116941 
L 63.891356 141.34626 
L 64.226156 141.221909 
L 64.895756 142.436724 
L 66.569756 143.66205 
L 66.904556 143.356569 
L 67.239356 143.676947 
L 67.574156 143.625788 
L 67.908956 144.123154 
L 68.243756 143.645256 
L 68.578556 143.776867 
L 68.913356 143.613043 
L 69.248156 143.729425 
L 69.582956 144.089772 
L 70.252556 143.916792 
L 70.922156 144.068536 
L 71.256956 143.758152 
L 71.591756 144.085877 
L 71.926556 143.740831 
L 72.261356 143.974243 
L 72.596156 144.600032 
L 72.930956 144.510635 
L 73.265756 143.983787 
L 73.600556 143.910788 
L 73.935356 144.104153 
L 74.270156 143.939016 
L 74.939756 143.94493 
L 75.274556 144.220844 
L 75.609356 144.335571 
L 76.613756 144.24314 
L 76.948556 143.942685 
L 77.283356 144.35358 
L 77.618156 144.387093 
L 77.952956 144.252635 
L 78.622556 144.755764 
L 78.957356 144.862448 
L 79.292156 144.739029 
L 79.626956 144.442897 
L 79.961756 144.453307 
L 80.631356 144.77803 
L 81.300956 144.93435 
L 81.635756 145.116108 
L 82.305356 144.957093 
L 82.974956 144.984813 
L 83.309756 144.975937 
L 83.644556 145.091875 
L 83.979356 145.090205 
L 84.648956 145.380086 
L 85.318556 145.183365 
L 86.657756 145.748459 
L 86.992556 145.625852 
L 87.327356 145.667591 
L 87.662156 145.281397 
L 89.001356 145.863507 
L 89.336156 145.738242 
L 89.670956 145.939941 
L 90.005756 145.816001 
L 90.340556 145.998546 
L 90.675356 145.904763 
L 91.010156 145.930156 
L 91.679756 145.832263 
L 93.018956 146.28378 
L 93.353756 145.9802 
L 93.688556 146.063023 
L 94.023356 145.962358 
L 95.027756 146.304915 
L 95.362556 146.215492 
L 95.697356 146.585201 
L 96.032156 146.451175 
L 96.366956 146.571747 
L 97.036556 146.414204 
L 98.375756 146.41342 
L 98.710556 146.093597 
L 100.384556 146.73173 
L 101.054156 146.704823 
L 101.388956 146.535739 
L 101.723756 146.519033 
L 102.393356 146.675058 
L 104.067356 147.055667 
L 104.736956 147.019736 
L 105.741356 147.116733 
L 106.076156 146.978077 
L 106.410956 147.037609 
L 106.745756 147.222191 
L 107.415356 147.134898 
L 108.419756 147.217806 
L 108.754556 147.178276 
L 109.758956 147.347192 
L 110.093756 147.268988 
L 111.098156 147.662102 
L 111.432956 147.54386 
L 111.767756 147.673211 
L 112.102556 147.557523 
L 113.441756 147.599698 
L 113.776556 147.550563 
L 114.111356 147.651403 
L 114.446156 147.476315 
L 115.785356 147.682054 
L 116.120156 147.609548 
L 116.789756 147.713803 
L 117.124556 147.6237 
L 117.459356 147.737746 
L 118.463756 147.726002 
L 118.798556 147.527605 
L 120.472556 147.897479 
L 121.476956 148.001252 
L 121.811756 147.847095 
L 123.150956 148.061208 
L 127.168556 148.164471 
L 127.503356 148.08637 
L 128.507756 148.215658 
L 129.177356 148.206955 
L 129.512156 148.29064 
L 130.516556 148.25365 
L 131.520956 148.3154 
L 133.864556 148.476033 
L 134.868956 148.397643 
L 135.873356 148.457193 
L 136.877756 148.449983 
L 137.212556 148.508619 
L 137.547356 148.444838 
L 138.551756 148.516596 
L 139.556156 148.547233 
L 139.890956 148.636928 
L 141.564956 148.554382 
L 142.569356 148.617551 
L 144.243356 148.669898 
L 145.247756 148.722481 
L 145.917356 148.702694 
L 147.256556 148.734514 
L 148.260956 148.73419 
L 161.318156 148.994678 
L 162.992156 148.999847 
L 179.732156 149.259231 
L 181.406156 149.260508 
L 183.749756 149.316066 
L 193.458956 149.404493 
L 197.811356 149.436435 
L 202.498556 149.475271 
L 206.850956 149.502655 
L 206.850956 149.502655 
" clip-path="url(#p192c56cb88)" style="fill: none; stroke: #1f77b4; stroke-width: 1.5; stroke-linecap: square"/>
   </g>
   <g id="line2d_13">
    <path d="M 39.785756 26.303891 
L 40.790156 28.943114 
L 41.124956 29.406628 
L 41.459756 31.579551 
L 41.794556 32.533729 
L 42.129356 33.85984 
L 42.798956 35.74791 
L 43.468556 28.069521 
L 43.803356 29.916826 
L 44.138156 31.134051 
L 44.472956 31.154624 
L 44.807756 33.138683 
L 45.142556 33.4166 
L 45.812156 34.589772 
L 46.146956 34.057624 
L 46.481756 35.79073 
L 46.816556 38.213641 
L 47.151356 33.018216 
L 47.486156 25.477137 
L 47.820956 23.502655 
L 48.155756 25.74893 
L 48.490556 30.757288 
L 48.825356 31.627274 
L 49.160156 34.931761 
L 49.494956 34.994363 
L 49.829756 41.148312 
L 50.834156 43.965074 
L 51.503756 43.795416 
L 51.838556 49.128211 
L 52.173356 52.352761 
L 52.508156 63.274473 
L 53.847356 73.228433 
L 55.186556 84.95123 
L 59.204156 122.402359 
L 59.873756 126.343084 
L 60.543356 128.6861 
L 60.878156 129.946585 
L 61.547756 130.97697 
L 61.882556 131.898267 
L 62.217356 133.776115 
L 62.886956 135.134138 
L 63.221756 135.472253 
L 63.556556 135.652424 
L 64.226156 135.653839 
L 65.900156 135.043123 
L 66.569756 135.104761 
L 66.904556 134.555842 
L 67.239356 134.687559 
L 67.574156 133.784176 
L 67.908956 134.141381 
L 68.243756 134.324263 
L 68.578556 134.66146 
L 69.248156 134.999894 
L 69.582956 134.92469 
L 71.256956 135.767097 
L 71.591756 135.474891 
L 72.930956 136.267554 
L 73.265756 136.853906 
L 73.600556 136.835442 
L 73.935356 136.936282 
L 74.270156 136.785524 
L 76.613756 137.526503 
L 77.618156 137.879528 
L 78.287756 138.017811 
L 78.957356 138.225039 
L 81.970556 139.002031 
L 82.305356 139.815667 
L 83.309756 140.073962 
L 83.979356 140.247264 
L 86.322956 140.866168 
L 87.327356 141.065337 
L 87.996956 141.216447 
L 97.371356 142.899899 
L 98.040956 142.971986 
L 99.380156 143.202744 
L 116.789756 145.12939 
L 118.128956 145.182759 
L 119.468156 145.3488 
L 121.142156 145.498526 
L 122.146556 145.579417 
L 123.820556 145.699033 
L 128.507756 146.028483 
L 130.851356 146.171356 
L 134.534156 146.423709 
L 142.234556 146.791602 
L 144.912956 146.952736 
L 150.269756 147.137721 
L 155.626556 147.368387 
L 159.978956 147.513257 
L 177.388556 147.97399 
L 181.406156 148.073977 
L 184.084556 148.129037 
L 191.784956 148.270924 
L 195.467756 148.332677 
L 205.176956 148.505596 
L 206.850956 148.534243 
L 206.850956 148.534243 
" clip-path="url(#p192c56cb88)" style="fill: none; stroke: #ff7f0e; stroke-width: 1.5; stroke-linecap: square"/>
   </g>
   <g id="line2d_14">
    <path d="M 39.785756 26.614414 
L 41.124956 31.161488 
L 41.794556 33.221755 
L 43.133756 39.471919 
L 44.472956 44.508403 
L 45.812156 50.409929 
L 47.151356 57.362856 
L 48.490556 65.431418 
L 50.164556 77.259976 
L 52.173356 93.491147 
L 54.182156 109.2916 
L 55.186556 115.879935 
L 56.190956 121.098604 
L 56.860556 123.670405 
L 57.530156 125.495087 
L 58.199756 126.634653 
L 58.869356 127.170074 
L 59.538956 127.257385 
L 60.208556 127.019847 
L 61.212956 126.452172 
L 61.882556 126.061359 
L 62.552156 125.723355 
L 63.221756 125.352649 
L 65.900156 125.01585 
L 70.252556 125.592396 
L 70.587356 125.514693 
L 70.922156 125.659848 
L 71.256956 125.562416 
L 71.591756 125.678962 
L 71.926556 125.56927 
L 72.261356 125.09325 
L 72.930956 125.484569 
L 73.600556 125.571469 
L 75.274556 126.190943 
L 77.618156 126.923599 
L 77.952956 125.72263 
L 78.957356 126.412537 
L 79.626956 126.754657 
L 80.631356 127.194025 
L 83.309756 127.865902 
L 83.979356 128.032018 
L 86.322956 128.658963 
L 88.331756 129.080356 
L 88.666556 129.31247 
L 90.005756 129.556232 
L 90.675356 129.720729 
L 91.010156 130.018084 
L 91.344956 130.133269 
L 91.679756 129.250163 
L 93.018956 129.847243 
L 93.353756 129.912766 
L 93.688556 130.643942 
L 96.366956 130.806842 
L 97.371356 131.024217 
L 98.040956 131.100941 
L 99.714956 131.479498 
L 101.723756 131.779298 
L 102.728156 132.017182 
L 105.741356 132.579429 
L 106.745756 132.711654 
L 108.084956 132.962561 
L 109.089356 133.146161 
L 115.115756 134.328468 
L 130.181756 136.700229 
L 131.186156 136.827085 
L 132.525356 137.034285 
L 156.630956 139.922932 
L 157.970156 140.03258 
L 160.313756 140.305424 
L 173.705756 141.576087 
L 175.379756 141.736575 
L 184.084556 142.529928 
L 186.762956 142.735114 
L 188.771756 142.898509 
L 191.115356 143.079384 
L 194.463356 143.362057 
L 195.467756 143.406578 
L 197.476556 143.796466 
L 199.150556 144.148325 
L 206.850956 145.19394 
L 206.850956 145.19394 
" clip-path="url(#p192c56cb88)" style="fill: none; stroke: #2ca02c; stroke-width: 1.5; stroke-linecap: square"/>
   </g>
   <g id="line2d_15">
    <path d="M 39.785756 26.822608 
L 41.124956 32.186417 
L 43.133756 39.023552 
L 45.142556 45.915048 
L 46.481756 51.154742 
L 48.155756 58.704761 
L 49.829756 67.385296 
L 51.503756 77.208287 
L 54.851756 98.734632 
L 56.525756 108.799405 
L 57.864956 115.603579 
L 58.869356 119.725999 
L 59.873756 122.931871 
L 60.878156 125.255073 
L 61.882556 126.80295 
L 62.552156 127.483734 
L 63.556556 128.071039 
L 64.226156 128.27958 
L 65.565356 128.352548 
L 69.582956 127.809831 
L 71.256956 127.619946 
L 78.287756 127.670153 
L 78.957356 127.71786 
L 79.626956 127.758671 
L 80.631356 127.853979 
L 83.979356 128.030878 
L 89.336156 128.533389 
L 90.340556 128.690935 
L 96.032156 129.293739 
L 96.701756 129.378894 
L 97.706156 129.464872 
L 101.388956 129.908255 
L 102.728156 130.062089 
L 106.076156 130.404211 
L 108.754556 130.680227 
L 113.776556 131.305793 
L 115.115756 131.474627 
L 126.498956 132.709581 
L 129.177356 132.996276 
L 134.534156 133.629136 
L 139.890956 134.186912 
L 147.591356 135.043081 
L 149.265356 135.170361 
L 152.278556 135.525177 
L 154.287356 135.778291 
L 155.626556 135.914025 
L 157.635356 136.050004 
L 159.644156 136.306313 
L 201.159356 140.214866 
L 202.163756 140.287523 
L 205.176956 140.53733 
L 206.850956 140.651744 
L 206.850956 140.651744 
" clip-path="url(#p192c56cb88)" style="fill: none; stroke: #d62728; stroke-width: 1.5; stroke-linecap: square"/>
   </g>
   <g id="patch_3">
    <path d="M 39.785756 155.802655 
L 39.785756 17.202655 
" style="fill: none; stroke: #000000; stroke-width: 0.8; stroke-linejoin: miter; stroke-linecap: square"/>
   </g>
   <g id="patch_4">
    <path d="M 207.185756 155.802655 
L 207.185756 17.202655 
" style="fill: none; stroke: #000000; stroke-width: 0.8; stroke-linejoin: miter; stroke-linecap: square"/>
   </g>
   <g id="patch_5">
    <path d="M 39.785756 155.802655 
L 207.185756 155.802655 
" style="fill: none; stroke: #000000; stroke-width: 0.8; stroke-linejoin: miter; stroke-linecap: square"/>
   </g>
   <g id="patch_6">
    <path d="M 39.785756 17.202655 
L 207.185756 17.202655 
" style="fill: none; stroke: #000000; stroke-width: 0.8; stroke-linejoin: miter; stroke-linecap: square"/>
   </g>
   <g id="legend_1">
    <g id="patch_7">
     <path d="M 135.762269 80.951369 
L 200.185756 80.951369 
Q 202.185756 80.951369 202.185756 78.951369 
L 202.185756 24.202655 
Q 202.185756 22.202655 200.185756 22.202655 
L 135.762269 22.202655 
Q 133.762269 22.202655 133.762269 24.202655 
L 133.762269 78.951369 
Q 133.762269 80.951369 135.762269 80.951369 
z
" style="fill: #ffffff; opacity: 0.8; stroke: #cccccc; stroke-linejoin: miter"/>
    </g>
    <g id="line2d_16">
     <path d="M 137.762269 29.702655 
L 147.762269 29.702655 
L 157.762269 29.702655 
" style="fill: none; stroke: #1f77b4; stroke-width: 1.5; stroke-linecap: square"/>
    </g>
    <g id="text_16">
     <!-- $\alpha=0.7$ -->
     <g transform="translate(165.762269 33.202655) scale(0.1 -0.1)">
      <defs>
       <path id="CMMI12-b" d="M 2963 1615 
C 2963 2234 2611 2816 1933 2816 
C 1094 2816 256 1902 256 996 
C 256 440 602 -64 1254 -64 
C 1651 -64 2125 89 2579 472 
C 2669 115 2867 -64 3142 -64 
C 3488 -64 3661 293 3661 376 
C 3661 434 3616 434 3597 434 
C 3546 434 3539 415 3520 364 
C 3462 204 3315 64 3162 64 
C 2963 64 2963 472 2963 862 
C 3616 1641 3770 2445 3770 2451 
C 3770 2509 3718 2509 3699 2509 
C 3642 2509 3635 2490 3610 2375 
C 3526 2094 3360 1596 2963 1072 
L 2963 1615 
z
M 2560 625 
C 1997 121 1491 64 1267 64 
C 813 64 685 466 685 766 
C 685 1040 826 1692 1024 2043 
C 1286 2490 1645 2687 1933 2687 
C 2554 2687 2554 1877 2554 1340 
C 2554 1181 2547 1015 2547 855 
C 2547 728 2554 696 2560 625 
z
" transform="scale(0.015625)"/>
       <path id="CMR17-3d" d="M 4115 2048 
C 4211 2048 4307 2048 4307 2156 
C 4307 2272 4198 2272 4090 2272 
L 512 2272 
C 403 2272 294 2272 294 2156 
C 294 2048 390 2048 486 2048 
L 4115 2048 
z
M 4090 927 
C 4198 927 4307 927 4307 1043 
C 4307 1152 4211 1152 4115 1152 
L 486 1152 
C 390 1152 294 1152 294 1043 
C 294 927 403 927 512 927 
L 4090 927 
z
" transform="scale(0.015625)"/>
       <path id="CMR17-37" d="M 2886 3955 
L 2886 4096 
L 1382 4096 
C 634 4096 621 4166 595 4288 
L 480 4288 
L 294 3104 
L 410 3104 
C 429 3226 474 3552 550 3673 
C 589 3724 1062 3724 1171 3724 
L 2579 3724 
L 1869 2670 
C 1395 1961 1069 1003 1069 166 
C 1069 89 1069 -128 1299 -128 
C 1530 -128 1530 89 1530 172 
L 1530 466 
C 1530 1514 1709 2204 2003 2644 
L 2886 3955 
z
" transform="scale(0.015625)"/>
      </defs>
      <use xlink:href="#CMMI12-b" transform="scale(0.996264)"/>
      <use xlink:href="#CMR17-3d" transform="translate(90.355032 0) scale(0.996264)"/>
      <use xlink:href="#CMR17-30" transform="translate(189.743829 0) scale(0.996264)"/>
      <use xlink:href="#CMMI12-3a" transform="translate(235.434306 0) scale(0.996264)"/>
      <use xlink:href="#CMR17-37" transform="translate(262.531483 0) scale(0.996264)"/>
     </g>
    </g>
    <g id="line2d_17">
     <path d="M 137.762269 43.639834 
L 147.762269 43.639834 
L 157.762269 43.639834 
" style="fill: none; stroke: #ff7f0e; stroke-width: 1.5; stroke-linecap: square"/>
    </g>
    <g id="text_17">
     <!-- $\alpha=0.8$ -->
     <g transform="translate(165.762269 47.139834) scale(0.1 -0.1)">
      <use xlink:href="#CMMI12-b" transform="scale(0.996264)"/>
      <use xlink:href="#CMR17-3d" transform="translate(90.355032 0) scale(0.996264)"/>
      <use xlink:href="#CMR17-30" transform="translate(189.743829 0) scale(0.996264)"/>
      <use xlink:href="#CMMI12-3a" transform="translate(235.434306 0) scale(0.996264)"/>
      <use xlink:href="#CMR17-38" transform="translate(262.531483 0) scale(0.996264)"/>
     </g>
    </g>
    <g id="line2d_18">
     <path d="M 137.762269 57.577012 
L 147.762269 57.577012 
L 157.762269 57.577012 
" style="fill: none; stroke: #2ca02c; stroke-width: 1.5; stroke-linecap: square"/>
    </g>
    <g id="text_18">
     <!-- $\alpha=0.9$ -->
     <g transform="translate(165.762269 61.077012) scale(0.1 -0.1)">
      <defs>
       <path id="CMR17-39" d="M 2253 1871 
C 2253 448 1670 25 1190 25 
C 1043 25 685 43 538 281 
C 704 256 826 345 826 505 
C 826 678 685 736 595 736 
C 538 736 365 710 365 492 
C 365 68 742 -128 1203 -128 
C 1939 -128 2688 665 2688 2090 
C 2688 3857 1971 4224 1485 4224 
C 851 4224 243 3664 243 2800 
C 243 2000 762 1408 1414 1408 
C 1952 1408 2189 1910 2253 2122 
L 2253 1871 
z
M 1427 1510 
C 1254 1510 1011 1542 813 1929 
C 678 2181 678 2477 678 2793 
C 678 3174 678 3438 858 3722 
C 947 3857 1114 4076 1485 4076 
C 2240 4076 2240 2909 2240 2651 
C 2240 2193 2035 1510 1427 1510 
z
" transform="scale(0.015625)"/>
      </defs>
      <use xlink:href="#CMMI12-b" transform="scale(0.996264)"/>
      <use xlink:href="#CMR17-3d" transform="translate(90.355032 0) scale(0.996264)"/>
      <use xlink:href="#CMR17-30" transform="translate(189.743829 0) scale(0.996264)"/>
      <use xlink:href="#CMMI12-3a" transform="translate(235.434306 0) scale(0.996264)"/>
      <use xlink:href="#CMR17-39" transform="translate(262.531483 0) scale(0.996264)"/>
     </g>
    </g>
    <g id="line2d_19">
     <path d="M 137.762269 71.51419 
L 147.762269 71.51419 
L 157.762269 71.51419 
" style="fill: none; stroke: #d62728; stroke-width: 1.5; stroke-linecap: square"/>
    </g>
    <g id="text_19">
     <!-- $\alpha=1.0$ -->
     <g transform="translate(165.762269 75.01419) scale(0.1 -0.1)">
      <use xlink:href="#CMMI12-b" transform="scale(0.996264)"/>
      <use xlink:href="#CMR17-3d" transform="translate(90.355032 0) scale(0.996264)"/>
      <use xlink:href="#CMR17-31" transform="translate(189.743829 0) scale(0.996264)"/>
      <use xlink:href="#CMMI12-3a" transform="translate(235.434306 0) scale(0.996264)"/>
      <use xlink:href="#CMR17-30" transform="translate(262.531483 0) scale(0.996264)"/>
     </g>
    </g>
   </g>
  </g>
 </g>
 <defs>
  <clipPath id="p192c56cb88">
   <rect x="39.785756" y="17.202655" width="167.4" height="138.6"/>
  </clipPath>
 </defs>
</svg>
