<?xml version="1.0" encoding="utf-8" standalone="no"?>
<!DOCTYPE svg PUBLIC "-//W3C//DTD SVG 1.1//EN"
  "http://www.w3.org/Graphics/SVG/1.1/DTD/svg11.dtd">
<svg xmlns:xlink="http://www.w3.org/1999/xlink" width="221.857759pt" height="185.170603pt" viewBox="0 0 221.857759 185.170603" xmlns="http://www.w3.org/2000/svg" version="1.1">
 <metadata>
  <rdf:RDF xmlns:dc="http://purl.org/dc/elements/1.1/" xmlns:cc="http://creativecommons.org/ns#" xmlns:rdf="http://www.w3.org/1999/02/22-rdf-syntax-ns#">
   <cc:Work>
    <dc:type rdf:resource="http://purl.org/dc/dcmitype/StillImage"/>
    <dc:date>2025-06-02T19:54:13.064470</dc:date>
    <dc:format>image/svg+xml</dc:format>
    <dc:creator>
     <cc:Agent>
      <dc:title>Matplotlib v3.9.2, https://matplotlib.org/</dc:title>
     </cc:Agent>
    </dc:creator>
   </cc:Work>
  </rdf:RDF>
 </metadata>
 <defs>
  <style type="text/css">*{stroke-linejoin: round; stroke-linecap: butt}</style>
 </defs>
 <g id="figure_1">
  <g id="patch_1">
   <path d="M 0 185.170603 
L 221.857759 185.170603 
L 221.857759 -0 
L 0 -0 
z
" style="fill: #ffffff"/>
  </g>
  <g id="axes_1">
   <g id="patch_2">
    <path d="M 44.767091 149.259249 
L 212.167091 149.259249 
L 212.167091 10.659249 
L 44.767091 10.659249 
z
" style="fill: #ffffff"/>
   </g>
   <g id="matplotlib.axis_1">
    <g id="xtick_1">
     <g id="line2d_1">
      <defs>
       <path id="m0181f63381" d="M 0 0 
L 0 3.5 
" style="stroke: #000000; stroke-width: 0.8"/>
      </defs>
      <g>
       <use xlink:href="#m0181f63381" x="44.767091" y="149.259249" style="stroke: #000000; stroke-width: 0.8"/>
      </g>
     </g>
     <g id="text_1">
      <!-- $\mathdefault{0}$ -->
      <g transform="translate(42.276423 163.177748) scale(0.1 -0.1)">
       <defs>
        <path id="CMR17-30" d="M 2688 2038 
C 2688 2430 2682 3099 2413 3613 
C 2176 4063 1798 4224 1466 4224 
C 1158 4224 768 4082 525 3620 
C 269 3137 243 2539 243 2038 
C 243 1671 250 1112 448 623 
C 723 -39 1216 -128 1466 -128 
C 1760 -128 2208 -7 2470 604 
C 2662 1048 2688 1568 2688 2038 
z
M 1466 -26 
C 1056 -26 813 328 723 816 
C 653 1196 653 1749 653 2109 
C 653 2604 653 3015 736 3407 
C 858 3954 1216 4121 1466 4121 
C 1728 4121 2067 3947 2189 3420 
C 2272 3054 2278 2623 2278 2109 
C 2278 1691 2278 1176 2202 797 
C 2067 96 1690 -26 1466 -26 
z
" transform="scale(0.015625)"/>
       </defs>
       <use xlink:href="#CMR17-30" transform="scale(0.996264)"/>
      </g>
     </g>
    </g>
    <g id="xtick_2">
     <g id="line2d_2">
      <g>
       <use xlink:href="#m0181f63381" x="78.247091" y="149.259249" style="stroke: #000000; stroke-width: 0.8"/>
      </g>
     </g>
     <g id="text_2">
      <!-- $\mathdefault{1}$ -->
      <g transform="translate(75.756423 163.177748) scale(0.1 -0.1)">
       <defs>
        <path id="CMR17-31" d="M 1702 4083 
C 1702 4217 1696 4224 1606 4224 
C 1357 3927 979 3833 621 3820 
C 602 3820 570 3820 563 3808 
C 557 3795 557 3782 557 3648 
C 755 3648 1088 3686 1344 3839 
L 1344 467 
C 1344 243 1331 166 781 166 
L 589 166 
L 589 0 
C 896 6 1216 12 1523 12 
C 1830 12 2150 6 2458 0 
L 2458 166 
L 2266 166 
C 1715 166 1702 236 1702 467 
L 1702 4083 
z
" transform="scale(0.015625)"/>
       </defs>
       <use xlink:href="#CMR17-31" transform="scale(0.996264)"/>
      </g>
     </g>
    </g>
    <g id="xtick_3">
     <g id="line2d_3">
      <g>
       <use xlink:href="#m0181f63381" x="111.727091" y="149.259249" style="stroke: #000000; stroke-width: 0.8"/>
      </g>
     </g>
     <g id="text_3">
      <!-- $\mathdefault{2}$ -->
      <g transform="translate(109.236423 163.177748) scale(0.1 -0.1)">
       <defs>
        <path id="CMR17-32" d="M 2669 990 
L 2554 990 
C 2490 537 2438 460 2413 422 
C 2381 371 1920 371 1830 371 
L 602 371 
C 832 620 1280 1073 1824 1596 
C 2214 1966 2669 2400 2669 3033 
C 2669 3788 2067 4224 1395 4224 
C 691 4224 262 3603 262 3027 
C 262 2777 448 2745 525 2745 
C 589 2745 781 2783 781 3007 
C 781 3206 614 3264 525 3264 
C 486 3264 448 3257 422 3244 
C 544 3788 915 4057 1306 4057 
C 1862 4057 2227 3616 2227 3033 
C 2227 2477 1901 1998 1536 1583 
L 262 147 
L 262 0 
L 2515 0 
L 2669 990 
z
" transform="scale(0.015625)"/>
       </defs>
       <use xlink:href="#CMR17-32" transform="scale(0.996264)"/>
      </g>
     </g>
    </g>
    <g id="xtick_4">
     <g id="line2d_4">
      <g>
       <use xlink:href="#m0181f63381" x="145.207091" y="149.259249" style="stroke: #000000; stroke-width: 0.8"/>
      </g>
     </g>
     <g id="text_4">
      <!-- $\mathdefault{3}$ -->
      <g transform="translate(142.716423 163.177748) scale(0.1 -0.1)">
       <defs>
        <path id="CMR17-33" d="M 1414 2176 
C 1984 2176 2234 1673 2234 1094 
C 2234 322 1824 25 1453 25 
C 1114 25 563 193 390 691 
C 422 678 454 678 486 678 
C 640 678 755 780 755 947 
C 755 1132 614 1216 486 1216 
C 378 1216 211 1164 211 927 
C 211 335 787 -128 1466 -128 
C 2176 -128 2720 432 2720 1087 
C 2720 1718 2208 2176 1600 2246 
C 2086 2347 2554 2776 2554 3353 
C 2554 3856 2048 4224 1472 4224 
C 890 4224 378 3862 378 3347 
C 378 3123 544 3084 627 3084 
C 762 3084 877 3167 877 3334 
C 877 3500 762 3584 627 3584 
C 602 3584 570 3584 544 3571 
C 730 3999 1235 4076 1459 4076 
C 1683 4076 2106 3966 2106 3347 
C 2106 3167 2080 2851 1862 2574 
C 1670 2329 1453 2316 1242 2297 
C 1210 2297 1062 2284 1037 2284 
C 992 2278 966 2272 966 2227 
C 966 2182 973 2176 1101 2176 
L 1414 2176 
z
" transform="scale(0.015625)"/>
       </defs>
       <use xlink:href="#CMR17-33" transform="scale(0.996264)"/>
      </g>
     </g>
    </g>
    <g id="xtick_5">
     <g id="line2d_5">
      <g>
       <use xlink:href="#m0181f63381" x="178.687091" y="149.259249" style="stroke: #000000; stroke-width: 0.8"/>
      </g>
     </g>
     <g id="text_5">
      <!-- $\mathdefault{4}$ -->
      <g transform="translate(176.196423 163.177748) scale(0.1 -0.1)">
       <defs>
        <path id="CMR17-34" d="M 2150 4147 
C 2150 4281 2144 4288 2029 4288 
L 128 1254 
L 128 1088 
L 1779 1088 
L 1779 460 
C 1779 230 1766 166 1318 166 
L 1197 166 
L 1197 0 
C 1402 12 1747 12 1965 12 
C 2182 12 2528 12 2733 0 
L 2733 166 
L 2611 166 
C 2163 166 2150 230 2150 460 
L 2150 1088 
L 2803 1088 
L 2803 1254 
L 2150 1254 
L 2150 4147 
z
M 1798 3723 
L 1798 1254 
L 256 1254 
L 1798 3723 
z
" transform="scale(0.015625)"/>
       </defs>
       <use xlink:href="#CMR17-34" transform="scale(0.996264)"/>
      </g>
     </g>
    </g>
    <g id="xtick_6">
     <g id="line2d_6">
      <g>
       <use xlink:href="#m0181f63381" x="212.167091" y="149.259249" style="stroke: #000000; stroke-width: 0.8"/>
      </g>
     </g>
     <g id="text_6">
      <!-- $\mathdefault{5}$ -->
      <g transform="translate(209.676423 163.177748) scale(0.1 -0.1)">
       <defs>
        <path id="CMR17-35" d="M 730 3750 
C 794 3724 1056 3641 1325 3641 
C 1920 3641 2246 3961 2432 4140 
C 2432 4191 2432 4224 2394 4224 
C 2387 4224 2374 4224 2323 4198 
C 2099 4102 1837 4032 1517 4032 
C 1325 4032 1037 4055 723 4191 
C 653 4224 640 4224 634 4224 
C 602 4224 595 4217 595 4090 
L 595 2231 
C 595 2113 595 2080 659 2080 
C 691 2080 704 2093 736 2139 
C 941 2435 1222 2560 1542 2560 
C 1766 2560 2246 2415 2246 1293 
C 2246 1087 2246 716 2054 422 
C 1894 159 1645 25 1370 25 
C 947 25 518 319 403 812 
C 429 806 480 793 506 793 
C 589 793 749 838 749 1036 
C 749 1209 627 1280 506 1280 
C 358 1280 262 1190 262 1011 
C 262 454 704 -128 1382 -128 
C 2042 -128 2669 441 2669 1267 
C 2669 2054 2170 2662 1549 2662 
C 1222 2662 947 2540 730 2304 
L 730 3750 
z
" transform="scale(0.015625)"/>
       </defs>
       <use xlink:href="#CMR17-35" transform="scale(0.996264)"/>
      </g>
     </g>
    </g>
    <g id="text_7">
     <!-- $Epoch$ -->
     <g transform="translate(114.55629 176.033424) scale(0.1 -0.1)">
      <defs>
       <path id="CMMI12-45" d="M 4448 1489 
C 4454 1508 4474 1553 4474 1578 
C 4474 1611 4448 1643 4410 1643 
C 4384 1643 4371 1636 4352 1617 
C 4339 1611 4339 1598 4282 1469 
C 3904 570 3629 185 2605 185 
L 1670 185 
C 1581 185 1568 185 1530 192 
C 1459 198 1453 211 1453 262 
C 1453 307 1466 346 1478 403 
L 1920 2176 
L 2554 2176 
C 3053 2176 3091 2066 3091 1874 
C 3091 1810 3091 1752 3046 1559 
C 3034 1534 3027 1508 3027 1489 
C 3027 1444 3059 1424 3098 1424 
C 3155 1424 3162 1469 3187 1559 
L 3552 3036 
C 3552 3068 3526 3099 3488 3099 
C 3430 3099 3424 3074 3398 2986 
C 3270 2500 3142 2361 2573 2361 
L 1965 2361 
L 2362 3913 
C 2419 4134 2432 4153 2694 4153 
L 3610 4153 
C 4397 4153 4557 3945 4557 3465 
C 4557 3459 4557 3282 4531 3074 
C 4525 3049 4518 3011 4518 2998 
C 4518 2948 4550 2929 4589 2929 
C 4634 2929 4659 2954 4672 3068 
L 4806 4172 
C 4806 4191 4819 4255 4819 4268 
C 4819 4339 4762 4339 4646 4339 
L 1523 4339 
C 1402 4339 1338 4339 1338 4223 
C 1338 4153 1382 4153 1491 4153 
C 1888 4153 1888 4109 1888 4039 
C 1888 4008 1882 3983 1862 3913 
L 998 474 
C 941 249 928 185 480 185 
C 358 185 294 185 294 70 
C 294 0 333 0 461 0 
L 3674 0 
C 3814 0 3821 6 3866 108 
L 4448 1489 
z
" transform="scale(0.015625)"/>
       <path id="CMMI12-70" d="M 275 -794 
C 230 -981 205 -1031 -58 -1031 
C -135 -1031 -199 -1031 -199 -1152 
C -199 -1165 -192 -1216 -122 -1216 
C -39 -1216 51 -1204 134 -1204 
L 410 -1204 
C 544 -1204 870 -1216 1005 -1216 
C 1043 -1216 1120 -1216 1120 -1101 
C 1120 -1031 1075 -1031 966 -1031 
C 672 -1031 653 -987 653 -937 
C 653 -863 941 217 979 364 
C 1050 185 1222 -64 1555 -64 
C 2278 -64 3059 874 3059 1813 
C 3059 2400 2726 2816 2246 2816 
C 1837 2816 1491 2419 1421 2330 
C 1370 2649 1120 2816 864 2816 
C 678 2816 531 2726 410 2483 
C 294 2253 205 1864 205 1838 
C 205 1813 230 1781 275 1781 
C 326 1781 333 1787 371 1934 
C 467 2311 589 2687 845 2687 
C 992 2687 1043 2585 1043 2394 
C 1043 2241 1024 2177 998 2062 
L 275 -794 
z
M 1382 1992 
C 1427 2170 1606 2356 1709 2445 
C 1779 2509 1990 2687 2234 2687 
C 2515 2687 2643 2407 2643 2075 
C 2643 1768 2464 1047 2304 715 
C 2144 370 1850 64 1555 64 
C 1120 64 1050 613 1050 638 
C 1050 657 1062 708 1069 740 
L 1382 1992 
z
" transform="scale(0.015625)"/>
       <path id="CMMI12-6f" d="M 2918 1755 
C 2918 2362 2522 2816 1939 2816 
C 1094 2816 262 1896 262 996 
C 262 389 659 -64 1242 -64 
C 2093 -64 2918 855 2918 1755 
z
M 1248 64 
C 928 64 691 319 691 766 
C 691 1060 845 1711 1024 2030 
C 1312 2522 1670 2687 1933 2687 
C 2246 2687 2490 2432 2490 1985 
C 2490 1730 2355 1047 2112 657 
C 1850 230 1498 64 1248 64 
z
" transform="scale(0.015625)"/>
       <path id="CMMI12-63" d="M 2502 2432 
C 2381 2432 2323 2432 2234 2355 
C 2195 2323 2125 2227 2125 2124 
C 2125 1996 2221 1919 2342 1919 
C 2496 1919 2669 2047 2669 2303 
C 2669 2591 2374 2816 1933 2816 
C 1094 2816 256 1932 256 1011 
C 256 446 602 -64 1254 -64 
C 2125 -64 2675 622 2675 706 
C 2675 745 2637 777 2611 777 
C 2592 777 2586 771 2528 712 
C 2118 161 1510 64 1267 64 
C 826 64 685 453 685 777 
C 685 1004 794 1634 1024 2073 
C 1190 2374 1536 2687 1939 2687 
C 2022 2687 2374 2676 2502 2432 
z
" transform="scale(0.015625)"/>
       <path id="CMMI12-68" d="M 1798 4255 
C 1805 4281 1818 4319 1818 4351 
C 1818 4416 1754 4416 1741 4416 
C 1734 4416 1421 4390 1389 4383 
C 1280 4377 1184 4364 1069 4358 
C 909 4345 864 4339 864 4223 
C 864 4159 915 4159 1005 4159 
C 1318 4159 1325 4103 1325 4040 
C 1325 4002 1312 3951 1306 3932 
L 378 249 
C 352 153 352 140 352 102 
C 352 -39 461 -64 525 -64 
C 634 -64 717 19 749 89 
L 1037 1245 
C 1069 1385 1107 1519 1139 1660 
C 1210 1928 1210 1934 1331 2119 
C 1453 2305 1741 2687 2234 2687 
C 2490 2687 2579 2496 2579 2241 
C 2579 1883 2330 1187 2189 804 
C 2131 651 2099 568 2099 453 
C 2099 166 2298 -64 2605 -64 
C 3200 -64 3424 874 3424 913 
C 3424 945 3398 970 3360 970 
C 3302 970 3296 951 3264 842 
C 3117 332 2880 64 2624 64 
C 2560 64 2458 70 2458 274 
C 2458 440 2534 645 2560 715 
C 2675 1021 2963 1775 2963 2145 
C 2963 2528 2739 2816 2253 2816 
C 1888 2816 1568 2643 1306 2311 
L 1798 4255 
z
" transform="scale(0.015625)"/>
      </defs>
      <use xlink:href="#CMMI12-45" transform="scale(0.996264)"/>
      <use xlink:href="#CMMI12-70" transform="translate(78.051636 0) scale(0.996264)"/>
      <use xlink:href="#CMMI12-6f" transform="translate(127.01115 0) scale(0.996264)"/>
      <use xlink:href="#CMMI12-63" transform="translate(173.90646 0) scale(0.996264)"/>
      <use xlink:href="#CMMI12-68" transform="translate(215.889693 0) scale(0.996264)"/>
     </g>
    </g>
    <g id="text_8">
     <!-- $\times\mathdefault{10^{2}}\mathdefault{}$ -->
     <g transform="translate(190.484439 175.117581) scale(0.1 -0.1)">
      <defs>
       <path id="CMSY10-2" d="M 2490 1775 
L 1210 3046 
C 1133 3123 1120 3136 1069 3136 
C 1005 3136 941 3078 941 3008 
C 941 2963 954 2950 1024 2880 
L 2304 1596 
L 1024 313 
C 954 243 941 230 941 185 
C 941 115 1005 57 1069 57 
C 1120 57 1133 70 1210 147 
L 2483 1418 
L 3808 95 
C 3821 89 3866 57 3904 57 
C 3981 57 4032 115 4032 185 
C 4032 198 4032 223 4013 255 
C 4006 268 2989 1271 2669 1596 
L 3840 2765 
C 3872 2803 3968 2886 4000 2925 
C 4006 2937 4032 2963 4032 3008 
C 4032 3078 3981 3136 3904 3136 
C 3853 3136 3827 3110 3757 3040 
L 2490 1775 
z
" transform="scale(0.015625)"/>
      </defs>
      <use xlink:href="#CMSY10-2" transform="scale(0.996264)"/>
      <use xlink:href="#CMR17-31" transform="translate(77.487468 0) scale(0.996264)"/>
      <use xlink:href="#CMR17-30" transform="translate(123.177945 0) scale(0.996264)"/>
      <use xlink:href="#CMR17-32" transform="translate(168.868422 36.153639) scale(0.697382)"/>
     </g>
    </g>
   </g>
   <g id="matplotlib.axis_2">
    <g id="ytick_1">
     <g id="line2d_7">
      <defs>
       <path id="md43d805f5f" d="M 0 0 
L -3.5 0 
" style="stroke: #000000; stroke-width: 0.8"/>
      </defs>
      <g>
       <use xlink:href="#md43d805f5f" x="44.767091" y="130.142008" style="stroke: #000000; stroke-width: 0.8"/>
      </g>
     </g>
     <g id="text_9">
      <!-- $\mathdefault{0.75}$ -->
      <g transform="translate(20.055677 133.601257) scale(0.1 -0.1)">
       <defs>
        <path id="CMMI12-3a" d="M 1178 307 
C 1178 492 1024 620 870 620 
C 685 620 557 467 557 313 
C 557 128 710 0 864 0 
C 1050 0 1178 153 1178 307 
z
" transform="scale(0.015625)"/>
        <path id="CMR17-37" d="M 2886 3955 
L 2886 4096 
L 1382 4096 
C 634 4096 621 4166 595 4288 
L 480 4288 
L 294 3104 
L 410 3104 
C 429 3226 474 3552 550 3673 
C 589 3724 1062 3724 1171 3724 
L 2579 3724 
L 1869 2670 
C 1395 1961 1069 1003 1069 166 
C 1069 89 1069 -128 1299 -128 
C 1530 -128 1530 89 1530 172 
L 1530 466 
C 1530 1514 1709 2204 2003 2644 
L 2886 3955 
z
" transform="scale(0.015625)"/>
       </defs>
       <use xlink:href="#CMR17-30" transform="scale(0.996264)"/>
       <use xlink:href="#CMMI12-3a" transform="translate(45.690477 0) scale(0.996264)"/>
       <use xlink:href="#CMR17-37" transform="translate(72.787654 0) scale(0.996264)"/>
       <use xlink:href="#CMR17-35" transform="translate(118.478131 0) scale(0.996264)"/>
      </g>
     </g>
    </g>
    <g id="ytick_2">
     <g id="line2d_8">
      <g>
       <use xlink:href="#md43d805f5f" x="44.767091" y="106.245456" style="stroke: #000000; stroke-width: 0.8"/>
      </g>
     </g>
     <g id="text_10">
      <!-- $\mathdefault{1.00}$ -->
      <g transform="translate(20.055677 109.704705) scale(0.1 -0.1)">
       <use xlink:href="#CMR17-31" transform="scale(0.996264)"/>
       <use xlink:href="#CMMI12-3a" transform="translate(45.690477 0) scale(0.996264)"/>
       <use xlink:href="#CMR17-30" transform="translate(72.787654 0) scale(0.996264)"/>
       <use xlink:href="#CMR17-30" transform="translate(118.478131 0) scale(0.996264)"/>
      </g>
     </g>
    </g>
    <g id="ytick_3">
     <g id="line2d_9">
      <g>
       <use xlink:href="#md43d805f5f" x="44.767091" y="82.348904" style="stroke: #000000; stroke-width: 0.8"/>
      </g>
     </g>
     <g id="text_11">
      <!-- $\mathdefault{1.25}$ -->
      <g transform="translate(20.055677 85.808154) scale(0.1 -0.1)">
       <use xlink:href="#CMR17-31" transform="scale(0.996264)"/>
       <use xlink:href="#CMMI12-3a" transform="translate(45.690477 0) scale(0.996264)"/>
       <use xlink:href="#CMR17-32" transform="translate(72.787654 0) scale(0.996264)"/>
       <use xlink:href="#CMR17-35" transform="translate(118.478131 0) scale(0.996264)"/>
      </g>
     </g>
    </g>
    <g id="ytick_4">
     <g id="line2d_10">
      <g>
       <use xlink:href="#md43d805f5f" x="44.767091" y="58.452353" style="stroke: #000000; stroke-width: 0.8"/>
      </g>
     </g>
     <g id="text_12">
      <!-- $\mathdefault{1.50}$ -->
      <g transform="translate(20.055677 61.911602) scale(0.1 -0.1)">
       <use xlink:href="#CMR17-31" transform="scale(0.996264)"/>
       <use xlink:href="#CMMI12-3a" transform="translate(45.690477 0) scale(0.996264)"/>
       <use xlink:href="#CMR17-35" transform="translate(72.787654 0) scale(0.996264)"/>
       <use xlink:href="#CMR17-30" transform="translate(118.478131 0) scale(0.996264)"/>
      </g>
     </g>
    </g>
    <g id="ytick_5">
     <g id="line2d_11">
      <g>
       <use xlink:href="#md43d805f5f" x="44.767091" y="34.555801" style="stroke: #000000; stroke-width: 0.8"/>
      </g>
     </g>
     <g id="text_13">
      <!-- $\mathdefault{1.75}$ -->
      <g transform="translate(20.055677 38.01505) scale(0.1 -0.1)">
       <use xlink:href="#CMR17-31" transform="scale(0.996264)"/>
       <use xlink:href="#CMMI12-3a" transform="translate(45.690477 0) scale(0.996264)"/>
       <use xlink:href="#CMR17-37" transform="translate(72.787654 0) scale(0.996264)"/>
       <use xlink:href="#CMR17-35" transform="translate(118.478131 0) scale(0.996264)"/>
      </g>
     </g>
    </g>
    <g id="ytick_6">
     <g id="line2d_12">
      <g>
       <use xlink:href="#md43d805f5f" x="44.767091" y="10.659249" style="stroke: #000000; stroke-width: 0.8"/>
      </g>
     </g>
     <g id="text_14">
      <!-- $\mathdefault{2.00}$ -->
      <g transform="translate(20.055677 14.118498) scale(0.1 -0.1)">
       <use xlink:href="#CMR17-32" transform="scale(0.996264)"/>
       <use xlink:href="#CMMI12-3a" transform="translate(45.690477 0) scale(0.996264)"/>
       <use xlink:href="#CMR17-30" transform="translate(72.787654 0) scale(0.996264)"/>
       <use xlink:href="#CMR17-30" transform="translate(118.478131 0) scale(0.996264)"/>
      </g>
     </g>
    </g>
    <g id="text_15">
     <!-- $Loss$ -->
     <g transform="translate(14.118498 90.43387) rotate(-90) scale(0.1 -0.1)">
      <defs>
       <path id="CMMI12-4c" d="M 2349 3860 
C 2406 4102 2426 4166 2989 4166 
C 3162 4166 3206 4166 3206 4287 
C 3206 4352 3136 4352 3110 4352 
C 2982 4352 2835 4339 2707 4339 
L 1850 4339 
C 1728 4339 1587 4352 1466 4352 
C 1414 4352 1344 4352 1344 4230 
C 1344 4166 1402 4166 1498 4166 
C 1888 4166 1888 4115 1888 4045 
C 1888 4032 1888 3994 1862 3898 
L 998 472 
C 941 249 928 185 480 185 
C 358 185 294 185 294 70 
C 294 0 333 0 461 0 
L 3328 0 
C 3469 0 3475 6 3520 121 
L 4013 1478 
C 4026 1510 4038 1548 4038 1567 
C 4038 1605 4006 1631 3974 1631 
C 3968 1631 3936 1631 3923 1605 
C 3910 1599 3910 1586 3859 1465 
C 3654 905 3366 185 2285 185 
L 1670 185 
C 1581 185 1568 185 1530 191 
C 1459 198 1453 211 1453 262 
C 1453 306 1466 344 1478 402 
L 2349 3860 
z
" transform="scale(0.015625)"/>
       <path id="CMMI12-73" d="M 1459 1290 
C 1568 1271 1741 1233 1779 1227 
C 1862 1201 2150 1099 2150 793 
C 2150 595 1971 64 1229 64 
C 1094 64 614 83 486 447 
C 742 414 870 614 870 755 
C 870 889 781 960 653 960 
C 512 960 326 851 326 563 
C 326 176 710 -64 1222 -64 
C 2195 -64 2483 665 2483 998 
C 2483 1093 2483 1271 2278 1475 
C 2118 1627 1965 1659 1619 1729 
C 1446 1767 1171 1824 1171 2111 
C 1171 2239 1286 2687 1894 2687 
C 2163 2687 2426 2589 2490 2368 
C 2208 2368 2195 2124 2195 2118 
C 2195 1983 2317 1945 2374 1945 
C 2464 1945 2643 2015 2643 2284 
C 2643 2546 2400 2816 1901 2816 
C 1062 2816 838 2169 838 1907 
C 838 1424 1312 1322 1459 1290 
z
" transform="scale(0.015625)"/>
      </defs>
      <use xlink:href="#CMMI12-4c" transform="scale(0.996264)"/>
      <use xlink:href="#CMMI12-6f" transform="translate(66.370875 0) scale(0.996264)"/>
      <use xlink:href="#CMMI12-73" transform="translate(113.266185 0) scale(0.996264)"/>
      <use xlink:href="#CMMI12-73" transform="translate(159.216233 0) scale(0.996264)"/>
     </g>
    </g>
   </g>
   <g id="line2d_13">
    <path d="M 67.573224 -1 
L 68.203091 12.218714 
L 68.537891 17.411456 
L 68.872691 26.765463 
L 69.207491 40.008321 
L 69.877091 55.093643 
L 70.211891 69.698278 
L 71.216291 76.810719 
L 71.551091 77.37313 
L 71.885891 79.841874 
L 72.220691 81.341972 
L 72.555491 81.888579 
L 72.890291 83.809952 
L 73.225091 83.119441 
L 73.559891 85.102301 
L 73.894691 85.966104 
L 74.229491 87.674373 
L 74.564291 86.400905 
L 75.233891 89.849929 
L 75.568691 94.174117 
L 75.903491 95.587466 
L 76.238291 95.968883 
L 76.573091 96.998286 
L 76.907891 97.142145 
L 77.242691 94.692259 
L 77.577491 95.724477 
L 77.912291 95.13547 
L 78.247091 96.389498 
L 78.581891 93.666662 
L 78.916691 93.662264 
L 79.251491 95.261303 
L 79.586291 95.375148 
L 79.921091 97.049779 
L 80.925491 98.585349 
L 81.260291 99.569731 
L 81.595091 99.533952 
L 81.929891 99.004266 
L 82.264691 99.495585 
L 83.269091 103.057087 
L 83.603891 104.051394 
L 84.273491 104.500895 
L 84.608291 106.076711 
L 84.943091 105.891728 
L 85.612691 105.121636 
L 85.947491 105.637671 
L 86.282291 106.560476 
L 86.617091 106.807862 
L 87.286691 108.852738 
L 87.621491 109.010709 
L 88.291091 109.758923 
L 88.960691 110.13809 
L 89.630291 112.826758 
L 89.965091 113.157491 
L 90.299891 113.654913 
L 90.634691 114.411713 
L 90.969491 114.212413 
L 91.304291 114.839928 
L 91.639091 114.70151 
L 92.308691 115.942406 
L 92.643491 116.212456 
L 92.978291 117.198912 
L 93.313091 114.831547 
L 93.647891 114.062817 
L 93.982691 114.600405 
L 94.317491 114.65841 
L 94.652291 114.384086 
L 94.987091 115.280085 
L 95.321891 115.166588 
L 95.991491 115.980641 
L 96.326291 115.752563 
L 96.661091 116.285348 
L 96.995891 117.072778 
L 97.330691 116.762612 
L 97.665491 116.981078 
L 98.669891 118.519206 
L 99.004691 117.878473 
L 99.339491 117.811825 
L 99.674291 118.487335 
L 100.009091 118.035954 
L 100.343891 119.016639 
L 101.013491 118.889103 
L 101.348291 119.935439 
L 101.683091 119.657879 
L 102.017891 119.856427 
L 102.352691 120.360036 
L 102.687491 119.991005 
L 103.022291 121.150098 
L 104.696291 122.928456 
L 105.031091 122.703933 
L 105.365891 123.084239 
L 105.700691 123.693574 
L 106.035491 123.627564 
L 106.370291 124.507582 
L 107.039891 125.396214 
L 107.374691 124.970563 
L 108.044291 126.218386 
L 108.379091 125.685425 
L 109.048691 126.219298 
L 109.383491 126.720662 
L 110.387891 127.38268 
L 110.722691 127.347693 
L 111.057491 127.482538 
L 111.392291 128.138187 
L 112.061891 127.536669 
L 112.396691 127.954259 
L 112.731491 128.004555 
L 113.066291 128.757407 
L 113.401091 127.758702 
L 114.070691 129.850051 
L 114.405491 129.550346 
L 114.740291 128.59947 
L 115.075091 130.149802 
L 115.409891 129.685704 
L 115.744691 130.35162 
L 116.414291 130.106604 
L 116.749091 130.579669 
L 117.083891 130.616235 
L 117.418691 131.25351 
L 118.088291 130.611409 
L 118.423091 131.389512 
L 118.757891 131.497996 
L 119.092691 131.480893 
L 119.427491 132.025693 
L 119.762291 131.926473 
L 120.097091 132.125796 
L 120.431891 132.506285 
L 120.766691 132.514916 
L 121.101491 132.278156 
L 121.436291 133.223294 
L 121.771091 132.406717 
L 122.440691 133.148043 
L 122.775491 132.872216 
L 123.110291 133.052931 
L 123.445091 133.649088 
L 124.114691 134.132334 
L 124.449491 134.084004 
L 124.784291 133.684412 
L 125.119091 134.290425 
L 125.453891 133.862318 
L 125.788691 134.083702 
L 126.123491 134.573887 
L 126.458291 134.864157 
L 126.793091 134.354464 
L 127.127891 135.131775 
L 127.462691 134.893214 
L 128.132291 135.349472 
L 128.801891 135.44835 
L 129.471491 135.233553 
L 129.806291 135.771164 
L 130.141091 135.745446 
L 130.475891 136.322778 
L 130.810691 135.694118 
L 131.145491 135.956254 
L 131.480291 136.515601 
L 131.815091 136.225239 
L 132.149891 136.377519 
L 132.484691 136.17794 
L 132.819491 136.787297 
L 133.154291 136.731987 
L 133.489091 136.876649 
L 133.823891 136.620205 
L 134.158691 136.704104 
L 134.493491 137.250204 
L 134.828291 137.162459 
L 135.163091 136.887788 
L 136.167491 137.681798 
L 136.502291 137.749688 
L 136.837091 137.64003 
L 137.171891 137.767355 
L 137.506691 137.313069 
L 137.841491 138.344882 
L 138.176291 137.931577 
L 138.511091 137.907129 
L 140.185091 138.722088 
L 140.519891 138.907094 
L 140.854691 138.858581 
L 141.189491 138.6663 
L 141.524291 138.840189 
L 141.859091 138.775456 
L 142.193891 138.900946 
L 142.863491 138.492057 
L 143.198291 139.039415 
L 143.533091 139.143888 
L 143.867891 139.40051 
L 144.537491 139.177657 
L 144.872291 139.430017 
L 145.207091 139.285218 
L 145.541891 139.469796 
L 145.876691 139.853019 
L 146.881091 139.743458 
L 147.215891 140.191927 
L 147.550691 139.874555 
L 147.885491 140.42523 
L 148.220291 140.0018 
L 148.555091 140.227354 
L 148.889891 140.102649 
L 149.894291 140.418336 
L 150.229091 140.108347 
L 150.898691 140.411294 
L 151.568291 140.799023 
L 151.903091 140.664542 
L 152.237891 140.795839 
L 152.572691 140.698436 
L 152.907491 140.784028 
L 153.577091 140.609414 
L 153.911891 141.192747 
L 154.246691 140.553979 
L 154.581491 141.081454 
L 154.916291 141.230668 
L 155.251091 140.922491 
L 155.585891 141.180041 
L 156.255491 141.143664 
L 156.925091 141.531826 
L 157.259891 140.943167 
L 157.594691 141.379974 
L 157.929491 141.409617 
L 158.264291 141.607727 
L 158.599091 141.496742 
L 159.268691 141.875561 
L 159.938291 141.505333 
L 160.942691 142.084415 
L 161.277491 142.036079 
L 161.612291 142.107746 
L 161.947091 141.678317 
L 162.281891 142.261433 
L 162.616691 142.305645 
L 162.951491 142.150146 
L 163.621091 142.474521 
L 163.955891 142.585449 
L 164.290691 141.834693 
L 164.625491 142.670824 
L 165.295091 142.43567 
L 166.299491 142.662215 
L 166.634291 142.249719 
L 166.969091 142.728351 
L 167.303891 142.570829 
L 167.638691 142.673644 
L 167.973491 142.933126 
L 168.643091 142.954212 
L 169.647491 143.1769 
L 169.982291 142.878368 
L 170.317091 143.077594 
L 170.651891 142.618619 
L 170.986691 142.974574 
L 171.656291 143.38151 
L 171.991091 143.042555 
L 172.325891 143.399918 
L 173.665091 143.645828 
L 173.999891 143.194744 
L 174.334691 143.099615 
L 174.669491 143.655782 
L 175.004291 143.425835 
L 175.339091 143.699355 
L 176.343491 143.663388 
L 176.678291 143.902473 
L 177.347891 143.851327 
L 177.682691 143.690997 
L 178.017491 143.82529 
L 178.352291 142.781108 
L 178.687091 143.909919 
L 179.021891 143.779797 
L 179.356691 143.968933 
L 180.026291 143.786491 
L 180.361091 144.118837 
L 180.695891 144.174244 
L 181.030691 143.555405 
L 181.365491 143.789853 
L 181.700291 144.341838 
L 182.035091 144.124676 
L 182.704691 143.966056 
L 183.039491 144.176756 
L 183.374291 143.92459 
L 183.709091 144.379475 
L 184.043891 143.773632 
L 184.378691 144.119811 
L 184.713491 144.030795 
L 185.048291 144.396823 
L 185.717891 144.031889 
L 186.052691 144.463505 
L 187.057091 144.303802 
L 187.391891 144.520473 
L 187.726691 144.433269 
L 188.061491 144.500618 
L 188.396291 144.375179 
L 188.731091 144.736609 
L 189.065891 143.927598 
L 189.400691 144.585976 
L 190.070291 144.764977 
L 190.405091 144.40832 
L 190.739891 144.889624 
L 191.074691 144.510902 
L 191.744291 144.827483 
L 192.413891 144.968293 
L 193.083491 144.749839 
L 193.418291 144.752385 
L 193.753091 144.561557 
L 194.087891 144.988251 
L 194.422691 144.972937 
L 194.757491 144.577818 
L 195.092291 145.142485 
L 195.761891 144.721209 
L 196.096691 145.122761 
L 196.431491 145.200228 
L 196.766291 145.100154 
L 197.101091 145.181176 
L 197.435891 144.983671 
L 198.105491 145.328641 
L 198.440291 145.20045 
L 198.775091 145.318078 
L 200.114291 145.383416 
L 200.449091 145.526979 
L 200.783891 145.271468 
L 201.118691 145.222539 
L 201.453491 145.417384 
L 202.123091 145.365697 
L 202.457891 145.36192 
L 202.792691 145.509186 
L 203.127491 144.964043 
L 203.462291 145.082942 
L 203.797091 145.449272 
L 204.131891 145.511869 
L 204.466691 144.884063 
L 205.136291 145.673356 
L 205.471091 145.727868 
L 205.805891 145.384538 
L 206.140691 145.590829 
L 206.475491 145.273075 
L 208.149491 145.738824 
L 208.484291 145.501944 
L 208.819091 145.708372 
L 209.153891 145.584716 
L 209.488691 145.856487 
L 209.823491 145.445723 
L 210.158291 145.888797 
L 210.827891 145.636887 
L 211.162691 145.66726 
L 211.497491 145.893189 
L 211.832291 145.91701 
L 211.832291 145.91701 
" clip-path="url(#p78f2b150b9)" style="fill: none; stroke: #1f77b4; stroke-width: 1.5; stroke-linecap: square"/>
   </g>
   <g id="line2d_14">
    <path d="M 70.628586 -1 
L 71.551091 19.372062 
L 71.885891 19.58103 
L 72.220691 24.065873 
L 72.555491 25.403709 
L 72.890291 24.729515 
L 74.564291 48.083095 
L 74.899091 48.585376 
L 75.233891 51.139182 
L 75.568691 55.213949 
L 76.238291 58.407833 
L 76.573091 58.422544 
L 76.907891 59.357393 
L 77.242691 60.913895 
L 77.577491 63.265683 
L 77.912291 64.798518 
L 78.581891 70.820696 
L 78.916691 71.123888 
L 79.251491 70.127507 
L 79.586291 70.64181 
L 79.921091 72.514038 
L 80.255891 72.776517 
L 80.590691 73.87716 
L 81.260291 77.308624 
L 81.929891 78.76459 
L 82.264691 79.012768 
L 82.599491 79.843583 
L 82.934291 81.768512 
L 83.269091 82.48048 
L 83.603891 83.582479 
L 83.938691 85.380629 
L 84.273491 85.829914 
L 84.608291 86.528116 
L 84.943091 86.825713 
L 85.277891 88.410565 
L 85.612691 87.213614 
L 86.282291 89.38263 
L 86.617091 89.686335 
L 86.951891 90.968975 
L 87.286691 95.192558 
L 87.621491 97.551251 
L 87.956291 97.969006 
L 88.291091 98.710463 
L 88.960691 99.122737 
L 89.295491 100.430606 
L 89.630291 101.019715 
L 89.965091 101.137594 
L 90.299891 101.592188 
L 90.634691 102.819051 
L 90.969491 102.748654 
L 91.304291 103.563003 
L 91.639091 103.695057 
L 91.973891 104.142701 
L 92.308691 105.27493 
L 92.643491 105.423791 
L 92.978291 106.369602 
L 93.647891 106.653206 
L 93.982691 107.799525 
L 94.317491 108.205447 
L 94.652291 107.835248 
L 94.987091 108.924582 
L 95.321891 109.309331 
L 95.991491 110.787529 
L 96.326291 110.602899 
L 96.661091 110.842685 
L 96.995891 111.768555 
L 97.330691 111.594096 
L 97.665491 112.013913 
L 98.669891 113.971983 
L 99.004691 113.555414 
L 99.339491 114.113563 
L 99.674291 115.204754 
L 100.009091 114.686276 
L 100.343891 115.823644 
L 100.678691 115.606084 
L 101.013491 116.022169 
L 101.348291 117.006352 
L 102.687491 117.33909 
L 103.022291 118.38023 
L 103.357091 118.865675 
L 104.026691 118.876506 
L 104.361491 119.445709 
L 104.696291 119.78317 
L 105.031091 119.911333 
L 105.365891 120.644974 
L 105.700691 120.776486 
L 106.035491 120.655913 
L 106.370291 121.495245 
L 106.705091 121.683982 
L 107.039891 122.112403 
L 107.374691 121.654253 
L 108.044291 122.988973 
L 108.379091 122.72531 
L 108.713891 122.973345 
L 110.053091 124.393896 
L 110.722691 124.483334 
L 111.057491 125.056154 
L 111.392291 125.261158 
L 111.727091 125.284762 
L 112.061891 124.991392 
L 112.396691 125.730593 
L 112.731491 125.983962 
L 113.066291 126.430437 
L 113.401091 125.667535 
L 114.070691 127.250262 
L 114.405491 126.934177 
L 114.740291 126.356229 
L 115.075091 127.297396 
L 115.409891 127.070942 
L 115.744691 127.811477 
L 116.079491 127.926598 
L 116.414291 128.182268 
L 116.749091 128.239766 
L 117.083891 128.495892 
L 117.418691 129.067453 
L 118.088291 128.490605 
L 118.423091 129.458567 
L 119.092691 129.521825 
L 119.427491 129.898274 
L 119.762291 129.914073 
L 120.097091 130.063464 
L 120.431891 130.400504 
L 120.766691 130.568964 
L 121.101491 130.368427 
L 121.436291 131.184743 
L 121.771091 130.565249 
L 122.440691 131.136252 
L 122.775491 130.767592 
L 123.110291 131.118835 
L 123.445091 131.657711 
L 123.779891 131.924912 
L 124.784291 131.715232 
L 125.119091 132.197338 
L 125.453891 132.064037 
L 125.788691 132.178047 
L 126.123491 132.780192 
L 126.458291 132.95799 
L 126.793091 132.540406 
L 127.127891 133.076325 
L 127.462691 133.138586 
L 127.797491 133.456055 
L 128.132291 133.513428 
L 128.467091 133.436621 
L 128.801891 133.79056 
L 129.471491 133.789927 
L 129.806291 134.284546 
L 130.141091 134.247404 
L 130.475891 134.595999 
L 130.810691 134.140009 
L 131.480291 134.929882 
L 131.815091 134.658146 
L 132.149891 134.884959 
L 132.484691 134.684553 
L 132.819491 135.118614 
L 133.489091 135.421464 
L 133.823891 135.049801 
L 134.158691 135.32997 
L 134.493491 135.877693 
L 135.163091 135.619454 
L 135.832691 136.157195 
L 136.167491 136.202763 
L 136.502291 136.365401 
L 136.837091 136.337472 
L 137.171891 136.433917 
L 137.506691 135.955639 
L 137.841491 137.032575 
L 138.176291 136.695513 
L 138.511091 136.575634 
L 139.180691 136.963187 
L 139.515491 137.132046 
L 139.850291 137.427672 
L 140.519891 137.681684 
L 141.189491 137.439158 
L 141.524291 137.66719 
L 142.193891 137.706547 
L 142.528691 137.433597 
L 142.863491 137.372897 
L 143.198291 137.823588 
L 143.867891 138.418509 
L 144.202691 138.164463 
L 144.537491 138.108839 
L 144.872291 138.287053 
L 145.541891 138.337105 
L 145.876691 138.773433 
L 146.211491 138.720955 
L 146.546291 138.504072 
L 146.881091 138.783238 
L 147.215891 139.233878 
L 147.550691 138.72721 
L 147.885491 139.307415 
L 148.220291 138.910079 
L 148.555091 139.271891 
L 149.224691 139.096788 
L 149.559491 139.461609 
L 149.894291 139.458367 
L 150.229091 139.295564 
L 150.563891 139.356213 
L 151.233491 139.747104 
L 151.568291 139.821364 
L 151.903091 139.775711 
L 152.237891 139.933705 
L 152.572691 139.793105 
L 153.577091 139.899122 
L 153.911891 140.30052 
L 154.246691 139.841641 
L 154.581491 139.963947 
L 154.916291 140.365498 
L 155.251091 140.236327 
L 155.920691 140.399939 
L 156.255491 140.33161 
L 156.925091 140.684483 
L 157.259891 139.988394 
L 157.594691 140.630802 
L 157.929491 140.607853 
L 158.264291 140.793184 
L 158.599091 140.708976 
L 159.268691 141.129238 
L 159.938291 140.690317 
L 160.942691 141.343522 
L 161.277491 141.31397 
L 161.612291 141.40388 
L 161.947091 140.816412 
L 162.281891 141.4212 
L 162.616691 141.583667 
L 162.951491 141.421918 
L 163.621091 141.754303 
L 163.955891 141.912491 
L 164.290691 141.051423 
L 164.625491 141.923487 
L 164.960291 142.008919 
L 165.295091 141.716672 
L 165.629891 141.897154 
L 166.299491 142.018519 
L 166.634291 141.692293 
L 166.969091 142.052795 
L 167.303891 141.717601 
L 167.638691 142.134102 
L 168.308291 142.360385 
L 168.643091 142.303998 
L 169.647491 142.475626 
L 169.982291 142.181128 
L 170.317091 142.369512 
L 170.651891 142.034803 
L 171.656291 142.788925 
L 171.991091 142.463217 
L 172.325891 142.739557 
L 172.660691 142.828807 
L 172.995491 142.792731 
L 173.665091 143.083776 
L 173.999891 142.483585 
L 174.334691 142.288006 
L 174.669491 143.061505 
L 175.004291 142.647117 
L 175.339091 143.135645 
L 175.673891 143.020057 
L 176.008691 143.188101 
L 176.343491 143.044777 
L 176.678291 143.263352 
L 177.013091 143.22984 
L 177.347891 143.339366 
L 177.682691 143.120536 
L 178.017491 143.359432 
L 178.352291 142.498712 
L 178.687091 143.417905 
L 179.021891 143.395565 
L 179.356691 143.486245 
L 180.026291 143.39977 
L 180.695891 143.78113 
L 181.030691 142.976386 
L 181.365491 143.268947 
L 181.700291 143.878088 
L 182.035091 143.637265 
L 183.374291 143.56202 
L 183.709091 143.928521 
L 184.043891 143.089684 
L 184.378691 143.747151 
L 184.713491 143.852672 
L 185.048291 144.084926 
L 185.717891 143.78697 
L 186.052691 144.000753 
L 186.722291 144.032886 
L 187.057091 143.809924 
L 187.391891 144.146611 
L 187.726691 144.075365 
L 188.061491 144.195518 
L 188.396291 143.972494 
L 188.731091 144.350834 
L 189.065891 143.705235 
L 189.400691 144.316803 
L 190.070291 144.507056 
L 190.405091 144.080345 
L 190.739891 144.417066 
L 191.074691 144.109003 
L 191.409491 144.419533 
L 192.079091 144.704311 
L 192.413891 144.703359 
L 193.083491 144.494209 
L 193.418291 144.599473 
L 193.753091 144.325082 
L 194.087891 144.786581 
L 194.422691 144.906539 
L 194.757491 144.359767 
L 195.092291 144.917194 
L 195.427091 144.710618 
L 195.761891 144.662099 
L 196.096691 145.012431 
L 196.766291 144.817318 
L 197.101091 145.076452 
L 197.435891 144.743822 
L 197.770691 145.134663 
L 198.105491 145.245004 
L 198.440291 145.004449 
L 198.775091 145.271531 
L 199.109891 145.183079 
L 199.444691 145.262005 
L 199.779491 145.196553 
L 200.449091 145.4176 
L 201.118691 145.175171 
L 201.453491 145.400793 
L 201.788291 145.168254 
L 202.123091 145.257692 
L 202.457891 145.222807 
L 202.792691 145.481348 
L 203.127491 144.932588 
L 203.462291 145.054472 
L 203.797091 145.460644 
L 204.131891 145.509807 
L 204.466691 144.895851 
L 205.136291 145.594316 
L 205.471091 145.682529 
L 205.805891 145.39415 
L 206.140691 145.616524 
L 206.475491 145.355442 
L 206.810291 145.40653 
L 207.145091 145.581013 
L 207.814691 145.702179 
L 208.149491 145.822114 
L 208.484291 145.589365 
L 208.819091 145.716177 
L 209.153891 145.665978 
L 209.488691 145.886335 
L 209.823491 145.528073 
L 210.158291 145.923345 
L 210.827891 145.735264 
L 211.162691 145.845109 
L 211.497491 146.124138 
L 211.832291 146.10965 
L 211.832291 146.10965 
" clip-path="url(#p78f2b150b9)" style="fill: none; stroke: #ff7f0e; stroke-width: 1.5; stroke-linecap: square"/>
   </g>
   <g id="line2d_15">
    <path d="M 67.772662 -1 
L 68.537891 10.932746 
L 69.207491 20.33656 
L 70.881491 38.63826 
L 71.216291 41.610402 
L 71.551091 43.197567 
L 73.225091 53.868604 
L 73.559891 54.987729 
L 73.894691 56.647274 
L 74.564291 61.157424 
L 75.233891 62.3884 
L 75.568691 64.998268 
L 75.903491 65.121275 
L 76.907891 68.866962 
L 77.242691 69.492922 
L 77.577491 71.373046 
L 77.912291 71.724472 
L 78.247091 72.510734 
L 78.581891 74.240504 
L 78.916691 73.795208 
L 79.251491 74.783716 
L 79.586291 74.677813 
L 79.921091 75.818372 
L 80.255891 75.196821 
L 80.590691 75.775447 
L 81.260291 77.617172 
L 81.595091 77.938914 
L 81.929891 77.858148 
L 82.264691 78.660864 
L 82.599491 79.006661 
L 82.934291 80.226846 
L 83.269091 80.517333 
L 83.603891 81.010954 
L 83.938691 82.416179 
L 84.273491 82.030933 
L 84.608291 82.609263 
L 84.943091 82.492695 
L 85.277891 83.875187 
L 85.612691 83.005756 
L 86.282291 84.240937 
L 86.617091 84.476284 
L 86.951891 85.000238 
L 87.286691 86.262174 
L 87.956291 86.632515 
L 88.291091 87.372924 
L 88.960691 87.216565 
L 89.295491 88.431498 
L 89.630291 88.978367 
L 89.965091 88.683345 
L 90.634691 90.349567 
L 90.969491 90.02648 
L 91.304291 90.879309 
L 91.639091 90.710302 
L 91.973891 90.99916 
L 92.308691 92.218536 
L 92.643491 92.339662 
L 92.978291 93.371868 
L 93.647891 93.192515 
L 93.982691 94.237551 
L 94.317491 94.612758 
L 94.652291 94.222066 
L 94.987091 95.102118 
L 95.321891 95.522619 
L 95.656691 96.382513 
L 95.991491 96.736845 
L 96.326291 96.155917 
L 96.661091 96.608266 
L 96.995891 97.42445 
L 97.330691 97.206526 
L 97.665491 97.941385 
L 98.000291 98.201482 
L 98.335091 98.889521 
L 98.669891 99.272579 
L 99.004691 98.538927 
L 99.674291 100.191874 
L 100.009091 99.751284 
L 100.343891 100.997939 
L 100.678691 99.984991 
L 101.348291 101.94628 
L 102.352691 101.962802 
L 103.357091 103.531121 
L 103.691891 103.7307 
L 104.026691 103.333843 
L 104.696291 104.395379 
L 105.031091 104.493021 
L 105.365891 105.289846 
L 106.035491 105.532463 
L 107.039891 106.997961 
L 107.374691 106.128785 
L 108.044291 107.71689 
L 108.379091 107.319088 
L 108.713891 107.58736 
L 109.718291 109.096603 
L 110.053091 109.270247 
L 110.387891 109.146597 
L 110.722691 109.41581 
L 111.392291 110.302989 
L 111.727091 110.170029 
L 112.061891 109.861624 
L 112.396691 110.666767 
L 112.731491 110.821314 
L 113.066291 111.315368 
L 113.401091 110.883604 
L 113.735891 111.473334 
L 114.070691 112.605632 
L 114.405491 112.036737 
L 114.740291 111.787174 
L 115.075091 112.578033 
L 115.409891 112.367395 
L 115.744691 113.135659 
L 116.079491 113.31458 
L 116.414291 113.674301 
L 116.749091 113.719971 
L 117.418691 114.54359 
L 117.753491 114.451321 
L 118.088291 114.214099 
L 118.423091 115.15946 
L 118.757891 115.251074 
L 119.427491 115.791858 
L 119.762291 115.817605 
L 120.766691 116.593919 
L 121.101491 116.497251 
L 121.436291 117.394851 
L 121.771091 117.031871 
L 122.105891 117.170078 
L 122.440691 117.470905 
L 122.775491 117.271747 
L 123.110291 117.421025 
L 123.445091 118.127785 
L 123.779891 118.457925 
L 124.114691 118.541517 
L 124.449491 118.43754 
L 125.119091 118.952874 
L 125.788691 118.894749 
L 126.123491 119.582492 
L 126.458291 119.911635 
L 126.793091 119.590627 
L 127.127891 120.119806 
L 127.462691 119.993729 
L 127.797491 120.750922 
L 128.132291 121.01732 
L 128.467091 120.689197 
L 128.801891 121.192429 
L 129.136691 121.167156 
L 129.471491 121.341433 
L 130.141091 121.967216 
L 130.475891 122.236127 
L 130.810691 121.782171 
L 131.480291 122.87179 
L 131.815091 122.597409 
L 132.149891 122.977077 
L 132.484691 122.785617 
L 132.819491 123.319347 
L 133.489091 123.737353 
L 133.823891 122.79324 
L 134.158691 123.729872 
L 134.493491 124.288894 
L 134.828291 124.396728 
L 135.163091 124.162839 
L 135.497891 124.437715 
L 135.832691 124.906165 
L 136.167491 125.139963 
L 136.502291 125.059225 
L 136.837091 125.425897 
L 137.506691 125.135433 
L 137.841491 126.223884 
L 138.176291 125.774554 
L 138.511091 125.705189 
L 139.850291 126.972588 
L 140.185091 127.004243 
L 140.519891 127.283928 
L 140.854691 127.146455 
L 141.859091 127.265628 
L 142.193891 127.543472 
L 142.528691 127.21459 
L 143.198291 127.879327 
L 143.533091 127.974182 
L 143.867891 128.557634 
L 144.202691 128.069386 
L 145.207091 128.699288 
L 145.541891 128.652342 
L 145.876691 129.230239 
L 146.211491 129.005369 
L 146.881091 129.283327 
L 147.215891 129.895448 
L 147.550691 129.397611 
L 147.885491 130.030248 
L 148.220291 129.676714 
L 148.555091 130.19648 
L 148.889891 130.090908 
L 149.224691 129.687647 
L 149.559491 130.413613 
L 149.894291 130.448105 
L 150.229091 130.111823 
L 150.563891 130.207972 
L 150.898691 130.647069 
L 152.237891 131.313048 
L 152.572691 131.185227 
L 153.577091 131.235153 
L 153.911891 131.658719 
L 154.246691 131.53005 
L 154.916291 131.980798 
L 156.255491 132.272726 
L 156.925091 132.693444 
L 157.259891 132.359144 
L 157.929491 132.795432 
L 158.264291 132.762929 
L 158.599091 132.895239 
L 159.268691 133.429477 
L 159.603491 133.097223 
L 159.938291 133.079988 
L 160.273091 133.387687 
L 160.607891 133.53236 
L 160.942691 133.841939 
L 161.612291 133.927468 
L 161.947091 133.419279 
L 162.281891 134.186488 
L 162.951491 134.107141 
L 163.955891 134.793556 
L 164.290691 134.276262 
L 164.625491 134.911024 
L 164.960291 134.959549 
L 165.295091 134.661388 
L 165.629891 135.099864 
L 166.634291 134.816111 
L 166.969091 135.223691 
L 167.303891 135.140087 
L 167.638691 135.310855 
L 167.973491 135.693719 
L 168.643091 135.699992 
L 168.977891 135.869352 
L 169.312691 135.768583 
L 169.647491 135.936046 
L 169.982291 135.616144 
L 170.317091 136.020185 
L 170.651891 135.524507 
L 170.986691 135.970817 
L 171.321491 135.88224 
L 171.656291 136.598218 
L 171.991091 136.360341 
L 172.660691 136.765573 
L 173.330291 136.855022 
L 173.665091 137.094318 
L 173.999891 136.688567 
L 174.334691 136.782591 
L 174.669491 137.137265 
L 175.004291 136.77678 
L 175.339091 137.161068 
L 175.673891 137.148204 
L 176.008691 137.381637 
L 176.343491 137.289915 
L 176.678291 137.616027 
L 177.682691 137.455304 
L 178.017491 137.765948 
L 178.352291 137.238798 
L 178.687091 138.045826 
L 179.356691 137.98544 
L 180.026291 138.09185 
L 180.695891 138.52958 
L 181.030691 137.777269 
L 181.365491 138.06297 
L 181.700291 138.719468 
L 182.369891 138.40242 
L 182.704691 138.373346 
L 183.039491 138.595658 
L 183.374291 138.497953 
L 183.709091 139.00163 
L 184.043891 138.521672 
L 185.048291 139.28577 
L 185.717891 138.900433 
L 186.052691 139.288431 
L 186.722291 139.293245 
L 187.057091 139.105949 
L 187.391891 139.561797 
L 187.726691 139.44904 
L 188.061491 139.602693 
L 188.396291 139.413466 
L 188.731091 139.904061 
L 189.065891 139.415312 
L 189.400691 139.818116 
L 190.070291 140.19105 
L 190.405091 139.708208 
L 190.739891 140.1098 
L 191.074691 139.735447 
L 191.744291 140.29505 
L 192.079091 140.508673 
L 193.418291 140.544692 
L 193.753091 140.158364 
L 194.087891 140.677344 
L 194.422691 140.914925 
L 194.757491 140.414131 
L 195.092291 141.031021 
L 195.761891 140.765933 
L 196.096691 141.136006 
L 196.766291 141.043623 
L 197.101091 141.340941 
L 197.435891 140.99801 
L 197.770691 141.458729 
L 198.105491 141.614484 
L 198.440291 141.314842 
L 198.775091 141.676471 
L 199.109891 141.542298 
L 199.444691 141.822598 
L 199.779491 141.76698 
L 200.449091 142.11664 
L 200.783891 142.039218 
L 201.118691 142.196728 
L 201.453491 142.58636 
L 201.788291 142.383135 
L 202.123091 142.711389 
L 202.792691 142.885826 
L 203.127491 142.59996 
L 203.462291 142.636999 
L 203.797091 143.123413 
L 204.131891 143.248465 
L 204.466691 142.927087 
L 204.801491 143.175965 
L 205.136291 143.601799 
L 205.471091 143.726315 
L 205.805891 143.471705 
L 206.140691 143.719615 
L 206.475491 143.446466 
L 206.810291 143.490524 
L 207.145091 143.842394 
L 207.814691 143.925963 
L 208.149491 144.172158 
L 208.484291 143.996263 
L 209.153891 144.050092 
L 209.488691 144.431577 
L 209.823491 143.953236 
L 210.158291 144.376632 
L 210.827891 144.331742 
L 211.832291 144.835573 
L 211.832291 144.835573 
" clip-path="url(#p78f2b150b9)" style="fill: none; stroke: #2ca02c; stroke-width: 1.5; stroke-linecap: square"/>
   </g>
   <g id="line2d_16">
    <path d="M 72.02266 -1 
L 72.220691 2.46965 
L 72.555491 6.154238 
L 72.890291 11.900071 
L 73.894691 20.856811 
L 74.564291 28.911063 
L 74.899091 30.443818 
L 75.233891 32.557558 
L 75.568691 36.676332 
L 76.573091 42.574581 
L 76.907891 45.171186 
L 77.577491 48.074264 
L 78.247091 50.898069 
L 78.581891 53.185841 
L 78.916691 53.277546 
L 79.251491 55.485487 
L 79.586291 55.837744 
L 79.921091 57.650104 
L 80.255891 57.57556 
L 80.590691 58.517086 
L 81.260291 61.589286 
L 81.595091 62.225592 
L 81.929891 62.146786 
L 82.264691 63.487904 
L 82.599491 64.100691 
L 82.934291 65.425846 
L 83.269091 65.790786 
L 83.603891 66.497455 
L 83.938691 67.906668 
L 84.273491 67.387545 
L 84.608291 68.488667 
L 84.943091 68.579039 
L 85.277891 69.960893 
L 85.612691 69.326216 
L 86.282291 70.45105 
L 86.617091 70.612548 
L 86.951891 71.07407 
L 87.286691 72.79084 
L 87.956291 73.124262 
L 88.291091 73.971497 
L 88.625891 73.876499 
L 88.960691 73.401166 
L 89.295491 74.926241 
L 89.630291 75.408866 
L 89.965091 75.002985 
L 90.634691 76.367975 
L 90.969491 76.223968 
L 91.304291 76.817749 
L 91.639091 76.896271 
L 91.973891 76.57324 
L 92.308691 78.185201 
L 92.643491 77.968313 
L 92.978291 78.921758 
L 93.313091 78.429106 
L 93.647891 78.399958 
L 93.982691 79.582051 
L 94.317491 79.850169 
L 94.652291 79.122295 
L 95.321891 80.616627 
L 95.656691 81.231067 
L 95.991491 81.423365 
L 96.326291 80.892699 
L 96.661091 81.178833 
L 96.995891 81.877765 
L 97.330691 81.481603 
L 97.665491 82.187942 
L 98.000291 82.450739 
L 98.335091 83.202076 
L 98.669891 83.449445 
L 99.004691 82.935256 
L 99.339491 83.464019 
L 99.674291 84.315663 
L 100.009091 83.645845 
L 100.343891 85.021786 
L 100.678691 84.138498 
L 101.013491 84.584147 
L 101.348291 85.850173 
L 102.017891 85.381518 
L 102.352691 85.436714 
L 103.022291 86.733883 
L 103.357091 87.177618 
L 103.691891 86.972729 
L 104.026691 86.502068 
L 104.361491 87.444312 
L 105.031091 87.694017 
L 105.365891 88.586239 
L 105.700691 88.610076 
L 106.035491 88.187034 
L 106.370291 89.181957 
L 106.705091 89.664924 
L 107.039891 89.919859 
L 107.374691 88.967724 
L 107.709491 89.520472 
L 108.044291 90.703807 
L 108.379091 90.142661 
L 108.713891 90.245544 
L 109.048691 90.825139 
L 109.383491 91.106874 
L 109.718291 91.588087 
L 110.053091 91.715617 
L 110.387891 91.693465 
L 110.722691 91.887928 
L 111.392291 92.751093 
L 111.727091 92.610755 
L 112.061891 92.124848 
L 112.396691 92.940531 
L 112.731491 92.999157 
L 113.066291 93.746061 
L 113.401091 93.236989 
L 113.735891 93.740421 
L 114.070691 95.085869 
L 114.740291 93.96614 
L 115.075091 94.89634 
L 115.409891 94.247362 
L 115.744691 95.275387 
L 116.079491 95.659082 
L 116.414291 95.858741 
L 116.749091 95.712535 
L 117.083891 96.390603 
L 117.418691 96.794012 
L 117.753491 96.222269 
L 118.088291 96.521279 
L 118.423091 97.540893 
L 118.757891 97.493377 
L 119.762291 98.025479 
L 120.431891 98.588585 
L 120.766691 98.549866 
L 121.101491 98.773271 
L 121.436291 99.640196 
L 121.771091 99.117165 
L 122.440691 99.750372 
L 122.775491 99.474232 
L 123.110291 99.447648 
L 123.445091 100.243561 
L 123.779891 100.736942 
L 124.449491 100.615497 
L 124.784291 101.146915 
L 125.119091 100.82973 
L 125.453891 101.422645 
L 125.788691 100.97785 
L 126.123491 101.791858 
L 126.458291 102.00257 
L 126.793091 101.709622 
L 127.127891 102.223811 
L 127.462691 102.284237 
L 128.132291 103.422289 
L 128.467091 102.793504 
L 128.801891 103.523577 
L 129.136691 103.455152 
L 129.471491 103.588311 
L 130.141091 104.283677 
L 130.475891 104.579052 
L 130.810691 104.012401 
L 131.480291 105.226411 
L 131.815091 104.962383 
L 132.149891 105.484172 
L 132.484691 105.46602 
L 132.819491 105.881257 
L 133.154291 105.781928 
L 133.489091 106.18291 
L 133.823891 105.583386 
L 134.828291 107.168768 
L 135.163091 106.78089 
L 136.167491 107.954255 
L 136.502291 107.705883 
L 136.837091 108.385643 
L 137.171891 108.315685 
L 137.506691 108.000711 
L 137.841491 109.306278 
L 138.176291 108.865693 
L 138.511091 108.682374 
L 139.850291 110.238666 
L 140.185091 110.387641 
L 140.519891 110.668243 
L 140.854691 110.639431 
L 141.189491 110.464641 
L 141.859091 110.637403 
L 142.193891 111.201415 
L 142.528691 110.707805 
L 142.863491 111.215875 
L 143.533091 111.598728 
L 143.867891 112.3272 
L 144.202691 111.772315 
L 144.537491 112.110546 
L 144.872291 111.984224 
L 145.207091 112.528785 
L 145.541891 112.612793 
L 145.876691 113.234594 
L 146.211491 112.9474 
L 146.881091 113.572352 
L 147.215891 114.167022 
L 147.550691 113.596651 
L 147.885491 114.364504 
L 148.220291 113.929846 
L 148.555091 114.600006 
L 148.889891 114.496125 
L 149.224691 114.104277 
L 149.559491 114.797773 
L 149.894291 115.059283 
L 150.563891 114.605219 
L 150.898691 115.294334 
L 151.568291 115.96413 
L 151.903091 115.919821 
L 152.237891 116.378654 
L 152.907491 116.32968 
L 153.242291 116.468656 
L 153.577091 116.179747 
L 153.911891 116.963793 
L 154.246691 117.026509 
L 155.251091 117.652008 
L 155.585891 117.451226 
L 155.920691 117.636329 
L 156.255491 118.029374 
L 156.590291 118.013484 
L 156.925091 118.62471 
L 157.259891 118.248301 
L 157.594691 118.436047 
L 157.929491 118.842464 
L 158.264291 118.565703 
L 158.599091 118.727542 
L 158.933891 119.480964 
L 159.268691 119.819753 
L 159.603491 118.95995 
L 160.607891 119.813834 
L 160.942691 120.474303 
L 161.947091 120.181338 
L 162.281891 120.944753 
L 162.616691 121.017286 
L 162.951491 120.683796 
L 163.286291 121.319589 
L 163.621091 121.190851 
L 163.955891 121.699445 
L 164.290691 121.128978 
L 164.625491 121.997395 
L 164.960291 122.091584 
L 165.295091 121.75128 
L 165.629891 122.402815 
L 165.964691 122.252439 
L 166.299491 122.325228 
L 166.634291 122.010727 
L 166.969091 122.64137 
L 167.638691 122.782945 
L 167.973491 123.24208 
L 168.308291 123.378617 
L 168.643091 123.312163 
L 168.977891 123.641836 
L 169.312691 123.491255 
L 169.647491 123.894965 
L 169.982291 123.568705 
L 170.317091 124.028557 
L 170.651891 123.708205 
L 170.986691 123.948777 
L 171.321491 123.900401 
L 171.656291 124.840862 
L 171.991091 124.628543 
L 172.325891 125.058314 
L 173.330291 125.405193 
L 173.665091 125.759713 
L 173.999891 125.458555 
L 174.334691 125.692256 
L 174.669491 125.698944 
L 175.004291 125.413318 
L 175.339091 126.087061 
L 175.673891 126.106695 
L 176.008691 126.361954 
L 176.343491 126.296081 
L 176.678291 126.751536 
L 177.682691 126.604247 
L 178.017491 127.02391 
L 178.352291 126.76395 
L 178.687091 127.528362 
L 179.021891 127.29522 
L 180.026291 127.627998 
L 180.361091 128.104949 
L 180.695891 128.240569 
L 181.030691 127.499716 
L 181.365491 127.817881 
L 181.700291 128.584628 
L 182.035091 128.380178 
L 182.369891 128.41083 
L 182.704691 128.232023 
L 183.039491 128.63501 
L 183.374291 128.768631 
L 183.709091 129.165961 
L 184.043891 128.798423 
L 184.378691 128.939667 
L 185.048291 129.632878 
L 185.717891 129.177082 
L 186.052691 129.577204 
L 186.387491 129.743977 
L 187.057091 129.654847 
L 187.391891 130.086572 
L 187.726691 129.959578 
L 188.061491 130.447086 
L 188.396291 130.187433 
L 188.731091 130.784655 
L 189.065891 130.452401 
L 190.070291 131.192702 
L 190.405091 130.868675 
L 190.739891 131.157361 
L 191.074691 130.956904 
L 192.413891 131.748174 
L 192.748691 131.878479 
L 193.083491 131.784854 
L 193.418291 131.97036 
L 193.753091 131.836928 
L 194.087891 132.12321 
L 194.422691 132.565002 
L 194.757491 131.926143 
L 195.092291 132.715789 
L 195.427091 132.511634 
L 195.761891 132.49354 
L 196.096691 132.86686 
L 196.431491 132.739427 
L 197.101091 133.115642 
L 197.435891 132.933748 
L 197.770691 133.429146 
L 198.105491 133.659355 
L 198.440291 133.321506 
L 198.775091 133.673769 
L 199.109891 133.507275 
L 199.444691 133.821326 
L 199.779491 133.826334 
L 200.449091 134.072626 
L 200.783891 133.840144 
L 201.118691 134.014513 
L 201.453491 134.444574 
L 201.788291 134.030368 
L 202.457891 134.503821 
L 202.792691 134.605684 
L 203.127491 134.252726 
L 203.462291 134.272125 
L 203.797091 134.835796 
L 204.131891 134.88934 
L 204.466691 134.586872 
L 204.801491 134.747874 
L 205.136291 135.376552 
L 205.471091 135.455204 
L 205.805891 135.15326 
L 206.140691 135.442351 
L 206.475491 135.222905 
L 206.810291 135.27924 
L 207.145091 135.664719 
L 207.479891 135.793133 
L 207.814691 135.655831 
L 208.149491 136.03685 
L 209.153891 135.955269 
L 209.488691 136.477206 
L 209.823491 135.948369 
L 210.158291 136.336811 
L 210.827891 136.374516 
L 211.162691 136.494395 
L 211.497491 136.841576 
L 211.832291 136.898442 
L 211.832291 136.898442 
" clip-path="url(#p78f2b150b9)" style="fill: none; stroke: #d62728; stroke-width: 1.5; stroke-linecap: square"/>
   </g>
   <g id="patch_3">
    <path d="M 44.767091 149.259249 
L 44.767091 10.659249 
" style="fill: none; stroke: #000000; stroke-width: 0.8; stroke-linejoin: miter; stroke-linecap: square"/>
   </g>
   <g id="patch_4">
    <path d="M 212.167091 149.259249 
L 212.167091 10.659249 
" style="fill: none; stroke: #000000; stroke-width: 0.8; stroke-linejoin: miter; stroke-linecap: square"/>
   </g>
   <g id="patch_5">
    <path d="M 44.767091 149.259249 
L 212.167091 149.259249 
" style="fill: none; stroke: #000000; stroke-width: 0.8; stroke-linejoin: miter; stroke-linecap: square"/>
   </g>
   <g id="patch_6">
    <path d="M 44.767091 10.659249 
L 212.167091 10.659249 
" style="fill: none; stroke: #000000; stroke-width: 0.8; stroke-linejoin: miter; stroke-linecap: square"/>
   </g>
   <g id="legend_1">
    <g id="patch_7">
     <path d="M 140.743605 74.407963 
L 205.167091 74.407963 
Q 207.167091 74.407963 207.167091 72.407963 
L 207.167091 17.659249 
Q 207.167091 15.659249 205.167091 15.659249 
L 140.743605 15.659249 
Q 138.743605 15.659249 138.743605 17.659249 
L 138.743605 72.407963 
Q 138.743605 74.407963 140.743605 74.407963 
z
" style="fill: #ffffff; opacity: 0.8; stroke: #cccccc; stroke-linejoin: miter"/>
    </g>
    <g id="line2d_17">
     <path d="M 142.743605 23.159249 
L 152.743605 23.159249 
L 162.743605 23.159249 
" style="fill: none; stroke: #1f77b4; stroke-width: 1.5; stroke-linecap: square"/>
    </g>
    <g id="text_16">
     <!-- $\alpha=0.7$ -->
     <g transform="translate(170.743605 26.659249) scale(0.1 -0.1)">
      <defs>
       <path id="CMMI12-b" d="M 2963 1615 
C 2963 2234 2611 2816 1933 2816 
C 1094 2816 256 1902 256 996 
C 256 440 602 -64 1254 -64 
C 1651 -64 2125 89 2579 472 
C 2669 115 2867 -64 3142 -64 
C 3488 -64 3661 293 3661 376 
C 3661 434 3616 434 3597 434 
C 3546 434 3539 415 3520 364 
C 3462 204 3315 64 3162 64 
C 2963 64 2963 472 2963 862 
C 3616 1641 3770 2445 3770 2451 
C 3770 2509 3718 2509 3699 2509 
C 3642 2509 3635 2490 3610 2375 
C 3526 2094 3360 1596 2963 1072 
L 2963 1615 
z
M 2560 625 
C 1997 121 1491 64 1267 64 
C 813 64 685 466 685 766 
C 685 1040 826 1692 1024 2043 
C 1286 2490 1645 2687 1933 2687 
C 2554 2687 2554 1877 2554 1340 
C 2554 1181 2547 1015 2547 855 
C 2547 728 2554 696 2560 625 
z
" transform="scale(0.015625)"/>
       <path id="CMR17-3d" d="M 4115 2048 
C 4211 2048 4307 2048 4307 2156 
C 4307 2272 4198 2272 4090 2272 
L 512 2272 
C 403 2272 294 2272 294 2156 
C 294 2048 390 2048 486 2048 
L 4115 2048 
z
M 4090 927 
C 4198 927 4307 927 4307 1043 
C 4307 1152 4211 1152 4115 1152 
L 486 1152 
C 390 1152 294 1152 294 1043 
C 294 927 403 927 512 927 
L 4090 927 
z
" transform="scale(0.015625)"/>
      </defs>
      <use xlink:href="#CMMI12-b" transform="scale(0.996264)"/>
      <use xlink:href="#CMR17-3d" transform="translate(90.355032 0) scale(0.996264)"/>
      <use xlink:href="#CMR17-30" transform="translate(189.743829 0) scale(0.996264)"/>
      <use xlink:href="#CMMI12-3a" transform="translate(235.434306 0) scale(0.996264)"/>
      <use xlink:href="#CMR17-37" transform="translate(262.531483 0) scale(0.996264)"/>
     </g>
    </g>
    <g id="line2d_18">
     <path d="M 142.743605 37.096428 
L 152.743605 37.096428 
L 162.743605 37.096428 
" style="fill: none; stroke: #ff7f0e; stroke-width: 1.5; stroke-linecap: square"/>
    </g>
    <g id="text_17">
     <!-- $\alpha=0.8$ -->
     <g transform="translate(170.743605 40.596428) scale(0.1 -0.1)">
      <defs>
       <path id="CMR17-38" d="M 1741 2289 
C 2144 2494 2554 2803 2554 3298 
C 2554 3884 1990 4224 1472 4224 
C 890 4224 378 3800 378 3215 
C 378 3054 416 2777 666 2533 
C 730 2469 998 2276 1171 2154 
C 883 2006 211 1652 211 945 
C 211 282 838 -128 1459 -128 
C 2144 -128 2720 366 2720 1022 
C 2720 1607 2330 1877 2074 2051 
L 1741 2289 
z
M 902 2855 
C 851 2887 595 3086 595 3388 
C 595 3781 998 4076 1459 4076 
C 1965 4076 2336 3716 2336 3298 
C 2336 2700 1670 2359 1638 2359 
C 1632 2359 1626 2359 1574 2398 
L 902 2855 
z
M 2080 1536 
C 2176 1466 2483 1253 2483 861 
C 2483 385 2010 25 1472 25 
C 890 25 448 443 448 951 
C 448 1459 838 1884 1280 2083 
L 2080 1536 
z
" transform="scale(0.015625)"/>
      </defs>
      <use xlink:href="#CMMI12-b" transform="scale(0.996264)"/>
      <use xlink:href="#CMR17-3d" transform="translate(90.355032 0) scale(0.996264)"/>
      <use xlink:href="#CMR17-30" transform="translate(189.743829 0) scale(0.996264)"/>
      <use xlink:href="#CMMI12-3a" transform="translate(235.434306 0) scale(0.996264)"/>
      <use xlink:href="#CMR17-38" transform="translate(262.531483 0) scale(0.996264)"/>
     </g>
    </g>
    <g id="line2d_19">
     <path d="M 142.743605 51.033606 
L 152.743605 51.033606 
L 162.743605 51.033606 
" style="fill: none; stroke: #2ca02c; stroke-width: 1.5; stroke-linecap: square"/>
    </g>
    <g id="text_18">
     <!-- $\alpha=0.9$ -->
     <g transform="translate(170.743605 54.533606) scale(0.1 -0.1)">
      <defs>
       <path id="CMR17-39" d="M 2253 1871 
C 2253 448 1670 25 1190 25 
C 1043 25 685 43 538 281 
C 704 256 826 345 826 505 
C 826 678 685 736 595 736 
C 538 736 365 710 365 492 
C 365 68 742 -128 1203 -128 
C 1939 -128 2688 665 2688 2090 
C 2688 3857 1971 4224 1485 4224 
C 851 4224 243 3664 243 2800 
C 243 2000 762 1408 1414 1408 
C 1952 1408 2189 1910 2253 2122 
L 2253 1871 
z
M 1427 1510 
C 1254 1510 1011 1542 813 1929 
C 678 2181 678 2477 678 2793 
C 678 3174 678 3438 858 3722 
C 947 3857 1114 4076 1485 4076 
C 2240 4076 2240 2909 2240 2651 
C 2240 2193 2035 1510 1427 1510 
z
" transform="scale(0.015625)"/>
      </defs>
      <use xlink:href="#CMMI12-b" transform="scale(0.996264)"/>
      <use xlink:href="#CMR17-3d" transform="translate(90.355032 0) scale(0.996264)"/>
      <use xlink:href="#CMR17-30" transform="translate(189.743829 0) scale(0.996264)"/>
      <use xlink:href="#CMMI12-3a" transform="translate(235.434306 0) scale(0.996264)"/>
      <use xlink:href="#CMR17-39" transform="translate(262.531483 0) scale(0.996264)"/>
     </g>
    </g>
    <g id="line2d_20">
     <path d="M 142.743605 64.970784 
L 152.743605 64.970784 
L 162.743605 64.970784 
" style="fill: none; stroke: #d62728; stroke-width: 1.5; stroke-linecap: square"/>
    </g>
    <g id="text_19">
     <!-- $\alpha=1.0$ -->
     <g transform="translate(170.743605 68.470784) scale(0.1 -0.1)">
      <use xlink:href="#CMMI12-b" transform="scale(0.996264)"/>
      <use xlink:href="#CMR17-3d" transform="translate(90.355032 0) scale(0.996264)"/>
      <use xlink:href="#CMR17-31" transform="translate(189.743829 0) scale(0.996264)"/>
      <use xlink:href="#CMMI12-3a" transform="translate(235.434306 0) scale(0.996264)"/>
      <use xlink:href="#CMR17-30" transform="translate(262.531483 0) scale(0.996264)"/>
     </g>
    </g>
   </g>
  </g>
 </g>
 <defs>
  <clipPath id="p78f2b150b9">
   <rect x="44.767091" y="10.659249" width="167.4" height="138.6"/>
  </clipPath>
 </defs>
</svg>
