<?xml version="1.0" encoding="utf-8" standalone="no"?>
<!DOCTYPE svg PUBLIC "-//W3C//DTD SVG 1.1//EN"
  "http://www.w3.org/Graphics/SVG/1.1/DTD/svg11.dtd">
<svg xmlns:xlink="http://www.w3.org/1999/xlink" width="219.367091pt" height="191.714009pt" viewBox="0 0 219.367091 191.714009" xmlns="http://www.w3.org/2000/svg" version="1.1">
 <metadata>
  <rdf:RDF xmlns:dc="http://purl.org/dc/elements/1.1/" xmlns:cc="http://creativecommons.org/ns#" xmlns:rdf="http://www.w3.org/1999/02/22-rdf-syntax-ns#">
   <cc:Work>
    <dc:type rdf:resource="http://purl.org/dc/dcmitype/StillImage"/>
    <dc:date>2025-06-02T20:18:29.444576</dc:date>
    <dc:format>image/svg+xml</dc:format>
    <dc:creator>
     <cc:Agent>
      <dc:title>Matplotlib v3.9.2, https://matplotlib.org/</dc:title>
     </cc:Agent>
    </dc:creator>
   </cc:Work>
  </rdf:RDF>
 </metadata>
 <defs>
  <style type="text/css">*{stroke-linejoin: round; stroke-linecap: butt}</style>
 </defs>
 <g id="figure_1">
  <g id="patch_1">
   <path d="M 0 191.714009 
L 219.367091 191.714009 
L 219.367091 -0 
L 0 -0 
z
" style="fill: #ffffff"/>
  </g>
  <g id="axes_1">
   <g id="patch_2">
    <path d="M 44.767091 155.802655 
L 212.167091 155.802655 
L 212.167091 17.202655 
L 44.767091 17.202655 
z
" style="fill: #ffffff"/>
   </g>
   <g id="matplotlib.axis_1">
    <g id="xtick_1">
     <g id="line2d_1">
      <defs>
       <path id="mee4c07a3df" d="M 0 0 
L 0 3.5 
" style="stroke: #000000; stroke-width: 0.8"/>
      </defs>
      <g>
       <use xlink:href="#mee4c07a3df" x="52.376182" y="155.802655" style="stroke: #000000; stroke-width: 0.8"/>
      </g>
     </g>
     <g id="text_1">
      <!-- $\mathdefault{0.7}$ -->
      <g transform="translate(46.011142 169.721154) scale(0.1 -0.1)">
       <defs>
        <path id="CMR17-30" d="M 2688 2038 
C 2688 2430 2682 3099 2413 3613 
C 2176 4063 1798 4224 1466 4224 
C 1158 4224 768 4082 525 3620 
C 269 3137 243 2539 243 2038 
C 243 1671 250 1112 448 623 
C 723 -39 1216 -128 1466 -128 
C 1760 -128 2208 -7 2470 604 
C 2662 1048 2688 1568 2688 2038 
z
M 1466 -26 
C 1056 -26 813 328 723 816 
C 653 1196 653 1749 653 2109 
C 653 2604 653 3015 736 3407 
C 858 3954 1216 4121 1466 4121 
C 1728 4121 2067 3947 2189 3420 
C 2272 3054 2278 2623 2278 2109 
C 2278 1691 2278 1176 2202 797 
C 2067 96 1690 -26 1466 -26 
z
" transform="scale(0.015625)"/>
        <path id="CMMI12-3a" d="M 1178 307 
C 1178 492 1024 620 870 620 
C 685 620 557 467 557 313 
C 557 128 710 0 864 0 
C 1050 0 1178 153 1178 307 
z
" transform="scale(0.015625)"/>
        <path id="CMR17-37" d="M 2886 3955 
L 2886 4096 
L 1382 4096 
C 634 4096 621 4166 595 4288 
L 480 4288 
L 294 3104 
L 410 3104 
C 429 3226 474 3552 550 3673 
C 589 3724 1062 3724 1171 3724 
L 2579 3724 
L 1869 2670 
C 1395 1961 1069 1003 1069 166 
C 1069 89 1069 -128 1299 -128 
C 1530 -128 1530 89 1530 172 
L 1530 466 
C 1530 1514 1709 2204 2003 2644 
L 2886 3955 
z
" transform="scale(0.015625)"/>
       </defs>
       <use xlink:href="#CMR17-30" transform="scale(0.996264)"/>
       <use xlink:href="#CMMI12-3a" transform="translate(45.690477 0) scale(0.996264)"/>
       <use xlink:href="#CMR17-37" transform="translate(72.787654 0) scale(0.996264)"/>
      </g>
     </g>
    </g>
    <g id="xtick_2">
     <g id="line2d_2">
      <g>
       <use xlink:href="#mee4c07a3df" x="103.103455" y="155.802655" style="stroke: #000000; stroke-width: 0.8"/>
      </g>
     </g>
     <g id="text_2">
      <!-- $\mathdefault{0.8}$ -->
      <g transform="translate(96.738415 169.721154) scale(0.1 -0.1)">
       <defs>
        <path id="CMR17-38" d="M 1741 2289 
C 2144 2494 2554 2803 2554 3298 
C 2554 3884 1990 4224 1472 4224 
C 890 4224 378 3800 378 3215 
C 378 3054 416 2777 666 2533 
C 730 2469 998 2276 1171 2154 
C 883 2006 211 1652 211 945 
C 211 282 838 -128 1459 -128 
C 2144 -128 2720 366 2720 1022 
C 2720 1607 2330 1877 2074 2051 
L 1741 2289 
z
M 902 2855 
C 851 2887 595 3086 595 3388 
C 595 3781 998 4076 1459 4076 
C 1965 4076 2336 3716 2336 3298 
C 2336 2700 1670 2359 1638 2359 
C 1632 2359 1626 2359 1574 2398 
L 902 2855 
z
M 2080 1536 
C 2176 1466 2483 1253 2483 861 
C 2483 385 2010 25 1472 25 
C 890 25 448 443 448 951 
C 448 1459 838 1884 1280 2083 
L 2080 1536 
z
" transform="scale(0.015625)"/>
       </defs>
       <use xlink:href="#CMR17-30" transform="scale(0.996264)"/>
       <use xlink:href="#CMMI12-3a" transform="translate(45.690477 0) scale(0.996264)"/>
       <use xlink:href="#CMR17-38" transform="translate(72.787654 0) scale(0.996264)"/>
      </g>
     </g>
    </g>
    <g id="xtick_3">
     <g id="line2d_3">
      <g>
       <use xlink:href="#mee4c07a3df" x="153.830727" y="155.802655" style="stroke: #000000; stroke-width: 0.8"/>
      </g>
     </g>
     <g id="text_3">
      <!-- $\mathdefault{0.9}$ -->
      <g transform="translate(147.465688 169.721154) scale(0.1 -0.1)">
       <defs>
        <path id="CMR17-39" d="M 2253 1871 
C 2253 448 1670 25 1190 25 
C 1043 25 685 43 538 281 
C 704 256 826 345 826 505 
C 826 678 685 736 595 736 
C 538 736 365 710 365 492 
C 365 68 742 -128 1203 -128 
C 1939 -128 2688 665 2688 2090 
C 2688 3857 1971 4224 1485 4224 
C 851 4224 243 3664 243 2800 
C 243 2000 762 1408 1414 1408 
C 1952 1408 2189 1910 2253 2122 
L 2253 1871 
z
M 1427 1510 
C 1254 1510 1011 1542 813 1929 
C 678 2181 678 2477 678 2793 
C 678 3174 678 3438 858 3722 
C 947 3857 1114 4076 1485 4076 
C 2240 4076 2240 2909 2240 2651 
C 2240 2193 2035 1510 1427 1510 
z
" transform="scale(0.015625)"/>
       </defs>
       <use xlink:href="#CMR17-30" transform="scale(0.996264)"/>
       <use xlink:href="#CMMI12-3a" transform="translate(45.690477 0) scale(0.996264)"/>
       <use xlink:href="#CMR17-39" transform="translate(72.787654 0) scale(0.996264)"/>
      </g>
     </g>
    </g>
    <g id="xtick_4">
     <g id="line2d_4">
      <g>
       <use xlink:href="#mee4c07a3df" x="204.558" y="155.802655" style="stroke: #000000; stroke-width: 0.8"/>
      </g>
     </g>
     <g id="text_4">
      <!-- $\mathdefault{1.0}$ -->
      <g transform="translate(198.192961 169.721154) scale(0.1 -0.1)">
       <defs>
        <path id="CMR17-31" d="M 1702 4083 
C 1702 4217 1696 4224 1606 4224 
C 1357 3927 979 3833 621 3820 
C 602 3820 570 3820 563 3808 
C 557 3795 557 3782 557 3648 
C 755 3648 1088 3686 1344 3839 
L 1344 467 
C 1344 243 1331 166 781 166 
L 589 166 
L 589 0 
C 896 6 1216 12 1523 12 
C 1830 12 2150 6 2458 0 
L 2458 166 
L 2266 166 
C 1715 166 1702 236 1702 467 
L 1702 4083 
z
" transform="scale(0.015625)"/>
       </defs>
       <use xlink:href="#CMR17-31" transform="scale(0.996264)"/>
       <use xlink:href="#CMMI12-3a" transform="translate(45.690477 0) scale(0.996264)"/>
       <use xlink:href="#CMR17-30" transform="translate(72.787654 0) scale(0.996264)"/>
      </g>
     </g>
    </g>
    <g id="text_5">
     <!-- $\alpha$ -->
     <g transform="translate(125.280531 182.576831) scale(0.1 -0.1)">
      <defs>
       <path id="CMMI12-b" d="M 2963 1615 
C 2963 2234 2611 2816 1933 2816 
C 1094 2816 256 1902 256 996 
C 256 440 602 -64 1254 -64 
C 1651 -64 2125 89 2579 472 
C 2669 115 2867 -64 3142 -64 
C 3488 -64 3661 293 3661 376 
C 3661 434 3616 434 3597 434 
C 3546 434 3539 415 3520 364 
C 3462 204 3315 64 3162 64 
C 2963 64 2963 472 2963 862 
C 3616 1641 3770 2445 3770 2451 
C 3770 2509 3718 2509 3699 2509 
C 3642 2509 3635 2490 3610 2375 
C 3526 2094 3360 1596 2963 1072 
L 2963 1615 
z
M 2560 625 
C 1997 121 1491 64 1267 64 
C 813 64 685 466 685 766 
C 685 1040 826 1692 1024 2043 
C 1286 2490 1645 2687 1933 2687 
C 2554 2687 2554 1877 2554 1340 
C 2554 1181 2547 1015 2547 855 
C 2547 728 2554 696 2560 625 
z
" transform="scale(0.015625)"/>
      </defs>
      <use xlink:href="#CMMI12-b" transform="scale(0.996264)"/>
     </g>
    </g>
   </g>
   <g id="matplotlib.axis_2">
    <g id="ytick_1">
     <g id="line2d_5">
      <defs>
       <path id="mc47fec5cc5" d="M 0 0 
L -3.5 0 
" style="stroke: #000000; stroke-width: 0.8"/>
      </defs>
      <g>
       <use xlink:href="#mc47fec5cc5" x="44.767091" y="142.212968" style="stroke: #000000; stroke-width: 0.8"/>
      </g>
     </g>
     <g id="text_6">
      <!-- $\mathdefault{0.90}$ -->
      <g transform="translate(20.055677 145.672217) scale(0.1 -0.1)">
       <use xlink:href="#CMR17-30" transform="scale(0.996264)"/>
       <use xlink:href="#CMMI12-3a" transform="translate(45.690477 0) scale(0.996264)"/>
       <use xlink:href="#CMR17-39" transform="translate(72.787654 0) scale(0.996264)"/>
       <use xlink:href="#CMR17-30" transform="translate(118.478131 0) scale(0.996264)"/>
      </g>
     </g>
    </g>
    <g id="ytick_2">
     <g id="line2d_6">
      <g>
       <use xlink:href="#mc47fec5cc5" x="44.767091" y="118.468056" style="stroke: #000000; stroke-width: 0.8"/>
      </g>
     </g>
     <g id="text_7">
      <!-- $\mathdefault{0.95}$ -->
      <g transform="translate(20.055677 121.927305) scale(0.1 -0.1)">
       <defs>
        <path id="CMR17-35" d="M 730 3750 
C 794 3724 1056 3641 1325 3641 
C 1920 3641 2246 3961 2432 4140 
C 2432 4191 2432 4224 2394 4224 
C 2387 4224 2374 4224 2323 4198 
C 2099 4102 1837 4032 1517 4032 
C 1325 4032 1037 4055 723 4191 
C 653 4224 640 4224 634 4224 
C 602 4224 595 4217 595 4090 
L 595 2231 
C 595 2113 595 2080 659 2080 
C 691 2080 704 2093 736 2139 
C 941 2435 1222 2560 1542 2560 
C 1766 2560 2246 2415 2246 1293 
C 2246 1087 2246 716 2054 422 
C 1894 159 1645 25 1370 25 
C 947 25 518 319 403 812 
C 429 806 480 793 506 793 
C 589 793 749 838 749 1036 
C 749 1209 627 1280 506 1280 
C 358 1280 262 1190 262 1011 
C 262 454 704 -128 1382 -128 
C 2042 -128 2669 441 2669 1267 
C 2669 2054 2170 2662 1549 2662 
C 1222 2662 947 2540 730 2304 
L 730 3750 
z
" transform="scale(0.015625)"/>
       </defs>
       <use xlink:href="#CMR17-30" transform="scale(0.996264)"/>
       <use xlink:href="#CMMI12-3a" transform="translate(45.690477 0) scale(0.996264)"/>
       <use xlink:href="#CMR17-39" transform="translate(72.787654 0) scale(0.996264)"/>
       <use xlink:href="#CMR17-35" transform="translate(118.478131 0) scale(0.996264)"/>
      </g>
     </g>
    </g>
    <g id="ytick_3">
     <g id="line2d_7">
      <g>
       <use xlink:href="#mc47fec5cc5" x="44.767091" y="94.723144" style="stroke: #000000; stroke-width: 0.8"/>
      </g>
     </g>
     <g id="text_8">
      <!-- $\mathdefault{1.00}$ -->
      <g transform="translate(20.055677 98.182393) scale(0.1 -0.1)">
       <use xlink:href="#CMR17-31" transform="scale(0.996264)"/>
       <use xlink:href="#CMMI12-3a" transform="translate(45.690477 0) scale(0.996264)"/>
       <use xlink:href="#CMR17-30" transform="translate(72.787654 0) scale(0.996264)"/>
       <use xlink:href="#CMR17-30" transform="translate(118.478131 0) scale(0.996264)"/>
      </g>
     </g>
    </g>
    <g id="ytick_4">
     <g id="line2d_8">
      <g>
       <use xlink:href="#mc47fec5cc5" x="44.767091" y="70.978232" style="stroke: #000000; stroke-width: 0.8"/>
      </g>
     </g>
     <g id="text_9">
      <!-- $\mathdefault{1.05}$ -->
      <g transform="translate(20.055677 74.437481) scale(0.1 -0.1)">
       <use xlink:href="#CMR17-31" transform="scale(0.996264)"/>
       <use xlink:href="#CMMI12-3a" transform="translate(45.690477 0) scale(0.996264)"/>
       <use xlink:href="#CMR17-30" transform="translate(72.787654 0) scale(0.996264)"/>
       <use xlink:href="#CMR17-35" transform="translate(118.478131 0) scale(0.996264)"/>
      </g>
     </g>
    </g>
    <g id="ytick_5">
     <g id="line2d_9">
      <g>
       <use xlink:href="#mc47fec5cc5" x="44.767091" y="47.23332" style="stroke: #000000; stroke-width: 0.8"/>
      </g>
     </g>
     <g id="text_10">
      <!-- $\mathdefault{1.10}$ -->
      <g transform="translate(20.055677 50.692569) scale(0.1 -0.1)">
       <use xlink:href="#CMR17-31" transform="scale(0.996264)"/>
       <use xlink:href="#CMMI12-3a" transform="translate(45.690477 0) scale(0.996264)"/>
       <use xlink:href="#CMR17-31" transform="translate(72.787654 0) scale(0.996264)"/>
       <use xlink:href="#CMR17-30" transform="translate(118.478131 0) scale(0.996264)"/>
      </g>
     </g>
    </g>
    <g id="ytick_6">
     <g id="line2d_10">
      <g>
       <use xlink:href="#mc47fec5cc5" x="44.767091" y="23.488409" style="stroke: #000000; stroke-width: 0.8"/>
      </g>
     </g>
     <g id="text_11">
      <!-- $\mathdefault{1.15}$ -->
      <g transform="translate(20.055677 26.947658) scale(0.1 -0.1)">
       <use xlink:href="#CMR17-31" transform="scale(0.996264)"/>
       <use xlink:href="#CMMI12-3a" transform="translate(45.690477 0) scale(0.996264)"/>
       <use xlink:href="#CMR17-31" transform="translate(72.787654 0) scale(0.996264)"/>
       <use xlink:href="#CMR17-35" transform="translate(118.478131 0) scale(0.996264)"/>
      </g>
     </g>
    </g>
    <g id="text_12">
     <!-- $Metrics$ -->
     <g transform="translate(14.118498 104.589128) rotate(-90) scale(0.1 -0.1)">
      <defs>
       <path id="CMMI12-4d" d="M 5811 3886 
C 5869 4102 5882 4166 6336 4166 
C 6458 4166 6515 4166 6515 4287 
C 6515 4352 6470 4352 6349 4352 
L 5581 4352 
C 5421 4352 5414 4345 5344 4243 
L 3008 567 
L 2528 4211 
C 2509 4352 2502 4352 2336 4352 
L 1542 4352 
C 1421 4352 1363 4352 1363 4230 
C 1363 4166 1421 4166 1517 4166 
C 1907 4166 1907 4115 1907 4045 
C 1907 4032 1907 3994 1882 3898 
L 1062 650 
C 986 344 838 204 410 185 
C 390 185 314 179 314 70 
C 314 0 371 0 397 0 
C 525 0 851 12 979 12 
L 1286 12 
C 1376 12 1485 0 1574 0 
C 1619 0 1690 0 1690 121 
C 1690 179 1626 185 1600 185 
C 1389 191 1184 230 1184 459 
C 1184 523 1184 529 1210 618 
L 2093 4128 
L 2099 4128 
L 2630 172 
C 2650 19 2656 0 2714 0 
C 2784 0 2816 51 2848 108 
L 5421 4159 
L 5427 4159 
L 4499 472 
C 4442 249 4429 185 3981 185 
C 3859 185 3795 185 3795 70 
C 3795 0 3853 0 3891 0 
C 4000 0 4128 12 4237 12 
L 4992 12 
C 5101 12 5235 0 5344 0 
C 5395 0 5466 0 5466 121 
C 5466 185 5408 185 5312 185 
C 4922 185 4922 236 4922 300 
C 4922 306 4922 351 4934 402 
L 5811 3886 
z
" transform="scale(0.015625)"/>
       <path id="CMMI12-65" d="M 1146 1472 
C 1318 1472 1754 1484 2061 1600 
C 2547 1786 2592 2160 2592 2275 
C 2592 2559 2349 2816 1926 2816 
C 1254 2816 288 2205 288 1066 
C 288 400 672 -64 1254 -64 
C 2125 -64 2675 609 2675 691 
C 2675 729 2637 761 2611 761 
C 2592 761 2586 755 2528 698 
C 2118 159 1510 64 1267 64 
C 902 64 710 349 710 818 
C 710 907 710 1066 806 1472 
L 1146 1472 
z
M 838 1600 
C 1114 2591 1722 2687 1926 2687 
C 2208 2687 2400 2520 2400 2275 
C 2400 1600 1376 1600 1107 1600 
L 838 1600 
z
" transform="scale(0.015625)"/>
       <path id="CMMI12-74" d="M 1286 2566 
L 1875 2566 
C 1997 2566 2061 2566 2061 2681 
C 2061 2752 2022 2752 1894 2752 
L 1331 2752 
L 1568 3664 
C 1594 3752 1594 3764 1594 3808 
C 1594 3910 1510 3968 1427 3968 
C 1376 3968 1229 3948 1178 3746 
L 928 2752 
L 326 2752 
C 198 2752 141 2752 141 2630 
C 141 2566 186 2566 307 2566 
L 877 2566 
L 454 881 
C 403 657 384 593 384 510 
C 384 210 595 -64 954 -64 
C 1600 -64 1946 868 1946 913 
C 1946 951 1920 970 1882 970 
C 1869 970 1843 970 1830 944 
C 1824 938 1818 932 1773 830 
C 1638 510 1344 64 973 64 
C 781 64 768 223 768 364 
C 768 370 768 491 787 568 
L 1286 2566 
z
" transform="scale(0.015625)"/>
       <path id="CMMI12-72" d="M 2490 2633 
C 2291 2598 2189 2457 2189 2316 
C 2189 2163 2310 2111 2400 2111 
C 2579 2111 2726 2265 2726 2457 
C 2726 2651 2528 2816 2208 2816 
C 1952 2816 1658 2700 1389 2335 
C 1344 2660 1088 2816 832 2816 
C 582 2816 454 2642 378 2508 
C 269 2278 173 1892 173 1860 
C 173 1834 198 1801 243 1801 
C 294 1801 301 1808 339 1957 
C 435 2342 557 2687 813 2687 
C 966 2687 1011 2604 1011 2419 
C 1011 2278 947 2028 902 1827 
L 723 1130 
C 698 1007 627 716 595 600 
C 550 432 480 128 480 96 
C 480 6 550 -64 646 -64 
C 717 -64 838 -20 877 109 
C 896 160 1133 1136 1171 1285 
C 1203 1427 1242 1562 1274 1705 
C 1299 1795 1325 1898 1344 1982 
C 1363 2040 1536 2355 1696 2495 
C 1773 2566 1939 2687 2202 2687 
C 2304 2687 2406 2674 2490 2633 
z
" transform="scale(0.015625)"/>
       <path id="CMMI12-69" d="M 1811 913 
C 1811 945 1786 970 1747 970 
C 1690 970 1683 951 1651 842 
C 1485 261 1222 64 1011 64 
C 934 64 845 83 845 274 
C 845 447 922 638 992 830 
L 1440 2017 
C 1459 2068 1504 2183 1504 2305 
C 1504 2573 1312 2816 998 2816 
C 410 2816 173 1890 173 1838 
C 173 1813 198 1781 243 1781 
C 301 1781 307 1807 333 1896 
C 486 2432 730 2687 979 2687 
C 1037 2687 1146 2681 1146 2477 
C 1146 2311 1062 2100 1011 1960 
L 563 772 
C 525 670 486 568 486 453 
C 486 166 685 -64 992 -64 
C 1581 -64 1811 868 1811 913 
z
M 1760 4012 
C 1760 4108 1683 4224 1542 4224 
C 1395 4224 1229 4083 1229 3916 
C 1229 3756 1363 3705 1440 3705 
C 1613 3705 1760 3871 1760 4012 
z
" transform="scale(0.015625)"/>
       <path id="CMMI12-63" d="M 2502 2432 
C 2381 2432 2323 2432 2234 2355 
C 2195 2323 2125 2227 2125 2124 
C 2125 1996 2221 1919 2342 1919 
C 2496 1919 2669 2047 2669 2303 
C 2669 2591 2374 2816 1933 2816 
C 1094 2816 256 1932 256 1011 
C 256 446 602 -64 1254 -64 
C 2125 -64 2675 622 2675 706 
C 2675 745 2637 777 2611 777 
C 2592 777 2586 771 2528 712 
C 2118 161 1510 64 1267 64 
C 826 64 685 453 685 777 
C 685 1004 794 1634 1024 2073 
C 1190 2374 1536 2687 1939 2687 
C 2022 2687 2374 2676 2502 2432 
z
" transform="scale(0.015625)"/>
       <path id="CMMI12-73" d="M 1459 1290 
C 1568 1271 1741 1233 1779 1227 
C 1862 1201 2150 1099 2150 793 
C 2150 595 1971 64 1229 64 
C 1094 64 614 83 486 447 
C 742 414 870 614 870 755 
C 870 889 781 960 653 960 
C 512 960 326 851 326 563 
C 326 176 710 -64 1222 -64 
C 2195 -64 2483 665 2483 998 
C 2483 1093 2483 1271 2278 1475 
C 2118 1627 1965 1659 1619 1729 
C 1446 1767 1171 1824 1171 2111 
C 1171 2239 1286 2687 1894 2687 
C 2163 2687 2426 2589 2490 2368 
C 2208 2368 2195 2124 2195 2118 
C 2195 1983 2317 1945 2374 1945 
C 2464 1945 2643 2015 2643 2284 
C 2643 2546 2400 2816 1901 2816 
C 1062 2816 838 2169 838 1907 
C 838 1424 1312 1322 1459 1290 
z
" transform="scale(0.015625)"/>
      </defs>
      <use xlink:href="#CMMI12-4d" transform="scale(0.996264)"/>
      <use xlink:href="#CMMI12-65" transform="translate(104.780079 0) scale(0.996264)"/>
      <use xlink:href="#CMMI12-74" transform="translate(149.99208 0) scale(0.996264)"/>
      <use xlink:href="#CMMI12-72" transform="translate(185.21841 0) scale(0.996264)"/>
      <use xlink:href="#CMMI12-69" transform="translate(231.889022 0) scale(0.996264)"/>
      <use xlink:href="#CMMI12-63" transform="translate(265.167624 0) scale(0.996264)"/>
      <use xlink:href="#CMMI12-73" transform="translate(307.150858 0) scale(0.996264)"/>
     </g>
    </g>
    <g id="text_13">
     <!-- $\times\mathdefault{10^{−1}}\mathdefault{}$ -->
     <g transform="translate(44.767091 14.202655) scale(0.1 -0.1)">
      <defs>
       <path id="CMSY10-2" d="M 2490 1775 
L 1210 3046 
C 1133 3123 1120 3136 1069 3136 
C 1005 3136 941 3078 941 3008 
C 941 2963 954 2950 1024 2880 
L 2304 1596 
L 1024 313 
C 954 243 941 230 941 185 
C 941 115 1005 57 1069 57 
C 1120 57 1133 70 1210 147 
L 2483 1418 
L 3808 95 
C 3821 89 3866 57 3904 57 
C 3981 57 4032 115 4032 185 
C 4032 198 4032 223 4013 255 
C 4006 268 2989 1271 2669 1596 
L 3840 2765 
C 3872 2803 3968 2886 4000 2925 
C 4006 2937 4032 2963 4032 3008 
C 4032 3078 3981 3136 3904 3136 
C 3853 3136 3827 3110 3757 3040 
L 2490 1775 
z
" transform="scale(0.015625)"/>
       <path id="CMSY10-0" d="M 4218 1472 
C 4326 1472 4442 1472 4442 1600 
C 4442 1728 4326 1728 4218 1728 
L 755 1728 
C 646 1728 531 1728 531 1600 
C 531 1472 646 1472 755 1472 
L 4218 1472 
z
" transform="scale(0.015625)"/>
      </defs>
      <use xlink:href="#CMSY10-2" transform="scale(0.996264)"/>
      <use xlink:href="#CMR17-31" transform="translate(77.487468 0) scale(0.996264)"/>
      <use xlink:href="#CMR17-30" transform="translate(123.177945 0) scale(0.996264)"/>
      <use xlink:href="#CMSY10-0" transform="translate(168.868422 36.153639) scale(0.697382)"/>
      <use xlink:href="#CMR17-31" transform="translate(223.109415 36.153639) scale(0.697382)"/>
     </g>
    </g>
   </g>
   <g id="line2d_11">
    <path d="M 52.376182 23.502655 
L 103.103455 40.076604 
L 153.830727 41.515546 
L 204.558 33.641733 
" clip-path="url(#pe55f742e0d)" style="fill: none; stroke: #ff0000; stroke-width: 1.5; stroke-linecap: square"/>
    <defs>
     <path id="m17789ac221" d="M 0 3 
C 0.795609 3 1.55874 2.683901 2.12132 2.12132 
C 2.683901 1.55874 3 0.795609 3 0 
C 3 -0.795609 2.683901 -1.55874 2.12132 -2.12132 
C 1.55874 -2.683901 0.795609 -3 0 -3 
C -0.795609 -3 -1.55874 -2.683901 -2.12132 -2.12132 
C -2.683901 -1.55874 -3 -0.795609 -3 0 
C -3 0.795609 -2.683901 1.55874 -2.12132 2.12132 
C -1.55874 2.683901 -0.795609 3 0 3 
z
" style="stroke: #ff0000"/>
    </defs>
    <g clip-path="url(#pe55f742e0d)">
     <use xlink:href="#m17789ac221" x="52.376182" y="23.502655" style="fill: #ff0000; stroke: #ff0000"/>
     <use xlink:href="#m17789ac221" x="103.103455" y="40.076604" style="fill: #ff0000; stroke: #ff0000"/>
     <use xlink:href="#m17789ac221" x="153.830727" y="41.515546" style="fill: #ff0000; stroke: #ff0000"/>
     <use xlink:href="#m17789ac221" x="204.558" y="33.641733" style="fill: #ff0000; stroke: #ff0000"/>
    </g>
   </g>
   <g id="line2d_12">
    <path d="M 52.376182 136.59967 
L 103.103455 146.102384 
L 153.830727 149.502655 
L 204.558 145.594243 
" clip-path="url(#pe55f742e0d)" style="fill: none; stroke: #0000ff; stroke-width: 1.5; stroke-linecap: square"/>
    <defs>
     <path id="m38b543ec13" d="M 0 3 
C 0.795609 3 1.55874 2.683901 2.12132 2.12132 
C 2.683901 1.55874 3 0.795609 3 0 
C 3 -0.795609 2.683901 -1.55874 2.12132 -2.12132 
C 1.55874 -2.683901 0.795609 -3 0 -3 
C -0.795609 -3 -1.55874 -2.683901 -2.12132 -2.12132 
C -2.683901 -1.55874 -3 -0.795609 -3 0 
C -3 0.795609 -2.683901 1.55874 -2.12132 2.12132 
C -1.55874 2.683901 -0.795609 3 0 3 
z
" style="stroke: #0000ff"/>
    </defs>
    <g clip-path="url(#pe55f742e0d)">
     <use xlink:href="#m38b543ec13" x="52.376182" y="136.59967" style="fill: #0000ff; stroke: #0000ff"/>
     <use xlink:href="#m38b543ec13" x="103.103455" y="146.102384" style="fill: #0000ff; stroke: #0000ff"/>
     <use xlink:href="#m38b543ec13" x="153.830727" y="149.502655" style="fill: #0000ff; stroke: #0000ff"/>
     <use xlink:href="#m38b543ec13" x="204.558" y="145.594243" style="fill: #0000ff; stroke: #0000ff"/>
    </g>
   </g>
   <g id="patch_3">
    <path d="M 44.767091 155.802655 
L 44.767091 17.202655 
" style="fill: none; stroke: #000000; stroke-width: 0.8; stroke-linejoin: miter; stroke-linecap: square"/>
   </g>
   <g id="patch_4">
    <path d="M 212.167091 155.802655 
L 212.167091 17.202655 
" style="fill: none; stroke: #000000; stroke-width: 0.8; stroke-linejoin: miter; stroke-linecap: square"/>
   </g>
   <g id="patch_5">
    <path d="M 44.767091 155.802655 
L 212.167091 155.802655 
" style="fill: none; stroke: #000000; stroke-width: 0.8; stroke-linejoin: miter; stroke-linecap: square"/>
   </g>
   <g id="patch_6">
    <path d="M 44.767091 17.202655 
L 212.167091 17.202655 
" style="fill: none; stroke: #000000; stroke-width: 0.8; stroke-linejoin: miter; stroke-linecap: square"/>
   </g>
   <g id="text_14">
    <!-- 0.1149 -->
    <g transform="translate(46.14823 37.735356) scale(0.1 -0.1)">
     <defs>
      <path id="CMSS17-30" d="M 2758 2073 
C 2758 2439 2752 3120 2490 3647 
C 2227 4153 1805 4288 1504 4288 
C 1069 4288 698 4031 506 3621 
C 301 3191 243 2748 243 2073 
C 243 1611 262 1046 493 551 
C 755 6 1197 -128 1498 -128 
C 1894 -128 2278 83 2496 525 
C 2720 988 2758 1495 2758 2073 
z
M 1498 262 
C 1011 262 864 821 819 1007 
C 742 1328 730 1636 730 2144 
C 730 2542 730 2992 851 3345 
C 998 3756 1254 3897 1498 3897 
C 1971 3897 2125 3422 2176 3255 
C 2272 2915 2272 2516 2272 2144 
C 2272 1546 2272 262 1498 262 
z
" transform="scale(0.015625)"/>
      <path id="CMSS17-2e" d="M 1088 512 
L 576 512 
L 576 0 
L 1088 0 
L 1088 512 
z
" transform="scale(0.015625)"/>
      <path id="CMSS17-31" d="M 1818 4288 
L 1696 4288 
C 1350 3949 947 3902 538 3891 
L 538 3520 
C 723 3526 1024 3539 1325 3673 
L 1325 371 
L 570 371 
L 570 0 
L 2573 0 
L 2573 371 
L 1818 371 
L 1818 4288 
z
" transform="scale(0.015625)"/>
      <path id="CMSS17-34" d="M 2253 1088 
L 2835 1088 
L 2835 1478 
L 2253 1478 
L 2253 4224 
L 1690 4224 
L 166 1478 
L 166 1088 
L 1747 1088 
L 1747 0 
L 2253 0 
L 2253 1088 
z
M 659 1478 
C 1030 2139 1766 3474 1766 3927 
L 1766 1478 
L 659 1478 
z
" transform="scale(0.015625)"/>
      <path id="CMSS17-39" d="M 435 172 
C 614 19 845 -128 1235 -128 
C 2010 -128 2752 738 2752 2136 
C 2752 3987 1952 4288 1523 4288 
C 1094 4288 819 4095 582 3789 
C 301 3438 250 3125 250 2761 
C 250 2327 326 2059 506 1753 
C 749 1356 973 1273 1222 1273 
C 1600 1273 1978 1459 2234 1778 
C 2189 908 1798 268 1235 268 
C 1005 268 819 340 634 516 
L 435 172 
z
M 2214 2774 
C 2221 2729 2221 2646 2221 2621 
C 2221 2085 1914 1664 1466 1664 
C 1171 1664 1018 1817 902 2015 
C 762 2263 755 2506 755 2761 
C 755 3010 755 3284 934 3559 
C 1069 3757 1235 3897 1523 3897 
C 2112 3897 2208 3036 2214 2774 
z
" transform="scale(0.015625)"/>
     </defs>
     <use xlink:href="#CMSS17-30" transform="scale(0.996264)"/>
     <use xlink:href="#CMSS17-2e" transform="translate(46.843624 0) scale(0.996264)"/>
     <use xlink:href="#CMSS17-31" transform="translate(72.867828 0) scale(0.996264)"/>
     <use xlink:href="#CMSS17-31" transform="translate(119.711452 0) scale(0.996264)"/>
     <use xlink:href="#CMSS17-34" transform="translate(166.555075 0) scale(0.996264)"/>
     <use xlink:href="#CMSS17-39" transform="translate(213.398699 0) scale(0.996264)"/>
    </g>
   </g>
   <g id="text_15">
    <!-- 0.1115 -->
    <g transform="translate(89.266412 35.360864) scale(0.1 -0.1)">
     <defs>
      <path id="CMSS17-35" d="M 934 3814 
L 2502 3814 
L 2502 4224 
L 467 4224 
L 467 1830 
L 896 1830 
C 1011 2103 1248 2304 1555 2304 
C 1843 2304 2163 2044 2163 1299 
C 2163 502 1709 268 1376 268 
C 966 268 589 521 422 871 
L 218 508 
C 512 51 992 -128 1376 -128 
C 2118 -128 2701 508 2701 1286 
C 2701 2083 2182 2694 1562 2694 
C 1338 2694 1120 2617 934 2464 
L 934 3814 
z
" transform="scale(0.015625)"/>
     </defs>
     <use xlink:href="#CMSS17-30" transform="scale(0.996264)"/>
     <use xlink:href="#CMSS17-2e" transform="translate(46.843624 0) scale(0.996264)"/>
     <use xlink:href="#CMSS17-31" transform="translate(72.867828 0) scale(0.996264)"/>
     <use xlink:href="#CMSS17-31" transform="translate(119.711452 0) scale(0.996264)"/>
     <use xlink:href="#CMSS17-31" transform="translate(166.555075 0) scale(0.996264)"/>
     <use xlink:href="#CMSS17-35" transform="translate(213.398699 0) scale(0.996264)"/>
    </g>
   </g>
   <g id="text_16">
    <!-- 0.1112 -->
    <g transform="translate(139.993685 36.310661) scale(0.1 -0.1)">
     <defs>
      <path id="CMSS17-32" d="M 1651 1353 
C 1830 1538 2099 1761 2285 1984 
C 2464 2201 2701 2507 2701 2953 
C 2701 3655 2227 4288 1421 4288 
C 787 4288 422 3891 250 3272 
L 499 2928 
C 640 3508 838 3878 1338 3878 
C 1888 3878 2195 3431 2195 2940 
C 2195 2354 1747 1901 1408 1563 
C 1030 1187 659 805 301 409 
L 301 0 
L 2701 0 
L 2701 435 
L 1613 435 
C 1536 435 1459 428 1382 428 
L 742 428 
L 742 435 
L 1651 1353 
z
" transform="scale(0.015625)"/>
     </defs>
     <use xlink:href="#CMSS17-30" transform="scale(0.996264)"/>
     <use xlink:href="#CMSS17-2e" transform="translate(46.843624 0) scale(0.996264)"/>
     <use xlink:href="#CMSS17-31" transform="translate(72.867828 0) scale(0.996264)"/>
     <use xlink:href="#CMSS17-31" transform="translate(119.711452 0) scale(0.996264)"/>
     <use xlink:href="#CMSS17-31" transform="translate(166.555075 0) scale(0.996264)"/>
     <use xlink:href="#CMSS17-32" transform="translate(213.398699 0) scale(0.996264)"/>
    </g>
   </g>
   <g id="text_17">
    <!-- 0.1128 -->
    <g transform="translate(180.575503 28.237391) scale(0.1 -0.1)">
     <defs>
      <path id="CMSS17-38" d="M 1933 2246 
C 2419 2406 2669 2793 2669 3174 
C 2669 3774 2157 4288 1504 4288 
C 826 4288 333 3755 333 3174 
C 333 2799 576 2412 1069 2246 
C 442 2003 250 1516 250 1152 
C 250 448 819 -128 1498 -128 
C 2202 -128 2752 460 2752 1152 
C 2752 1574 2502 2022 1933 2246 
z
M 1504 2438 
C 1075 2438 787 2728 787 3167 
C 787 3613 1075 3897 1504 3897 
C 1901 3897 2214 3639 2214 3167 
C 2214 2703 1907 2438 1504 2438 
z
M 1504 268 
C 1139 268 749 518 749 1158 
C 749 1817 1184 2048 1498 2048 
C 1843 2048 2253 1804 2253 1158 
C 2253 492 1830 268 1504 268 
z
" transform="scale(0.015625)"/>
     </defs>
     <use xlink:href="#CMSS17-30" transform="scale(0.996264)"/>
     <use xlink:href="#CMSS17-2e" transform="translate(46.843624 0) scale(0.996264)"/>
     <use xlink:href="#CMSS17-31" transform="translate(72.867828 0) scale(0.996264)"/>
     <use xlink:href="#CMSS17-31" transform="translate(119.711452 0) scale(0.996264)"/>
     <use xlink:href="#CMSS17-32" transform="translate(166.555075 0) scale(0.996264)"/>
     <use xlink:href="#CMSS17-38" transform="translate(213.398699 0) scale(0.996264)"/>
    </g>
   </g>
   <g id="text_18">
    <!-- 0.0911 -->
    <g transform="translate(46.14823 131.765206) scale(0.1 -0.1)">
     <use xlink:href="#CMSS17-30" transform="scale(0.996264)"/>
     <use xlink:href="#CMSS17-2e" transform="translate(46.843624 0) scale(0.996264)"/>
     <use xlink:href="#CMSS17-30" transform="translate(72.867828 0) scale(0.996264)"/>
     <use xlink:href="#CMSS17-39" transform="translate(119.711452 0) scale(0.996264)"/>
     <use xlink:href="#CMSS17-31" transform="translate(166.555075 0) scale(0.996264)"/>
     <use xlink:href="#CMSS17-31" transform="translate(213.398699 0) scale(0.996264)"/>
    </g>
   </g>
   <g id="text_19">
    <!-- 0.0891 -->
    <g transform="translate(94.339139 142.212968) scale(0.1 -0.1)">
     <use xlink:href="#CMSS17-30" transform="scale(0.996264)"/>
     <use xlink:href="#CMSS17-2e" transform="translate(46.843624 0) scale(0.996264)"/>
     <use xlink:href="#CMSS17-30" transform="translate(72.867828 0) scale(0.996264)"/>
     <use xlink:href="#CMSS17-38" transform="translate(119.711452 0) scale(0.996264)"/>
     <use xlink:href="#CMSS17-39" transform="translate(166.555075 0) scale(0.996264)"/>
     <use xlink:href="#CMSS17-31" transform="translate(213.398699 0) scale(0.996264)"/>
    </g>
   </g>
   <g id="text_20">
    <!-- 0.0884 -->
    <g transform="translate(139.993685 144.587459) scale(0.1 -0.1)">
     <use xlink:href="#CMSS17-30" transform="scale(0.996264)"/>
     <use xlink:href="#CMSS17-2e" transform="translate(46.843624 0) scale(0.996264)"/>
     <use xlink:href="#CMSS17-30" transform="translate(72.867828 0) scale(0.996264)"/>
     <use xlink:href="#CMSS17-38" transform="translate(119.711452 0) scale(0.996264)"/>
     <use xlink:href="#CMSS17-38" transform="translate(166.555075 0) scale(0.996264)"/>
     <use xlink:href="#CMSS17-34" transform="translate(213.398699 0) scale(0.996264)"/>
    </g>
   </g>
   <g id="text_21">
    <!-- 0.0892 -->
    <g transform="translate(180.575503 142.217717) scale(0.1 -0.1)">
     <use xlink:href="#CMSS17-30" transform="scale(0.996264)"/>
     <use xlink:href="#CMSS17-2e" transform="translate(46.843624 0) scale(0.996264)"/>
     <use xlink:href="#CMSS17-30" transform="translate(72.867828 0) scale(0.996264)"/>
     <use xlink:href="#CMSS17-38" transform="translate(119.711452 0) scale(0.996264)"/>
     <use xlink:href="#CMSS17-39" transform="translate(166.555075 0) scale(0.996264)"/>
     <use xlink:href="#CMSS17-32" transform="translate(213.398699 0) scale(0.996264)"/>
    </g>
   </g>
   <g id="legend_1">
    <g id="patch_7">
     <path d="M 146.530771 101.939834 
L 205.167091 101.939834 
Q 207.167091 101.939834 207.167091 99.939834 
L 207.167091 73.065477 
Q 207.167091 71.065477 205.167091 71.065477 
L 146.530771 71.065477 
Q 144.530771 71.065477 144.530771 73.065477 
L 144.530771 99.939834 
Q 144.530771 101.939834 146.530771 101.939834 
z
" style="fill: #ffffff; opacity: 0.8; stroke: #cccccc; stroke-linejoin: miter"/>
    </g>
    <g id="line2d_13">
     <path d="M 148.530771 78.565477 
L 158.530771 78.565477 
L 168.530771 78.565477 
" style="fill: none; stroke: #ff0000; stroke-width: 1.5; stroke-linecap: square"/>
     <g>
      <use xlink:href="#m17789ac221" x="158.530771" y="78.565477" style="fill: #ff0000; stroke: #ff0000"/>
     </g>
    </g>
    <g id="text_22">
     <!-- RMSE -->
     <g transform="translate(176.530771 82.065477) scale(0.1 -0.1)">
      <defs>
       <path id="CMSS17-52" d="M 2522 2099 
L 2534 2105 
C 3533 2450 3539 3125 3539 3244 
C 3539 3838 2925 4416 2003 4416 
L 570 4416 
L 570 0 
L 1094 0 
L 1094 2041 
L 2035 2041 
L 3168 0 
L 3706 0 
L 2522 2099 
z
M 1094 2432 
L 1094 4057 
L 1933 4057 
C 2746 4057 3034 3607 3034 3244 
C 3034 2907 2778 2432 1933 2432 
L 1094 2432 
z
" transform="scale(0.015625)"/>
       <path id="CMSS17-4d" d="M 3194 2373 
L 2886 1476 
C 2835 1311 2662 795 2624 592 
L 2618 592 
C 2598 719 2560 853 2458 1177 
C 2400 1368 2336 1565 2272 1743 
L 1325 4416 
L 576 4416 
L 576 0 
L 1075 0 
L 1075 3899 
L 1082 3899 
C 1082 3893 1139 3613 1530 2500 
L 2374 102 
L 2848 102 
L 3610 2233 
C 3661 2379 3821 2843 3891 3066 
C 3955 3257 4115 3728 4154 3912 
L 4160 3912 
L 4160 0 
L 4666 0 
L 4666 4416 
L 3923 4416 
L 3194 2373 
z
" transform="scale(0.015625)"/>
       <path id="CMSS17-53" d="M 2797 4230 
C 2515 4396 2208 4544 1690 4544 
C 864 4544 333 3934 333 3309 
C 333 3064 403 2787 653 2504 
C 902 2220 1184 2143 1542 2053 
C 1690 2014 1939 1943 1984 1924 
C 2342 1782 2515 1454 2515 1144 
C 2515 738 2202 307 1645 307 
C 1453 307 890 339 358 829 
L 269 320 
C 794 -64 1363 -128 1651 -128 
C 2438 -128 3002 494 3002 1202 
C 3002 1460 2925 1789 2656 2092 
C 2394 2381 2163 2446 1638 2588 
C 1338 2665 1146 2717 986 2916 
C 877 3058 819 3193 819 3367 
C 819 3728 1126 4121 1690 4121 
C 1971 4121 2336 4063 2707 3715 
L 2797 4230 
z
" transform="scale(0.015625)"/>
       <path id="CMSS17-45" d="M 1958 435 
C 1446 435 1216 435 1101 428 
L 1101 2105 
L 3085 2105 
L 3085 2496 
L 1101 2496 
L 1101 3993 
L 1926 3993 
C 2003 3993 2080 3987 2157 3987 
L 3251 3987 
L 3251 4403 
L 563 4403 
L 563 0 
L 3334 0 
L 3334 441 
L 1958 435 
z
" transform="scale(0.015625)"/>
      </defs>
      <use xlink:href="#CMSS17-52" transform="scale(0.996264)"/>
      <use xlink:href="#CMSS17-4d" transform="translate(60.416155 0) scale(0.996264)"/>
      <use xlink:href="#CMSS17-53" transform="translate(142.092185 0) scale(0.996264)"/>
      <use xlink:href="#CMSS17-45" transform="translate(194.140701 0) scale(0.996264)"/>
     </g>
    </g>
    <g id="line2d_14">
     <path d="M 148.530771 92.502655 
L 158.530771 92.502655 
L 168.530771 92.502655 
" style="fill: none; stroke: #0000ff; stroke-width: 1.5; stroke-linecap: square"/>
     <g>
      <use xlink:href="#m38b543ec13" x="158.530771" y="92.502655" style="fill: #0000ff; stroke: #0000ff"/>
     </g>
    </g>
    <g id="text_23">
     <!-- MAE -->
     <g transform="translate(176.530771 96.002655) scale(0.1 -0.1)">
      <defs>
       <path id="CMSS17-41" d="M 2272 4416 
L 1722 4416 
L 166 0 
L 653 0 
L 1101 1280 
L 2816 1280 
L 3270 0 
L 3827 0 
L 2272 4416 
z
M 2694 1638 
L 1222 1638 
C 1530 2530 1914 3638 1958 3924 
L 1965 3924 
C 2010 3663 2138 3281 2246 2956 
L 2694 1638 
z
" transform="scale(0.015625)"/>
      </defs>
      <use xlink:href="#CMSS17-4d" transform="scale(0.996264)"/>
      <use xlink:href="#CMSS17-41" transform="translate(81.67603 0) scale(0.996264)"/>
      <use xlink:href="#CMSS17-45" transform="translate(143.893885 0) scale(0.996264)"/>
     </g>
    </g>
   </g>
  </g>
 </g>
 <defs>
  <clipPath id="pe55f742e0d">
   <rect x="44.767091" y="17.202655" width="167.4" height="138.6"/>
  </clipPath>
 </defs>
</svg>
