<?xml version="1.0" encoding="utf-8" standalone="no"?>
<!DOCTYPE svg PUBLIC "-//W3C//DTD SVG 1.1//EN"
  "http://www.w3.org/Graphics/SVG/1.1/DTD/svg11.dtd">
<svg xmlns:xlink="http://www.w3.org/1999/xlink" width="216.876423pt" height="191.714009pt" viewBox="0 0 216.876423 191.714009" xmlns="http://www.w3.org/2000/svg" version="1.1">
 <metadata>
  <rdf:RDF xmlns:dc="http://purl.org/dc/elements/1.1/" xmlns:cc="http://creativecommons.org/ns#" xmlns:rdf="http://www.w3.org/1999/02/22-rdf-syntax-ns#">
   <cc:Work>
    <dc:type rdf:resource="http://purl.org/dc/dcmitype/StillImage"/>
    <dc:date>2025-06-02T21:49:29.660845</dc:date>
    <dc:format>image/svg+xml</dc:format>
    <dc:creator>
     <cc:Agent>
      <dc:title>Matplotlib v3.9.2, https://matplotlib.org/</dc:title>
     </cc:Agent>
    </dc:creator>
   </cc:Work>
  </rdf:RDF>
 </metadata>
 <defs>
  <style type="text/css">*{stroke-linejoin: round; stroke-linecap: butt}</style>
 </defs>
 <g id="figure_1">
  <g id="patch_1">
   <path d="M 0 191.714009 
L 216.876423 191.714009 
L 216.876423 -0 
L 0 -0 
z
" style="fill: #ffffff"/>
  </g>
  <g id="axes_1">
   <g id="patch_2">
    <path d="M 39.785756 155.802655 
L 207.185756 155.802655 
L 207.185756 17.202655 
L 39.785756 17.202655 
z
" style="fill: #ffffff"/>
   </g>
   <g id="matplotlib.axis_1">
    <g id="xtick_1">
     <g id="line2d_1">
      <defs>
       <path id="m138a17a374" d="M 0 0 
L 0 3.5 
" style="stroke: #000000; stroke-width: 0.8"/>
      </defs>
      <g>
       <use xlink:href="#m138a17a374" x="39.785756" y="155.802655" style="stroke: #000000; stroke-width: 0.8"/>
      </g>
     </g>
     <g id="text_1">
      <!-- $\mathdefault{0}$ -->
      <g transform="translate(37.295088 169.721154) scale(0.1 -0.1)">
       <defs>
        <path id="CMR17-30" d="M 2688 2038 
C 2688 2430 2682 3099 2413 3613 
C 2176 4063 1798 4224 1466 4224 
C 1158 4224 768 4082 525 3620 
C 269 3137 243 2539 243 2038 
C 243 1671 250 1112 448 623 
C 723 -39 1216 -128 1466 -128 
C 1760 -128 2208 -7 2470 604 
C 2662 1048 2688 1568 2688 2038 
z
M 1466 -26 
C 1056 -26 813 328 723 816 
C 653 1196 653 1749 653 2109 
C 653 2604 653 3015 736 3407 
C 858 3954 1216 4121 1466 4121 
C 1728 4121 2067 3947 2189 3420 
C 2272 3054 2278 2623 2278 2109 
C 2278 1691 2278 1176 2202 797 
C 2067 96 1690 -26 1466 -26 
z
" transform="scale(0.015625)"/>
       </defs>
       <use xlink:href="#CMR17-30" transform="scale(0.996264)"/>
      </g>
     </g>
    </g>
    <g id="xtick_2">
     <g id="line2d_2">
      <g>
       <use xlink:href="#m138a17a374" x="73.265756" y="155.802655" style="stroke: #000000; stroke-width: 0.8"/>
      </g>
     </g>
     <g id="text_2">
      <!-- $\mathdefault{1}$ -->
      <g transform="translate(70.775088 169.721154) scale(0.1 -0.1)">
       <defs>
        <path id="CMR17-31" d="M 1702 4083 
C 1702 4217 1696 4224 1606 4224 
C 1357 3927 979 3833 621 3820 
C 602 3820 570 3820 563 3808 
C 557 3795 557 3782 557 3648 
C 755 3648 1088 3686 1344 3839 
L 1344 467 
C 1344 243 1331 166 781 166 
L 589 166 
L 589 0 
C 896 6 1216 12 1523 12 
C 1830 12 2150 6 2458 0 
L 2458 166 
L 2266 166 
C 1715 166 1702 236 1702 467 
L 1702 4083 
z
" transform="scale(0.015625)"/>
       </defs>
       <use xlink:href="#CMR17-31" transform="scale(0.996264)"/>
      </g>
     </g>
    </g>
    <g id="xtick_3">
     <g id="line2d_3">
      <g>
       <use xlink:href="#m138a17a374" x="106.745756" y="155.802655" style="stroke: #000000; stroke-width: 0.8"/>
      </g>
     </g>
     <g id="text_3">
      <!-- $\mathdefault{2}$ -->
      <g transform="translate(104.255088 169.721154) scale(0.1 -0.1)">
       <defs>
        <path id="CMR17-32" d="M 2669 990 
L 2554 990 
C 2490 537 2438 460 2413 422 
C 2381 371 1920 371 1830 371 
L 602 371 
C 832 620 1280 1073 1824 1596 
C 2214 1966 2669 2400 2669 3033 
C 2669 3788 2067 4224 1395 4224 
C 691 4224 262 3603 262 3027 
C 262 2777 448 2745 525 2745 
C 589 2745 781 2783 781 3007 
C 781 3206 614 3264 525 3264 
C 486 3264 448 3257 422 3244 
C 544 3788 915 4057 1306 4057 
C 1862 4057 2227 3616 2227 3033 
C 2227 2477 1901 1998 1536 1583 
L 262 147 
L 262 0 
L 2515 0 
L 2669 990 
z
" transform="scale(0.015625)"/>
       </defs>
       <use xlink:href="#CMR17-32" transform="scale(0.996264)"/>
      </g>
     </g>
    </g>
    <g id="xtick_4">
     <g id="line2d_4">
      <g>
       <use xlink:href="#m138a17a374" x="140.225756" y="155.802655" style="stroke: #000000; stroke-width: 0.8"/>
      </g>
     </g>
     <g id="text_4">
      <!-- $\mathdefault{3}$ -->
      <g transform="translate(137.735088 169.721154) scale(0.1 -0.1)">
       <defs>
        <path id="CMR17-33" d="M 1414 2176 
C 1984 2176 2234 1673 2234 1094 
C 2234 322 1824 25 1453 25 
C 1114 25 563 193 390 691 
C 422 678 454 678 486 678 
C 640 678 755 780 755 947 
C 755 1132 614 1216 486 1216 
C 378 1216 211 1164 211 927 
C 211 335 787 -128 1466 -128 
C 2176 -128 2720 432 2720 1087 
C 2720 1718 2208 2176 1600 2246 
C 2086 2347 2554 2776 2554 3353 
C 2554 3856 2048 4224 1472 4224 
C 890 4224 378 3862 378 3347 
C 378 3123 544 3084 627 3084 
C 762 3084 877 3167 877 3334 
C 877 3500 762 3584 627 3584 
C 602 3584 570 3584 544 3571 
C 730 3999 1235 4076 1459 4076 
C 1683 4076 2106 3966 2106 3347 
C 2106 3167 2080 2851 1862 2574 
C 1670 2329 1453 2316 1242 2297 
C 1210 2297 1062 2284 1037 2284 
C 992 2278 966 2272 966 2227 
C 966 2182 973 2176 1101 2176 
L 1414 2176 
z
" transform="scale(0.015625)"/>
       </defs>
       <use xlink:href="#CMR17-33" transform="scale(0.996264)"/>
      </g>
     </g>
    </g>
    <g id="xtick_5">
     <g id="line2d_5">
      <g>
       <use xlink:href="#m138a17a374" x="173.705756" y="155.802655" style="stroke: #000000; stroke-width: 0.8"/>
      </g>
     </g>
     <g id="text_5">
      <!-- $\mathdefault{4}$ -->
      <g transform="translate(171.215088 169.721154) scale(0.1 -0.1)">
       <defs>
        <path id="CMR17-34" d="M 2150 4147 
C 2150 4281 2144 4288 2029 4288 
L 128 1254 
L 128 1088 
L 1779 1088 
L 1779 460 
C 1779 230 1766 166 1318 166 
L 1197 166 
L 1197 0 
C 1402 12 1747 12 1965 12 
C 2182 12 2528 12 2733 0 
L 2733 166 
L 2611 166 
C 2163 166 2150 230 2150 460 
L 2150 1088 
L 2803 1088 
L 2803 1254 
L 2150 1254 
L 2150 4147 
z
M 1798 3723 
L 1798 1254 
L 256 1254 
L 1798 3723 
z
" transform="scale(0.015625)"/>
       </defs>
       <use xlink:href="#CMR17-34" transform="scale(0.996264)"/>
      </g>
     </g>
    </g>
    <g id="xtick_6">
     <g id="line2d_6">
      <g>
       <use xlink:href="#m138a17a374" x="207.185756" y="155.802655" style="stroke: #000000; stroke-width: 0.8"/>
      </g>
     </g>
     <g id="text_6">
      <!-- $\mathdefault{5}$ -->
      <g transform="translate(204.695088 169.721154) scale(0.1 -0.1)">
       <defs>
        <path id="CMR17-35" d="M 730 3750 
C 794 3724 1056 3641 1325 3641 
C 1920 3641 2246 3961 2432 4140 
C 2432 4191 2432 4224 2394 4224 
C 2387 4224 2374 4224 2323 4198 
C 2099 4102 1837 4032 1517 4032 
C 1325 4032 1037 4055 723 4191 
C 653 4224 640 4224 634 4224 
C 602 4224 595 4217 595 4090 
L 595 2231 
C 595 2113 595 2080 659 2080 
C 691 2080 704 2093 736 2139 
C 941 2435 1222 2560 1542 2560 
C 1766 2560 2246 2415 2246 1293 
C 2246 1087 2246 716 2054 422 
C 1894 159 1645 25 1370 25 
C 947 25 518 319 403 812 
C 429 806 480 793 506 793 
C 589 793 749 838 749 1036 
C 749 1209 627 1280 506 1280 
C 358 1280 262 1190 262 1011 
C 262 454 704 -128 1382 -128 
C 2042 -128 2669 441 2669 1267 
C 2669 2054 2170 2662 1549 2662 
C 1222 2662 947 2540 730 2304 
L 730 3750 
z
" transform="scale(0.015625)"/>
       </defs>
       <use xlink:href="#CMR17-35" transform="scale(0.996264)"/>
      </g>
     </g>
    </g>
    <g id="text_7">
     <!-- $Epoch$ -->
     <g transform="translate(109.574954 182.576831) scale(0.1 -0.1)">
      <defs>
       <path id="CMMI12-45" d="M 4448 1489 
C 4454 1508 4474 1553 4474 1578 
C 4474 1611 4448 1643 4410 1643 
C 4384 1643 4371 1636 4352 1617 
C 4339 1611 4339 1598 4282 1469 
C 3904 570 3629 185 2605 185 
L 1670 185 
C 1581 185 1568 185 1530 192 
C 1459 198 1453 211 1453 262 
C 1453 307 1466 346 1478 403 
L 1920 2176 
L 2554 2176 
C 3053 2176 3091 2066 3091 1874 
C 3091 1810 3091 1752 3046 1559 
C 3034 1534 3027 1508 3027 1489 
C 3027 1444 3059 1424 3098 1424 
C 3155 1424 3162 1469 3187 1559 
L 3552 3036 
C 3552 3068 3526 3099 3488 3099 
C 3430 3099 3424 3074 3398 2986 
C 3270 2500 3142 2361 2573 2361 
L 1965 2361 
L 2362 3913 
C 2419 4134 2432 4153 2694 4153 
L 3610 4153 
C 4397 4153 4557 3945 4557 3465 
C 4557 3459 4557 3282 4531 3074 
C 4525 3049 4518 3011 4518 2998 
C 4518 2948 4550 2929 4589 2929 
C 4634 2929 4659 2954 4672 3068 
L 4806 4172 
C 4806 4191 4819 4255 4819 4268 
C 4819 4339 4762 4339 4646 4339 
L 1523 4339 
C 1402 4339 1338 4339 1338 4223 
C 1338 4153 1382 4153 1491 4153 
C 1888 4153 1888 4109 1888 4039 
C 1888 4008 1882 3983 1862 3913 
L 998 474 
C 941 249 928 185 480 185 
C 358 185 294 185 294 70 
C 294 0 333 0 461 0 
L 3674 0 
C 3814 0 3821 6 3866 108 
L 4448 1489 
z
" transform="scale(0.015625)"/>
       <path id="CMMI12-70" d="M 275 -794 
C 230 -981 205 -1031 -58 -1031 
C -135 -1031 -199 -1031 -199 -1152 
C -199 -1165 -192 -1216 -122 -1216 
C -39 -1216 51 -1204 134 -1204 
L 410 -1204 
C 544 -1204 870 -1216 1005 -1216 
C 1043 -1216 1120 -1216 1120 -1101 
C 1120 -1031 1075 -1031 966 -1031 
C 672 -1031 653 -987 653 -937 
C 653 -863 941 217 979 364 
C 1050 185 1222 -64 1555 -64 
C 2278 -64 3059 874 3059 1813 
C 3059 2400 2726 2816 2246 2816 
C 1837 2816 1491 2419 1421 2330 
C 1370 2649 1120 2816 864 2816 
C 678 2816 531 2726 410 2483 
C 294 2253 205 1864 205 1838 
C 205 1813 230 1781 275 1781 
C 326 1781 333 1787 371 1934 
C 467 2311 589 2687 845 2687 
C 992 2687 1043 2585 1043 2394 
C 1043 2241 1024 2177 998 2062 
L 275 -794 
z
M 1382 1992 
C 1427 2170 1606 2356 1709 2445 
C 1779 2509 1990 2687 2234 2687 
C 2515 2687 2643 2407 2643 2075 
C 2643 1768 2464 1047 2304 715 
C 2144 370 1850 64 1555 64 
C 1120 64 1050 613 1050 638 
C 1050 657 1062 708 1069 740 
L 1382 1992 
z
" transform="scale(0.015625)"/>
       <path id="CMMI12-6f" d="M 2918 1755 
C 2918 2362 2522 2816 1939 2816 
C 1094 2816 262 1896 262 996 
C 262 389 659 -64 1242 -64 
C 2093 -64 2918 855 2918 1755 
z
M 1248 64 
C 928 64 691 319 691 766 
C 691 1060 845 1711 1024 2030 
C 1312 2522 1670 2687 1933 2687 
C 2246 2687 2490 2432 2490 1985 
C 2490 1730 2355 1047 2112 657 
C 1850 230 1498 64 1248 64 
z
" transform="scale(0.015625)"/>
       <path id="CMMI12-63" d="M 2502 2432 
C 2381 2432 2323 2432 2234 2355 
C 2195 2323 2125 2227 2125 2124 
C 2125 1996 2221 1919 2342 1919 
C 2496 1919 2669 2047 2669 2303 
C 2669 2591 2374 2816 1933 2816 
C 1094 2816 256 1932 256 1011 
C 256 446 602 -64 1254 -64 
C 2125 -64 2675 622 2675 706 
C 2675 745 2637 777 2611 777 
C 2592 777 2586 771 2528 712 
C 2118 161 1510 64 1267 64 
C 826 64 685 453 685 777 
C 685 1004 794 1634 1024 2073 
C 1190 2374 1536 2687 1939 2687 
C 2022 2687 2374 2676 2502 2432 
z
" transform="scale(0.015625)"/>
       <path id="CMMI12-68" d="M 1798 4255 
C 1805 4281 1818 4319 1818 4351 
C 1818 4416 1754 4416 1741 4416 
C 1734 4416 1421 4390 1389 4383 
C 1280 4377 1184 4364 1069 4358 
C 909 4345 864 4339 864 4223 
C 864 4159 915 4159 1005 4159 
C 1318 4159 1325 4103 1325 4040 
C 1325 4002 1312 3951 1306 3932 
L 378 249 
C 352 153 352 140 352 102 
C 352 -39 461 -64 525 -64 
C 634 -64 717 19 749 89 
L 1037 1245 
C 1069 1385 1107 1519 1139 1660 
C 1210 1928 1210 1934 1331 2119 
C 1453 2305 1741 2687 2234 2687 
C 2490 2687 2579 2496 2579 2241 
C 2579 1883 2330 1187 2189 804 
C 2131 651 2099 568 2099 453 
C 2099 166 2298 -64 2605 -64 
C 3200 -64 3424 874 3424 913 
C 3424 945 3398 970 3360 970 
C 3302 970 3296 951 3264 842 
C 3117 332 2880 64 2624 64 
C 2560 64 2458 70 2458 274 
C 2458 440 2534 645 2560 715 
C 2675 1021 2963 1775 2963 2145 
C 2963 2528 2739 2816 2253 2816 
C 1888 2816 1568 2643 1306 2311 
L 1798 4255 
z
" transform="scale(0.015625)"/>
      </defs>
      <use xlink:href="#CMMI12-45" transform="scale(0.996264)"/>
      <use xlink:href="#CMMI12-70" transform="translate(78.051636 0) scale(0.996264)"/>
      <use xlink:href="#CMMI12-6f" transform="translate(127.01115 0) scale(0.996264)"/>
      <use xlink:href="#CMMI12-63" transform="translate(173.90646 0) scale(0.996264)"/>
      <use xlink:href="#CMMI12-68" transform="translate(215.889693 0) scale(0.996264)"/>
     </g>
    </g>
    <g id="text_8">
     <!-- $\times\mathdefault{10^{2}}\mathdefault{}$ -->
     <g transform="translate(185.503104 181.660988) scale(0.1 -0.1)">
      <defs>
       <path id="CMSY10-2" d="M 2490 1775 
L 1210 3046 
C 1133 3123 1120 3136 1069 3136 
C 1005 3136 941 3078 941 3008 
C 941 2963 954 2950 1024 2880 
L 2304 1596 
L 1024 313 
C 954 243 941 230 941 185 
C 941 115 1005 57 1069 57 
C 1120 57 1133 70 1210 147 
L 2483 1418 
L 3808 95 
C 3821 89 3866 57 3904 57 
C 3981 57 4032 115 4032 185 
C 4032 198 4032 223 4013 255 
C 4006 268 2989 1271 2669 1596 
L 3840 2765 
C 3872 2803 3968 2886 4000 2925 
C 4006 2937 4032 2963 4032 3008 
C 4032 3078 3981 3136 3904 3136 
C 3853 3136 3827 3110 3757 3040 
L 2490 1775 
z
" transform="scale(0.015625)"/>
      </defs>
      <use xlink:href="#CMSY10-2" transform="scale(0.996264)"/>
      <use xlink:href="#CMR17-31" transform="translate(77.487468 0) scale(0.996264)"/>
      <use xlink:href="#CMR17-30" transform="translate(123.177945 0) scale(0.996264)"/>
      <use xlink:href="#CMR17-32" transform="translate(168.868422 36.153639) scale(0.697382)"/>
     </g>
    </g>
   </g>
   <g id="matplotlib.axis_2">
    <g id="ytick_1">
     <g id="line2d_7">
      <defs>
       <path id="m0577619f51" d="M 0 0 
L -3.5 0 
" style="stroke: #000000; stroke-width: 0.8"/>
      </defs>
      <g>
       <use xlink:href="#m0577619f51" x="39.785756" y="145.141117" style="stroke: #000000; stroke-width: 0.8"/>
      </g>
     </g>
     <g id="text_9">
      <!-- $\mathdefault{0.4}$ -->
      <g transform="translate(20.055677 148.600366) scale(0.1 -0.1)">
       <defs>
        <path id="CMMI12-3a" d="M 1178 307 
C 1178 492 1024 620 870 620 
C 685 620 557 467 557 313 
C 557 128 710 0 864 0 
C 1050 0 1178 153 1178 307 
z
" transform="scale(0.015625)"/>
       </defs>
       <use xlink:href="#CMR17-30" transform="scale(0.996264)"/>
       <use xlink:href="#CMMI12-3a" transform="translate(45.690477 0) scale(0.996264)"/>
       <use xlink:href="#CMR17-34" transform="translate(72.787654 0) scale(0.996264)"/>
      </g>
     </g>
    </g>
    <g id="ytick_2">
     <g id="line2d_8">
      <g>
       <use xlink:href="#m0577619f51" x="39.785756" y="102.494963" style="stroke: #000000; stroke-width: 0.8"/>
      </g>
     </g>
     <g id="text_10">
      <!-- $\mathdefault{0.6}$ -->
      <g transform="translate(20.055677 105.954212) scale(0.1 -0.1)">
       <defs>
        <path id="CMR17-36" d="M 678 2198 
C 678 3712 1395 4076 1811 4076 
C 1946 4076 2272 4049 2400 3782 
C 2298 3782 2106 3782 2106 3558 
C 2106 3385 2246 3328 2336 3328 
C 2394 3328 2566 3353 2566 3571 
C 2566 3987 2246 4224 1805 4224 
C 1043 4224 243 3411 243 2011 
C 243 257 966 -128 1478 -128 
C 2099 -128 2688 431 2688 1295 
C 2688 2101 2170 2688 1517 2688 
C 1126 2688 838 2430 678 1979 
L 678 2198 
z
M 1478 25 
C 691 25 691 1212 691 1450 
C 691 1914 909 2585 1504 2585 
C 1613 2585 1926 2585 2138 2140 
C 2253 1889 2253 1624 2253 1302 
C 2253 954 2253 696 2118 438 
C 1978 173 1773 25 1478 25 
z
" transform="scale(0.015625)"/>
       </defs>
       <use xlink:href="#CMR17-30" transform="scale(0.996264)"/>
       <use xlink:href="#CMMI12-3a" transform="translate(45.690477 0) scale(0.996264)"/>
       <use xlink:href="#CMR17-36" transform="translate(72.787654 0) scale(0.996264)"/>
      </g>
     </g>
    </g>
    <g id="ytick_3">
     <g id="line2d_9">
      <g>
       <use xlink:href="#m0577619f51" x="39.785756" y="59.848809" style="stroke: #000000; stroke-width: 0.8"/>
      </g>
     </g>
     <g id="text_11">
      <!-- $\mathdefault{0.8}$ -->
      <g transform="translate(20.055677 63.308058) scale(0.1 -0.1)">
       <defs>
        <path id="CMR17-38" d="M 1741 2289 
C 2144 2494 2554 2803 2554 3298 
C 2554 3884 1990 4224 1472 4224 
C 890 4224 378 3800 378 3215 
C 378 3054 416 2777 666 2533 
C 730 2469 998 2276 1171 2154 
C 883 2006 211 1652 211 945 
C 211 282 838 -128 1459 -128 
C 2144 -128 2720 366 2720 1022 
C 2720 1607 2330 1877 2074 2051 
L 1741 2289 
z
M 902 2855 
C 851 2887 595 3086 595 3388 
C 595 3781 998 4076 1459 4076 
C 1965 4076 2336 3716 2336 3298 
C 2336 2700 1670 2359 1638 2359 
C 1632 2359 1626 2359 1574 2398 
L 902 2855 
z
M 2080 1536 
C 2176 1466 2483 1253 2483 861 
C 2483 385 2010 25 1472 25 
C 890 25 448 443 448 951 
C 448 1459 838 1884 1280 2083 
L 2080 1536 
z
" transform="scale(0.015625)"/>
       </defs>
       <use xlink:href="#CMR17-30" transform="scale(0.996264)"/>
       <use xlink:href="#CMMI12-3a" transform="translate(45.690477 0) scale(0.996264)"/>
       <use xlink:href="#CMR17-38" transform="translate(72.787654 0) scale(0.996264)"/>
      </g>
     </g>
    </g>
    <g id="ytick_4">
     <g id="line2d_10">
      <g>
       <use xlink:href="#m0577619f51" x="39.785756" y="17.202655" style="stroke: #000000; stroke-width: 0.8"/>
      </g>
     </g>
     <g id="text_12">
      <!-- $\mathdefault{1.0}$ -->
      <g transform="translate(20.055677 20.661905) scale(0.1 -0.1)">
       <use xlink:href="#CMR17-31" transform="scale(0.996264)"/>
       <use xlink:href="#CMMI12-3a" transform="translate(45.690477 0) scale(0.996264)"/>
       <use xlink:href="#CMR17-30" transform="translate(72.787654 0) scale(0.996264)"/>
      </g>
     </g>
    </g>
    <g id="text_13">
     <!-- $Loss$ -->
     <g transform="translate(14.118498 96.977276) rotate(-90) scale(0.1 -0.1)">
      <defs>
       <path id="CMMI12-4c" d="M 2349 3860 
C 2406 4102 2426 4166 2989 4166 
C 3162 4166 3206 4166 3206 4287 
C 3206 4352 3136 4352 3110 4352 
C 2982 4352 2835 4339 2707 4339 
L 1850 4339 
C 1728 4339 1587 4352 1466 4352 
C 1414 4352 1344 4352 1344 4230 
C 1344 4166 1402 4166 1498 4166 
C 1888 4166 1888 4115 1888 4045 
C 1888 4032 1888 3994 1862 3898 
L 998 472 
C 941 249 928 185 480 185 
C 358 185 294 185 294 70 
C 294 0 333 0 461 0 
L 3328 0 
C 3469 0 3475 6 3520 121 
L 4013 1478 
C 4026 1510 4038 1548 4038 1567 
C 4038 1605 4006 1631 3974 1631 
C 3968 1631 3936 1631 3923 1605 
C 3910 1599 3910 1586 3859 1465 
C 3654 905 3366 185 2285 185 
L 1670 185 
C 1581 185 1568 185 1530 191 
C 1459 198 1453 211 1453 262 
C 1453 306 1466 344 1478 402 
L 2349 3860 
z
" transform="scale(0.015625)"/>
       <path id="CMMI12-73" d="M 1459 1290 
C 1568 1271 1741 1233 1779 1227 
C 1862 1201 2150 1099 2150 793 
C 2150 595 1971 64 1229 64 
C 1094 64 614 83 486 447 
C 742 414 870 614 870 755 
C 870 889 781 960 653 960 
C 512 960 326 851 326 563 
C 326 176 710 -64 1222 -64 
C 2195 -64 2483 665 2483 998 
C 2483 1093 2483 1271 2278 1475 
C 2118 1627 1965 1659 1619 1729 
C 1446 1767 1171 1824 1171 2111 
C 1171 2239 1286 2687 1894 2687 
C 2163 2687 2426 2589 2490 2368 
C 2208 2368 2195 2124 2195 2118 
C 2195 1983 2317 1945 2374 1945 
C 2464 1945 2643 2015 2643 2284 
C 2643 2546 2400 2816 1901 2816 
C 1062 2816 838 2169 838 1907 
C 838 1424 1312 1322 1459 1290 
z
" transform="scale(0.015625)"/>
      </defs>
      <use xlink:href="#CMMI12-4c" transform="scale(0.996264)"/>
      <use xlink:href="#CMMI12-6f" transform="translate(66.370875 0) scale(0.996264)"/>
      <use xlink:href="#CMMI12-73" transform="translate(113.266185 0) scale(0.996264)"/>
      <use xlink:href="#CMMI12-73" transform="translate(159.216233 0) scale(0.996264)"/>
     </g>
    </g>
    <g id="text_14">
     <!-- $\times\mathdefault{10^{−1}}\mathdefault{}$ -->
     <g transform="translate(39.785756 14.202655) scale(0.1 -0.1)">
      <defs>
       <path id="CMSY10-0" d="M 4218 1472 
C 4326 1472 4442 1472 4442 1600 
C 4442 1728 4326 1728 4218 1728 
L 755 1728 
C 646 1728 531 1728 531 1600 
C 531 1472 646 1472 755 1472 
L 4218 1472 
z
" transform="scale(0.015625)"/>
      </defs>
      <use xlink:href="#CMSY10-2" transform="scale(0.996264)"/>
      <use xlink:href="#CMR17-31" transform="translate(77.487468 0) scale(0.996264)"/>
      <use xlink:href="#CMR17-30" transform="translate(123.177945 0) scale(0.996264)"/>
      <use xlink:href="#CMSY10-0" transform="translate(168.868422 36.153639) scale(0.697382)"/>
      <use xlink:href="#CMR17-31" transform="translate(223.109415 36.153639) scale(0.697382)"/>
     </g>
    </g>
   </g>
   <g id="line2d_11">
    <path d="M 50.693181 -1 
L 50.834156 12.707223 
L 51.503756 36.056896 
L 51.838556 40.687602 
L 52.508156 57.352055 
L 52.842956 63.991616 
L 53.177756 73.641687 
L 53.847356 83.91621 
L 54.516956 85.364415 
L 55.186556 93.236992 
L 55.521356 96.164302 
L 55.856156 95.719246 
L 56.190956 96.7104 
L 56.860556 101.813035 
L 57.195356 100.220736 
L 57.864956 104.273254 
L 58.199756 105.318931 
L 58.534556 107.533943 
L 58.869356 108.717773 
L 59.204156 109.075388 
L 59.538956 109.19856 
L 59.873756 110.099793 
L 60.208556 108.020067 
L 61.212956 112.078225 
L 61.547756 112.94855 
L 61.882556 112.732464 
L 62.217356 112.737198 
L 62.552156 113.84779 
L 63.221756 113.919512 
L 63.556556 114.811563 
L 63.891356 115.218737 
L 64.226156 116.956346 
L 64.560956 117.292267 
L 65.230556 117.602738 
L 65.900156 118.514457 
L 66.234956 119.018223 
L 66.569756 118.558035 
L 67.239356 119.351611 
L 67.574156 119.652716 
L 67.908956 119.345232 
L 68.578556 119.955338 
L 68.913356 120.00423 
L 69.917756 120.474181 
L 70.252556 120.424781 
L 70.587356 120.622374 
L 70.922156 120.520086 
L 71.256956 120.688035 
L 71.926556 121.367797 
L 72.261356 121.340885 
L 72.596156 121.114663 
L 72.930956 121.291087 
L 73.600556 121.789055 
L 73.935356 121.726659 
L 74.270156 122.259189 
L 74.604956 122.250419 
L 74.939756 122.417455 
L 75.274556 122.110217 
L 76.613756 122.717511 
L 76.948556 123.099457 
L 77.283356 123.223502 
L 77.618156 123.150962 
L 77.952956 123.380989 
L 78.287756 123.196311 
L 78.622556 123.744426 
L 78.957356 123.886114 
L 79.292156 123.570417 
L 80.296556 124.082119 
L 80.631356 123.719802 
L 80.966156 124.385957 
L 81.635756 124.480055 
L 81.970556 124.745915 
L 82.305356 124.465161 
L 83.644556 125.214547 
L 83.979356 124.849831 
L 84.314156 125.415215 
L 84.648956 125.114293 
L 84.983756 125.283838 
L 85.653356 125.282392 
L 85.988156 125.972783 
L 86.657756 125.867659 
L 86.992556 126.05012 
L 87.662156 125.953488 
L 87.996956 126.202786 
L 88.331756 126.109641 
L 88.666556 126.159105 
L 89.001356 126.540741 
L 89.336156 126.743791 
L 89.670956 126.719413 
L 90.675356 127.116427 
L 91.010156 127.076019 
L 91.344956 126.827492 
L 91.679756 127.311559 
L 92.014556 127.459792 
L 92.349356 127.044301 
L 93.353756 127.669046 
L 94.692956 127.987484 
L 95.362556 128.05019 
L 96.366956 128.532112 
L 96.701756 128.260493 
L 97.036556 128.833963 
L 97.371356 128.762838 
L 97.706156 129.017489 
L 98.375756 128.954617 
L 98.710556 129.078797 
L 99.380156 129.0913 
L 99.714956 129.234926 
L 100.049756 129.241384 
L 100.384556 129.533735 
L 100.719356 129.54546 
L 101.054156 129.172911 
L 101.388956 129.528762 
L 102.058556 129.869172 
L 102.393356 129.662324 
L 102.728156 129.955819 
L 103.062956 129.837382 
L 104.402156 130.109422 
L 104.736956 130.447901 
L 105.071756 130.274209 
L 105.741356 130.685418 
L 106.076156 130.397174 
L 106.410956 130.574512 
L 106.745756 131.077619 
L 107.415356 131.143939 
L 107.750156 130.833175 
L 108.084956 131.255854 
L 108.419756 131.205699 
L 108.754556 131.269223 
L 109.089356 131.490417 
L 109.424156 131.049436 
L 110.093756 131.807496 
L 110.428556 131.614057 
L 110.763356 131.618783 
L 111.098156 131.47094 
L 112.102556 131.936387 
L 112.437356 131.486302 
L 112.772156 131.979687 
L 113.106956 131.855149 
L 113.441756 132.373 
L 113.776556 132.229342 
L 114.111356 131.858414 
L 114.446156 132.815975 
L 114.780956 132.787005 
L 115.115756 132.315767 
L 115.450556 132.37122 
L 115.785356 132.573127 
L 116.120156 132.532131 
L 116.789756 132.985337 
L 117.124556 132.977529 
L 117.794156 133.269737 
L 118.128956 133.119328 
L 118.463756 133.474313 
L 118.798556 133.334898 
L 119.133356 133.521069 
L 119.468156 133.231744 
L 119.802956 133.308104 
L 120.137756 133.629608 
L 120.472556 133.64733 
L 121.142156 133.995492 
L 121.476956 133.661017 
L 121.811756 133.883743 
L 122.146556 133.96491 
L 122.481356 133.806573 
L 122.816156 134.256371 
L 123.485756 134.076523 
L 123.820556 134.322262 
L 124.155356 134.156792 
L 124.490156 134.384031 
L 124.824956 134.448142 
L 125.159756 134.301911 
L 125.829356 134.701698 
L 126.164156 134.368469 
L 126.833756 134.865595 
L 127.168556 134.65082 
L 127.503356 134.836069 
L 127.838156 134.877971 
L 128.507756 135.172539 
L 128.842556 135.087488 
L 129.177356 135.293963 
L 129.512156 135.139581 
L 130.181756 135.499849 
L 130.516556 135.581691 
L 130.851356 135.410875 
L 131.520956 135.846081 
L 132.190556 135.615864 
L 132.525356 135.778863 
L 133.194956 135.94199 
L 133.529756 136.066369 
L 133.864556 135.764756 
L 135.203756 136.049616 
L 135.538556 136.467165 
L 135.873356 136.25196 
L 136.208156 136.583489 
L 136.542956 136.418471 
L 137.547356 136.643549 
L 137.882156 136.323086 
L 138.216956 136.692719 
L 138.551756 136.617153 
L 138.886556 136.86344 
L 139.221356 136.845472 
L 139.556156 137.064625 
L 139.890956 136.761478 
L 140.225756 137.150358 
L 140.560556 137.116885 
L 140.895356 137.217298 
L 141.230156 136.819283 
L 141.564956 137.117631 
L 141.899756 137.250239 
L 142.234556 137.505797 
L 142.569356 137.391999 
L 142.904156 137.598997 
L 143.238956 137.377295 
L 143.908556 137.658692 
L 144.912956 137.57705 
L 145.247756 137.520484 
L 145.917356 137.911493 
L 146.252156 137.839112 
L 146.586956 137.95527 
L 146.921756 137.790618 
L 147.256556 137.859694 
L 147.591356 138.254158 
L 148.260956 138.037874 
L 148.930556 138.487561 
L 149.265356 138.066566 
L 149.934956 138.58718 
L 150.269756 138.424188 
L 151.274156 138.978364 
L 151.608956 138.713593 
L 151.943756 138.851602 
L 152.613356 138.734754 
L 152.948156 139.097683 
L 153.617756 138.80337 
L 153.952556 139.128512 
L 154.287356 138.630051 
L 154.622156 139.246615 
L 154.956956 138.87162 
L 155.291756 139.123459 
L 155.626556 139.120735 
L 155.961356 139.412737 
L 156.296156 139.371153 
L 156.630956 139.701267 
L 156.965756 139.485753 
L 157.300556 139.504698 
L 157.635356 139.728895 
L 157.970156 139.238171 
L 158.304956 139.6821 
L 158.639756 139.888455 
L 159.309356 139.577579 
L 159.644156 139.955808 
L 159.978956 140.06623 
L 160.313756 139.965284 
L 160.983356 140.145712 
L 161.652956 140.26318 
L 161.987756 140.000124 
L 162.322556 140.282784 
L 162.992156 140.161782 
L 163.326956 140.188503 
L 163.661756 140.369392 
L 164.331356 140.441701 
L 164.666156 140.636451 
L 165.000956 140.433146 
L 165.335756 140.509046 
L 165.670556 140.72653 
L 166.340156 140.659265 
L 166.674956 140.962864 
L 167.344556 140.707132 
L 167.679356 141.015688 
L 168.348956 140.906998 
L 168.683756 140.973866 
L 169.018556 141.164819 
L 169.688156 140.994114 
L 170.022956 141.328319 
L 170.692556 141.501264 
L 171.362156 141.269681 
L 172.031756 141.53759 
L 172.366556 141.079975 
L 172.701356 141.442665 
L 173.036156 141.624912 
L 173.705756 141.478641 
L 174.040556 141.644016 
L 174.375356 141.521186 
L 174.710156 141.887563 
L 175.044956 141.909129 
L 175.379756 141.541768 
L 175.714556 141.894958 
L 176.049356 141.754121 
L 176.384156 142.126351 
L 177.388556 141.92338 
L 177.723356 142.172932 
L 178.058156 142.137218 
L 178.392956 142.369572 
L 178.727756 142.175514 
L 179.062556 142.42644 
L 180.066956 142.141333 
L 180.401756 142.497812 
L 180.736556 142.480145 
L 181.071356 142.702674 
L 181.406156 142.313309 
L 182.075756 142.940199 
L 182.410556 142.703762 
L 182.745356 142.966842 
L 183.080156 142.802976 
L 184.084556 142.95294 
L 184.419356 142.858771 
L 184.754156 143.040398 
L 185.423756 143.136228 
L 185.758556 143.242448 
L 186.093356 143.165365 
L 186.428156 143.406449 
L 187.097756 143.236872 
L 187.432556 143.451186 
L 188.771756 143.787775 
L 189.106556 143.328841 
L 189.441356 143.530629 
L 189.776156 143.523385 
L 190.110956 143.686877 
L 190.780556 143.562625 
L 191.115356 143.639129 
L 191.450156 143.414067 
L 191.784956 143.806013 
L 192.454556 143.789006 
L 192.789356 144.097093 
L 194.128556 143.981897 
L 195.802556 144.203758 
L 196.137356 144.109914 
L 197.141756 144.670484 
L 197.476556 144.328796 
L 198.146156 144.532467 
L 198.480956 144.36119 
L 198.815756 144.91442 
L 199.150556 144.685799 
L 199.485356 144.914047 
L 200.154956 144.664924 
L 200.824556 144.940864 
L 201.494156 144.726518 
L 201.828956 145.033024 
L 202.163756 144.850253 
L 202.833356 145.118361 
L 203.168156 144.921363 
L 203.502956 145.09434 
L 203.837756 145.111236 
L 204.507356 145.302165 
L 205.511756 145.447204 
L 205.846556 145.218997 
L 206.181356 145.464188 
L 206.516156 145.414628 
L 206.850956 145.644766 
L 206.850956 145.644766 
" clip-path="url(#p8620ee25c1)" style="fill: none; stroke: #1f77b4; stroke-width: 1.5; stroke-linecap: square"/>
   </g>
   <g id="line2d_12">
    <path d="M 52.165758 -1 
L 52.508156 16.376214 
L 52.842956 32.815263 
L 53.847356 61.169605 
L 54.516956 74.089889 
L 55.186556 83.047163 
L 56.190956 93.541386 
L 56.525756 95.506075 
L 57.195356 102.105204 
L 57.864956 108.53227 
L 58.199756 109.214383 
L 58.869356 112.24217 
L 59.204156 112.708531 
L 59.538956 112.956796 
L 59.873756 113.922252 
L 60.208556 114.170112 
L 61.547756 116.101955 
L 61.882556 116.672637 
L 62.217356 116.792925 
L 62.552156 117.494611 
L 62.886956 117.720865 
L 63.221756 118.116871 
L 63.556556 118.790572 
L 63.891356 118.387822 
L 64.226156 119.248973 
L 65.230556 120.104731 
L 65.565356 120.215852 
L 66.234956 121.408778 
L 66.569756 121.032146 
L 67.574156 122.16374 
L 67.908956 121.785616 
L 68.243756 121.947265 
L 68.578556 122.474139 
L 68.913356 122.595722 
L 69.917756 123.349255 
L 70.252556 123.410205 
L 70.587356 123.634362 
L 70.922156 123.64951 
L 71.256956 123.906052 
L 71.926556 124.629479 
L 72.596156 124.267432 
L 72.930956 124.301708 
L 73.600556 125.039759 
L 73.935356 125.110559 
L 74.270156 125.672004 
L 74.604956 125.722484 
L 74.939756 125.917949 
L 75.274556 125.785047 
L 75.609356 126.030651 
L 75.944156 126.43035 
L 76.613756 126.807697 
L 76.948556 127.251975 
L 77.283356 127.502384 
L 77.618156 127.449457 
L 77.952956 127.738988 
L 78.287756 127.614062 
L 78.622556 128.192131 
L 78.957356 128.413841 
L 79.292156 128.113729 
L 79.626956 128.400203 
L 80.296556 128.739849 
L 80.631356 128.428767 
L 80.966156 129.4319 
L 81.300956 129.686154 
L 81.635756 129.737644 
L 81.970556 130.012901 
L 82.305356 129.764167 
L 83.644556 130.579079 
L 83.979356 130.243325 
L 84.314156 130.726851 
L 84.648956 130.54416 
L 85.653356 130.730537 
L 85.988156 131.379788 
L 86.322956 131.234169 
L 86.657756 131.269708 
L 86.992556 131.450938 
L 87.662156 131.374617 
L 87.996956 131.557857 
L 88.331756 131.483395 
L 88.666556 131.547094 
L 89.336156 132.133369 
L 90.675356 132.787609 
L 91.010156 132.721138 
L 91.344956 132.481547 
L 91.679756 132.994997 
L 92.014556 133.12855 
L 92.349356 132.751807 
L 93.688556 133.531284 
L 94.023356 133.471628 
L 94.358156 133.696675 
L 95.027756 133.707962 
L 96.032156 134.048928 
L 96.366956 134.218616 
L 96.701756 133.992108 
L 97.036556 134.522946 
L 97.371356 134.519848 
L 97.706156 134.695843 
L 98.375756 134.639048 
L 99.045356 134.79049 
L 99.380156 134.806162 
L 100.384556 135.231511 
L 100.719356 135.266947 
L 101.054156 134.919952 
L 101.388956 135.240416 
L 102.058556 135.588355 
L 102.393356 135.437954 
L 102.728156 135.735977 
L 103.062956 135.508674 
L 103.732556 135.867973 
L 104.402156 135.921973 
L 104.736956 136.257227 
L 105.071756 136.174591 
L 105.406556 136.229925 
L 105.741356 136.429521 
L 106.076156 136.224206 
L 106.410956 136.330839 
L 106.745756 136.803706 
L 107.415356 136.977747 
L 107.750156 136.631221 
L 108.084956 136.811744 
L 108.419756 136.2576 
L 109.089356 137.165443 
L 109.424156 136.842406 
L 110.093756 137.66407 
L 110.428556 137.472069 
L 110.763356 137.531128 
L 111.098156 137.436998 
L 112.102556 137.855047 
L 112.437356 137.483039 
L 112.772156 137.932003 
L 113.106956 137.826371 
L 113.441756 138.357249 
L 114.111356 137.886606 
L 114.446156 138.726699 
L 114.780956 138.746439 
L 115.115756 138.292231 
L 115.450556 138.34365 
L 115.785356 138.581493 
L 116.120156 138.542705 
L 116.789756 138.94856 
L 117.124556 138.963701 
L 117.794156 139.262724 
L 118.128956 139.144287 
L 118.463756 139.47043 
L 118.798556 139.324374 
L 119.133356 139.528076 
L 119.468156 139.267657 
L 119.802956 139.376213 
L 120.137756 139.625351 
L 120.472556 139.66495 
L 121.142156 140.021031 
L 121.476956 139.710172 
L 122.146556 140.019173 
L 122.481356 139.877628 
L 122.816156 140.289671 
L 123.485756 140.173856 
L 123.820556 140.412509 
L 124.155356 140.249374 
L 124.490156 140.486852 
L 125.159756 140.451146 
L 125.829356 140.797815 
L 126.164156 140.529119 
L 126.498956 140.66863 
L 126.833756 140.963428 
L 127.168556 140.746357 
L 127.503356 140.941854 
L 127.838156 140.990182 
L 128.507756 141.306483 
L 128.842556 141.218167 
L 129.177356 141.401804 
L 129.512156 141.269474 
L 129.846956 141.510725 
L 130.516556 141.689024 
L 130.851356 141.559021 
L 131.520956 142.00144 
L 132.190556 141.821418 
L 133.529756 142.24648 
L 133.864556 141.98317 
L 134.199356 142.035327 
L 134.868956 142.295245 
L 135.203756 142.264194 
L 135.538556 142.660756 
L 135.873356 142.450643 
L 136.208156 142.748809 
L 136.542956 142.605851 
L 137.212556 142.802444 
L 137.547356 142.872799 
L 137.882156 142.575118 
L 138.216956 142.915439 
L 138.551756 142.812341 
L 138.886556 143.073046 
L 139.556156 143.033249 
L 139.890956 142.831088 
L 140.225756 143.167978 
L 140.895356 143.2964 
L 141.230156 142.997106 
L 141.564956 143.250805 
L 141.899756 143.364563 
L 142.234556 143.597291 
L 142.569356 143.512899 
L 142.904156 143.740027 
L 143.238956 143.558622 
L 143.908556 143.810279 
L 144.912956 143.711851 
L 145.247756 143.711875 
L 146.252156 144.012535 
L 146.586956 144.125785 
L 146.921756 143.988737 
L 147.256556 144.073295 
L 147.591356 144.430187 
L 148.260956 144.23612 
L 148.930556 144.65397 
L 149.265356 144.296951 
L 149.934956 144.75988 
L 150.269756 144.568935 
L 151.274156 145.169533 
L 151.608956 144.9515 
L 151.943756 145.041587 
L 152.613356 144.967824 
L 152.948156 145.295214 
L 153.282956 145.074608 
L 153.617756 145.025232 
L 153.952556 145.337489 
L 154.287356 144.891003 
L 154.622156 145.50126 
L 154.956956 145.104722 
L 155.291756 145.378358 
L 155.626556 145.337561 
L 155.961356 145.628991 
L 156.296156 145.579916 
L 156.630956 145.889552 
L 156.965756 145.709776 
L 157.300556 145.744242 
L 157.635356 145.910952 
L 157.970156 145.48685 
L 158.304956 145.94584 
L 158.639756 146.08601 
L 159.309356 145.804573 
L 159.644156 146.202453 
L 159.978956 146.275954 
L 160.313756 146.212271 
L 161.318156 146.44515 
L 161.652956 146.510032 
L 161.987756 146.269782 
L 162.322556 146.523727 
L 162.992156 146.449431 
L 163.326956 146.446008 
L 163.661756 146.633593 
L 164.331356 146.711494 
L 164.666156 146.85516 
L 165.000956 146.697514 
L 166.005356 146.934666 
L 166.340156 146.937907 
L 166.674956 147.191152 
L 167.344556 147.018867 
L 167.679356 147.284727 
L 168.348956 147.208374 
L 169.018556 147.460507 
L 169.688156 147.342531 
L 170.022956 147.665838 
L 171.027356 147.771947 
L 171.362156 147.629783 
L 172.031756 147.931563 
L 172.366556 147.470111 
L 172.701356 147.860064 
L 173.370956 147.966395 
L 173.705756 147.926066 
L 174.040556 148.066292 
L 174.375356 147.933207 
L 174.710156 148.268604 
L 175.044956 148.330881 
L 175.379756 147.985666 
L 175.714556 148.373331 
L 176.049356 148.129967 
L 176.384156 148.508616 
L 176.718956 148.433066 
L 179.732156 148.779139 
L 180.066956 148.609482 
L 180.401756 148.922653 
L 180.736556 148.879687 
L 181.071356 149.086138 
L 181.406156 148.766985 
L 182.075756 149.365771 
L 182.410556 149.146826 
L 182.745356 149.357494 
L 183.080156 149.23808 
L 184.084556 149.425451 
L 184.419356 149.317539 
L 185.758556 149.6871 
L 186.093356 149.57783 
L 186.428156 149.808175 
L 187.097756 149.70742 
L 188.102156 150.084464 
L 188.436956 150.068768 
L 188.771756 150.182471 
L 189.106556 149.771579 
L 189.441356 149.973875 
L 189.776156 149.971254 
L 190.110956 150.125961 
L 191.450156 149.894218 
L 191.784956 150.230227 
L 192.454556 150.244104 
L 192.789356 150.496031 
L 194.128556 150.415222 
L 195.467756 150.666847 
L 196.137356 150.514468 
L 196.806956 150.859524 
L 197.141756 151.027497 
L 197.476556 150.748625 
L 198.146156 150.911053 
L 198.480956 150.770962 
L 198.815756 151.278034 
L 199.150556 151.071956 
L 199.485356 151.268692 
L 200.154956 151.037235 
L 200.824556 151.280901 
L 201.494156 151.085547 
L 201.828956 151.357278 
L 202.163756 151.180964 
L 202.498556 151.405399 
L 202.833356 151.447738 
L 203.168156 151.30524 
L 203.502956 151.449668 
L 203.837756 151.451551 
L 204.172556 151.619078 
L 205.176956 151.564109 
L 205.511756 151.751297 
L 205.846556 151.587956 
L 206.181356 151.77813 
L 206.516156 151.752807 
L 206.850956 151.891889 
L 206.850956 151.891889 
" clip-path="url(#p8620ee25c1)" style="fill: none; stroke: #ff7f0e; stroke-width: 1.5; stroke-linecap: square"/>
   </g>
   <g id="line2d_13">
    <path d="M 52.136619 -1 
L 52.508156 16.664387 
L 53.177756 42.749901 
L 53.847356 63.378349 
L 54.516956 77.205999 
L 54.851756 84.145093 
L 55.186556 87.982247 
L 55.856156 97.201766 
L 56.190956 97.210592 
L 56.860556 100.912318 
L 57.195356 102.945543 
L 57.530156 99.225388 
L 57.864956 87.867067 
L 58.869356 98.849797 
L 59.873756 106.640541 
L 60.878156 112.893995 
L 61.882556 116.827416 
L 62.217356 117.407479 
L 62.552156 118.394868 
L 62.886956 118.761943 
L 63.556556 120.276937 
L 63.891356 120.049635 
L 64.226156 120.862092 
L 65.230556 121.991081 
L 65.565356 122.21608 
L 66.234956 123.516751 
L 66.904556 122.712952 
L 67.574156 123.558637 
L 67.908956 123.396352 
L 68.578556 124.20699 
L 68.913356 124.303448 
L 69.582956 124.83114 
L 69.917756 124.942738 
L 70.252556 124.933547 
L 70.587356 125.144049 
L 70.922156 125.090113 
L 71.256956 125.345646 
L 71.926556 126.071322 
L 72.930956 126.083126 
L 73.600556 126.577026 
L 73.935356 126.538024 
L 74.270156 127.015188 
L 74.604956 127.025109 
L 74.939756 127.149687 
L 75.274556 126.892676 
L 76.613756 127.422441 
L 77.283356 128.002219 
L 77.618156 127.915858 
L 77.952956 128.208543 
L 78.287756 128.092759 
L 78.622556 128.602578 
L 78.957356 128.792618 
L 79.292156 128.468858 
L 79.961756 128.803746 
L 80.296556 128.972712 
L 80.631356 128.634582 
L 80.966156 129.265905 
L 81.635756 129.3504 
L 81.970556 129.656724 
L 82.305356 129.339835 
L 83.644556 130.105283 
L 83.979356 129.772341 
L 84.314156 130.284988 
L 84.648956 130.043165 
L 85.318556 130.182239 
L 85.653356 130.183963 
L 85.988156 130.863678 
L 86.657756 130.755964 
L 86.992556 130.933453 
L 87.662156 130.886197 
L 87.996956 131.069763 
L 88.331756 130.978413 
L 88.666556 131.054972 
L 89.001356 131.425574 
L 89.336156 131.618648 
L 89.670956 131.574689 
L 90.675356 131.978456 
L 91.010156 131.944187 
L 91.344956 131.687073 
L 91.679756 132.2105 
L 92.014556 132.303462 
L 92.349356 131.932717 
L 93.688556 132.693669 
L 94.023356 132.656867 
L 94.358156 132.860013 
L 94.692956 132.81387 
L 95.697356 133.089135 
L 96.366956 133.417875 
L 96.701756 133.157568 
L 97.036556 133.697668 
L 97.371356 133.695269 
L 97.706156 133.91041 
L 98.375756 133.915215 
L 100.049756 134.337053 
L 100.384556 134.62301 
L 100.719356 134.666524 
L 101.054156 134.312659 
L 101.388956 134.669265 
L 102.058556 135.080561 
L 102.393356 134.899292 
L 102.728156 135.179775 
L 103.062956 135.109777 
L 104.402156 135.442664 
L 104.736956 135.751355 
L 105.071756 135.643014 
L 105.741356 136.043436 
L 106.076156 135.813219 
L 106.410956 136.00055 
L 106.745756 136.466402 
L 107.080556 136.462121 
L 107.415356 136.610862 
L 107.750156 136.278627 
L 108.084956 136.68225 
L 108.419756 136.642962 
L 109.089356 136.921181 
L 109.424156 136.548101 
L 110.093756 137.273736 
L 110.428556 137.048738 
L 110.763356 137.102705 
L 111.098156 137.027147 
L 112.102556 137.424066 
L 112.437356 137.067564 
L 112.772156 137.519634 
L 113.106956 137.42749 
L 113.441756 137.937357 
L 114.111356 137.475929 
L 114.446156 138.331115 
L 114.780956 138.314735 
L 115.115756 137.86535 
L 115.450556 137.924568 
L 115.785356 138.161268 
L 116.120156 138.1348 
L 116.789756 138.570602 
L 117.124556 138.563985 
L 117.459356 138.787554 
L 117.794156 138.847376 
L 118.128956 138.739774 
L 118.463756 139.080843 
L 118.798556 138.944438 
L 119.133356 139.129099 
L 119.468156 138.907929 
L 119.802956 138.982876 
L 120.137756 139.246186 
L 120.472556 139.284219 
L 121.142156 139.644297 
L 121.476956 139.361255 
L 122.146556 139.638252 
L 122.481356 139.52582 
L 122.816156 139.936743 
L 123.485756 139.80786 
L 123.820556 140.056245 
L 124.155356 139.906089 
L 124.490156 140.135624 
L 125.494556 140.280409 
L 125.829356 140.456222 
L 126.164156 140.16708 
L 126.833756 140.661012 
L 127.168556 140.43398 
L 127.838156 140.673515 
L 128.507756 141.002391 
L 128.842556 140.893549 
L 129.177356 141.073048 
L 129.512156 140.958424 
L 129.846956 141.186298 
L 130.516556 141.365487 
L 130.851356 141.237184 
L 131.520956 141.664868 
L 132.190556 141.488158 
L 133.194956 141.81766 
L 133.529756 141.930196 
L 133.864556 141.674122 
L 135.203756 141.944478 
L 135.538556 142.334796 
L 135.873356 142.127138 
L 136.208156 142.461756 
L 136.542956 142.303181 
L 137.212556 142.476912 
L 137.547356 142.573012 
L 137.882156 142.263551 
L 138.216956 142.62115 
L 138.551756 142.541326 
L 138.886556 142.769113 
L 139.221356 142.779082 
L 139.556156 142.959986 
L 139.890956 142.728863 
L 140.225756 143.059097 
L 140.560556 143.020905 
L 140.895356 143.111595 
L 141.230156 142.779122 
L 141.564956 143.063744 
L 141.899756 143.143242 
L 142.234556 143.397393 
L 142.569356 143.303517 
L 142.904156 143.515322 
L 143.238956 143.364992 
L 143.908556 143.591174 
L 145.247756 143.483492 
L 145.917356 143.862706 
L 146.252156 143.792168 
L 146.586956 143.888983 
L 146.921756 143.746095 
L 147.256556 143.866804 
L 147.591356 144.213656 
L 148.260956 144.040877 
L 148.930556 144.429321 
L 149.265356 144.046859 
L 149.934956 144.532411 
L 150.269756 144.355971 
L 151.274156 144.932357 
L 151.608956 144.694299 
L 151.943756 144.816033 
L 152.278556 144.700582 
L 152.613356 144.729258 
L 152.948156 145.054043 
L 153.282956 144.834001 
L 153.617756 144.79418 
L 153.952556 145.047354 
L 154.287356 144.60202 
L 154.622156 145.242382 
L 154.956956 144.849506 
L 155.291756 145.119235 
L 155.626556 145.095515 
L 155.961356 145.356236 
L 156.296156 145.320784 
L 156.630956 145.633423 
L 156.965756 145.462456 
L 157.300556 145.464593 
L 157.635356 145.661217 
L 157.970156 145.206152 
L 158.304956 145.683888 
L 158.639756 145.792562 
L 159.309356 145.531588 
L 159.644156 145.905272 
L 159.978956 146.000729 
L 160.313756 145.910078 
L 160.983356 146.089712 
L 161.652956 146.20934 
L 161.987756 145.98288 
L 162.322556 146.201015 
L 162.992156 146.122486 
L 163.326956 146.155317 
L 163.661756 146.322177 
L 164.331356 146.406735 
L 164.666156 146.554047 
L 165.000956 146.383771 
L 165.335756 146.44658 
L 165.670556 146.650703 
L 166.340156 146.611589 
L 166.674956 146.869418 
L 167.344556 146.657431 
L 167.679356 146.914307 
L 168.683756 146.922687 
L 169.018556 147.076679 
L 169.688156 146.927771 
L 170.022956 147.233579 
L 170.692556 147.444335 
L 171.362156 147.199469 
L 172.031756 147.458132 
L 172.366556 147.036644 
L 172.701356 147.376624 
L 173.036156 147.507374 
L 173.705756 147.413458 
L 174.040556 147.538028 
L 174.375356 147.433055 
L 174.710156 147.760858 
L 175.044956 147.818631 
L 175.379756 147.464296 
L 175.714556 147.780391 
L 176.049356 147.622602 
L 176.384156 147.969072 
L 176.718956 147.882234 
L 177.053756 147.93285 
L 177.388556 147.85108 
L 177.723356 148.06746 
L 178.058156 148.047426 
L 178.392956 148.216352 
L 178.727756 148.023779 
L 179.062556 148.271384 
L 180.066956 147.995158 
L 180.401756 148.368843 
L 180.736556 148.321031 
L 181.071356 148.517282 
L 181.406156 148.198074 
L 182.075756 148.755435 
L 182.410556 148.537848 
L 182.745356 148.735259 
L 183.080156 148.598417 
L 184.084556 148.811333 
L 184.419356 148.652107 
L 184.754156 148.801722 
L 185.088956 148.77844 
L 185.758556 149.004804 
L 186.093356 148.940462 
L 186.428156 149.146 
L 187.097756 149.036427 
L 188.102156 149.367114 
L 188.771756 149.485599 
L 189.106556 149.076669 
L 189.441356 149.271991 
L 189.776156 149.282095 
L 190.110956 149.410771 
L 191.115356 149.339764 
L 191.450156 149.161608 
L 191.784956 149.50108 
L 192.454556 149.513091 
L 192.789356 149.754826 
L 194.798156 149.710828 
L 195.467756 149.911702 
L 196.137356 149.754119 
L 197.141756 150.244922 
L 197.476556 149.938313 
L 197.811356 150.110455 
L 198.146156 150.128201 
L 198.480956 149.989905 
L 198.815756 150.482845 
L 199.150556 150.25544 
L 199.485356 150.474488 
L 200.154956 150.248616 
L 200.824556 150.488636 
L 201.494156 150.285537 
L 201.828956 150.534128 
L 202.163756 150.390367 
L 202.498556 150.588406 
L 202.833356 150.621395 
L 203.168156 150.441571 
L 203.502956 150.619203 
L 205.176956 150.733255 
L 205.511756 150.917075 
L 205.846556 150.766705 
L 206.181356 150.975197 
L 206.516156 150.91126 
L 206.850956 151.069303 
L 206.850956 151.069303 
" clip-path="url(#p8620ee25c1)" style="fill: none; stroke: #2ca02c; stroke-width: 1.5; stroke-linecap: square"/>
   </g>
   <g id="line2d_14">
    <path d="M 56.714378 -1 
L 57.195356 14.465048 
L 58.199756 39.85527 
L 59.204156 58.166737 
L 60.208556 71.545629 
L 61.212956 81.661696 
L 62.217356 88.98986 
L 62.886956 92.991365 
L 63.556556 96.635397 
L 63.891356 97.411728 
L 64.560956 100.463607 
L 66.234956 105.778953 
L 66.569756 105.8466 
L 67.574156 108.466108 
L 67.908956 108.704516 
L 69.248156 111.042055 
L 69.917756 111.916273 
L 70.252556 112.176136 
L 70.587356 112.630875 
L 70.922156 112.779029 
L 71.256956 113.173191 
L 71.926556 114.366046 
L 72.261356 114.630706 
L 72.596156 114.643114 
L 72.930956 114.906162 
L 73.600556 115.812066 
L 73.935356 115.814274 
L 74.270156 116.533516 
L 74.939756 116.926638 
L 75.274556 116.802068 
L 75.609356 117.096199 
L 75.944156 117.591633 
L 76.613756 117.953632 
L 76.948556 118.482961 
L 77.283356 118.750076 
L 77.618156 118.680531 
L 77.952956 119.06138 
L 78.287756 119.040036 
L 78.622556 119.654233 
L 78.957356 119.842485 
L 79.292156 119.63381 
L 79.626956 120.022301 
L 80.296556 120.428308 
L 80.631356 120.172171 
L 80.966156 120.886519 
L 81.635756 121.188823 
L 81.970556 121.461737 
L 82.305356 121.27547 
L 83.644556 122.337392 
L 83.979356 122.010161 
L 84.314156 122.605818 
L 84.648956 122.420537 
L 85.318556 122.662423 
L 85.653356 122.695794 
L 85.988156 123.524933 
L 86.322956 123.385159 
L 86.657756 123.431454 
L 86.992556 123.687202 
L 87.327356 123.7645 
L 87.662156 123.703478 
L 87.996956 123.964429 
L 88.331756 123.867375 
L 88.666556 124.021423 
L 89.001356 124.461173 
L 89.336156 124.693051 
L 89.670956 124.64095 
L 90.005756 124.870984 
L 90.340556 124.90839 
L 90.675356 125.20515 
L 91.010156 125.139275 
L 91.344956 124.862739 
L 91.679756 125.447426 
L 92.014556 125.557832 
L 92.349356 125.219687 
L 93.688556 126.092729 
L 94.023356 126.081489 
L 94.358156 126.289727 
L 94.692956 126.261353 
L 96.032156 126.730971 
L 96.366956 126.932012 
L 96.701756 126.658153 
L 97.036556 127.223863 
L 97.371356 127.224133 
L 97.706156 127.448281 
L 98.040956 127.351395 
L 100.049756 127.741753 
L 100.384556 128.039307 
L 100.719356 128.0892 
L 101.054156 127.640029 
L 101.388956 127.998319 
L 101.723756 128.142381 
L 102.058556 128.424931 
L 102.393356 128.165576 
L 102.728156 128.48372 
L 103.062956 128.358825 
L 104.402156 128.64081 
L 104.736956 128.961273 
L 105.071756 128.826647 
L 105.741356 129.197107 
L 106.076156 128.956094 
L 106.410956 129.094652 
L 106.745756 129.591818 
L 107.080556 129.559257 
L 107.415356 129.662649 
L 107.750156 129.288854 
L 108.084956 129.724084 
L 108.754556 129.756899 
L 109.089356 129.972453 
L 109.424156 129.540693 
L 110.093756 130.293877 
L 110.428556 130.040854 
L 110.763356 130.086505 
L 111.098156 129.946676 
L 112.102556 130.361738 
L 112.437356 129.927381 
L 112.772156 130.397952 
L 113.106956 130.307921 
L 113.441756 130.793918 
L 113.776556 130.590692 
L 114.111356 130.227454 
L 114.446156 131.188708 
L 114.780956 131.154678 
L 115.115756 130.648457 
L 116.120156 130.848164 
L 116.789756 131.288089 
L 117.124556 131.267889 
L 117.459356 131.479201 
L 117.794156 131.543352 
L 118.128956 131.369343 
L 118.463756 131.763783 
L 118.798556 131.575364 
L 119.133356 131.755594 
L 119.468156 131.485889 
L 119.802956 131.543003 
L 120.137756 131.839572 
L 120.472556 131.860646 
L 121.142156 132.209118 
L 121.476956 131.837499 
L 121.811756 132.064118 
L 122.146556 132.105877 
L 122.481356 131.967366 
L 122.816156 132.409182 
L 123.150956 132.368154 
L 123.485756 132.185168 
L 123.820556 132.436452 
L 124.155356 132.255722 
L 124.490156 132.476217 
L 124.824956 132.544594 
L 125.159756 132.338215 
L 125.829356 132.762476 
L 126.164156 132.435626 
L 126.498956 132.573429 
L 126.833756 132.886131 
L 127.168556 132.651243 
L 127.503356 132.841442 
L 128.172956 133.027335 
L 128.507756 133.142944 
L 128.842556 133.029305 
L 129.177356 133.231307 
L 129.512156 133.042602 
L 129.846956 133.307659 
L 130.516556 133.46687 
L 130.851356 133.293838 
L 131.520956 133.719401 
L 132.190556 133.47757 
L 133.529756 133.891544 
L 133.864556 133.575108 
L 134.199356 133.631268 
L 134.534156 133.834438 
L 134.868956 133.866149 
L 135.203756 133.779676 
L 135.538556 134.216646 
L 135.873356 133.993752 
L 136.208156 134.316162 
L 136.542956 134.151692 
L 137.547356 134.372084 
L 137.882156 134.02076 
L 138.216956 134.33996 
L 138.551756 134.27565 
L 138.886556 134.527744 
L 139.221356 134.4507 
L 139.556156 134.701229 
L 139.890956 134.357595 
L 140.225756 134.735863 
L 140.560556 134.697798 
L 140.895356 134.787185 
L 141.230156 134.382593 
L 141.564956 134.675874 
L 141.899756 134.737968 
L 142.234556 135.039589 
L 142.569356 134.917101 
L 142.904156 135.109928 
L 143.238956 134.933607 
L 143.908556 135.148526 
L 145.582556 135.11583 
L 145.917356 135.346509 
L 146.252156 135.249495 
L 146.586956 135.369195 
L 146.921756 135.190149 
L 147.256556 135.291214 
L 147.591356 135.671714 
L 148.260956 135.41939 
L 148.930556 135.884527 
L 149.265356 135.416935 
L 149.934956 135.921655 
L 150.269756 135.744413 
L 151.274156 136.307207 
L 151.608956 136.018446 
L 151.943756 136.147655 
L 152.613356 136.008358 
L 152.948156 136.37348 
L 153.617756 136.041721 
L 153.952556 136.391646 
L 154.287356 135.851117 
L 154.622156 136.497485 
L 154.956956 136.08572 
L 155.291756 136.369301 
L 155.626556 136.322133 
L 155.961356 136.619274 
L 156.296156 136.558133 
L 156.630956 136.903809 
L 156.965756 136.694713 
L 157.300556 136.68472 
L 157.635356 136.879351 
L 157.970156 136.390669 
L 158.304956 136.843391 
L 158.639756 137.045806 
L 159.309356 136.691512 
L 159.644156 137.110919 
L 159.978956 137.179511 
L 160.313756 137.091998 
L 161.318156 137.344298 
L 161.652956 137.365364 
L 161.987756 137.115399 
L 162.322556 137.397869 
L 162.992156 137.219705 
L 163.326956 137.258111 
L 163.661756 137.427673 
L 164.331356 137.534671 
L 164.666156 137.688901 
L 165.000956 137.517354 
L 165.335756 137.591816 
L 165.670556 137.780458 
L 166.340156 137.681871 
L 166.674956 138.012042 
L 167.344556 137.749169 
L 167.679356 138.072642 
L 168.348956 137.90486 
L 168.683756 137.984525 
L 169.018556 138.21537 
L 169.688156 137.993049 
L 170.022956 138.348146 
L 170.692556 138.537677 
L 171.362156 138.262539 
L 172.031756 138.582923 
L 172.366556 138.038176 
L 172.701356 138.44527 
L 173.036156 138.624173 
L 173.705756 138.479951 
L 174.040556 138.634857 
L 174.375356 138.51692 
L 174.710156 138.86683 
L 175.044956 138.923364 
L 175.379756 138.500843 
L 175.714556 138.889397 
L 176.049356 138.718796 
L 176.384156 139.104403 
L 176.718956 138.953716 
L 177.053756 139.018312 
L 177.388556 138.91793 
L 177.723356 139.115921 
L 178.058156 139.125819 
L 178.392956 139.348117 
L 178.727756 139.111663 
L 179.062556 139.372289 
L 180.066956 139.105523 
L 180.401756 139.476809 
L 180.736556 139.389121 
L 181.071356 139.680495 
L 181.406156 139.239299 
L 182.075756 139.868437 
L 182.410556 139.643026 
L 182.745356 139.904739 
L 183.080156 139.754949 
L 184.084556 139.901403 
L 184.419356 139.759064 
L 184.754156 139.968501 
L 185.088956 139.92169 
L 185.758556 140.164053 
L 186.093356 140.077454 
L 186.428156 140.344521 
L 187.097756 140.11428 
L 187.432556 140.359463 
L 188.771756 140.693454 
L 189.106556 140.235767 
L 189.441356 140.41239 
L 189.776156 140.411397 
L 190.110956 140.63522 
L 190.445756 140.48906 
L 191.115356 140.52317 
L 191.450156 140.264221 
L 191.784956 140.715568 
L 192.454556 140.677098 
L 192.789356 140.992469 
L 194.463356 140.89942 
L 195.132956 141.047017 
L 195.467756 141.15087 
L 196.137356 140.989475 
L 197.141756 141.575917 
L 197.476556 141.240655 
L 198.146156 141.406777 
L 198.480956 141.20518 
L 198.815756 141.769118 
L 199.150556 141.530329 
L 199.485356 141.80391 
L 200.154956 141.533396 
L 200.489756 141.603473 
L 200.824556 141.825199 
L 201.494156 141.563756 
L 201.828956 141.870048 
L 202.163756 141.680493 
L 202.498556 141.900439 
L 202.833356 141.985665 
L 203.168156 141.788659 
L 203.502956 141.925978 
L 203.837756 141.932086 
L 204.507356 142.13729 
L 205.176956 142.070946 
L 205.511756 142.278882 
L 205.846556 142.033913 
L 206.181356 142.285054 
L 206.516156 142.222475 
L 206.850956 142.45904 
L 206.850956 142.45904 
" clip-path="url(#p8620ee25c1)" style="fill: none; stroke: #d62728; stroke-width: 1.5; stroke-linecap: square"/>
   </g>
   <g id="patch_3">
    <path d="M 39.785756 155.802655 
L 39.785756 17.202655 
" style="fill: none; stroke: #000000; stroke-width: 0.8; stroke-linejoin: miter; stroke-linecap: square"/>
   </g>
   <g id="patch_4">
    <path d="M 207.185756 155.802655 
L 207.185756 17.202655 
" style="fill: none; stroke: #000000; stroke-width: 0.8; stroke-linejoin: miter; stroke-linecap: square"/>
   </g>
   <g id="patch_5">
    <path d="M 39.785756 155.802655 
L 207.185756 155.802655 
" style="fill: none; stroke: #000000; stroke-width: 0.8; stroke-linejoin: miter; stroke-linecap: square"/>
   </g>
   <g id="patch_6">
    <path d="M 39.785756 17.202655 
L 207.185756 17.202655 
" style="fill: none; stroke: #000000; stroke-width: 0.8; stroke-linejoin: miter; stroke-linecap: square"/>
   </g>
   <g id="legend_1">
    <g id="patch_7">
     <path d="M 135.762269 80.951369 
L 200.185756 80.951369 
Q 202.185756 80.951369 202.185756 78.951369 
L 202.185756 24.202655 
Q 202.185756 22.202655 200.185756 22.202655 
L 135.762269 22.202655 
Q 133.762269 22.202655 133.762269 24.202655 
L 133.762269 78.951369 
Q 133.762269 80.951369 135.762269 80.951369 
z
" style="fill: #ffffff; opacity: 0.8; stroke: #cccccc; stroke-linejoin: miter"/>
    </g>
    <g id="line2d_15">
     <path d="M 137.762269 29.702655 
L 147.762269 29.702655 
L 157.762269 29.702655 
" style="fill: none; stroke: #1f77b4; stroke-width: 1.5; stroke-linecap: square"/>
    </g>
    <g id="text_15">
     <!-- $\alpha=0.7$ -->
     <g transform="translate(165.762269 33.202655) scale(0.1 -0.1)">
      <defs>
       <path id="CMMI12-b" d="M 2963 1615 
C 2963 2234 2611 2816 1933 2816 
C 1094 2816 256 1902 256 996 
C 256 440 602 -64 1254 -64 
C 1651 -64 2125 89 2579 472 
C 2669 115 2867 -64 3142 -64 
C 3488 -64 3661 293 3661 376 
C 3661 434 3616 434 3597 434 
C 3546 434 3539 415 3520 364 
C 3462 204 3315 64 3162 64 
C 2963 64 2963 472 2963 862 
C 3616 1641 3770 2445 3770 2451 
C 3770 2509 3718 2509 3699 2509 
C 3642 2509 3635 2490 3610 2375 
C 3526 2094 3360 1596 2963 1072 
L 2963 1615 
z
M 2560 625 
C 1997 121 1491 64 1267 64 
C 813 64 685 466 685 766 
C 685 1040 826 1692 1024 2043 
C 1286 2490 1645 2687 1933 2687 
C 2554 2687 2554 1877 2554 1340 
C 2554 1181 2547 1015 2547 855 
C 2547 728 2554 696 2560 625 
z
" transform="scale(0.015625)"/>
       <path id="CMR17-3d" d="M 4115 2048 
C 4211 2048 4307 2048 4307 2156 
C 4307 2272 4198 2272 4090 2272 
L 512 2272 
C 403 2272 294 2272 294 2156 
C 294 2048 390 2048 486 2048 
L 4115 2048 
z
M 4090 927 
C 4198 927 4307 927 4307 1043 
C 4307 1152 4211 1152 4115 1152 
L 486 1152 
C 390 1152 294 1152 294 1043 
C 294 927 403 927 512 927 
L 4090 927 
z
" transform="scale(0.015625)"/>
       <path id="CMR17-37" d="M 2886 3955 
L 2886 4096 
L 1382 4096 
C 634 4096 621 4166 595 4288 
L 480 4288 
L 294 3104 
L 410 3104 
C 429 3226 474 3552 550 3673 
C 589 3724 1062 3724 1171 3724 
L 2579 3724 
L 1869 2670 
C 1395 1961 1069 1003 1069 166 
C 1069 89 1069 -128 1299 -128 
C 1530 -128 1530 89 1530 172 
L 1530 466 
C 1530 1514 1709 2204 2003 2644 
L 2886 3955 
z
" transform="scale(0.015625)"/>
      </defs>
      <use xlink:href="#CMMI12-b" transform="scale(0.996264)"/>
      <use xlink:href="#CMR17-3d" transform="translate(90.355032 0) scale(0.996264)"/>
      <use xlink:href="#CMR17-30" transform="translate(189.743829 0) scale(0.996264)"/>
      <use xlink:href="#CMMI12-3a" transform="translate(235.434306 0) scale(0.996264)"/>
      <use xlink:href="#CMR17-37" transform="translate(262.531483 0) scale(0.996264)"/>
     </g>
    </g>
    <g id="line2d_16">
     <path d="M 137.762269 43.639834 
L 147.762269 43.639834 
L 157.762269 43.639834 
" style="fill: none; stroke: #ff7f0e; stroke-width: 1.5; stroke-linecap: square"/>
    </g>
    <g id="text_16">
     <!-- $\alpha=0.8$ -->
     <g transform="translate(165.762269 47.139834) scale(0.1 -0.1)">
      <use xlink:href="#CMMI12-b" transform="scale(0.996264)"/>
      <use xlink:href="#CMR17-3d" transform="translate(90.355032 0) scale(0.996264)"/>
      <use xlink:href="#CMR17-30" transform="translate(189.743829 0) scale(0.996264)"/>
      <use xlink:href="#CMMI12-3a" transform="translate(235.434306 0) scale(0.996264)"/>
      <use xlink:href="#CMR17-38" transform="translate(262.531483 0) scale(0.996264)"/>
     </g>
    </g>
    <g id="line2d_17">
     <path d="M 137.762269 57.577012 
L 147.762269 57.577012 
L 157.762269 57.577012 
" style="fill: none; stroke: #2ca02c; stroke-width: 1.5; stroke-linecap: square"/>
    </g>
    <g id="text_17">
     <!-- $\alpha=0.9$ -->
     <g transform="translate(165.762269 61.077012) scale(0.1 -0.1)">
      <defs>
       <path id="CMR17-39" d="M 2253 1871 
C 2253 448 1670 25 1190 25 
C 1043 25 685 43 538 281 
C 704 256 826 345 826 505 
C 826 678 685 736 595 736 
C 538 736 365 710 365 492 
C 365 68 742 -128 1203 -128 
C 1939 -128 2688 665 2688 2090 
C 2688 3857 1971 4224 1485 4224 
C 851 4224 243 3664 243 2800 
C 243 2000 762 1408 1414 1408 
C 1952 1408 2189 1910 2253 2122 
L 2253 1871 
z
M 1427 1510 
C 1254 1510 1011 1542 813 1929 
C 678 2181 678 2477 678 2793 
C 678 3174 678 3438 858 3722 
C 947 3857 1114 4076 1485 4076 
C 2240 4076 2240 2909 2240 2651 
C 2240 2193 2035 1510 1427 1510 
z
" transform="scale(0.015625)"/>
      </defs>
      <use xlink:href="#CMMI12-b" transform="scale(0.996264)"/>
      <use xlink:href="#CMR17-3d" transform="translate(90.355032 0) scale(0.996264)"/>
      <use xlink:href="#CMR17-30" transform="translate(189.743829 0) scale(0.996264)"/>
      <use xlink:href="#CMMI12-3a" transform="translate(235.434306 0) scale(0.996264)"/>
      <use xlink:href="#CMR17-39" transform="translate(262.531483 0) scale(0.996264)"/>
     </g>
    </g>
    <g id="line2d_18">
     <path d="M 137.762269 71.51419 
L 147.762269 71.51419 
L 157.762269 71.51419 
" style="fill: none; stroke: #d62728; stroke-width: 1.5; stroke-linecap: square"/>
    </g>
    <g id="text_18">
     <!-- $\alpha=1.0$ -->
     <g transform="translate(165.762269 75.01419) scale(0.1 -0.1)">
      <use xlink:href="#CMMI12-b" transform="scale(0.996264)"/>
      <use xlink:href="#CMR17-3d" transform="translate(90.355032 0) scale(0.996264)"/>
      <use xlink:href="#CMR17-31" transform="translate(189.743829 0) scale(0.996264)"/>
      <use xlink:href="#CMMI12-3a" transform="translate(235.434306 0) scale(0.996264)"/>
      <use xlink:href="#CMR17-30" transform="translate(262.531483 0) scale(0.996264)"/>
     </g>
    </g>
   </g>
  </g>
 </g>
 <defs>
  <clipPath id="p8620ee25c1">
   <rect x="39.785756" y="17.202655" width="167.4" height="138.6"/>
  </clipPath>
 </defs>
</svg>
