<?xml version="1.0" encoding="utf-8" standalone="no"?>
<!DOCTYPE svg PUBLIC "-//W3C//DTD SVG 1.1//EN"
  "http://www.w3.org/Graphics/SVG/1.1/DTD/svg11.dtd">
<svg xmlns:xlink="http://www.w3.org/1999/xlink" width="209.12768pt" height="191.714009pt" viewBox="0 0 209.12768 191.714009" xmlns="http://www.w3.org/2000/svg" version="1.1">
 <metadata>
  <rdf:RDF xmlns:dc="http://purl.org/dc/elements/1.1/" xmlns:cc="http://creativecommons.org/ns#" xmlns:rdf="http://www.w3.org/1999/02/22-rdf-syntax-ns#">
   <cc:Work>
    <dc:type rdf:resource="http://purl.org/dc/dcmitype/StillImage"/>
    <dc:date>2025-06-02T21:54:54.462834</dc:date>
    <dc:format>image/svg+xml</dc:format>
    <dc:creator>
     <cc:Agent>
      <dc:title>Matplotlib v3.9.2, https://matplotlib.org/</dc:title>
     </cc:Agent>
    </dc:creator>
   </cc:Work>
  </rdf:RDF>
 </metadata>
 <defs>
  <style type="text/css">*{stroke-linejoin: round; stroke-linecap: butt}</style>
 </defs>
 <g id="figure_1">
  <g id="patch_1">
   <path d="M 0 191.714009 
L 209.12768 191.714009 
L 209.12768 -0 
L 0 -0 
z
" style="fill: #ffffff"/>
  </g>
  <g id="axes_1">
   <g id="patch_2">
    <path d="M 32.037012 155.802655 
L 199.437012 155.802655 
L 199.437012 17.202655 
L 32.037012 17.202655 
z
" style="fill: #ffffff"/>
   </g>
   <g id="matplotlib.axis_1">
    <g id="xtick_1">
     <g id="line2d_1">
      <defs>
       <path id="mc1b9a1cd78" d="M 0 0 
L 0 3.5 
" style="stroke: #000000; stroke-width: 0.8"/>
      </defs>
      <g>
       <use xlink:href="#mc1b9a1cd78" x="32.037012" y="155.802655" style="stroke: #000000; stroke-width: 0.8"/>
      </g>
     </g>
     <g id="text_1">
      <!-- $\mathdefault{0}$ -->
      <g transform="translate(29.546344 169.721154) scale(0.1 -0.1)">
       <defs>
        <path id="CMR17-30" d="M 2688 2038 
C 2688 2430 2682 3099 2413 3613 
C 2176 4063 1798 4224 1466 4224 
C 1158 4224 768 4082 525 3620 
C 269 3137 243 2539 243 2038 
C 243 1671 250 1112 448 623 
C 723 -39 1216 -128 1466 -128 
C 1760 -128 2208 -7 2470 604 
C 2662 1048 2688 1568 2688 2038 
z
M 1466 -26 
C 1056 -26 813 328 723 816 
C 653 1196 653 1749 653 2109 
C 653 2604 653 3015 736 3407 
C 858 3954 1216 4121 1466 4121 
C 1728 4121 2067 3947 2189 3420 
C 2272 3054 2278 2623 2278 2109 
C 2278 1691 2278 1176 2202 797 
C 2067 96 1690 -26 1466 -26 
z
" transform="scale(0.015625)"/>
       </defs>
       <use xlink:href="#CMR17-30" transform="scale(0.996264)"/>
      </g>
     </g>
    </g>
    <g id="xtick_2">
     <g id="line2d_2">
      <g>
       <use xlink:href="#mc1b9a1cd78" x="65.517012" y="155.802655" style="stroke: #000000; stroke-width: 0.8"/>
      </g>
     </g>
     <g id="text_2">
      <!-- $\mathdefault{1}$ -->
      <g transform="translate(63.026344 169.721154) scale(0.1 -0.1)">
       <defs>
        <path id="CMR17-31" d="M 1702 4083 
C 1702 4217 1696 4224 1606 4224 
C 1357 3927 979 3833 621 3820 
C 602 3820 570 3820 563 3808 
C 557 3795 557 3782 557 3648 
C 755 3648 1088 3686 1344 3839 
L 1344 467 
C 1344 243 1331 166 781 166 
L 589 166 
L 589 0 
C 896 6 1216 12 1523 12 
C 1830 12 2150 6 2458 0 
L 2458 166 
L 2266 166 
C 1715 166 1702 236 1702 467 
L 1702 4083 
z
" transform="scale(0.015625)"/>
       </defs>
       <use xlink:href="#CMR17-31" transform="scale(0.996264)"/>
      </g>
     </g>
    </g>
    <g id="xtick_3">
     <g id="line2d_3">
      <g>
       <use xlink:href="#mc1b9a1cd78" x="98.997012" y="155.802655" style="stroke: #000000; stroke-width: 0.8"/>
      </g>
     </g>
     <g id="text_3">
      <!-- $\mathdefault{2}$ -->
      <g transform="translate(96.506344 169.721154) scale(0.1 -0.1)">
       <defs>
        <path id="CMR17-32" d="M 2669 990 
L 2554 990 
C 2490 537 2438 460 2413 422 
C 2381 371 1920 371 1830 371 
L 602 371 
C 832 620 1280 1073 1824 1596 
C 2214 1966 2669 2400 2669 3033 
C 2669 3788 2067 4224 1395 4224 
C 691 4224 262 3603 262 3027 
C 262 2777 448 2745 525 2745 
C 589 2745 781 2783 781 3007 
C 781 3206 614 3264 525 3264 
C 486 3264 448 3257 422 3244 
C 544 3788 915 4057 1306 4057 
C 1862 4057 2227 3616 2227 3033 
C 2227 2477 1901 1998 1536 1583 
L 262 147 
L 262 0 
L 2515 0 
L 2669 990 
z
" transform="scale(0.015625)"/>
       </defs>
       <use xlink:href="#CMR17-32" transform="scale(0.996264)"/>
      </g>
     </g>
    </g>
    <g id="xtick_4">
     <g id="line2d_4">
      <g>
       <use xlink:href="#mc1b9a1cd78" x="132.477012" y="155.802655" style="stroke: #000000; stroke-width: 0.8"/>
      </g>
     </g>
     <g id="text_4">
      <!-- $\mathdefault{3}$ -->
      <g transform="translate(129.986344 169.721154) scale(0.1 -0.1)">
       <defs>
        <path id="CMR17-33" d="M 1414 2176 
C 1984 2176 2234 1673 2234 1094 
C 2234 322 1824 25 1453 25 
C 1114 25 563 193 390 691 
C 422 678 454 678 486 678 
C 640 678 755 780 755 947 
C 755 1132 614 1216 486 1216 
C 378 1216 211 1164 211 927 
C 211 335 787 -128 1466 -128 
C 2176 -128 2720 432 2720 1087 
C 2720 1718 2208 2176 1600 2246 
C 2086 2347 2554 2776 2554 3353 
C 2554 3856 2048 4224 1472 4224 
C 890 4224 378 3862 378 3347 
C 378 3123 544 3084 627 3084 
C 762 3084 877 3167 877 3334 
C 877 3500 762 3584 627 3584 
C 602 3584 570 3584 544 3571 
C 730 3999 1235 4076 1459 4076 
C 1683 4076 2106 3966 2106 3347 
C 2106 3167 2080 2851 1862 2574 
C 1670 2329 1453 2316 1242 2297 
C 1210 2297 1062 2284 1037 2284 
C 992 2278 966 2272 966 2227 
C 966 2182 973 2176 1101 2176 
L 1414 2176 
z
" transform="scale(0.015625)"/>
       </defs>
       <use xlink:href="#CMR17-33" transform="scale(0.996264)"/>
      </g>
     </g>
    </g>
    <g id="xtick_5">
     <g id="line2d_5">
      <g>
       <use xlink:href="#mc1b9a1cd78" x="165.957012" y="155.802655" style="stroke: #000000; stroke-width: 0.8"/>
      </g>
     </g>
     <g id="text_5">
      <!-- $\mathdefault{4}$ -->
      <g transform="translate(163.466344 169.721154) scale(0.1 -0.1)">
       <defs>
        <path id="CMR17-34" d="M 2150 4147 
C 2150 4281 2144 4288 2029 4288 
L 128 1254 
L 128 1088 
L 1779 1088 
L 1779 460 
C 1779 230 1766 166 1318 166 
L 1197 166 
L 1197 0 
C 1402 12 1747 12 1965 12 
C 2182 12 2528 12 2733 0 
L 2733 166 
L 2611 166 
C 2163 166 2150 230 2150 460 
L 2150 1088 
L 2803 1088 
L 2803 1254 
L 2150 1254 
L 2150 4147 
z
M 1798 3723 
L 1798 1254 
L 256 1254 
L 1798 3723 
z
" transform="scale(0.015625)"/>
       </defs>
       <use xlink:href="#CMR17-34" transform="scale(0.996264)"/>
      </g>
     </g>
    </g>
    <g id="xtick_6">
     <g id="line2d_6">
      <g>
       <use xlink:href="#mc1b9a1cd78" x="199.437012" y="155.802655" style="stroke: #000000; stroke-width: 0.8"/>
      </g>
     </g>
     <g id="text_6">
      <!-- $\mathdefault{5}$ -->
      <g transform="translate(196.946344 169.721154) scale(0.1 -0.1)">
       <defs>
        <path id="CMR17-35" d="M 730 3750 
C 794 3724 1056 3641 1325 3641 
C 1920 3641 2246 3961 2432 4140 
C 2432 4191 2432 4224 2394 4224 
C 2387 4224 2374 4224 2323 4198 
C 2099 4102 1837 4032 1517 4032 
C 1325 4032 1037 4055 723 4191 
C 653 4224 640 4224 634 4224 
C 602 4224 595 4217 595 4090 
L 595 2231 
C 595 2113 595 2080 659 2080 
C 691 2080 704 2093 736 2139 
C 941 2435 1222 2560 1542 2560 
C 1766 2560 2246 2415 2246 1293 
C 2246 1087 2246 716 2054 422 
C 1894 159 1645 25 1370 25 
C 947 25 518 319 403 812 
C 429 806 480 793 506 793 
C 589 793 749 838 749 1036 
C 749 1209 627 1280 506 1280 
C 358 1280 262 1190 262 1011 
C 262 454 704 -128 1382 -128 
C 2042 -128 2669 441 2669 1267 
C 2669 2054 2170 2662 1549 2662 
C 1222 2662 947 2540 730 2304 
L 730 3750 
z
" transform="scale(0.015625)"/>
       </defs>
       <use xlink:href="#CMR17-35" transform="scale(0.996264)"/>
      </g>
     </g>
    </g>
    <g id="text_7">
     <!-- $Epoch$ -->
     <g transform="translate(101.826211 182.576831) scale(0.1 -0.1)">
      <defs>
       <path id="CMMI12-45" d="M 4448 1489 
C 4454 1508 4474 1553 4474 1578 
C 4474 1611 4448 1643 4410 1643 
C 4384 1643 4371 1636 4352 1617 
C 4339 1611 4339 1598 4282 1469 
C 3904 570 3629 185 2605 185 
L 1670 185 
C 1581 185 1568 185 1530 192 
C 1459 198 1453 211 1453 262 
C 1453 307 1466 346 1478 403 
L 1920 2176 
L 2554 2176 
C 3053 2176 3091 2066 3091 1874 
C 3091 1810 3091 1752 3046 1559 
C 3034 1534 3027 1508 3027 1489 
C 3027 1444 3059 1424 3098 1424 
C 3155 1424 3162 1469 3187 1559 
L 3552 3036 
C 3552 3068 3526 3099 3488 3099 
C 3430 3099 3424 3074 3398 2986 
C 3270 2500 3142 2361 2573 2361 
L 1965 2361 
L 2362 3913 
C 2419 4134 2432 4153 2694 4153 
L 3610 4153 
C 4397 4153 4557 3945 4557 3465 
C 4557 3459 4557 3282 4531 3074 
C 4525 3049 4518 3011 4518 2998 
C 4518 2948 4550 2929 4589 2929 
C 4634 2929 4659 2954 4672 3068 
L 4806 4172 
C 4806 4191 4819 4255 4819 4268 
C 4819 4339 4762 4339 4646 4339 
L 1523 4339 
C 1402 4339 1338 4339 1338 4223 
C 1338 4153 1382 4153 1491 4153 
C 1888 4153 1888 4109 1888 4039 
C 1888 4008 1882 3983 1862 3913 
L 998 474 
C 941 249 928 185 480 185 
C 358 185 294 185 294 70 
C 294 0 333 0 461 0 
L 3674 0 
C 3814 0 3821 6 3866 108 
L 4448 1489 
z
" transform="scale(0.015625)"/>
       <path id="CMMI12-70" d="M 275 -794 
C 230 -981 205 -1031 -58 -1031 
C -135 -1031 -199 -1031 -199 -1152 
C -199 -1165 -192 -1216 -122 -1216 
C -39 -1216 51 -1204 134 -1204 
L 410 -1204 
C 544 -1204 870 -1216 1005 -1216 
C 1043 -1216 1120 -1216 1120 -1101 
C 1120 -1031 1075 -1031 966 -1031 
C 672 -1031 653 -987 653 -937 
C 653 -863 941 217 979 364 
C 1050 185 1222 -64 1555 -64 
C 2278 -64 3059 874 3059 1813 
C 3059 2400 2726 2816 2246 2816 
C 1837 2816 1491 2419 1421 2330 
C 1370 2649 1120 2816 864 2816 
C 678 2816 531 2726 410 2483 
C 294 2253 205 1864 205 1838 
C 205 1813 230 1781 275 1781 
C 326 1781 333 1787 371 1934 
C 467 2311 589 2687 845 2687 
C 992 2687 1043 2585 1043 2394 
C 1043 2241 1024 2177 998 2062 
L 275 -794 
z
M 1382 1992 
C 1427 2170 1606 2356 1709 2445 
C 1779 2509 1990 2687 2234 2687 
C 2515 2687 2643 2407 2643 2075 
C 2643 1768 2464 1047 2304 715 
C 2144 370 1850 64 1555 64 
C 1120 64 1050 613 1050 638 
C 1050 657 1062 708 1069 740 
L 1382 1992 
z
" transform="scale(0.015625)"/>
       <path id="CMMI12-6f" d="M 2918 1755 
C 2918 2362 2522 2816 1939 2816 
C 1094 2816 262 1896 262 996 
C 262 389 659 -64 1242 -64 
C 2093 -64 2918 855 2918 1755 
z
M 1248 64 
C 928 64 691 319 691 766 
C 691 1060 845 1711 1024 2030 
C 1312 2522 1670 2687 1933 2687 
C 2246 2687 2490 2432 2490 1985 
C 2490 1730 2355 1047 2112 657 
C 1850 230 1498 64 1248 64 
z
" transform="scale(0.015625)"/>
       <path id="CMMI12-63" d="M 2502 2432 
C 2381 2432 2323 2432 2234 2355 
C 2195 2323 2125 2227 2125 2124 
C 2125 1996 2221 1919 2342 1919 
C 2496 1919 2669 2047 2669 2303 
C 2669 2591 2374 2816 1933 2816 
C 1094 2816 256 1932 256 1011 
C 256 446 602 -64 1254 -64 
C 2125 -64 2675 622 2675 706 
C 2675 745 2637 777 2611 777 
C 2592 777 2586 771 2528 712 
C 2118 161 1510 64 1267 64 
C 826 64 685 453 685 777 
C 685 1004 794 1634 1024 2073 
C 1190 2374 1536 2687 1939 2687 
C 2022 2687 2374 2676 2502 2432 
z
" transform="scale(0.015625)"/>
       <path id="CMMI12-68" d="M 1798 4255 
C 1805 4281 1818 4319 1818 4351 
C 1818 4416 1754 4416 1741 4416 
C 1734 4416 1421 4390 1389 4383 
C 1280 4377 1184 4364 1069 4358 
C 909 4345 864 4339 864 4223 
C 864 4159 915 4159 1005 4159 
C 1318 4159 1325 4103 1325 4040 
C 1325 4002 1312 3951 1306 3932 
L 378 249 
C 352 153 352 140 352 102 
C 352 -39 461 -64 525 -64 
C 634 -64 717 19 749 89 
L 1037 1245 
C 1069 1385 1107 1519 1139 1660 
C 1210 1928 1210 1934 1331 2119 
C 1453 2305 1741 2687 2234 2687 
C 2490 2687 2579 2496 2579 2241 
C 2579 1883 2330 1187 2189 804 
C 2131 651 2099 568 2099 453 
C 2099 166 2298 -64 2605 -64 
C 3200 -64 3424 874 3424 913 
C 3424 945 3398 970 3360 970 
C 3302 970 3296 951 3264 842 
C 3117 332 2880 64 2624 64 
C 2560 64 2458 70 2458 274 
C 2458 440 2534 645 2560 715 
C 2675 1021 2963 1775 2963 2145 
C 2963 2528 2739 2816 2253 2816 
C 1888 2816 1568 2643 1306 2311 
L 1798 4255 
z
" transform="scale(0.015625)"/>
      </defs>
      <use xlink:href="#CMMI12-45" transform="scale(0.996264)"/>
      <use xlink:href="#CMMI12-70" transform="translate(78.051636 0) scale(0.996264)"/>
      <use xlink:href="#CMMI12-6f" transform="translate(127.01115 0) scale(0.996264)"/>
      <use xlink:href="#CMMI12-63" transform="translate(173.90646 0) scale(0.996264)"/>
      <use xlink:href="#CMMI12-68" transform="translate(215.889693 0) scale(0.996264)"/>
     </g>
    </g>
    <g id="text_8">
     <!-- $\times\mathdefault{10^{2}}\mathdefault{}$ -->
     <g transform="translate(177.75436 181.660988) scale(0.1 -0.1)">
      <defs>
       <path id="CMSY10-2" d="M 2490 1775 
L 1210 3046 
C 1133 3123 1120 3136 1069 3136 
C 1005 3136 941 3078 941 3008 
C 941 2963 954 2950 1024 2880 
L 2304 1596 
L 1024 313 
C 954 243 941 230 941 185 
C 941 115 1005 57 1069 57 
C 1120 57 1133 70 1210 147 
L 2483 1418 
L 3808 95 
C 3821 89 3866 57 3904 57 
C 3981 57 4032 115 4032 185 
C 4032 198 4032 223 4013 255 
C 4006 268 2989 1271 2669 1596 
L 3840 2765 
C 3872 2803 3968 2886 4000 2925 
C 4006 2937 4032 2963 4032 3008 
C 4032 3078 3981 3136 3904 3136 
C 3853 3136 3827 3110 3757 3040 
L 2490 1775 
z
" transform="scale(0.015625)"/>
      </defs>
      <use xlink:href="#CMSY10-2" transform="scale(0.996264)"/>
      <use xlink:href="#CMR17-31" transform="translate(77.487468 0) scale(0.996264)"/>
      <use xlink:href="#CMR17-30" transform="translate(123.177945 0) scale(0.996264)"/>
      <use xlink:href="#CMR17-32" transform="translate(168.868422 36.153639) scale(0.697382)"/>
     </g>
    </g>
   </g>
   <g id="matplotlib.axis_2">
    <g id="ytick_1">
     <g id="line2d_7">
      <defs>
       <path id="m3337ca3ce7" d="M 0 0 
L -3.5 0 
" style="stroke: #000000; stroke-width: 0.8"/>
      </defs>
      <g>
       <use xlink:href="#m3337ca3ce7" x="32.037012" y="152.422168" style="stroke: #000000; stroke-width: 0.8"/>
      </g>
     </g>
     <g id="text_9">
      <!-- $\mathdefault{1}$ -->
      <g transform="translate(20.055677 155.881417) scale(0.1 -0.1)">
       <use xlink:href="#CMR17-31" transform="scale(0.996264)"/>
      </g>
     </g>
    </g>
    <g id="ytick_2">
     <g id="line2d_8">
      <g>
       <use xlink:href="#m3337ca3ce7" x="32.037012" y="118.61729" style="stroke: #000000; stroke-width: 0.8"/>
      </g>
     </g>
     <g id="text_10">
      <!-- $\mathdefault{2}$ -->
      <g transform="translate(20.055677 122.076539) scale(0.1 -0.1)">
       <use xlink:href="#CMR17-32" transform="scale(0.996264)"/>
      </g>
     </g>
    </g>
    <g id="ytick_3">
     <g id="line2d_9">
      <g>
       <use xlink:href="#m3337ca3ce7" x="32.037012" y="84.812412" style="stroke: #000000; stroke-width: 0.8"/>
      </g>
     </g>
     <g id="text_11">
      <!-- $\mathdefault{3}$ -->
      <g transform="translate(20.055677 88.271661) scale(0.1 -0.1)">
       <use xlink:href="#CMR17-33" transform="scale(0.996264)"/>
      </g>
     </g>
    </g>
    <g id="ytick_4">
     <g id="line2d_10">
      <g>
       <use xlink:href="#m3337ca3ce7" x="32.037012" y="51.007533" style="stroke: #000000; stroke-width: 0.8"/>
      </g>
     </g>
     <g id="text_12">
      <!-- $\mathdefault{4}$ -->
      <g transform="translate(20.055677 54.466783) scale(0.1 -0.1)">
       <use xlink:href="#CMR17-34" transform="scale(0.996264)"/>
      </g>
     </g>
    </g>
    <g id="ytick_5">
     <g id="line2d_11">
      <g>
       <use xlink:href="#m3337ca3ce7" x="32.037012" y="17.202655" style="stroke: #000000; stroke-width: 0.8"/>
      </g>
     </g>
     <g id="text_13">
      <!-- $\mathdefault{5}$ -->
      <g transform="translate(20.055677 20.661905) scale(0.1 -0.1)">
       <use xlink:href="#CMR17-35" transform="scale(0.996264)"/>
      </g>
     </g>
    </g>
    <g id="text_14">
     <!-- $MSE$ -->
     <g transform="translate(14.118498 98.897132) rotate(-90) scale(0.1 -0.1)">
      <defs>
       <path id="CMMI12-4d" d="M 5811 3886 
C 5869 4102 5882 4166 6336 4166 
C 6458 4166 6515 4166 6515 4287 
C 6515 4352 6470 4352 6349 4352 
L 5581 4352 
C 5421 4352 5414 4345 5344 4243 
L 3008 567 
L 2528 4211 
C 2509 4352 2502 4352 2336 4352 
L 1542 4352 
C 1421 4352 1363 4352 1363 4230 
C 1363 4166 1421 4166 1517 4166 
C 1907 4166 1907 4115 1907 4045 
C 1907 4032 1907 3994 1882 3898 
L 1062 650 
C 986 344 838 204 410 185 
C 390 185 314 179 314 70 
C 314 0 371 0 397 0 
C 525 0 851 12 979 12 
L 1286 12 
C 1376 12 1485 0 1574 0 
C 1619 0 1690 0 1690 121 
C 1690 179 1626 185 1600 185 
C 1389 191 1184 230 1184 459 
C 1184 523 1184 529 1210 618 
L 2093 4128 
L 2099 4128 
L 2630 172 
C 2650 19 2656 0 2714 0 
C 2784 0 2816 51 2848 108 
L 5421 4159 
L 5427 4159 
L 4499 472 
C 4442 249 4429 185 3981 185 
C 3859 185 3795 185 3795 70 
C 3795 0 3853 0 3891 0 
C 4000 0 4128 12 4237 12 
L 4992 12 
C 5101 12 5235 0 5344 0 
C 5395 0 5466 0 5466 121 
C 5466 185 5408 185 5312 185 
C 4922 185 4922 236 4922 300 
C 4922 306 4922 351 4934 402 
L 5811 3886 
z
" transform="scale(0.015625)"/>
       <path id="CMMI12-53" d="M 4064 4422 
C 4064 4480 4019 4480 4006 4480 
C 3981 4480 3974 4473 3898 4377 
C 3859 4332 3597 4002 3590 3996 
C 3379 4409 2957 4480 2688 4480 
C 1875 4480 1139 3742 1139 3024 
C 1139 2547 1427 2268 1741 2160 
C 1811 2134 2189 2033 2381 1988 
C 2707 1899 2790 1874 2925 1734 
C 2950 1702 3078 1556 3078 1258 
C 3078 667 2528 57 1888 57 
C 1363 57 781 279 781 991 
C 781 1112 806 1264 826 1328 
C 826 1347 832 1378 832 1391 
C 832 1417 819 1448 768 1448 
C 710 1448 704 1436 678 1328 
L 352 25 
C 352 19 326 -64 326 -71 
C 326 -128 378 -128 390 -128 
C 416 -128 422 -122 499 -26 
L 794 356 
C 947 127 1280 -128 1875 -128 
C 2701 -128 3456 667 3456 1461 
C 3456 1728 3392 1963 3149 2198 
C 3014 2331 2899 2363 2310 2516 
C 1882 2630 1824 2649 1709 2751 
C 1600 2859 1517 3011 1517 3227 
C 1517 3761 2061 4307 2669 4307 
C 3296 4307 3590 3926 3590 3322 
C 3590 3157 3558 2986 3558 2960 
C 3558 2903 3610 2903 3629 2903 
C 3686 2903 3693 2922 3718 3024 
L 4064 4422 
z
" transform="scale(0.015625)"/>
      </defs>
      <use xlink:href="#CMMI12-4d" transform="scale(0.996264)"/>
      <use xlink:href="#CMMI12-53" transform="translate(104.780079 0) scale(0.996264)"/>
      <use xlink:href="#CMMI12-45" transform="translate(170.574518 0) scale(0.996264)"/>
     </g>
    </g>
    <g id="text_15">
     <!-- $\times\mathdefault{10^{−2}}\mathdefault{}$ -->
     <g transform="translate(32.037012 14.202655) scale(0.1 -0.1)">
      <defs>
       <path id="CMSY10-0" d="M 4218 1472 
C 4326 1472 4442 1472 4442 1600 
C 4442 1728 4326 1728 4218 1728 
L 755 1728 
C 646 1728 531 1728 531 1600 
C 531 1472 646 1472 755 1472 
L 4218 1472 
z
" transform="scale(0.015625)"/>
      </defs>
      <use xlink:href="#CMSY10-2" transform="scale(0.996264)"/>
      <use xlink:href="#CMR17-31" transform="translate(77.487468 0) scale(0.996264)"/>
      <use xlink:href="#CMR17-30" transform="translate(123.177945 0) scale(0.996264)"/>
      <use xlink:href="#CMSY10-0" transform="translate(168.868422 36.153639) scale(0.697382)"/>
      <use xlink:href="#CMR17-32" transform="translate(223.109415 36.153639) scale(0.697382)"/>
     </g>
    </g>
   </g>
   <g id="line2d_12">
    <path d="M 42.783463 -1 
L 43.085412 23.135469 
L 43.755012 49.670607 
L 44.089812 51.604723 
L 44.424612 69.408927 
L 44.759412 73.010749 
L 45.429012 91.006617 
L 46.433412 101.644774 
L 46.768212 100.466104 
L 47.103012 106.70944 
L 47.772612 112.161557 
L 48.107412 111.324821 
L 48.777012 116.648134 
L 49.111812 117.905971 
L 49.446612 117.730792 
L 49.781412 121.009331 
L 50.116212 121.976264 
L 50.451012 123.462884 
L 50.785812 126.548998 
L 51.120612 127.164319 
L 51.455412 126.99293 
L 51.790212 128.49526 
L 52.125012 125.77655 
L 52.794612 128.64973 
L 53.129412 130.702091 
L 53.464212 132.005567 
L 53.799012 132.61461 
L 54.133812 132.538654 
L 54.468612 132.64047 
L 54.803412 133.070506 
L 55.138212 132.001952 
L 55.807812 134.450206 
L 56.142612 136.446093 
L 56.477412 136.936595 
L 56.812212 136.78251 
L 57.481812 135.407464 
L 58.486212 137.294758 
L 59.825412 138.757511 
L 60.160212 138.92327 
L 60.495012 138.078496 
L 60.829812 138.333595 
L 61.499412 139.06882 
L 61.834212 139.291999 
L 62.169012 139.672168 
L 63.173412 140.045065 
L 68.865012 141.519227 
L 69.534612 141.703726 
L 70.873812 141.873902 
L 71.208612 141.986814 
L 73.217412 141.977176 
L 75.226212 142.360101 
L 76.900212 142.41389 
L 77.235012 142.495797 
L 77.569812 142.431895 
L 78.239412 142.697614 
L 78.909012 142.535629 
L 79.578612 142.554274 
L 80.583012 142.517297 
L 80.917812 142.712103 
L 81.252612 142.604534 
L 83.261412 142.830379 
L 83.931012 142.697523 
L 84.265812 142.793027 
L 84.935412 142.818327 
L 85.270212 142.988831 
L 85.605012 142.39959 
L 86.944212 142.732129 
L 90.292212 143.091476 
L 91.966212 143.032435 
L 93.640212 142.959529 
L 94.309812 143.019867 
L 94.979412 142.946007 
L 95.649012 142.880116 
L 96.318612 142.918762 
L 103.684212 142.96099 
L 104.688612 142.90422 
L 105.023412 142.954391 
L 105.358212 142.876942 
L 106.027812 142.916369 
L 106.362612 142.860738 
L 107.032212 143.015765 
L 107.701812 142.928408 
L 108.706212 142.774562 
L 109.041012 142.826579 
L 109.375812 143.009506 
L 112.389012 142.933518 
L 113.058612 142.888135 
L 113.393412 142.979899 
L 114.732612 142.868647 
L 115.402212 142.954385 
L 115.737012 142.823097 
L 116.741412 142.809455 
L 117.745812 142.654762 
L 118.080612 142.737424 
L 119.754612 142.654375 
L 120.759012 142.620675 
L 121.763412 142.458496 
L 122.098212 142.56654 
L 122.767812 142.46352 
L 123.102612 142.63881 
L 124.107012 142.694377 
L 124.441812 142.575588 
L 125.111412 142.559346 
L 125.446212 142.470292 
L 125.781012 142.500992 
L 126.450612 142.387866 
L 127.789812 142.442137 
L 128.459412 142.508271 
L 129.129012 142.361319 
L 129.798612 142.413396 
L 130.133412 142.337461 
L 130.468212 142.377363 
L 130.803012 142.287523 
L 131.472612 142.266426 
L 132.811812 142.245933 
L 133.146612 142.285807 
L 134.485812 141.95136 
L 135.490212 142.1098 
L 136.159812 142.032307 
L 136.494612 142.180032 
L 137.833812 142.024697 
L 139.173012 142.049698 
L 139.507812 141.920891 
L 140.177412 141.903427 
L 140.847012 141.884093 
L 141.181812 141.915746 
L 141.851412 141.774481 
L 142.855812 141.772268 
L 144.529812 141.758431 
L 145.199412 141.728194 
L 151.895412 141.412455 
L 152.230212 141.469116 
L 153.234612 141.280742 
L 153.904212 141.387971 
L 154.908612 141.246539 
L 157.921812 141.103189 
L 159.261012 141.160822 
L 160.935012 140.886515 
L 161.604612 140.908761 
L 162.609012 140.899382 
L 164.952612 140.720941 
L 165.287412 140.606144 
L 166.291812 140.621577 
L 166.961412 140.632149 
L 171.648612 140.470171 
L 172.987812 140.33501 
L 173.322612 140.404919 
L 173.657412 140.296667 
L 174.661812 140.264903 
L 182.697012 139.983163 
L 183.701412 139.787158 
L 185.375412 139.787495 
L 186.045012 139.824972 
L 189.058212 139.540172 
L 189.393012 139.635412 
L 190.062612 139.568513 
L 191.067012 139.520435 
L 191.736612 139.500884 
L 193.075812 139.372826 
L 193.745412 139.287591 
L 194.080212 139.396397 
L 194.749812 139.35001 
L 195.419412 139.274793 
L 199.102212 138.988082 
L 199.102212 138.988082 
" clip-path="url(#pd1454bdc86)" style="fill: none; stroke: #1f77b4; stroke-width: 1.5; stroke-linecap: square"/>
   </g>
   <g id="line2d_13">
    <path d="M 44.626939 -1 
L 45.094212 25.918047 
L 45.763812 51.056399 
L 46.433412 70.905502 
L 47.437812 89.582321 
L 48.107412 97.559634 
L 48.442212 98.285234 
L 49.781412 116.599215 
L 50.451012 119.189921 
L 50.785812 123.26163 
L 51.120612 124.692116 
L 51.790212 126.222069 
L 52.125012 126.095154 
L 52.459812 127.465865 
L 53.464212 129.247414 
L 53.799012 129.673962 
L 54.133812 129.770351 
L 54.803412 131.65473 
L 55.138212 130.58423 
L 55.807812 132.235571 
L 56.142612 132.842706 
L 56.477412 136.067491 
L 56.812212 135.827787 
L 57.147012 135.199271 
L 57.816612 135.93454 
L 58.821012 136.217776 
L 59.155812 138.30771 
L 59.490612 138.431294 
L 59.825412 138.676083 
L 60.160212 141.74426 
L 60.829812 140.660938 
L 61.164612 140.34154 
L 61.499412 139.779419 
L 61.834212 139.67192 
L 62.169012 139.418162 
L 62.503812 139.434073 
L 62.838612 139.303251 
L 63.173412 139.471881 
L 63.508212 139.967116 
L 63.843012 139.753902 
L 64.177812 137.724297 
L 64.512612 138.397664 
L 64.847412 138.613 
L 65.182212 137.87439 
L 65.517012 139.271125 
L 66.186612 140.240866 
L 66.521412 139.802824 
L 68.195412 141.850233 
L 68.530212 141.85147 
L 68.865012 142.270326 
L 69.199812 143.070908 
L 69.534612 143.426319 
L 70.204212 143.330783 
L 71.208612 143.481159 
L 71.878212 144.095483 
L 73.217412 144.062186 
L 74.221812 144.089233 
L 74.556612 143.700343 
L 74.891412 143.856411 
L 75.226212 143.770657 
L 75.561012 144.557814 
L 76.230612 144.295458 
L 76.565412 144.35719 
L 76.900212 143.835485 
L 77.569812 144.150748 
L 77.904612 144.005617 
L 78.574212 144.432454 
L 78.909012 144.192032 
L 79.243812 143.760476 
L 79.578612 144.253557 
L 80.248212 144.630666 
L 80.583012 144.400779 
L 81.587412 144.367218 
L 81.922212 146.075898 
L 82.257012 145.809657 
L 82.591812 145.002395 
L 82.926612 144.828359 
L 83.261412 144.912747 
L 83.596212 144.795428 
L 84.265812 144.77457 
L 84.600612 145.039297 
L 84.935412 144.930188 
L 86.609412 145.413598 
L 86.944212 145.335567 
L 87.279012 144.917035 
L 88.618212 145.308129 
L 88.953012 145.601254 
L 89.287812 145.567501 
L 89.622612 145.353833 
L 91.631412 145.424932 
L 91.966212 145.402066 
L 92.301012 144.88967 
L 92.635812 144.789027 
L 92.970612 145.022576 
L 93.640212 145.000947 
L 93.975012 145.043667 
L 94.309812 145.475576 
L 94.979412 145.463392 
L 95.314212 146.607852 
L 95.983812 146.082966 
L 96.988212 145.682172 
L 97.323012 144.390515 
L 97.992612 144.984359 
L 98.327412 144.628072 
L 98.997012 145.090511 
L 99.331812 145.237355 
L 100.001412 145.255187 
L 100.336212 150.998635 
L 101.005812 148.474569 
L 101.675412 147.021148 
L 102.345012 146.29698 
L 104.019012 145.60263 
L 106.362612 145.373665 
L 107.032212 145.505838 
L 109.041012 145.382341 
L 110.045412 145.49025 
L 110.715012 145.475541 
L 111.719412 145.483976 
L 112.389012 145.470151 
L 113.393412 145.525502 
L 114.732612 145.496201 
L 115.402212 145.580947 
L 115.737012 145.468055 
L 116.406612 145.499818 
L 116.741412 145.391235 
L 117.076212 145.420118 
L 117.411012 145.318748 
L 118.080612 145.429173 
L 119.419812 145.354177 
L 121.428612 145.389595 
L 122.098212 145.265668 
L 123.437412 145.396874 
L 124.107012 145.449121 
L 125.111412 145.364355 
L 125.446212 145.203894 
L 125.781012 145.280468 
L 126.450612 145.156182 
L 126.785412 145.235116 
L 127.789812 145.213953 
L 128.459412 145.433247 
L 129.798612 145.314785 
L 130.468212 145.348295 
L 130.803012 145.154044 
L 131.137812 145.211894 
L 131.472612 142.639275 
L 132.142212 143.845956 
L 132.477012 144.228987 
L 133.146612 144.638077 
L 133.481412 144.48035 
L 134.820612 144.895198 
L 135.825012 145.051711 
L 137.164212 145.039511 
L 137.833812 145.033013 
L 138.838212 145.039797 
L 140.847012 144.945889 
L 141.181812 145.138296 
L 141.851412 144.976248 
L 142.855812 144.951937 
L 143.190612 144.932701 
L 143.525412 145.030812 
L 143.860212 144.850907 
L 144.195012 144.934568 
L 145.199412 144.915177 
L 147.208212 144.790652 
L 147.543012 144.869029 
L 150.221412 144.59708 
L 151.225812 144.642394 
L 151.895412 144.713389 
L 152.230212 144.752815 
L 152.899812 144.626734 
L 154.573812 144.682859 
L 155.578212 144.461907 
L 156.582612 144.493207 
L 158.926212 144.576203 
L 159.595812 144.544975 
L 160.600212 144.452377 
L 162.609012 144.373266 
L 165.622212 144.2126 
L 165.957012 144.147118 
L 166.291812 144.811723 
L 166.626612 144.580129 
L 166.961412 144.560944 
L 167.631012 144.282257 
L 167.965812 145.981647 
L 168.300612 145.465769 
L 169.305012 144.614043 
L 169.639812 144.422458 
L 169.974612 144.41279 
L 170.309412 143.970409 
L 170.644212 144.011854 
L 170.979012 143.929371 
L 171.648612 143.970925 
L 172.653012 143.827028 
L 173.322612 143.960161 
L 173.657412 143.853631 
L 174.327012 143.86483 
L 174.996612 143.782939 
L 176.001012 143.807858 
L 177.675012 143.671816 
L 178.344612 143.690869 
L 181.357812 143.676787 
L 182.027412 143.613329 
L 183.366612 143.530264 
L 184.036212 143.422056 
L 186.714612 143.424565 
L 191.736612 143.309736 
L 192.741012 143.332949 
L 193.745412 143.240259 
L 194.080212 143.332278 
L 194.749812 143.306481 
L 195.419412 143.302609 
L 199.102212 143.084449 
L 199.102212 143.084449 
" clip-path="url(#pd1454bdc86)" style="fill: none; stroke: #ff7f0e; stroke-width: 1.5; stroke-linecap: square"/>
   </g>
   <g id="line2d_14">
    <path d="M 44.259295 -1 
L 44.759412 23.018654 
L 45.429012 50.606818 
L 46.433412 82.515881 
L 46.768212 87.010077 
L 47.103012 95.067118 
L 47.437812 98.449218 
L 47.772612 106.799998 
L 48.107412 107.678922 
L 48.442212 109.335016 
L 48.777012 112.47673 
L 49.111812 112.395641 
L 49.446612 115.187966 
L 50.116212 95.064605 
L 51.455412 114.765902 
L 51.790212 118.443711 
L 52.125012 120.770833 
L 52.459812 125.652147 
L 52.794612 127.311219 
L 53.129412 130.679681 
L 54.133812 132.812104 
L 54.803412 133.08876 
L 55.807812 136.21233 
L 56.477412 137.087687 
L 56.812212 137.823998 
L 57.147012 138.23227 
L 57.816612 140.114423 
L 58.486212 140.930717 
L 58.821012 140.818574 
L 59.155812 139.891953 
L 59.825412 140.744629 
L 61.164612 141.639198 
L 61.499412 141.916902 
L 62.169012 142.231627 
L 62.838612 142.817978 
L 63.173412 142.767129 
L 63.508212 143.115252 
L 64.177812 143.278511 
L 64.512612 143.67225 
L 64.847412 143.685612 
L 65.851812 144.082137 
L 66.521412 144.267029 
L 66.856212 144.412774 
L 67.525812 144.44222 
L 67.860612 144.094658 
L 68.195412 143.966222 
L 68.530212 144.615548 
L 68.865012 144.681244 
L 69.199812 144.497609 
L 69.534612 147.435178 
L 70.204212 146.279844 
L 70.873812 145.904645 
L 71.878212 145.612509 
L 73.552212 145.576568 
L 73.887012 145.538391 
L 74.221812 145.627152 
L 74.891412 145.588538 
L 81.587412 145.593884 
L 82.257012 145.754001 
L 88.283412 145.810677 
L 88.618212 145.905118 
L 88.953012 145.806289 
L 89.957412 145.847783 
L 90.961812 145.804192 
L 91.966212 145.597693 
L 93.640212 145.255096 
L 94.309812 145.24901 
L 94.979412 145.097377 
L 95.649012 145.003302 
L 96.988212 145.035481 
L 97.657812 145.059947 
L 99.331812 145.253197 
L 99.666612 145.373973 
L 100.001412 145.246734 
L 100.336212 145.469594 
L 101.005812 145.334965 
L 101.340612 145.306823 
L 101.675412 145.165941 
L 102.345012 145.177933 
L 102.679812 145.276592 
L 104.019012 145.080518 
L 104.353812 145.09523 
L 104.688612 144.960756 
L 105.693012 145.171196 
L 106.697412 145.189856 
L 107.701812 145.160372 
L 108.706212 144.939199 
L 109.375812 145.16868 
L 110.045412 145.225948 
L 110.380212 145.116853 
L 111.384612 145.241863 
L 112.389012 145.156544 
L 112.723812 145.229175 
L 114.397812 145.077114 
L 115.402212 145.299238 
L 115.737012 145.09324 
L 116.071812 145.190612 
L 117.411012 144.958791 
L 118.080612 145.251289 
L 118.750212 145.040821 
L 121.093812 145.013172 
L 123.102612 144.934961 
L 124.776612 144.990989 
L 125.781012 144.906129 
L 126.450612 144.682204 
L 127.455012 144.746915 
L 128.124612 144.96891 
L 130.468212 144.900484 
L 130.803012 144.737058 
L 131.137812 144.80281 
L 131.807412 144.643064 
L 133.146612 144.742466 
L 133.816212 144.538361 
L 134.151012 144.547081 
L 134.485812 144.41692 
L 135.825012 144.575605 
L 137.833812 144.503877 
L 138.838212 144.493484 
L 139.507812 144.337145 
L 139.842612 144.50751 
L 140.512212 144.383888 
L 141.181812 144.523626 
L 141.516612 144.352115 
L 142.521012 144.324577 
L 143.190612 144.335467 
L 143.525412 144.475234 
L 143.860212 144.383362 
L 144.195012 144.445038 
L 144.864612 144.209606 
L 145.199412 144.345787 
L 145.534212 144.226837 
L 146.203812 144.279043 
L 146.538612 144.094422 
L 147.208212 144.056661 
L 147.543012 144.164144 
L 147.877812 144.107185 
L 148.212612 144.247701 
L 149.217012 144.081756 
L 151.895412 144.08883 
L 152.230212 144.151013 
L 153.234612 144.049394 
L 153.904212 144.174902 
L 154.239012 144.076193 
L 154.573812 144.110991 
L 155.243412 143.967299 
L 155.913012 143.990933 
L 156.247812 143.857321 
L 156.917412 143.876353 
L 157.587012 143.86529 
L 158.591412 144.031424 
L 159.261012 144.13483 
L 159.595812 143.980052 
L 160.265412 143.850757 
L 160.935012 143.799181 
L 161.269812 143.880099 
L 162.609012 143.794452 
L 162.943812 143.789664 
L 163.278612 143.616075 
L 164.283012 143.840242 
L 164.617812 143.651204 
L 165.622212 143.632213 
L 166.626612 143.441264 
L 166.961412 143.636252 
L 168.300612 143.455923 
L 168.635412 143.548338 
L 169.305012 143.33719 
L 169.639812 143.282765 
L 170.309412 143.588794 
L 170.644212 143.618266 
L 170.979012 143.457572 
L 171.313812 143.578074 
L 171.983412 143.421949 
L 172.318212 143.291316 
L 172.987812 143.343121 
L 173.322612 143.528705 
L 173.657412 143.358107 
L 174.327012 143.438972 
L 174.996612 143.307699 
L 175.331412 143.404731 
L 175.666212 143.238981 
L 176.001012 143.432672 
L 176.335812 143.334898 
L 176.670612 143.399675 
L 177.675012 143.207756 
L 178.009812 143.318095 
L 178.679412 143.280611 
L 180.353412 143.283227 
L 181.357812 143.2281 
L 181.692612 143.083155 
L 183.031812 143.02413 
L 184.371012 142.884407 
L 185.040612 142.983652 
L 189.058212 142.691676 
L 189.393012 142.879194 
L 190.062612 142.812046 
L 190.397412 142.846253 
L 190.732212 142.66813 
L 191.067012 142.710232 
L 191.401812 142.582269 
L 192.071412 142.717861 
L 193.745412 142.486868 
L 194.080212 142.702875 
L 194.415012 142.63108 
L 195.084612 142.698694 
L 196.423812 142.492438 
L 197.093412 142.572918 
L 197.428212 142.35655 
L 197.763012 142.432377 
L 198.432612 142.317435 
L 199.102212 142.282403 
L 199.102212 142.282403 
" clip-path="url(#pd1454bdc86)" style="fill: none; stroke: #2ca02c; stroke-width: 1.5; stroke-linecap: square"/>
   </g>
   <g id="line2d_15">
    <path d="M 49.418617 -1 
L 50.116212 21.158384 
L 51.120612 46.023688 
L 52.125012 64.476674 
L 53.129412 78.276901 
L 54.133812 88.679469 
L 55.138212 96.597374 
L 56.142612 102.64489 
L 57.147012 107.360242 
L 58.486212 112.232659 
L 59.825412 115.887757 
L 61.164612 118.722099 
L 62.838612 121.460222 
L 65.517012 124.846302 
L 66.856212 126.306029 
L 69.534612 128.851745 
L 72.547812 131.149279 
L 73.552212 131.779624 
L 75.895812 133.287627 
L 77.904612 134.262503 
L 78.909012 134.844509 
L 79.913412 135.366145 
L 84.265812 137.362567 
L 85.939812 138.019276 
L 89.957412 139.526395 
L 91.631412 140.044477 
L 94.309812 140.784383 
L 95.649012 141.075402 
L 101.340612 142.588739 
L 102.679812 142.874632 
L 111.049812 144.332555 
L 113.728212 144.743993 
L 114.732612 144.860655 
L 115.402212 145.000991 
L 116.071812 145.052809 
L 124.776612 145.995279 
L 138.838212 146.98085 
L 140.512212 147.037907 
L 142.186212 147.132958 
L 143.190612 147.180482 
L 144.195012 147.296233 
L 145.534212 147.299923 
L 150.556212 147.430286 
L 161.939412 147.856049 
L 166.626612 147.868605 
L 167.296212 147.932324 
L 168.300612 147.92156 
L 169.305012 147.921874 
L 169.974612 147.953836 
L 171.648612 148.040126 
L 173.657412 148.036814 
L 175.331412 148.089897 
L 176.335812 148.094982 
L 180.018612 148.180453 
L 182.697012 148.192819 
L 184.705812 148.14942 
L 187.384212 148.222905 
L 191.401812 148.235873 
L 195.084612 148.31834 
L 199.102212 148.26473 
L 199.102212 148.26473 
" clip-path="url(#pd1454bdc86)" style="fill: none; stroke: #d62728; stroke-width: 1.5; stroke-linecap: square"/>
   </g>
   <g id="patch_3">
    <path d="M 32.037012 155.802655 
L 32.037012 17.202655 
" style="fill: none; stroke: #000000; stroke-width: 0.8; stroke-linejoin: miter; stroke-linecap: square"/>
   </g>
   <g id="patch_4">
    <path d="M 199.437012 155.802655 
L 199.437012 17.202655 
" style="fill: none; stroke: #000000; stroke-width: 0.8; stroke-linejoin: miter; stroke-linecap: square"/>
   </g>
   <g id="patch_5">
    <path d="M 32.037012 155.802655 
L 199.437012 155.802655 
" style="fill: none; stroke: #000000; stroke-width: 0.8; stroke-linejoin: miter; stroke-linecap: square"/>
   </g>
   <g id="patch_6">
    <path d="M 32.037012 17.202655 
L 199.437012 17.202655 
" style="fill: none; stroke: #000000; stroke-width: 0.8; stroke-linejoin: miter; stroke-linecap: square"/>
   </g>
   <g id="legend_1">
    <g id="patch_7">
     <path d="M 128.013526 80.951369 
L 192.437012 80.951369 
Q 194.437012 80.951369 194.437012 78.951369 
L 194.437012 24.202655 
Q 194.437012 22.202655 192.437012 22.202655 
L 128.013526 22.202655 
Q 126.013526 22.202655 126.013526 24.202655 
L 126.013526 78.951369 
Q 126.013526 80.951369 128.013526 80.951369 
z
" style="fill: #ffffff; opacity: 0.8; stroke: #cccccc; stroke-linejoin: miter"/>
    </g>
    <g id="line2d_16">
     <path d="M 130.013526 29.702655 
L 140.013526 29.702655 
L 150.013526 29.702655 
" style="fill: none; stroke: #1f77b4; stroke-width: 1.5; stroke-linecap: square"/>
    </g>
    <g id="text_16">
     <!-- $\alpha=0.7$ -->
     <g transform="translate(158.013526 33.202655) scale(0.1 -0.1)">
      <defs>
       <path id="CMMI12-b" d="M 2963 1615 
C 2963 2234 2611 2816 1933 2816 
C 1094 2816 256 1902 256 996 
C 256 440 602 -64 1254 -64 
C 1651 -64 2125 89 2579 472 
C 2669 115 2867 -64 3142 -64 
C 3488 -64 3661 293 3661 376 
C 3661 434 3616 434 3597 434 
C 3546 434 3539 415 3520 364 
C 3462 204 3315 64 3162 64 
C 2963 64 2963 472 2963 862 
C 3616 1641 3770 2445 3770 2451 
C 3770 2509 3718 2509 3699 2509 
C 3642 2509 3635 2490 3610 2375 
C 3526 2094 3360 1596 2963 1072 
L 2963 1615 
z
M 2560 625 
C 1997 121 1491 64 1267 64 
C 813 64 685 466 685 766 
C 685 1040 826 1692 1024 2043 
C 1286 2490 1645 2687 1933 2687 
C 2554 2687 2554 1877 2554 1340 
C 2554 1181 2547 1015 2547 855 
C 2547 728 2554 696 2560 625 
z
" transform="scale(0.015625)"/>
       <path id="CMR17-3d" d="M 4115 2048 
C 4211 2048 4307 2048 4307 2156 
C 4307 2272 4198 2272 4090 2272 
L 512 2272 
C 403 2272 294 2272 294 2156 
C 294 2048 390 2048 486 2048 
L 4115 2048 
z
M 4090 927 
C 4198 927 4307 927 4307 1043 
C 4307 1152 4211 1152 4115 1152 
L 486 1152 
C 390 1152 294 1152 294 1043 
C 294 927 403 927 512 927 
L 4090 927 
z
" transform="scale(0.015625)"/>
       <path id="CMMI12-3a" d="M 1178 307 
C 1178 492 1024 620 870 620 
C 685 620 557 467 557 313 
C 557 128 710 0 864 0 
C 1050 0 1178 153 1178 307 
z
" transform="scale(0.015625)"/>
       <path id="CMR17-37" d="M 2886 3955 
L 2886 4096 
L 1382 4096 
C 634 4096 621 4166 595 4288 
L 480 4288 
L 294 3104 
L 410 3104 
C 429 3226 474 3552 550 3673 
C 589 3724 1062 3724 1171 3724 
L 2579 3724 
L 1869 2670 
C 1395 1961 1069 1003 1069 166 
C 1069 89 1069 -128 1299 -128 
C 1530 -128 1530 89 1530 172 
L 1530 466 
C 1530 1514 1709 2204 2003 2644 
L 2886 3955 
z
" transform="scale(0.015625)"/>
      </defs>
      <use xlink:href="#CMMI12-b" transform="scale(0.996264)"/>
      <use xlink:href="#CMR17-3d" transform="translate(90.355032 0) scale(0.996264)"/>
      <use xlink:href="#CMR17-30" transform="translate(189.743829 0) scale(0.996264)"/>
      <use xlink:href="#CMMI12-3a" transform="translate(235.434306 0) scale(0.996264)"/>
      <use xlink:href="#CMR17-37" transform="translate(262.531483 0) scale(0.996264)"/>
     </g>
    </g>
    <g id="line2d_17">
     <path d="M 130.013526 43.639834 
L 140.013526 43.639834 
L 150.013526 43.639834 
" style="fill: none; stroke: #ff7f0e; stroke-width: 1.5; stroke-linecap: square"/>
    </g>
    <g id="text_17">
     <!-- $\alpha=0.8$ -->
     <g transform="translate(158.013526 47.139834) scale(0.1 -0.1)">
      <defs>
       <path id="CMR17-38" d="M 1741 2289 
C 2144 2494 2554 2803 2554 3298 
C 2554 3884 1990 4224 1472 4224 
C 890 4224 378 3800 378 3215 
C 378 3054 416 2777 666 2533 
C 730 2469 998 2276 1171 2154 
C 883 2006 211 1652 211 945 
C 211 282 838 -128 1459 -128 
C 2144 -128 2720 366 2720 1022 
C 2720 1607 2330 1877 2074 2051 
L 1741 2289 
z
M 902 2855 
C 851 2887 595 3086 595 3388 
C 595 3781 998 4076 1459 4076 
C 1965 4076 2336 3716 2336 3298 
C 2336 2700 1670 2359 1638 2359 
C 1632 2359 1626 2359 1574 2398 
L 902 2855 
z
M 2080 1536 
C 2176 1466 2483 1253 2483 861 
C 2483 385 2010 25 1472 25 
C 890 25 448 443 448 951 
C 448 1459 838 1884 1280 2083 
L 2080 1536 
z
" transform="scale(0.015625)"/>
      </defs>
      <use xlink:href="#CMMI12-b" transform="scale(0.996264)"/>
      <use xlink:href="#CMR17-3d" transform="translate(90.355032 0) scale(0.996264)"/>
      <use xlink:href="#CMR17-30" transform="translate(189.743829 0) scale(0.996264)"/>
      <use xlink:href="#CMMI12-3a" transform="translate(235.434306 0) scale(0.996264)"/>
      <use xlink:href="#CMR17-38" transform="translate(262.531483 0) scale(0.996264)"/>
     </g>
    </g>
    <g id="line2d_18">
     <path d="M 130.013526 57.577012 
L 140.013526 57.577012 
L 150.013526 57.577012 
" style="fill: none; stroke: #2ca02c; stroke-width: 1.5; stroke-linecap: square"/>
    </g>
    <g id="text_18">
     <!-- $\alpha=0.9$ -->
     <g transform="translate(158.013526 61.077012) scale(0.1 -0.1)">
      <defs>
       <path id="CMR17-39" d="M 2253 1871 
C 2253 448 1670 25 1190 25 
C 1043 25 685 43 538 281 
C 704 256 826 345 826 505 
C 826 678 685 736 595 736 
C 538 736 365 710 365 492 
C 365 68 742 -128 1203 -128 
C 1939 -128 2688 665 2688 2090 
C 2688 3857 1971 4224 1485 4224 
C 851 4224 243 3664 243 2800 
C 243 2000 762 1408 1414 1408 
C 1952 1408 2189 1910 2253 2122 
L 2253 1871 
z
M 1427 1510 
C 1254 1510 1011 1542 813 1929 
C 678 2181 678 2477 678 2793 
C 678 3174 678 3438 858 3722 
C 947 3857 1114 4076 1485 4076 
C 2240 4076 2240 2909 2240 2651 
C 2240 2193 2035 1510 1427 1510 
z
" transform="scale(0.015625)"/>
      </defs>
      <use xlink:href="#CMMI12-b" transform="scale(0.996264)"/>
      <use xlink:href="#CMR17-3d" transform="translate(90.355032 0) scale(0.996264)"/>
      <use xlink:href="#CMR17-30" transform="translate(189.743829 0) scale(0.996264)"/>
      <use xlink:href="#CMMI12-3a" transform="translate(235.434306 0) scale(0.996264)"/>
      <use xlink:href="#CMR17-39" transform="translate(262.531483 0) scale(0.996264)"/>
     </g>
    </g>
    <g id="line2d_19">
     <path d="M 130.013526 71.51419 
L 140.013526 71.51419 
L 150.013526 71.51419 
" style="fill: none; stroke: #d62728; stroke-width: 1.5; stroke-linecap: square"/>
    </g>
    <g id="text_19">
     <!-- $\alpha=1.0$ -->
     <g transform="translate(158.013526 75.01419) scale(0.1 -0.1)">
      <use xlink:href="#CMMI12-b" transform="scale(0.996264)"/>
      <use xlink:href="#CMR17-3d" transform="translate(90.355032 0) scale(0.996264)"/>
      <use xlink:href="#CMR17-31" transform="translate(189.743829 0) scale(0.996264)"/>
      <use xlink:href="#CMMI12-3a" transform="translate(235.434306 0) scale(0.996264)"/>
      <use xlink:href="#CMR17-30" transform="translate(262.531483 0) scale(0.996264)"/>
     </g>
    </g>
   </g>
  </g>
 </g>
 <defs>
  <clipPath id="pd1454bdc86">
   <rect x="32.037012" y="17.202655" width="167.4" height="138.6"/>
  </clipPath>
 </defs>
</svg>
