<?xml version="1.0" encoding="utf-8" standalone="no"?>
<!DOCTYPE svg PUBLIC "-//W3C//DTD SVG 1.1//EN"
  "http://www.w3.org/Graphics/SVG/1.1/DTD/svg11.dtd">
<svg xmlns:xlink="http://www.w3.org/1999/xlink" width="442.889216pt" height="326.937261pt" viewBox="0 0 442.889216 326.937261" xmlns="http://www.w3.org/2000/svg" version="1.1">
 <metadata>
  <rdf:RDF xmlns:dc="http://purl.org/dc/elements/1.1/" xmlns:cc="http://creativecommons.org/ns#" xmlns:rdf="http://www.w3.org/1999/02/22-rdf-syntax-ns#">
   <cc:Work>
    <dc:type rdf:resource="http://purl.org/dc/dcmitype/StillImage"/>
    <dc:date>2025-05-19T16:04:18.333597</dc:date>
    <dc:format>image/svg+xml</dc:format>
    <dc:creator>
     <cc:Agent>
      <dc:title>Matplotlib v3.9.2, https://matplotlib.org/</dc:title>
     </cc:Agent>
    </dc:creator>
   </cc:Work>
  </rdf:RDF>
 </metadata>
 <defs>
  <style type="text/css">*{stroke-linejoin: round; stroke-linecap: butt}</style>
 </defs>
 <g id="figure_1">
  <g id="patch_1">
   <path d="M 0 326.937261 
L 442.889216 326.937261 
L 442.889216 0 
L 0 0 
z
" style="fill: #ffffff"/>
  </g>
  <g id="axes_1">
   <g id="patch_2">
    <path d="M 75.105744 273.312 
L 432.225744 273.312 
L 432.225744 7.2 
L 75.105744 7.2 
z
" style="fill: #ffffff"/>
   </g>
   <g id="matplotlib.axis_1">
    <g id="xtick_1">
     <g id="line2d_1">
      <defs>
       <path id="m51dd92273d" d="M 0 0 
L 0 3.5 
" style="stroke: #000000; stroke-width: 0.8"/>
      </defs>
      <g>
       <use xlink:href="#m51dd92273d" x="91.338471" y="273.312" style="stroke: #000000; stroke-width: 0.8"/>
      </g>
     </g>
     <g id="text_1">
      <!-- $\mathdefault{0.00}$ -->
      <g transform="translate(74.921611 294.148997) scale(0.2 -0.2)">
       <defs>
        <path id="CMR17-30" d="M 2688 2038 
C 2688 2430 2682 3099 2413 3613 
C 2176 4063 1798 4224 1466 4224 
C 1158 4224 768 4082 525 3620 
C 269 3137 243 2539 243 2038 
C 243 1671 250 1112 448 623 
C 723 -39 1216 -128 1466 -128 
C 1760 -128 2208 -7 2470 604 
C 2662 1048 2688 1568 2688 2038 
z
M 1466 -26 
C 1056 -26 813 328 723 816 
C 653 1196 653 1749 653 2109 
C 653 2604 653 3015 736 3407 
C 858 3954 1216 4121 1466 4121 
C 1728 4121 2067 3947 2189 3420 
C 2272 3054 2278 2623 2278 2109 
C 2278 1691 2278 1176 2202 797 
C 2067 96 1690 -26 1466 -26 
z
" transform="scale(0.015625)"/>
        <path id="CMMI12-3a" d="M 1178 307 
C 1178 492 1024 620 870 620 
C 685 620 557 467 557 313 
C 557 128 710 0 864 0 
C 1050 0 1178 153 1178 307 
z
" transform="scale(0.015625)"/>
       </defs>
       <use xlink:href="#CMR17-30" transform="scale(0.996264)"/>
       <use xlink:href="#CMMI12-3a" transform="translate(45.690477 0) scale(0.996264)"/>
       <use xlink:href="#CMR17-30" transform="translate(72.787654 0) scale(0.996264)"/>
       <use xlink:href="#CMR17-30" transform="translate(118.478131 0) scale(0.996264)"/>
      </g>
     </g>
    </g>
    <g id="xtick_2">
     <g id="line2d_2">
      <g>
       <use xlink:href="#m51dd92273d" x="173.321942" y="273.312" style="stroke: #000000; stroke-width: 0.8"/>
      </g>
     </g>
     <g id="text_2">
      <!-- $\mathdefault{0.25}$ -->
      <g transform="translate(156.905082 294.148997) scale(0.2 -0.2)">
       <defs>
        <path id="CMR17-32" d="M 2669 990 
L 2554 990 
C 2490 537 2438 460 2413 422 
C 2381 371 1920 371 1830 371 
L 602 371 
C 832 620 1280 1073 1824 1596 
C 2214 1966 2669 2400 2669 3033 
C 2669 3788 2067 4224 1395 4224 
C 691 4224 262 3603 262 3027 
C 262 2777 448 2745 525 2745 
C 589 2745 781 2783 781 3007 
C 781 3206 614 3264 525 3264 
C 486 3264 448 3257 422 3244 
C 544 3788 915 4057 1306 4057 
C 1862 4057 2227 3616 2227 3033 
C 2227 2477 1901 1998 1536 1583 
L 262 147 
L 262 0 
L 2515 0 
L 2669 990 
z
" transform="scale(0.015625)"/>
        <path id="CMR17-35" d="M 730 3750 
C 794 3724 1056 3641 1325 3641 
C 1920 3641 2246 3961 2432 4140 
C 2432 4191 2432 4224 2394 4224 
C 2387 4224 2374 4224 2323 4198 
C 2099 4102 1837 4032 1517 4032 
C 1325 4032 1037 4055 723 4191 
C 653 4224 640 4224 634 4224 
C 602 4224 595 4217 595 4090 
L 595 2231 
C 595 2113 595 2080 659 2080 
C 691 2080 704 2093 736 2139 
C 941 2435 1222 2560 1542 2560 
C 1766 2560 2246 2415 2246 1293 
C 2246 1087 2246 716 2054 422 
C 1894 159 1645 25 1370 25 
C 947 25 518 319 403 812 
C 429 806 480 793 506 793 
C 589 793 749 838 749 1036 
C 749 1209 627 1280 506 1280 
C 358 1280 262 1190 262 1011 
C 262 454 704 -128 1382 -128 
C 2042 -128 2669 441 2669 1267 
C 2669 2054 2170 2662 1549 2662 
C 1222 2662 947 2540 730 2304 
L 730 3750 
z
" transform="scale(0.015625)"/>
       </defs>
       <use xlink:href="#CMR17-30" transform="scale(0.996264)"/>
       <use xlink:href="#CMMI12-3a" transform="translate(45.690477 0) scale(0.996264)"/>
       <use xlink:href="#CMR17-32" transform="translate(72.787654 0) scale(0.996264)"/>
       <use xlink:href="#CMR17-35" transform="translate(118.478131 0) scale(0.996264)"/>
      </g>
     </g>
    </g>
    <g id="xtick_3">
     <g id="line2d_3">
      <g>
       <use xlink:href="#m51dd92273d" x="255.305414" y="273.312" style="stroke: #000000; stroke-width: 0.8"/>
      </g>
     </g>
     <g id="text_3">
      <!-- $\mathdefault{0.50}$ -->
      <g transform="translate(238.888553 294.148997) scale(0.2 -0.2)">
       <use xlink:href="#CMR17-30" transform="scale(0.996264)"/>
       <use xlink:href="#CMMI12-3a" transform="translate(45.690477 0) scale(0.996264)"/>
       <use xlink:href="#CMR17-35" transform="translate(72.787654 0) scale(0.996264)"/>
       <use xlink:href="#CMR17-30" transform="translate(118.478131 0) scale(0.996264)"/>
      </g>
     </g>
    </g>
    <g id="xtick_4">
     <g id="line2d_4">
      <g>
       <use xlink:href="#m51dd92273d" x="337.288885" y="273.312" style="stroke: #000000; stroke-width: 0.8"/>
      </g>
     </g>
     <g id="text_4">
      <!-- $\mathdefault{0.75}$ -->
      <g transform="translate(320.872024 294.148997) scale(0.2 -0.2)">
       <defs>
        <path id="CMR17-37" d="M 2886 3955 
L 2886 4096 
L 1382 4096 
C 634 4096 621 4166 595 4288 
L 480 4288 
L 294 3104 
L 410 3104 
C 429 3226 474 3552 550 3673 
C 589 3724 1062 3724 1171 3724 
L 2579 3724 
L 1869 2670 
C 1395 1961 1069 1003 1069 166 
C 1069 89 1069 -128 1299 -128 
C 1530 -128 1530 89 1530 172 
L 1530 466 
C 1530 1514 1709 2204 2003 2644 
L 2886 3955 
z
" transform="scale(0.015625)"/>
       </defs>
       <use xlink:href="#CMR17-30" transform="scale(0.996264)"/>
       <use xlink:href="#CMMI12-3a" transform="translate(45.690477 0) scale(0.996264)"/>
       <use xlink:href="#CMR17-37" transform="translate(72.787654 0) scale(0.996264)"/>
       <use xlink:href="#CMR17-35" transform="translate(118.478131 0) scale(0.996264)"/>
      </g>
     </g>
    </g>
    <g id="xtick_5">
     <g id="line2d_5">
      <g>
       <use xlink:href="#m51dd92273d" x="419.272356" y="273.312" style="stroke: #000000; stroke-width: 0.8"/>
      </g>
     </g>
     <g id="text_5">
      <!-- $\mathdefault{1.00}$ -->
      <g transform="translate(402.855495 294.148997) scale(0.2 -0.2)">
       <defs>
        <path id="CMR17-31" d="M 1702 4083 
C 1702 4217 1696 4224 1606 4224 
C 1357 3927 979 3833 621 3820 
C 602 3820 570 3820 563 3808 
C 557 3795 557 3782 557 3648 
C 755 3648 1088 3686 1344 3839 
L 1344 467 
C 1344 243 1331 166 781 166 
L 589 166 
L 589 0 
C 896 6 1216 12 1523 12 
C 1830 12 2150 6 2458 0 
L 2458 166 
L 2266 166 
C 1715 166 1702 236 1702 467 
L 1702 4083 
z
" transform="scale(0.015625)"/>
       </defs>
       <use xlink:href="#CMR17-31" transform="scale(0.996264)"/>
       <use xlink:href="#CMMI12-3a" transform="translate(45.690477 0) scale(0.996264)"/>
       <use xlink:href="#CMR17-30" transform="translate(72.787654 0) scale(0.996264)"/>
       <use xlink:href="#CMR17-30" transform="translate(118.478131 0) scale(0.996264)"/>
      </g>
     </g>
    </g>
    <g id="text_6">
     <!-- $i$ -->
     <g transform="translate(250.337884 315.861627) scale(0.2 -0.2)">
      <defs>
       <path id="CMMI12-69" d="M 1811 913 
C 1811 945 1786 970 1747 970 
C 1690 970 1683 951 1651 842 
C 1485 261 1222 64 1011 64 
C 934 64 845 83 845 274 
C 845 447 922 638 992 830 
L 1440 2017 
C 1459 2068 1504 2183 1504 2305 
C 1504 2573 1312 2816 998 2816 
C 410 2816 173 1890 173 1838 
C 173 1813 198 1781 243 1781 
C 301 1781 307 1807 333 1896 
C 486 2432 730 2687 979 2687 
C 1037 2687 1146 2681 1146 2477 
C 1146 2311 1062 2100 1011 1960 
L 563 772 
C 525 670 486 568 486 453 
C 486 166 685 -64 992 -64 
C 1581 -64 1811 868 1811 913 
z
M 1760 4012 
C 1760 4108 1683 4224 1542 4224 
C 1395 4224 1229 4083 1229 3916 
C 1229 3756 1363 3705 1440 3705 
C 1613 3705 1760 3871 1760 4012 
z
" transform="scale(0.015625)"/>
      </defs>
      <use xlink:href="#CMMI12-69" transform="scale(0.996264)"/>
     </g>
    </g>
    <g id="text_7">
     <!-- $\times\mathdefault{10^{2}}\mathdefault{}$ -->
     <g transform="translate(391.623608 315.028634) scale(0.2 -0.2)">
      <defs>
       <path id="CMSY10-2" d="M 2490 1775 
L 1210 3046 
C 1133 3123 1120 3136 1069 3136 
C 1005 3136 941 3078 941 3008 
C 941 2963 954 2950 1024 2880 
L 2304 1596 
L 1024 313 
C 954 243 941 230 941 185 
C 941 115 1005 57 1069 57 
C 1120 57 1133 70 1210 147 
L 2483 1418 
L 3808 95 
C 3821 89 3866 57 3904 57 
C 3981 57 4032 115 4032 185 
C 4032 198 4032 223 4013 255 
C 4006 268 2989 1271 2669 1596 
L 3840 2765 
C 3872 2803 3968 2886 4000 2925 
C 4006 2937 4032 2963 4032 3008 
C 4032 3078 3981 3136 3904 3136 
C 3853 3136 3827 3110 3757 3040 
L 2490 1775 
z
" transform="scale(0.015625)"/>
      </defs>
      <use xlink:href="#CMSY10-2" transform="scale(0.996264)"/>
      <use xlink:href="#CMR17-31" transform="translate(77.487468 0) scale(0.996264)"/>
      <use xlink:href="#CMR17-30" transform="translate(123.177945 0) scale(0.996264)"/>
      <use xlink:href="#CMR17-32" transform="translate(168.868422 36.153639) scale(0.697382)"/>
     </g>
    </g>
   </g>
   <g id="matplotlib.axis_2">
    <g id="ytick_1">
     <g id="line2d_6">
      <defs>
       <path id="m428d4369f8" d="M 0 0 
L -3.5 0 
" style="stroke: #000000; stroke-width: 0.8"/>
      </defs>
      <g>
       <use xlink:href="#m428d4369f8" x="75.105744" y="233.726759" style="stroke: #000000; stroke-width: 0.8"/>
      </g>
     </g>
     <g id="text_8">
      <!-- $\mathdefault{−1.0}$ -->
      <g transform="translate(28.91263 240.645257) scale(0.2 -0.2)">
       <defs>
        <path id="CMSY10-0" d="M 4218 1472 
C 4326 1472 4442 1472 4442 1600 
C 4442 1728 4326 1728 4218 1728 
L 755 1728 
C 646 1728 531 1728 531 1600 
C 531 1472 646 1472 755 1472 
L 4218 1472 
z
" transform="scale(0.015625)"/>
       </defs>
       <use xlink:href="#CMSY10-0" transform="scale(0.996264)"/>
       <use xlink:href="#CMR17-31" transform="translate(77.487468 0) scale(0.996264)"/>
       <use xlink:href="#CMMI12-3a" transform="translate(123.177945 0) scale(0.996264)"/>
       <use xlink:href="#CMR17-30" transform="translate(150.275122 0) scale(0.996264)"/>
      </g>
     </g>
    </g>
    <g id="ytick_2">
     <g id="line2d_7">
      <g>
       <use xlink:href="#m428d4369f8" x="75.105744" y="179.476567" style="stroke: #000000; stroke-width: 0.8"/>
      </g>
     </g>
     <g id="text_9">
      <!-- $\mathdefault{−0.5}$ -->
      <g transform="translate(28.91263 186.395065) scale(0.2 -0.2)">
       <use xlink:href="#CMSY10-0" transform="scale(0.996264)"/>
       <use xlink:href="#CMR17-30" transform="translate(77.487468 0) scale(0.996264)"/>
       <use xlink:href="#CMMI12-3a" transform="translate(123.177945 0) scale(0.996264)"/>
       <use xlink:href="#CMR17-35" transform="translate(150.275122 0) scale(0.996264)"/>
      </g>
     </g>
    </g>
    <g id="ytick_3">
     <g id="line2d_8">
      <g>
       <use xlink:href="#m428d4369f8" x="75.105744" y="125.226374" style="stroke: #000000; stroke-width: 0.8"/>
      </g>
     </g>
     <g id="text_10">
      <!-- $\mathdefault{0.0}$ -->
      <g transform="translate(44.410118 132.144873) scale(0.2 -0.2)">
       <use xlink:href="#CMR17-30" transform="scale(0.996264)"/>
       <use xlink:href="#CMMI12-3a" transform="translate(45.690477 0) scale(0.996264)"/>
       <use xlink:href="#CMR17-30" transform="translate(72.787654 0) scale(0.996264)"/>
      </g>
     </g>
    </g>
    <g id="ytick_4">
     <g id="line2d_9">
      <g>
       <use xlink:href="#m428d4369f8" x="75.105744" y="70.976182" style="stroke: #000000; stroke-width: 0.8"/>
      </g>
     </g>
     <g id="text_11">
      <!-- $\mathdefault{0.5}$ -->
      <g transform="translate(44.410118 77.894681) scale(0.2 -0.2)">
       <use xlink:href="#CMR17-30" transform="scale(0.996264)"/>
       <use xlink:href="#CMMI12-3a" transform="translate(45.690477 0) scale(0.996264)"/>
       <use xlink:href="#CMR17-35" transform="translate(72.787654 0) scale(0.996264)"/>
      </g>
     </g>
    </g>
    <g id="ytick_5">
     <g id="line2d_10">
      <g>
       <use xlink:href="#m428d4369f8" x="75.105744" y="16.72599" style="stroke: #000000; stroke-width: 0.8"/>
      </g>
     </g>
     <g id="text_12">
      <!-- $\mathdefault{1.0}$ -->
      <g transform="translate(44.410118 23.644488) scale(0.2 -0.2)">
       <use xlink:href="#CMR17-31" transform="scale(0.996264)"/>
       <use xlink:href="#CMMI12-3a" transform="translate(45.690477 0) scale(0.996264)"/>
       <use xlink:href="#CMR17-30" transform="translate(72.787654 0) scale(0.996264)"/>
      </g>
     </g>
    </g>
    <g id="text_13">
     <!-- $\Delta x$ -->
     <g transform="translate(21.036997 153.491363) rotate(-90) scale(0.2 -0.2)">
      <defs>
       <path id="CMR17-1" d="M 2598 4435 
C 2547 4544 2522 4544 2470 4544 
C 2394 4544 2387 4531 2342 4441 
L 269 108 
C 262 96 237 38 237 32 
C 237 6 243 0 358 0 
L 4576 0 
C 4691 0 4698 6 4698 32 
C 4698 38 4672 96 4666 108 
L 2598 4435 
z
M 2310 4056 
L 4083 358 
L 531 358 
L 2310 4056 
z
" transform="scale(0.015625)"/>
       <path id="CMMI12-78" d="M 3034 2624 
C 2829 2585 2752 2431 2752 2310 
C 2752 2156 2874 2105 2963 2105 
C 3155 2105 3290 2271 3290 2444 
C 3290 2694 2982 2816 2714 2816 
C 2323 2816 2106 2451 2048 2329 
C 1901 2790 1504 2816 1389 2816 
C 736 2816 390 1993 390 1849 
C 390 1823 416 1790 461 1790 
C 512 1790 525 1829 538 1855 
C 755 2572 1184 2687 1370 2687 
C 1658 2687 1715 2438 1715 2284 
C 1715 2143 1677 1993 1600 1678 
L 1382 778 
C 1286 390 1101 64 762 64 
C 730 64 570 64 435 126 
C 666 166 717 358 717 435 
C 717 563 621 640 499 640 
C 346 640 179 505 179 300 
C 179 57 480 -64 755 -64 
C 1062 -64 1280 153 1414 415 
C 1517 64 1837 -64 2074 -64 
C 2726 -64 3072 751 3072 896 
C 3072 929 3046 955 3008 955 
C 2950 955 2944 922 2925 870 
C 2752 300 2381 64 2093 64 
C 1869 64 1747 204 1747 467 
C 1747 607 1773 712 1875 1146 
L 2099 2039 
C 2195 2425 2413 2687 2707 2687 
C 2720 2687 2899 2687 3034 2624 
z
" transform="scale(0.015625)"/>
      </defs>
      <use xlink:href="#CMR17-1" transform="scale(0.996264)"/>
      <use xlink:href="#CMMI12-78" transform="translate(76.91959 0) scale(0.996264)"/>
     </g>
    </g>
   </g>
   <g id="line2d_11">
    <path d="M 91.338471 76.949688 
L 94.61781 82.51466 
L 97.897149 80.034922 
L 101.176488 151.3792 
L 104.455827 205.240574 
L 107.735166 80.790654 
L 111.014504 83.137222 
L 114.293843 171.07253 
L 117.573182 83.284473 
L 120.852521 183.212374 
L 124.13186 82.935899 
L 127.411199 76.469863 
L 130.690537 146.866802 
L 133.969876 160.281982 
L 137.249215 80.766996 
L 140.528554 152.962449 
L 143.807893 55.804393 
L 147.087232 137.90798 
L 150.366571 141.159658 
L 153.645909 146.52765 
L 156.925248 159.141707 
L 160.204587 79.899669 
L 163.483926 151.127895 
L 166.763265 196.127763 
L 170.042604 81.797846 
L 173.321942 82.173665 
L 176.601281 158.157617 
L 179.88062 78.902566 
L 183.159959 149.546148 
L 186.439298 173.747259 
L 189.718637 83.324737 
L 192.997975 261.216 
L 196.277314 72.818019 
L 199.556653 80.241888 
L 202.835992 83.295828 
L 206.115331 185.930959 
L 209.39467 82.735963 
L 212.674009 78.620615 
L 215.953347 149.166251 
L 219.232686 171.033076 
L 222.512025 83.283077 
L 225.791364 182.933965 
L 229.070703 82.954765 
L 232.350042 76.188873 
L 235.62938 146.622199 
L 238.908719 159.452423 
L 242.188058 80.162214 
L 245.467397 151.625877 
L 248.746736 221.643543 
L 252.026075 78.717266 
L 255.305414 83.164966 
L 258.584752 70.69216 
L 261.864091 143.112583 
L 265.14343 150.334882 
L 268.422769 181.439836 
L 271.702108 83.050214 
L 274.981447 74.399421 
L 278.260785 145.257804 
L 281.540124 155.40371 
L 284.819463 73.63191 
L 288.098802 144.752581 
L 291.378141 154.095667 
L 294.65748 67.819222 
L 297.936818 141.813467 
L 301.216157 147.739397 
L 304.495496 163.606647 
L 307.774835 82.26442 
L 311.054174 158.708111 
L 314.333513 79.494183 
L 317.612852 150.432821 
L 320.89219 182.704502 
L 324.171529 82.970068 
L 327.450868 75.946334 
L 330.730207 146.418674 
L 334.009546 158.790025 
L 337.288885 79.574558 
L 340.568223 150.564251 
L 343.847562 184.566967 
L 347.126901 82.839682 
L 350.40624 77.659182 
L 353.685579 148.028128 
L 356.964918 164.86519 
L 360.244256 82.590182 
L 363.523595 161.207034 
L 366.802934 81.308171 
L 370.082273 154.480567 
L 373.361612 69.99051 
L 376.640951 142.773102 
L 379.92029 149.629342 
L 383.199628 174.407439 
L 386.478967 83.320604 
L 389.758306 19.296 
L 393.037645 130.956926 
L 396.316984 131.787581 
L 399.596323 132.810722 
L 402.875661 134.100536 
L 406.155 135.778077 
L 409.434339 138.059755 
L 412.713678 141.390998 
L 415.993017 146.950085 
" clip-path="url(#p2f2e7bcb5c)" style="fill: none; stroke: #0000ff; stroke-linecap: square"/>
    <defs>
     <path id="m782db1005a" d="M 0 1.5 
C 0.397805 1.5 0.77937 1.341951 1.06066 1.06066 
C 1.341951 0.77937 1.5 0.397805 1.5 0 
C 1.5 -0.397805 1.341951 -0.77937 1.06066 -1.06066 
C 0.77937 -1.341951 0.397805 -1.5 0 -1.5 
C -0.397805 -1.5 -0.77937 -1.341951 -1.06066 -1.06066 
C -1.341951 -0.77937 -1.5 -0.397805 -1.5 0 
C -1.5 0.397805 -1.341951 0.77937 -1.06066 1.06066 
C -0.77937 1.341951 -0.397805 1.5 0 1.5 
z
" style="stroke: #0000ff"/>
    </defs>
    <g clip-path="url(#p2f2e7bcb5c)">
     <use xlink:href="#m782db1005a" x="91.338471" y="76.949688" style="fill: #0000ff; stroke: #0000ff"/>
     <use xlink:href="#m782db1005a" x="94.61781" y="82.51466" style="fill: #0000ff; stroke: #0000ff"/>
     <use xlink:href="#m782db1005a" x="97.897149" y="80.034922" style="fill: #0000ff; stroke: #0000ff"/>
     <use xlink:href="#m782db1005a" x="101.176488" y="151.3792" style="fill: #0000ff; stroke: #0000ff"/>
     <use xlink:href="#m782db1005a" x="104.455827" y="205.240574" style="fill: #0000ff; stroke: #0000ff"/>
     <use xlink:href="#m782db1005a" x="107.735166" y="80.790654" style="fill: #0000ff; stroke: #0000ff"/>
     <use xlink:href="#m782db1005a" x="111.014504" y="83.137222" style="fill: #0000ff; stroke: #0000ff"/>
     <use xlink:href="#m782db1005a" x="114.293843" y="171.07253" style="fill: #0000ff; stroke: #0000ff"/>
     <use xlink:href="#m782db1005a" x="117.573182" y="83.284473" style="fill: #0000ff; stroke: #0000ff"/>
     <use xlink:href="#m782db1005a" x="120.852521" y="183.212374" style="fill: #0000ff; stroke: #0000ff"/>
     <use xlink:href="#m782db1005a" x="124.13186" y="82.935899" style="fill: #0000ff; stroke: #0000ff"/>
     <use xlink:href="#m782db1005a" x="127.411199" y="76.469863" style="fill: #0000ff; stroke: #0000ff"/>
     <use xlink:href="#m782db1005a" x="130.690537" y="146.866802" style="fill: #0000ff; stroke: #0000ff"/>
     <use xlink:href="#m782db1005a" x="133.969876" y="160.281982" style="fill: #0000ff; stroke: #0000ff"/>
     <use xlink:href="#m782db1005a" x="137.249215" y="80.766996" style="fill: #0000ff; stroke: #0000ff"/>
     <use xlink:href="#m782db1005a" x="140.528554" y="152.962449" style="fill: #0000ff; stroke: #0000ff"/>
     <use xlink:href="#m782db1005a" x="143.807893" y="55.804393" style="fill: #0000ff; stroke: #0000ff"/>
     <use xlink:href="#m782db1005a" x="147.087232" y="137.90798" style="fill: #0000ff; stroke: #0000ff"/>
     <use xlink:href="#m782db1005a" x="150.366571" y="141.159658" style="fill: #0000ff; stroke: #0000ff"/>
     <use xlink:href="#m782db1005a" x="153.645909" y="146.52765" style="fill: #0000ff; stroke: #0000ff"/>
     <use xlink:href="#m782db1005a" x="156.925248" y="159.141707" style="fill: #0000ff; stroke: #0000ff"/>
     <use xlink:href="#m782db1005a" x="160.204587" y="79.899669" style="fill: #0000ff; stroke: #0000ff"/>
     <use xlink:href="#m782db1005a" x="163.483926" y="151.127895" style="fill: #0000ff; stroke: #0000ff"/>
     <use xlink:href="#m782db1005a" x="166.763265" y="196.127763" style="fill: #0000ff; stroke: #0000ff"/>
     <use xlink:href="#m782db1005a" x="170.042604" y="81.797846" style="fill: #0000ff; stroke: #0000ff"/>
     <use xlink:href="#m782db1005a" x="173.321942" y="82.173665" style="fill: #0000ff; stroke: #0000ff"/>
     <use xlink:href="#m782db1005a" x="176.601281" y="158.157617" style="fill: #0000ff; stroke: #0000ff"/>
     <use xlink:href="#m782db1005a" x="179.88062" y="78.902566" style="fill: #0000ff; stroke: #0000ff"/>
     <use xlink:href="#m782db1005a" x="183.159959" y="149.546148" style="fill: #0000ff; stroke: #0000ff"/>
     <use xlink:href="#m782db1005a" x="186.439298" y="173.747259" style="fill: #0000ff; stroke: #0000ff"/>
     <use xlink:href="#m782db1005a" x="189.718637" y="83.324737" style="fill: #0000ff; stroke: #0000ff"/>
     <use xlink:href="#m782db1005a" x="192.997975" y="261.216" style="fill: #0000ff; stroke: #0000ff"/>
     <use xlink:href="#m782db1005a" x="196.277314" y="72.818019" style="fill: #0000ff; stroke: #0000ff"/>
     <use xlink:href="#m782db1005a" x="199.556653" y="80.241888" style="fill: #0000ff; stroke: #0000ff"/>
     <use xlink:href="#m782db1005a" x="202.835992" y="83.295828" style="fill: #0000ff; stroke: #0000ff"/>
     <use xlink:href="#m782db1005a" x="206.115331" y="185.930959" style="fill: #0000ff; stroke: #0000ff"/>
     <use xlink:href="#m782db1005a" x="209.39467" y="82.735963" style="fill: #0000ff; stroke: #0000ff"/>
     <use xlink:href="#m782db1005a" x="212.674009" y="78.620615" style="fill: #0000ff; stroke: #0000ff"/>
     <use xlink:href="#m782db1005a" x="215.953347" y="149.166251" style="fill: #0000ff; stroke: #0000ff"/>
     <use xlink:href="#m782db1005a" x="219.232686" y="171.033076" style="fill: #0000ff; stroke: #0000ff"/>
     <use xlink:href="#m782db1005a" x="222.512025" y="83.283077" style="fill: #0000ff; stroke: #0000ff"/>
     <use xlink:href="#m782db1005a" x="225.791364" y="182.933965" style="fill: #0000ff; stroke: #0000ff"/>
     <use xlink:href="#m782db1005a" x="229.070703" y="82.954765" style="fill: #0000ff; stroke: #0000ff"/>
     <use xlink:href="#m782db1005a" x="232.350042" y="76.188873" style="fill: #0000ff; stroke: #0000ff"/>
     <use xlink:href="#m782db1005a" x="235.62938" y="146.622199" style="fill: #0000ff; stroke: #0000ff"/>
     <use xlink:href="#m782db1005a" x="238.908719" y="159.452423" style="fill: #0000ff; stroke: #0000ff"/>
     <use xlink:href="#m782db1005a" x="242.188058" y="80.162214" style="fill: #0000ff; stroke: #0000ff"/>
     <use xlink:href="#m782db1005a" x="245.467397" y="151.625877" style="fill: #0000ff; stroke: #0000ff"/>
     <use xlink:href="#m782db1005a" x="248.746736" y="221.643543" style="fill: #0000ff; stroke: #0000ff"/>
     <use xlink:href="#m782db1005a" x="252.026075" y="78.717266" style="fill: #0000ff; stroke: #0000ff"/>
     <use xlink:href="#m782db1005a" x="255.305414" y="83.164966" style="fill: #0000ff; stroke: #0000ff"/>
     <use xlink:href="#m782db1005a" x="258.584752" y="70.69216" style="fill: #0000ff; stroke: #0000ff"/>
     <use xlink:href="#m782db1005a" x="261.864091" y="143.112583" style="fill: #0000ff; stroke: #0000ff"/>
     <use xlink:href="#m782db1005a" x="265.14343" y="150.334882" style="fill: #0000ff; stroke: #0000ff"/>
     <use xlink:href="#m782db1005a" x="268.422769" y="181.439836" style="fill: #0000ff; stroke: #0000ff"/>
     <use xlink:href="#m782db1005a" x="271.702108" y="83.050214" style="fill: #0000ff; stroke: #0000ff"/>
     <use xlink:href="#m782db1005a" x="274.981447" y="74.399421" style="fill: #0000ff; stroke: #0000ff"/>
     <use xlink:href="#m782db1005a" x="278.260785" y="145.257804" style="fill: #0000ff; stroke: #0000ff"/>
     <use xlink:href="#m782db1005a" x="281.540124" y="155.40371" style="fill: #0000ff; stroke: #0000ff"/>
     <use xlink:href="#m782db1005a" x="284.819463" y="73.63191" style="fill: #0000ff; stroke: #0000ff"/>
     <use xlink:href="#m782db1005a" x="288.098802" y="144.752581" style="fill: #0000ff; stroke: #0000ff"/>
     <use xlink:href="#m782db1005a" x="291.378141" y="154.095667" style="fill: #0000ff; stroke: #0000ff"/>
     <use xlink:href="#m782db1005a" x="294.65748" y="67.819222" style="fill: #0000ff; stroke: #0000ff"/>
     <use xlink:href="#m782db1005a" x="297.936818" y="141.813467" style="fill: #0000ff; stroke: #0000ff"/>
     <use xlink:href="#m782db1005a" x="301.216157" y="147.739397" style="fill: #0000ff; stroke: #0000ff"/>
     <use xlink:href="#m782db1005a" x="304.495496" y="163.606647" style="fill: #0000ff; stroke: #0000ff"/>
     <use xlink:href="#m782db1005a" x="307.774835" y="82.26442" style="fill: #0000ff; stroke: #0000ff"/>
     <use xlink:href="#m782db1005a" x="311.054174" y="158.708111" style="fill: #0000ff; stroke: #0000ff"/>
     <use xlink:href="#m782db1005a" x="314.333513" y="79.494183" style="fill: #0000ff; stroke: #0000ff"/>
     <use xlink:href="#m782db1005a" x="317.612852" y="150.432821" style="fill: #0000ff; stroke: #0000ff"/>
     <use xlink:href="#m782db1005a" x="320.89219" y="182.704502" style="fill: #0000ff; stroke: #0000ff"/>
     <use xlink:href="#m782db1005a" x="324.171529" y="82.970068" style="fill: #0000ff; stroke: #0000ff"/>
     <use xlink:href="#m782db1005a" x="327.450868" y="75.946334" style="fill: #0000ff; stroke: #0000ff"/>
     <use xlink:href="#m782db1005a" x="330.730207" y="146.418674" style="fill: #0000ff; stroke: #0000ff"/>
     <use xlink:href="#m782db1005a" x="334.009546" y="158.790025" style="fill: #0000ff; stroke: #0000ff"/>
     <use xlink:href="#m782db1005a" x="337.288885" y="79.574558" style="fill: #0000ff; stroke: #0000ff"/>
     <use xlink:href="#m782db1005a" x="340.568223" y="150.564251" style="fill: #0000ff; stroke: #0000ff"/>
     <use xlink:href="#m782db1005a" x="343.847562" y="184.566967" style="fill: #0000ff; stroke: #0000ff"/>
     <use xlink:href="#m782db1005a" x="347.126901" y="82.839682" style="fill: #0000ff; stroke: #0000ff"/>
     <use xlink:href="#m782db1005a" x="350.40624" y="77.659182" style="fill: #0000ff; stroke: #0000ff"/>
     <use xlink:href="#m782db1005a" x="353.685579" y="148.028128" style="fill: #0000ff; stroke: #0000ff"/>
     <use xlink:href="#m782db1005a" x="356.964918" y="164.86519" style="fill: #0000ff; stroke: #0000ff"/>
     <use xlink:href="#m782db1005a" x="360.244256" y="82.590182" style="fill: #0000ff; stroke: #0000ff"/>
     <use xlink:href="#m782db1005a" x="363.523595" y="161.207034" style="fill: #0000ff; stroke: #0000ff"/>
     <use xlink:href="#m782db1005a" x="366.802934" y="81.308171" style="fill: #0000ff; stroke: #0000ff"/>
     <use xlink:href="#m782db1005a" x="370.082273" y="154.480567" style="fill: #0000ff; stroke: #0000ff"/>
     <use xlink:href="#m782db1005a" x="373.361612" y="69.99051" style="fill: #0000ff; stroke: #0000ff"/>
     <use xlink:href="#m782db1005a" x="376.640951" y="142.773102" style="fill: #0000ff; stroke: #0000ff"/>
     <use xlink:href="#m782db1005a" x="379.92029" y="149.629342" style="fill: #0000ff; stroke: #0000ff"/>
     <use xlink:href="#m782db1005a" x="383.199628" y="174.407439" style="fill: #0000ff; stroke: #0000ff"/>
     <use xlink:href="#m782db1005a" x="386.478967" y="83.320604" style="fill: #0000ff; stroke: #0000ff"/>
     <use xlink:href="#m782db1005a" x="389.758306" y="19.296" style="fill: #0000ff; stroke: #0000ff"/>
     <use xlink:href="#m782db1005a" x="393.037645" y="130.956926" style="fill: #0000ff; stroke: #0000ff"/>
     <use xlink:href="#m782db1005a" x="396.316984" y="131.787581" style="fill: #0000ff; stroke: #0000ff"/>
     <use xlink:href="#m782db1005a" x="399.596323" y="132.810722" style="fill: #0000ff; stroke: #0000ff"/>
     <use xlink:href="#m782db1005a" x="402.875661" y="134.100536" style="fill: #0000ff; stroke: #0000ff"/>
     <use xlink:href="#m782db1005a" x="406.155" y="135.778077" style="fill: #0000ff; stroke: #0000ff"/>
     <use xlink:href="#m782db1005a" x="409.434339" y="138.059755" style="fill: #0000ff; stroke: #0000ff"/>
     <use xlink:href="#m782db1005a" x="412.713678" y="141.390998" style="fill: #0000ff; stroke: #0000ff"/>
     <use xlink:href="#m782db1005a" x="415.993017" y="146.950085" style="fill: #0000ff; stroke: #0000ff"/>
    </g>
   </g>
   <g id="line2d_12">
    <path d="M 91.338471 76.949688 
L 94.61781 98.494438 
L 97.897149 109.907262 
L 101.176488 116.27861 
L 104.455827 120.042693 
L 107.735166 122.38977 
L 111.014504 123.91044 
L 114.293843 125.379217 
L 117.573182 124.960676 
L 120.852521 124.986501 
L 124.13186 124.768887 
L 127.411199 124.469116 
L 130.690537 124.070025 
L 133.969876 123.559363 
L 137.249215 122.928529 
L 140.528554 122.172244 
L 143.807893 121.28872 
L 147.087232 120.280046 
L 150.366571 119.152616 
L 153.645909 117.917526 
L 156.925248 116.590835 
L 160.204587 115.193617 
L 163.483926 113.751746 
L 166.763265 112.295347 
L 170.042604 110.857889 
L 173.321942 109.474941 
L 176.601281 108.182613 
L 179.88062 107.015803 
L 183.159959 106.006366 
L 186.439298 105.181369 
L 189.718637 104.561588 
L 192.997975 104.160406 
L 196.277314 103.983206 
L 199.556653 104.027325 
L 202.835992 104.282552 
L 206.115331 104.732101 
L 209.39467 105.353943 
L 212.674009 106.122348 
L 215.953347 107.009488 
L 219.232686 107.986962 
L 222.512025 109.02713 
L 225.791364 110.104193 
L 229.070703 111.194973 
L 232.350042 112.279413 
L 235.62938 113.340799 
L 238.908719 114.365773 
L 242.188058 115.344164 
L 245.467397 116.268714 
L 248.746736 117.13472 
L 252.026075 117.939652 
L 255.305414 118.682765 
L 258.584752 119.364734 
L 261.864091 119.98732 
L 265.14343 120.553079 
L 268.422769 121.065115 
L 271.702108 121.526876 
L 274.981447 121.941989 
L 278.260785 122.314133 
L 281.540124 122.646943 
L 284.819463 122.943937 
L 288.098802 123.208469 
L 291.378141 123.443695 
L 294.65748 123.652555 
L 297.936818 123.837766 
L 301.216157 124.001819 
L 304.495496 124.146987 
L 307.774835 124.27533 
L 311.054174 124.388712 
L 314.333513 124.488808 
L 317.612852 124.577123 
L 320.89219 124.655002 
L 324.171529 124.723647 
L 327.450868 124.784128 
L 330.730207 124.837398 
L 334.009546 124.884301 
L 337.288885 124.925586 
L 340.568223 124.961919 
L 343.847562 124.993886 
L 347.126901 125.022007 
L 350.40624 125.04674 
L 353.685579 125.06849 
L 356.964918 125.087615 
L 360.244256 125.10443 
L 363.523595 125.119212 
L 366.802934 125.132206 
L 370.082273 125.143627 
L 373.361612 125.153666 
L 376.640951 125.162488 
L 379.92029 125.170241 
L 383.199628 125.177054 
L 386.478967 125.183041 
L 389.758306 125.188302 
L 393.037645 125.192925 
L 396.316984 125.196987 
L 399.596323 125.200556 
L 402.875661 125.203691 
L 406.155 125.206446 
L 409.434339 125.208867 
L 412.713678 125.210993 
L 415.993017 125.212862 
" clip-path="url(#p2f2e7bcb5c)" style="fill: none; stroke: #ff0000; stroke-linecap: square"/>
    <defs>
     <path id="me7a5996715" d="M 0 1.5 
C 0.397805 1.5 0.77937 1.341951 1.06066 1.06066 
C 1.341951 0.77937 1.5 0.397805 1.5 0 
C 1.5 -0.397805 1.341951 -0.77937 1.06066 -1.06066 
C 0.77937 -1.341951 0.397805 -1.5 0 -1.5 
C -0.397805 -1.5 -0.77937 -1.341951 -1.06066 -1.06066 
C -1.341951 -0.77937 -1.5 -0.397805 -1.5 0 
C -1.5 0.397805 -1.341951 0.77937 -1.06066 1.06066 
C -0.77937 1.341951 -0.397805 1.5 0 1.5 
z
" style="stroke: #ff0000"/>
    </defs>
    <g clip-path="url(#p2f2e7bcb5c)">
     <use xlink:href="#me7a5996715" x="91.338471" y="76.949688" style="fill: #ff0000; stroke: #ff0000"/>
     <use xlink:href="#me7a5996715" x="94.61781" y="98.494438" style="fill: #ff0000; stroke: #ff0000"/>
     <use xlink:href="#me7a5996715" x="97.897149" y="109.907262" style="fill: #ff0000; stroke: #ff0000"/>
     <use xlink:href="#me7a5996715" x="101.176488" y="116.27861" style="fill: #ff0000; stroke: #ff0000"/>
     <use xlink:href="#me7a5996715" x="104.455827" y="120.042693" style="fill: #ff0000; stroke: #ff0000"/>
     <use xlink:href="#me7a5996715" x="107.735166" y="122.38977" style="fill: #ff0000; stroke: #ff0000"/>
     <use xlink:href="#me7a5996715" x="111.014504" y="123.91044" style="fill: #ff0000; stroke: #ff0000"/>
     <use xlink:href="#me7a5996715" x="114.293843" y="125.379217" style="fill: #ff0000; stroke: #ff0000"/>
     <use xlink:href="#me7a5996715" x="117.573182" y="124.960676" style="fill: #ff0000; stroke: #ff0000"/>
     <use xlink:href="#me7a5996715" x="120.852521" y="124.986501" style="fill: #ff0000; stroke: #ff0000"/>
     <use xlink:href="#me7a5996715" x="124.13186" y="124.768887" style="fill: #ff0000; stroke: #ff0000"/>
     <use xlink:href="#me7a5996715" x="127.411199" y="124.469116" style="fill: #ff0000; stroke: #ff0000"/>
     <use xlink:href="#me7a5996715" x="130.690537" y="124.070025" style="fill: #ff0000; stroke: #ff0000"/>
     <use xlink:href="#me7a5996715" x="133.969876" y="123.559363" style="fill: #ff0000; stroke: #ff0000"/>
     <use xlink:href="#me7a5996715" x="137.249215" y="122.928529" style="fill: #ff0000; stroke: #ff0000"/>
     <use xlink:href="#me7a5996715" x="140.528554" y="122.172244" style="fill: #ff0000; stroke: #ff0000"/>
     <use xlink:href="#me7a5996715" x="143.807893" y="121.28872" style="fill: #ff0000; stroke: #ff0000"/>
     <use xlink:href="#me7a5996715" x="147.087232" y="120.280046" style="fill: #ff0000; stroke: #ff0000"/>
     <use xlink:href="#me7a5996715" x="150.366571" y="119.152616" style="fill: #ff0000; stroke: #ff0000"/>
     <use xlink:href="#me7a5996715" x="153.645909" y="117.917526" style="fill: #ff0000; stroke: #ff0000"/>
     <use xlink:href="#me7a5996715" x="156.925248" y="116.590835" style="fill: #ff0000; stroke: #ff0000"/>
     <use xlink:href="#me7a5996715" x="160.204587" y="115.193617" style="fill: #ff0000; stroke: #ff0000"/>
     <use xlink:href="#me7a5996715" x="163.483926" y="113.751746" style="fill: #ff0000; stroke: #ff0000"/>
     <use xlink:href="#me7a5996715" x="166.763265" y="112.295347" style="fill: #ff0000; stroke: #ff0000"/>
     <use xlink:href="#me7a5996715" x="170.042604" y="110.857889" style="fill: #ff0000; stroke: #ff0000"/>
     <use xlink:href="#me7a5996715" x="173.321942" y="109.474941" style="fill: #ff0000; stroke: #ff0000"/>
     <use xlink:href="#me7a5996715" x="176.601281" y="108.182613" style="fill: #ff0000; stroke: #ff0000"/>
     <use xlink:href="#me7a5996715" x="179.88062" y="107.015803" style="fill: #ff0000; stroke: #ff0000"/>
     <use xlink:href="#me7a5996715" x="183.159959" y="106.006366" style="fill: #ff0000; stroke: #ff0000"/>
     <use xlink:href="#me7a5996715" x="186.439298" y="105.181369" style="fill: #ff0000; stroke: #ff0000"/>
     <use xlink:href="#me7a5996715" x="189.718637" y="104.561588" style="fill: #ff0000; stroke: #ff0000"/>
     <use xlink:href="#me7a5996715" x="192.997975" y="104.160406" style="fill: #ff0000; stroke: #ff0000"/>
     <use xlink:href="#me7a5996715" x="196.277314" y="103.983206" style="fill: #ff0000; stroke: #ff0000"/>
     <use xlink:href="#me7a5996715" x="199.556653" y="104.027325" style="fill: #ff0000; stroke: #ff0000"/>
     <use xlink:href="#me7a5996715" x="202.835992" y="104.282552" style="fill: #ff0000; stroke: #ff0000"/>
     <use xlink:href="#me7a5996715" x="206.115331" y="104.732101" style="fill: #ff0000; stroke: #ff0000"/>
     <use xlink:href="#me7a5996715" x="209.39467" y="105.353943" style="fill: #ff0000; stroke: #ff0000"/>
     <use xlink:href="#me7a5996715" x="212.674009" y="106.122348" style="fill: #ff0000; stroke: #ff0000"/>
     <use xlink:href="#me7a5996715" x="215.953347" y="107.009488" style="fill: #ff0000; stroke: #ff0000"/>
     <use xlink:href="#me7a5996715" x="219.232686" y="107.986962" style="fill: #ff0000; stroke: #ff0000"/>
     <use xlink:href="#me7a5996715" x="222.512025" y="109.02713" style="fill: #ff0000; stroke: #ff0000"/>
     <use xlink:href="#me7a5996715" x="225.791364" y="110.104193" style="fill: #ff0000; stroke: #ff0000"/>
     <use xlink:href="#me7a5996715" x="229.070703" y="111.194973" style="fill: #ff0000; stroke: #ff0000"/>
     <use xlink:href="#me7a5996715" x="232.350042" y="112.279413" style="fill: #ff0000; stroke: #ff0000"/>
     <use xlink:href="#me7a5996715" x="235.62938" y="113.340799" style="fill: #ff0000; stroke: #ff0000"/>
     <use xlink:href="#me7a5996715" x="238.908719" y="114.365773" style="fill: #ff0000; stroke: #ff0000"/>
     <use xlink:href="#me7a5996715" x="242.188058" y="115.344164" style="fill: #ff0000; stroke: #ff0000"/>
     <use xlink:href="#me7a5996715" x="245.467397" y="116.268714" style="fill: #ff0000; stroke: #ff0000"/>
     <use xlink:href="#me7a5996715" x="248.746736" y="117.13472" style="fill: #ff0000; stroke: #ff0000"/>
     <use xlink:href="#me7a5996715" x="252.026075" y="117.939652" style="fill: #ff0000; stroke: #ff0000"/>
     <use xlink:href="#me7a5996715" x="255.305414" y="118.682765" style="fill: #ff0000; stroke: #ff0000"/>
     <use xlink:href="#me7a5996715" x="258.584752" y="119.364734" style="fill: #ff0000; stroke: #ff0000"/>
     <use xlink:href="#me7a5996715" x="261.864091" y="119.98732" style="fill: #ff0000; stroke: #ff0000"/>
     <use xlink:href="#me7a5996715" x="265.14343" y="120.553079" style="fill: #ff0000; stroke: #ff0000"/>
     <use xlink:href="#me7a5996715" x="268.422769" y="121.065115" style="fill: #ff0000; stroke: #ff0000"/>
     <use xlink:href="#me7a5996715" x="271.702108" y="121.526876" style="fill: #ff0000; stroke: #ff0000"/>
     <use xlink:href="#me7a5996715" x="274.981447" y="121.941989" style="fill: #ff0000; stroke: #ff0000"/>
     <use xlink:href="#me7a5996715" x="278.260785" y="122.314133" style="fill: #ff0000; stroke: #ff0000"/>
     <use xlink:href="#me7a5996715" x="281.540124" y="122.646943" style="fill: #ff0000; stroke: #ff0000"/>
     <use xlink:href="#me7a5996715" x="284.819463" y="122.943937" style="fill: #ff0000; stroke: #ff0000"/>
     <use xlink:href="#me7a5996715" x="288.098802" y="123.208469" style="fill: #ff0000; stroke: #ff0000"/>
     <use xlink:href="#me7a5996715" x="291.378141" y="123.443695" style="fill: #ff0000; stroke: #ff0000"/>
     <use xlink:href="#me7a5996715" x="294.65748" y="123.652555" style="fill: #ff0000; stroke: #ff0000"/>
     <use xlink:href="#me7a5996715" x="297.936818" y="123.837766" style="fill: #ff0000; stroke: #ff0000"/>
     <use xlink:href="#me7a5996715" x="301.216157" y="124.001819" style="fill: #ff0000; stroke: #ff0000"/>
     <use xlink:href="#me7a5996715" x="304.495496" y="124.146987" style="fill: #ff0000; stroke: #ff0000"/>
     <use xlink:href="#me7a5996715" x="307.774835" y="124.27533" style="fill: #ff0000; stroke: #ff0000"/>
     <use xlink:href="#me7a5996715" x="311.054174" y="124.388712" style="fill: #ff0000; stroke: #ff0000"/>
     <use xlink:href="#me7a5996715" x="314.333513" y="124.488808" style="fill: #ff0000; stroke: #ff0000"/>
     <use xlink:href="#me7a5996715" x="317.612852" y="124.577123" style="fill: #ff0000; stroke: #ff0000"/>
     <use xlink:href="#me7a5996715" x="320.89219" y="124.655002" style="fill: #ff0000; stroke: #ff0000"/>
     <use xlink:href="#me7a5996715" x="324.171529" y="124.723647" style="fill: #ff0000; stroke: #ff0000"/>
     <use xlink:href="#me7a5996715" x="327.450868" y="124.784128" style="fill: #ff0000; stroke: #ff0000"/>
     <use xlink:href="#me7a5996715" x="330.730207" y="124.837398" style="fill: #ff0000; stroke: #ff0000"/>
     <use xlink:href="#me7a5996715" x="334.009546" y="124.884301" style="fill: #ff0000; stroke: #ff0000"/>
     <use xlink:href="#me7a5996715" x="337.288885" y="124.925586" style="fill: #ff0000; stroke: #ff0000"/>
     <use xlink:href="#me7a5996715" x="340.568223" y="124.961919" style="fill: #ff0000; stroke: #ff0000"/>
     <use xlink:href="#me7a5996715" x="343.847562" y="124.993886" style="fill: #ff0000; stroke: #ff0000"/>
     <use xlink:href="#me7a5996715" x="347.126901" y="125.022007" style="fill: #ff0000; stroke: #ff0000"/>
     <use xlink:href="#me7a5996715" x="350.40624" y="125.04674" style="fill: #ff0000; stroke: #ff0000"/>
     <use xlink:href="#me7a5996715" x="353.685579" y="125.06849" style="fill: #ff0000; stroke: #ff0000"/>
     <use xlink:href="#me7a5996715" x="356.964918" y="125.087615" style="fill: #ff0000; stroke: #ff0000"/>
     <use xlink:href="#me7a5996715" x="360.244256" y="125.10443" style="fill: #ff0000; stroke: #ff0000"/>
     <use xlink:href="#me7a5996715" x="363.523595" y="125.119212" style="fill: #ff0000; stroke: #ff0000"/>
     <use xlink:href="#me7a5996715" x="366.802934" y="125.132206" style="fill: #ff0000; stroke: #ff0000"/>
     <use xlink:href="#me7a5996715" x="370.082273" y="125.143627" style="fill: #ff0000; stroke: #ff0000"/>
     <use xlink:href="#me7a5996715" x="373.361612" y="125.153666" style="fill: #ff0000; stroke: #ff0000"/>
     <use xlink:href="#me7a5996715" x="376.640951" y="125.162488" style="fill: #ff0000; stroke: #ff0000"/>
     <use xlink:href="#me7a5996715" x="379.92029" y="125.170241" style="fill: #ff0000; stroke: #ff0000"/>
     <use xlink:href="#me7a5996715" x="383.199628" y="125.177054" style="fill: #ff0000; stroke: #ff0000"/>
     <use xlink:href="#me7a5996715" x="386.478967" y="125.183041" style="fill: #ff0000; stroke: #ff0000"/>
     <use xlink:href="#me7a5996715" x="389.758306" y="125.188302" style="fill: #ff0000; stroke: #ff0000"/>
     <use xlink:href="#me7a5996715" x="393.037645" y="125.192925" style="fill: #ff0000; stroke: #ff0000"/>
     <use xlink:href="#me7a5996715" x="396.316984" y="125.196987" style="fill: #ff0000; stroke: #ff0000"/>
     <use xlink:href="#me7a5996715" x="399.596323" y="125.200556" style="fill: #ff0000; stroke: #ff0000"/>
     <use xlink:href="#me7a5996715" x="402.875661" y="125.203691" style="fill: #ff0000; stroke: #ff0000"/>
     <use xlink:href="#me7a5996715" x="406.155" y="125.206446" style="fill: #ff0000; stroke: #ff0000"/>
     <use xlink:href="#me7a5996715" x="409.434339" y="125.208867" style="fill: #ff0000; stroke: #ff0000"/>
     <use xlink:href="#me7a5996715" x="412.713678" y="125.210993" style="fill: #ff0000; stroke: #ff0000"/>
     <use xlink:href="#me7a5996715" x="415.993017" y="125.212862" style="fill: #ff0000; stroke: #ff0000"/>
    </g>
   </g>
   <g id="patch_3">
    <path d="M 75.105744 273.312 
L 75.105744 7.2 
" style="fill: none; stroke: #000000; stroke-width: 0.8; stroke-linejoin: miter; stroke-linecap: square"/>
   </g>
   <g id="patch_4">
    <path d="M 432.225744 273.312 
L 432.225744 7.2 
" style="fill: none; stroke: #000000; stroke-width: 0.8; stroke-linejoin: miter; stroke-linecap: square"/>
   </g>
   <g id="patch_5">
    <path d="M 75.105744 273.312 
L 432.225744 273.312 
" style="fill: none; stroke: #000000; stroke-width: 0.8; stroke-linejoin: miter; stroke-linecap: square"/>
   </g>
   <g id="patch_6">
    <path d="M 75.105744 7.2 
L 432.225744 7.2 
" style="fill: none; stroke: #000000; stroke-width: 0.8; stroke-linejoin: miter; stroke-linecap: square"/>
   </g>
   <g id="legend_1">
    <g id="patch_7">
     <path d="M 287.155343 263.312 
L 418.225744 263.312 
Q 422.225744 263.312 422.225744 259.312 
L 422.225744 205.560733 
Q 422.225744 201.560733 418.225744 201.560733 
L 287.155343 201.560733 
Q 283.155343 201.560733 283.155343 205.560733 
L 283.155343 259.312 
Q 283.155343 263.312 287.155343 263.312 
z
" style="fill: #ffffff; opacity: 0.8; stroke: #cccccc; stroke-linejoin: miter"/>
    </g>
    <g id="line2d_13">
     <path d="M 291.155343 216.560733 
L 311.155343 216.560733 
L 331.155343 216.560733 
" style="fill: none; stroke: #0000ff; stroke-linecap: square"/>
     <g>
      <use xlink:href="#m782db1005a" x="311.155343" y="216.560733" style="fill: #0000ff; stroke: #0000ff"/>
     </g>
    </g>
    <g id="text_14">
     <!-- FGD -->
     <g transform="translate(347.155343 223.560733) scale(0.2 -0.2)">
      <defs>
       <path id="CMSS17-46" d="M 2918 1984 
L 2918 2374 
L 1101 2374 
L 1101 3993 
L 1882 3993 
C 1958 3993 2035 3987 2112 3987 
L 3168 3987 
L 3168 4403 
L 563 4403 
L 563 0 
L 1101 0 
L 1101 1984 
L 2918 1984 
z
" transform="scale(0.015625)"/>
       <path id="CMSS17-47" d="M 3610 1868 
L 2336 1868 
L 2336 1472 
L 3123 1472 
L 3123 473 
C 2874 403 2618 352 2362 352 
C 1466 352 934 1311 934 2220 
C 934 3123 1491 4070 2362 4070 
C 2854 4070 3130 3916 3469 3660 
L 3552 4172 
C 3130 4390 2867 4480 2387 4480 
C 1146 4480 397 3353 397 2201 
C 397 1100 1152 -64 2349 -64 
C 2797 -64 3213 51 3610 249 
L 3610 1868 
z
" transform="scale(0.015625)"/>
       <path id="CMSS17-44" d="M 570 4416 
L 570 0 
L 2144 0 
C 3194 0 4000 981 4000 2169 
C 4000 3396 3194 4416 2144 4416 
L 570 4416 
z
M 1094 358 
L 1094 4057 
L 2003 4057 
C 2861 4057 3475 3275 3475 2169 
C 3475 1108 2867 358 2003 358 
L 1094 358 
z
" transform="scale(0.015625)"/>
      </defs>
      <use xlink:href="#CMSS17-46" transform="scale(0.996264)"/>
      <use xlink:href="#CMSS17-47" transform="translate(50.687105 0) scale(0.996264)"/>
      <use xlink:href="#CMSS17-44" transform="translate(113.145331 0) scale(0.996264)"/>
     </g>
    </g>
    <g id="line2d_14">
     <path d="M 291.155343 244.436366 
L 311.155343 244.436366 
L 331.155343 244.436366 
" style="fill: none; stroke: #ff0000; stroke-linecap: square"/>
     <g>
      <use xlink:href="#me7a5996715" x="311.155343" y="244.436366" style="fill: #ff0000; stroke: #ff0000"/>
     </g>
    </g>
    <g id="text_15">
     <!-- FGD-ED -->
     <g transform="translate(347.155343 251.436366) scale(0.2 -0.2)">
      <defs>
       <path id="CMSS17-2d" d="M 1664 1216 
L 1664 1587 
L 64 1587 
L 64 1216 
L 1664 1216 
z
" transform="scale(0.015625)"/>
       <path id="CMSS17-45" d="M 1958 435 
C 1446 435 1216 435 1101 428 
L 1101 2105 
L 3085 2105 
L 3085 2496 
L 1101 2496 
L 1101 3993 
L 1926 3993 
C 2003 3993 2080 3987 2157 3987 
L 3251 3987 
L 3251 4403 
L 563 4403 
L 563 0 
L 3334 0 
L 3334 441 
L 1958 435 
z
" transform="scale(0.015625)"/>
      </defs>
      <use xlink:href="#CMSS17-46" transform="scale(0.996264)"/>
      <use xlink:href="#CMSS17-47" transform="translate(50.687105 0) scale(0.996264)"/>
      <use xlink:href="#CMSS17-44" transform="translate(113.145331 0) scale(0.996264)"/>
      <use xlink:href="#CMSS17-2d" transform="translate(180.688173 0) scale(0.996264)"/>
      <use xlink:href="#CMSS17-45" transform="translate(211.917285 0) scale(0.996264)"/>
      <use xlink:href="#CMSS17-44" transform="translate(267.809299 0) scale(0.996264)"/>
     </g>
    </g>
   </g>
  </g>
 </g>
 <defs>
  <clipPath id="p2f2e7bcb5c">
   <rect x="75.105744" y="7.2" width="357.12" height="266.112"/>
  </clipPath>
 </defs>
</svg>
