<?xml version="1.0" encoding="utf-8" standalone="no"?>
<!DOCTYPE svg PUBLIC "-//W3C//DTD SVG 1.1//EN"
  "http://www.w3.org/Graphics/SVG/1.1/DTD/svg11.dtd">
<svg xmlns:xlink="http://www.w3.org/1999/xlink" width="427.391729pt" height="343.941264pt" viewBox="0 0 427.391729 343.941264" xmlns="http://www.w3.org/2000/svg" version="1.1">
 <metadata>
  <rdf:RDF xmlns:dc="http://purl.org/dc/elements/1.1/" xmlns:cc="http://creativecommons.org/ns#" xmlns:rdf="http://www.w3.org/1999/02/22-rdf-syntax-ns#">
   <cc:Work>
    <dc:type rdf:resource="http://purl.org/dc/dcmitype/StillImage"/>
    <dc:date>2025-05-19T16:38:15.469363</dc:date>
    <dc:format>image/svg+xml</dc:format>
    <dc:creator>
     <cc:Agent>
      <dc:title>Matplotlib v3.9.2, https://matplotlib.org/</dc:title>
     </cc:Agent>
    </dc:creator>
   </cc:Work>
  </rdf:RDF>
 </metadata>
 <defs>
  <style type="text/css">*{stroke-linejoin: round; stroke-linecap: butt}</style>
 </defs>
 <g id="figure_1">
  <g id="patch_1">
   <path d="M 0 343.941264 
L 427.391729 343.941264 
L 427.391729 0 
L 0 0 
z
" style="fill: #ffffff"/>
  </g>
  <g id="axes_1">
   <g id="patch_2">
    <path d="M 59.608257 290.316004 
L 416.728257 290.316004 
L 416.728257 24.204004 
L 59.608257 24.204004 
z
" style="fill: #ffffff"/>
   </g>
   <g id="matplotlib.axis_1">
    <g id="xtick_1">
     <g id="line2d_1">
      <defs>
       <path id="mefe4c7c145" d="M 0 0 
L 0 3.5 
" style="stroke: #000000; stroke-width: 0.8"/>
      </defs>
      <g>
       <use xlink:href="#mefe4c7c145" x="75.840984" y="290.316004" style="stroke: #000000; stroke-width: 0.8"/>
      </g>
     </g>
     <g id="text_1">
      <!-- $\mathdefault{0.00}$ -->
      <g transform="translate(59.424123 311.153) scale(0.2 -0.2)">
       <defs>
        <path id="CMR17-30" d="M 2688 2038 
C 2688 2430 2682 3099 2413 3613 
C 2176 4063 1798 4224 1466 4224 
C 1158 4224 768 4082 525 3620 
C 269 3137 243 2539 243 2038 
C 243 1671 250 1112 448 623 
C 723 -39 1216 -128 1466 -128 
C 1760 -128 2208 -7 2470 604 
C 2662 1048 2688 1568 2688 2038 
z
M 1466 -26 
C 1056 -26 813 328 723 816 
C 653 1196 653 1749 653 2109 
C 653 2604 653 3015 736 3407 
C 858 3954 1216 4121 1466 4121 
C 1728 4121 2067 3947 2189 3420 
C 2272 3054 2278 2623 2278 2109 
C 2278 1691 2278 1176 2202 797 
C 2067 96 1690 -26 1466 -26 
z
" transform="scale(0.015625)"/>
        <path id="CMMI12-3a" d="M 1178 307 
C 1178 492 1024 620 870 620 
C 685 620 557 467 557 313 
C 557 128 710 0 864 0 
C 1050 0 1178 153 1178 307 
z
" transform="scale(0.015625)"/>
       </defs>
       <use xlink:href="#CMR17-30" transform="scale(0.996264)"/>
       <use xlink:href="#CMMI12-3a" transform="translate(45.690477 0) scale(0.996264)"/>
       <use xlink:href="#CMR17-30" transform="translate(72.787654 0) scale(0.996264)"/>
       <use xlink:href="#CMR17-30" transform="translate(118.478131 0) scale(0.996264)"/>
      </g>
     </g>
    </g>
    <g id="xtick_2">
     <g id="line2d_2">
      <g>
       <use xlink:href="#mefe4c7c145" x="157.824455" y="290.316004" style="stroke: #000000; stroke-width: 0.8"/>
      </g>
     </g>
     <g id="text_2">
      <!-- $\mathdefault{0.25}$ -->
      <g transform="translate(141.407594 311.153) scale(0.2 -0.2)">
       <defs>
        <path id="CMR17-32" d="M 2669 990 
L 2554 990 
C 2490 537 2438 460 2413 422 
C 2381 371 1920 371 1830 371 
L 602 371 
C 832 620 1280 1073 1824 1596 
C 2214 1966 2669 2400 2669 3033 
C 2669 3788 2067 4224 1395 4224 
C 691 4224 262 3603 262 3027 
C 262 2777 448 2745 525 2745 
C 589 2745 781 2783 781 3007 
C 781 3206 614 3264 525 3264 
C 486 3264 448 3257 422 3244 
C 544 3788 915 4057 1306 4057 
C 1862 4057 2227 3616 2227 3033 
C 2227 2477 1901 1998 1536 1583 
L 262 147 
L 262 0 
L 2515 0 
L 2669 990 
z
" transform="scale(0.015625)"/>
        <path id="CMR17-35" d="M 730 3750 
C 794 3724 1056 3641 1325 3641 
C 1920 3641 2246 3961 2432 4140 
C 2432 4191 2432 4224 2394 4224 
C 2387 4224 2374 4224 2323 4198 
C 2099 4102 1837 4032 1517 4032 
C 1325 4032 1037 4055 723 4191 
C 653 4224 640 4224 634 4224 
C 602 4224 595 4217 595 4090 
L 595 2231 
C 595 2113 595 2080 659 2080 
C 691 2080 704 2093 736 2139 
C 941 2435 1222 2560 1542 2560 
C 1766 2560 2246 2415 2246 1293 
C 2246 1087 2246 716 2054 422 
C 1894 159 1645 25 1370 25 
C 947 25 518 319 403 812 
C 429 806 480 793 506 793 
C 589 793 749 838 749 1036 
C 749 1209 627 1280 506 1280 
C 358 1280 262 1190 262 1011 
C 262 454 704 -128 1382 -128 
C 2042 -128 2669 441 2669 1267 
C 2669 2054 2170 2662 1549 2662 
C 1222 2662 947 2540 730 2304 
L 730 3750 
z
" transform="scale(0.015625)"/>
       </defs>
       <use xlink:href="#CMR17-30" transform="scale(0.996264)"/>
       <use xlink:href="#CMMI12-3a" transform="translate(45.690477 0) scale(0.996264)"/>
       <use xlink:href="#CMR17-32" transform="translate(72.787654 0) scale(0.996264)"/>
       <use xlink:href="#CMR17-35" transform="translate(118.478131 0) scale(0.996264)"/>
      </g>
     </g>
    </g>
    <g id="xtick_3">
     <g id="line2d_3">
      <g>
       <use xlink:href="#mefe4c7c145" x="239.807926" y="290.316004" style="stroke: #000000; stroke-width: 0.8"/>
      </g>
     </g>
     <g id="text_3">
      <!-- $\mathdefault{0.50}$ -->
      <g transform="translate(223.391065 311.153) scale(0.2 -0.2)">
       <use xlink:href="#CMR17-30" transform="scale(0.996264)"/>
       <use xlink:href="#CMMI12-3a" transform="translate(45.690477 0) scale(0.996264)"/>
       <use xlink:href="#CMR17-35" transform="translate(72.787654 0) scale(0.996264)"/>
       <use xlink:href="#CMR17-30" transform="translate(118.478131 0) scale(0.996264)"/>
      </g>
     </g>
    </g>
    <g id="xtick_4">
     <g id="line2d_4">
      <g>
       <use xlink:href="#mefe4c7c145" x="321.791397" y="290.316004" style="stroke: #000000; stroke-width: 0.8"/>
      </g>
     </g>
     <g id="text_4">
      <!-- $\mathdefault{0.75}$ -->
      <g transform="translate(305.374536 311.153) scale(0.2 -0.2)">
       <defs>
        <path id="CMR17-37" d="M 2886 3955 
L 2886 4096 
L 1382 4096 
C 634 4096 621 4166 595 4288 
L 480 4288 
L 294 3104 
L 410 3104 
C 429 3226 474 3552 550 3673 
C 589 3724 1062 3724 1171 3724 
L 2579 3724 
L 1869 2670 
C 1395 1961 1069 1003 1069 166 
C 1069 89 1069 -128 1299 -128 
C 1530 -128 1530 89 1530 172 
L 1530 466 
C 1530 1514 1709 2204 2003 2644 
L 2886 3955 
z
" transform="scale(0.015625)"/>
       </defs>
       <use xlink:href="#CMR17-30" transform="scale(0.996264)"/>
       <use xlink:href="#CMMI12-3a" transform="translate(45.690477 0) scale(0.996264)"/>
       <use xlink:href="#CMR17-37" transform="translate(72.787654 0) scale(0.996264)"/>
       <use xlink:href="#CMR17-35" transform="translate(118.478131 0) scale(0.996264)"/>
      </g>
     </g>
    </g>
    <g id="xtick_5">
     <g id="line2d_5">
      <g>
       <use xlink:href="#mefe4c7c145" x="403.774868" y="290.316004" style="stroke: #000000; stroke-width: 0.8"/>
      </g>
     </g>
     <g id="text_5">
      <!-- $\mathdefault{1.00}$ -->
      <g transform="translate(387.358007 311.153) scale(0.2 -0.2)">
       <defs>
        <path id="CMR17-31" d="M 1702 4083 
C 1702 4217 1696 4224 1606 4224 
C 1357 3927 979 3833 621 3820 
C 602 3820 570 3820 563 3808 
C 557 3795 557 3782 557 3648 
C 755 3648 1088 3686 1344 3839 
L 1344 467 
C 1344 243 1331 166 781 166 
L 589 166 
L 589 0 
C 896 6 1216 12 1523 12 
C 1830 12 2150 6 2458 0 
L 2458 166 
L 2266 166 
C 1715 166 1702 236 1702 467 
L 1702 4083 
z
" transform="scale(0.015625)"/>
       </defs>
       <use xlink:href="#CMR17-31" transform="scale(0.996264)"/>
       <use xlink:href="#CMMI12-3a" transform="translate(45.690477 0) scale(0.996264)"/>
       <use xlink:href="#CMR17-30" transform="translate(72.787654 0) scale(0.996264)"/>
       <use xlink:href="#CMR17-30" transform="translate(118.478131 0) scale(0.996264)"/>
      </g>
     </g>
    </g>
    <g id="text_6">
     <!-- $i$ -->
     <g transform="translate(234.840396 332.865631) scale(0.2 -0.2)">
      <defs>
       <path id="CMMI12-69" d="M 1811 913 
C 1811 945 1786 970 1747 970 
C 1690 970 1683 951 1651 842 
C 1485 261 1222 64 1011 64 
C 934 64 845 83 845 274 
C 845 447 922 638 992 830 
L 1440 2017 
C 1459 2068 1504 2183 1504 2305 
C 1504 2573 1312 2816 998 2816 
C 410 2816 173 1890 173 1838 
C 173 1813 198 1781 243 1781 
C 301 1781 307 1807 333 1896 
C 486 2432 730 2687 979 2687 
C 1037 2687 1146 2681 1146 2477 
C 1146 2311 1062 2100 1011 1960 
L 563 772 
C 525 670 486 568 486 453 
C 486 166 685 -64 992 -64 
C 1581 -64 1811 868 1811 913 
z
M 1760 4012 
C 1760 4108 1683 4224 1542 4224 
C 1395 4224 1229 4083 1229 3916 
C 1229 3756 1363 3705 1440 3705 
C 1613 3705 1760 3871 1760 4012 
z
" transform="scale(0.015625)"/>
      </defs>
      <use xlink:href="#CMMI12-69" transform="scale(0.996264)"/>
     </g>
    </g>
    <g id="text_7">
     <!-- $\times\mathdefault{10^{2}}\mathdefault{}$ -->
     <g transform="translate(376.12612 332.032637) scale(0.2 -0.2)">
      <defs>
       <path id="CMSY10-2" d="M 2490 1775 
L 1210 3046 
C 1133 3123 1120 3136 1069 3136 
C 1005 3136 941 3078 941 3008 
C 941 2963 954 2950 1024 2880 
L 2304 1596 
L 1024 313 
C 954 243 941 230 941 185 
C 941 115 1005 57 1069 57 
C 1120 57 1133 70 1210 147 
L 2483 1418 
L 3808 95 
C 3821 89 3866 57 3904 57 
C 3981 57 4032 115 4032 185 
C 4032 198 4032 223 4013 255 
C 4006 268 2989 1271 2669 1596 
L 3840 2765 
C 3872 2803 3968 2886 4000 2925 
C 4006 2937 4032 2963 4032 3008 
C 4032 3078 3981 3136 3904 3136 
C 3853 3136 3827 3110 3757 3040 
L 2490 1775 
z
" transform="scale(0.015625)"/>
      </defs>
      <use xlink:href="#CMSY10-2" transform="scale(0.996264)"/>
      <use xlink:href="#CMR17-31" transform="translate(77.487468 0) scale(0.996264)"/>
      <use xlink:href="#CMR17-30" transform="translate(123.177945 0) scale(0.996264)"/>
      <use xlink:href="#CMR17-32" transform="translate(168.868422 36.153639) scale(0.697382)"/>
     </g>
    </g>
   </g>
   <g id="matplotlib.axis_2">
    <g id="ytick_1">
     <g id="line2d_6">
      <defs>
       <path id="m598d0f4bd3" d="M 0 0 
L -3.5 0 
" style="stroke: #000000; stroke-width: 0.8"/>
      </defs>
      <g>
       <use xlink:href="#m598d0f4bd3" x="59.608257" y="278.750008" style="stroke: #000000; stroke-width: 0.8"/>
      </g>
     </g>
     <g id="text_8">
      <!-- $\mathdefault{0.0}$ -->
      <g transform="translate(28.91263 285.668507) scale(0.2 -0.2)">
       <use xlink:href="#CMR17-30" transform="scale(0.996264)"/>
       <use xlink:href="#CMMI12-3a" transform="translate(45.690477 0) scale(0.996264)"/>
       <use xlink:href="#CMR17-30" transform="translate(72.787654 0) scale(0.996264)"/>
      </g>
     </g>
    </g>
    <g id="ytick_2">
     <g id="line2d_7">
      <g>
       <use xlink:href="#m598d0f4bd3" x="59.608257" y="228.239591" style="stroke: #000000; stroke-width: 0.8"/>
      </g>
     </g>
     <g id="text_9">
      <!-- $\mathdefault{0.5}$ -->
      <g transform="translate(28.91263 235.158089) scale(0.2 -0.2)">
       <use xlink:href="#CMR17-30" transform="scale(0.996264)"/>
       <use xlink:href="#CMMI12-3a" transform="translate(45.690477 0) scale(0.996264)"/>
       <use xlink:href="#CMR17-35" transform="translate(72.787654 0) scale(0.996264)"/>
      </g>
     </g>
    </g>
    <g id="ytick_3">
     <g id="line2d_8">
      <g>
       <use xlink:href="#m598d0f4bd3" x="59.608257" y="177.729173" style="stroke: #000000; stroke-width: 0.8"/>
      </g>
     </g>
     <g id="text_10">
      <!-- $\mathdefault{1.0}$ -->
      <g transform="translate(28.91263 184.647671) scale(0.2 -0.2)">
       <use xlink:href="#CMR17-31" transform="scale(0.996264)"/>
       <use xlink:href="#CMMI12-3a" transform="translate(45.690477 0) scale(0.996264)"/>
       <use xlink:href="#CMR17-30" transform="translate(72.787654 0) scale(0.996264)"/>
      </g>
     </g>
    </g>
    <g id="ytick_4">
     <g id="line2d_9">
      <g>
       <use xlink:href="#m598d0f4bd3" x="59.608257" y="127.218755" style="stroke: #000000; stroke-width: 0.8"/>
      </g>
     </g>
     <g id="text_11">
      <!-- $\mathdefault{1.5}$ -->
      <g transform="translate(28.91263 134.137254) scale(0.2 -0.2)">
       <use xlink:href="#CMR17-31" transform="scale(0.996264)"/>
       <use xlink:href="#CMMI12-3a" transform="translate(45.690477 0) scale(0.996264)"/>
       <use xlink:href="#CMR17-35" transform="translate(72.787654 0) scale(0.996264)"/>
      </g>
     </g>
    </g>
    <g id="ytick_5">
     <g id="line2d_10">
      <g>
       <use xlink:href="#m598d0f4bd3" x="59.608257" y="76.708338" style="stroke: #000000; stroke-width: 0.8"/>
      </g>
     </g>
     <g id="text_12">
      <!-- $\mathdefault{2.0}$ -->
      <g transform="translate(28.91263 83.626836) scale(0.2 -0.2)">
       <use xlink:href="#CMR17-32" transform="scale(0.996264)"/>
       <use xlink:href="#CMMI12-3a" transform="translate(45.690477 0) scale(0.996264)"/>
       <use xlink:href="#CMR17-30" transform="translate(72.787654 0) scale(0.996264)"/>
      </g>
     </g>
    </g>
    <g id="ytick_6">
     <g id="line2d_11">
      <g>
       <use xlink:href="#m598d0f4bd3" x="59.608257" y="26.19792" style="stroke: #000000; stroke-width: 0.8"/>
      </g>
     </g>
     <g id="text_13">
      <!-- $\mathdefault{2.5}$ -->
      <g transform="translate(28.91263 33.116418) scale(0.2 -0.2)">
       <use xlink:href="#CMR17-32" transform="scale(0.996264)"/>
       <use xlink:href="#CMMI12-3a" transform="translate(45.690477 0) scale(0.996264)"/>
       <use xlink:href="#CMR17-35" transform="translate(72.787654 0) scale(0.996264)"/>
      </g>
     </g>
    </g>
    <g id="text_14">
     <!-- $\Delta x$ -->
     <g transform="translate(21.036997 170.495367) rotate(-90) scale(0.2 -0.2)">
      <defs>
       <path id="CMR17-1" d="M 2598 4435 
C 2547 4544 2522 4544 2470 4544 
C 2394 4544 2387 4531 2342 4441 
L 269 108 
C 262 96 237 38 237 32 
C 237 6 243 0 358 0 
L 4576 0 
C 4691 0 4698 6 4698 32 
C 4698 38 4672 96 4666 108 
L 2598 4435 
z
M 2310 4056 
L 4083 358 
L 531 358 
L 2310 4056 
z
" transform="scale(0.015625)"/>
       <path id="CMMI12-78" d="M 3034 2624 
C 2829 2585 2752 2431 2752 2310 
C 2752 2156 2874 2105 2963 2105 
C 3155 2105 3290 2271 3290 2444 
C 3290 2694 2982 2816 2714 2816 
C 2323 2816 2106 2451 2048 2329 
C 1901 2790 1504 2816 1389 2816 
C 736 2816 390 1993 390 1849 
C 390 1823 416 1790 461 1790 
C 512 1790 525 1829 538 1855 
C 755 2572 1184 2687 1370 2687 
C 1658 2687 1715 2438 1715 2284 
C 1715 2143 1677 1993 1600 1678 
L 1382 778 
C 1286 390 1101 64 762 64 
C 730 64 570 64 435 126 
C 666 166 717 358 717 435 
C 717 563 621 640 499 640 
C 346 640 179 505 179 300 
C 179 57 480 -64 755 -64 
C 1062 -64 1280 153 1414 415 
C 1517 64 1837 -64 2074 -64 
C 2726 -64 3072 751 3072 896 
C 3072 929 3046 955 3008 955 
C 2950 955 2944 922 2925 870 
C 2752 300 2381 64 2093 64 
C 1869 64 1747 204 1747 467 
C 1747 607 1773 712 1875 1146 
L 2099 2039 
C 2195 2425 2413 2687 2707 2687 
C 2720 2687 2899 2687 3034 2624 
z
" transform="scale(0.015625)"/>
      </defs>
      <use xlink:href="#CMR17-1" transform="scale(0.996264)"/>
      <use xlink:href="#CMMI12-78" transform="translate(76.91959 0) scale(0.996264)"/>
     </g>
    </g>
    <g id="text_15">
     <!-- $\times\mathdefault{10^{−1}}\mathdefault{}$ -->
     <g transform="translate(59.608257 21.204004) scale(0.2 -0.2)">
      <defs>
       <path id="CMSY10-0" d="M 4218 1472 
C 4326 1472 4442 1472 4442 1600 
C 4442 1728 4326 1728 4218 1728 
L 755 1728 
C 646 1728 531 1728 531 1600 
C 531 1472 646 1472 755 1472 
L 4218 1472 
z
" transform="scale(0.015625)"/>
      </defs>
      <use xlink:href="#CMSY10-2" transform="scale(0.996264)"/>
      <use xlink:href="#CMR17-31" transform="translate(77.487468 0) scale(0.996264)"/>
      <use xlink:href="#CMR17-30" transform="translate(123.177945 0) scale(0.996264)"/>
      <use xlink:href="#CMSY10-0" transform="translate(168.868422 36.153639) scale(0.697382)"/>
      <use xlink:href="#CMR17-31" transform="translate(223.109415 36.153639) scale(0.697382)"/>
     </g>
    </g>
   </g>
   <g id="line2d_12">
    <path d="M 75.840984 36.300004 
L 79.120323 50.847004 
L 82.399662 64.521184 
L 85.679 77.374914 
L 88.958339 89.457419 
L 92.237678 100.814975 
L 95.517017 111.491077 
L 98.796356 121.526612 
L 102.075695 130.960016 
L 105.355033 139.827416 
L 108.634372 148.162771 
L 111.913711 155.998006 
L 115.19305 163.363126 
L 118.472389 170.286339 
L 121.751728 176.794159 
L 125.031067 182.91151 
L 128.310405 188.66182 
L 131.589744 194.067111 
L 134.869083 199.148085 
L 138.148422 203.9242 
L 141.427761 208.413749 
L 144.7071 212.633924 
L 147.986438 216.600889 
L 151.265777 220.329836 
L 154.545116 223.835047 
L 157.824455 227.129944 
L 161.103794 230.227148 
L 164.383133 233.13852 
L 167.662472 235.875209 
L 170.94181 238.447697 
L 174.221149 240.865836 
L 177.500488 243.138886 
L 180.779827 245.275553 
L 184.059166 247.284021 
L 187.338505 249.17198 
L 190.617843 250.946662 
L 193.897182 252.614862 
L 197.176521 254.182971 
L 200.45586 255.656993 
L 203.735199 257.042574 
L 207.014538 258.34502 
L 210.293876 259.56932 
L 213.573215 260.720161 
L 216.852554 261.801952 
L 220.131893 262.818835 
L 223.411232 263.774706 
L 226.690571 264.673224 
L 229.96991 265.517831 
L 233.249248 266.311761 
L 236.528587 267.058056 
L 239.807926 267.759573 
L 243.087265 268.418999 
L 246.366604 269.03886 
L 249.645943 269.621529 
L 252.925281 270.169238 
L 256.20462 270.684084 
L 259.483959 271.168039 
L 262.763298 271.622957 
L 266.042637 272.050581 
L 269.321976 272.452546 
L 272.601314 272.830394 
L 275.880653 273.185571 
L 279.159992 273.519437 
L 282.439331 273.833271 
L 285.71867 274.128275 
L 288.998009 274.405579 
L 292.277348 274.666245 
L 295.556686 274.911271 
L 298.836025 275.141595 
L 302.115364 275.3581 
L 305.394703 275.561614 
L 308.674042 275.752918 
L 311.953381 275.932744 
L 315.232719 276.101779 
L 318.512058 276.260673 
L 321.791397 276.410033 
L 325.070736 276.550432 
L 328.350075 276.682406 
L 331.629414 276.806462 
L 334.908753 276.923075 
L 338.188091 277.032691 
L 341.46743 277.13573 
L 344.746769 277.232587 
L 348.026108 277.323632 
L 351.305447 277.409215 
L 354.584786 277.489662 
L 357.864124 277.565283 
L 361.143463 277.636367 
L 364.422802 277.703185 
L 367.702141 277.765994 
L 370.98148 277.825035 
L 374.260819 277.880534 
L 377.540157 277.932702 
L 380.819496 277.981741 
L 384.098835 278.027837 
L 387.378174 278.071167 
L 390.657513 278.111897 
L 393.936852 278.150184 
L 397.216191 278.186173 
L 400.495529 278.220004 
" clip-path="url(#pdfe797dea0)" style="fill: none; stroke: #0000ff; stroke-linecap: square"/>
    <defs>
     <path id="mfae9e5819d" d="M 0 1.5 
C 0.397805 1.5 0.77937 1.341951 1.06066 1.06066 
C 1.341951 0.77937 1.5 0.397805 1.5 0 
C 1.5 -0.397805 1.341951 -0.77937 1.06066 -1.06066 
C 0.77937 -1.341951 0.397805 -1.5 0 -1.5 
C -0.397805 -1.5 -0.77937 -1.341951 -1.06066 -1.06066 
C -1.341951 -0.77937 -1.5 -0.397805 -1.5 0 
C -1.5 0.397805 -1.341951 0.77937 -1.06066 1.06066 
C -0.77937 1.341951 -0.397805 1.5 0 1.5 
z
" style="stroke: #0000ff"/>
    </defs>
    <g clip-path="url(#pdfe797dea0)">
     <use xlink:href="#mfae9e5819d" x="75.840984" y="36.300004" style="fill: #0000ff; stroke: #0000ff"/>
     <use xlink:href="#mfae9e5819d" x="79.120323" y="50.847004" style="fill: #0000ff; stroke: #0000ff"/>
     <use xlink:href="#mfae9e5819d" x="82.399662" y="64.521184" style="fill: #0000ff; stroke: #0000ff"/>
     <use xlink:href="#mfae9e5819d" x="85.679" y="77.374914" style="fill: #0000ff; stroke: #0000ff"/>
     <use xlink:href="#mfae9e5819d" x="88.958339" y="89.457419" style="fill: #0000ff; stroke: #0000ff"/>
     <use xlink:href="#mfae9e5819d" x="92.237678" y="100.814975" style="fill: #0000ff; stroke: #0000ff"/>
     <use xlink:href="#mfae9e5819d" x="95.517017" y="111.491077" style="fill: #0000ff; stroke: #0000ff"/>
     <use xlink:href="#mfae9e5819d" x="98.796356" y="121.526612" style="fill: #0000ff; stroke: #0000ff"/>
     <use xlink:href="#mfae9e5819d" x="102.075695" y="130.960016" style="fill: #0000ff; stroke: #0000ff"/>
     <use xlink:href="#mfae9e5819d" x="105.355033" y="139.827416" style="fill: #0000ff; stroke: #0000ff"/>
     <use xlink:href="#mfae9e5819d" x="108.634372" y="148.162771" style="fill: #0000ff; stroke: #0000ff"/>
     <use xlink:href="#mfae9e5819d" x="111.913711" y="155.998006" style="fill: #0000ff; stroke: #0000ff"/>
     <use xlink:href="#mfae9e5819d" x="115.19305" y="163.363126" style="fill: #0000ff; stroke: #0000ff"/>
     <use xlink:href="#mfae9e5819d" x="118.472389" y="170.286339" style="fill: #0000ff; stroke: #0000ff"/>
     <use xlink:href="#mfae9e5819d" x="121.751728" y="176.794159" style="fill: #0000ff; stroke: #0000ff"/>
     <use xlink:href="#mfae9e5819d" x="125.031067" y="182.91151" style="fill: #0000ff; stroke: #0000ff"/>
     <use xlink:href="#mfae9e5819d" x="128.310405" y="188.66182" style="fill: #0000ff; stroke: #0000ff"/>
     <use xlink:href="#mfae9e5819d" x="131.589744" y="194.067111" style="fill: #0000ff; stroke: #0000ff"/>
     <use xlink:href="#mfae9e5819d" x="134.869083" y="199.148085" style="fill: #0000ff; stroke: #0000ff"/>
     <use xlink:href="#mfae9e5819d" x="138.148422" y="203.9242" style="fill: #0000ff; stroke: #0000ff"/>
     <use xlink:href="#mfae9e5819d" x="141.427761" y="208.413749" style="fill: #0000ff; stroke: #0000ff"/>
     <use xlink:href="#mfae9e5819d" x="144.7071" y="212.633924" style="fill: #0000ff; stroke: #0000ff"/>
     <use xlink:href="#mfae9e5819d" x="147.986438" y="216.600889" style="fill: #0000ff; stroke: #0000ff"/>
     <use xlink:href="#mfae9e5819d" x="151.265777" y="220.329836" style="fill: #0000ff; stroke: #0000ff"/>
     <use xlink:href="#mfae9e5819d" x="154.545116" y="223.835047" style="fill: #0000ff; stroke: #0000ff"/>
     <use xlink:href="#mfae9e5819d" x="157.824455" y="227.129944" style="fill: #0000ff; stroke: #0000ff"/>
     <use xlink:href="#mfae9e5819d" x="161.103794" y="230.227148" style="fill: #0000ff; stroke: #0000ff"/>
     <use xlink:href="#mfae9e5819d" x="164.383133" y="233.13852" style="fill: #0000ff; stroke: #0000ff"/>
     <use xlink:href="#mfae9e5819d" x="167.662472" y="235.875209" style="fill: #0000ff; stroke: #0000ff"/>
     <use xlink:href="#mfae9e5819d" x="170.94181" y="238.447697" style="fill: #0000ff; stroke: #0000ff"/>
     <use xlink:href="#mfae9e5819d" x="174.221149" y="240.865836" style="fill: #0000ff; stroke: #0000ff"/>
     <use xlink:href="#mfae9e5819d" x="177.500488" y="243.138886" style="fill: #0000ff; stroke: #0000ff"/>
     <use xlink:href="#mfae9e5819d" x="180.779827" y="245.275553" style="fill: #0000ff; stroke: #0000ff"/>
     <use xlink:href="#mfae9e5819d" x="184.059166" y="247.284021" style="fill: #0000ff; stroke: #0000ff"/>
     <use xlink:href="#mfae9e5819d" x="187.338505" y="249.17198" style="fill: #0000ff; stroke: #0000ff"/>
     <use xlink:href="#mfae9e5819d" x="190.617843" y="250.946662" style="fill: #0000ff; stroke: #0000ff"/>
     <use xlink:href="#mfae9e5819d" x="193.897182" y="252.614862" style="fill: #0000ff; stroke: #0000ff"/>
     <use xlink:href="#mfae9e5819d" x="197.176521" y="254.182971" style="fill: #0000ff; stroke: #0000ff"/>
     <use xlink:href="#mfae9e5819d" x="200.45586" y="255.656993" style="fill: #0000ff; stroke: #0000ff"/>
     <use xlink:href="#mfae9e5819d" x="203.735199" y="257.042574" style="fill: #0000ff; stroke: #0000ff"/>
     <use xlink:href="#mfae9e5819d" x="207.014538" y="258.34502" style="fill: #0000ff; stroke: #0000ff"/>
     <use xlink:href="#mfae9e5819d" x="210.293876" y="259.56932" style="fill: #0000ff; stroke: #0000ff"/>
     <use xlink:href="#mfae9e5819d" x="213.573215" y="260.720161" style="fill: #0000ff; stroke: #0000ff"/>
     <use xlink:href="#mfae9e5819d" x="216.852554" y="261.801952" style="fill: #0000ff; stroke: #0000ff"/>
     <use xlink:href="#mfae9e5819d" x="220.131893" y="262.818835" style="fill: #0000ff; stroke: #0000ff"/>
     <use xlink:href="#mfae9e5819d" x="223.411232" y="263.774706" style="fill: #0000ff; stroke: #0000ff"/>
     <use xlink:href="#mfae9e5819d" x="226.690571" y="264.673224" style="fill: #0000ff; stroke: #0000ff"/>
     <use xlink:href="#mfae9e5819d" x="229.96991" y="265.517831" style="fill: #0000ff; stroke: #0000ff"/>
     <use xlink:href="#mfae9e5819d" x="233.249248" y="266.311761" style="fill: #0000ff; stroke: #0000ff"/>
     <use xlink:href="#mfae9e5819d" x="236.528587" y="267.058056" style="fill: #0000ff; stroke: #0000ff"/>
     <use xlink:href="#mfae9e5819d" x="239.807926" y="267.759573" style="fill: #0000ff; stroke: #0000ff"/>
     <use xlink:href="#mfae9e5819d" x="243.087265" y="268.418999" style="fill: #0000ff; stroke: #0000ff"/>
     <use xlink:href="#mfae9e5819d" x="246.366604" y="269.03886" style="fill: #0000ff; stroke: #0000ff"/>
     <use xlink:href="#mfae9e5819d" x="249.645943" y="269.621529" style="fill: #0000ff; stroke: #0000ff"/>
     <use xlink:href="#mfae9e5819d" x="252.925281" y="270.169238" style="fill: #0000ff; stroke: #0000ff"/>
     <use xlink:href="#mfae9e5819d" x="256.20462" y="270.684084" style="fill: #0000ff; stroke: #0000ff"/>
     <use xlink:href="#mfae9e5819d" x="259.483959" y="271.168039" style="fill: #0000ff; stroke: #0000ff"/>
     <use xlink:href="#mfae9e5819d" x="262.763298" y="271.622957" style="fill: #0000ff; stroke: #0000ff"/>
     <use xlink:href="#mfae9e5819d" x="266.042637" y="272.050581" style="fill: #0000ff; stroke: #0000ff"/>
     <use xlink:href="#mfae9e5819d" x="269.321976" y="272.452546" style="fill: #0000ff; stroke: #0000ff"/>
     <use xlink:href="#mfae9e5819d" x="272.601314" y="272.830394" style="fill: #0000ff; stroke: #0000ff"/>
     <use xlink:href="#mfae9e5819d" x="275.880653" y="273.185571" style="fill: #0000ff; stroke: #0000ff"/>
     <use xlink:href="#mfae9e5819d" x="279.159992" y="273.519437" style="fill: #0000ff; stroke: #0000ff"/>
     <use xlink:href="#mfae9e5819d" x="282.439331" y="273.833271" style="fill: #0000ff; stroke: #0000ff"/>
     <use xlink:href="#mfae9e5819d" x="285.71867" y="274.128275" style="fill: #0000ff; stroke: #0000ff"/>
     <use xlink:href="#mfae9e5819d" x="288.998009" y="274.405579" style="fill: #0000ff; stroke: #0000ff"/>
     <use xlink:href="#mfae9e5819d" x="292.277348" y="274.666245" style="fill: #0000ff; stroke: #0000ff"/>
     <use xlink:href="#mfae9e5819d" x="295.556686" y="274.911271" style="fill: #0000ff; stroke: #0000ff"/>
     <use xlink:href="#mfae9e5819d" x="298.836025" y="275.141595" style="fill: #0000ff; stroke: #0000ff"/>
     <use xlink:href="#mfae9e5819d" x="302.115364" y="275.3581" style="fill: #0000ff; stroke: #0000ff"/>
     <use xlink:href="#mfae9e5819d" x="305.394703" y="275.561614" style="fill: #0000ff; stroke: #0000ff"/>
     <use xlink:href="#mfae9e5819d" x="308.674042" y="275.752918" style="fill: #0000ff; stroke: #0000ff"/>
     <use xlink:href="#mfae9e5819d" x="311.953381" y="275.932744" style="fill: #0000ff; stroke: #0000ff"/>
     <use xlink:href="#mfae9e5819d" x="315.232719" y="276.101779" style="fill: #0000ff; stroke: #0000ff"/>
     <use xlink:href="#mfae9e5819d" x="318.512058" y="276.260673" style="fill: #0000ff; stroke: #0000ff"/>
     <use xlink:href="#mfae9e5819d" x="321.791397" y="276.410033" style="fill: #0000ff; stroke: #0000ff"/>
     <use xlink:href="#mfae9e5819d" x="325.070736" y="276.550432" style="fill: #0000ff; stroke: #0000ff"/>
     <use xlink:href="#mfae9e5819d" x="328.350075" y="276.682406" style="fill: #0000ff; stroke: #0000ff"/>
     <use xlink:href="#mfae9e5819d" x="331.629414" y="276.806462" style="fill: #0000ff; stroke: #0000ff"/>
     <use xlink:href="#mfae9e5819d" x="334.908753" y="276.923075" style="fill: #0000ff; stroke: #0000ff"/>
     <use xlink:href="#mfae9e5819d" x="338.188091" y="277.032691" style="fill: #0000ff; stroke: #0000ff"/>
     <use xlink:href="#mfae9e5819d" x="341.46743" y="277.13573" style="fill: #0000ff; stroke: #0000ff"/>
     <use xlink:href="#mfae9e5819d" x="344.746769" y="277.232587" style="fill: #0000ff; stroke: #0000ff"/>
     <use xlink:href="#mfae9e5819d" x="348.026108" y="277.323632" style="fill: #0000ff; stroke: #0000ff"/>
     <use xlink:href="#mfae9e5819d" x="351.305447" y="277.409215" style="fill: #0000ff; stroke: #0000ff"/>
     <use xlink:href="#mfae9e5819d" x="354.584786" y="277.489662" style="fill: #0000ff; stroke: #0000ff"/>
     <use xlink:href="#mfae9e5819d" x="357.864124" y="277.565283" style="fill: #0000ff; stroke: #0000ff"/>
     <use xlink:href="#mfae9e5819d" x="361.143463" y="277.636367" style="fill: #0000ff; stroke: #0000ff"/>
     <use xlink:href="#mfae9e5819d" x="364.422802" y="277.703185" style="fill: #0000ff; stroke: #0000ff"/>
     <use xlink:href="#mfae9e5819d" x="367.702141" y="277.765994" style="fill: #0000ff; stroke: #0000ff"/>
     <use xlink:href="#mfae9e5819d" x="370.98148" y="277.825035" style="fill: #0000ff; stroke: #0000ff"/>
     <use xlink:href="#mfae9e5819d" x="374.260819" y="277.880534" style="fill: #0000ff; stroke: #0000ff"/>
     <use xlink:href="#mfae9e5819d" x="377.540157" y="277.932702" style="fill: #0000ff; stroke: #0000ff"/>
     <use xlink:href="#mfae9e5819d" x="380.819496" y="277.981741" style="fill: #0000ff; stroke: #0000ff"/>
     <use xlink:href="#mfae9e5819d" x="384.098835" y="278.027837" style="fill: #0000ff; stroke: #0000ff"/>
     <use xlink:href="#mfae9e5819d" x="387.378174" y="278.071167" style="fill: #0000ff; stroke: #0000ff"/>
     <use xlink:href="#mfae9e5819d" x="390.657513" y="278.111897" style="fill: #0000ff; stroke: #0000ff"/>
     <use xlink:href="#mfae9e5819d" x="393.936852" y="278.150184" style="fill: #0000ff; stroke: #0000ff"/>
     <use xlink:href="#mfae9e5819d" x="397.216191" y="278.186173" style="fill: #0000ff; stroke: #0000ff"/>
     <use xlink:href="#mfae9e5819d" x="400.495529" y="278.220004" style="fill: #0000ff; stroke: #0000ff"/>
    </g>
   </g>
   <g id="patch_3">
    <path d="M 59.608257 290.316004 
L 59.608257 24.204004 
" style="fill: none; stroke: #000000; stroke-width: 0.8; stroke-linejoin: miter; stroke-linecap: square"/>
   </g>
   <g id="patch_4">
    <path d="M 416.728257 290.316004 
L 416.728257 24.204004 
" style="fill: none; stroke: #000000; stroke-width: 0.8; stroke-linejoin: miter; stroke-linecap: square"/>
   </g>
   <g id="patch_5">
    <path d="M 59.608257 290.316004 
L 416.728257 290.316004 
" style="fill: none; stroke: #000000; stroke-width: 0.8; stroke-linejoin: miter; stroke-linecap: square"/>
   </g>
   <g id="patch_6">
    <path d="M 59.608257 24.204004 
L 416.728257 24.204004 
" style="fill: none; stroke: #000000; stroke-width: 0.8; stroke-linejoin: miter; stroke-linecap: square"/>
   </g>
   <g id="legend_1">
    <g id="patch_7">
     <path d="M 277.083995 68.079637 
L 402.728257 68.079637 
Q 406.728257 68.079637 406.728257 64.079637 
L 406.728257 38.204004 
Q 406.728257 34.204004 402.728257 34.204004 
L 277.083995 34.204004 
Q 273.083995 34.204004 273.083995 38.204004 
L 273.083995 64.079637 
Q 273.083995 68.079637 277.083995 68.079637 
z
" style="fill: #ffffff; opacity: 0.8; stroke: #cccccc; stroke-linejoin: miter"/>
    </g>
    <g id="line2d_13">
     <path d="M 281.083995 49.204004 
L 301.083995 49.204004 
L 321.083995 49.204004 
" style="fill: none; stroke: #0000ff; stroke-linecap: square"/>
     <g>
      <use xlink:href="#mfae9e5819d" x="301.083995" y="49.204004" style="fill: #0000ff; stroke: #0000ff"/>
     </g>
    </g>
    <g id="text_16">
     <!-- $\alpha=1.0$ -->
     <g transform="translate(337.083995 56.204004) scale(0.2 -0.2)">
      <defs>
       <path id="CMMI12-b" d="M 2963 1615 
C 2963 2234 2611 2816 1933 2816 
C 1094 2816 256 1902 256 996 
C 256 440 602 -64 1254 -64 
C 1651 -64 2125 89 2579 472 
C 2669 115 2867 -64 3142 -64 
C 3488 -64 3661 293 3661 376 
C 3661 434 3616 434 3597 434 
C 3546 434 3539 415 3520 364 
C 3462 204 3315 64 3162 64 
C 2963 64 2963 472 2963 862 
C 3616 1641 3770 2445 3770 2451 
C 3770 2509 3718 2509 3699 2509 
C 3642 2509 3635 2490 3610 2375 
C 3526 2094 3360 1596 2963 1072 
L 2963 1615 
z
M 2560 625 
C 1997 121 1491 64 1267 64 
C 813 64 685 466 685 766 
C 685 1040 826 1692 1024 2043 
C 1286 2490 1645 2687 1933 2687 
C 2554 2687 2554 1877 2554 1340 
C 2554 1181 2547 1015 2547 855 
C 2547 728 2554 696 2560 625 
z
" transform="scale(0.015625)"/>
       <path id="CMR17-3d" d="M 4115 2048 
C 4211 2048 4307 2048 4307 2156 
C 4307 2272 4198 2272 4090 2272 
L 512 2272 
C 403 2272 294 2272 294 2156 
C 294 2048 390 2048 486 2048 
L 4115 2048 
z
M 4090 927 
C 4198 927 4307 927 4307 1043 
C 4307 1152 4211 1152 4115 1152 
L 486 1152 
C 390 1152 294 1152 294 1043 
C 294 927 403 927 512 927 
L 4090 927 
z
" transform="scale(0.015625)"/>
      </defs>
      <use xlink:href="#CMMI12-b" transform="scale(0.996264)"/>
      <use xlink:href="#CMR17-3d" transform="translate(90.355032 0) scale(0.996264)"/>
      <use xlink:href="#CMR17-31" transform="translate(189.743829 0) scale(0.996264)"/>
      <use xlink:href="#CMMI12-3a" transform="translate(235.434306 0) scale(0.996264)"/>
      <use xlink:href="#CMR17-30" transform="translate(262.531483 0) scale(0.996264)"/>
     </g>
    </g>
   </g>
  </g>
 </g>
 <defs>
  <clipPath id="pdfe797dea0">
   <rect x="59.608257" y="24.204004" width="357.12" height="266.112"/>
  </clipPath>
 </defs>
</svg>
