<?xml version="1.0" encoding="utf-8" standalone="no"?>
<!DOCTYPE svg PUBLIC "-//W3C//DTD SVG 1.1//EN"
  "http://www.w3.org/Graphics/SVG/1.1/DTD/svg11.dtd">
<svg xmlns:xlink="http://www.w3.org/1999/xlink" width="396.357012pt" height="319.226009pt" viewBox="0 0 396.357012 319.226009" xmlns="http://www.w3.org/2000/svg" version="1.1">
 <metadata>
  <rdf:RDF xmlns:dc="http://purl.org/dc/elements/1.1/" xmlns:cc="http://creativecommons.org/ns#" xmlns:rdf="http://www.w3.org/1999/02/22-rdf-syntax-ns#">
   <cc:Work>
    <dc:type rdf:resource="http://purl.org/dc/dcmitype/StillImage"/>
    <dc:date>2025-05-19T10:18:10.800219</dc:date>
    <dc:format>image/svg+xml</dc:format>
    <dc:creator>
     <cc:Agent>
      <dc:title>Matplotlib v3.9.2, https://matplotlib.org/</dc:title>
     </cc:Agent>
    </dc:creator>
   </cc:Work>
  </rdf:RDF>
 </metadata>
 <defs>
  <style type="text/css">*{stroke-linejoin: round; stroke-linecap: butt}</style>
 </defs>
 <g id="figure_1">
  <g id="patch_1">
   <path d="M -0 319.226009 
L 396.357012 319.226009 
L 396.357012 0 
L -0 0 
z
" style="fill: #ffffff"/>
  </g>
  <g id="axes_1">
   <g id="patch_2">
    <path d="M 32.037012 283.314655 
L 389.157012 283.314655 
L 389.157012 17.202655 
L 32.037012 17.202655 
z
" style="fill: #ffffff"/>
   </g>
   <g id="matplotlib.axis_1">
    <g id="xtick_1">
     <g id="line2d_1">
      <defs>
       <path id="m817bc8bb47" d="M 0 0 
L 0 3.5 
" style="stroke: #000000; stroke-width: 0.8"/>
      </defs>
      <g>
       <use xlink:href="#m817bc8bb47" x="48.269739" y="283.314655" style="stroke: #000000; stroke-width: 0.8"/>
      </g>
     </g>
     <g id="text_1">
      <!-- $\mathdefault{0.0}$ -->
      <g transform="translate(41.9047 297.233154) scale(0.1 -0.1)">
       <defs>
        <path id="CMR17-30" d="M 2688 2038 
C 2688 2430 2682 3099 2413 3613 
C 2176 4063 1798 4224 1466 4224 
C 1158 4224 768 4082 525 3620 
C 269 3137 243 2539 243 2038 
C 243 1671 250 1112 448 623 
C 723 -39 1216 -128 1466 -128 
C 1760 -128 2208 -7 2470 604 
C 2662 1048 2688 1568 2688 2038 
z
M 1466 -26 
C 1056 -26 813 328 723 816 
C 653 1196 653 1749 653 2109 
C 653 2604 653 3015 736 3407 
C 858 3954 1216 4121 1466 4121 
C 1728 4121 2067 3947 2189 3420 
C 2272 3054 2278 2623 2278 2109 
C 2278 1691 2278 1176 2202 797 
C 2067 96 1690 -26 1466 -26 
z
" transform="scale(0.015625)"/>
        <path id="CMMI12-3a" d="M 1178 307 
C 1178 492 1024 620 870 620 
C 685 620 557 467 557 313 
C 557 128 710 0 864 0 
C 1050 0 1178 153 1178 307 
z
" transform="scale(0.015625)"/>
       </defs>
       <use xlink:href="#CMR17-30" transform="scale(0.996264)"/>
       <use xlink:href="#CMMI12-3a" transform="translate(45.690477 0) scale(0.996264)"/>
       <use xlink:href="#CMR17-30" transform="translate(72.787654 0) scale(0.996264)"/>
      </g>
     </g>
    </g>
    <g id="xtick_2">
     <g id="line2d_2">
      <g>
       <use xlink:href="#m817bc8bb47" x="113.856516" y="283.314655" style="stroke: #000000; stroke-width: 0.8"/>
      </g>
     </g>
     <g id="text_2">
      <!-- $\mathdefault{0.2}$ -->
      <g transform="translate(107.491477 297.233154) scale(0.1 -0.1)">
       <defs>
        <path id="CMR17-32" d="M 2669 990 
L 2554 990 
C 2490 537 2438 460 2413 422 
C 2381 371 1920 371 1830 371 
L 602 371 
C 832 620 1280 1073 1824 1596 
C 2214 1966 2669 2400 2669 3033 
C 2669 3788 2067 4224 1395 4224 
C 691 4224 262 3603 262 3027 
C 262 2777 448 2745 525 2745 
C 589 2745 781 2783 781 3007 
C 781 3206 614 3264 525 3264 
C 486 3264 448 3257 422 3244 
C 544 3788 915 4057 1306 4057 
C 1862 4057 2227 3616 2227 3033 
C 2227 2477 1901 1998 1536 1583 
L 262 147 
L 262 0 
L 2515 0 
L 2669 990 
z
" transform="scale(0.015625)"/>
       </defs>
       <use xlink:href="#CMR17-30" transform="scale(0.996264)"/>
       <use xlink:href="#CMMI12-3a" transform="translate(45.690477 0) scale(0.996264)"/>
       <use xlink:href="#CMR17-32" transform="translate(72.787654 0) scale(0.996264)"/>
      </g>
     </g>
    </g>
    <g id="xtick_3">
     <g id="line2d_3">
      <g>
       <use xlink:href="#m817bc8bb47" x="179.443293" y="283.314655" style="stroke: #000000; stroke-width: 0.8"/>
      </g>
     </g>
     <g id="text_3">
      <!-- $\mathdefault{0.4}$ -->
      <g transform="translate(173.078253 297.233154) scale(0.1 -0.1)">
       <defs>
        <path id="CMR17-34" d="M 2150 4147 
C 2150 4281 2144 4288 2029 4288 
L 128 1254 
L 128 1088 
L 1779 1088 
L 1779 460 
C 1779 230 1766 166 1318 166 
L 1197 166 
L 1197 0 
C 1402 12 1747 12 1965 12 
C 2182 12 2528 12 2733 0 
L 2733 166 
L 2611 166 
C 2163 166 2150 230 2150 460 
L 2150 1088 
L 2803 1088 
L 2803 1254 
L 2150 1254 
L 2150 4147 
z
M 1798 3723 
L 1798 1254 
L 256 1254 
L 1798 3723 
z
" transform="scale(0.015625)"/>
       </defs>
       <use xlink:href="#CMR17-30" transform="scale(0.996264)"/>
       <use xlink:href="#CMMI12-3a" transform="translate(45.690477 0) scale(0.996264)"/>
       <use xlink:href="#CMR17-34" transform="translate(72.787654 0) scale(0.996264)"/>
      </g>
     </g>
    </g>
    <g id="xtick_4">
     <g id="line2d_4">
      <g>
       <use xlink:href="#m817bc8bb47" x="245.03007" y="283.314655" style="stroke: #000000; stroke-width: 0.8"/>
      </g>
     </g>
     <g id="text_4">
      <!-- $\mathdefault{0.6}$ -->
      <g transform="translate(238.66503 297.233154) scale(0.1 -0.1)">
       <defs>
        <path id="CMR17-36" d="M 678 2198 
C 678 3712 1395 4076 1811 4076 
C 1946 4076 2272 4049 2400 3782 
C 2298 3782 2106 3782 2106 3558 
C 2106 3385 2246 3328 2336 3328 
C 2394 3328 2566 3353 2566 3571 
C 2566 3987 2246 4224 1805 4224 
C 1043 4224 243 3411 243 2011 
C 243 257 966 -128 1478 -128 
C 2099 -128 2688 431 2688 1295 
C 2688 2101 2170 2688 1517 2688 
C 1126 2688 838 2430 678 1979 
L 678 2198 
z
M 1478 25 
C 691 25 691 1212 691 1450 
C 691 1914 909 2585 1504 2585 
C 1613 2585 1926 2585 2138 2140 
C 2253 1889 2253 1624 2253 1302 
C 2253 954 2253 696 2118 438 
C 1978 173 1773 25 1478 25 
z
" transform="scale(0.015625)"/>
       </defs>
       <use xlink:href="#CMR17-30" transform="scale(0.996264)"/>
       <use xlink:href="#CMMI12-3a" transform="translate(45.690477 0) scale(0.996264)"/>
       <use xlink:href="#CMR17-36" transform="translate(72.787654 0) scale(0.996264)"/>
      </g>
     </g>
    </g>
    <g id="xtick_5">
     <g id="line2d_5">
      <g>
       <use xlink:href="#m817bc8bb47" x="310.616847" y="283.314655" style="stroke: #000000; stroke-width: 0.8"/>
      </g>
     </g>
     <g id="text_5">
      <!-- $\mathdefault{0.8}$ -->
      <g transform="translate(304.251807 297.233154) scale(0.1 -0.1)">
       <defs>
        <path id="CMR17-38" d="M 1741 2289 
C 2144 2494 2554 2803 2554 3298 
C 2554 3884 1990 4224 1472 4224 
C 890 4224 378 3800 378 3215 
C 378 3054 416 2777 666 2533 
C 730 2469 998 2276 1171 2154 
C 883 2006 211 1652 211 945 
C 211 282 838 -128 1459 -128 
C 2144 -128 2720 366 2720 1022 
C 2720 1607 2330 1877 2074 2051 
L 1741 2289 
z
M 902 2855 
C 851 2887 595 3086 595 3388 
C 595 3781 998 4076 1459 4076 
C 1965 4076 2336 3716 2336 3298 
C 2336 2700 1670 2359 1638 2359 
C 1632 2359 1626 2359 1574 2398 
L 902 2855 
z
M 2080 1536 
C 2176 1466 2483 1253 2483 861 
C 2483 385 2010 25 1472 25 
C 890 25 448 443 448 951 
C 448 1459 838 1884 1280 2083 
L 2080 1536 
z
" transform="scale(0.015625)"/>
       </defs>
       <use xlink:href="#CMR17-30" transform="scale(0.996264)"/>
       <use xlink:href="#CMMI12-3a" transform="translate(45.690477 0) scale(0.996264)"/>
       <use xlink:href="#CMR17-38" transform="translate(72.787654 0) scale(0.996264)"/>
      </g>
     </g>
    </g>
    <g id="xtick_6">
     <g id="line2d_6">
      <g>
       <use xlink:href="#m817bc8bb47" x="376.203624" y="283.314655" style="stroke: #000000; stroke-width: 0.8"/>
      </g>
     </g>
     <g id="text_6">
      <!-- $\mathdefault{1.0}$ -->
      <g transform="translate(369.838584 297.233154) scale(0.1 -0.1)">
       <defs>
        <path id="CMR17-31" d="M 1702 4083 
C 1702 4217 1696 4224 1606 4224 
C 1357 3927 979 3833 621 3820 
C 602 3820 570 3820 563 3808 
C 557 3795 557 3782 557 3648 
C 755 3648 1088 3686 1344 3839 
L 1344 467 
C 1344 243 1331 166 781 166 
L 589 166 
L 589 0 
C 896 6 1216 12 1523 12 
C 1830 12 2150 6 2458 0 
L 2458 166 
L 2266 166 
C 1715 166 1702 236 1702 467 
L 1702 4083 
z
" transform="scale(0.015625)"/>
       </defs>
       <use xlink:href="#CMR17-31" transform="scale(0.996264)"/>
       <use xlink:href="#CMMI12-3a" transform="translate(45.690477 0) scale(0.996264)"/>
       <use xlink:href="#CMR17-30" transform="translate(72.787654 0) scale(0.996264)"/>
      </g>
     </g>
    </g>
    <g id="text_7">
     <!-- $i$ -->
     <g transform="translate(208.880883 310.088831) scale(0.1 -0.1)">
      <defs>
       <path id="CMMI12-69" d="M 1811 913 
C 1811 945 1786 970 1747 970 
C 1690 970 1683 951 1651 842 
C 1485 261 1222 64 1011 64 
C 934 64 845 83 845 274 
C 845 447 922 638 992 830 
L 1440 2017 
C 1459 2068 1504 2183 1504 2305 
C 1504 2573 1312 2816 998 2816 
C 410 2816 173 1890 173 1838 
C 173 1813 198 1781 243 1781 
C 301 1781 307 1807 333 1896 
C 486 2432 730 2687 979 2687 
C 1037 2687 1146 2681 1146 2477 
C 1146 2311 1062 2100 1011 1960 
L 563 772 
C 525 670 486 568 486 453 
C 486 166 685 -64 992 -64 
C 1581 -64 1811 868 1811 913 
z
M 1760 4012 
C 1760 4108 1683 4224 1542 4224 
C 1395 4224 1229 4083 1229 3916 
C 1229 3756 1363 3705 1440 3705 
C 1613 3705 1760 3871 1760 4012 
z
" transform="scale(0.015625)"/>
      </defs>
      <use xlink:href="#CMMI12-69" transform="scale(0.996264)"/>
     </g>
    </g>
    <g id="text_8">
     <!-- $\times\mathdefault{10^{2}}\mathdefault{}$ -->
     <g transform="translate(367.47436 309.172988) scale(0.1 -0.1)">
      <defs>
       <path id="CMSY10-2" d="M 2490 1775 
L 1210 3046 
C 1133 3123 1120 3136 1069 3136 
C 1005 3136 941 3078 941 3008 
C 941 2963 954 2950 1024 2880 
L 2304 1596 
L 1024 313 
C 954 243 941 230 941 185 
C 941 115 1005 57 1069 57 
C 1120 57 1133 70 1210 147 
L 2483 1418 
L 3808 95 
C 3821 89 3866 57 3904 57 
C 3981 57 4032 115 4032 185 
C 4032 198 4032 223 4013 255 
C 4006 268 2989 1271 2669 1596 
L 3840 2765 
C 3872 2803 3968 2886 4000 2925 
C 4006 2937 4032 2963 4032 3008 
C 4032 3078 3981 3136 3904 3136 
C 3853 3136 3827 3110 3757 3040 
L 2490 1775 
z
" transform="scale(0.015625)"/>
      </defs>
      <use xlink:href="#CMSY10-2" transform="scale(0.996264)"/>
      <use xlink:href="#CMR17-31" transform="translate(77.487468 0) scale(0.996264)"/>
      <use xlink:href="#CMR17-30" transform="translate(123.177945 0) scale(0.996264)"/>
      <use xlink:href="#CMR17-32" transform="translate(168.868422 36.153639) scale(0.697382)"/>
     </g>
    </g>
   </g>
   <g id="matplotlib.axis_2">
    <g id="ytick_1">
     <g id="line2d_7">
      <defs>
       <path id="mddcc225066" d="M 0 0 
L -3.5 0 
" style="stroke: #000000; stroke-width: 0.8"/>
      </defs>
      <g>
       <use xlink:href="#mddcc225066" x="32.037012" y="271.398711" style="stroke: #000000; stroke-width: 0.8"/>
      </g>
     </g>
     <g id="text_9">
      <!-- $\mathdefault{0}$ -->
      <g transform="translate(20.055677 274.85796) scale(0.1 -0.1)">
       <use xlink:href="#CMR17-30" transform="scale(0.996264)"/>
      </g>
     </g>
    </g>
    <g id="ytick_2">
     <g id="line2d_8">
      <g>
       <use xlink:href="#mddcc225066" x="32.037012" y="225.458717" style="stroke: #000000; stroke-width: 0.8"/>
      </g>
     </g>
     <g id="text_10">
      <!-- $\mathdefault{1}$ -->
      <g transform="translate(20.055677 228.917966) scale(0.1 -0.1)">
       <use xlink:href="#CMR17-31" transform="scale(0.996264)"/>
      </g>
     </g>
    </g>
    <g id="ytick_3">
     <g id="line2d_9">
      <g>
       <use xlink:href="#mddcc225066" x="32.037012" y="179.518723" style="stroke: #000000; stroke-width: 0.8"/>
      </g>
     </g>
     <g id="text_11">
      <!-- $\mathdefault{2}$ -->
      <g transform="translate(20.055677 182.977973) scale(0.1 -0.1)">
       <use xlink:href="#CMR17-32" transform="scale(0.996264)"/>
      </g>
     </g>
    </g>
    <g id="ytick_4">
     <g id="line2d_10">
      <g>
       <use xlink:href="#mddcc225066" x="32.037012" y="133.57873" style="stroke: #000000; stroke-width: 0.8"/>
      </g>
     </g>
     <g id="text_12">
      <!-- $\mathdefault{3}$ -->
      <g transform="translate(20.055677 137.037979) scale(0.1 -0.1)">
       <defs>
        <path id="CMR17-33" d="M 1414 2176 
C 1984 2176 2234 1673 2234 1094 
C 2234 322 1824 25 1453 25 
C 1114 25 563 193 390 691 
C 422 678 454 678 486 678 
C 640 678 755 780 755 947 
C 755 1132 614 1216 486 1216 
C 378 1216 211 1164 211 927 
C 211 335 787 -128 1466 -128 
C 2176 -128 2720 432 2720 1087 
C 2720 1718 2208 2176 1600 2246 
C 2086 2347 2554 2776 2554 3353 
C 2554 3856 2048 4224 1472 4224 
C 890 4224 378 3862 378 3347 
C 378 3123 544 3084 627 3084 
C 762 3084 877 3167 877 3334 
C 877 3500 762 3584 627 3584 
C 602 3584 570 3584 544 3571 
C 730 3999 1235 4076 1459 4076 
C 1683 4076 2106 3966 2106 3347 
C 2106 3167 2080 2851 1862 2574 
C 1670 2329 1453 2316 1242 2297 
C 1210 2297 1062 2284 1037 2284 
C 992 2278 966 2272 966 2227 
C 966 2182 973 2176 1101 2176 
L 1414 2176 
z
" transform="scale(0.015625)"/>
       </defs>
       <use xlink:href="#CMR17-33" transform="scale(0.996264)"/>
      </g>
     </g>
    </g>
    <g id="ytick_5">
     <g id="line2d_11">
      <g>
       <use xlink:href="#mddcc225066" x="32.037012" y="87.638736" style="stroke: #000000; stroke-width: 0.8"/>
      </g>
     </g>
     <g id="text_13">
      <!-- $\mathdefault{4}$ -->
      <g transform="translate(20.055677 91.097985) scale(0.1 -0.1)">
       <use xlink:href="#CMR17-34" transform="scale(0.996264)"/>
      </g>
     </g>
    </g>
    <g id="ytick_6">
     <g id="line2d_12">
      <g>
       <use xlink:href="#mddcc225066" x="32.037012" y="41.698742" style="stroke: #000000; stroke-width: 0.8"/>
      </g>
     </g>
     <g id="text_14">
      <!-- $\mathdefault{5}$ -->
      <g transform="translate(20.055677 45.157992) scale(0.1 -0.1)">
       <defs>
        <path id="CMR17-35" d="M 730 3750 
C 794 3724 1056 3641 1325 3641 
C 1920 3641 2246 3961 2432 4140 
C 2432 4191 2432 4224 2394 4224 
C 2387 4224 2374 4224 2323 4198 
C 2099 4102 1837 4032 1517 4032 
C 1325 4032 1037 4055 723 4191 
C 653 4224 640 4224 634 4224 
C 602 4224 595 4217 595 4090 
L 595 2231 
C 595 2113 595 2080 659 2080 
C 691 2080 704 2093 736 2139 
C 941 2435 1222 2560 1542 2560 
C 1766 2560 2246 2415 2246 1293 
C 2246 1087 2246 716 2054 422 
C 1894 159 1645 25 1370 25 
C 947 25 518 319 403 812 
C 429 806 480 793 506 793 
C 589 793 749 838 749 1036 
C 749 1209 627 1280 506 1280 
C 358 1280 262 1190 262 1011 
C 262 454 704 -128 1382 -128 
C 2042 -128 2669 441 2669 1267 
C 2669 2054 2170 2662 1549 2662 
C 1222 2662 947 2540 730 2304 
L 730 3750 
z
" transform="scale(0.015625)"/>
       </defs>
       <use xlink:href="#CMR17-35" transform="scale(0.996264)"/>
      </g>
     </g>
    </g>
    <g id="text_15">
     <!-- $\Delta x$ -->
     <g transform="translate(14.118498 157.256728) rotate(-90) scale(0.1 -0.1)">
      <defs>
       <path id="CMR17-1" d="M 2598 4435 
C 2547 4544 2522 4544 2470 4544 
C 2394 4544 2387 4531 2342 4441 
L 269 108 
C 262 96 237 38 237 32 
C 237 6 243 0 358 0 
L 4576 0 
C 4691 0 4698 6 4698 32 
C 4698 38 4672 96 4666 108 
L 2598 4435 
z
M 2310 4056 
L 4083 358 
L 531 358 
L 2310 4056 
z
" transform="scale(0.015625)"/>
       <path id="CMMI12-78" d="M 3034 2624 
C 2829 2585 2752 2431 2752 2310 
C 2752 2156 2874 2105 2963 2105 
C 3155 2105 3290 2271 3290 2444 
C 3290 2694 2982 2816 2714 2816 
C 2323 2816 2106 2451 2048 2329 
C 1901 2790 1504 2816 1389 2816 
C 736 2816 390 1993 390 1849 
C 390 1823 416 1790 461 1790 
C 512 1790 525 1829 538 1855 
C 755 2572 1184 2687 1370 2687 
C 1658 2687 1715 2438 1715 2284 
C 1715 2143 1677 1993 1600 1678 
L 1382 778 
C 1286 390 1101 64 762 64 
C 730 64 570 64 435 126 
C 666 166 717 358 717 435 
C 717 563 621 640 499 640 
C 346 640 179 505 179 300 
C 179 57 480 -64 755 -64 
C 1062 -64 1280 153 1414 415 
C 1517 64 1837 -64 2074 -64 
C 2726 -64 3072 751 3072 896 
C 3072 929 3046 955 3008 955 
C 2950 955 2944 922 2925 870 
C 2752 300 2381 64 2093 64 
C 1869 64 1747 204 1747 467 
C 1747 607 1773 712 1875 1146 
L 2099 2039 
C 2195 2425 2413 2687 2707 2687 
C 2720 2687 2899 2687 3034 2624 
z
" transform="scale(0.015625)"/>
      </defs>
      <use xlink:href="#CMR17-1" transform="scale(0.996264)"/>
      <use xlink:href="#CMMI12-78" transform="translate(76.91959 0) scale(0.996264)"/>
     </g>
    </g>
    <g id="text_16">
     <!-- $\times\mathdefault{10^{−1}}\mathdefault{}$ -->
     <g transform="translate(32.037012 14.202655) scale(0.1 -0.1)">
      <defs>
       <path id="CMSY10-0" d="M 4218 1472 
C 4326 1472 4442 1472 4442 1600 
C 4442 1728 4326 1728 4218 1728 
L 755 1728 
C 646 1728 531 1728 531 1600 
C 531 1472 646 1472 755 1472 
L 4218 1472 
z
" transform="scale(0.015625)"/>
      </defs>
      <use xlink:href="#CMSY10-2" transform="scale(0.996264)"/>
      <use xlink:href="#CMR17-31" transform="translate(77.487468 0) scale(0.996264)"/>
      <use xlink:href="#CMR17-30" transform="translate(123.177945 0) scale(0.996264)"/>
      <use xlink:href="#CMSY10-0" transform="translate(168.868422 36.153639) scale(0.697382)"/>
      <use xlink:href="#CMR17-31" transform="translate(223.109415 36.153639) scale(0.697382)"/>
     </g>
    </g>
   </g>
   <g id="line2d_13">
    <path d="M 48.269739 129.301103 
L 51.549078 135.387959 
L 54.828417 131.575116 
L 58.107756 29.298655 
L 61.387095 256.765599 
L 64.666433 253.62901 
L 67.945772 250.351008 
L 71.225111 247.082589 
L 74.50445 243.971856 
L 77.783789 241.142493 
L 81.063128 238.68158 
L 84.342467 236.637556 
L 87.621805 235.025361 
L 90.901144 233.834755 
L 94.180483 233.038804 
L 97.459822 232.600975 
L 100.739161 232.480374 
L 104.0185 232.635297 
L 107.297838 233.025454 
L 110.577177 233.613239 
L 113.856516 234.364366 
L 117.135855 235.248095 
L 120.415194 236.237213 
L 123.694533 237.307869 
L 126.973871 238.439331 
L 130.25321 239.613714 
L 133.532549 240.815695 
L 136.811888 242.032238 
L 140.091227 243.252334 
L 143.370566 244.466755 
L 146.649905 245.667843 
L 149.929243 246.849301 
L 153.208582 248.006024 
L 156.487921 249.133933 
L 159.76726 250.229841 
L 163.046599 251.291322 
L 166.325938 252.316606 
L 169.605276 253.304478 
L 172.884615 254.2542 
L 176.163954 255.165428 
L 179.443293 256.038157 
L 182.722632 256.872657 
L 186.001971 257.669428 
L 189.281309 258.429157 
L 192.560648 259.152681 
L 195.839987 259.840957 
L 199.119326 260.495031 
L 202.398665 261.116021 
L 205.678004 261.705091 
L 208.957343 262.263439 
L 212.236681 262.792279 
L 215.51602 263.292833 
L 218.795359 263.766319 
L 222.074698 264.213941 
L 225.354037 264.636886 
L 228.633376 265.036317 
L 231.912714 265.413367 
L 235.192053 265.76914 
L 238.471392 266.104703 
L 241.750731 266.421087 
L 245.03007 266.719287 
L 248.309409 267.000258 
L 251.588747 267.264917 
L 254.868086 267.514143 
L 258.147425 267.748774 
L 261.426764 267.969612 
L 264.706103 268.177422 
L 267.985442 268.372932 
L 271.264781 268.556833 
L 274.544119 268.729783 
L 277.823458 268.892407 
L 281.102797 269.045297 
L 284.382136 269.189015 
L 287.661475 269.324091 
L 290.940814 269.45103 
L 294.220152 269.570306 
L 297.499491 269.682369 
L 300.77883 269.787646 
L 304.058169 269.886536 
L 307.337508 269.979418 
L 310.616847 270.066651 
L 313.896186 270.14857 
L 317.175524 270.225494 
L 320.454863 270.297722 
L 323.734202 270.365537 
L 327.013541 270.429203 
L 330.29288 270.488972 
L 333.572219 270.545078 
L 336.851557 270.597744 
L 340.130896 270.647178 
L 343.410235 270.693577 
L 346.689574 270.737124 
L 349.968913 270.777993 
L 353.248252 270.816349 
L 356.52759 270.852343 
L 359.806929 270.886121 
L 363.086268 270.917817 
L 366.365607 270.94756 
L 369.644946 270.975469 
L 372.924285 271.001656 
" clip-path="url(#p71192df32d)" style="fill: none; stroke: #0000ff; stroke-width: 1.5; stroke-linecap: square"/>
    <defs>
     <path id="m2676338852" d="M 0 1.5 
C 0.397805 1.5 0.77937 1.341951 1.06066 1.06066 
C 1.341951 0.77937 1.5 0.397805 1.5 0 
C 1.5 -0.397805 1.341951 -0.77937 1.06066 -1.06066 
C 0.77937 -1.341951 0.397805 -1.5 0 -1.5 
C -0.397805 -1.5 -0.77937 -1.341951 -1.06066 -1.06066 
C -1.341951 -0.77937 -1.5 -0.397805 -1.5 0 
C -1.5 0.397805 -1.341951 0.77937 -1.06066 1.06066 
C -0.77937 1.341951 -0.397805 1.5 0 1.5 
z
" style="stroke: #0000ff"/>
    </defs>
    <g clip-path="url(#p71192df32d)">
     <use xlink:href="#m2676338852" x="48.269739" y="129.301103" style="fill: #0000ff; stroke: #0000ff"/>
     <use xlink:href="#m2676338852" x="51.549078" y="135.387959" style="fill: #0000ff; stroke: #0000ff"/>
     <use xlink:href="#m2676338852" x="54.828417" y="131.575116" style="fill: #0000ff; stroke: #0000ff"/>
     <use xlink:href="#m2676338852" x="58.107756" y="29.298655" style="fill: #0000ff; stroke: #0000ff"/>
     <use xlink:href="#m2676338852" x="61.387095" y="256.765599" style="fill: #0000ff; stroke: #0000ff"/>
     <use xlink:href="#m2676338852" x="64.666433" y="253.62901" style="fill: #0000ff; stroke: #0000ff"/>
     <use xlink:href="#m2676338852" x="67.945772" y="250.351008" style="fill: #0000ff; stroke: #0000ff"/>
     <use xlink:href="#m2676338852" x="71.225111" y="247.082589" style="fill: #0000ff; stroke: #0000ff"/>
     <use xlink:href="#m2676338852" x="74.50445" y="243.971856" style="fill: #0000ff; stroke: #0000ff"/>
     <use xlink:href="#m2676338852" x="77.783789" y="241.142493" style="fill: #0000ff; stroke: #0000ff"/>
     <use xlink:href="#m2676338852" x="81.063128" y="238.68158" style="fill: #0000ff; stroke: #0000ff"/>
     <use xlink:href="#m2676338852" x="84.342467" y="236.637556" style="fill: #0000ff; stroke: #0000ff"/>
     <use xlink:href="#m2676338852" x="87.621805" y="235.025361" style="fill: #0000ff; stroke: #0000ff"/>
     <use xlink:href="#m2676338852" x="90.901144" y="233.834755" style="fill: #0000ff; stroke: #0000ff"/>
     <use xlink:href="#m2676338852" x="94.180483" y="233.038804" style="fill: #0000ff; stroke: #0000ff"/>
     <use xlink:href="#m2676338852" x="97.459822" y="232.600975" style="fill: #0000ff; stroke: #0000ff"/>
     <use xlink:href="#m2676338852" x="100.739161" y="232.480374" style="fill: #0000ff; stroke: #0000ff"/>
     <use xlink:href="#m2676338852" x="104.0185" y="232.635297" style="fill: #0000ff; stroke: #0000ff"/>
     <use xlink:href="#m2676338852" x="107.297838" y="233.025454" style="fill: #0000ff; stroke: #0000ff"/>
     <use xlink:href="#m2676338852" x="110.577177" y="233.613239" style="fill: #0000ff; stroke: #0000ff"/>
     <use xlink:href="#m2676338852" x="113.856516" y="234.364366" style="fill: #0000ff; stroke: #0000ff"/>
     <use xlink:href="#m2676338852" x="117.135855" y="235.248095" style="fill: #0000ff; stroke: #0000ff"/>
     <use xlink:href="#m2676338852" x="120.415194" y="236.237213" style="fill: #0000ff; stroke: #0000ff"/>
     <use xlink:href="#m2676338852" x="123.694533" y="237.307869" style="fill: #0000ff; stroke: #0000ff"/>
     <use xlink:href="#m2676338852" x="126.973871" y="238.439331" style="fill: #0000ff; stroke: #0000ff"/>
     <use xlink:href="#m2676338852" x="130.25321" y="239.613714" style="fill: #0000ff; stroke: #0000ff"/>
     <use xlink:href="#m2676338852" x="133.532549" y="240.815695" style="fill: #0000ff; stroke: #0000ff"/>
     <use xlink:href="#m2676338852" x="136.811888" y="242.032238" style="fill: #0000ff; stroke: #0000ff"/>
     <use xlink:href="#m2676338852" x="140.091227" y="243.252334" style="fill: #0000ff; stroke: #0000ff"/>
     <use xlink:href="#m2676338852" x="143.370566" y="244.466755" style="fill: #0000ff; stroke: #0000ff"/>
     <use xlink:href="#m2676338852" x="146.649905" y="245.667843" style="fill: #0000ff; stroke: #0000ff"/>
     <use xlink:href="#m2676338852" x="149.929243" y="246.849301" style="fill: #0000ff; stroke: #0000ff"/>
     <use xlink:href="#m2676338852" x="153.208582" y="248.006024" style="fill: #0000ff; stroke: #0000ff"/>
     <use xlink:href="#m2676338852" x="156.487921" y="249.133933" style="fill: #0000ff; stroke: #0000ff"/>
     <use xlink:href="#m2676338852" x="159.76726" y="250.229841" style="fill: #0000ff; stroke: #0000ff"/>
     <use xlink:href="#m2676338852" x="163.046599" y="251.291322" style="fill: #0000ff; stroke: #0000ff"/>
     <use xlink:href="#m2676338852" x="166.325938" y="252.316606" style="fill: #0000ff; stroke: #0000ff"/>
     <use xlink:href="#m2676338852" x="169.605276" y="253.304478" style="fill: #0000ff; stroke: #0000ff"/>
     <use xlink:href="#m2676338852" x="172.884615" y="254.2542" style="fill: #0000ff; stroke: #0000ff"/>
     <use xlink:href="#m2676338852" x="176.163954" y="255.165428" style="fill: #0000ff; stroke: #0000ff"/>
     <use xlink:href="#m2676338852" x="179.443293" y="256.038157" style="fill: #0000ff; stroke: #0000ff"/>
     <use xlink:href="#m2676338852" x="182.722632" y="256.872657" style="fill: #0000ff; stroke: #0000ff"/>
     <use xlink:href="#m2676338852" x="186.001971" y="257.669428" style="fill: #0000ff; stroke: #0000ff"/>
     <use xlink:href="#m2676338852" x="189.281309" y="258.429157" style="fill: #0000ff; stroke: #0000ff"/>
     <use xlink:href="#m2676338852" x="192.560648" y="259.152681" style="fill: #0000ff; stroke: #0000ff"/>
     <use xlink:href="#m2676338852" x="195.839987" y="259.840957" style="fill: #0000ff; stroke: #0000ff"/>
     <use xlink:href="#m2676338852" x="199.119326" y="260.495031" style="fill: #0000ff; stroke: #0000ff"/>
     <use xlink:href="#m2676338852" x="202.398665" y="261.116021" style="fill: #0000ff; stroke: #0000ff"/>
     <use xlink:href="#m2676338852" x="205.678004" y="261.705091" style="fill: #0000ff; stroke: #0000ff"/>
     <use xlink:href="#m2676338852" x="208.957343" y="262.263439" style="fill: #0000ff; stroke: #0000ff"/>
     <use xlink:href="#m2676338852" x="212.236681" y="262.792279" style="fill: #0000ff; stroke: #0000ff"/>
     <use xlink:href="#m2676338852" x="215.51602" y="263.292833" style="fill: #0000ff; stroke: #0000ff"/>
     <use xlink:href="#m2676338852" x="218.795359" y="263.766319" style="fill: #0000ff; stroke: #0000ff"/>
     <use xlink:href="#m2676338852" x="222.074698" y="264.213941" style="fill: #0000ff; stroke: #0000ff"/>
     <use xlink:href="#m2676338852" x="225.354037" y="264.636886" style="fill: #0000ff; stroke: #0000ff"/>
     <use xlink:href="#m2676338852" x="228.633376" y="265.036317" style="fill: #0000ff; stroke: #0000ff"/>
     <use xlink:href="#m2676338852" x="231.912714" y="265.413367" style="fill: #0000ff; stroke: #0000ff"/>
     <use xlink:href="#m2676338852" x="235.192053" y="265.76914" style="fill: #0000ff; stroke: #0000ff"/>
     <use xlink:href="#m2676338852" x="238.471392" y="266.104703" style="fill: #0000ff; stroke: #0000ff"/>
     <use xlink:href="#m2676338852" x="241.750731" y="266.421087" style="fill: #0000ff; stroke: #0000ff"/>
     <use xlink:href="#m2676338852" x="245.03007" y="266.719287" style="fill: #0000ff; stroke: #0000ff"/>
     <use xlink:href="#m2676338852" x="248.309409" y="267.000258" style="fill: #0000ff; stroke: #0000ff"/>
     <use xlink:href="#m2676338852" x="251.588747" y="267.264917" style="fill: #0000ff; stroke: #0000ff"/>
     <use xlink:href="#m2676338852" x="254.868086" y="267.514143" style="fill: #0000ff; stroke: #0000ff"/>
     <use xlink:href="#m2676338852" x="258.147425" y="267.748774" style="fill: #0000ff; stroke: #0000ff"/>
     <use xlink:href="#m2676338852" x="261.426764" y="267.969612" style="fill: #0000ff; stroke: #0000ff"/>
     <use xlink:href="#m2676338852" x="264.706103" y="268.177422" style="fill: #0000ff; stroke: #0000ff"/>
     <use xlink:href="#m2676338852" x="267.985442" y="268.372932" style="fill: #0000ff; stroke: #0000ff"/>
     <use xlink:href="#m2676338852" x="271.264781" y="268.556833" style="fill: #0000ff; stroke: #0000ff"/>
     <use xlink:href="#m2676338852" x="274.544119" y="268.729783" style="fill: #0000ff; stroke: #0000ff"/>
     <use xlink:href="#m2676338852" x="277.823458" y="268.892407" style="fill: #0000ff; stroke: #0000ff"/>
     <use xlink:href="#m2676338852" x="281.102797" y="269.045297" style="fill: #0000ff; stroke: #0000ff"/>
     <use xlink:href="#m2676338852" x="284.382136" y="269.189015" style="fill: #0000ff; stroke: #0000ff"/>
     <use xlink:href="#m2676338852" x="287.661475" y="269.324091" style="fill: #0000ff; stroke: #0000ff"/>
     <use xlink:href="#m2676338852" x="290.940814" y="269.45103" style="fill: #0000ff; stroke: #0000ff"/>
     <use xlink:href="#m2676338852" x="294.220152" y="269.570306" style="fill: #0000ff; stroke: #0000ff"/>
     <use xlink:href="#m2676338852" x="297.499491" y="269.682369" style="fill: #0000ff; stroke: #0000ff"/>
     <use xlink:href="#m2676338852" x="300.77883" y="269.787646" style="fill: #0000ff; stroke: #0000ff"/>
     <use xlink:href="#m2676338852" x="304.058169" y="269.886536" style="fill: #0000ff; stroke: #0000ff"/>
     <use xlink:href="#m2676338852" x="307.337508" y="269.979418" style="fill: #0000ff; stroke: #0000ff"/>
     <use xlink:href="#m2676338852" x="310.616847" y="270.066651" style="fill: #0000ff; stroke: #0000ff"/>
     <use xlink:href="#m2676338852" x="313.896186" y="270.14857" style="fill: #0000ff; stroke: #0000ff"/>
     <use xlink:href="#m2676338852" x="317.175524" y="270.225494" style="fill: #0000ff; stroke: #0000ff"/>
     <use xlink:href="#m2676338852" x="320.454863" y="270.297722" style="fill: #0000ff; stroke: #0000ff"/>
     <use xlink:href="#m2676338852" x="323.734202" y="270.365537" style="fill: #0000ff; stroke: #0000ff"/>
     <use xlink:href="#m2676338852" x="327.013541" y="270.429203" style="fill: #0000ff; stroke: #0000ff"/>
     <use xlink:href="#m2676338852" x="330.29288" y="270.488972" style="fill: #0000ff; stroke: #0000ff"/>
     <use xlink:href="#m2676338852" x="333.572219" y="270.545078" style="fill: #0000ff; stroke: #0000ff"/>
     <use xlink:href="#m2676338852" x="336.851557" y="270.597744" style="fill: #0000ff; stroke: #0000ff"/>
     <use xlink:href="#m2676338852" x="340.130896" y="270.647178" style="fill: #0000ff; stroke: #0000ff"/>
     <use xlink:href="#m2676338852" x="343.410235" y="270.693577" style="fill: #0000ff; stroke: #0000ff"/>
     <use xlink:href="#m2676338852" x="346.689574" y="270.737124" style="fill: #0000ff; stroke: #0000ff"/>
     <use xlink:href="#m2676338852" x="349.968913" y="270.777993" style="fill: #0000ff; stroke: #0000ff"/>
     <use xlink:href="#m2676338852" x="353.248252" y="270.816349" style="fill: #0000ff; stroke: #0000ff"/>
     <use xlink:href="#m2676338852" x="356.52759" y="270.852343" style="fill: #0000ff; stroke: #0000ff"/>
     <use xlink:href="#m2676338852" x="359.806929" y="270.886121" style="fill: #0000ff; stroke: #0000ff"/>
     <use xlink:href="#m2676338852" x="363.086268" y="270.917817" style="fill: #0000ff; stroke: #0000ff"/>
     <use xlink:href="#m2676338852" x="366.365607" y="270.94756" style="fill: #0000ff; stroke: #0000ff"/>
     <use xlink:href="#m2676338852" x="369.644946" y="270.975469" style="fill: #0000ff; stroke: #0000ff"/>
     <use xlink:href="#m2676338852" x="372.924285" y="271.001656" style="fill: #0000ff; stroke: #0000ff"/>
    </g>
   </g>
   <g id="line2d_14">
    <path d="M 48.269739 129.301103 
L 51.549078 156.94584 
L 54.828417 176.951146 
L 58.107756 193.741567 
L 61.387095 211.56156 
L 64.666433 223.177294 
L 67.945772 211.794329 
L 71.225111 206.686149 
L 74.50445 204.364372 
L 77.783789 203.654005 
L 81.063128 203.995122 
L 84.342467 205.061868 
L 87.621805 206.641099 
L 90.901144 208.583127 
L 94.180483 210.778059 
L 97.459822 213.142923 
L 100.739161 215.613979 
L 104.0185 218.141768 
L 107.297838 220.687742 
L 110.577177 223.221866 
L 113.856516 225.720838 
L 117.135855 228.166749 
L 120.415194 230.546029 
L 123.694533 232.848623 
L 126.973871 235.067326 
L 130.25321 237.197246 
L 133.532549 239.235364 
L 136.811888 241.180177 
L 140.091227 243.031396 
L 143.370566 244.789703 
L 146.649905 246.456546 
L 149.929243 248.033971 
L 153.208582 249.524482 
L 156.487921 250.930925 
L 159.76726 252.256388 
L 163.046599 253.504132 
L 166.325938 254.677517 
L 169.605276 255.779953 
L 172.884615 256.814858 
L 176.163954 257.785624 
L 179.443293 258.695588 
L 182.722632 259.548011 
L 186.001971 260.346064 
L 189.281309 261.092811 
L 192.560648 261.791207 
L 195.839987 262.444085 
L 199.119326 263.054159 
L 202.398665 263.624014 
L 205.678004 264.156114 
L 208.957343 264.652799 
L 212.236681 265.116285 
L 215.51602 265.548673 
L 218.795359 265.951944 
L 222.074698 266.327972 
L 225.354037 266.678518 
L 228.633376 267.005245 
L 231.912714 267.309712 
L 235.192053 267.593389 
L 238.471392 267.857651 
L 241.750731 268.103791 
L 245.03007 268.333021 
L 248.309409 268.546474 
L 251.588747 268.745213 
L 254.868086 268.930232 
L 258.147425 269.102461 
L 261.426764 269.262769 
L 264.706103 269.411967 
L 267.985442 269.550815 
L 271.264781 269.680021 
L 274.544119 269.800245 
L 277.823458 269.912106 
L 281.102797 270.016178 
L 284.382136 270.112999 
L 287.661475 270.203069 
L 290.940814 270.286854 
L 294.220152 270.364791 
L 297.499491 270.437283 
L 300.77883 270.504709 
L 304.058169 270.567421 
L 307.337508 270.625746 
L 310.616847 270.679989 
L 313.896186 270.730435 
L 317.175524 270.777349 
L 320.454863 270.820975 
L 323.734202 270.861545 
L 327.013541 270.899271 
L 330.29288 270.934352 
L 333.572219 270.966972 
L 336.851557 270.997304 
L 340.130896 271.025508 
L 343.410235 271.051733 
L 346.689574 271.076117 
L 349.968913 271.09879 
L 353.248252 271.11987 
L 356.52759 271.139471 
L 359.806929 271.157694 
L 363.086268 271.174638 
L 366.365607 271.190391 
L 369.644946 271.205038 
L 372.924285 271.218655 
" clip-path="url(#p71192df32d)" style="fill: none; stroke: #ff0000; stroke-width: 1.5; stroke-linecap: square"/>
    <defs>
     <path id="m1eb139e693" d="M 0 1.5 
C 0.397805 1.5 0.77937 1.341951 1.06066 1.06066 
C 1.341951 0.77937 1.5 0.397805 1.5 0 
C 1.5 -0.397805 1.341951 -0.77937 1.06066 -1.06066 
C 0.77937 -1.341951 0.397805 -1.5 0 -1.5 
C -0.397805 -1.5 -0.77937 -1.341951 -1.06066 -1.06066 
C -1.341951 -0.77937 -1.5 -0.397805 -1.5 0 
C -1.5 0.397805 -1.341951 0.77937 -1.06066 1.06066 
C -0.77937 1.341951 -0.397805 1.5 0 1.5 
z
" style="stroke: #ff0000"/>
    </defs>
    <g clip-path="url(#p71192df32d)">
     <use xlink:href="#m1eb139e693" x="48.269739" y="129.301103" style="fill: #ff0000; stroke: #ff0000"/>
     <use xlink:href="#m1eb139e693" x="51.549078" y="156.94584" style="fill: #ff0000; stroke: #ff0000"/>
     <use xlink:href="#m1eb139e693" x="54.828417" y="176.951146" style="fill: #ff0000; stroke: #ff0000"/>
     <use xlink:href="#m1eb139e693" x="58.107756" y="193.741567" style="fill: #ff0000; stroke: #ff0000"/>
     <use xlink:href="#m1eb139e693" x="61.387095" y="211.56156" style="fill: #ff0000; stroke: #ff0000"/>
     <use xlink:href="#m1eb139e693" x="64.666433" y="223.177294" style="fill: #ff0000; stroke: #ff0000"/>
     <use xlink:href="#m1eb139e693" x="67.945772" y="211.794329" style="fill: #ff0000; stroke: #ff0000"/>
     <use xlink:href="#m1eb139e693" x="71.225111" y="206.686149" style="fill: #ff0000; stroke: #ff0000"/>
     <use xlink:href="#m1eb139e693" x="74.50445" y="204.364372" style="fill: #ff0000; stroke: #ff0000"/>
     <use xlink:href="#m1eb139e693" x="77.783789" y="203.654005" style="fill: #ff0000; stroke: #ff0000"/>
     <use xlink:href="#m1eb139e693" x="81.063128" y="203.995122" style="fill: #ff0000; stroke: #ff0000"/>
     <use xlink:href="#m1eb139e693" x="84.342467" y="205.061868" style="fill: #ff0000; stroke: #ff0000"/>
     <use xlink:href="#m1eb139e693" x="87.621805" y="206.641099" style="fill: #ff0000; stroke: #ff0000"/>
     <use xlink:href="#m1eb139e693" x="90.901144" y="208.583127" style="fill: #ff0000; stroke: #ff0000"/>
     <use xlink:href="#m1eb139e693" x="94.180483" y="210.778059" style="fill: #ff0000; stroke: #ff0000"/>
     <use xlink:href="#m1eb139e693" x="97.459822" y="213.142923" style="fill: #ff0000; stroke: #ff0000"/>
     <use xlink:href="#m1eb139e693" x="100.739161" y="215.613979" style="fill: #ff0000; stroke: #ff0000"/>
     <use xlink:href="#m1eb139e693" x="104.0185" y="218.141768" style="fill: #ff0000; stroke: #ff0000"/>
     <use xlink:href="#m1eb139e693" x="107.297838" y="220.687742" style="fill: #ff0000; stroke: #ff0000"/>
     <use xlink:href="#m1eb139e693" x="110.577177" y="223.221866" style="fill: #ff0000; stroke: #ff0000"/>
     <use xlink:href="#m1eb139e693" x="113.856516" y="225.720838" style="fill: #ff0000; stroke: #ff0000"/>
     <use xlink:href="#m1eb139e693" x="117.135855" y="228.166749" style="fill: #ff0000; stroke: #ff0000"/>
     <use xlink:href="#m1eb139e693" x="120.415194" y="230.546029" style="fill: #ff0000; stroke: #ff0000"/>
     <use xlink:href="#m1eb139e693" x="123.694533" y="232.848623" style="fill: #ff0000; stroke: #ff0000"/>
     <use xlink:href="#m1eb139e693" x="126.973871" y="235.067326" style="fill: #ff0000; stroke: #ff0000"/>
     <use xlink:href="#m1eb139e693" x="130.25321" y="237.197246" style="fill: #ff0000; stroke: #ff0000"/>
     <use xlink:href="#m1eb139e693" x="133.532549" y="239.235364" style="fill: #ff0000; stroke: #ff0000"/>
     <use xlink:href="#m1eb139e693" x="136.811888" y="241.180177" style="fill: #ff0000; stroke: #ff0000"/>
     <use xlink:href="#m1eb139e693" x="140.091227" y="243.031396" style="fill: #ff0000; stroke: #ff0000"/>
     <use xlink:href="#m1eb139e693" x="143.370566" y="244.789703" style="fill: #ff0000; stroke: #ff0000"/>
     <use xlink:href="#m1eb139e693" x="146.649905" y="246.456546" style="fill: #ff0000; stroke: #ff0000"/>
     <use xlink:href="#m1eb139e693" x="149.929243" y="248.033971" style="fill: #ff0000; stroke: #ff0000"/>
     <use xlink:href="#m1eb139e693" x="153.208582" y="249.524482" style="fill: #ff0000; stroke: #ff0000"/>
     <use xlink:href="#m1eb139e693" x="156.487921" y="250.930925" style="fill: #ff0000; stroke: #ff0000"/>
     <use xlink:href="#m1eb139e693" x="159.76726" y="252.256388" style="fill: #ff0000; stroke: #ff0000"/>
     <use xlink:href="#m1eb139e693" x="163.046599" y="253.504132" style="fill: #ff0000; stroke: #ff0000"/>
     <use xlink:href="#m1eb139e693" x="166.325938" y="254.677517" style="fill: #ff0000; stroke: #ff0000"/>
     <use xlink:href="#m1eb139e693" x="169.605276" y="255.779953" style="fill: #ff0000; stroke: #ff0000"/>
     <use xlink:href="#m1eb139e693" x="172.884615" y="256.814858" style="fill: #ff0000; stroke: #ff0000"/>
     <use xlink:href="#m1eb139e693" x="176.163954" y="257.785624" style="fill: #ff0000; stroke: #ff0000"/>
     <use xlink:href="#m1eb139e693" x="179.443293" y="258.695588" style="fill: #ff0000; stroke: #ff0000"/>
     <use xlink:href="#m1eb139e693" x="182.722632" y="259.548011" style="fill: #ff0000; stroke: #ff0000"/>
     <use xlink:href="#m1eb139e693" x="186.001971" y="260.346064" style="fill: #ff0000; stroke: #ff0000"/>
     <use xlink:href="#m1eb139e693" x="189.281309" y="261.092811" style="fill: #ff0000; stroke: #ff0000"/>
     <use xlink:href="#m1eb139e693" x="192.560648" y="261.791207" style="fill: #ff0000; stroke: #ff0000"/>
     <use xlink:href="#m1eb139e693" x="195.839987" y="262.444085" style="fill: #ff0000; stroke: #ff0000"/>
     <use xlink:href="#m1eb139e693" x="199.119326" y="263.054159" style="fill: #ff0000; stroke: #ff0000"/>
     <use xlink:href="#m1eb139e693" x="202.398665" y="263.624014" style="fill: #ff0000; stroke: #ff0000"/>
     <use xlink:href="#m1eb139e693" x="205.678004" y="264.156114" style="fill: #ff0000; stroke: #ff0000"/>
     <use xlink:href="#m1eb139e693" x="208.957343" y="264.652799" style="fill: #ff0000; stroke: #ff0000"/>
     <use xlink:href="#m1eb139e693" x="212.236681" y="265.116285" style="fill: #ff0000; stroke: #ff0000"/>
     <use xlink:href="#m1eb139e693" x="215.51602" y="265.548673" style="fill: #ff0000; stroke: #ff0000"/>
     <use xlink:href="#m1eb139e693" x="218.795359" y="265.951944" style="fill: #ff0000; stroke: #ff0000"/>
     <use xlink:href="#m1eb139e693" x="222.074698" y="266.327972" style="fill: #ff0000; stroke: #ff0000"/>
     <use xlink:href="#m1eb139e693" x="225.354037" y="266.678518" style="fill: #ff0000; stroke: #ff0000"/>
     <use xlink:href="#m1eb139e693" x="228.633376" y="267.005245" style="fill: #ff0000; stroke: #ff0000"/>
     <use xlink:href="#m1eb139e693" x="231.912714" y="267.309712" style="fill: #ff0000; stroke: #ff0000"/>
     <use xlink:href="#m1eb139e693" x="235.192053" y="267.593389" style="fill: #ff0000; stroke: #ff0000"/>
     <use xlink:href="#m1eb139e693" x="238.471392" y="267.857651" style="fill: #ff0000; stroke: #ff0000"/>
     <use xlink:href="#m1eb139e693" x="241.750731" y="268.103791" style="fill: #ff0000; stroke: #ff0000"/>
     <use xlink:href="#m1eb139e693" x="245.03007" y="268.333021" style="fill: #ff0000; stroke: #ff0000"/>
     <use xlink:href="#m1eb139e693" x="248.309409" y="268.546474" style="fill: #ff0000; stroke: #ff0000"/>
     <use xlink:href="#m1eb139e693" x="251.588747" y="268.745213" style="fill: #ff0000; stroke: #ff0000"/>
     <use xlink:href="#m1eb139e693" x="254.868086" y="268.930232" style="fill: #ff0000; stroke: #ff0000"/>
     <use xlink:href="#m1eb139e693" x="258.147425" y="269.102461" style="fill: #ff0000; stroke: #ff0000"/>
     <use xlink:href="#m1eb139e693" x="261.426764" y="269.262769" style="fill: #ff0000; stroke: #ff0000"/>
     <use xlink:href="#m1eb139e693" x="264.706103" y="269.411967" style="fill: #ff0000; stroke: #ff0000"/>
     <use xlink:href="#m1eb139e693" x="267.985442" y="269.550815" style="fill: #ff0000; stroke: #ff0000"/>
     <use xlink:href="#m1eb139e693" x="271.264781" y="269.680021" style="fill: #ff0000; stroke: #ff0000"/>
     <use xlink:href="#m1eb139e693" x="274.544119" y="269.800245" style="fill: #ff0000; stroke: #ff0000"/>
     <use xlink:href="#m1eb139e693" x="277.823458" y="269.912106" style="fill: #ff0000; stroke: #ff0000"/>
     <use xlink:href="#m1eb139e693" x="281.102797" y="270.016178" style="fill: #ff0000; stroke: #ff0000"/>
     <use xlink:href="#m1eb139e693" x="284.382136" y="270.112999" style="fill: #ff0000; stroke: #ff0000"/>
     <use xlink:href="#m1eb139e693" x="287.661475" y="270.203069" style="fill: #ff0000; stroke: #ff0000"/>
     <use xlink:href="#m1eb139e693" x="290.940814" y="270.286854" style="fill: #ff0000; stroke: #ff0000"/>
     <use xlink:href="#m1eb139e693" x="294.220152" y="270.364791" style="fill: #ff0000; stroke: #ff0000"/>
     <use xlink:href="#m1eb139e693" x="297.499491" y="270.437283" style="fill: #ff0000; stroke: #ff0000"/>
     <use xlink:href="#m1eb139e693" x="300.77883" y="270.504709" style="fill: #ff0000; stroke: #ff0000"/>
     <use xlink:href="#m1eb139e693" x="304.058169" y="270.567421" style="fill: #ff0000; stroke: #ff0000"/>
     <use xlink:href="#m1eb139e693" x="307.337508" y="270.625746" style="fill: #ff0000; stroke: #ff0000"/>
     <use xlink:href="#m1eb139e693" x="310.616847" y="270.679989" style="fill: #ff0000; stroke: #ff0000"/>
     <use xlink:href="#m1eb139e693" x="313.896186" y="270.730435" style="fill: #ff0000; stroke: #ff0000"/>
     <use xlink:href="#m1eb139e693" x="317.175524" y="270.777349" style="fill: #ff0000; stroke: #ff0000"/>
     <use xlink:href="#m1eb139e693" x="320.454863" y="270.820975" style="fill: #ff0000; stroke: #ff0000"/>
     <use xlink:href="#m1eb139e693" x="323.734202" y="270.861545" style="fill: #ff0000; stroke: #ff0000"/>
     <use xlink:href="#m1eb139e693" x="327.013541" y="270.899271" style="fill: #ff0000; stroke: #ff0000"/>
     <use xlink:href="#m1eb139e693" x="330.29288" y="270.934352" style="fill: #ff0000; stroke: #ff0000"/>
     <use xlink:href="#m1eb139e693" x="333.572219" y="270.966972" style="fill: #ff0000; stroke: #ff0000"/>
     <use xlink:href="#m1eb139e693" x="336.851557" y="270.997304" style="fill: #ff0000; stroke: #ff0000"/>
     <use xlink:href="#m1eb139e693" x="340.130896" y="271.025508" style="fill: #ff0000; stroke: #ff0000"/>
     <use xlink:href="#m1eb139e693" x="343.410235" y="271.051733" style="fill: #ff0000; stroke: #ff0000"/>
     <use xlink:href="#m1eb139e693" x="346.689574" y="271.076117" style="fill: #ff0000; stroke: #ff0000"/>
     <use xlink:href="#m1eb139e693" x="349.968913" y="271.09879" style="fill: #ff0000; stroke: #ff0000"/>
     <use xlink:href="#m1eb139e693" x="353.248252" y="271.11987" style="fill: #ff0000; stroke: #ff0000"/>
     <use xlink:href="#m1eb139e693" x="356.52759" y="271.139471" style="fill: #ff0000; stroke: #ff0000"/>
     <use xlink:href="#m1eb139e693" x="359.806929" y="271.157694" style="fill: #ff0000; stroke: #ff0000"/>
     <use xlink:href="#m1eb139e693" x="363.086268" y="271.174638" style="fill: #ff0000; stroke: #ff0000"/>
     <use xlink:href="#m1eb139e693" x="366.365607" y="271.190391" style="fill: #ff0000; stroke: #ff0000"/>
     <use xlink:href="#m1eb139e693" x="369.644946" y="271.205038" style="fill: #ff0000; stroke: #ff0000"/>
     <use xlink:href="#m1eb139e693" x="372.924285" y="271.218655" style="fill: #ff0000; stroke: #ff0000"/>
    </g>
   </g>
   <g id="patch_3">
    <path d="M 32.037012 283.314655 
L 32.037012 17.202655 
" style="fill: none; stroke: #000000; stroke-width: 0.8; stroke-linejoin: miter; stroke-linecap: square"/>
   </g>
   <g id="patch_4">
    <path d="M 389.157012 283.314655 
L 389.157012 17.202655 
" style="fill: none; stroke: #000000; stroke-width: 0.8; stroke-linejoin: miter; stroke-linecap: square"/>
   </g>
   <g id="patch_5">
    <path d="M 32.037012 283.314655 
L 389.157012 283.314655 
" style="fill: none; stroke: #000000; stroke-width: 0.8; stroke-linejoin: miter; stroke-linecap: square"/>
   </g>
   <g id="patch_6">
    <path d="M 32.037012 17.202655 
L 389.157012 17.202655 
" style="fill: none; stroke: #000000; stroke-width: 0.8; stroke-linejoin: miter; stroke-linecap: square"/>
   </g>
   <g id="legend_1">
    <g id="patch_7">
     <path d="M 314.457435 53.077012 
L 382.157012 53.077012 
Q 384.157012 53.077012 384.157012 51.077012 
L 384.157012 24.202655 
Q 384.157012 22.202655 382.157012 22.202655 
L 314.457435 22.202655 
Q 312.457435 22.202655 312.457435 24.202655 
L 312.457435 51.077012 
Q 312.457435 53.077012 314.457435 53.077012 
z
" style="fill: #ffffff; opacity: 0.8; stroke: #cccccc; stroke-linejoin: miter"/>
    </g>
    <g id="line2d_15">
     <path d="M 316.457435 29.702655 
L 326.457435 29.702655 
L 336.457435 29.702655 
" style="fill: none; stroke: #0000ff; stroke-width: 1.5; stroke-linecap: square"/>
     <g>
      <use xlink:href="#m2676338852" x="326.457435" y="29.702655" style="fill: #0000ff; stroke: #0000ff"/>
     </g>
    </g>
    <g id="text_17">
     <!-- FGD -->
     <g transform="translate(344.457435 33.202655) scale(0.1 -0.1)">
      <defs>
       <path id="CMSS17-46" d="M 2918 1984 
L 2918 2374 
L 1101 2374 
L 1101 3993 
L 1882 3993 
C 1958 3993 2035 3987 2112 3987 
L 3168 3987 
L 3168 4403 
L 563 4403 
L 563 0 
L 1101 0 
L 1101 1984 
L 2918 1984 
z
" transform="scale(0.015625)"/>
       <path id="CMSS17-47" d="M 3610 1868 
L 2336 1868 
L 2336 1472 
L 3123 1472 
L 3123 473 
C 2874 403 2618 352 2362 352 
C 1466 352 934 1311 934 2220 
C 934 3123 1491 4070 2362 4070 
C 2854 4070 3130 3916 3469 3660 
L 3552 4172 
C 3130 4390 2867 4480 2387 4480 
C 1146 4480 397 3353 397 2201 
C 397 1100 1152 -64 2349 -64 
C 2797 -64 3213 51 3610 249 
L 3610 1868 
z
" transform="scale(0.015625)"/>
       <path id="CMSS17-44" d="M 570 4416 
L 570 0 
L 2144 0 
C 3194 0 4000 981 4000 2169 
C 4000 3396 3194 4416 2144 4416 
L 570 4416 
z
M 1094 358 
L 1094 4057 
L 2003 4057 
C 2861 4057 3475 3275 3475 2169 
C 3475 1108 2867 358 2003 358 
L 1094 358 
z
" transform="scale(0.015625)"/>
      </defs>
      <use xlink:href="#CMSS17-46" transform="scale(0.996264)"/>
      <use xlink:href="#CMSS17-47" transform="translate(50.687105 0) scale(0.996264)"/>
      <use xlink:href="#CMSS17-44" transform="translate(113.145331 0) scale(0.996264)"/>
     </g>
    </g>
    <g id="line2d_16">
     <path d="M 316.457435 43.639834 
L 326.457435 43.639834 
L 336.457435 43.639834 
" style="fill: none; stroke: #ff0000; stroke-width: 1.5; stroke-linecap: square"/>
     <g>
      <use xlink:href="#m1eb139e693" x="326.457435" y="43.639834" style="fill: #ff0000; stroke: #ff0000"/>
     </g>
    </g>
    <g id="text_18">
     <!-- FGD-ED -->
     <g transform="translate(344.457435 47.139834) scale(0.1 -0.1)">
      <defs>
       <path id="CMSS17-2d" d="M 1664 1216 
L 1664 1587 
L 64 1587 
L 64 1216 
L 1664 1216 
z
" transform="scale(0.015625)"/>
       <path id="CMSS17-45" d="M 1958 435 
C 1446 435 1216 435 1101 428 
L 1101 2105 
L 3085 2105 
L 3085 2496 
L 1101 2496 
L 1101 3993 
L 1926 3993 
C 2003 3993 2080 3987 2157 3987 
L 3251 3987 
L 3251 4403 
L 563 4403 
L 563 0 
L 3334 0 
L 3334 441 
L 1958 435 
z
" transform="scale(0.015625)"/>
      </defs>
      <use xlink:href="#CMSS17-46" transform="scale(0.996264)"/>
      <use xlink:href="#CMSS17-47" transform="translate(50.687105 0) scale(0.996264)"/>
      <use xlink:href="#CMSS17-44" transform="translate(113.145331 0) scale(0.996264)"/>
      <use xlink:href="#CMSS17-2d" transform="translate(180.688173 0) scale(0.996264)"/>
      <use xlink:href="#CMSS17-45" transform="translate(211.917285 0) scale(0.996264)"/>
      <use xlink:href="#CMSS17-44" transform="translate(267.809299 0) scale(0.996264)"/>
     </g>
    </g>
   </g>
  </g>
 </g>
 <defs>
  <clipPath id="p71192df32d">
   <rect x="32.037012" y="17.202655" width="357.12" height="266.112"/>
  </clipPath>
 </defs>
</svg>
